<?xml version="1.0" encoding="utf-8"?>
<!-- Generator: Adobe Illustrator 19.2.1, SVG Export Plug-In . SVG Version: 6.00 Build 0)  -->
<svg version="1.1"
	 id="svg2" inkscape:version="0.48.5 r10040" sodipodi:docname="Figure rythmique blanche pointée.svg" xmlns:cc="http://creativecommons.org/ns#" xmlns:dc="http://purl.org/dc/elements/1.1/" xmlns:inkscape="http://www.inkscape.org/namespaces/inkscape" xmlns:rdf="http://www.w3.org/1999/02/22-rdf-syntax-ns#" xmlns:sodipodi="http://sodipodi.sourceforge.net/DTD/sodipodi-0.dtd" xmlns:svg="http://www.w3.org/2000/svg"
	 xmlns="http://www.w3.org/2000/svg" xmlns:xlink="http://www.w3.org/1999/xlink" x="0px" y="0px" viewBox="0 0 14.2 25.2"
	 style="enable-background:new 0 0 14.2 25.2;" xml:space="preserve">
<path id="notehead" inkscape:connector-curvature="0" d="M7.8,20.2c0-0.6-0.5-1-1-1c-0.1,0-0.2,0-0.3,0c-0.8,0.2-1.9,1-2.8,1.6
	c-0.9,0.6-2.1,1.3-2.6,1.9c-0.2,0.2-0.3,0.4-0.3,0.7c0,0.6,0.5,1,1,1c0.1,0,0.2,0,0.3,0c0.8-0.2,1.9-1,2.9-1.6
	c0.9-0.6,2.1-1.3,2.6-1.9C7.8,20.7,7.8,20.4,7.8,20.2z M6.6,18.4c1.2,0,2.1,0.5,2.1,1.8c0,0.5-0.1,0.9-0.2,1.4
	c-0.3,0.9-0.8,1.8-1.6,2.4c-1.3,0.9-2.8,1.3-4.7,1.3c-1.2,0-2.1-0.5-2.1-1.8c0-0.5,0.1-0.9,0.3-1.4c0.3-0.9,0.8-1.8,1.6-2.4
	C3.2,18.7,4.7,18.4,6.6,18.4z"/>
<path id="path20" inkscape:connector-curvature="0" d="M11.5,21.8c0-0.8,0.6-1.4,1.4-1.4c0.8,0,1.4,0.6,1.4,1.4
	c0,0.8-0.6,1.4-1.4,1.4C12.1,23.2,11.5,22.6,11.5,21.8z"/>
<path id="rect22" d="M8.1,0h0.3c0.1,0,0.2,0.1,0.2,0.2v19.7c0,0.1-0.1,0.2-0.2,0.2H8.1c-0.1,0-0.2-0.1-0.2-0.2V0.2
	C7.8,0.1,8,0,8.1,0z"/>
</svg>
