<?xml version="1.0" encoding="utf-8"?>
<!-- Generator: Adobe Illustrator 19.2.1, SVG Export Plug-In . SVG Version: 6.00 Build 0)  -->
<svg version="1.1"
	 id="svg3187" inkscape:version="0.48.5 r10040" sodipodi:docname="3 blanches.svg" xmlns:cc="http://creativecommons.org/ns#" xmlns:dc="http://purl.org/dc/elements/1.1/" xmlns:inkscape="http://www.inkscape.org/namespaces/inkscape" xmlns:rdf="http://www.w3.org/1999/02/22-rdf-syntax-ns#" xmlns:sodipodi="http://sodipodi.sourceforge.net/DTD/sodipodi-0.dtd" xmlns:svg="http://www.w3.org/2000/svg"
	 xmlns="http://www.w3.org/2000/svg" xmlns:xlink="http://www.w3.org/1999/xlink" x="0px" y="0px" viewBox="0 0 14.2 26.3"
	 style="enable-background:new 0 0 14.2 26.3;" xml:space="preserve">
<path id="notehead" inkscape:connector-curvature="0" d="M7.8,2.9c0-0.6-0.5-1-1-1c-0.1,0-0.2,0-0.3,0c-0.8,0.2-1.9,1-2.8,1.6
	S1.6,4.8,1.1,5.4C0.9,5.6,0.8,5.9,0.8,6.1c0,0.6,0.5,1,1,1c0.1,0,0.2,0,0.3,0C2.9,6.9,4,6.1,5,5.5s2.1-1.3,2.6-1.9
	C7.8,3.4,7.8,3.1,7.8,2.9z M6.6,1.1c1.2,0,2.1,0.5,2.1,1.8c0,0.5-0.1,0.9-0.2,1.4C8.1,5.2,7.6,6.1,6.8,6.7C5.4,7.6,4,7.9,2.1,7.9
	C0.9,7.9,0,7.4,0,6.1c0-0.5,0.1-0.9,0.3-1.4C0.6,3.8,1,2.9,1.9,2.3C3.2,1.4,4.7,1.1,6.6,1.1z"/>
<path id="path3283" inkscape:connector-curvature="0" d="M11.5,4.5c0-0.8,0.6-1.4,1.4-1.4c0.8,0,1.4,0.6,1.4,1.4s-0.6,1.4-1.4,1.4
	S11.5,5.3,11.5,4.5z"/>
<path id="rect3285" d="M0.2,6.1h0.3c0.1,0,0.2,0.1,0.2,0.2V26c0,0.1-0.1,0.2-0.2,0.2H0.2C0.1,26.2,0,26.1,0,26V6.4
	C0,6.2,0.1,6.1,0.2,6.1z"/>
</svg>
