<?xml version="1.0" encoding="utf-8"?>
<!-- Generator: Adobe Illustrator 19.2.1, SVG Export Plug-In . SVG Version: 6.00 Build 0)  -->
<svg version="1.1"
	 id="svg2" inkscape:version="0.91 r13725" sodipodi:docname="blanche doublement pointée.svg" xmlns:cc="http://creativecommons.org/ns#" xmlns:dc="http://purl.org/dc/elements/1.1/" xmlns:inkscape="http://www.inkscape.org/namespaces/inkscape" xmlns:rdf="http://www.w3.org/1999/02/22-rdf-syntax-ns#" xmlns:sodipodi="http://sodipodi.sourceforge.net/DTD/sodipodi-0.dtd" xmlns:svg="http://www.w3.org/2000/svg"
	 xmlns="http://www.w3.org/2000/svg" xmlns:xlink="http://www.w3.org/1999/xlink" x="0px" y="0px" viewBox="0 0 15.9 20.2"
	 style="enable-background:new 0 0 15.9 20.2;" xml:space="preserve">
<sodipodi:namedview  bordercolor="#666666" borderopacity="1" fit-margin-bottom="0" fit-margin-left="0" fit-margin-right="0" fit-margin-top="0" gridtolerance="10" guidetolerance="10" id="namedview182" inkscape:current-layer="svg2" inkscape:cx="47.054101" inkscape:cy="21.72446" inkscape:pageopacity="0" inkscape:pageshadow="2" inkscape:window-height="1018" inkscape:window-maximized="1" inkscape:window-width="1920" inkscape:window-x="-8" inkscape:window-y="-8" inkscape:zoom="1.2685914" objecttolerance="10" pagecolor="#ffffff" showgrid="false">
	</sodipodi:namedview>
<path id="rect120" d="M0.2,4h0.2c0.1,0,0.2,0.1,0.2,0.2V20c0,0.1-0.1,0.2-0.2,0.2H0.2C0.1,20.2,0,20.1,0,20V4.2C0,4.1,0.1,4,0.2,4z"
	/>
<path id="path122" inkscape:connector-curvature="0" d="M13.6,2.7c0-0.6,0.5-1.1,1.1-1.1c0.6,0,1.1,0.5,1.1,1.1s-0.5,1.1-1.1,1.1
	C14.1,3.8,13.6,3.3,13.6,2.7z"/>
<path id="path124" inkscape:connector-curvature="0" d="M9.2,2.7c0-0.6,0.5-1.1,1.1-1.1s1.1,0.5,1.1,1.1s-0.5,1.1-1.1,1.1
	S9.2,3.3,9.2,2.7z"/>
<path id="path128" inkscape:connector-curvature="0" d="M6.3,1.4c0-0.5-0.4-0.8-0.8-0.8c-0.1,0-0.2,0-0.2,0C4.6,0.8,3.7,1.4,2.9,1.9
	S1.3,3,0.9,3.5C0.7,3.6,0.6,3.8,0.6,4c0,0.5,0.4,0.8,0.8,0.8c0.1,0,0.2,0,0.2,0C2.3,4.6,3.3,4,4,3.5S5.7,2.5,6.1,2
	C6.2,1.8,6.3,1.6,6.3,1.4z M5.3,0c0.9,0,1.7,0.4,1.7,1.4c0,0.4-0.1,0.7-0.2,1.1C6.5,3.3,6.1,4,5.4,4.5c-1.1,0.7-2.3,1-3.7,1
	C0.7,5.5,0,5,0,4c0-0.4,0.1-0.7,0.2-1.1C0.5,2.2,0.8,1.4,1.5,1C2.6,0.3,3.8,0,5.3,0z"/>
</svg>
