<?xml version="1.0" encoding="utf-8"?>
<!-- Generator: Adobe Illustrator 19.2.1, SVG Export Plug-In . SVG Version: 6.00 Build 0)  -->
<svg version="1.1"
	 id="svg2" inkscape:version="0.91 r13725" sodipodi:docname="blanche tête en bas.svg" xmlns:cc="http://creativecommons.org/ns#" xmlns:dc="http://purl.org/dc/elements/1.1/" xmlns:inkscape="http://www.inkscape.org/namespaces/inkscape" xmlns:rdf="http://www.w3.org/1999/02/22-rdf-syntax-ns#" xmlns:sodipodi="http://sodipodi.sourceforge.net/DTD/sodipodi-0.dtd" xmlns:svg="http://www.w3.org/2000/svg"
	 xmlns="http://www.w3.org/2000/svg" xmlns:xlink="http://www.w3.org/1999/xlink" x="0px" y="0px" viewBox="0 0 6.9 20.2"
	 style="enable-background:new 0 0 6.9 20.2;" xml:space="preserve">
<sodipodi:namedview  bordercolor="#666666" borderopacity="1" fit-margin-bottom="0" fit-margin-left="0" fit-margin-right="0" fit-margin-top="0" gridtolerance="10" guidetolerance="10" id="namedview126" inkscape:current-layer="svg2" inkscape:cx="93.100319" inkscape:cy="28.645075" inkscape:pageopacity="0" inkscape:pageshadow="2" inkscape:window-height="1018" inkscape:window-maximized="1" inkscape:window-width="1920" inkscape:window-x="-8" inkscape:window-y="-8" inkscape:zoom="0.89702955" objecttolerance="10" pagecolor="#ffffff" showgrid="false">
	</sodipodi:namedview>
<path id="path28" inkscape:connector-curvature="0" d="M6.3,16.1c0-0.5-0.4-0.8-0.8-0.8c-0.1,0-0.2,0-0.2,0
	c-0.6,0.2-1.5,0.8-2.3,1.3s-1.7,1.1-2.1,1.6c-0.1,0.2-0.2,0.4-0.2,0.6c0,0.5,0.4,0.8,0.8,0.8c0.1,0,0.2,0,0.2,0
	c0.6-0.2,1.6-0.8,2.3-1.3s1.7-1.1,2.1-1.6C6.2,16.5,6.3,16.3,6.3,16.1z M5.3,14.7c0.9,0,1.7,0.4,1.7,1.4c0,0.4-0.1,0.7-0.2,1.1
	c-0.2,0.8-0.6,1.5-1.3,1.9c-1.1,0.7-2.3,1-3.7,1c-0.9,0-1.7-0.4-1.7-1.5c0-0.4,0.1-0.7,0.2-1.1c0.2-0.8,0.6-1.5,1.3-1.9
	C2.6,15,3.8,14.7,5.3,14.7z"/>
<path id="rect24" d="M6.5,0h0.2c0.1,0,0.2,0.1,0.2,0.2v15.7c0,0.1-0.1,0.2-0.2,0.2H6.5c-0.1,0-0.2-0.1-0.2-0.2V0.2
	C6.3,0.1,6.4,0,6.5,0z"/>
</svg>
