<?xml version="1.0" encoding="utf-8"?>
<!-- Generator: Adobe Illustrator 19.2.1, SVG Export Plug-In . SVG Version: 6.00 Build 0)  -->
<svg version="1.1"
	 id="svg2" inkscape:version="0.91 r13725" sodipodi:docname="croche doublement pointée tête en bas.svg" xmlns:cc="http://creativecommons.org/ns#" xmlns:dc="http://purl.org/dc/elements/1.1/" xmlns:inkscape="http://www.inkscape.org/namespaces/inkscape" xmlns:rdf="http://www.w3.org/1999/02/22-rdf-syntax-ns#" xmlns:sodipodi="http://sodipodi.sourceforge.net/DTD/sodipodi-0.dtd" xmlns:svg="http://www.w3.org/2000/svg"
	 xmlns="http://www.w3.org/2000/svg" xmlns:xlink="http://www.w3.org/1999/xlink" x="0px" y="0px" viewBox="0 0 15.5 20.2"
	 style="enable-background:new 0 0 15.5 20.2;" xml:space="preserve">
<sodipodi:namedview  bordercolor="#666666" borderopacity="1" fit-margin-bottom="0" fit-margin-left="0" fit-margin-right="0" fit-margin-top="0" gridtolerance="10" guidetolerance="10" id="namedview182" inkscape:current-layer="svg2" inkscape:cx="33.551352" inkscape:cy="-42.684006" inkscape:pageopacity="0" inkscape:pageshadow="2" inkscape:window-height="1018" inkscape:window-maximized="1" inkscape:window-width="1920" inkscape:window-x="-8" inkscape:window-y="-8" inkscape:zoom="1.2685914" objecttolerance="10" pagecolor="#ffffff" showgrid="false">
	</sodipodi:namedview>
<path id="path98" inkscape:connector-curvature="0" d="M6.6,0.2c0,3.9,4.2,6.7,4.2,10.6c0,1.4-0.3,2.8-0.8,4.1
	c-0.1,0.2-0.2,0.2-0.4,0.2C9.2,15.2,9,15,9,14.6c0.5-1.2,0.8-2.5,0.8-3.8c0-2.1-1.9-4.1-3.3-5.6H6.2v-5H6.6z"/>
<path id="rect100" d="M6.1,0h0.2c0.1,0,0.2,0.1,0.2,0.2v16.1c0,0.1-0.1,0.2-0.2,0.2H6.1c-0.1,0-0.2-0.1-0.2-0.2V0.2
	C5.9,0.1,6,0,6.1,0z"/>
<path id="path102" inkscape:connector-curvature="0" d="M13.3,17.4c0-0.6,0.5-1.1,1.1-1.1s1.1,0.5,1.1,1.1s-0.5,1.1-1.1,1.1
	S13.3,18.1,13.3,17.4z"/>
<path id="path104" inkscape:connector-curvature="0" d="M8.8,17.4c0-0.6,0.5-1.1,1.1-1.1c0.6,0,1.1,0.5,1.1,1.1s-0.5,1.1-1.1,1.1
	C9.3,18.6,8.8,18.1,8.8,17.4z"/>
<path id="path108" inkscape:connector-curvature="0" d="M4.4,14.7c1.1,0,2.2,0.6,2.2,1.8c0,1.4-1.1,2.4-2.1,3
	c-0.7,0.4-1.5,0.7-2.3,0.7c-1.1,0-2.2-0.6-2.2-1.8c0-1.4,1.1-2.4,2.1-3C2.8,15,3.6,14.7,4.4,14.7z"/>
</svg>
