<?xml version="1.0" encoding="utf-8"?>
<!-- Generator: Adobe Illustrator 19.2.1, SVG Export Plug-In . SVG Version: 6.00 Build 0)  -->
<svg version="1.1"
	 id="svg2" inkscape:version="0.91 r13725" sodipodi:docname="croche doublement point‚àö¬©e.svg" xmlns:cc="http://creativecommons.org/ns#" xmlns:dc="http://purl.org/dc/elements/1.1/" xmlns:inkscape="http://www.inkscape.org/namespaces/inkscape" xmlns:rdf="http://www.w3.org/1999/02/22-rdf-syntax-ns#" xmlns:sodipodi="http://sodipodi.sourceforge.net/DTD/sodipodi-0.dtd" xmlns:svg="http://www.w3.org/2000/svg"
	 xmlns="http://www.w3.org/2000/svg" xmlns:xlink="http://www.w3.org/1999/xlink" x="0px" y="0px" viewBox="0 0 15.5 20.2"
	 style="enable-background:new 0 0 15.5 20.2;" xml:space="preserve">
<path id="notehead" inkscape:connector-curvature="0" d="M4.4,0c1.1,0,2.2,0.6,2.2,1.8c0,1.4-1.1,2.4-2.1,3C3.8,5.2,3,5.5,2.2,5.5
	C1.1,5.5,0,4.9,0,3.7c0-1.4,1.1-2.4,2.1-3C2.8,0.3,3.6,0,4.4,0z"/>
<path id="path166" inkscape:connector-curvature="0" d="M13.3,2.7c0-0.6,0.5-1.1,1.1-1.1s1.1,0.5,1.1,1.1S15,3.9,14.4,3.9
	S13.3,3.4,13.3,2.7z"/>
<path id="path168" inkscape:connector-curvature="0" d="M8.8,2.7c0-0.6,0.5-1.1,1.1-1.1S11,2.1,11,2.7s-0.5,1.1-1.1,1.1
	C9.3,3.9,8.8,3.4,8.8,2.7z"/>
<path id="rect170" d="M0.2,3.7h0.2c0.1,0,0.2,0.1,0.2,0.2V20c0,0.1-0.1,0.2-0.2,0.2H0.2C0.1,20.2,0,20.1,0,20V3.9
	C0,3.8,0.1,3.7,0.2,3.7z"/>
<path id="path172" inkscape:connector-curvature="0" d="M0.6,20H0.3v-5h0.3c2-1.2,4.5-2.9,4.5-5.2c0-1.1-0.3-2.2-0.8-3.2
	c0-0.3,0.3-0.5,0.5-0.5c0.1,0,0.3,0.1,0.4,0.2C5.7,7.4,6,8.6,6,9.8C6,13.9,0.6,15.9,0.6,20z"/>
</svg>
