<?xml version="1.0" encoding="utf-8"?>
<!-- Generator: Adobe Illustrator 19.2.1, SVG Export Plug-In . SVG Version: 6.00 Build 0)  -->
<svg version="1.1"
	 id="svg2" inkscape:version="0.48.5 r10040" sodipodi:docname="Figure rythmique trois croches.svg" xmlns:cc="http://creativecommons.org/ns#" xmlns:dc="http://purl.org/dc/elements/1.1/" xmlns:inkscape="http://www.inkscape.org/namespaces/inkscape" xmlns:rdf="http://www.w3.org/1999/02/22-rdf-syntax-ns#" xmlns:sodipodi="http://sodipodi.sourceforge.net/DTD/sodipodi-0.dtd" xmlns:svg="http://www.w3.org/2000/svg"
	 xmlns="http://www.w3.org/2000/svg" xmlns:xlink="http://www.w3.org/1999/xlink" x="0px" y="0px" viewBox="0 0 13.8 25.2"
	 style="enable-background:new 0 0 13.8 25.2;" xml:space="preserve">
<path id="path72" inkscape:connector-curvature="0" d="M8.2,0.2c0,4.9,5.2,8.3,5.2,13.3c0,1.8-0.4,3.5-1,5.2
	c-0.1,0.2-0.3,0.3-0.5,0.3c-0.3,0-0.6-0.3-0.6-0.7c0.6-1.5,1-3.1,1-4.8c0-2.6-2.4-5.2-4.2-7H7.8V0.2H8.2z"/>
<path id="rect74" d="M7.6,0h0.3C8,0,8.1,0.1,8.1,0.2v20.1c0,0.1-0.1,0.2-0.2,0.2H7.6c-0.1,0-0.2-0.1-0.2-0.2V0.2
	C7.4,0.1,7.5,0,7.6,0z"/>
<path id="path76" inkscape:connector-curvature="0" d="M11,21.8c0-0.8,0.6-1.4,1.4-1.4c0.8,0,1.4,0.6,1.4,1.4s-0.6,1.4-1.4,1.4
	C11.6,23.2,11,22.6,11,21.8z"/>
<path id="notehead" inkscape:connector-curvature="0" d="M5.5,18.4c1.4,0,2.7,0.7,2.7,2.3c0,1.8-1.4,3-2.6,3.7
	c-0.9,0.5-1.9,0.9-2.9,0.9C1.3,25.2,0,24.5,0,23c0-1.8,1.4-3,2.6-3.7C3.5,18.7,4.5,18.4,5.5,18.4z"/>
</svg>
