<?xml version="1.0" encoding="utf-8"?>
<!-- Generator: Adobe Illustrator 19.2.1, SVG Export Plug-In . SVG Version: 6.00 Build 0)  -->
<svg version="1.1"
	 id="svg2" inkscape:version="0.91 r13725" sodipodi:docname="double-croche tête en bas.svg" xmlns:cc="http://creativecommons.org/ns#" xmlns:dc="http://purl.org/dc/elements/1.1/" xmlns:inkscape="http://www.inkscape.org/namespaces/inkscape" xmlns:rdf="http://www.w3.org/1999/02/22-rdf-syntax-ns#" xmlns:sodipodi="http://sodipodi.sourceforge.net/DTD/sodipodi-0.dtd" xmlns:svg="http://www.w3.org/2000/svg"
	 xmlns="http://www.w3.org/2000/svg" xmlns:xlink="http://www.w3.org/1999/xlink" x="0px" y="0px" viewBox="0 0 10.7 20.2"
	 style="enable-background:new 0 0 10.7 20.2;" xml:space="preserve">
<sodipodi:namedview  bordercolor="#666666" borderopacity="1" fit-margin-bottom="0" fit-margin-left="0" fit-margin-right="0" fit-margin-top="0" gridtolerance="10" guidetolerance="10" id="namedview126" inkscape:current-layer="svg2" inkscape:cx="107.23101" inkscape:cy="-44.80564" inkscape:pageopacity="0" inkscape:pageshadow="2" inkscape:window-height="1018" inkscape:window-maximized="1" inkscape:window-width="1920" inkscape:window-x="-8" inkscape:window-y="-8" inkscape:zoom="2.5371827" objecttolerance="10" pagecolor="#ffffff" showgrid="false">
	</sodipodi:namedview>
<path id="path60" inkscape:connector-curvature="0" d="M6.6,0.2c0,3.5,4,5.8,4,9.4c0,0.7-0.2,1.3-0.5,1.9c0.4,0.7,0.6,1.5,0.6,2.3
	c0,1.3-0.3,2.5-0.8,3.6c-0.1,0.2-0.2,0.2-0.4,0.2c-0.3,0-0.5-0.2-0.5-0.5c0.5-1,0.8-2.2,0.8-3.3c0-1.9-1.9-3.8-3.3-5.1v1.5H6.2v-10
	H6.6z M9.6,10.5c0.1-0.3,0.1-0.6,0.1-0.9c0-1.9-1.8-3.8-3.2-5.1C6.6,6.8,8.4,8.5,9.6,10.5z"/>
<path id="rect62" d="M6.1,0h0.2c0.1,0,0.2,0.1,0.2,0.2v16.1c0,0.1-0.1,0.2-0.2,0.2H6.1c-0.1,0-0.2-0.1-0.2-0.2V0.2
	C5.9,0.1,6,0,6.1,0z"/>
<path id="path66" inkscape:connector-curvature="0" d="M4.4,14.7c1.1,0,2.2,0.6,2.2,1.8c0,1.4-1.1,2.4-2.1,3
	c-0.7,0.4-1.5,0.7-2.3,0.7c-1.1,0-2.2-0.6-2.2-1.8c0-1.4,1.1-2.4,2.1-3C2.8,15,3.6,14.7,4.4,14.7z"/>
</svg>
