<?xml version="1.0" encoding="utf-8"?>
<!-- Generator: Adobe Illustrator 19.2.1, SVG Export Plug-In . SVG Version: 6.00 Build 0)  -->
<svg version="1.1"
	 id="svg3187" inkscape:version="0.48.5 r10040" sodipodi:docname="3 doubles croches.svg" xmlns:cc="http://creativecommons.org/ns#" xmlns:dc="http://purl.org/dc/elements/1.1/" xmlns:inkscape="http://www.inkscape.org/namespaces/inkscape" xmlns:rdf="http://www.w3.org/1999/02/22-rdf-syntax-ns#" xmlns:sodipodi="http://sodipodi.sourceforge.net/DTD/sodipodi-0.dtd" xmlns:svg="http://www.w3.org/2000/svg"
	 xmlns="http://www.w3.org/2000/svg" xmlns:xlink="http://www.w3.org/1999/xlink" x="0px" y="0px" viewBox="0 0 13.8 26.3"
	 style="enable-background:new 0 0 13.8 26.3;" xml:space="preserve">
<path id="notehead" inkscape:connector-curvature="0" d="M5.5,1.1c1.4,0,2.7,0.7,2.7,2.3c0,1.8-1.4,3-2.6,3.7
	C4.7,7.6,3.7,7.9,2.7,7.9C1.3,7.9,0,7.2,0,5.7c0-1.8,1.4-3,2.6-3.7C3.5,1.4,4.5,1.1,5.5,1.1z"/>
<path id="path3297" inkscape:connector-curvature="0" d="M11,4.5c0-0.8,0.6-1.4,1.4-1.4c0.8,0,1.4,0.6,1.4,1.4s-0.6,1.4-1.4,1.4
	S11,5.3,11,4.5z"/>
<path id="path3299" inkscape:connector-curvature="0" d="M0.8,20.9c2.3-1.3,5.3-3.3,5.3-5.8c0-0.6-0.1-1.2-0.3-1.7c-2,2.2-5,4-5,7
	C0.8,20.4,0.8,20.9,0.8,20.9z M7.5,9.5c0,1.1-0.4,2-0.9,2.9c0.4,0.8,0.6,1.8,0.6,2.7c0,4.5-6.4,6.4-6.4,10.9H0.4V13.6h0.4v1.7
	c2.4-1.2,5.7-3.2,5.7-5.8c0-0.5-0.1-1-0.3-1.5C6,7.6,6.4,7.3,6.7,7.3C7.4,7.3,7.5,8.9,7.5,9.5z"/>
<path id="rect3301" d="M0.2,5.7h0.3c0.1,0,0.2,0.1,0.2,0.2V26c0,0.1-0.1,0.2-0.2,0.2H0.2C0.1,26.2,0,26.1,0,26V5.9
	C0,5.8,0.1,5.7,0.2,5.7z"/>
</svg>
