<?xml version="1.0" encoding="utf-8"?>
<!-- Generator: Adobe Illustrator 19.2.1, SVG Export Plug-In . SVG Version: 6.00 Build 0)  -->
<svg version="1.1"
	 id="svg2" inkscape:version="0.91 r13725" sodipodi:docname="noire doublement pointée.svg" xmlns:cc="http://creativecommons.org/ns#" xmlns:dc="http://purl.org/dc/elements/1.1/" xmlns:inkscape="http://www.inkscape.org/namespaces/inkscape" xmlns:rdf="http://www.w3.org/1999/02/22-rdf-syntax-ns#" xmlns:sodipodi="http://sodipodi.sourceforge.net/DTD/sodipodi-0.dtd" xmlns:svg="http://www.w3.org/2000/svg"
	 xmlns="http://www.w3.org/2000/svg" xmlns:xlink="http://www.w3.org/1999/xlink" x="0px" y="0px" viewBox="0 0 15.5 20.2"
	 style="enable-background:new 0 0 15.5 20.2;" xml:space="preserve">
<sodipodi:namedview  bordercolor="#666666" borderopacity="1" fit-margin-bottom="0" fit-margin-left="0" fit-margin-right="0" fit-margin-top="0" gridtolerance="10" guidetolerance="10" id="namedview182" inkscape:current-layer="svg2" inkscape:cx="234.63273" inkscape:cy="-2.8583557" inkscape:pageopacity="0" inkscape:pageshadow="2" inkscape:window-height="1018" inkscape:window-maximized="1" inkscape:window-width="1920" inkscape:window-x="-8" inkscape:window-y="-8" inkscape:zoom="1.2685914" objecttolerance="10" pagecolor="#ffffff" showgrid="false">
	</sodipodi:namedview>
<path id="rect110" d="M0.2,3.7h0.2c0.1,0,0.2,0.1,0.2,0.2V20c0,0.1-0.1,0.2-0.2,0.2H0.2C0.1,20.2,0,20.1,0,20V3.9
	C0,3.8,0.1,3.7,0.2,3.7z"/>
<path id="path112" inkscape:connector-curvature="0" d="M13.3,2.7c0-0.6,0.5-1.1,1.1-1.1s1.1,0.5,1.1,1.1S15,3.9,14.4,3.9
	S13.3,3.4,13.3,2.7z"/>
<path id="path114" inkscape:connector-curvature="0" d="M8.8,2.7c0-0.6,0.5-1.1,1.1-1.1S11,2.1,11,2.7s-0.5,1.1-1.1,1.1
	S8.8,3.4,8.8,2.7z"/>
<path id="path118" inkscape:connector-curvature="0" d="M4.4,0c1.1,0,2.2,0.6,2.2,1.8c0,1.4-1.1,2.4-2.1,3C3.8,5.2,3,5.5,2.2,5.5
	C1.1,5.5,0,4.9,0,3.7c0-1.4,1.1-2.4,2.1-3C2.8,0.3,3.6,0,4.4,0z"/>
</svg>
