<?xml version="1.0" encoding="utf-8"?>
<!-- Generator: Adobe Illustrator 19.2.1, SVG Export Plug-In . SVG Version: 6.00 Build 0)  -->
<svg version="1.1"
	 id="svg2" inkscape:version="0.91 r13725" sodipodi:docname="quadruple-croche doublement point√©e t√™te en bas.svg" xmlns:cc="http://creativecommons.org/ns#" xmlns:dc="http://purl.org/dc/elements/1.1/" xmlns:inkscape="http://www.inkscape.org/namespaces/inkscape" xmlns:rdf="http://www.w3.org/1999/02/22-rdf-syntax-ns#" xmlns:sodipodi="http://sodipodi.sourceforge.net/DTD/sodipodi-0.dtd" xmlns:svg="http://www.w3.org/2000/svg"
	 xmlns="http://www.w3.org/2000/svg" xmlns:xlink="http://www.w3.org/1999/xlink" x="0px" y="0px" viewBox="0 0 19.4 27.7"
	 style="enable-background:new 0 0 19.4 27.7;" xml:space="preserve">
<path id="path60" inkscape:connector-curvature="0" d="M6.6,4.4v0.2c0,2.2,1.7,3.9,2.9,5.8c0.1-0.3,0.1-0.5,0.1-0.8
	C9.5,7.8,7.9,5.8,6.6,4.4z M6.6,0.2c0,3.5,3.8,5.9,3.8,9.4c0,0.6-0.1,1.2-0.4,1.8c0.3,0.7,0.6,1.4,0.6,2.3c0,0.8-0.2,1.5-0.6,2.2
	c0.3,0.7,0.6,1.4,0.6,2.3c0,0.7-0.3,1.3-0.7,1.8c0.5,0.8,0.8,1.7,0.8,2.7c0,1.2-0.3,2.4-0.8,3.5c-0.1,0.2-0.2,0.2-0.4,0.2
	c-0.3,0-0.5-0.2-0.5-0.5c0.5-1,0.8-2.1,0.8-3.2c0-1.9-1.9-3.6-3.3-4.8v2.3H6.2v-20H6.6z M6.6,8.9v0.2c0,2.3,1.8,3.9,2.9,5.8
	c0.2-0.4,0.2-0.8,0.2-1.3C9.7,11.9,7.9,10.1,6.6,8.9z M6.6,13.4v0.3c0,2.2,1.7,3.8,2.9,5.6c0.2-0.3,0.3-0.7,0.3-1.1
	C9.7,16.3,7.9,14.6,6.6,13.4z"/>
<path id="rect62" d="M6.1,0h0.2c0.1,0,0.2,0.1,0.2,0.2v23.6c0,0.1-0.1,0.2-0.2,0.2H6.1c-0.1,0-0.2-0.1-0.2-0.2V0.2
	C5.9,0.1,6,0,6.1,0z"/>
<path id="path66" inkscape:connector-curvature="0" d="M17.1,24.9c0-0.6,0.5-1.1,1.1-1.1s1.1,0.5,1.1,1.1S18.9,26,18.2,26
	S17.1,25.5,17.1,24.9z"/>
<path id="path68" inkscape:connector-curvature="0" d="M12.6,24.9c0-0.6,0.5-1.1,1.1-1.1s1.1,0.5,1.1,1.1s-0.4,1.1-1,1.1
	C13.1,26,12.6,25.5,12.6,24.9z"/>
<path id="notehead" inkscape:connector-curvature="0" d="M4.4,22.2c1.1,0,2.2,0.6,2.2,1.8c0,1.4-1.1,2.4-2.1,3
	c-0.7,0.4-1.5,0.7-2.3,0.7c-1.1,0-2.2-0.6-2.2-1.8c0-1.4,1.1-2.4,2.1-3C2.8,22.5,3.6,22.2,4.4,22.2z"/>
</svg>
