<?xml version="1.0" encoding="utf-8"?>
<!-- Generator: Adobe Illustrator 19.2.1, SVG Export Plug-In . SVG Version: 6.00 Build 0)  -->
<svg version="1.1"
	 id="svg2" inkscape:version="0.91 r13725" sodipodi:docname="quadruple-croche pointée.svg" xmlns:cc="http://creativecommons.org/ns#" xmlns:dc="http://purl.org/dc/elements/1.1/" xmlns:inkscape="http://www.inkscape.org/namespaces/inkscape" xmlns:rdf="http://www.w3.org/1999/02/22-rdf-syntax-ns#" xmlns:sodipodi="http://sodipodi.sourceforge.net/DTD/sodipodi-0.dtd" xmlns:svg="http://www.w3.org/2000/svg"
	 xmlns="http://www.w3.org/2000/svg" xmlns:xlink="http://www.w3.org/1999/xlink" x="0px" y="0px" viewBox="0 0 11 27.7"
	 style="enable-background:new 0 0 11 27.7;" xml:space="preserve">
<sodipodi:namedview  bordercolor="#666666" borderopacity="1" fit-margin-bottom="0" fit-margin-left="0" fit-margin-right="0" fit-margin-top="0" gridtolerance="10" guidetolerance="10" id="namedview182" inkscape:current-layer="svg2" inkscape:cx="82.118862" inkscape:cy="-59.446062" inkscape:pageopacity="0" inkscape:pageshadow="2" inkscape:window-height="1018" inkscape:window-maximized="1" inkscape:window-width="1920" inkscape:window-x="-8" inkscape:window-y="-8" inkscape:zoom="2.5371828" objecttolerance="10" pagecolor="#ffffff" showgrid="false">
	</sodipodi:namedview>
<path id="path46" inkscape:connector-curvature="0" d="M0.3,27.5V7.5h0.3V10c2-0.4,4.5-1.4,4.5-3.3C5.2,6.3,5,5.9,5,5.5
	C5,5.2,5.3,5,5.5,5c0.1,0,0.3,0.1,0.4,0.2C5.9,5.7,6,6.2,6,6.7c0,0.6-0.2,1.1-0.5,1.6C5.8,9,5.9,9.7,5.9,10.5c0,0.6-0.2,1.2-0.5,1.7
	c0.2,0.7,0.4,1.4,0.4,2.2c0,0.7-0.2,1.4-0.6,2c0.2,0.7,0.2,1.4,0.2,2.1c0,3.6-4.8,5.4-4.8,9v0.1H0.3z M0.6,23.4c1.7-1.2,4-2.9,4-5
	c0-0.4,0-0.8-0.1-1.1C3,19.1,0.6,20.5,0.6,23V23.4z M0.6,19C2.5,18,5,16.4,5,14.3c0-0.4-0.1-0.9-0.2-1.3c-1.5,1.7-4.1,3-4.1,5.4V19z
	 M0.6,14.5c1.9-0.8,4.4-2.1,4.4-4C5.1,10,5,9.6,4.9,9.1c-1.6,1.6-4.2,2.5-4.2,4.9V14.5z"/>
<path id="rect48" d="M0.2,3.7h0.2c0.1,0,0.2,0.1,0.2,0.2v23.6c0,0.1-0.1,0.2-0.2,0.2H0.2c-0.1,0-0.2-0.1-0.2-0.2V3.9
	C0,3.8,0.1,3.7,0.2,3.7z"/>
<path id="path54" inkscape:connector-curvature="0" d="M8.8,2.7c0-0.6,0.5-1.1,1.1-1.1c0.6,0,1.1,0.5,1.1,1.1s-0.5,1.1-1.1,1.1
	C9.3,3.9,8.8,3.4,8.8,2.7z"/>
<path id="path58" inkscape:connector-curvature="0" d="M4.4,0c1.1,0,2.2,0.6,2.2,1.8c0,1.4-1.1,2.4-2.1,3C3.8,5.2,3,5.5,2.2,5.5
	C1.1,5.5,0,4.9,0,3.7c0-1.4,1.1-2.4,2.1-3C2.8,0.3,3.6,0,4.4,0z"/>
</svg>
