<?xml version="1.0" encoding="utf-8"?>
<!-- Generator: Adobe Illustrator 19.2.1, SVG Export Plug-In . SVG Version: 6.00 Build 0)  -->
<svg version="1.1"
	 id="svg2" inkscape:version="0.91 r13725" sodipodi:docname="quintuple-croche tête en bas.svg" xmlns:cc="http://creativecommons.org/ns#" xmlns:dc="http://purl.org/dc/elements/1.1/" xmlns:inkscape="http://www.inkscape.org/namespaces/inkscape" xmlns:rdf="http://www.w3.org/1999/02/22-rdf-syntax-ns#" xmlns:sodipodi="http://sodipodi.sourceforge.net/DTD/sodipodi-0.dtd" xmlns:svg="http://www.w3.org/2000/svg"
	 xmlns="http://www.w3.org/2000/svg" xmlns:xlink="http://www.w3.org/1999/xlink" x="0px" y="0px" viewBox="0 0 10.7 32.6"
	 style="enable-background:new 0 0 10.7 32.6;" xml:space="preserve">
<sodipodi:namedview  bordercolor="#666666" borderopacity="1" fit-margin-bottom="0" fit-margin-left="0" fit-margin-right="0" fit-margin-top="0" gridtolerance="10" guidetolerance="10" id="namedview126" inkscape:current-layer="svg2" inkscape:cx="-586.34208" inkscape:cy="-63.650458" inkscape:pageopacity="0" inkscape:pageshadow="2" inkscape:window-height="1018" inkscape:window-maximized="1" inkscape:window-width="1920" inkscape:window-x="-8" inkscape:window-y="-8" inkscape:zoom="0.63429568" objecttolerance="10" pagecolor="#ffffff" showgrid="false">
	</sodipodi:namedview>
<path id="path44" inkscape:connector-curvature="0" d="M6.6,4.4v0.4c0,2.2,1.7,3.9,2.9,5.7c0.1-0.3,0.1-0.6,0.1-0.9
	C9.5,7.7,7.9,5.8,6.6,4.4z M6.6,0.2c0,3.5,3.8,5.9,3.8,9.4c0,0.7-0.1,1.3-0.4,1.9c0.3,0.7,0.6,1.4,0.6,2.3c0,0.8-0.2,1.6-0.6,2.4
	c0.3,0.7,0.6,1.4,0.6,2.2c0,0.8-0.2,1.6-0.6,2.4c0.3,0.7,0.6,1.4,0.6,2.3c0,0.7-0.3,1.4-0.7,2c0.5,0.8,0.8,1.7,0.8,2.7
	c0,1.2-0.3,2.4-0.8,3.5c-0.1,0.2-0.2,0.2-0.4,0.2c-0.3,0-0.5-0.2-0.5-0.5c0.5-1,0.8-2.1,0.8-3.2c0-1.8-1.9-3.5-3.3-4.7v2.2H6.2V0.2
	H6.6z M6.6,9.1v0.4c0,2.2,1.7,3.9,2.9,5.8c0.2-0.5,0.3-1,0.3-1.5C9.7,12,7.9,10.3,6.6,9.1z M6.6,13.7v0.4c0,2.2,1.7,3.9,2.9,5.8
	c0.2-0.5,0.3-1,0.3-1.5C9.7,16.6,7.9,14.9,6.6,13.7z M6.6,18.3v0.4c0,2.2,1.6,3.8,2.8,5.5c0.2-0.4,0.3-0.8,0.3-1.2
	C9.7,21.2,7.9,19.5,6.6,18.3z"/>
<path id="rect46" d="M6.1,0h0.2c0.1,0,0.2,0.1,0.2,0.2v28.6c0,0.1-0.1,0.2-0.2,0.2H6.1c-0.1,0-0.2-0.1-0.2-0.2V0.2
	C5.9,0.1,6,0,6.1,0z"/>
<path id="path50" inkscape:connector-curvature="0" d="M4.4,27.1c1.1,0,2.2,0.6,2.2,1.8c0,1.4-1.1,2.4-2.1,3
	c-0.7,0.4-1.5,0.7-2.3,0.7c-1.1,0-2.2-0.6-2.2-1.8c0-1.4,1.1-2.4,2.1-3C2.8,27.4,3.6,27.1,4.4,27.1z"/>
</svg>
