<?xml version="1.0" encoding="utf-8"?>
<!-- Generator: Adobe Illustrator 19.2.1, SVG Export Plug-In . SVG Version: 6.00 Build 0)  -->
<svg version="1.1"
	 id="svg2" inkscape:version="0.91 r13725" sodipodi:docname="quintuple-croche.svg" xmlns:cc="http://creativecommons.org/ns#" xmlns:dc="http://purl.org/dc/elements/1.1/" xmlns:inkscape="http://www.inkscape.org/namespaces/inkscape" xmlns:rdf="http://www.w3.org/1999/02/22-rdf-syntax-ns#" xmlns:sodipodi="http://sodipodi.sourceforge.net/DTD/sodipodi-0.dtd" xmlns:svg="http://www.w3.org/2000/svg"
	 xmlns="http://www.w3.org/2000/svg" xmlns:xlink="http://www.w3.org/1999/xlink" x="0px" y="0px" viewBox="0 0 6.6 32.6"
	 style="enable-background:new 0 0 6.6 32.6;" xml:space="preserve">
<path id="path34" inkscape:connector-curvature="0" d="M0.3,32.4V7.5h0.3v2.6c2-0.5,4.5-1.7,4.5-3.5C5.1,6.2,5,5.9,5,5.5
	C5.1,5.2,5.3,5,5.5,5c0.1,0,0.3,0.1,0.4,0.2C6,5.7,6,6.1,6,6.6c0,0.6-0.2,1.1-0.4,1.6c0.2,0.7,0.3,1.5,0.3,2.3
	c0,0.6-0.2,1.2-0.4,1.7c0.2,0.7,0.3,1.5,0.3,2.3c0,0.7-0.2,1.3-0.5,1.9c0.2,0.7,0.3,1.4,0.3,2.1c0,0.8-0.2,1.5-0.6,2.2
	c0.1,0.6,0.2,1.3,0.2,1.9c0,3.8-4.6,6.1-4.6,9.9v0.2H0.3V32.4z M0.6,28.3c1.6-1.5,3.8-3.7,3.8-5.9c0-0.3,0-0.6-0.1-0.9
	c-1.5,2-3.7,3.7-3.7,6.2C0.6,27.7,0.6,28.3,0.6,28.3z M0.6,23.8c1.8-1.3,4.2-3.3,4.2-5.5c0-0.4-0.1-0.7-0.1-1.1c-1.5,2-4,3.5-4,6.1
	L0.6,23.8L0.6,23.8z M0.6,19.3c1.9-1.1,4.3-2.8,4.3-5c0-0.4,0-0.9-0.1-1.3c-1.5,1.8-4.2,3.1-4.2,5.7C0.6,18.7,0.6,19.3,0.6,19.3z
	 M0.6,14.7C2.5,13.8,5,12.4,5,10.4C5.1,9.9,5,9.5,4.9,9c-1.6,1.6-4.2,2.7-4.2,5.1v0.6H0.6z"/>
<path id="rect36" d="M0.2,3.7h0.2c0.1,0,0.2,0.1,0.2,0.2v28.6c0,0.1-0.1,0.2-0.2,0.2H0.2c-0.1,0-0.2-0.1-0.2-0.2V3.9
	C0,3.8,0.1,3.7,0.2,3.7z"/>
<path id="notehead" inkscape:connector-curvature="0" d="M4.4,0c1.1,0,2.2,0.6,2.2,1.8c0,1.4-1.1,2.4-2.1,3C3.8,5.2,3,5.5,2.2,5.5
	C1.1,5.5,0,4.9,0,3.7c0-1.4,1.1-2.4,2.1-3C2.8,0.3,3.6,0,4.4,0z"/>
</svg>
