<?xml version="1.0" encoding="utf-8"?>
<!-- Generator: Adobe Illustrator 19.2.1, SVG Export Plug-In . SVG Version: 6.00 Build 0)  -->
<svg version="1.1"
	 id="svg3187" inkscape:version="0.48.5 r10040" sodipodi:docname="aaa.svg" xmlns:cc="http://creativecommons.org/ns#" xmlns:dc="http://purl.org/dc/elements/1.1/" xmlns:inkscape="http://www.inkscape.org/namespaces/inkscape" xmlns:rdf="http://www.w3.org/1999/02/22-rdf-syntax-ns#" xmlns:sodipodi="http://sodipodi.sourceforge.net/DTD/sodipodi-0.dtd" xmlns:svg="http://www.w3.org/2000/svg"
	 xmlns="http://www.w3.org/2000/svg" xmlns:xlink="http://www.w3.org/1999/xlink" x="0px" y="0px" viewBox="0 0 17.9 7.9"
	 style="enable-background:new 0 0 17.9 7.9;" xml:space="preserve">
<path id="notehead" inkscape:connector-curvature="0" d="M5.4,1.7c-1.2,0-1.7,1.1-1.7,2.2c0,1.9,1.4,3.4,3.3,3.4
	c1.2,0,1.7-1.1,1.7-2.2C8.7,3.2,7.3,1.7,5.4,1.7z M12.3,4.5c0,1.1-0.9,1.9-1.8,2.4c-1.3,0.7-2.8,1-4.3,1s-3-0.3-4.4-1
	C0.9,6.4,0,5.6,0,4.5s0.9-1.9,1.8-2.4c1.3-0.7,2.8-1,4.4-1s3,0.3,4.3,1C11.5,2.6,12.3,3.4,12.3,4.5z"/>
<path id="path3333" inkscape:connector-curvature="0" d="M15.1,4.5c0-0.8,0.6-1.4,1.4-1.4s1.4,0.6,1.4,1.4s-0.6,1.4-1.4,1.4
	S15.1,5.3,15.1,4.5z"/>
</svg>
