<?xml version="1.0" encoding="UTF-8" standalone="no"?>
<svg
   xmlns:dc="http://purl.org/dc/elements/1.1/"
   xmlns:cc="http://creativecommons.org/ns#"
   xmlns:rdf="http://www.w3.org/1999/02/22-rdf-syntax-ns#"
   xmlns:svg="http://www.w3.org/2000/svg"
   xmlns="http://www.w3.org/2000/svg"
   xmlns:sodipodi="http://sodipodi.sourceforge.net/DTD/sodipodi-0.dtd"
   xmlns:inkscape="http://www.inkscape.org/namespaces/inkscape"
   version="1.2"
   width="17.920296"
   height="6.8742204"
   viewBox="0 0 2.8780001 1.104"
   id="svg2"
   inkscape:version="0.48.5 r10040"
   sodipodi:docname="aaa.svg">
  <metadata
     id="metadata36">
    <rdf:RDF>
      <cc:Work
         rdf:about="">
        <dc:format>image/svg+xml</dc:format>
        <dc:type
           rdf:resource="http://purl.org/dc/dcmitype/StillImage" />
        <dc:title></dc:title>
      </cc:Work>
    </rdf:RDF>
  </metadata>
  <defs
     id="defs34" />
  <sodipodi:namedview
     pagecolor="#ffffff"
     bordercolor="#666666"
     borderopacity="1"
     objecttolerance="10"
     gridtolerance="10"
     guidetolerance="10"
     inkscape:pageopacity="0"
     inkscape:pageshadow="2"
     inkscape:window-width="1920"
     inkscape:window-height="1018"
     id="namedview32"
     showgrid="false"
     fit-margin-top="0"
     fit-margin-left="0"
     fit-margin-right="0"
     fit-margin-bottom="0"
     inkscape:zoom="3.5881183"
     inkscape:cx="40.196878"
     inkscape:cy="16.576517"
     inkscape:window-x="-8"
     inkscape:window-y="-8"
     inkscape:window-maximized="1"
     inkscape:current-layer="svg2" />
  <!-- Page: 1/1 -->
  <text
     transform="translate(-10.5358,-1.9980017)"
     font-size="2.1995"
     id="text4"
     style="font-size:2.19950008px;text-anchor:start;fill:currentColor;font-family:Century Schoolbook L">
    <tspan
       id="tspan6" />
  </text>
  <path
     transform="matrix(0.004,0,0,-0.004,0,0.55199826)"
     d="m 215,112 c -50,0 -69,-43 -69,-88 0,-77 57,-136 134,-136 50,0 69,43 69,88 0,77 -57,136 -134,136 z M 495,0 c 0,-43 -35,-76 -73,-97 -53,-30 -113,-41 -174,-41 -61,0 -122,11 -175,41 -38,21 -73,54 -73,97 0,43 35,76 73,97 53,30 114,41 175,41 61,0 121,-11 174,-41 38,-21 73,-54 73,-97 z"
     id="path20"
     inkscape:connector-curvature="0"
     style="fill:currentColor" />
  <path
     transform="matrix(0.004,0,0,-0.004,2.43,0.55199826)"
     d="M 0,0 C 0,31 25,56 56,56 87,56 112,31 112,0 112,-31 87,-56 56,-56 25,-56 0,-31 0,0 z"
     id="path22"
     inkscape:connector-curvature="0"
     style="fill:currentColor" />
</svg>
