<?xml version="1.0" encoding="utf-8"?>
<!-- Generator: Adobe Illustrator 19.2.1, SVG Export Plug-In . SVG Version: 6.00 Build 0)  -->
<svg version="1.1"
	 id="svg2" inkscape:version="0.91 r13725" sodipodi:docname="ronde t√™te en bas.svg" xmlns:cc="http://creativecommons.org/ns#" xmlns:dc="http://purl.org/dc/elements/1.1/" xmlns:inkscape="http://www.inkscape.org/namespaces/inkscape" xmlns:rdf="http://www.w3.org/1999/02/22-rdf-syntax-ns#" xmlns:sodipodi="http://sodipodi.sourceforge.net/DTD/sodipodi-0.dtd" xmlns:svg="http://www.w3.org/2000/svg"
	 xmlns="http://www.w3.org/2000/svg" xmlns:xlink="http://www.w3.org/1999/xlink" x="0px" y="0px" viewBox="0 0 9.9 5.5"
	 style="enable-background:new 0 0 9.9 5.5;" xml:space="preserve">
<path id="notehead" inkscape:connector-curvature="0" d="M4.3,0.5c-1,0-1.4,0.9-1.4,1.8C2.9,3.8,4,5,5.6,5C6.6,5,7,4.1,7,3.2
	C7,1.7,5.8,0.5,4.3,0.5z M9.9,2.7c0,0.9-0.7,1.5-1.5,1.9c-1,0.7-2.2,0.9-3.5,0.9S2.5,5.3,1.5,4.7C0.7,4.3,0,3.6,0,2.7
	s0.7-1.5,1.5-1.9C2.5,0.2,3.7,0,4.9,0s2.4,0.2,3.5,0.8C9.2,1.2,9.9,1.9,9.9,2.7z"/>
</svg>
