<?xml version="1.0" encoding="UTF-8" standalone="no"?>
<svg
   xmlns:dc="http://purl.org/dc/elements/1.1/"
   xmlns:cc="http://creativecommons.org/ns#"
   xmlns:rdf="http://www.w3.org/1999/02/22-rdf-syntax-ns#"
   xmlns:svg="http://www.w3.org/2000/svg"
   xmlns="http://www.w3.org/2000/svg"
   xmlns:sodipodi="http://sodipodi.sourceforge.net/DTD/sodipodi-0.dtd"
   xmlns:inkscape="http://www.inkscape.org/namespaces/inkscape"
   version="1.2"
   width="18.587791"
   height="29.900368"
   viewBox="0 0 2.9851999 4.8020001"
   id="svg2"
   inkscape:version="0.48.5 r10040"
   sodipodi:docname="Figure rythmique trois triples croches.svg">
  <metadata
     id="metadata132">
    <rdf:RDF>
      <cc:Work
         rdf:about="">
        <dc:format>image/svg+xml</dc:format>
        <dc:type
           rdf:resource="http://purl.org/dc/dcmitype/StillImage" />
        <dc:title></dc:title>
      </cc:Work>
    </rdf:RDF>
  </metadata>
  <defs
     id="defs130" />
  <sodipodi:namedview
     pagecolor="#ffffff"
     bordercolor="#666666"
     borderopacity="1"
     objecttolerance="10"
     gridtolerance="10"
     guidetolerance="10"
     inkscape:pageopacity="0"
     inkscape:pageshadow="2"
     inkscape:window-width="1920"
     inkscape:window-height="1018"
     id="namedview128"
     showgrid="false"
     fit-margin-top="0"
     fit-margin-left="0"
     fit-margin-right="0"
     fit-margin-bottom="0"
     inkscape:zoom="2.8284271"
     inkscape:cx="-8.1666364"
     inkscape:cy="13.138817"
     inkscape:window-x="-8"
     inkscape:window-y="-8"
     inkscape:window-maximized="1"
     inkscape:current-layer="svg2" />
  <!-- Page: 1/1 -->
  <text
     transform="translate(-85.2015,-1.3)"
     font-size="2.1995"
     id="text4"
     style="font-size:2.19950008px;text-anchor:start;fill:currentColor;font-family:Century Schoolbook L">
    <tspan
       id="tspan6" />
  </text>
  <path
     transform="matrix(0.004,0,0,-0.004,1.3162,0.03999994)"
     d="m 0,-213 v -5 c 0,-111 86,-193 146,-284 3,11 4,23 4,35 0,93 -85,187 -150,254 z M 0,0 c 0,-175 193,-292 193,-467 0,-29 -7,-58 -19,-84 17,-35 29,-71 29,-111 0,-36 -9,-72 -24,-105 18,-35 30,-72 30,-113 0,-60 -16,-119 -42,-173 -5,-8 -12,-11 -19,-11 -13,0 -26,11 -23,27 26,49 42,102 42,157 0,91 -95,175 -167,233 V -750 H -16 V 0 H 0 z m 0,-430 v -5 c 0,-112 89,-194 151,-285 6,19 9,38 9,58 0,90 -91,173 -160,232 z"
     id="path28"
     inkscape:connector-curvature="0"
     style="fill:currentColor" />
  <rect
     transform="translate(1.2512,3.75)"
     x="-0.064999998"
     y="-3.75"
     width="0.13"
     height="4.0622001"
     ry="0.039999999"
     id="rect30"
     style="fill:currentColor" />
  <path
     transform="matrix(0.004,0,0,-0.004,2.5372,4.25)"
     d="M 0,0 C 0,31 25,56 56,56 87,56 112,31 112,0 112,-31 87,-56 56,-56 25,-56 0,-31 0,0 z"
     id="path32"
     inkscape:connector-curvature="0"
     style="fill:currentColor" />
  <path
     transform="matrix(0.004,0,0,-0.004,0,4.25)"
     d="m 220,138 c 56,0 109,-29 109,-91 0,-72 -56,-121 -103,-149 -36,-21 -76,-36 -117,-36 -56,0 -109,29 -109,91 0,72 56,121 103,149 36,21 76,36 117,36 z"
     id="path34"
     inkscape:connector-curvature="0"
     style="fill:currentColor" />
</svg>
