<?xml version="1.0" encoding="utf-8"?>
<!-- Generator: Adobe Illustrator 19.2.1, SVG Export Plug-In . SVG Version: 6.00 Build 0)  -->
<svg version="1.1"
	 id="svg2" inkscape:version="0.48.5 r10040" sodipodi:docname="Figure rythmique trois triples croches.svg" xmlns:cc="http://creativecommons.org/ns#" xmlns:dc="http://purl.org/dc/elements/1.1/" xmlns:inkscape="http://www.inkscape.org/namespaces/inkscape" xmlns:rdf="http://www.w3.org/1999/02/22-rdf-syntax-ns#" xmlns:sodipodi="http://sodipodi.sourceforge.net/DTD/sodipodi-0.dtd" xmlns:svg="http://www.w3.org/2000/svg"
	 xmlns="http://www.w3.org/2000/svg" xmlns:xlink="http://www.w3.org/1999/xlink" x="0px" y="0px" viewBox="0 0 18.6 29.9"
	 style="enable-background:new 0 0 18.6 29.9;" xml:space="preserve">
<path id="path28" inkscape:connector-curvature="0" d="M8.2,5.6v0.1c0,2.8,2.1,4.8,3.6,7.1c0.1-0.3,0.1-0.6,0.1-0.9
	C11.9,9.6,9.8,7.2,8.2,5.6z M8.2,0.2c0,4.4,4.8,7.3,4.8,11.6c0,0.7-0.2,1.4-0.5,2.1c0.4,0.9,0.7,1.8,0.7,2.8c0,0.9-0.2,1.8-0.6,2.6
	c0.4,0.9,0.7,1.8,0.7,2.8c0,1.5-0.4,3-1,4.3c-0.1,0.2-0.3,0.3-0.5,0.3c-0.3,0-0.6-0.3-0.6-0.7c0.6-1.2,1-2.5,1-3.9
	c0-2.3-2.4-4.4-4.2-5.8v2.6H7.8V0.2H8.2z M8.2,11v0.1c0,2.8,2.2,4.8,3.8,7.1c0.1-0.5,0.2-0.9,0.2-1.4C12.2,14.5,9.9,12.4,8.2,11z"/>
<path id="rect30" d="M7.6,0h0.3c0.1,0,0.2,0.1,0.2,0.2V25c0,0.1-0.1,0.2-0.2,0.2H7.6c-0.1,0-0.2-0.1-0.2-0.2V0.2
	C7.4,0.1,7.5,0,7.6,0z"/>
<path id="path32" inkscape:connector-curvature="0" d="M15.8,26.5c0-0.8,0.6-1.4,1.4-1.4c0.8,0,1.4,0.6,1.4,1.4s-0.6,1.4-1.4,1.4
	C16.4,27.9,15.8,27.2,15.8,26.5z"/>
<path id="notehead" inkscape:connector-curvature="0" d="M5.5,23c1.4,0,2.7,0.7,2.7,2.3c0,1.8-1.4,3-2.6,3.7
	c-0.9,0.5-1.9,0.9-2.9,0.9c-1.4,0-2.7-0.7-2.7-2.3c0-1.8,1.4-3,2.6-3.7C3.5,23.4,4.5,23,5.5,23z"/>
</svg>
