<?xml version="1.0" encoding="utf-8"?>
<!-- Generator: Adobe Illustrator 19.2.1, SVG Export Plug-In . SVG Version: 6.00 Build 0)  -->
<svg version="1.1"
	 id="svg3187" inkscape:version="0.48.5 r10040" sodipodi:docname="3 triples croches.svg" xmlns:cc="http://creativecommons.org/ns#" xmlns:dc="http://purl.org/dc/elements/1.1/" xmlns:inkscape="http://www.inkscape.org/namespaces/inkscape" xmlns:rdf="http://www.w3.org/1999/02/22-rdf-syntax-ns#" xmlns:sodipodi="http://sodipodi.sourceforge.net/DTD/sodipodi-0.dtd" xmlns:svg="http://www.w3.org/2000/svg"
	 xmlns="http://www.w3.org/2000/svg" xmlns:xlink="http://www.w3.org/1999/xlink" x="0px" y="0px" viewBox="0 0 13.8 31"
	 style="enable-background:new 0 0 13.8 31;" xml:space="preserve">
<path id="notehead" inkscape:connector-curvature="0" d="M5.5,1.1c1.4,0,2.7,0.7,2.7,2.3c0,1.8-1.4,3-2.6,3.7
	C4.7,7.6,3.7,7.9,2.7,7.9C1.3,7.9,0,7.2,0,5.7c0-1.8,1.4-3,2.6-3.7C3.5,1.4,4.5,1.1,5.5,1.1z"/>
<path id="path3229" inkscape:connector-curvature="0" d="M11,4.5c0-0.8,0.6-1.4,1.4-1.4c0.8,0,1.4,0.6,1.4,1.4s-0.6,1.4-1.4,1.4
	S11,5.3,11,4.5z"/>
<path id="path3231" inkscape:connector-curvature="0" d="M0.8,25.6C3.1,24.4,6,22.4,6,19.9c0-0.6-0.1-1.1-0.2-1.6
	c-1.9,2.2-5,3.9-5,6.9C0.8,25.2,0.8,25.6,0.8,25.6z M6.5,9.2c0-0.6-0.6-1.9,0.3-1.9c0.7,0,0.7,1.3,0.7,1.9c0,0.9-0.3,1.7-0.7,2.5
	c0.4,0.9,0.6,2,0.6,3c0,0.9-0.3,1.7-0.7,2.5C7,18.1,7.1,19,7.1,20c0,4.5-6.3,6.3-6.3,10.8H0.4V12h0.4v2.6C3.3,13.6,6.5,11.8,6.5,9.2
	z M0.8,20.1c2.4-1.1,5.5-2.9,5.5-5.5c0-0.7-0.1-1.3-0.3-2c-2,2.2-5.2,3.9-5.2,7C0.8,19.6,0.8,20.1,0.8,20.1z"/>
<path id="rect3233" d="M0.2,5.7h0.3c0.1,0,0.2,0.1,0.2,0.2v24.8c0,0.1-0.1,0.2-0.2,0.2H0.2C0.1,31,0,30.9,0,30.7V5.9
	C0,5.8,0.1,5.7,0.2,5.7z"/>
</svg>
