<?xml version="1.0" encoding="UTF-8" standalone="no"?>
<svg
   xmlns:dc="http://purl.org/dc/elements/1.1/"
   xmlns:cc="http://creativecommons.org/ns#"
   xmlns:rdf="http://www.w3.org/1999/02/22-rdf-syntax-ns#"
   xmlns:svg="http://www.w3.org/2000/svg"
   xmlns="http://www.w3.org/2000/svg"
   xmlns:sodipodi="http://sodipodi.sourceforge.net/DTD/sodipodi-0.dtd"
   xmlns:inkscape="http://www.inkscape.org/namespaces/inkscape"
   version="1.2"
   width="13.787045"
   height="30.971352"
   viewBox="0 0 2.2142 4.974"
   id="svg3187"
   inkscape:version="0.48.5 r10040"
   sodipodi:docname="3 triples croches.svg">
  <metadata
     id="metadata3347">
    <rdf:RDF>
      <cc:Work
         rdf:about="">
        <dc:format>image/svg+xml</dc:format>
        <dc:type
           rdf:resource="http://purl.org/dc/dcmitype/StillImage" />
        <dc:title></dc:title>
        <cc:license
           rdf:resource="http://creativecommons.org/licenses/publicdomain/" />
        <dc:description>Figure rythmique</dc:description>
      </cc:Work>
      <cc:License
         rdf:about="http://creativecommons.org/licenses/publicdomain/">
        <cc:permits
           rdf:resource="http://creativecommons.org/ns#Reproduction" />
        <cc:permits
           rdf:resource="http://creativecommons.org/ns#Distribution" />
        <cc:permits
           rdf:resource="http://creativecommons.org/ns#DerivativeWorks" />
      </cc:License>
    </rdf:RDF>
  </metadata>
  <defs
     id="defs3345" />
  <sodipodi:namedview
     pagecolor="#ffffff"
     bordercolor="#666666"
     borderopacity="1"
     objecttolerance="10"
     gridtolerance="10"
     guidetolerance="10"
     inkscape:pageopacity="0"
     inkscape:pageshadow="2"
     inkscape:window-width="1920"
     inkscape:window-height="1018"
     id="namedview3343"
     showgrid="false"
     fit-margin-top="0"
     fit-margin-left="0"
     fit-margin-right="0"
     fit-margin-bottom="0"
     inkscape:zoom="2"
     inkscape:cx="50.113631"
     inkscape:cy="-56.657172"
     inkscape:window-x="-8"
     inkscape:window-y="-8"
     inkscape:window-maximized="1"
     inkscape:current-layer="svg3187" />
  <!-- Page: 1/1 -->
  <text
     transform="translate(-93.2277,-1.326)"
     font-size="2.1995"
     id="text3189"
     style="font-size:2.19950008px;text-anchor:start;fill:currentColor;font-family:Century Schoolbook L">
    <tspan
       id="tspan3191" />
  </text>
  <path
     transform="matrix(0.004,0,0,-0.004,0,0.72399994)"
     d="m 220,138 c 56,0 109,-29 109,-91 0,-72 -56,-121 -103,-149 -36,-21 -76,-36 -117,-36 -56,0 -109,29 -109,91 0,72 56,121 103,149 36,21 76,36 117,36 z"
     id="path3227"
     inkscape:connector-curvature="0"
     style="fill:currentColor" />
  <path
     transform="matrix(0.004,0,0,-0.004,1.7662,0.22399994)"
     d="M 0,0 C 0,31 25,56 56,56 87,56 112,31 112,0 112,-31 87,-56 56,-56 25,-56 0,-31 0,0 z"
     id="path3229"
     inkscape:connector-curvature="0"
     style="fill:currentColor" />
  <path
     transform="matrix(0.004,0,0,-0.004,0.13,4.934)"
     d="m 0,205 c 90,50 208,128 208,228 0,23 -3,44 -8,66 C 122,411 0,342 0,220 v -15 z m 227,659 c 0,26 -26,75 13,75 27,0 29,-51 29,-75 0,-38 -11,-70 -30,-100 16,-38 25,-79 25,-120 0,-38 -11,-70 -30,-100 11,-36 17,-73 17,-111 C 251,254 0,179 0,0 H -16 V 750 H 0 V 645 c 98,44 227,116 227,219 z M 0,425 c 96,45 222,117 222,219 0,27 -5,54 -14,79 C 129,633 0,565 0,440 v -15 z"
     id="path3231"
     inkscape:connector-curvature="0"
     style="fill:currentColor" />
  <rect
     transform="translate(0.065,1.724)"
     x="-0.064999998"
     y="-0.81220001"
     width="0.13"
     height="4.0622001"
     ry="0.039999999"
     id="rect3233"
     style="fill:currentColor" />
</svg>
