<?xml version="1.0" encoding="utf-8"?>
<!-- Generator: Adobe Illustrator 19.2.1, SVG Export Plug-In . SVG Version: 6.00 Build 0)  -->
<svg version="1.1"
	 id="svg2" inkscape:version="0.91 r13725" sodipodi:docname="triple-croche t√™te en bas.svg" xmlns:cc="http://creativecommons.org/ns#" xmlns:dc="http://purl.org/dc/elements/1.1/" xmlns:inkscape="http://www.inkscape.org/namespaces/inkscape" xmlns:rdf="http://www.w3.org/1999/02/22-rdf-syntax-ns#" xmlns:sodipodi="http://sodipodi.sourceforge.net/DTD/sodipodi-0.dtd" xmlns:svg="http://www.w3.org/2000/svg"
	 xmlns="http://www.w3.org/2000/svg" xmlns:xlink="http://www.w3.org/1999/xlink" x="0px" y="0px" viewBox="0 0 10.7 23.9"
	 style="enable-background:new 0 0 10.7 23.9;" xml:space="preserve">
<path id="path52" inkscape:connector-curvature="0" d="M6.6,4.4L6.6,4.4c0,2.3,1.7,3.9,2.9,5.8c0-0.2,0-0.5,0-0.7
	C9.5,7.7,7.9,5.8,6.6,4.4z M6.6,0.2c0,3.5,3.8,5.8,3.8,9.3c0,0.6-0.1,1.2-0.4,1.7c0.3,0.7,0.6,1.4,0.6,2.2c0,0.7-0.2,1.4-0.5,2.1
	c0.4,0.7,0.6,1.4,0.6,2.3c0,1.2-0.3,2.4-0.8,3.4c-0.1,0.2-0.2,0.2-0.4,0.2c-0.3,0-0.5-0.2-0.5-0.5c0.5-1,0.8-2,0.8-3.1
	c0-1.8-1.9-3.5-3.3-4.6v2.1H6.2V0.2H6.6z M6.6,8.8L6.6,8.8c0,2.3,1.8,4,3,5.8c0.1-0.4,0.2-0.8,0.2-1.2C9.7,11.6,7.9,9.9,6.6,8.8z"/>
<path id="rect54" d="M6.1,0h0.2c0.1,0,0.2,0.1,0.2,0.2V20c0,0.1-0.1,0.2-0.2,0.2H6.1c-0.1,0-0.2-0.1-0.2-0.2V0.2C5.9,0.1,6,0,6.1,0z
	"/>
<path id="notehead" inkscape:connector-curvature="0" d="M4.4,18.4c1.1,0,2.2,0.6,2.2,1.8c0,1.4-1.1,2.4-2.1,3
	c-0.7,0.4-1.5,0.7-2.3,0.7c-1.1,0-2.2-0.6-2.2-1.8c0-1.4,1.1-2.4,2.1-3C2.8,18.7,3.6,18.4,4.4,18.4z"/>
</svg>
