{
  "header": {
    "PPQ": 1000,
    "bpm": 60,
    "name": ""
  },
  "startTime": 0,
  "duration": 53.323000000001876,
  "tracks": [
    {
      "startTime": 0,
      "duration": 0,
      "length": 0,
      "notes": [],
      "controlChanges": {},
      "id": 0
    },
    {
      "startTime": 0.039,
      "duration": 53.323000000001876,
      "length": 6704,
      "notes": [
        {
          "name": "G3",
          "midi": 55,
          "time": 0.039,
          "velocity": 0.3937007874015748,
          "duration": 0.057000000000000016
        },
        {
          "name": "G3",
          "midi": 55,
          "time": 0.039,
          "velocity": 0.3937007874015748,
          "duration": 0.057000000000000016
        },
        {
          "name": "G2",
          "midi": 43,
          "time": 0.049,
          "velocity": 0.3937007874015748,
          "duration": 0.02800000000000001
        },
        {
          "name": "D3",
          "midi": 50,
          "time": 0.049,
          "velocity": 0.3937007874015748,
          "duration": 0.008
        },
        {
          "name": "G2",
          "midi": 43,
          "time": 0.049,
          "velocity": 0.3937007874015748,
          "duration": 0.02800000000000001
        },
        {
          "name": "D3",
          "midi": 50,
          "time": 0.049,
          "velocity": 0.3937007874015748,
          "duration": 0.008
        },
        {
          "name": "D2",
          "midi": 38,
          "time": 0.059000000000000004,
          "velocity": 0.3937007874015748,
          "duration": 0.008
        },
        {
          "name": "D2",
          "midi": 38,
          "time": 0.059000000000000004,
          "velocity": 0.3937007874015748,
          "duration": 0.008
        },
        {
          "name": "D#3",
          "midi": 51,
          "time": 0.069,
          "velocity": 0.3937007874015748,
          "duration": 0.018000000000000002
        },
        {
          "name": "D#3",
          "midi": 51,
          "time": 0.069,
          "velocity": 0.3937007874015748,
          "duration": 0.018000000000000002
        },
        {
          "name": "F#2",
          "midi": 42,
          "time": 0.08900000000000001,
          "velocity": 0.4015748031496063,
          "duration": 0.008000000000000007
        },
        {
          "name": "F#2",
          "midi": 42,
          "time": 0.08900000000000001,
          "velocity": 0.4015748031496063,
          "duration": 0.008000000000000007
        },
        {
          "name": "E5",
          "midi": 76,
          "time": 0.09900000000000002,
          "velocity": 0.5905511811023622,
          "duration": 0.21499999999999997
        },
        {
          "name": "E5",
          "midi": 76,
          "time": 0.09900000000000002,
          "velocity": 0.5905511811023622,
          "duration": 0.21499999999999997
        },
        {
          "name": "E6",
          "midi": 88,
          "time": 0.10900000000000001,
          "velocity": 0.4566929133858268,
          "duration": 0.18499999999999997
        },
        {
          "name": "B5",
          "midi": 83,
          "time": 0.10900000000000001,
          "velocity": 0.48031496062992124,
          "duration": 0.29400000000000004
        },
        {
          "name": "E4",
          "midi": 64,
          "time": 0.10900000000000001,
          "velocity": 0.6377952755905512,
          "duration": 0.30400000000000005
        },
        {
          "name": "E6",
          "midi": 88,
          "time": 0.10900000000000001,
          "velocity": 0.4566929133858268,
          "duration": 0.18499999999999997
        },
        {
          "name": "B5",
          "midi": 83,
          "time": 0.10900000000000001,
          "velocity": 0.48031496062992124,
          "duration": 0.29400000000000004
        },
        {
          "name": "E4",
          "midi": 64,
          "time": 0.10900000000000001,
          "velocity": 0.6377952755905512,
          "duration": 0.30400000000000005
        },
        {
          "name": "G#6",
          "midi": 92,
          "time": 0.11800000000000001,
          "velocity": 0.4409448818897638,
          "duration": 0.24500000000000005
        },
        {
          "name": "G#6",
          "midi": 92,
          "time": 0.11800000000000001,
          "velocity": 0.4409448818897638,
          "duration": 0.24500000000000005
        },
        {
          "name": "B0",
          "midi": 23,
          "time": 0.138,
          "velocity": 0.41732283464566927,
          "duration": 0.008000000000000007
        },
        {
          "name": "B0",
          "midi": 23,
          "time": 0.138,
          "velocity": 0.41732283464566927,
          "duration": 0.008000000000000007
        },
        {
          "name": "E7",
          "midi": 100,
          "time": 0.168,
          "velocity": 0.4094488188976378,
          "duration": 0.017999999999999988
        },
        {
          "name": "E7",
          "midi": 100,
          "time": 0.168,
          "velocity": 0.4094488188976378,
          "duration": 0.017999999999999988
        },
        {
          "name": "E7",
          "midi": 100,
          "time": 0.217,
          "velocity": 0.4015748031496063,
          "duration": 0.017999999999999988
        },
        {
          "name": "E7",
          "midi": 100,
          "time": 0.217,
          "velocity": 0.4015748031496063,
          "duration": 0.017999999999999988
        },
        {
          "name": "F5",
          "midi": 77,
          "time": 0.27599999999999997,
          "velocity": 0.4094488188976378,
          "duration": 0.028000000000000025
        },
        {
          "name": "F5",
          "midi": 77,
          "time": 0.27599999999999997,
          "velocity": 0.4094488188976378,
          "duration": 0.028000000000000025
        },
        {
          "name": "E5",
          "midi": 76,
          "time": 0.306,
          "velocity": 0.4251968503937008,
          "duration": 0.1070000000000001
        },
        {
          "name": "E5",
          "midi": 76,
          "time": 0.306,
          "velocity": 0.4251968503937008,
          "duration": 0.1070000000000001
        },
        {
          "name": "F5",
          "midi": 77,
          "time": 0.326,
          "velocity": 0.4094488188976378,
          "duration": 0.008000000000000007
        },
        {
          "name": "E6",
          "midi": 88,
          "time": 0.326,
          "velocity": 0.4015748031496063,
          "duration": 0.008000000000000007
        },
        {
          "name": "F5",
          "midi": 77,
          "time": 0.326,
          "velocity": 0.4094488188976378,
          "duration": 0.008000000000000007
        },
        {
          "name": "E6",
          "midi": 88,
          "time": 0.326,
          "velocity": 0.4015748031496063,
          "duration": 0.008000000000000007
        },
        {
          "name": "F5",
          "midi": 77,
          "time": 0.34500000000000003,
          "velocity": 0.6220472440944882,
          "duration": 0.1660000000000001
        },
        {
          "name": "F5",
          "midi": 77,
          "time": 0.34500000000000003,
          "velocity": 0.6220472440944882,
          "duration": 0.1660000000000001
        },
        {
          "name": "F#4",
          "midi": 66,
          "time": 0.35500000000000004,
          "velocity": 0.4094488188976378,
          "duration": 0.008000000000000007
        },
        {
          "name": "F#4",
          "midi": 66,
          "time": 0.35500000000000004,
          "velocity": 0.4094488188976378,
          "duration": 0.008000000000000007
        },
        {
          "name": "C6",
          "midi": 84,
          "time": 0.37500000000000006,
          "velocity": 0.4645669291338583,
          "duration": 0.1160000000000001
        },
        {
          "name": "F6",
          "midi": 89,
          "time": 0.37500000000000006,
          "velocity": 0.4645669291338583,
          "duration": 0.1070000000000001
        },
        {
          "name": "C6",
          "midi": 84,
          "time": 0.37500000000000006,
          "velocity": 0.4645669291338583,
          "duration": 0.1160000000000001
        },
        {
          "name": "F6",
          "midi": 89,
          "time": 0.37500000000000006,
          "velocity": 0.4645669291338583,
          "duration": 0.1070000000000001
        },
        {
          "name": "E4",
          "midi": 64,
          "time": 0.4240000000000001,
          "velocity": 0.4409448818897638,
          "duration": 0.008000000000000007
        },
        {
          "name": "F4",
          "midi": 65,
          "time": 0.4240000000000001,
          "velocity": 0.5118110236220472,
          "duration": 0.19500000000000012
        },
        {
          "name": "E4",
          "midi": 64,
          "time": 0.4240000000000001,
          "velocity": 0.4409448818897638,
          "duration": 0.008000000000000007
        },
        {
          "name": "F4",
          "midi": 65,
          "time": 0.4240000000000001,
          "velocity": 0.5118110236220472,
          "duration": 0.19500000000000012
        },
        {
          "name": "A6",
          "midi": 93,
          "time": 0.4340000000000001,
          "velocity": 0.4251968503937008,
          "duration": 0.018000000000000016
        },
        {
          "name": "A6",
          "midi": 93,
          "time": 0.4340000000000001,
          "velocity": 0.4251968503937008,
          "duration": 0.018000000000000016
        },
        {
          "name": "E5",
          "midi": 76,
          "time": 0.4540000000000001,
          "velocity": 0.4409448818897638,
          "duration": 0.028000000000000025
        },
        {
          "name": "E5",
          "midi": 76,
          "time": 0.4540000000000001,
          "velocity": 0.4409448818897638,
          "duration": 0.028000000000000025
        },
        {
          "name": "E4",
          "midi": 64,
          "time": 0.46400000000000013,
          "velocity": 0.4330708661417323,
          "duration": 0.008000000000000007
        },
        {
          "name": "E4",
          "midi": 64,
          "time": 0.46400000000000013,
          "velocity": 0.4330708661417323,
          "duration": 0.008000000000000007
        },
        {
          "name": "G6",
          "midi": 91,
          "time": 0.48300000000000015,
          "velocity": 0.49606299212598426,
          "duration": 0.14600000000000007
        },
        {
          "name": "G6",
          "midi": 91,
          "time": 0.48300000000000015,
          "velocity": 0.49606299212598426,
          "duration": 0.14600000000000007
        },
        {
          "name": "F5",
          "midi": 77,
          "time": 0.49300000000000016,
          "velocity": 0.5118110236220472,
          "duration": 0.07700000000000001
        },
        {
          "name": "G4",
          "midi": 67,
          "time": 0.49300000000000016,
          "velocity": 0.5590551181102362,
          "duration": 0.19500000000000012
        },
        {
          "name": "F5",
          "midi": 77,
          "time": 0.49300000000000016,
          "velocity": 0.5118110236220472,
          "duration": 0.07700000000000001
        },
        {
          "name": "G4",
          "midi": 67,
          "time": 0.49300000000000016,
          "velocity": 0.5590551181102362,
          "duration": 0.19500000000000012
        },
        {
          "name": "D6",
          "midi": 86,
          "time": 0.5030000000000001,
          "velocity": 0.4645669291338583,
          "duration": 0.14600000000000013
        },
        {
          "name": "D6",
          "midi": 86,
          "time": 0.5030000000000001,
          "velocity": 0.4645669291338583,
          "duration": 0.14600000000000013
        },
        {
          "name": "G5",
          "midi": 79,
          "time": 0.5230000000000001,
          "velocity": 0.44881889763779526,
          "duration": 0.2150000000000002
        },
        {
          "name": "G5",
          "midi": 79,
          "time": 0.5230000000000001,
          "velocity": 0.44881889763779526,
          "duration": 0.2150000000000002
        },
        {
          "name": "C6",
          "midi": 84,
          "time": 0.5820000000000002,
          "velocity": 0.4251968503937008,
          "duration": 0.018000000000000016
        },
        {
          "name": "C6",
          "midi": 84,
          "time": 0.5820000000000002,
          "velocity": 0.4251968503937008,
          "duration": 0.018000000000000016
        },
        {
          "name": "F5",
          "midi": 77,
          "time": 0.6120000000000002,
          "velocity": 0.41732283464566927,
          "duration": 0.028000000000000025
        },
        {
          "name": "F5",
          "midi": 77,
          "time": 0.6120000000000002,
          "velocity": 0.41732283464566927,
          "duration": 0.028000000000000025
        },
        {
          "name": "E5",
          "midi": 76,
          "time": 0.6310000000000002,
          "velocity": 0.7637795275590551,
          "duration": 3.391999999999987
        },
        {
          "name": "E5",
          "midi": 76,
          "time": 0.6310000000000002,
          "velocity": 0.7637795275590551,
          "duration": 3.391999999999987
        },
        {
          "name": "E6",
          "midi": 88,
          "time": 0.6410000000000002,
          "velocity": 0.5118110236220472,
          "duration": 0.5509999999999997
        },
        {
          "name": "E6",
          "midi": 88,
          "time": 0.6410000000000002,
          "velocity": 0.5118110236220472,
          "duration": 0.5509999999999997
        },
        {
          "name": "B6",
          "midi": 95,
          "time": 0.6510000000000002,
          "velocity": 0.4409448818897638,
          "duration": 0.028000000000000025
        },
        {
          "name": "B6",
          "midi": 95,
          "time": 0.6510000000000002,
          "velocity": 0.4409448818897638,
          "duration": 0.028000000000000025
        },
        {
          "name": "B6",
          "midi": 95,
          "time": 0.6610000000000003,
          "velocity": 0.4409448818897638,
          "duration": 0.05700000000000005
        },
        {
          "name": "B6",
          "midi": 95,
          "time": 0.6610000000000003,
          "velocity": 0.4409448818897638,
          "duration": 0.05700000000000005
        },
        {
          "name": "F5",
          "midi": 77,
          "time": 0.7100000000000003,
          "velocity": 0.4409448818897638,
          "duration": 0.08700000000000008
        },
        {
          "name": "B6",
          "midi": 95,
          "time": 0.7100000000000003,
          "velocity": 0.4330708661417323,
          "duration": 0.20600000000000018
        },
        {
          "name": "F5",
          "midi": 77,
          "time": 0.7100000000000003,
          "velocity": 0.4409448818897638,
          "duration": 0.08700000000000008
        },
        {
          "name": "B6",
          "midi": 95,
          "time": 0.7100000000000003,
          "velocity": 0.4330708661417323,
          "duration": 0.20600000000000018
        },
        {
          "name": "G4",
          "midi": 67,
          "time": 0.7300000000000003,
          "velocity": 0.41732283464566927,
          "duration": 0.04700000000000004
        },
        {
          "name": "G4",
          "midi": 67,
          "time": 0.7300000000000003,
          "velocity": 0.41732283464566927,
          "duration": 0.04700000000000004
        },
        {
          "name": "G5",
          "midi": 79,
          "time": 0.7600000000000003,
          "velocity": 0.41732283464566927,
          "duration": 0.1160000000000001
        },
        {
          "name": "G5",
          "midi": 79,
          "time": 0.7600000000000003,
          "velocity": 0.41732283464566927,
          "duration": 0.1160000000000001
        },
        {
          "name": "G#4",
          "midi": 68,
          "time": 0.7990000000000004,
          "velocity": 0.4015748031496063,
          "duration": 0.008000000000000007
        },
        {
          "name": "G#4",
          "midi": 68,
          "time": 0.7990000000000004,
          "velocity": 0.4015748031496063,
          "duration": 0.008000000000000007
        },
        {
          "name": "E7",
          "midi": 100,
          "time": 0.8090000000000004,
          "velocity": 0.4015748031496063,
          "duration": 0.08700000000000008
        },
        {
          "name": "E7",
          "midi": 100,
          "time": 0.8090000000000004,
          "velocity": 0.4015748031496063,
          "duration": 0.08700000000000008
        },
        {
          "name": "G#7",
          "midi": 104,
          "time": 0.8290000000000004,
          "velocity": 0.4015748031496063,
          "duration": 0.008000000000000007
        },
        {
          "name": "G#7",
          "midi": 104,
          "time": 0.8290000000000004,
          "velocity": 0.4015748031496063,
          "duration": 0.008000000000000007
        },
        {
          "name": "B6",
          "midi": 95,
          "time": 0.8880000000000005,
          "velocity": 0.4094488188976378,
          "duration": 0.23499999999999976
        },
        {
          "name": "B6",
          "midi": 95,
          "time": 0.8880000000000005,
          "velocity": 0.4094488188976378,
          "duration": 0.23499999999999976
        },
        {
          "name": "G4",
          "midi": 67,
          "time": 0.9170000000000005,
          "velocity": 0.4015748031496063,
          "duration": 0.008000000000000007
        },
        {
          "name": "E7",
          "midi": 100,
          "time": 0.9170000000000005,
          "velocity": 0.4015748031496063,
          "duration": 0.06700000000000006
        },
        {
          "name": "G4",
          "midi": 67,
          "time": 0.9170000000000005,
          "velocity": 0.4015748031496063,
          "duration": 0.008000000000000007
        },
        {
          "name": "E7",
          "midi": 100,
          "time": 0.9170000000000005,
          "velocity": 0.4015748031496063,
          "duration": 0.06700000000000006
        },
        {
          "name": "G#7",
          "midi": 104,
          "time": 0.9270000000000005,
          "velocity": 0.4015748031496063,
          "duration": 0.018000000000000016
        },
        {
          "name": "G#7",
          "midi": 104,
          "time": 0.9270000000000005,
          "velocity": 0.4015748031496063,
          "duration": 0.018000000000000016
        },
        {
          "name": "F#5",
          "midi": 78,
          "time": 0.9570000000000005,
          "velocity": 0.4015748031496063,
          "duration": 0.018000000000000016
        },
        {
          "name": "F#5",
          "midi": 78,
          "time": 0.9570000000000005,
          "velocity": 0.4015748031496063,
          "duration": 0.018000000000000016
        },
        {
          "name": "C4",
          "midi": 60,
          "time": 0.9960000000000006,
          "velocity": 0.4015748031496063,
          "duration": 0.04699999999999982
        },
        {
          "name": "D#5",
          "midi": 75,
          "time": 0.9960000000000006,
          "velocity": 0.41732283464566927,
          "duration": 0.017999999999999905
        },
        {
          "name": "C4",
          "midi": 60,
          "time": 0.9960000000000006,
          "velocity": 0.4015748031496063,
          "duration": 0.04699999999999982
        },
        {
          "name": "D#5",
          "midi": 75,
          "time": 0.9960000000000006,
          "velocity": 0.41732283464566927,
          "duration": 0.017999999999999905
        },
        {
          "name": "E7",
          "midi": 100,
          "time": 1.0160000000000005,
          "velocity": 0.4094488188976378,
          "duration": 0.2539999999999991
        },
        {
          "name": "E7",
          "midi": 100,
          "time": 1.0160000000000005,
          "velocity": 0.4094488188976378,
          "duration": 0.2539999999999991
        },
        {
          "name": "G4",
          "midi": 67,
          "time": 1.0360000000000005,
          "velocity": 0.4015748031496063,
          "duration": 0.007999999999999785
        },
        {
          "name": "G4",
          "midi": 67,
          "time": 1.0360000000000005,
          "velocity": 0.4015748031496063,
          "duration": 0.007999999999999785
        },
        {
          "name": "C7",
          "midi": 96,
          "time": 1.0650000000000002,
          "velocity": 0.4015748031496063,
          "duration": 0.008000000000000007
        },
        {
          "name": "C7",
          "midi": 96,
          "time": 1.0650000000000002,
          "velocity": 0.4015748031496063,
          "duration": 0.008000000000000007
        },
        {
          "name": "B6",
          "midi": 95,
          "time": 1.1050000000000002,
          "velocity": 0.4566929133858268,
          "duration": 0.04699999999999993
        },
        {
          "name": "B6",
          "midi": 95,
          "time": 1.1050000000000002,
          "velocity": 0.4566929133858268,
          "duration": 0.04699999999999993
        },
        {
          "name": "D5",
          "midi": 74,
          "time": 1.1340000000000001,
          "velocity": 0.4015748031496063,
          "duration": 0.03699999999999992
        },
        {
          "name": "D5",
          "midi": 74,
          "time": 1.1340000000000001,
          "velocity": 0.4015748031496063,
          "duration": 0.03699999999999992
        },
        {
          "name": "B6",
          "midi": 95,
          "time": 1.1440000000000001,
          "velocity": 0.4094488188976378,
          "duration": 0.20499999999999918
        },
        {
          "name": "B6",
          "midi": 95,
          "time": 1.1440000000000001,
          "velocity": 0.4094488188976378,
          "duration": 0.20499999999999918
        },
        {
          "name": "E6",
          "midi": 88,
          "time": 1.1640000000000001,
          "velocity": 0.41732283464566927,
          "duration": 0.9059999999999984
        },
        {
          "name": "E6",
          "midi": 88,
          "time": 1.1640000000000001,
          "velocity": 0.41732283464566927,
          "duration": 0.9059999999999984
        },
        {
          "name": "D5",
          "midi": 74,
          "time": 1.194,
          "velocity": 0.3937007874015748,
          "duration": 0.017999999999999794
        },
        {
          "name": "D5",
          "midi": 74,
          "time": 1.194,
          "velocity": 0.3937007874015748,
          "duration": 0.017999999999999794
        },
        {
          "name": "F#5",
          "midi": 78,
          "time": 1.2029999999999998,
          "velocity": 0.3937007874015748,
          "duration": 0.008000000000000007
        },
        {
          "name": "F#5",
          "midi": 78,
          "time": 1.2029999999999998,
          "velocity": 0.3937007874015748,
          "duration": 0.008000000000000007
        },
        {
          "name": "D5",
          "midi": 74,
          "time": 1.2629999999999997,
          "velocity": 0.4015748031496063,
          "duration": 0.07699999999999974
        },
        {
          "name": "D5",
          "midi": 74,
          "time": 1.2629999999999997,
          "velocity": 0.4015748031496063,
          "duration": 0.07699999999999974
        },
        {
          "name": "F6",
          "midi": 89,
          "time": 1.2819999999999996,
          "velocity": 0.4094488188976378,
          "duration": 0.008000000000000007
        },
        {
          "name": "F6",
          "midi": 89,
          "time": 1.2819999999999996,
          "velocity": 0.4094488188976378,
          "duration": 0.008000000000000007
        },
        {
          "name": "F#5",
          "midi": 78,
          "time": 1.2919999999999996,
          "velocity": 0.3937007874015748,
          "duration": 0.03699999999999992
        },
        {
          "name": "F#5",
          "midi": 78,
          "time": 1.2919999999999996,
          "velocity": 0.3937007874015748,
          "duration": 0.03699999999999992
        },
        {
          "name": "B6",
          "midi": 95,
          "time": 1.3409999999999993,
          "velocity": 0.4094488188976378,
          "duration": 0.08699999999999997
        },
        {
          "name": "B6",
          "midi": 95,
          "time": 1.3409999999999993,
          "velocity": 0.4094488188976378,
          "duration": 0.08699999999999997
        },
        {
          "name": "E7",
          "midi": 100,
          "time": 1.3509999999999993,
          "velocity": 0.4094488188976378,
          "duration": 0.11599999999999988
        },
        {
          "name": "E7",
          "midi": 100,
          "time": 1.3509999999999993,
          "velocity": 0.4094488188976378,
          "duration": 0.11599999999999988
        },
        {
          "name": "D5",
          "midi": 74,
          "time": 1.4109999999999994,
          "velocity": 0.3937007874015748,
          "duration": 0.008000000000000007
        },
        {
          "name": "D5",
          "midi": 74,
          "time": 1.4109999999999994,
          "velocity": 0.3937007874015748,
          "duration": 0.008000000000000007
        },
        {
          "name": "B6",
          "midi": 95,
          "time": 1.4199999999999993,
          "velocity": 0.4094488188976378,
          "duration": 0.08699999999999974
        },
        {
          "name": "B6",
          "midi": 95,
          "time": 1.4199999999999993,
          "velocity": 0.4094488188976378,
          "duration": 0.08699999999999974
        },
        {
          "name": "D5",
          "midi": 74,
          "time": 1.4399999999999993,
          "velocity": 0.4015748031496063,
          "duration": 0.10699999999999976
        },
        {
          "name": "D5",
          "midi": 74,
          "time": 1.4399999999999993,
          "velocity": 0.4015748031496063,
          "duration": 0.10699999999999976
        },
        {
          "name": "F5",
          "midi": 77,
          "time": 1.4599999999999993,
          "velocity": 0.41732283464566927,
          "duration": 0.027999999999999803
        },
        {
          "name": "F5",
          "midi": 77,
          "time": 1.4599999999999993,
          "velocity": 0.41732283464566927,
          "duration": 0.027999999999999803
        },
        {
          "name": "B6",
          "midi": 95,
          "time": 1.498999999999999,
          "velocity": 0.4094488188976378,
          "duration": 0.08699999999999997
        },
        {
          "name": "B6",
          "midi": 95,
          "time": 1.498999999999999,
          "velocity": 0.4094488188976378,
          "duration": 0.08699999999999997
        },
        {
          "name": "E7",
          "midi": 100,
          "time": 1.508999999999999,
          "velocity": 0.4094488188976378,
          "duration": 0.10699999999999998
        },
        {
          "name": "E7",
          "midi": 100,
          "time": 1.508999999999999,
          "velocity": 0.4094488188976378,
          "duration": 0.10699999999999998
        },
        {
          "name": "B6",
          "midi": 95,
          "time": 1.577999999999999,
          "velocity": 0.41732283464566927,
          "duration": 0.17599999999999993
        },
        {
          "name": "B6",
          "midi": 95,
          "time": 1.577999999999999,
          "velocity": 0.41732283464566927,
          "duration": 0.17599999999999993
        },
        {
          "name": "D5",
          "midi": 74,
          "time": 1.597999999999999,
          "velocity": 0.4015748031496063,
          "duration": 0.03699999999999992
        },
        {
          "name": "D5",
          "midi": 74,
          "time": 1.597999999999999,
          "velocity": 0.4015748031496063,
          "duration": 0.03699999999999992
        },
        {
          "name": "F6",
          "midi": 89,
          "time": 1.646999999999999,
          "velocity": 0.4015748031496063,
          "duration": 0.008000000000000007
        },
        {
          "name": "F6",
          "midi": 89,
          "time": 1.646999999999999,
          "velocity": 0.4015748031496063,
          "duration": 0.008000000000000007
        },
        {
          "name": "D#5",
          "midi": 75,
          "time": 1.666999999999999,
          "velocity": 0.4015748031496063,
          "duration": 0.04699999999999993
        },
        {
          "name": "D#5",
          "midi": 75,
          "time": 1.666999999999999,
          "velocity": 0.4015748031496063,
          "duration": 0.04699999999999993
        },
        {
          "name": "E7",
          "midi": 100,
          "time": 1.676999999999999,
          "velocity": 0.4094488188976378,
          "duration": 0.07699999999999996
        },
        {
          "name": "E7",
          "midi": 100,
          "time": 1.676999999999999,
          "velocity": 0.4094488188976378,
          "duration": 0.07699999999999996
        },
        {
          "name": "D#4",
          "midi": 63,
          "time": 1.7159999999999989,
          "velocity": 0.3937007874015748,
          "duration": 0.008000000000000007
        },
        {
          "name": "D#4",
          "midi": 63,
          "time": 1.7159999999999989,
          "velocity": 0.3937007874015748,
          "duration": 0.008000000000000007
        },
        {
          "name": "B6",
          "midi": 95,
          "time": 1.7459999999999989,
          "velocity": 0.4015748031496063,
          "duration": 0.038000000000000034
        },
        {
          "name": "E7",
          "midi": 100,
          "time": 1.7459999999999989,
          "velocity": 0.3937007874015748,
          "duration": 0.36299999999999977
        },
        {
          "name": "B6",
          "midi": 95,
          "time": 1.7459999999999989,
          "velocity": 0.4015748031496063,
          "duration": 0.038000000000000034
        },
        {
          "name": "E7",
          "midi": 100,
          "time": 1.7459999999999989,
          "velocity": 0.3937007874015748,
          "duration": 0.36299999999999977
        },
        {
          "name": "B6",
          "midi": 95,
          "time": 1.775999999999999,
          "velocity": 0.4015748031496063,
          "duration": 0.06699999999999995
        },
        {
          "name": "B6",
          "midi": 95,
          "time": 1.775999999999999,
          "velocity": 0.4015748031496063,
          "duration": 0.06699999999999995
        },
        {
          "name": "F5",
          "midi": 77,
          "time": 1.7949999999999988,
          "velocity": 0.4015748031496063,
          "duration": 0.008000000000000007
        },
        {
          "name": "D5",
          "midi": 74,
          "time": 1.7949999999999988,
          "velocity": 0.3937007874015748,
          "duration": 0.018000000000000016
        },
        {
          "name": "F5",
          "midi": 77,
          "time": 1.7949999999999988,
          "velocity": 0.4015748031496063,
          "duration": 0.008000000000000007
        },
        {
          "name": "D5",
          "midi": 74,
          "time": 1.7949999999999988,
          "velocity": 0.3937007874015748,
          "duration": 0.018000000000000016
        },
        {
          "name": "B6",
          "midi": 95,
          "time": 1.8249999999999988,
          "velocity": 0.4015748031496063,
          "duration": 0.16599999999999993
        },
        {
          "name": "F3",
          "midi": 53,
          "time": 1.8249999999999988,
          "velocity": 0.3937007874015748,
          "duration": 0.008000000000000007
        },
        {
          "name": "B6",
          "midi": 95,
          "time": 1.8249999999999988,
          "velocity": 0.4015748031496063,
          "duration": 0.16599999999999993
        },
        {
          "name": "F3",
          "midi": 53,
          "time": 1.8249999999999988,
          "velocity": 0.3937007874015748,
          "duration": 0.008000000000000007
        },
        {
          "name": "D#5",
          "midi": 75,
          "time": 1.8539999999999988,
          "velocity": 0.4015748031496063,
          "duration": 0.028000000000000025
        },
        {
          "name": "D#5",
          "midi": 75,
          "time": 1.8539999999999988,
          "velocity": 0.4015748031496063,
          "duration": 0.028000000000000025
        },
        {
          "name": "A2",
          "midi": 45,
          "time": 1.8939999999999988,
          "velocity": 0.3937007874015748,
          "duration": 0.018000000000000016
        },
        {
          "name": "F5",
          "midi": 77,
          "time": 1.8939999999999988,
          "velocity": 0.4015748031496063,
          "duration": 0.008000000000000007
        },
        {
          "name": "A2",
          "midi": 45,
          "time": 1.8939999999999988,
          "velocity": 0.3937007874015748,
          "duration": 0.018000000000000016
        },
        {
          "name": "F5",
          "midi": 77,
          "time": 1.8939999999999988,
          "velocity": 0.4015748031496063,
          "duration": 0.008000000000000007
        },
        {
          "name": "F#5",
          "midi": 78,
          "time": 1.9229999999999987,
          "velocity": 0.4015748031496063,
          "duration": 0.008000000000000007
        },
        {
          "name": "F#5",
          "midi": 78,
          "time": 1.9229999999999987,
          "velocity": 0.4015748031496063,
          "duration": 0.008000000000000007
        },
        {
          "name": "E2",
          "midi": 40,
          "time": 1.9429999999999987,
          "velocity": 0.3937007874015748,
          "duration": 0.008000000000000007
        },
        {
          "name": "E2",
          "midi": 40,
          "time": 1.9429999999999987,
          "velocity": 0.3937007874015748,
          "duration": 0.008000000000000007
        },
        {
          "name": "D5",
          "midi": 74,
          "time": 1.9529999999999987,
          "velocity": 0.3937007874015748,
          "duration": 0.018000000000000016
        },
        {
          "name": "D5",
          "midi": 74,
          "time": 1.9529999999999987,
          "velocity": 0.3937007874015748,
          "duration": 0.018000000000000016
        },
        {
          "name": "B6",
          "midi": 95,
          "time": 1.9829999999999988,
          "velocity": 0.41732283464566927,
          "duration": 0.3329999999999984
        },
        {
          "name": "B6",
          "midi": 95,
          "time": 1.9829999999999988,
          "velocity": 0.41732283464566927,
          "duration": 0.3329999999999984
        },
        {
          "name": "E2",
          "midi": 40,
          "time": 1.9929999999999988,
          "velocity": 0.3937007874015748,
          "duration": 0.007999999999999785
        },
        {
          "name": "E2",
          "midi": 40,
          "time": 1.9929999999999988,
          "velocity": 0.3937007874015748,
          "duration": 0.007999999999999785
        },
        {
          "name": "F5",
          "midi": 77,
          "time": 2.0419999999999985,
          "velocity": 0.3937007874015748,
          "duration": 0.008000000000000007
        },
        {
          "name": "F5",
          "midi": 77,
          "time": 2.0419999999999985,
          "velocity": 0.3937007874015748,
          "duration": 0.008000000000000007
        },
        {
          "name": "E6",
          "midi": 88,
          "time": 2.0619999999999985,
          "velocity": 0.3937007874015748,
          "duration": 0.4609999999999985
        },
        {
          "name": "E6",
          "midi": 88,
          "time": 2.0619999999999985,
          "velocity": 0.3937007874015748,
          "duration": 0.4609999999999985
        },
        {
          "name": "F5",
          "midi": 77,
          "time": 2.1009999999999986,
          "velocity": 0.4094488188976378,
          "duration": 0.02799999999999958
        },
        {
          "name": "F5",
          "midi": 77,
          "time": 2.1009999999999986,
          "velocity": 0.4094488188976378,
          "duration": 0.02799999999999958
        },
        {
          "name": "D#5",
          "midi": 75,
          "time": 2.1109999999999984,
          "velocity": 0.4015748031496063,
          "duration": 0.017999999999999794
        },
        {
          "name": "D#5",
          "midi": 75,
          "time": 2.1109999999999984,
          "velocity": 0.4015748031496063,
          "duration": 0.017999999999999794
        },
        {
          "name": "E7",
          "midi": 100,
          "time": 2.1399999999999983,
          "velocity": 0.4015748031496063,
          "duration": 0.12599999999999945
        },
        {
          "name": "E7",
          "midi": 100,
          "time": 2.1399999999999983,
          "velocity": 0.4015748031496063,
          "duration": 0.12599999999999945
        },
        {
          "name": "D5",
          "midi": 74,
          "time": 2.169999999999998,
          "velocity": 0.3937007874015748,
          "duration": 0.008000000000000007
        },
        {
          "name": "D5",
          "midi": 74,
          "time": 2.169999999999998,
          "velocity": 0.3937007874015748,
          "duration": 0.008000000000000007
        },
        {
          "name": "F2",
          "midi": 41,
          "time": 2.189999999999998,
          "velocity": 0.3937007874015748,
          "duration": 0.008000000000000007
        },
        {
          "name": "F2",
          "midi": 41,
          "time": 2.189999999999998,
          "velocity": 0.3937007874015748,
          "duration": 0.008000000000000007
        },
        {
          "name": "D5",
          "midi": 74,
          "time": 2.199999999999998,
          "velocity": 0.3937007874015748,
          "duration": 0.017999999999999794
        },
        {
          "name": "D5",
          "midi": 74,
          "time": 2.199999999999998,
          "velocity": 0.3937007874015748,
          "duration": 0.017999999999999794
        },
        {
          "name": "F#5",
          "midi": 78,
          "time": 2.2389999999999977,
          "velocity": 0.4015748031496063,
          "duration": 0.05699999999999994
        },
        {
          "name": "D5",
          "midi": 74,
          "time": 2.2389999999999977,
          "velocity": 0.4015748031496063,
          "duration": 0.06699999999999973
        },
        {
          "name": "F#5",
          "midi": 78,
          "time": 2.2389999999999977,
          "velocity": 0.4015748031496063,
          "duration": 0.05699999999999994
        },
        {
          "name": "D5",
          "midi": 74,
          "time": 2.2389999999999977,
          "velocity": 0.4015748031496063,
          "duration": 0.06699999999999973
        },
        {
          "name": "E7",
          "midi": 100,
          "time": 2.307999999999997,
          "velocity": 0.4094488188976378,
          "duration": 0.44199999999999884
        },
        {
          "name": "B6",
          "midi": 95,
          "time": 2.307999999999997,
          "velocity": 0.4094488188976378,
          "duration": 0.16599999999999993
        },
        {
          "name": "E7",
          "midi": 100,
          "time": 2.307999999999997,
          "velocity": 0.4094488188976378,
          "duration": 0.44199999999999884
        },
        {
          "name": "B6",
          "midi": 95,
          "time": 2.307999999999997,
          "velocity": 0.4094488188976378,
          "duration": 0.16599999999999993
        },
        {
          "name": "D5",
          "midi": 74,
          "time": 2.327999999999997,
          "velocity": 0.3937007874015748,
          "duration": 0.008000000000000007
        },
        {
          "name": "D5",
          "midi": 74,
          "time": 2.327999999999997,
          "velocity": 0.3937007874015748,
          "duration": 0.008000000000000007
        },
        {
          "name": "F#5",
          "midi": 78,
          "time": 2.347999999999997,
          "velocity": 0.3937007874015748,
          "duration": 0.008000000000000007
        },
        {
          "name": "F#5",
          "midi": 78,
          "time": 2.347999999999997,
          "velocity": 0.3937007874015748,
          "duration": 0.008000000000000007
        },
        {
          "name": "D#2",
          "midi": 39,
          "time": 2.3669999999999973,
          "velocity": 0.3937007874015748,
          "duration": 0.008000000000000007
        },
        {
          "name": "D#2",
          "midi": 39,
          "time": 2.3669999999999973,
          "velocity": 0.3937007874015748,
          "duration": 0.008000000000000007
        },
        {
          "name": "D#5",
          "midi": 75,
          "time": 2.3869999999999973,
          "velocity": 0.3937007874015748,
          "duration": 0.017999999999999794
        },
        {
          "name": "D#5",
          "midi": 75,
          "time": 2.3869999999999973,
          "velocity": 0.3937007874015748,
          "duration": 0.017999999999999794
        },
        {
          "name": "C#2",
          "midi": 37,
          "time": 2.4359999999999973,
          "velocity": 0.4015748031496063,
          "duration": 0.017999999999999794
        },
        {
          "name": "C#2",
          "midi": 37,
          "time": 2.4359999999999973,
          "velocity": 0.4015748031496063,
          "duration": 0.017999999999999794
        },
        {
          "name": "B6",
          "midi": 95,
          "time": 2.465999999999997,
          "velocity": 0.4094488188976378,
          "duration": 0.26399999999999935
        },
        {
          "name": "B6",
          "midi": 95,
          "time": 2.465999999999997,
          "velocity": 0.4094488188976378,
          "duration": 0.26399999999999935
        },
        {
          "name": "D2",
          "midi": 38,
          "time": 2.485999999999997,
          "velocity": 0.3937007874015748,
          "duration": 0.008000000000000007
        },
        {
          "name": "D2",
          "midi": 38,
          "time": 2.485999999999997,
          "velocity": 0.3937007874015748,
          "duration": 0.008000000000000007
        },
        {
          "name": "D#2",
          "midi": 39,
          "time": 2.5049999999999972,
          "velocity": 0.3937007874015748,
          "duration": 0.008000000000000007
        },
        {
          "name": "D#2",
          "midi": 39,
          "time": 2.5049999999999972,
          "velocity": 0.3937007874015748,
          "duration": 0.008000000000000007
        },
        {
          "name": "E6",
          "midi": 88,
          "time": 2.514999999999997,
          "velocity": 0.4015748031496063,
          "duration": 0.6589999999999963
        },
        {
          "name": "E6",
          "midi": 88,
          "time": 2.514999999999997,
          "velocity": 0.4015748031496063,
          "duration": 0.6589999999999963
        },
        {
          "name": "F6",
          "midi": 89,
          "time": 2.524999999999997,
          "velocity": 0.3937007874015748,
          "duration": 0.008000000000000007
        },
        {
          "name": "F6",
          "midi": 89,
          "time": 2.524999999999997,
          "velocity": 0.3937007874015748,
          "duration": 0.008000000000000007
        },
        {
          "name": "D5",
          "midi": 74,
          "time": 2.544999999999997,
          "velocity": 0.4015748031496063,
          "duration": 0.008000000000000007
        },
        {
          "name": "D5",
          "midi": 74,
          "time": 2.544999999999997,
          "velocity": 0.4015748031496063,
          "duration": 0.008000000000000007
        },
        {
          "name": "F#5",
          "midi": 78,
          "time": 2.5549999999999966,
          "velocity": 0.4015748031496063,
          "duration": 0.03699999999999992
        },
        {
          "name": "F#5",
          "midi": 78,
          "time": 2.5549999999999966,
          "velocity": 0.4015748031496063,
          "duration": 0.03699999999999992
        },
        {
          "name": "F#5",
          "midi": 78,
          "time": 2.6039999999999965,
          "velocity": 0.4015748031496063,
          "duration": 0.028000000000000025
        },
        {
          "name": "F#5",
          "midi": 78,
          "time": 2.6039999999999965,
          "velocity": 0.4015748031496063,
          "duration": 0.028000000000000025
        },
        {
          "name": "G5",
          "midi": 79,
          "time": 2.6529999999999965,
          "velocity": 0.3937007874015748,
          "duration": 0.008000000000000007
        },
        {
          "name": "G5",
          "midi": 79,
          "time": 2.6529999999999965,
          "velocity": 0.3937007874015748,
          "duration": 0.008000000000000007
        },
        {
          "name": "C7",
          "midi": 96,
          "time": 2.6829999999999963,
          "velocity": 0.4015748031496063,
          "duration": 0.008000000000000007
        },
        {
          "name": "D5",
          "midi": 74,
          "time": 2.6829999999999963,
          "velocity": 0.4015748031496063,
          "duration": 0.028000000000000025
        },
        {
          "name": "C7",
          "midi": 96,
          "time": 2.6829999999999963,
          "velocity": 0.4015748031496063,
          "duration": 0.008000000000000007
        },
        {
          "name": "D5",
          "midi": 74,
          "time": 2.6829999999999963,
          "velocity": 0.4015748031496063,
          "duration": 0.028000000000000025
        },
        {
          "name": "B6",
          "midi": 95,
          "time": 2.7219999999999964,
          "velocity": 0.4094488188976378,
          "duration": 0.0869999999999993
        },
        {
          "name": "B6",
          "midi": 95,
          "time": 2.7219999999999964,
          "velocity": 0.4094488188976378,
          "duration": 0.0869999999999993
        },
        {
          "name": "D5",
          "midi": 74,
          "time": 2.731999999999996,
          "velocity": 0.4015748031496063,
          "duration": 0.04699999999999971
        },
        {
          "name": "D5",
          "midi": 74,
          "time": 2.731999999999996,
          "velocity": 0.4015748031496063,
          "duration": 0.04699999999999971
        },
        {
          "name": "F6",
          "midi": 89,
          "time": 2.761999999999996,
          "velocity": 0.4015748031496063,
          "duration": 0.017999999999999794
        },
        {
          "name": "F6",
          "midi": 89,
          "time": 2.761999999999996,
          "velocity": 0.4015748031496063,
          "duration": 0.017999999999999794
        },
        {
          "name": "F5",
          "midi": 77,
          "time": 2.771999999999996,
          "velocity": 0.4015748031496063,
          "duration": 0.03699999999999992
        },
        {
          "name": "F5",
          "midi": 77,
          "time": 2.771999999999996,
          "velocity": 0.4015748031496063,
          "duration": 0.03699999999999992
        },
        {
          "name": "B6",
          "midi": 95,
          "time": 2.8009999999999957,
          "velocity": 0.4015748031496063,
          "duration": 0.08699999999999974
        },
        {
          "name": "B6",
          "midi": 95,
          "time": 2.8009999999999957,
          "velocity": 0.4015748031496063,
          "duration": 0.08699999999999974
        },
        {
          "name": "E7",
          "midi": 100,
          "time": 2.8209999999999957,
          "velocity": 0.4015748031496063,
          "duration": 0.07699999999999951
        },
        {
          "name": "E7",
          "midi": 100,
          "time": 2.8209999999999957,
          "velocity": 0.4015748031496063,
          "duration": 0.07699999999999951
        },
        {
          "name": "F6",
          "midi": 89,
          "time": 2.8509999999999955,
          "velocity": 0.3937007874015748,
          "duration": 0.017999999999999794
        },
        {
          "name": "F#5",
          "midi": 78,
          "time": 2.8509999999999955,
          "velocity": 0.3937007874015748,
          "duration": 0.017999999999999794
        },
        {
          "name": "F6",
          "midi": 89,
          "time": 2.8509999999999955,
          "velocity": 0.3937007874015748,
          "duration": 0.017999999999999794
        },
        {
          "name": "F#5",
          "midi": 78,
          "time": 2.8509999999999955,
          "velocity": 0.3937007874015748,
          "duration": 0.017999999999999794
        },
        {
          "name": "B6",
          "midi": 95,
          "time": 2.8799999999999955,
          "velocity": 0.4094488188976378,
          "duration": 0.17599999999999882
        },
        {
          "name": "B6",
          "midi": 95,
          "time": 2.8799999999999955,
          "velocity": 0.4094488188976378,
          "duration": 0.17599999999999882
        },
        {
          "name": "D5",
          "midi": 74,
          "time": 2.8899999999999952,
          "velocity": 0.4015748031496063,
          "duration": 0.06699999999999928
        },
        {
          "name": "D5",
          "midi": 74,
          "time": 2.8899999999999952,
          "velocity": 0.4015748031496063,
          "duration": 0.06699999999999928
        },
        {
          "name": "F#5",
          "midi": 78,
          "time": 2.9099999999999953,
          "velocity": 0.4015748031496063,
          "duration": 0.02799999999999958
        },
        {
          "name": "F#5",
          "midi": 78,
          "time": 2.9099999999999953,
          "velocity": 0.4015748031496063,
          "duration": 0.02799999999999958
        },
        {
          "name": "F5",
          "midi": 77,
          "time": 2.919999999999995,
          "velocity": 0.4409448818897638,
          "duration": 0.008000000000000007
        },
        {
          "name": "F5",
          "midi": 77,
          "time": 2.919999999999995,
          "velocity": 0.4409448818897638,
          "duration": 0.008000000000000007
        },
        {
          "name": "F6",
          "midi": 89,
          "time": 2.9389999999999947,
          "velocity": 0.3937007874015748,
          "duration": 0.008000000000000007
        },
        {
          "name": "F6",
          "midi": 89,
          "time": 2.9389999999999947,
          "velocity": 0.3937007874015748,
          "duration": 0.008000000000000007
        },
        {
          "name": "E7",
          "midi": 100,
          "time": 2.9489999999999945,
          "velocity": 0.4015748031496063,
          "duration": 0.2839999999999985
        },
        {
          "name": "E7",
          "midi": 100,
          "time": 2.9489999999999945,
          "velocity": 0.4015748031496063,
          "duration": 0.2839999999999985
        },
        {
          "name": "D#5",
          "midi": 75,
          "time": 2.9589999999999943,
          "velocity": 0.4015748031496063,
          "duration": 0.008000000000000007
        },
        {
          "name": "D#5",
          "midi": 75,
          "time": 2.9589999999999943,
          "velocity": 0.4015748031496063,
          "duration": 0.008000000000000007
        },
        {
          "name": "G2",
          "midi": 43,
          "time": 2.9789999999999943,
          "velocity": 0.3937007874015748,
          "duration": 0.008000000000000007
        },
        {
          "name": "G2",
          "midi": 43,
          "time": 2.9789999999999943,
          "velocity": 0.3937007874015748,
          "duration": 0.008000000000000007
        },
        {
          "name": "D#5",
          "midi": 75,
          "time": 3.008999999999994,
          "velocity": 0.4015748031496063,
          "duration": 0.008000000000000007
        },
        {
          "name": "D#5",
          "midi": 75,
          "time": 3.008999999999994,
          "velocity": 0.4015748031496063,
          "duration": 0.008000000000000007
        },
        {
          "name": "D#6",
          "midi": 87,
          "time": 3.0279999999999943,
          "velocity": 0.4015748031496063,
          "duration": 0.008000000000000007
        },
        {
          "name": "D#6",
          "midi": 87,
          "time": 3.0279999999999943,
          "velocity": 0.4015748031496063,
          "duration": 0.008000000000000007
        },
        {
          "name": "B6",
          "midi": 95,
          "time": 3.0479999999999943,
          "velocity": 0.4015748031496063,
          "duration": 0.14599999999999902
        },
        {
          "name": "D5",
          "midi": 74,
          "time": 3.0479999999999943,
          "velocity": 0.4015748031496063,
          "duration": 0.017999999999999794
        },
        {
          "name": "B6",
          "midi": 95,
          "time": 3.0479999999999943,
          "velocity": 0.4015748031496063,
          "duration": 0.14599999999999902
        },
        {
          "name": "D5",
          "midi": 74,
          "time": 3.0479999999999943,
          "velocity": 0.4015748031496063,
          "duration": 0.017999999999999794
        },
        {
          "name": "D5",
          "midi": 74,
          "time": 3.077999999999994,
          "velocity": 0.3937007874015748,
          "duration": 0.008000000000000007
        },
        {
          "name": "D5",
          "midi": 74,
          "time": 3.077999999999994,
          "velocity": 0.3937007874015748,
          "duration": 0.008000000000000007
        },
        {
          "name": "D#5",
          "midi": 75,
          "time": 3.086999999999994,
          "velocity": 0.4015748031496063,
          "duration": 0.008000000000000007
        },
        {
          "name": "D#5",
          "midi": 75,
          "time": 3.086999999999994,
          "velocity": 0.4015748031496063,
          "duration": 0.008000000000000007
        },
        {
          "name": "F5",
          "midi": 77,
          "time": 3.106999999999994,
          "velocity": 0.4015748031496063,
          "duration": 0.008000000000000007
        },
        {
          "name": "F5",
          "midi": 77,
          "time": 3.106999999999994,
          "velocity": 0.4015748031496063,
          "duration": 0.008000000000000007
        },
        {
          "name": "D2",
          "midi": 38,
          "time": 3.136999999999994,
          "velocity": 0.4015748031496063,
          "duration": 0.017999999999999794
        },
        {
          "name": "F#5",
          "midi": 78,
          "time": 3.136999999999994,
          "velocity": 0.4015748031496063,
          "duration": 0.008000000000000007
        },
        {
          "name": "D2",
          "midi": 38,
          "time": 3.136999999999994,
          "velocity": 0.4015748031496063,
          "duration": 0.017999999999999794
        },
        {
          "name": "F#5",
          "midi": 78,
          "time": 3.136999999999994,
          "velocity": 0.4015748031496063,
          "duration": 0.008000000000000007
        },
        {
          "name": "E6",
          "midi": 88,
          "time": 3.1559999999999935,
          "velocity": 0.3937007874015748,
          "duration": 0.5309999999999957
        },
        {
          "name": "E6",
          "midi": 88,
          "time": 3.1559999999999935,
          "velocity": 0.3937007874015748,
          "duration": 0.5309999999999957
        },
        {
          "name": "B6",
          "midi": 95,
          "time": 3.1859999999999933,
          "velocity": 0.3937007874015748,
          "duration": 0.03799999999999981
        },
        {
          "name": "B6",
          "midi": 95,
          "time": 3.1859999999999933,
          "velocity": 0.3937007874015748,
          "duration": 0.03799999999999981
        },
        {
          "name": "B6",
          "midi": 95,
          "time": 3.215999999999993,
          "velocity": 0.4015748031496063,
          "duration": 0.2739999999999978
        },
        {
          "name": "B6",
          "midi": 95,
          "time": 3.215999999999993,
          "velocity": 0.4015748031496063,
          "duration": 0.2739999999999978
        },
        {
          "name": "D5",
          "midi": 74,
          "time": 3.2349999999999928,
          "velocity": 0.4015748031496063,
          "duration": 0.04699999999999971
        },
        {
          "name": "D5",
          "midi": 74,
          "time": 3.2349999999999928,
          "velocity": 0.4015748031496063,
          "duration": 0.04699999999999971
        },
        {
          "name": "D#2",
          "midi": 39,
          "time": 3.254999999999993,
          "velocity": 0.4015748031496063,
          "duration": 0.017999999999999794
        },
        {
          "name": "E7",
          "midi": 100,
          "time": 3.254999999999993,
          "velocity": 0.3937007874015748,
          "duration": 0.008000000000000007
        },
        {
          "name": "D#2",
          "midi": 39,
          "time": 3.254999999999993,
          "velocity": 0.4015748031496063,
          "duration": 0.017999999999999794
        },
        {
          "name": "E7",
          "midi": 100,
          "time": 3.254999999999993,
          "velocity": 0.3937007874015748,
          "duration": 0.008000000000000007
        },
        {
          "name": "D#5",
          "midi": 75,
          "time": 3.2849999999999926,
          "velocity": 0.4015748031496063,
          "duration": 0.04699999999999971
        },
        {
          "name": "D#5",
          "midi": 75,
          "time": 3.2849999999999926,
          "velocity": 0.4015748031496063,
          "duration": 0.04699999999999971
        },
        {
          "name": "E7",
          "midi": 100,
          "time": 3.2949999999999924,
          "velocity": 0.4015748031496063,
          "duration": 0.09699999999999953
        },
        {
          "name": "D5",
          "midi": 74,
          "time": 3.2949999999999924,
          "velocity": 0.4015748031496063,
          "duration": 0.017999999999999794
        },
        {
          "name": "E7",
          "midi": 100,
          "time": 3.2949999999999924,
          "velocity": 0.4015748031496063,
          "duration": 0.09699999999999953
        },
        {
          "name": "D5",
          "midi": 74,
          "time": 3.2949999999999924,
          "velocity": 0.4015748031496063,
          "duration": 0.017999999999999794
        },
        {
          "name": "G#3",
          "midi": 56,
          "time": 3.3239999999999923,
          "velocity": 0.3937007874015748,
          "duration": 0.017999999999999794
        },
        {
          "name": "G#3",
          "midi": 56,
          "time": 3.3239999999999923,
          "velocity": 0.3937007874015748,
          "duration": 0.017999999999999794
        },
        {
          "name": "D5",
          "midi": 74,
          "time": 3.353999999999992,
          "velocity": 0.4015748031496063,
          "duration": 0.07699999999999951
        },
        {
          "name": "D5",
          "midi": 74,
          "time": 3.353999999999992,
          "velocity": 0.4015748031496063,
          "duration": 0.07699999999999951
        },
        {
          "name": "D#2",
          "midi": 39,
          "time": 3.363999999999992,
          "velocity": 0.3937007874015748,
          "duration": 0.008000000000000007
        },
        {
          "name": "D#2",
          "midi": 39,
          "time": 3.363999999999992,
          "velocity": 0.3937007874015748,
          "duration": 0.008000000000000007
        },
        {
          "name": "F#5",
          "midi": 78,
          "time": 3.392999999999992,
          "velocity": 0.3937007874015748,
          "duration": 0.017999999999999794
        },
        {
          "name": "F#5",
          "midi": 78,
          "time": 3.392999999999992,
          "velocity": 0.3937007874015748,
          "duration": 0.017999999999999794
        },
        {
          "name": "D#5",
          "midi": 75,
          "time": 3.4429999999999916,
          "velocity": 0.4094488188976378,
          "duration": 0.02799999999999958
        },
        {
          "name": "F5",
          "midi": 77,
          "time": 3.4429999999999916,
          "velocity": 0.4015748031496063,
          "duration": 0.017999999999999794
        },
        {
          "name": "D#5",
          "midi": 75,
          "time": 3.4429999999999916,
          "velocity": 0.4094488188976378,
          "duration": 0.02799999999999958
        },
        {
          "name": "F5",
          "midi": 77,
          "time": 3.4429999999999916,
          "velocity": 0.4015748031496063,
          "duration": 0.017999999999999794
        },
        {
          "name": "E7",
          "midi": 100,
          "time": 3.471999999999991,
          "velocity": 0.4015748031496063,
          "duration": 0.11599999999999921
        },
        {
          "name": "B6",
          "midi": 95,
          "time": 3.471999999999991,
          "velocity": 0.4094488188976378,
          "duration": 0.10699999999999932
        },
        {
          "name": "E7",
          "midi": 100,
          "time": 3.471999999999991,
          "velocity": 0.4015748031496063,
          "duration": 0.11599999999999921
        },
        {
          "name": "B6",
          "midi": 95,
          "time": 3.471999999999991,
          "velocity": 0.4094488188976378,
          "duration": 0.10699999999999932
        },
        {
          "name": "D#5",
          "midi": 75,
          "time": 3.4919999999999907,
          "velocity": 0.4015748031496063,
          "duration": 0.008000000000000007
        },
        {
          "name": "D#5",
          "midi": 75,
          "time": 3.4919999999999907,
          "velocity": 0.4015748031496063,
          "duration": 0.008000000000000007
        },
        {
          "name": "E2",
          "midi": 40,
          "time": 3.5019999999999905,
          "velocity": 0.4015748031496063,
          "duration": 0.008000000000000007
        },
        {
          "name": "E2",
          "midi": 40,
          "time": 3.5019999999999905,
          "velocity": 0.4015748031496063,
          "duration": 0.008000000000000007
        },
        {
          "name": "B6",
          "midi": 95,
          "time": 3.5709999999999904,
          "velocity": 0.4015748031496063,
          "duration": 0.08599999999999897
        },
        {
          "name": "B6",
          "midi": 95,
          "time": 3.5709999999999904,
          "velocity": 0.4015748031496063,
          "duration": 0.08599999999999897
        },
        {
          "name": "F#5",
          "midi": 78,
          "time": 3.58999999999999,
          "velocity": 0.4015748031496063,
          "duration": 0.02799999999999958
        },
        {
          "name": "D5",
          "midi": 74,
          "time": 3.58999999999999,
          "velocity": 0.3937007874015748,
          "duration": 0.017999999999999794
        },
        {
          "name": "F#5",
          "midi": 78,
          "time": 3.58999999999999,
          "velocity": 0.4015748031496063,
          "duration": 0.02799999999999958
        },
        {
          "name": "D5",
          "midi": 74,
          "time": 3.58999999999999,
          "velocity": 0.3937007874015748,
          "duration": 0.017999999999999794
        },
        {
          "name": "F6",
          "midi": 89,
          "time": 3.6099999999999897,
          "velocity": 0.3937007874015748,
          "duration": 0.008000000000000007
        },
        {
          "name": "F6",
          "midi": 89,
          "time": 3.6099999999999897,
          "velocity": 0.3937007874015748,
          "duration": 0.008000000000000007
        },
        {
          "name": "D5",
          "midi": 74,
          "time": 3.6299999999999897,
          "velocity": 0.3937007874015748,
          "duration": 0.008000000000000007
        },
        {
          "name": "D5",
          "midi": 74,
          "time": 3.6299999999999897,
          "velocity": 0.3937007874015748,
          "duration": 0.008000000000000007
        },
        {
          "name": "B6",
          "midi": 95,
          "time": 3.6399999999999895,
          "velocity": 0.41732283464566927,
          "duration": 0.10599999999999898
        },
        {
          "name": "B6",
          "midi": 95,
          "time": 3.6399999999999895,
          "velocity": 0.41732283464566927,
          "duration": 0.10599999999999898
        },
        {
          "name": "E6",
          "midi": 88,
          "time": 3.6599999999999895,
          "velocity": 0.47244094488188976,
          "duration": 1.0729999999999924
        },
        {
          "name": "E6",
          "midi": 88,
          "time": 3.6599999999999895,
          "velocity": 0.47244094488188976,
          "duration": 1.0729999999999924
        },
        {
          "name": "E7",
          "midi": 100,
          "time": 3.6689999999999894,
          "velocity": 0.4015748031496063,
          "duration": 0.056999999999999496
        },
        {
          "name": "E7",
          "midi": 100,
          "time": 3.6689999999999894,
          "velocity": 0.4015748031496063,
          "duration": 0.056999999999999496
        },
        {
          "name": "F#5",
          "midi": 78,
          "time": 3.698999999999989,
          "velocity": 0.3937007874015748,
          "duration": 0.02799999999999958
        },
        {
          "name": "D5",
          "midi": 74,
          "time": 3.698999999999989,
          "velocity": 0.3937007874015748,
          "duration": 0.017999999999999794
        },
        {
          "name": "F#5",
          "midi": 78,
          "time": 3.698999999999989,
          "velocity": 0.3937007874015748,
          "duration": 0.02799999999999958
        },
        {
          "name": "D5",
          "midi": 74,
          "time": 3.698999999999989,
          "velocity": 0.3937007874015748,
          "duration": 0.017999999999999794
        },
        {
          "name": "F6",
          "midi": 89,
          "time": 3.7289999999999885,
          "velocity": 0.4015748031496063,
          "duration": 0.008000000000000007
        },
        {
          "name": "F6",
          "midi": 89,
          "time": 3.7289999999999885,
          "velocity": 0.4015748031496063,
          "duration": 0.008000000000000007
        },
        {
          "name": "B6",
          "midi": 95,
          "time": 3.7379999999999884,
          "velocity": 0.4015748031496063,
          "duration": 0.16599999999999948
        },
        {
          "name": "B6",
          "midi": 95,
          "time": 3.7379999999999884,
          "velocity": 0.4015748031496063,
          "duration": 0.16599999999999948
        },
        {
          "name": "F#5",
          "midi": 78,
          "time": 3.7479999999999882,
          "velocity": 0.4015748031496063,
          "duration": 0.03699999999999948
        },
        {
          "name": "E7",
          "midi": 100,
          "time": 3.7479999999999882,
          "velocity": 0.4015748031496063,
          "duration": 0.008000000000000007
        },
        {
          "name": "F#5",
          "midi": 78,
          "time": 3.7479999999999882,
          "velocity": 0.4015748031496063,
          "duration": 0.03699999999999948
        },
        {
          "name": "E7",
          "midi": 100,
          "time": 3.7479999999999882,
          "velocity": 0.4015748031496063,
          "duration": 0.008000000000000007
        },
        {
          "name": "D#5",
          "midi": 75,
          "time": 3.757999999999988,
          "velocity": 0.4015748031496063,
          "duration": 0.03699999999999992
        },
        {
          "name": "D#5",
          "midi": 75,
          "time": 3.757999999999988,
          "velocity": 0.4015748031496063,
          "duration": 0.03699999999999992
        },
        {
          "name": "D5",
          "midi": 74,
          "time": 3.767999999999988,
          "velocity": 0.3937007874015748,
          "duration": 0.008000000000000007
        },
        {
          "name": "D5",
          "midi": 74,
          "time": 3.767999999999988,
          "velocity": 0.3937007874015748,
          "duration": 0.008000000000000007
        },
        {
          "name": "C4",
          "midi": 60,
          "time": 3.787999999999988,
          "velocity": 0.4094488188976378,
          "duration": 0.07699999999999996
        },
        {
          "name": "C4",
          "midi": 60,
          "time": 3.787999999999988,
          "velocity": 0.4094488188976378,
          "duration": 0.07699999999999996
        },
        {
          "name": "F3",
          "midi": 53,
          "time": 3.797999999999988,
          "velocity": 0.4015748031496063,
          "duration": 0.017999999999999794
        },
        {
          "name": "F3",
          "midi": 53,
          "time": 3.797999999999988,
          "velocity": 0.4015748031496063,
          "duration": 0.017999999999999794
        },
        {
          "name": "E7",
          "midi": 100,
          "time": 3.8169999999999877,
          "velocity": 0.4015748031496063,
          "duration": 0.274
        },
        {
          "name": "E7",
          "midi": 100,
          "time": 3.8169999999999877,
          "velocity": 0.4015748031496063,
          "duration": 0.274
        },
        {
          "name": "F6",
          "midi": 89,
          "time": 3.876999999999988,
          "velocity": 0.4015748031496063,
          "duration": 0.008000000000000007
        },
        {
          "name": "F6",
          "midi": 89,
          "time": 3.876999999999988,
          "velocity": 0.4015748031496063,
          "duration": 0.008000000000000007
        },
        {
          "name": "B6",
          "midi": 95,
          "time": 3.895999999999988,
          "velocity": 0.4015748031496063,
          "duration": 0.15599999999999925
        },
        {
          "name": "D#5",
          "midi": 75,
          "time": 3.895999999999988,
          "velocity": 0.4015748031496063,
          "duration": 0.04700000000000015
        },
        {
          "name": "B6",
          "midi": 95,
          "time": 3.895999999999988,
          "velocity": 0.4015748031496063,
          "duration": 0.15599999999999925
        },
        {
          "name": "D#5",
          "midi": 75,
          "time": 3.895999999999988,
          "velocity": 0.4015748031496063,
          "duration": 0.04700000000000015
        },
        {
          "name": "D#6",
          "midi": 87,
          "time": 3.915999999999988,
          "velocity": 0.3937007874015748,
          "duration": 0.008000000000000007
        },
        {
          "name": "D#6",
          "midi": 87,
          "time": 3.915999999999988,
          "velocity": 0.3937007874015748,
          "duration": 0.008000000000000007
        },
        {
          "name": "D5",
          "midi": 74,
          "time": 3.945999999999988,
          "velocity": 0.3937007874015748,
          "duration": 0.028000000000000025
        },
        {
          "name": "D5",
          "midi": 74,
          "time": 3.945999999999988,
          "velocity": 0.3937007874015748,
          "duration": 0.028000000000000025
        },
        {
          "name": "D2",
          "midi": 38,
          "time": 3.994999999999988,
          "velocity": 0.4015748031496063,
          "duration": 0.007999999999999563
        },
        {
          "name": "D2",
          "midi": 38,
          "time": 3.994999999999988,
          "velocity": 0.4015748031496063,
          "duration": 0.007999999999999563
        },
        {
          "name": "C#2",
          "midi": 37,
          "time": 4.014999999999987,
          "velocity": 0.3937007874015748,
          "duration": 0.008000000000000007
        },
        {
          "name": "E5",
          "midi": 76,
          "time": 4.014999999999987,
          "velocity": 0.4330708661417323,
          "duration": 0.8259999999999943
        },
        {
          "name": "C#2",
          "midi": 37,
          "time": 4.014999999999987,
          "velocity": 0.3937007874015748,
          "duration": 0.008000000000000007
        },
        {
          "name": "E5",
          "midi": 76,
          "time": 4.014999999999987,
          "velocity": 0.4330708661417323,
          "duration": 0.8259999999999943
        },
        {
          "name": "B6",
          "midi": 95,
          "time": 4.043999999999987,
          "velocity": 0.3937007874015748,
          "duration": 0.038000000000000256
        },
        {
          "name": "B6",
          "midi": 95,
          "time": 4.043999999999987,
          "velocity": 0.3937007874015748,
          "duration": 0.038000000000000256
        },
        {
          "name": "D5",
          "midi": 74,
          "time": 4.073999999999987,
          "velocity": 0.4015748031496063,
          "duration": 0.07699999999999996
        },
        {
          "name": "B6",
          "midi": 95,
          "time": 4.073999999999987,
          "velocity": 0.4015748031496063,
          "duration": 0.08699999999999974
        },
        {
          "name": "D5",
          "midi": 74,
          "time": 4.073999999999987,
          "velocity": 0.4015748031496063,
          "duration": 0.07699999999999996
        },
        {
          "name": "B6",
          "midi": 95,
          "time": 4.073999999999987,
          "velocity": 0.4015748031496063,
          "duration": 0.08699999999999974
        },
        {
          "name": "D#2",
          "midi": 39,
          "time": 4.102999999999987,
          "velocity": 0.4015748031496063,
          "duration": 0.03699999999999992
        },
        {
          "name": "D#2",
          "midi": 39,
          "time": 4.102999999999987,
          "velocity": 0.4015748031496063,
          "duration": 0.03699999999999992
        },
        {
          "name": "F5",
          "midi": 77,
          "time": 4.112999999999987,
          "velocity": 0.4015748031496063,
          "duration": 0.008000000000000007
        },
        {
          "name": "F5",
          "midi": 77,
          "time": 4.112999999999987,
          "velocity": 0.4015748031496063,
          "duration": 0.008000000000000007
        },
        {
          "name": "B6",
          "midi": 95,
          "time": 4.152999999999987,
          "velocity": 0.4015748031496063,
          "duration": 0.17599999999999838
        },
        {
          "name": "E7",
          "midi": 100,
          "time": 4.152999999999987,
          "velocity": 0.4015748031496063,
          "duration": 0.08699999999999974
        },
        {
          "name": "B6",
          "midi": 95,
          "time": 4.152999999999987,
          "velocity": 0.4015748031496063,
          "duration": 0.17599999999999838
        },
        {
          "name": "E7",
          "midi": 100,
          "time": 4.152999999999987,
          "velocity": 0.4015748031496063,
          "duration": 0.08699999999999974
        },
        {
          "name": "G#3",
          "midi": 56,
          "time": 4.181999999999987,
          "velocity": 0.3937007874015748,
          "duration": 0.008000000000000007
        },
        {
          "name": "G#3",
          "midi": 56,
          "time": 4.181999999999987,
          "velocity": 0.3937007874015748,
          "duration": 0.008000000000000007
        },
        {
          "name": "D#2",
          "midi": 39,
          "time": 4.211999999999987,
          "velocity": 0.3937007874015748,
          "duration": 0.008000000000000007
        },
        {
          "name": "D#2",
          "midi": 39,
          "time": 4.211999999999987,
          "velocity": 0.3937007874015748,
          "duration": 0.008000000000000007
        },
        {
          "name": "D5",
          "midi": 74,
          "time": 4.221999999999987,
          "velocity": 0.4015748031496063,
          "duration": 0.09699999999999864
        },
        {
          "name": "D5",
          "midi": 74,
          "time": 4.221999999999987,
          "velocity": 0.4015748031496063,
          "duration": 0.09699999999999864
        },
        {
          "name": "F6",
          "midi": 89,
          "time": 4.240999999999987,
          "velocity": 0.4015748031496063,
          "duration": 0.008000000000000007
        },
        {
          "name": "F6",
          "midi": 89,
          "time": 4.240999999999987,
          "velocity": 0.4015748031496063,
          "duration": 0.008000000000000007
        },
        {
          "name": "F#5",
          "midi": 78,
          "time": 4.250999999999987,
          "velocity": 0.3937007874015748,
          "duration": 0.017999999999999794
        },
        {
          "name": "F#5",
          "midi": 78,
          "time": 4.250999999999987,
          "velocity": 0.3937007874015748,
          "duration": 0.017999999999999794
        },
        {
          "name": "F6",
          "midi": 89,
          "time": 4.280999999999986,
          "velocity": 0.4015748031496063,
          "duration": 0.008000000000000007
        },
        {
          "name": "F6",
          "midi": 89,
          "time": 4.280999999999986,
          "velocity": 0.4015748031496063,
          "duration": 0.008000000000000007
        },
        {
          "name": "B6",
          "midi": 95,
          "time": 4.300999999999986,
          "velocity": 0.4015748031496063,
          "duration": 0.09600000000000009
        },
        {
          "name": "B6",
          "midi": 95,
          "time": 4.300999999999986,
          "velocity": 0.4015748031496063,
          "duration": 0.09600000000000009
        },
        {
          "name": "E7",
          "midi": 100,
          "time": 4.329999999999986,
          "velocity": 0.4015748031496063,
          "duration": 0.04699999999999971
        },
        {
          "name": "E7",
          "midi": 100,
          "time": 4.329999999999986,
          "velocity": 0.4015748031496063,
          "duration": 0.04699999999999971
        },
        {
          "name": "D#2",
          "midi": 39,
          "time": 4.339999999999986,
          "velocity": 0.4015748031496063,
          "duration": 0.03699999999999992
        },
        {
          "name": "D#2",
          "midi": 39,
          "time": 4.339999999999986,
          "velocity": 0.4015748031496063,
          "duration": 0.03699999999999992
        },
        {
          "name": "D5",
          "midi": 74,
          "time": 4.359999999999985,
          "velocity": 0.3937007874015748,
          "duration": 0.018000000000000682
        },
        {
          "name": "D5",
          "midi": 74,
          "time": 4.359999999999985,
          "velocity": 0.3937007874015748,
          "duration": 0.018000000000000682
        },
        {
          "name": "B6",
          "midi": 95,
          "time": 4.388999999999986,
          "velocity": 0.4015748031496063,
          "duration": 0.15599999999999792
        },
        {
          "name": "B6",
          "midi": 95,
          "time": 4.388999999999986,
          "velocity": 0.4015748031496063,
          "duration": 0.15599999999999792
        },
        {
          "name": "E7",
          "midi": 100,
          "time": 4.398999999999986,
          "velocity": 0.3937007874015748,
          "duration": 0.008000000000000007
        },
        {
          "name": "E7",
          "midi": 100,
          "time": 4.398999999999986,
          "velocity": 0.3937007874015748,
          "duration": 0.008000000000000007
        },
        {
          "name": "A#2",
          "midi": 46,
          "time": 4.418999999999985,
          "velocity": 0.3937007874015748,
          "duration": 0.017999999999999794
        },
        {
          "name": "F6",
          "midi": 89,
          "time": 4.418999999999985,
          "velocity": 0.4015748031496063,
          "duration": 0.008000000000000007
        },
        {
          "name": "A#2",
          "midi": 46,
          "time": 4.418999999999985,
          "velocity": 0.3937007874015748,
          "duration": 0.017999999999999794
        },
        {
          "name": "F6",
          "midi": 89,
          "time": 4.418999999999985,
          "velocity": 0.4015748031496063,
          "duration": 0.008000000000000007
        },
        {
          "name": "D#2",
          "midi": 39,
          "time": 4.438999999999985,
          "velocity": 0.3937007874015748,
          "duration": 0.008000000000000007
        },
        {
          "name": "D#2",
          "midi": 39,
          "time": 4.438999999999985,
          "velocity": 0.3937007874015748,
          "duration": 0.008000000000000007
        },
        {
          "name": "D5",
          "midi": 74,
          "time": 4.4589999999999845,
          "velocity": 0.3937007874015748,
          "duration": 0.02799999999999958
        },
        {
          "name": "D2",
          "midi": 38,
          "time": 4.4589999999999845,
          "velocity": 0.3937007874015748,
          "duration": 0.017999999999999794
        },
        {
          "name": "F5",
          "midi": 77,
          "time": 4.4589999999999845,
          "velocity": 0.4015748031496063,
          "duration": 0.008000000000000007
        },
        {
          "name": "D5",
          "midi": 74,
          "time": 4.4589999999999845,
          "velocity": 0.3937007874015748,
          "duration": 0.02799999999999958
        },
        {
          "name": "D2",
          "midi": 38,
          "time": 4.4589999999999845,
          "velocity": 0.3937007874015748,
          "duration": 0.017999999999999794
        },
        {
          "name": "F5",
          "midi": 77,
          "time": 4.4589999999999845,
          "velocity": 0.4015748031496063,
          "duration": 0.008000000000000007
        },
        {
          "name": "D2",
          "midi": 38,
          "time": 4.4879999999999844,
          "velocity": 0.3937007874015748,
          "duration": 0.008000000000000007
        },
        {
          "name": "D2",
          "midi": 38,
          "time": 4.4879999999999844,
          "velocity": 0.3937007874015748,
          "duration": 0.008000000000000007
        },
        {
          "name": "C#3",
          "midi": 49,
          "time": 4.497999999999984,
          "velocity": 0.3937007874015748,
          "duration": 0.008000000000000007
        },
        {
          "name": "C#3",
          "midi": 49,
          "time": 4.497999999999984,
          "velocity": 0.3937007874015748,
          "duration": 0.008000000000000007
        },
        {
          "name": "D2",
          "midi": 38,
          "time": 4.507999999999984,
          "velocity": 0.3937007874015748,
          "duration": 0.008000000000000007
        },
        {
          "name": "D5",
          "midi": 74,
          "time": 4.507999999999984,
          "velocity": 0.3937007874015748,
          "duration": 0.056999999999999496
        },
        {
          "name": "D2",
          "midi": 38,
          "time": 4.507999999999984,
          "velocity": 0.3937007874015748,
          "duration": 0.008000000000000007
        },
        {
          "name": "D5",
          "midi": 74,
          "time": 4.507999999999984,
          "velocity": 0.3937007874015748,
          "duration": 0.056999999999999496
        },
        {
          "name": "C3",
          "midi": 48,
          "time": 4.517999999999984,
          "velocity": 0.3937007874015748,
          "duration": 0.008000000000000007
        },
        {
          "name": "C3",
          "midi": 48,
          "time": 4.517999999999984,
          "velocity": 0.3937007874015748,
          "duration": 0.008000000000000007
        },
        {
          "name": "F#5",
          "midi": 78,
          "time": 4.536999999999984,
          "velocity": 0.3937007874015748,
          "duration": 0.017999999999999794
        },
        {
          "name": "F#5",
          "midi": 78,
          "time": 4.536999999999984,
          "velocity": 0.3937007874015748,
          "duration": 0.017999999999999794
        },
        {
          "name": "B2",
          "midi": 47,
          "time": 4.5569999999999835,
          "velocity": 0.3937007874015748,
          "duration": 0.008000000000000007
        },
        {
          "name": "B2",
          "midi": 47,
          "time": 4.5569999999999835,
          "velocity": 0.3937007874015748,
          "duration": 0.008000000000000007
        },
        {
          "name": "D#5",
          "midi": 75,
          "time": 4.566999999999983,
          "velocity": 0.3937007874015748,
          "duration": 0.008000000000000007
        },
        {
          "name": "D2",
          "midi": 38,
          "time": 4.566999999999983,
          "velocity": 0.3937007874015748,
          "duration": 0.017999999999999794
        },
        {
          "name": "D#5",
          "midi": 75,
          "time": 4.566999999999983,
          "velocity": 0.3937007874015748,
          "duration": 0.008000000000000007
        },
        {
          "name": "D2",
          "midi": 38,
          "time": 4.566999999999983,
          "velocity": 0.3937007874015748,
          "duration": 0.017999999999999794
        },
        {
          "name": "C3",
          "midi": 48,
          "time": 4.576999999999983,
          "velocity": 0.3937007874015748,
          "duration": 0.017999999999999794
        },
        {
          "name": "C3",
          "midi": 48,
          "time": 4.576999999999983,
          "velocity": 0.3937007874015748,
          "duration": 0.017999999999999794
        },
        {
          "name": "B6",
          "midi": 95,
          "time": 4.586999999999983,
          "velocity": 0.3937007874015748,
          "duration": 0.03699999999999992
        },
        {
          "name": "B6",
          "midi": 95,
          "time": 4.586999999999983,
          "velocity": 0.3937007874015748,
          "duration": 0.03699999999999992
        },
        {
          "name": "C#2",
          "midi": 37,
          "time": 4.596999999999983,
          "velocity": 0.3937007874015748,
          "duration": 0.008000000000000007
        },
        {
          "name": "D#5",
          "midi": 75,
          "time": 4.596999999999983,
          "velocity": 0.4015748031496063,
          "duration": 0.02800000000000047
        },
        {
          "name": "C#2",
          "midi": 37,
          "time": 4.596999999999983,
          "velocity": 0.3937007874015748,
          "duration": 0.008000000000000007
        },
        {
          "name": "D#5",
          "midi": 75,
          "time": 4.596999999999983,
          "velocity": 0.4015748031496063,
          "duration": 0.02800000000000047
        },
        {
          "name": "F#5",
          "midi": 78,
          "time": 4.605999999999983,
          "velocity": 0.3937007874015748,
          "duration": 0.008000000000000007
        },
        {
          "name": "F#5",
          "midi": 78,
          "time": 4.605999999999983,
          "velocity": 0.3937007874015748,
          "duration": 0.008000000000000007
        },
        {
          "name": "C4",
          "midi": 60,
          "time": 4.6259999999999835,
          "velocity": 0.48031496062992124,
          "duration": 0.549999999999998
        },
        {
          "name": "C4",
          "midi": 60,
          "time": 4.6259999999999835,
          "velocity": 0.48031496062992124,
          "duration": 0.549999999999998
        },
        {
          "name": "F5",
          "midi": 77,
          "time": 4.635999999999983,
          "velocity": 0.3937007874015748,
          "duration": 0.017999999999999794
        },
        {
          "name": "F3",
          "midi": 53,
          "time": 4.635999999999983,
          "velocity": 0.4015748031496063,
          "duration": 0.056999999999999496
        },
        {
          "name": "F5",
          "midi": 77,
          "time": 4.635999999999983,
          "velocity": 0.3937007874015748,
          "duration": 0.017999999999999794
        },
        {
          "name": "F3",
          "midi": 53,
          "time": 4.635999999999983,
          "velocity": 0.4015748031496063,
          "duration": 0.056999999999999496
        },
        {
          "name": "B2",
          "midi": 47,
          "time": 4.665999999999983,
          "velocity": 0.4015748031496063,
          "duration": 0.04699999999999971
        },
        {
          "name": "G5",
          "midi": 79,
          "time": 4.665999999999983,
          "velocity": 0.4015748031496063,
          "duration": 0.1559999999999988
        },
        {
          "name": "B2",
          "midi": 47,
          "time": 4.665999999999983,
          "velocity": 0.4015748031496063,
          "duration": 0.04699999999999971
        },
        {
          "name": "G5",
          "midi": 79,
          "time": 4.665999999999983,
          "velocity": 0.4015748031496063,
          "duration": 0.1559999999999988
        },
        {
          "name": "A3",
          "midi": 57,
          "time": 4.714999999999982,
          "velocity": 0.3937007874015748,
          "duration": 0.017999999999999794
        },
        {
          "name": "A3",
          "midi": 57,
          "time": 4.714999999999982,
          "velocity": 0.3937007874015748,
          "duration": 0.017999999999999794
        },
        {
          "name": "C3",
          "midi": 48,
          "time": 4.724999999999982,
          "velocity": 0.4015748031496063,
          "duration": 0.02799999999999958
        },
        {
          "name": "C3",
          "midi": 48,
          "time": 4.724999999999982,
          "velocity": 0.4015748031496063,
          "duration": 0.02799999999999958
        },
        {
          "name": "G4",
          "midi": 67,
          "time": 4.753999999999982,
          "velocity": 0.41732283464566927,
          "duration": 0.16599999999999948
        },
        {
          "name": "G3",
          "midi": 55,
          "time": 4.753999999999982,
          "velocity": 0.5590551181102362,
          "duration": 0.8069999999999986
        },
        {
          "name": "G4",
          "midi": 67,
          "time": 4.753999999999982,
          "velocity": 0.41732283464566927,
          "duration": 0.16599999999999948
        },
        {
          "name": "G3",
          "midi": 55,
          "time": 4.753999999999982,
          "velocity": 0.5590551181102362,
          "duration": 0.8069999999999986
        },
        {
          "name": "B2",
          "midi": 47,
          "time": 4.773999999999981,
          "velocity": 0.4094488188976378,
          "duration": 0.057000000000000384
        },
        {
          "name": "B2",
          "midi": 47,
          "time": 4.773999999999981,
          "velocity": 0.4094488188976378,
          "duration": 0.057000000000000384
        },
        {
          "name": "E7",
          "midi": 100,
          "time": 4.8329999999999815,
          "velocity": 0.4330708661417323,
          "duration": 0.12599999999999945
        },
        {
          "name": "E7",
          "midi": 100,
          "time": 4.8329999999999815,
          "velocity": 0.4330708661417323,
          "duration": 0.12599999999999945
        },
        {
          "name": "C3",
          "midi": 48,
          "time": 4.842999999999981,
          "velocity": 0.4251968503937008,
          "duration": 0.04699999999999971
        },
        {
          "name": "C3",
          "midi": 48,
          "time": 4.842999999999981,
          "velocity": 0.4251968503937008,
          "duration": 0.04699999999999971
        },
        {
          "name": "E6",
          "midi": 88,
          "time": 4.862999999999981,
          "velocity": 0.41732283464566927,
          "duration": 0.008000000000000007
        },
        {
          "name": "E6",
          "midi": 88,
          "time": 4.862999999999981,
          "velocity": 0.41732283464566927,
          "duration": 0.008000000000000007
        },
        {
          "name": "E6",
          "midi": 88,
          "time": 4.892999999999981,
          "velocity": 0.4094488188976378,
          "duration": 0.008000000000000007
        },
        {
          "name": "E6",
          "midi": 88,
          "time": 4.892999999999981,
          "velocity": 0.4094488188976378,
          "duration": 0.008000000000000007
        },
        {
          "name": "B2",
          "midi": 47,
          "time": 4.921999999999981,
          "velocity": 0.44881889763779526,
          "duration": 0.1070000000000002
        },
        {
          "name": "E4",
          "midi": 64,
          "time": 4.921999999999981,
          "velocity": 0.5433070866141733,
          "duration": 0.2350000000000012
        },
        {
          "name": "B2",
          "midi": 47,
          "time": 4.921999999999981,
          "velocity": 0.44881889763779526,
          "duration": 0.1070000000000002
        },
        {
          "name": "E4",
          "midi": 64,
          "time": 4.921999999999981,
          "velocity": 0.5433070866141733,
          "duration": 0.2350000000000012
        },
        {
          "name": "E3",
          "midi": 52,
          "time": 4.931999999999981,
          "velocity": 0.4409448818897638,
          "duration": 0.017999999999999794
        },
        {
          "name": "E3",
          "midi": 52,
          "time": 4.931999999999981,
          "velocity": 0.4409448818897638,
          "duration": 0.017999999999999794
        },
        {
          "name": "B5",
          "midi": 83,
          "time": 4.961999999999981,
          "velocity": 0.4409448818897638,
          "duration": 0.02800000000000047
        },
        {
          "name": "B5",
          "midi": 83,
          "time": 4.961999999999981,
          "velocity": 0.4409448818897638,
          "duration": 0.02800000000000047
        },
        {
          "name": "E3",
          "midi": 52,
          "time": 4.970999999999981,
          "velocity": 0.4566929133858268,
          "duration": 0.008000000000000007
        },
        {
          "name": "E3",
          "midi": 52,
          "time": 4.970999999999981,
          "velocity": 0.4566929133858268,
          "duration": 0.008000000000000007
        },
        {
          "name": "F7",
          "midi": 101,
          "time": 4.990999999999982,
          "velocity": 0.4409448818897638,
          "duration": 0.008000000000000007
        },
        {
          "name": "F7",
          "midi": 101,
          "time": 4.990999999999982,
          "velocity": 0.4409448818897638,
          "duration": 0.008000000000000007
        },
        {
          "name": "G4",
          "midi": 67,
          "time": 5.000999999999982,
          "velocity": 0.6692913385826772,
          "duration": 0.5999999999999979
        },
        {
          "name": "G4",
          "midi": 67,
          "time": 5.000999999999982,
          "velocity": 0.6692913385826772,
          "duration": 0.5999999999999979
        },
        {
          "name": "E5",
          "midi": 76,
          "time": 5.020999999999981,
          "velocity": 0.44881889763779526,
          "duration": 0.057000000000000384
        },
        {
          "name": "E5",
          "midi": 76,
          "time": 5.020999999999981,
          "velocity": 0.44881889763779526,
          "duration": 0.057000000000000384
        },
        {
          "name": "E7",
          "midi": 100,
          "time": 5.039999999999981,
          "velocity": 0.4645669291338583,
          "duration": 0.057000000000000384
        },
        {
          "name": "E7",
          "midi": 100,
          "time": 5.039999999999981,
          "velocity": 0.4645669291338583,
          "duration": 0.057000000000000384
        },
        {
          "name": "E5",
          "midi": 76,
          "time": 5.099999999999982,
          "velocity": 0.48031496062992124,
          "duration": 0.02800000000000047
        },
        {
          "name": "E5",
          "midi": 76,
          "time": 5.099999999999982,
          "velocity": 0.48031496062992124,
          "duration": 0.02800000000000047
        },
        {
          "name": "E3",
          "midi": 52,
          "time": 5.118999999999982,
          "velocity": 0.5196850393700787,
          "duration": 0.24499999999999833
        },
        {
          "name": "E3",
          "midi": 52,
          "time": 5.118999999999982,
          "velocity": 0.5196850393700787,
          "duration": 0.24499999999999833
        },
        {
          "name": "F7",
          "midi": 101,
          "time": 5.1389999999999825,
          "velocity": 0.5039370078740157,
          "duration": 0.08699999999999886
        },
        {
          "name": "F7",
          "midi": 101,
          "time": 5.1389999999999825,
          "velocity": 0.5039370078740157,
          "duration": 0.08699999999999886
        },
        {
          "name": "C3",
          "midi": 48,
          "time": 5.168999999999982,
          "velocity": 0.47244094488188976,
          "duration": 0.04699999999999971
        },
        {
          "name": "C3",
          "midi": 48,
          "time": 5.168999999999982,
          "velocity": 0.47244094488188976,
          "duration": 0.04699999999999971
        },
        {
          "name": "C4",
          "midi": 60,
          "time": 5.197999999999982,
          "velocity": 0.4566929133858268,
          "duration": 0.008000000000000007
        },
        {
          "name": "C4",
          "midi": 60,
          "time": 5.197999999999982,
          "velocity": 0.4566929133858268,
          "duration": 0.008000000000000007
        },
        {
          "name": "E7",
          "midi": 100,
          "time": 5.217999999999981,
          "velocity": 0.5196850393700787,
          "duration": 0.056999999999999496
        },
        {
          "name": "E7",
          "midi": 100,
          "time": 5.217999999999981,
          "velocity": 0.5196850393700787,
          "duration": 0.056999999999999496
        },
        {
          "name": "B2",
          "midi": 47,
          "time": 5.227999999999981,
          "velocity": 0.49606299212598426,
          "duration": 0.03699999999999992
        },
        {
          "name": "B2",
          "midi": 47,
          "time": 5.227999999999981,
          "velocity": 0.49606299212598426,
          "duration": 0.03699999999999992
        },
        {
          "name": "E4",
          "midi": 64,
          "time": 5.237999999999981,
          "velocity": 0.47244094488188976,
          "duration": 0.008000000000000007
        },
        {
          "name": "E4",
          "midi": 64,
          "time": 5.237999999999981,
          "velocity": 0.47244094488188976,
          "duration": 0.008000000000000007
        },
        {
          "name": "E6",
          "midi": 88,
          "time": 5.256999999999981,
          "velocity": 0.49606299212598426,
          "duration": 0.008000000000000007
        },
        {
          "name": "E6",
          "midi": 88,
          "time": 5.256999999999981,
          "velocity": 0.49606299212598426,
          "duration": 0.008000000000000007
        },
        {
          "name": "E5",
          "midi": 76,
          "time": 5.276999999999981,
          "velocity": 0.5511811023622047,
          "duration": 0.13600000000000012
        },
        {
          "name": "E7",
          "midi": 100,
          "time": 5.276999999999981,
          "velocity": 0.5354330708661418,
          "duration": 0.2160000000000002
        },
        {
          "name": "E5",
          "midi": 76,
          "time": 5.276999999999981,
          "velocity": 0.5511811023622047,
          "duration": 0.13600000000000012
        },
        {
          "name": "E7",
          "midi": 100,
          "time": 5.276999999999981,
          "velocity": 0.5354330708661418,
          "duration": 0.2160000000000002
        },
        {
          "name": "C3",
          "midi": 48,
          "time": 5.28699999999998,
          "velocity": 0.5196850393700787,
          "duration": 0.1070000000000002
        },
        {
          "name": "C3",
          "midi": 48,
          "time": 5.28699999999998,
          "velocity": 0.5196850393700787,
          "duration": 0.1070000000000002
        },
        {
          "name": "E3",
          "midi": 52,
          "time": 5.39599999999998,
          "velocity": 0.7007874015748031,
          "duration": 1.043999999999989
        },
        {
          "name": "E3",
          "midi": 52,
          "time": 5.39599999999998,
          "velocity": 0.7007874015748031,
          "duration": 1.043999999999989
        },
        {
          "name": "E6",
          "midi": 88,
          "time": 5.404999999999981,
          "velocity": 0.5433070866141733,
          "duration": 0.04699999999999971
        },
        {
          "name": "E6",
          "midi": 88,
          "time": 5.404999999999981,
          "velocity": 0.5433070866141733,
          "duration": 0.04699999999999971
        },
        {
          "name": "E5",
          "midi": 76,
          "time": 5.444999999999981,
          "velocity": 0.5196850393700787,
          "duration": 0.04699999999999971
        },
        {
          "name": "E5",
          "midi": 76,
          "time": 5.444999999999981,
          "velocity": 0.5196850393700787,
          "duration": 0.04699999999999971
        },
        {
          "name": "E7",
          "midi": 100,
          "time": 5.46499999999998,
          "velocity": 0.5118110236220472,
          "duration": 0.09600000000000009
        },
        {
          "name": "E7",
          "midi": 100,
          "time": 5.46499999999998,
          "velocity": 0.5118110236220472,
          "duration": 0.09600000000000009
        },
        {
          "name": "C3",
          "midi": 48,
          "time": 5.503999999999981,
          "velocity": 0.5433070866141733,
          "duration": 0.06699999999999928
        },
        {
          "name": "B6",
          "midi": 95,
          "time": 5.503999999999981,
          "velocity": 0.5354330708661418,
          "duration": 0.008000000000000007
        },
        {
          "name": "C3",
          "midi": 48,
          "time": 5.503999999999981,
          "velocity": 0.5433070866141733,
          "duration": 0.06699999999999928
        },
        {
          "name": "B6",
          "midi": 95,
          "time": 5.503999999999981,
          "velocity": 0.5354330708661418,
          "duration": 0.008000000000000007
        },
        {
          "name": "E7",
          "midi": 100,
          "time": 5.5239999999999805,
          "velocity": 0.5511811023622047,
          "duration": 0.13599999999999834
        },
        {
          "name": "E7",
          "midi": 100,
          "time": 5.5239999999999805,
          "velocity": 0.5511811023622047,
          "duration": 0.13599999999999834
        },
        {
          "name": "E6",
          "midi": 88,
          "time": 5.57299999999998,
          "velocity": 0.5511811023622047,
          "duration": 0.10699999999999843
        },
        {
          "name": "G#7",
          "midi": 104,
          "time": 5.57299999999998,
          "velocity": 0.5511811023622047,
          "duration": 0.04699999999999882
        },
        {
          "name": "E6",
          "midi": 88,
          "time": 5.57299999999998,
          "velocity": 0.5511811023622047,
          "duration": 0.10699999999999843
        },
        {
          "name": "G#7",
          "midi": 104,
          "time": 5.57299999999998,
          "velocity": 0.5511811023622047,
          "duration": 0.04699999999999882
        },
        {
          "name": "G3",
          "midi": 55,
          "time": 5.58299999999998,
          "velocity": 0.5590551181102362,
          "duration": 0.13599999999999834
        },
        {
          "name": "G3",
          "midi": 55,
          "time": 5.58299999999998,
          "velocity": 0.5590551181102362,
          "duration": 0.13599999999999834
        },
        {
          "name": "E5",
          "midi": 76,
          "time": 5.612999999999979,
          "velocity": 0.5196850393700787,
          "duration": 0.008000000000000007
        },
        {
          "name": "E5",
          "midi": 76,
          "time": 5.612999999999979,
          "velocity": 0.5196850393700787,
          "duration": 0.008000000000000007
        },
        {
          "name": "C3",
          "midi": 48,
          "time": 5.631999999999979,
          "velocity": 0.5039370078740157,
          "duration": 0.017999999999999794
        },
        {
          "name": "C3",
          "midi": 48,
          "time": 5.631999999999979,
          "velocity": 0.5039370078740157,
          "duration": 0.017999999999999794
        },
        {
          "name": "E7",
          "midi": 100,
          "time": 5.651999999999979,
          "velocity": 0.5275590551181102,
          "duration": 0.03799999999999937
        },
        {
          "name": "E7",
          "midi": 100,
          "time": 5.651999999999979,
          "velocity": 0.5275590551181102,
          "duration": 0.03799999999999937
        },
        {
          "name": "B6",
          "midi": 95,
          "time": 5.671999999999978,
          "velocity": 0.5748031496062992,
          "duration": 0.04699999999999971
        },
        {
          "name": "B6",
          "midi": 95,
          "time": 5.671999999999978,
          "velocity": 0.5748031496062992,
          "duration": 0.04699999999999971
        },
        {
          "name": "E7",
          "midi": 100,
          "time": 5.681999999999978,
          "velocity": 0.5354330708661418,
          "duration": 0.13599999999999834
        },
        {
          "name": "E7",
          "midi": 100,
          "time": 5.681999999999978,
          "velocity": 0.5354330708661418,
          "duration": 0.13599999999999834
        },
        {
          "name": "G#7",
          "midi": 104,
          "time": 5.6909999999999785,
          "velocity": 0.5275590551181102,
          "duration": 0.10699999999999843
        },
        {
          "name": "G#7",
          "midi": 104,
          "time": 5.6909999999999785,
          "velocity": 0.5275590551181102,
          "duration": 0.10699999999999843
        },
        {
          "name": "E5",
          "midi": 76,
          "time": 5.700999999999978,
          "velocity": 0.5196850393700787,
          "duration": 0.008000000000000007
        },
        {
          "name": "E5",
          "midi": 76,
          "time": 5.700999999999978,
          "velocity": 0.5196850393700787,
          "duration": 0.008000000000000007
        },
        {
          "name": "E6",
          "midi": 88,
          "time": 5.720999999999978,
          "velocity": 0.5275590551181102,
          "duration": 0.008000000000000007
        },
        {
          "name": "E6",
          "midi": 88,
          "time": 5.720999999999978,
          "velocity": 0.5275590551181102,
          "duration": 0.008000000000000007
        },
        {
          "name": "G4",
          "midi": 67,
          "time": 5.730999999999978,
          "velocity": 0.5354330708661418,
          "duration": 0.3139999999999956
        },
        {
          "name": "E5",
          "midi": 76,
          "time": 5.730999999999978,
          "velocity": 0.5118110236220472,
          "duration": 0.008000000000000007
        },
        {
          "name": "G4",
          "midi": 67,
          "time": 5.730999999999978,
          "velocity": 0.5354330708661418,
          "duration": 0.3139999999999956
        },
        {
          "name": "E5",
          "midi": 76,
          "time": 5.730999999999978,
          "velocity": 0.5118110236220472,
          "duration": 0.008000000000000007
        },
        {
          "name": "G3",
          "midi": 55,
          "time": 5.7409999999999775,
          "velocity": 0.5433070866141733,
          "duration": 0.008000000000000007
        },
        {
          "name": "G3",
          "midi": 55,
          "time": 5.7409999999999775,
          "velocity": 0.5433070866141733,
          "duration": 0.008000000000000007
        },
        {
          "name": "B6",
          "midi": 95,
          "time": 5.750999999999977,
          "velocity": 0.49606299212598426,
          "duration": 0.03699999999999992
        },
        {
          "name": "B6",
          "midi": 95,
          "time": 5.750999999999977,
          "velocity": 0.49606299212598426,
          "duration": 0.03699999999999992
        },
        {
          "name": "G3",
          "midi": 55,
          "time": 5.769999999999977,
          "velocity": 0.5433070866141733,
          "duration": 0.008000000000000007
        },
        {
          "name": "G3",
          "midi": 55,
          "time": 5.769999999999977,
          "velocity": 0.5433070866141733,
          "duration": 0.008000000000000007
        },
        {
          "name": "A6",
          "midi": 93,
          "time": 5.789999999999977,
          "velocity": 0.5039370078740157,
          "duration": 0.06699999999999928
        },
        {
          "name": "A6",
          "midi": 93,
          "time": 5.789999999999977,
          "velocity": 0.5039370078740157,
          "duration": 0.06699999999999928
        },
        {
          "name": "C3",
          "midi": 48,
          "time": 5.799999999999977,
          "velocity": 0.5118110236220472,
          "duration": 0.14599999999999724
        },
        {
          "name": "C3",
          "midi": 48,
          "time": 5.799999999999977,
          "velocity": 0.5118110236220472,
          "duration": 0.14599999999999724
        },
        {
          "name": "G3",
          "midi": 55,
          "time": 5.8099999999999765,
          "velocity": 0.5590551181102362,
          "duration": 0.008000000000000007
        },
        {
          "name": "G3",
          "midi": 55,
          "time": 5.8099999999999765,
          "velocity": 0.5590551181102362,
          "duration": 0.008000000000000007
        },
        {
          "name": "D7",
          "midi": 98,
          "time": 5.829999999999976,
          "velocity": 0.5511811023622047,
          "duration": 0.15599999999999703
        },
        {
          "name": "D7",
          "midi": 98,
          "time": 5.829999999999976,
          "velocity": 0.5511811023622047,
          "duration": 0.15599999999999703
        },
        {
          "name": "G3",
          "midi": 55,
          "time": 5.838999999999976,
          "velocity": 0.5590551181102362,
          "duration": 0.008000000000000007
        },
        {
          "name": "G3",
          "midi": 55,
          "time": 5.838999999999976,
          "velocity": 0.5590551181102362,
          "duration": 0.008000000000000007
        },
        {
          "name": "D5",
          "midi": 74,
          "time": 5.858999999999976,
          "velocity": 0.47244094488188976,
          "duration": 0.02799999999999958
        },
        {
          "name": "D5",
          "midi": 74,
          "time": 5.858999999999976,
          "velocity": 0.47244094488188976,
          "duration": 0.02799999999999958
        },
        {
          "name": "G3",
          "midi": 55,
          "time": 5.868999999999976,
          "velocity": 0.5196850393700787,
          "duration": 0.036999999999999034
        },
        {
          "name": "G3",
          "midi": 55,
          "time": 5.868999999999976,
          "velocity": 0.5196850393700787,
          "duration": 0.036999999999999034
        },
        {
          "name": "A6",
          "midi": 93,
          "time": 5.898999999999975,
          "velocity": 0.5118110236220472,
          "duration": 0.07699999999999818
        },
        {
          "name": "A6",
          "midi": 93,
          "time": 5.898999999999975,
          "velocity": 0.5118110236220472,
          "duration": 0.07699999999999818
        },
        {
          "name": "D5",
          "midi": 74,
          "time": 5.917999999999974,
          "velocity": 0.5590551181102362,
          "duration": 0.28399999999999714
        },
        {
          "name": "D5",
          "midi": 74,
          "time": 5.917999999999974,
          "velocity": 0.5590551181102362,
          "duration": 0.28399999999999714
        },
        {
          "name": "D6",
          "midi": 86,
          "time": 5.9579999999999735,
          "velocity": 0.49606299212598426,
          "duration": 0.008000000000000007
        },
        {
          "name": "D6",
          "midi": 86,
          "time": 5.9579999999999735,
          "velocity": 0.49606299212598426,
          "duration": 0.008000000000000007
        },
        {
          "name": "D7",
          "midi": 98,
          "time": 5.977999999999973,
          "velocity": 0.5118110236220472,
          "duration": 0.10600000000000076
        },
        {
          "name": "D7",
          "midi": 98,
          "time": 5.977999999999973,
          "velocity": 0.5118110236220472,
          "duration": 0.10600000000000076
        },
        {
          "name": "E4",
          "midi": 64,
          "time": 5.9869999999999735,
          "velocity": 0.5196850393700787,
          "duration": 0.04699999999999971
        },
        {
          "name": "E4",
          "midi": 64,
          "time": 5.9869999999999735,
          "velocity": 0.5196850393700787,
          "duration": 0.04699999999999971
        },
        {
          "name": "G3",
          "midi": 55,
          "time": 5.996999999999973,
          "velocity": 0.5196850393700787,
          "duration": 0.008000000000000007
        },
        {
          "name": "G3",
          "midi": 55,
          "time": 5.996999999999973,
          "velocity": 0.5196850393700787,
          "duration": 0.008000000000000007
        },
        {
          "name": "G3",
          "midi": 55,
          "time": 6.0269999999999735,
          "velocity": 0.5196850393700787,
          "duration": 0.008000000000000007
        },
        {
          "name": "G3",
          "midi": 55,
          "time": 6.0269999999999735,
          "velocity": 0.5196850393700787,
          "duration": 0.008000000000000007
        },
        {
          "name": "D6",
          "midi": 86,
          "time": 6.046999999999973,
          "velocity": 0.4645669291338583,
          "duration": 0.008000000000000007
        },
        {
          "name": "F#7",
          "midi": 102,
          "time": 6.046999999999973,
          "velocity": 0.4645669291338583,
          "duration": 0.018000000000000682
        },
        {
          "name": "D6",
          "midi": 86,
          "time": 6.046999999999973,
          "velocity": 0.4645669291338583,
          "duration": 0.008000000000000007
        },
        {
          "name": "F#7",
          "midi": 102,
          "time": 6.046999999999973,
          "velocity": 0.4645669291338583,
          "duration": 0.018000000000000682
        },
        {
          "name": "A6",
          "midi": 93,
          "time": 6.055999999999973,
          "velocity": 0.47244094488188976,
          "duration": 0.03699999999999992
        },
        {
          "name": "A6",
          "midi": 93,
          "time": 6.055999999999973,
          "velocity": 0.47244094488188976,
          "duration": 0.03699999999999992
        },
        {
          "name": "G3",
          "midi": 55,
          "time": 6.065999999999974,
          "velocity": 0.5118110236220472,
          "duration": 0.008000000000000007
        },
        {
          "name": "G3",
          "midi": 55,
          "time": 6.065999999999974,
          "velocity": 0.5118110236220472,
          "duration": 0.008000000000000007
        },
        {
          "name": "D7",
          "midi": 98,
          "time": 6.075999999999974,
          "velocity": 0.47244094488188976,
          "duration": 0.03799999999999937
        },
        {
          "name": "D7",
          "midi": 98,
          "time": 6.075999999999974,
          "velocity": 0.47244094488188976,
          "duration": 0.03799999999999937
        },
        {
          "name": "D6",
          "midi": 86,
          "time": 6.085999999999974,
          "velocity": 0.4881889763779528,
          "duration": 0.06699999999999928
        },
        {
          "name": "D6",
          "midi": 86,
          "time": 6.085999999999974,
          "velocity": 0.4881889763779528,
          "duration": 0.06699999999999928
        },
        {
          "name": "G3",
          "midi": 55,
          "time": 6.095999999999973,
          "velocity": 0.5196850393700787,
          "duration": 0.008000000000000007
        },
        {
          "name": "G3",
          "midi": 55,
          "time": 6.095999999999973,
          "velocity": 0.5196850393700787,
          "duration": 0.008000000000000007
        },
        {
          "name": "D7",
          "midi": 98,
          "time": 6.105999999999973,
          "velocity": 0.5039370078740157,
          "duration": 0.02799999999999958
        },
        {
          "name": "D7",
          "midi": 98,
          "time": 6.105999999999973,
          "velocity": 0.5039370078740157,
          "duration": 0.02799999999999958
        },
        {
          "name": "E4",
          "midi": 64,
          "time": 6.115999999999973,
          "velocity": 0.4881889763779528,
          "duration": 0.008000000000000007
        },
        {
          "name": "E4",
          "midi": 64,
          "time": 6.115999999999973,
          "velocity": 0.4881889763779528,
          "duration": 0.008000000000000007
        },
        {
          "name": "G3",
          "midi": 55,
          "time": 6.125999999999973,
          "velocity": 0.5196850393700787,
          "duration": 0.008000000000000007
        },
        {
          "name": "G3",
          "midi": 55,
          "time": 6.125999999999973,
          "velocity": 0.5196850393700787,
          "duration": 0.008000000000000007
        },
        {
          "name": "G6",
          "midi": 91,
          "time": 6.134999999999973,
          "velocity": 0.5275590551181102,
          "duration": 0.05699999999999861
        },
        {
          "name": "G6",
          "midi": 91,
          "time": 6.134999999999973,
          "velocity": 0.5275590551181102,
          "duration": 0.05699999999999861
        },
        {
          "name": "E4",
          "midi": 64,
          "time": 6.144999999999973,
          "velocity": 0.5196850393700787,
          "duration": 0.10699999999999754
        },
        {
          "name": "C5",
          "midi": 72,
          "time": 6.144999999999973,
          "velocity": 0.84251968503937,
          "duration": 0.33299999999999663
        },
        {
          "name": "E4",
          "midi": 64,
          "time": 6.144999999999973,
          "velocity": 0.5196850393700787,
          "duration": 0.10699999999999754
        },
        {
          "name": "C5",
          "midi": 72,
          "time": 6.144999999999973,
          "velocity": 0.84251968503937,
          "duration": 0.33299999999999663
        },
        {
          "name": "G3",
          "midi": 55,
          "time": 6.1649999999999725,
          "velocity": 0.5118110236220472,
          "duration": 0.008000000000000007
        },
        {
          "name": "G3",
          "midi": 55,
          "time": 6.1649999999999725,
          "velocity": 0.5118110236220472,
          "duration": 0.008000000000000007
        },
        {
          "name": "C3",
          "midi": 48,
          "time": 6.184999999999972,
          "velocity": 0.5039370078740157,
          "duration": 0.23499999999999677
        },
        {
          "name": "C3",
          "midi": 48,
          "time": 6.184999999999972,
          "velocity": 0.5039370078740157,
          "duration": 0.23499999999999677
        },
        {
          "name": "G3",
          "midi": 55,
          "time": 6.203999999999971,
          "velocity": 0.47244094488188976,
          "duration": 0.017999999999999794
        },
        {
          "name": "G3",
          "midi": 55,
          "time": 6.203999999999971,
          "velocity": 0.47244094488188976,
          "duration": 0.017999999999999794
        },
        {
          "name": "C4",
          "midi": 60,
          "time": 6.213999999999971,
          "velocity": 0.4645669291338583,
          "duration": 0.017999999999999794
        },
        {
          "name": "C4",
          "midi": 60,
          "time": 6.213999999999971,
          "velocity": 0.4645669291338583,
          "duration": 0.017999999999999794
        },
        {
          "name": "B6",
          "midi": 95,
          "time": 6.233999999999971,
          "velocity": 0.4645669291338583,
          "duration": 0.02799999999999958
        },
        {
          "name": "B6",
          "midi": 95,
          "time": 6.233999999999971,
          "velocity": 0.4645669291338583,
          "duration": 0.02799999999999958
        },
        {
          "name": "G6",
          "midi": 91,
          "time": 6.2439999999999705,
          "velocity": 0.5039370078740157,
          "duration": 0.06699999999999928
        },
        {
          "name": "G6",
          "midi": 91,
          "time": 6.2439999999999705,
          "velocity": 0.5039370078740157,
          "duration": 0.06699999999999928
        },
        {
          "name": "C6",
          "midi": 84,
          "time": 6.26399999999997,
          "velocity": 0.4881889763779528,
          "duration": 0.17599999999999927
        },
        {
          "name": "C6",
          "midi": 84,
          "time": 6.26399999999997,
          "velocity": 0.4881889763779528,
          "duration": 0.17599999999999927
        },
        {
          "name": "C7",
          "midi": 96,
          "time": 6.27299999999997,
          "velocity": 0.47244094488188976,
          "duration": 0.008000000000000007
        },
        {
          "name": "C7",
          "midi": 96,
          "time": 6.27299999999997,
          "velocity": 0.47244094488188976,
          "duration": 0.008000000000000007
        },
        {
          "name": "G4",
          "midi": 67,
          "time": 6.29299999999997,
          "velocity": 0.4881889763779528,
          "duration": 0.09699999999999953
        },
        {
          "name": "G4",
          "midi": 67,
          "time": 6.29299999999997,
          "velocity": 0.4881889763779528,
          "duration": 0.09699999999999953
        },
        {
          "name": "E7",
          "midi": 100,
          "time": 6.33299999999997,
          "velocity": 0.48031496062992124,
          "duration": 0.02799999999999958
        },
        {
          "name": "E7",
          "midi": 100,
          "time": 6.33299999999997,
          "velocity": 0.48031496062992124,
          "duration": 0.02799999999999958
        },
        {
          "name": "E4",
          "midi": 64,
          "time": 6.37199999999997,
          "velocity": 0.47244094488188976,
          "duration": 0.017999999999999794
        },
        {
          "name": "E4",
          "midi": 64,
          "time": 6.37199999999997,
          "velocity": 0.47244094488188976,
          "duration": 0.017999999999999794
        },
        {
          "name": "E7",
          "midi": 100,
          "time": 6.401999999999969,
          "velocity": 0.47244094488188976,
          "duration": 0.008000000000000007
        },
        {
          "name": "E7",
          "midi": 100,
          "time": 6.401999999999969,
          "velocity": 0.47244094488188976,
          "duration": 0.008000000000000007
        },
        {
          "name": "G6",
          "midi": 91,
          "time": 6.411999999999969,
          "velocity": 0.4566929133858268,
          "duration": 0.008000000000000007
        },
        {
          "name": "G6",
          "midi": 91,
          "time": 6.411999999999969,
          "velocity": 0.4566929133858268,
          "duration": 0.008000000000000007
        },
        {
          "name": "B6",
          "midi": 95,
          "time": 6.420999999999969,
          "velocity": 0.47244094488188976,
          "duration": 0.0470000000000006
        },
        {
          "name": "B6",
          "midi": 95,
          "time": 6.420999999999969,
          "velocity": 0.47244094488188976,
          "duration": 0.0470000000000006
        },
        {
          "name": "C3",
          "midi": 48,
          "time": 6.430999999999969,
          "velocity": 0.5590551181102362,
          "duration": 0.7279999999999953
        },
        {
          "name": "A#4",
          "midi": 70,
          "time": 6.430999999999969,
          "velocity": 0.48031496062992124,
          "duration": 0.06700000000000106
        },
        {
          "name": "C3",
          "midi": 48,
          "time": 6.430999999999969,
          "velocity": 0.5590551181102362,
          "duration": 0.7279999999999953
        },
        {
          "name": "A#4",
          "midi": 70,
          "time": 6.430999999999969,
          "velocity": 0.48031496062992124,
          "duration": 0.06700000000000106
        },
        {
          "name": "G6",
          "midi": 91,
          "time": 6.450999999999969,
          "velocity": 0.4645669291338583,
          "duration": 0.008000000000000007
        },
        {
          "name": "G4",
          "midi": 67,
          "time": 6.450999999999969,
          "velocity": 0.49606299212598426,
          "duration": 0.22499999999999964
        },
        {
          "name": "G6",
          "midi": 91,
          "time": 6.450999999999969,
          "velocity": 0.4645669291338583,
          "duration": 0.008000000000000007
        },
        {
          "name": "G4",
          "midi": 67,
          "time": 6.450999999999969,
          "velocity": 0.49606299212598426,
          "duration": 0.22499999999999964
        },
        {
          "name": "G5",
          "midi": 79,
          "time": 6.47099999999997,
          "velocity": 0.47244094488188976,
          "duration": 0.017999999999999794
        },
        {
          "name": "G5",
          "midi": 79,
          "time": 6.47099999999997,
          "velocity": 0.47244094488188976,
          "duration": 0.017999999999999794
        },
        {
          "name": "C6",
          "midi": 84,
          "time": 6.48999999999997,
          "velocity": 0.5118110236220472,
          "duration": 0.03699999999999992
        },
        {
          "name": "D7",
          "midi": 98,
          "time": 6.48999999999997,
          "velocity": 0.48031496062992124,
          "duration": 0.008000000000000007
        },
        {
          "name": "C6",
          "midi": 84,
          "time": 6.48999999999997,
          "velocity": 0.5118110236220472,
          "duration": 0.03699999999999992
        },
        {
          "name": "D7",
          "midi": 98,
          "time": 6.48999999999997,
          "velocity": 0.48031496062992124,
          "duration": 0.008000000000000007
        },
        {
          "name": "C5",
          "midi": 72,
          "time": 6.49999999999997,
          "velocity": 0.5196850393700787,
          "duration": 0.0470000000000006
        },
        {
          "name": "C5",
          "midi": 72,
          "time": 6.49999999999997,
          "velocity": 0.5196850393700787,
          "duration": 0.0470000000000006
        },
        {
          "name": "E4",
          "midi": 64,
          "time": 6.50999999999997,
          "velocity": 0.6377952755905512,
          "duration": 0.5899999999999954
        },
        {
          "name": "B6",
          "midi": 95,
          "time": 6.50999999999997,
          "velocity": 0.48031496062992124,
          "duration": 0.008000000000000007
        },
        {
          "name": "E4",
          "midi": 64,
          "time": 6.50999999999997,
          "velocity": 0.6377952755905512,
          "duration": 0.5899999999999954
        },
        {
          "name": "B6",
          "midi": 95,
          "time": 6.50999999999997,
          "velocity": 0.48031496062992124,
          "duration": 0.008000000000000007
        },
        {
          "name": "E5",
          "midi": 76,
          "time": 6.52999999999997,
          "velocity": 0.49606299212598426,
          "duration": 0.02800000000000047
        },
        {
          "name": "E5",
          "midi": 76,
          "time": 6.52999999999997,
          "velocity": 0.49606299212598426,
          "duration": 0.02800000000000047
        },
        {
          "name": "E3",
          "midi": 52,
          "time": 6.5499999999999705,
          "velocity": 0.6850393700787402,
          "duration": 0.5209999999999946
        },
        {
          "name": "E3",
          "midi": 52,
          "time": 6.5499999999999705,
          "velocity": 0.6850393700787402,
          "duration": 0.5209999999999946
        },
        {
          "name": "G6",
          "midi": 91,
          "time": 6.55999999999997,
          "velocity": 0.47244094488188976,
          "duration": 0.017999999999999794
        },
        {
          "name": "G6",
          "midi": 91,
          "time": 6.55999999999997,
          "velocity": 0.47244094488188976,
          "duration": 0.017999999999999794
        },
        {
          "name": "F4",
          "midi": 65,
          "time": 6.58899999999997,
          "velocity": 0.5118110236220472,
          "duration": 0.008000000000000007
        },
        {
          "name": "F4",
          "midi": 65,
          "time": 6.58899999999997,
          "velocity": 0.5118110236220472,
          "duration": 0.008000000000000007
        },
        {
          "name": "B5",
          "midi": 83,
          "time": 6.59899999999997,
          "velocity": 0.4645669291338583,
          "duration": 0.03699999999999992
        },
        {
          "name": "B5",
          "midi": 83,
          "time": 6.59899999999997,
          "velocity": 0.4645669291338583,
          "duration": 0.03699999999999992
        },
        {
          "name": "G6",
          "midi": 91,
          "time": 6.61899999999997,
          "velocity": 0.4645669291338583,
          "duration": 0.06699999999999928
        },
        {
          "name": "G6",
          "midi": 91,
          "time": 6.61899999999997,
          "velocity": 0.4645669291338583,
          "duration": 0.06699999999999928
        },
        {
          "name": "E6",
          "midi": 88,
          "time": 6.6479999999999695,
          "velocity": 0.4566929133858268,
          "duration": 0.008000000000000007
        },
        {
          "name": "E6",
          "midi": 88,
          "time": 6.6479999999999695,
          "velocity": 0.4566929133858268,
          "duration": 0.008000000000000007
        },
        {
          "name": "E5",
          "midi": 76,
          "time": 6.677999999999969,
          "velocity": 0.48031496062992124,
          "duration": 0.02799999999999958
        },
        {
          "name": "E5",
          "midi": 76,
          "time": 6.677999999999969,
          "velocity": 0.48031496062992124,
          "duration": 0.02799999999999958
        },
        {
          "name": "G#5",
          "midi": 80,
          "time": 6.687999999999969,
          "velocity": 0.4881889763779528,
          "duration": 0.04699999999999971
        },
        {
          "name": "G#5",
          "midi": 80,
          "time": 6.687999999999969,
          "velocity": 0.4881889763779528,
          "duration": 0.04699999999999971
        },
        {
          "name": "G#6",
          "midi": 92,
          "time": 6.706999999999969,
          "velocity": 0.47244094488188976,
          "duration": 0.02799999999999958
        },
        {
          "name": "G#6",
          "midi": 92,
          "time": 6.706999999999969,
          "velocity": 0.47244094488188976,
          "duration": 0.02799999999999958
        },
        {
          "name": "E7",
          "midi": 100,
          "time": 6.736999999999968,
          "velocity": 0.47244094488188976,
          "duration": 0.02799999999999958
        },
        {
          "name": "E7",
          "midi": 100,
          "time": 6.736999999999968,
          "velocity": 0.47244094488188976,
          "duration": 0.02799999999999958
        },
        {
          "name": "E5",
          "midi": 76,
          "time": 6.746999999999968,
          "velocity": 0.49606299212598426,
          "duration": 0.11599999999999966
        },
        {
          "name": "E5",
          "midi": 76,
          "time": 6.746999999999968,
          "velocity": 0.49606299212598426,
          "duration": 0.11599999999999966
        },
        {
          "name": "G4",
          "midi": 67,
          "time": 6.7669999999999675,
          "velocity": 0.5118110236220472,
          "duration": 0.17599999999999927
        },
        {
          "name": "G4",
          "midi": 67,
          "time": 6.7669999999999675,
          "velocity": 0.5118110236220472,
          "duration": 0.17599999999999927
        },
        {
          "name": "B6",
          "midi": 95,
          "time": 6.776999999999967,
          "velocity": 0.5039370078740157,
          "duration": 0.017999999999999794
        },
        {
          "name": "B6",
          "midi": 95,
          "time": 6.776999999999967,
          "velocity": 0.5039370078740157,
          "duration": 0.017999999999999794
        },
        {
          "name": "B5",
          "midi": 83,
          "time": 6.805999999999967,
          "velocity": 0.49606299212598426,
          "duration": 0.06700000000000017
        },
        {
          "name": "B5",
          "midi": 83,
          "time": 6.805999999999967,
          "velocity": 0.49606299212598426,
          "duration": 0.06700000000000017
        },
        {
          "name": "G6",
          "midi": 91,
          "time": 6.874999999999967,
          "velocity": 0.5118110236220472,
          "duration": 0.12599999999999945
        },
        {
          "name": "G6",
          "midi": 91,
          "time": 6.874999999999967,
          "velocity": 0.5118110236220472,
          "duration": 0.12599999999999945
        },
        {
          "name": "A#6",
          "midi": 94,
          "time": 6.894999999999967,
          "velocity": 0.4645669291338583,
          "duration": 0.008000000000000007
        },
        {
          "name": "A#6",
          "midi": 94,
          "time": 6.894999999999967,
          "velocity": 0.4645669291338583,
          "duration": 0.008000000000000007
        },
        {
          "name": "C2",
          "midi": 36,
          "time": 6.914999999999966,
          "velocity": 0.47244094488188976,
          "duration": 0.008000000000000007
        },
        {
          "name": "C2",
          "midi": 36,
          "time": 6.914999999999966,
          "velocity": 0.47244094488188976,
          "duration": 0.008000000000000007
        },
        {
          "name": "G3",
          "midi": 55,
          "time": 6.933999999999966,
          "velocity": 0.5118110236220472,
          "duration": 0.008000000000000007
        },
        {
          "name": "G3",
          "midi": 55,
          "time": 6.933999999999966,
          "velocity": 0.5118110236220472,
          "duration": 0.008000000000000007
        },
        {
          "name": "D6",
          "midi": 86,
          "time": 6.953999999999967,
          "velocity": 0.49606299212598426,
          "duration": 0.008000000000000007
        },
        {
          "name": "D6",
          "midi": 86,
          "time": 6.953999999999967,
          "velocity": 0.49606299212598426,
          "duration": 0.008000000000000007
        },
        {
          "name": "G3",
          "midi": 55,
          "time": 6.963999999999967,
          "velocity": 0.5590551181102362,
          "duration": 0.07699999999999907
        },
        {
          "name": "G3",
          "midi": 55,
          "time": 6.963999999999967,
          "velocity": 0.5590551181102362,
          "duration": 0.07699999999999907
        },
        {
          "name": "C2",
          "midi": 36,
          "time": 6.9739999999999664,
          "velocity": 0.4881889763779528,
          "duration": 0.017999999999999794
        },
        {
          "name": "C2",
          "midi": 36,
          "time": 6.9739999999999664,
          "velocity": 0.4881889763779528,
          "duration": 0.017999999999999794
        },
        {
          "name": "G4",
          "midi": 67,
          "time": 7.002999999999966,
          "velocity": 0.6220472440944882,
          "duration": 0.29399999999999693
        },
        {
          "name": "G4",
          "midi": 67,
          "time": 7.002999999999966,
          "velocity": 0.6220472440944882,
          "duration": 0.29399999999999693
        },
        {
          "name": "D7",
          "midi": 98,
          "time": 7.012999999999966,
          "velocity": 0.5039370078740157,
          "duration": 0.008000000000000007
        },
        {
          "name": "D7",
          "midi": 98,
          "time": 7.012999999999966,
          "velocity": 0.5039370078740157,
          "duration": 0.008000000000000007
        },
        {
          "name": "G6",
          "midi": 91,
          "time": 7.0429999999999655,
          "velocity": 0.5511811023622047,
          "duration": 0.03699999999999992
        },
        {
          "name": "G6",
          "midi": 91,
          "time": 7.0429999999999655,
          "velocity": 0.5511811023622047,
          "duration": 0.03699999999999992
        },
        {
          "name": "G5",
          "midi": 79,
          "time": 7.052999999999965,
          "velocity": 0.6377952755905512,
          "duration": 0.07699999999999907
        },
        {
          "name": "G5",
          "midi": 79,
          "time": 7.052999999999965,
          "velocity": 0.6377952755905512,
          "duration": 0.07699999999999907
        },
        {
          "name": "B6",
          "midi": 95,
          "time": 7.081999999999965,
          "velocity": 0.5275590551181102,
          "duration": 0.056999999999999496
        },
        {
          "name": "B6",
          "midi": 95,
          "time": 7.081999999999965,
          "velocity": 0.5275590551181102,
          "duration": 0.056999999999999496
        },
        {
          "name": "E3",
          "midi": 52,
          "time": 7.101999999999965,
          "velocity": 0.5275590551181102,
          "duration": 0.06699999999999928
        },
        {
          "name": "E3",
          "midi": 52,
          "time": 7.101999999999965,
          "velocity": 0.5275590551181102,
          "duration": 0.06699999999999928
        },
        {
          "name": "G6",
          "midi": 91,
          "time": 7.111999999999965,
          "velocity": 0.5196850393700787,
          "duration": 0.008000000000000007
        },
        {
          "name": "G6",
          "midi": 91,
          "time": 7.111999999999965,
          "velocity": 0.5196850393700787,
          "duration": 0.008000000000000007
        },
        {
          "name": "D7",
          "midi": 98,
          "time": 7.1409999999999645,
          "velocity": 0.5275590551181102,
          "duration": 0.04699999999999882
        },
        {
          "name": "D7",
          "midi": 98,
          "time": 7.1409999999999645,
          "velocity": 0.5275590551181102,
          "duration": 0.04699999999999882
        },
        {
          "name": "G#3",
          "midi": 56,
          "time": 7.150999999999964,
          "velocity": 0.5433070866141733,
          "duration": 0.18499999999999872
        },
        {
          "name": "G#3",
          "midi": 56,
          "time": 7.150999999999964,
          "velocity": 0.5433070866141733,
          "duration": 0.18499999999999872
        },
        {
          "name": "A#4",
          "midi": 70,
          "time": 7.160999999999964,
          "velocity": 0.5669291338582677,
          "duration": 0.11599999999999877
        },
        {
          "name": "A#4",
          "midi": 70,
          "time": 7.160999999999964,
          "velocity": 0.5669291338582677,
          "duration": 0.11599999999999877
        },
        {
          "name": "B6",
          "midi": 95,
          "time": 7.170999999999964,
          "velocity": 0.5039370078740157,
          "duration": 0.02799999999999958
        },
        {
          "name": "B6",
          "midi": 95,
          "time": 7.170999999999964,
          "velocity": 0.5039370078740157,
          "duration": 0.02799999999999958
        },
        {
          "name": "E4",
          "midi": 64,
          "time": 7.180999999999964,
          "velocity": 0.5039370078740157,
          "duration": 0.02799999999999958
        },
        {
          "name": "E4",
          "midi": 64,
          "time": 7.180999999999964,
          "velocity": 0.5039370078740157,
          "duration": 0.02799999999999958
        },
        {
          "name": "G6",
          "midi": 91,
          "time": 7.200999999999963,
          "velocity": 0.49606299212598426,
          "duration": 0.02800000000000047
        },
        {
          "name": "G6",
          "midi": 91,
          "time": 7.200999999999963,
          "velocity": 0.49606299212598426,
          "duration": 0.02800000000000047
        },
        {
          "name": "D#7",
          "midi": 99,
          "time": 7.210999999999963,
          "velocity": 0.49606299212598426,
          "duration": 0.018000000000000682
        },
        {
          "name": "D#7",
          "midi": 99,
          "time": 7.210999999999963,
          "velocity": 0.49606299212598426,
          "duration": 0.018000000000000682
        },
        {
          "name": "G#5",
          "midi": 80,
          "time": 7.219999999999963,
          "velocity": 0.5118110236220472,
          "duration": 0.03699999999999992
        },
        {
          "name": "G#5",
          "midi": 80,
          "time": 7.219999999999963,
          "velocity": 0.5118110236220472,
          "duration": 0.03699999999999992
        },
        {
          "name": "A#4",
          "midi": 70,
          "time": 7.239999999999964,
          "velocity": 0.5826771653543307,
          "duration": 0.11599999999999877
        },
        {
          "name": "A#4",
          "midi": 70,
          "time": 7.239999999999964,
          "velocity": 0.5826771653543307,
          "duration": 0.11599999999999877
        },
        {
          "name": "E7",
          "midi": 100,
          "time": 7.249999999999964,
          "velocity": 0.5118110236220472,
          "duration": 0.017999999999999794
        },
        {
          "name": "E7",
          "midi": 100,
          "time": 7.249999999999964,
          "velocity": 0.5118110236220472,
          "duration": 0.017999999999999794
        },
        {
          "name": "C#7",
          "midi": 97,
          "time": 7.269999999999963,
          "velocity": 0.5433070866141733,
          "duration": 0.03700000000000081
        },
        {
          "name": "C#7",
          "midi": 97,
          "time": 7.269999999999963,
          "velocity": 0.5433070866141733,
          "duration": 0.03700000000000081
        },
        {
          "name": "A5",
          "midi": 81,
          "time": 7.279999999999963,
          "velocity": 0.5275590551181102,
          "duration": 0.018000000000000682
        },
        {
          "name": "A5",
          "midi": 81,
          "time": 7.279999999999963,
          "velocity": 0.5275590551181102,
          "duration": 0.018000000000000682
        },
        {
          "name": "E3",
          "midi": 52,
          "time": 7.288999999999963,
          "velocity": 0.6456692913385826,
          "duration": 0.10699999999999932
        },
        {
          "name": "E3",
          "midi": 52,
          "time": 7.288999999999963,
          "velocity": 0.6456692913385826,
          "duration": 0.10699999999999932
        },
        {
          "name": "B6",
          "midi": 95,
          "time": 7.308999999999964,
          "velocity": 0.5039370078740157,
          "duration": 0.008000000000000007
        },
        {
          "name": "C3",
          "midi": 48,
          "time": 7.308999999999964,
          "velocity": 0.5275590551181102,
          "duration": 0.06699999999999928
        },
        {
          "name": "B6",
          "midi": 95,
          "time": 7.308999999999964,
          "velocity": 0.5039370078740157,
          "duration": 0.008000000000000007
        },
        {
          "name": "C3",
          "midi": 48,
          "time": 7.308999999999964,
          "velocity": 0.5275590551181102,
          "duration": 0.06699999999999928
        },
        {
          "name": "A4",
          "midi": 69,
          "time": 7.3189999999999635,
          "velocity": 0.5118110236220472,
          "duration": 0.008000000000000007
        },
        {
          "name": "A4",
          "midi": 69,
          "time": 7.3189999999999635,
          "velocity": 0.5118110236220472,
          "duration": 0.008000000000000007
        },
        {
          "name": "F6",
          "midi": 89,
          "time": 7.328999999999963,
          "velocity": 0.4881889763779528,
          "duration": 0.008000000000000007
        },
        {
          "name": "F6",
          "midi": 89,
          "time": 7.328999999999963,
          "velocity": 0.4881889763779528,
          "duration": 0.008000000000000007
        },
        {
          "name": "A#5",
          "midi": 82,
          "time": 7.338999999999963,
          "velocity": 0.5196850393700787,
          "duration": 0.02799999999999958
        },
        {
          "name": "A#5",
          "midi": 82,
          "time": 7.338999999999963,
          "velocity": 0.5196850393700787,
          "duration": 0.02799999999999958
        },
        {
          "name": "F#4",
          "midi": 66,
          "time": 7.348999999999963,
          "velocity": 0.5984251968503937,
          "duration": 0.8169999999999966
        },
        {
          "name": "F#4",
          "midi": 66,
          "time": 7.348999999999963,
          "velocity": 0.5984251968503937,
          "duration": 0.8169999999999966
        },
        {
          "name": "B6",
          "midi": 95,
          "time": 7.367999999999963,
          "velocity": 0.5354330708661418,
          "duration": 0.04699999999999882
        },
        {
          "name": "B6",
          "midi": 95,
          "time": 7.367999999999963,
          "velocity": 0.5354330708661418,
          "duration": 0.04699999999999882
        },
        {
          "name": "B4",
          "midi": 71,
          "time": 7.377999999999963,
          "velocity": 0.6692913385826772,
          "duration": 0.7179999999999964
        },
        {
          "name": "G#3",
          "midi": 56,
          "time": 7.377999999999963,
          "velocity": 0.5905511811023622,
          "duration": 0.017999999999999794
        },
        {
          "name": "B4",
          "midi": 71,
          "time": 7.377999999999963,
          "velocity": 0.6692913385826772,
          "duration": 0.7179999999999964
        },
        {
          "name": "G#3",
          "midi": 56,
          "time": 7.377999999999963,
          "velocity": 0.5905511811023622,
          "duration": 0.017999999999999794
        },
        {
          "name": "D#7",
          "midi": 99,
          "time": 7.397999999999962,
          "velocity": 0.5118110236220472,
          "duration": 0.21499999999999897
        },
        {
          "name": "D#7",
          "midi": 99,
          "time": 7.397999999999962,
          "velocity": 0.5118110236220472,
          "duration": 0.21499999999999897
        },
        {
          "name": "F#3",
          "midi": 54,
          "time": 7.407999999999962,
          "velocity": 0.7244094488188977,
          "duration": 0.23499999999999854
        },
        {
          "name": "A3",
          "midi": 57,
          "time": 7.407999999999962,
          "velocity": 0.5275590551181102,
          "duration": 0.03699999999999992
        },
        {
          "name": "F#3",
          "midi": 54,
          "time": 7.407999999999962,
          "velocity": 0.7244094488188977,
          "duration": 0.23499999999999854
        },
        {
          "name": "A3",
          "midi": 57,
          "time": 7.407999999999962,
          "velocity": 0.5275590551181102,
          "duration": 0.03699999999999992
        },
        {
          "name": "F#6",
          "midi": 90,
          "time": 7.427999999999962,
          "velocity": 0.49606299212598426,
          "duration": 0.057000000000000384
        },
        {
          "name": "F#6",
          "midi": 90,
          "time": 7.427999999999962,
          "velocity": 0.49606299212598426,
          "duration": 0.057000000000000384
        },
        {
          "name": "D#3",
          "midi": 51,
          "time": 7.476999999999962,
          "velocity": 0.5354330708661418,
          "duration": 0.07699999999999907
        },
        {
          "name": "D#3",
          "midi": 51,
          "time": 7.476999999999962,
          "velocity": 0.5354330708661418,
          "duration": 0.07699999999999907
        },
        {
          "name": "A3",
          "midi": 57,
          "time": 7.496999999999962,
          "velocity": 0.47244094488188976,
          "duration": 0.008000000000000007
        },
        {
          "name": "A3",
          "midi": 57,
          "time": 7.496999999999962,
          "velocity": 0.47244094488188976,
          "duration": 0.008000000000000007
        },
        {
          "name": "F#6",
          "midi": 90,
          "time": 7.525999999999962,
          "velocity": 0.48031496062992124,
          "duration": 0.008000000000000007
        },
        {
          "name": "F#6",
          "midi": 90,
          "time": 7.525999999999962,
          "velocity": 0.48031496062992124,
          "duration": 0.008000000000000007
        },
        {
          "name": "A#3",
          "midi": 58,
          "time": 7.555999999999961,
          "velocity": 0.48031496062992124,
          "duration": 0.017999999999999794
        },
        {
          "name": "A#3",
          "midi": 58,
          "time": 7.555999999999961,
          "velocity": 0.48031496062992124,
          "duration": 0.017999999999999794
        },
        {
          "name": "D#3",
          "midi": 51,
          "time": 7.5759999999999605,
          "velocity": 0.5669291338582677,
          "duration": 0.018000000000000682
        },
        {
          "name": "D#3",
          "midi": 51,
          "time": 7.5759999999999605,
          "velocity": 0.5669291338582677,
          "duration": 0.018000000000000682
        },
        {
          "name": "C6",
          "midi": 84,
          "time": 7.584999999999961,
          "velocity": 0.48031496062992124,
          "duration": 0.008000000000000007
        },
        {
          "name": "C6",
          "midi": 84,
          "time": 7.584999999999961,
          "velocity": 0.48031496062992124,
          "duration": 0.008000000000000007
        },
        {
          "name": "D#3",
          "midi": 51,
          "time": 7.604999999999961,
          "velocity": 0.5984251968503937,
          "duration": 0.7279999999999962
        },
        {
          "name": "F#6",
          "midi": 90,
          "time": 7.604999999999961,
          "velocity": 0.5354330708661418,
          "duration": 0.09699999999999864
        },
        {
          "name": "D#3",
          "midi": 51,
          "time": 7.604999999999961,
          "velocity": 0.5984251968503937,
          "duration": 0.7279999999999962
        },
        {
          "name": "F#6",
          "midi": 90,
          "time": 7.604999999999961,
          "velocity": 0.5354330708661418,
          "duration": 0.09699999999999864
        },
        {
          "name": "B6",
          "midi": 95,
          "time": 7.624999999999961,
          "velocity": 0.5196850393700787,
          "duration": 0.017999999999999794
        },
        {
          "name": "B6",
          "midi": 95,
          "time": 7.624999999999961,
          "velocity": 0.5196850393700787,
          "duration": 0.017999999999999794
        },
        {
          "name": "D#7",
          "midi": 99,
          "time": 7.653999999999961,
          "velocity": 0.49606299212598426,
          "duration": 0.02799999999999958
        },
        {
          "name": "D#7",
          "midi": 99,
          "time": 7.653999999999961,
          "velocity": 0.49606299212598426,
          "duration": 0.02799999999999958
        },
        {
          "name": "B5",
          "midi": 83,
          "time": 7.68399999999996,
          "velocity": 0.5196850393700787,
          "duration": 0.036999999999999034
        },
        {
          "name": "B5",
          "midi": 83,
          "time": 7.68399999999996,
          "velocity": 0.5196850393700787,
          "duration": 0.036999999999999034
        },
        {
          "name": "B6",
          "midi": 95,
          "time": 7.69399999999996,
          "velocity": 0.5118110236220472,
          "duration": 0.017999999999999794
        },
        {
          "name": "B6",
          "midi": 95,
          "time": 7.69399999999996,
          "velocity": 0.5118110236220472,
          "duration": 0.017999999999999794
        },
        {
          "name": "A#3",
          "midi": 58,
          "time": 7.7139999999999596,
          "velocity": 0.5118110236220472,
          "duration": 0.10699999999999932
        },
        {
          "name": "A#3",
          "midi": 58,
          "time": 7.7139999999999596,
          "velocity": 0.5118110236220472,
          "duration": 0.10699999999999932
        },
        {
          "name": "G6",
          "midi": 91,
          "time": 7.732999999999959,
          "velocity": 0.5275590551181102,
          "duration": 0.03699999999999992
        },
        {
          "name": "F#3",
          "midi": 54,
          "time": 7.732999999999959,
          "velocity": 0.6062992125984252,
          "duration": 0.1070000000000002
        },
        {
          "name": "G6",
          "midi": 91,
          "time": 7.732999999999959,
          "velocity": 0.5275590551181102,
          "duration": 0.03699999999999992
        },
        {
          "name": "F#3",
          "midi": 54,
          "time": 7.732999999999959,
          "velocity": 0.6062992125984252,
          "duration": 0.1070000000000002
        },
        {
          "name": "D#7",
          "midi": 99,
          "time": 7.782999999999959,
          "velocity": 0.5039370078740157,
          "duration": 0.017999999999999794
        },
        {
          "name": "D#7",
          "midi": 99,
          "time": 7.782999999999959,
          "velocity": 0.5039370078740157,
          "duration": 0.017999999999999794
        },
        {
          "name": "B6",
          "midi": 95,
          "time": 7.8119999999999585,
          "velocity": 0.49606299212598426,
          "duration": 0.02800000000000047
        },
        {
          "name": "B6",
          "midi": 95,
          "time": 7.8119999999999585,
          "velocity": 0.49606299212598426,
          "duration": 0.02800000000000047
        },
        {
          "name": "G6",
          "midi": 91,
          "time": 7.851999999999959,
          "velocity": 0.5118110236220472,
          "duration": 0.03699999999999992
        },
        {
          "name": "G6",
          "midi": 91,
          "time": 7.851999999999959,
          "velocity": 0.5118110236220472,
          "duration": 0.03699999999999992
        },
        {
          "name": "F#3",
          "midi": 54,
          "time": 7.870999999999959,
          "velocity": 0.6220472440944882,
          "duration": 0.18500000000000139
        },
        {
          "name": "F#3",
          "midi": 54,
          "time": 7.870999999999959,
          "velocity": 0.6220472440944882,
          "duration": 0.18500000000000139
        },
        {
          "name": "C5",
          "midi": 72,
          "time": 7.890999999999958,
          "velocity": 0.5433070866141733,
          "duration": 0.03699999999999992
        },
        {
          "name": "C5",
          "midi": 72,
          "time": 7.890999999999958,
          "velocity": 0.5433070866141733,
          "duration": 0.03699999999999992
        },
        {
          "name": "E7",
          "midi": 100,
          "time": 7.900999999999958,
          "velocity": 0.5275590551181102,
          "duration": 0.017999999999999794
        },
        {
          "name": "E7",
          "midi": 100,
          "time": 7.900999999999958,
          "velocity": 0.5275590551181102,
          "duration": 0.017999999999999794
        },
        {
          "name": "G6",
          "midi": 91,
          "time": 7.930999999999958,
          "velocity": 0.5196850393700787,
          "duration": 0.018000000000000682
        },
        {
          "name": "G6",
          "midi": 91,
          "time": 7.930999999999958,
          "velocity": 0.5196850393700787,
          "duration": 0.018000000000000682
        },
        {
          "name": "B5",
          "midi": 83,
          "time": 7.939999999999959,
          "velocity": 0.5275590551181102,
          "duration": 0.02800000000000047
        },
        {
          "name": "B5",
          "midi": 83,
          "time": 7.939999999999959,
          "velocity": 0.5275590551181102,
          "duration": 0.02800000000000047
        },
        {
          "name": "D#7",
          "midi": 99,
          "time": 7.959999999999959,
          "velocity": 0.4881889763779528,
          "duration": 0.03699999999999992
        },
        {
          "name": "D#7",
          "midi": 99,
          "time": 7.959999999999959,
          "velocity": 0.4881889763779528,
          "duration": 0.03699999999999992
        },
        {
          "name": "C5",
          "midi": 72,
          "time": 8.009999999999959,
          "velocity": 0.5275590551181102,
          "duration": 0.018000000000000682
        },
        {
          "name": "A4",
          "midi": 69,
          "time": 8.009999999999959,
          "velocity": 0.5590551181102362,
          "duration": 0.12600000000000122
        },
        {
          "name": "C5",
          "midi": 72,
          "time": 8.009999999999959,
          "velocity": 0.5275590551181102,
          "duration": 0.018000000000000682
        },
        {
          "name": "A4",
          "midi": 69,
          "time": 8.009999999999959,
          "velocity": 0.5590551181102362,
          "duration": 0.12600000000000122
        },
        {
          "name": "A5",
          "midi": 81,
          "time": 8.05899999999996,
          "velocity": 0.48031496062992124,
          "duration": 0.07699999999999996
        },
        {
          "name": "A5",
          "midi": 81,
          "time": 8.05899999999996,
          "velocity": 0.48031496062992124,
          "duration": 0.07699999999999996
        },
        {
          "name": "G3",
          "midi": 55,
          "time": 8.06899999999996,
          "velocity": 0.6062992125984252,
          "duration": 0.352999999999998
        },
        {
          "name": "G3",
          "midi": 55,
          "time": 8.06899999999996,
          "velocity": 0.6062992125984252,
          "duration": 0.352999999999998
        },
        {
          "name": "C5",
          "midi": 72,
          "time": 8.11799999999996,
          "velocity": 0.5354330708661418,
          "duration": 0.3329999999999984
        },
        {
          "name": "C5",
          "midi": 72,
          "time": 8.11799999999996,
          "velocity": 0.5354330708661418,
          "duration": 0.3329999999999984
        },
        {
          "name": "B4",
          "midi": 71,
          "time": 8.14799999999996,
          "velocity": 0.5039370078740157,
          "duration": 0.007999999999999119
        },
        {
          "name": "E7",
          "midi": 100,
          "time": 8.14799999999996,
          "velocity": 0.5275590551181102,
          "duration": 0.046999999999997044
        },
        {
          "name": "B4",
          "midi": 71,
          "time": 8.14799999999996,
          "velocity": 0.5039370078740157,
          "duration": 0.007999999999999119
        },
        {
          "name": "E7",
          "midi": 100,
          "time": 8.14799999999996,
          "velocity": 0.5275590551181102,
          "duration": 0.046999999999997044
        },
        {
          "name": "A#3",
          "midi": 58,
          "time": 8.166999999999959,
          "velocity": 0.49606299212598426,
          "duration": 0.05699999999999861
        },
        {
          "name": "A#3",
          "midi": 58,
          "time": 8.166999999999959,
          "velocity": 0.49606299212598426,
          "duration": 0.05699999999999861
        },
        {
          "name": "A4",
          "midi": 69,
          "time": 8.186999999999959,
          "velocity": 0.6062992125984252,
          "duration": 0.24499999999999922
        },
        {
          "name": "A4",
          "midi": 69,
          "time": 8.186999999999959,
          "velocity": 0.6062992125984252,
          "duration": 0.24499999999999922
        },
        {
          "name": "A5",
          "midi": 81,
          "time": 8.206999999999958,
          "velocity": 0.5275590551181102,
          "duration": 0.036999999999999034
        },
        {
          "name": "A5",
          "midi": 81,
          "time": 8.206999999999958,
          "velocity": 0.5275590551181102,
          "duration": 0.036999999999999034
        },
        {
          "name": "E7",
          "midi": 100,
          "time": 8.235999999999958,
          "velocity": 0.49606299212598426,
          "duration": 0.027999999999998693
        },
        {
          "name": "E7",
          "midi": 100,
          "time": 8.235999999999958,
          "velocity": 0.49606299212598426,
          "duration": 0.027999999999998693
        },
        {
          "name": "C4",
          "midi": 60,
          "time": 8.255999999999958,
          "velocity": 0.5118110236220472,
          "duration": 0.08699999999999974
        },
        {
          "name": "C4",
          "midi": 60,
          "time": 8.255999999999958,
          "velocity": 0.5118110236220472,
          "duration": 0.08699999999999974
        },
        {
          "name": "F#4",
          "midi": 66,
          "time": 8.275999999999957,
          "velocity": 0.6456692913385826,
          "duration": 0.1070000000000011
        },
        {
          "name": "F#4",
          "midi": 66,
          "time": 8.275999999999957,
          "velocity": 0.6456692913385826,
          "duration": 0.1070000000000011
        },
        {
          "name": "A5",
          "midi": 81,
          "time": 8.354999999999958,
          "velocity": 0.4881889763779528,
          "duration": 0.057000000000000384
        },
        {
          "name": "A5",
          "midi": 81,
          "time": 8.354999999999958,
          "velocity": 0.4881889763779528,
          "duration": 0.057000000000000384
        },
        {
          "name": "C#7",
          "midi": 97,
          "time": 8.403999999999959,
          "velocity": 0.49606299212598426,
          "duration": 0.06700000000000017
        },
        {
          "name": "C#7",
          "midi": 97,
          "time": 8.403999999999959,
          "velocity": 0.49606299212598426,
          "duration": 0.06700000000000017
        },
        {
          "name": "E3",
          "midi": 52,
          "time": 8.413999999999959,
          "velocity": 0.5118110236220472,
          "duration": 0.007999999999999119
        },
        {
          "name": "E3",
          "midi": 52,
          "time": 8.413999999999959,
          "velocity": 0.5118110236220472,
          "duration": 0.007999999999999119
        },
        {
          "name": "F4",
          "midi": 65,
          "time": 8.423999999999959,
          "velocity": 0.5039370078740157,
          "duration": 0.057000000000000384
        },
        {
          "name": "F4",
          "midi": 65,
          "time": 8.423999999999959,
          "velocity": 0.5039370078740157,
          "duration": 0.057000000000000384
        },
        {
          "name": "A5",
          "midi": 81,
          "time": 8.433999999999958,
          "velocity": 0.5196850393700787,
          "duration": 0.13600000000000279
        },
        {
          "name": "A5",
          "midi": 81,
          "time": 8.433999999999958,
          "velocity": 0.5196850393700787,
          "duration": 0.13600000000000279
        },
        {
          "name": "F3",
          "midi": 53,
          "time": 8.443999999999958,
          "velocity": 0.9291338582677166,
          "duration": 1.1919999999999948
        },
        {
          "name": "F3",
          "midi": 53,
          "time": 8.443999999999958,
          "velocity": 0.9291338582677166,
          "duration": 1.1919999999999948
        },
        {
          "name": "A4",
          "midi": 69,
          "time": 8.452999999999959,
          "velocity": 0.6456692913385826,
          "duration": 0.13600000000000279
        },
        {
          "name": "A4",
          "midi": 69,
          "time": 8.452999999999959,
          "velocity": 0.6456692913385826,
          "duration": 0.13600000000000279
        },
        {
          "name": "C#7",
          "midi": 97,
          "time": 8.47299999999996,
          "velocity": 0.5039370078740157,
          "duration": 0.17600000000000016
        },
        {
          "name": "C#7",
          "midi": 97,
          "time": 8.47299999999996,
          "velocity": 0.5039370078740157,
          "duration": 0.17600000000000016
        },
        {
          "name": "E7",
          "midi": 100,
          "time": 8.48299999999996,
          "velocity": 0.4881889763779528,
          "duration": 0.057000000000000384
        },
        {
          "name": "E7",
          "midi": 100,
          "time": 8.48299999999996,
          "velocity": 0.4881889763779528,
          "duration": 0.057000000000000384
        },
        {
          "name": "A3",
          "midi": 57,
          "time": 8.49299999999996,
          "velocity": 0.5118110236220472,
          "duration": 0.16600000000000037
        },
        {
          "name": "A3",
          "midi": 57,
          "time": 8.49299999999996,
          "velocity": 0.5118110236220472,
          "duration": 0.16600000000000037
        },
        {
          "name": "A5",
          "midi": 81,
          "time": 8.55199999999996,
          "velocity": 0.4645669291338583,
          "duration": 0.02800000000000047
        },
        {
          "name": "A5",
          "midi": 81,
          "time": 8.55199999999996,
          "velocity": 0.4645669291338583,
          "duration": 0.02800000000000047
        },
        {
          "name": "E7",
          "midi": 100,
          "time": 8.581999999999962,
          "velocity": 0.47244094488188976,
          "duration": 0.036999999999999034
        },
        {
          "name": "E7",
          "midi": 100,
          "time": 8.581999999999962,
          "velocity": 0.47244094488188976,
          "duration": 0.036999999999999034
        },
        {
          "name": "C5",
          "midi": 72,
          "time": 8.590999999999962,
          "velocity": 0.48031496062992124,
          "duration": 0.04699999999999882
        },
        {
          "name": "C5",
          "midi": 72,
          "time": 8.590999999999962,
          "velocity": 0.48031496062992124,
          "duration": 0.04699999999999882
        },
        {
          "name": "A5",
          "midi": 81,
          "time": 8.600999999999962,
          "velocity": 0.4645669291338583,
          "duration": 0.007999999999999119
        },
        {
          "name": "A5",
          "midi": 81,
          "time": 8.600999999999962,
          "velocity": 0.4645669291338583,
          "duration": 0.007999999999999119
        },
        {
          "name": "A6",
          "midi": 93,
          "time": 8.620999999999961,
          "velocity": 0.47244094488188976,
          "duration": 0.007999999999999119
        },
        {
          "name": "A6",
          "midi": 93,
          "time": 8.620999999999961,
          "velocity": 0.47244094488188976,
          "duration": 0.007999999999999119
        },
        {
          "name": "A4",
          "midi": 69,
          "time": 8.630999999999961,
          "velocity": 0.6535433070866141,
          "duration": 0.5600000000000005
        },
        {
          "name": "A4",
          "midi": 69,
          "time": 8.630999999999961,
          "velocity": 0.6535433070866141,
          "duration": 0.5600000000000005
        },
        {
          "name": "A5",
          "midi": 81,
          "time": 8.640999999999961,
          "velocity": 0.5196850393700787,
          "duration": 0.046999999999997044
        },
        {
          "name": "A5",
          "midi": 81,
          "time": 8.640999999999961,
          "velocity": 0.5196850393700787,
          "duration": 0.046999999999997044
        },
        {
          "name": "F#4",
          "midi": 66,
          "time": 8.65099999999996,
          "velocity": 0.48031496062992124,
          "duration": 0.017999999999998906
        },
        {
          "name": "F#4",
          "midi": 66,
          "time": 8.65099999999996,
          "velocity": 0.48031496062992124,
          "duration": 0.017999999999998906
        },
        {
          "name": "C4",
          "midi": 60,
          "time": 8.66099999999996,
          "velocity": 0.48031496062992124,
          "duration": 0.017999999999998906
        },
        {
          "name": "C4",
          "midi": 60,
          "time": 8.66099999999996,
          "velocity": 0.48031496062992124,
          "duration": 0.017999999999998906
        },
        {
          "name": "E6",
          "midi": 88,
          "time": 8.669999999999959,
          "velocity": 0.4881889763779528,
          "duration": 0.04699999999999882
        },
        {
          "name": "E6",
          "midi": 88,
          "time": 8.669999999999959,
          "velocity": 0.4881889763779528,
          "duration": 0.04699999999999882
        },
        {
          "name": "E7",
          "midi": 100,
          "time": 8.679999999999959,
          "velocity": 0.48031496062992124,
          "duration": 0.017999999999998906
        },
        {
          "name": "E7",
          "midi": 100,
          "time": 8.679999999999959,
          "velocity": 0.48031496062992124,
          "duration": 0.017999999999998906
        },
        {
          "name": "C#7",
          "midi": 97,
          "time": 8.689999999999959,
          "velocity": 0.48031496062992124,
          "duration": 0.017999999999998906
        },
        {
          "name": "C#7",
          "midi": 97,
          "time": 8.689999999999959,
          "velocity": 0.48031496062992124,
          "duration": 0.017999999999998906
        },
        {
          "name": "C5",
          "midi": 72,
          "time": 8.699999999999958,
          "velocity": 0.48031496062992124,
          "duration": 0.39300000000000246
        },
        {
          "name": "C5",
          "midi": 72,
          "time": 8.699999999999958,
          "velocity": 0.48031496062992124,
          "duration": 0.39300000000000246
        },
        {
          "name": "C#7",
          "midi": 97,
          "time": 8.709999999999958,
          "velocity": 0.5275590551181102,
          "duration": 0.08699999999999974
        },
        {
          "name": "C#7",
          "midi": 97,
          "time": 8.709999999999958,
          "velocity": 0.5275590551181102,
          "duration": 0.08699999999999974
        },
        {
          "name": "A5",
          "midi": 81,
          "time": 8.719999999999958,
          "velocity": 0.6062992125984252,
          "duration": 0.1070000000000011
        },
        {
          "name": "A5",
          "midi": 81,
          "time": 8.719999999999958,
          "velocity": 0.6062992125984252,
          "duration": 0.1070000000000011
        },
        {
          "name": "A6",
          "midi": 93,
          "time": 8.748999999999958,
          "velocity": 0.5039370078740157,
          "duration": 0.08700000000000152
        },
        {
          "name": "A6",
          "midi": 93,
          "time": 8.748999999999958,
          "velocity": 0.5039370078740157,
          "duration": 0.08700000000000152
        },
        {
          "name": "C#7",
          "midi": 97,
          "time": 8.817999999999959,
          "velocity": 0.5118110236220472,
          "duration": 0.06700000000000017
        },
        {
          "name": "C#7",
          "midi": 97,
          "time": 8.817999999999959,
          "velocity": 0.5118110236220472,
          "duration": 0.06700000000000017
        },
        {
          "name": "A3",
          "midi": 57,
          "time": 8.83799999999996,
          "velocity": 0.49606299212598426,
          "duration": 0.12599999999999945
        },
        {
          "name": "A3",
          "midi": 57,
          "time": 8.83799999999996,
          "velocity": 0.49606299212598426,
          "duration": 0.12599999999999945
        },
        {
          "name": "A5",
          "midi": 81,
          "time": 8.87799999999996,
          "velocity": 0.47244094488188976,
          "duration": 0.06700000000000017
        },
        {
          "name": "A5",
          "midi": 81,
          "time": 8.87799999999996,
          "velocity": 0.47244094488188976,
          "duration": 0.06700000000000017
        },
        {
          "name": "A6",
          "midi": 93,
          "time": 8.89699999999996,
          "velocity": 0.4645669291338583,
          "duration": 0.03700000000000081
        },
        {
          "name": "A6",
          "midi": 93,
          "time": 8.89699999999996,
          "velocity": 0.4645669291338583,
          "duration": 0.03700000000000081
        },
        {
          "name": "F4",
          "midi": 65,
          "time": 8.94699999999996,
          "velocity": 0.5354330708661418,
          "duration": 0.2940000000000005
        },
        {
          "name": "F4",
          "midi": 65,
          "time": 8.94699999999996,
          "velocity": 0.5354330708661418,
          "duration": 0.2940000000000005
        },
        {
          "name": "C#7",
          "midi": 97,
          "time": 8.95599999999996,
          "velocity": 0.5039370078740157,
          "duration": 0.0470000000000006
        },
        {
          "name": "C#7",
          "midi": 97,
          "time": 8.95599999999996,
          "velocity": 0.5039370078740157,
          "duration": 0.0470000000000006
        },
        {
          "name": "A6",
          "midi": 93,
          "time": 8.97599999999996,
          "velocity": 0.47244094488188976,
          "duration": 0.018000000000000682
        },
        {
          "name": "A6",
          "midi": 93,
          "time": 8.97599999999996,
          "velocity": 0.47244094488188976,
          "duration": 0.018000000000000682
        },
        {
          "name": "C4",
          "midi": 60,
          "time": 9.005999999999961,
          "velocity": 0.44881889763779526,
          "duration": 0.02800000000000047
        },
        {
          "name": "C4",
          "midi": 60,
          "time": 9.005999999999961,
          "velocity": 0.44881889763779526,
          "duration": 0.02800000000000047
        },
        {
          "name": "A5",
          "midi": 81,
          "time": 9.015999999999961,
          "velocity": 0.48031496062992124,
          "duration": 0.1460000000000008
        },
        {
          "name": "A5",
          "midi": 81,
          "time": 9.015999999999961,
          "velocity": 0.48031496062992124,
          "duration": 0.1460000000000008
        },
        {
          "name": "C#7",
          "midi": 97,
          "time": 9.04499999999996,
          "velocity": 0.4645669291338583,
          "duration": 0.06700000000000017
        },
        {
          "name": "C#7",
          "midi": 97,
          "time": 9.04499999999996,
          "velocity": 0.4645669291338583,
          "duration": 0.06700000000000017
        },
        {
          "name": "A3",
          "midi": 57,
          "time": 9.113999999999962,
          "velocity": 0.5354330708661418,
          "duration": 0.11599999999999966
        },
        {
          "name": "A3",
          "midi": 57,
          "time": 9.113999999999962,
          "velocity": 0.5354330708661418,
          "duration": 0.11599999999999966
        },
        {
          "name": "C4",
          "midi": 60,
          "time": 9.133999999999961,
          "velocity": 0.5118110236220472,
          "duration": 0.06700000000000017
        },
        {
          "name": "C4",
          "midi": 60,
          "time": 9.133999999999961,
          "velocity": 0.5118110236220472,
          "duration": 0.06700000000000017
        },
        {
          "name": "G4",
          "midi": 67,
          "time": 9.182999999999963,
          "velocity": 0.5905511811023622,
          "duration": 0.1159999999999961
        },
        {
          "name": "G4",
          "midi": 67,
          "time": 9.182999999999963,
          "velocity": 0.5905511811023622,
          "duration": 0.1159999999999961
        },
        {
          "name": "C5",
          "midi": 72,
          "time": 9.202999999999962,
          "velocity": 0.5275590551181102,
          "duration": 0.09699999999999598
        },
        {
          "name": "C5",
          "midi": 72,
          "time": 9.202999999999962,
          "velocity": 0.5275590551181102,
          "duration": 0.09699999999999598
        },
        {
          "name": "A5",
          "midi": 81,
          "time": 9.222999999999962,
          "velocity": 0.5118110236220472,
          "duration": 0.046999999999997044
        },
        {
          "name": "A5",
          "midi": 81,
          "time": 9.222999999999962,
          "velocity": 0.5118110236220472,
          "duration": 0.046999999999997044
        },
        {
          "name": "G6",
          "midi": 91,
          "time": 9.242999999999961,
          "velocity": 0.5039370078740157,
          "duration": 0.007999999999999119
        },
        {
          "name": "G6",
          "midi": 91,
          "time": 9.242999999999961,
          "velocity": 0.5039370078740157,
          "duration": 0.007999999999999119
        },
        {
          "name": "D2",
          "midi": 38,
          "time": 9.25199999999996,
          "velocity": 0.49606299212598426,
          "duration": 0.007999999999999119
        },
        {
          "name": "D2",
          "midi": 38,
          "time": 9.25199999999996,
          "velocity": 0.49606299212598426,
          "duration": 0.007999999999999119
        },
        {
          "name": "G5",
          "midi": 79,
          "time": 9.27199999999996,
          "velocity": 0.49606299212598426,
          "duration": 0.007999999999999119
        },
        {
          "name": "G5",
          "midi": 79,
          "time": 9.27199999999996,
          "velocity": 0.49606299212598426,
          "duration": 0.007999999999999119
        },
        {
          "name": "F4",
          "midi": 65,
          "time": 9.28199999999996,
          "velocity": 0.5590551181102362,
          "duration": 0.1259999999999959
        },
        {
          "name": "D2",
          "midi": 38,
          "time": 9.28199999999996,
          "velocity": 0.5039370078740157,
          "duration": 0.10699999999999754
        },
        {
          "name": "F4",
          "midi": 65,
          "time": 9.28199999999996,
          "velocity": 0.5590551181102362,
          "duration": 0.1259999999999959
        },
        {
          "name": "D2",
          "midi": 38,
          "time": 9.28199999999996,
          "velocity": 0.5039370078740157,
          "duration": 0.10699999999999754
        },
        {
          "name": "A3",
          "midi": 57,
          "time": 9.291999999999959,
          "velocity": 0.5590551181102362,
          "duration": 0.15599999999999703
        },
        {
          "name": "A3",
          "midi": 57,
          "time": 9.291999999999959,
          "velocity": 0.5590551181102362,
          "duration": 0.15599999999999703
        },
        {
          "name": "A4",
          "midi": 69,
          "time": 9.311999999999959,
          "velocity": 0.5196850393700787,
          "duration": 0.02800000000000047
        },
        {
          "name": "C4",
          "midi": 60,
          "time": 9.311999999999959,
          "velocity": 0.5275590551181102,
          "duration": 0.04699999999999882
        },
        {
          "name": "A4",
          "midi": 69,
          "time": 9.311999999999959,
          "velocity": 0.5196850393700787,
          "duration": 0.02800000000000047
        },
        {
          "name": "C4",
          "midi": 60,
          "time": 9.311999999999959,
          "velocity": 0.5275590551181102,
          "duration": 0.04699999999999882
        },
        {
          "name": "C5",
          "midi": 72,
          "time": 9.350999999999958,
          "velocity": 0.4881889763779528,
          "duration": 0.11599999999999788
        },
        {
          "name": "C5",
          "midi": 72,
          "time": 9.350999999999958,
          "velocity": 0.4881889763779528,
          "duration": 0.11599999999999788
        },
        {
          "name": "G4",
          "midi": 67,
          "time": 9.380999999999958,
          "velocity": 0.48031496062992124,
          "duration": 0.017999999999998906
        },
        {
          "name": "G4",
          "midi": 67,
          "time": 9.380999999999958,
          "velocity": 0.48031496062992124,
          "duration": 0.017999999999998906
        },
        {
          "name": "D3",
          "midi": 50,
          "time": 9.399999999999956,
          "velocity": 0.49606299212598426,
          "duration": 0.017999999999998906
        },
        {
          "name": "D3",
          "midi": 50,
          "time": 9.399999999999956,
          "velocity": 0.49606299212598426,
          "duration": 0.017999999999998906
        },
        {
          "name": "D2",
          "midi": 38,
          "time": 9.409999999999956,
          "velocity": 0.4645669291338583,
          "duration": 0.06700000000000017
        },
        {
          "name": "D2",
          "midi": 38,
          "time": 9.409999999999956,
          "velocity": 0.4645669291338583,
          "duration": 0.06700000000000017
        },
        {
          "name": "G5",
          "midi": 79,
          "time": 9.429999999999955,
          "velocity": 0.4881889763779528,
          "duration": 0.057000000000000384
        },
        {
          "name": "G5",
          "midi": 79,
          "time": 9.429999999999955,
          "velocity": 0.4881889763779528,
          "duration": 0.057000000000000384
        },
        {
          "name": "A4",
          "midi": 69,
          "time": 9.449999999999957,
          "velocity": 0.4566929133858268,
          "duration": 0.017999999999998906
        },
        {
          "name": "A4",
          "midi": 69,
          "time": 9.449999999999957,
          "velocity": 0.4566929133858268,
          "duration": 0.017999999999998906
        },
        {
          "name": "F4",
          "midi": 65,
          "time": 9.459999999999956,
          "velocity": 0.4645669291338583,
          "duration": 0.027999999999998693
        },
        {
          "name": "F4",
          "midi": 65,
          "time": 9.459999999999956,
          "velocity": 0.4645669291338583,
          "duration": 0.027999999999998693
        },
        {
          "name": "G4",
          "midi": 67,
          "time": 9.478999999999957,
          "velocity": 0.6062992125984252,
          "duration": 0.2249999999999961
        },
        {
          "name": "G4",
          "midi": 67,
          "time": 9.478999999999957,
          "velocity": 0.6062992125984252,
          "duration": 0.2249999999999961
        },
        {
          "name": "A3",
          "midi": 57,
          "time": 9.488999999999955,
          "velocity": 0.5984251968503937,
          "duration": 0.18499999999999694
        },
        {
          "name": "C5",
          "midi": 72,
          "time": 9.488999999999955,
          "velocity": 0.49606299212598426,
          "duration": 0.06700000000000017
        },
        {
          "name": "A3",
          "midi": 57,
          "time": 9.488999999999955,
          "velocity": 0.5984251968503937,
          "duration": 0.18499999999999694
        },
        {
          "name": "C5",
          "midi": 72,
          "time": 9.488999999999955,
          "velocity": 0.49606299212598426,
          "duration": 0.06700000000000017
        },
        {
          "name": "D6",
          "midi": 86,
          "time": 9.498999999999954,
          "velocity": 0.4881889763779528,
          "duration": 0.027999999999998693
        },
        {
          "name": "D6",
          "midi": 86,
          "time": 9.498999999999954,
          "velocity": 0.4881889763779528,
          "duration": 0.027999999999998693
        },
        {
          "name": "F5",
          "midi": 77,
          "time": 9.508999999999954,
          "velocity": 0.4645669291338583,
          "duration": 0.007999999999999119
        },
        {
          "name": "F5",
          "midi": 77,
          "time": 9.508999999999954,
          "velocity": 0.4645669291338583,
          "duration": 0.007999999999999119
        },
        {
          "name": "G5",
          "midi": 79,
          "time": 9.528999999999954,
          "velocity": 0.5039370078740157,
          "duration": 0.06700000000000017
        },
        {
          "name": "G5",
          "midi": 79,
          "time": 9.528999999999954,
          "velocity": 0.5039370078740157,
          "duration": 0.06700000000000017
        },
        {
          "name": "G6",
          "midi": 91,
          "time": 9.537999999999954,
          "velocity": 0.5118110236220472,
          "duration": 0.03700000000000081
        },
        {
          "name": "G6",
          "midi": 91,
          "time": 9.537999999999954,
          "velocity": 0.5118110236220472,
          "duration": 0.03700000000000081
        },
        {
          "name": "B6",
          "midi": 95,
          "time": 9.567999999999955,
          "velocity": 0.49606299212598426,
          "duration": 0.027999999999998693
        },
        {
          "name": "B6",
          "midi": 95,
          "time": 9.567999999999955,
          "velocity": 0.49606299212598426,
          "duration": 0.027999999999998693
        },
        {
          "name": "F4",
          "midi": 65,
          "time": 9.587999999999955,
          "velocity": 0.5118110236220472,
          "duration": 0.10699999999999754
        },
        {
          "name": "F4",
          "midi": 65,
          "time": 9.587999999999955,
          "velocity": 0.5118110236220472,
          "duration": 0.10699999999999754
        },
        {
          "name": "D7",
          "midi": 98,
          "time": 9.606999999999953,
          "velocity": 0.48031496062992124,
          "duration": 0.007999999999999119
        },
        {
          "name": "D7",
          "midi": 98,
          "time": 9.606999999999953,
          "velocity": 0.48031496062992124,
          "duration": 0.007999999999999119
        },
        {
          "name": "G6",
          "midi": 91,
          "time": 9.616999999999953,
          "velocity": 0.49606299212598426,
          "duration": 0.04699999999999882
        },
        {
          "name": "G6",
          "midi": 91,
          "time": 9.616999999999953,
          "velocity": 0.49606299212598426,
          "duration": 0.04699999999999882
        },
        {
          "name": "F7",
          "midi": 101,
          "time": 9.626999999999953,
          "velocity": 0.5039370078740157,
          "duration": 0.036999999999999034
        },
        {
          "name": "F7",
          "midi": 101,
          "time": 9.626999999999953,
          "velocity": 0.5039370078740157,
          "duration": 0.036999999999999034
        },
        {
          "name": "F3",
          "midi": 53,
          "time": 9.646999999999952,
          "velocity": 0.7874015748031497,
          "duration": 0.1759999999999966
        },
        {
          "name": "F3",
          "midi": 53,
          "time": 9.646999999999952,
          "velocity": 0.7874015748031497,
          "duration": 0.1759999999999966
        },
        {
          "name": "B6",
          "midi": 95,
          "time": 9.676999999999952,
          "velocity": 0.5275590551181102,
          "duration": 0.03700000000000081
        },
        {
          "name": "D7",
          "midi": 98,
          "time": 9.676999999999952,
          "velocity": 0.5118110236220472,
          "duration": 0.0470000000000006
        },
        {
          "name": "B6",
          "midi": 95,
          "time": 9.676999999999952,
          "velocity": 0.5275590551181102,
          "duration": 0.03700000000000081
        },
        {
          "name": "D7",
          "midi": 98,
          "time": 9.676999999999952,
          "velocity": 0.5118110236220472,
          "duration": 0.0470000000000006
        },
        {
          "name": "G6",
          "midi": 91,
          "time": 9.685999999999952,
          "velocity": 0.5118110236220472,
          "duration": 0.03700000000000081
        },
        {
          "name": "G6",
          "midi": 91,
          "time": 9.685999999999952,
          "velocity": 0.5118110236220472,
          "duration": 0.03700000000000081
        },
        {
          "name": "C5",
          "midi": 72,
          "time": 9.705999999999953,
          "velocity": 0.48031496062992124,
          "duration": 0.007999999999999119
        },
        {
          "name": "C5",
          "midi": 72,
          "time": 9.705999999999953,
          "velocity": 0.48031496062992124,
          "duration": 0.007999999999999119
        },
        {
          "name": "F4",
          "midi": 65,
          "time": 9.715999999999953,
          "velocity": 0.5590551181102362,
          "duration": 0.8459999999999965
        },
        {
          "name": "F4",
          "midi": 65,
          "time": 9.715999999999953,
          "velocity": 0.5590551181102362,
          "duration": 0.8459999999999965
        },
        {
          "name": "F7",
          "midi": 101,
          "time": 9.725999999999953,
          "velocity": 0.49606299212598426,
          "duration": 0.05699999999999683
        },
        {
          "name": "A3",
          "midi": 57,
          "time": 9.725999999999953,
          "velocity": 0.5354330708661418,
          "duration": 0.036999999999999034
        },
        {
          "name": "F7",
          "midi": 101,
          "time": 9.725999999999953,
          "velocity": 0.49606299212598426,
          "duration": 0.05699999999999683
        },
        {
          "name": "A3",
          "midi": 57,
          "time": 9.725999999999953,
          "velocity": 0.5354330708661418,
          "duration": 0.036999999999999034
        },
        {
          "name": "C#5",
          "midi": 73,
          "time": 9.735999999999953,
          "velocity": 0.48031496062992124,
          "duration": 0.027999999999998693
        },
        {
          "name": "C#5",
          "midi": 73,
          "time": 9.735999999999953,
          "velocity": 0.48031496062992124,
          "duration": 0.027999999999998693
        },
        {
          "name": "G4",
          "midi": 67,
          "time": 9.745999999999952,
          "velocity": 0.5275590551181102,
          "duration": 0.10699999999999577
        },
        {
          "name": "G4",
          "midi": 67,
          "time": 9.745999999999952,
          "velocity": 0.5275590551181102,
          "duration": 0.10699999999999577
        },
        {
          "name": "A3",
          "midi": 57,
          "time": 9.77499999999995,
          "velocity": 0.6299212598425197,
          "duration": 0.05699999999999861
        },
        {
          "name": "A3",
          "midi": 57,
          "time": 9.77499999999995,
          "velocity": 0.6299212598425197,
          "duration": 0.05699999999999861
        },
        {
          "name": "G#4",
          "midi": 68,
          "time": 9.78499999999995,
          "velocity": 0.4881889763779528,
          "duration": 0.007999999999999119
        },
        {
          "name": "G#4",
          "midi": 68,
          "time": 9.78499999999995,
          "velocity": 0.4881889763779528,
          "duration": 0.007999999999999119
        },
        {
          "name": "C#5",
          "midi": 73,
          "time": 9.80499999999995,
          "velocity": 0.5118110236220472,
          "duration": 0.08699999999999619
        },
        {
          "name": "C#5",
          "midi": 73,
          "time": 9.80499999999995,
          "velocity": 0.5118110236220472,
          "duration": 0.08699999999999619
        },
        {
          "name": "D7",
          "midi": 98,
          "time": 9.81499999999995,
          "velocity": 0.48031496062992124,
          "duration": 0.007999999999999119
        },
        {
          "name": "D7",
          "midi": 98,
          "time": 9.81499999999995,
          "velocity": 0.48031496062992124,
          "duration": 0.007999999999999119
        },
        {
          "name": "C5",
          "midi": 72,
          "time": 9.83399999999995,
          "velocity": 0.5039370078740157,
          "duration": 0.017999999999998906
        },
        {
          "name": "C5",
          "midi": 72,
          "time": 9.83399999999995,
          "velocity": 0.5039370078740157,
          "duration": 0.017999999999998906
        },
        {
          "name": "D5",
          "midi": 74,
          "time": 9.84399999999995,
          "velocity": 0.6062992125984252,
          "duration": 0.18499999999999694
        },
        {
          "name": "G#3",
          "midi": 56,
          "time": 9.84399999999995,
          "velocity": 0.7795275590551181,
          "duration": 0.03699999999999726
        },
        {
          "name": "D5",
          "midi": 74,
          "time": 9.84399999999995,
          "velocity": 0.6062992125984252,
          "duration": 0.18499999999999694
        },
        {
          "name": "G#3",
          "midi": 56,
          "time": 9.84399999999995,
          "velocity": 0.7795275590551181,
          "duration": 0.03699999999999726
        },
        {
          "name": "D7",
          "midi": 98,
          "time": 9.863999999999947,
          "velocity": 0.5196850393700787,
          "duration": 0.03799999999999848
        },
        {
          "name": "D7",
          "midi": 98,
          "time": 9.863999999999947,
          "velocity": 0.5196850393700787,
          "duration": 0.03799999999999848
        },
        {
          "name": "D7",
          "midi": 98,
          "time": 9.883999999999947,
          "velocity": 0.49606299212598426,
          "duration": 0.07699999999999996
        },
        {
          "name": "D7",
          "midi": 98,
          "time": 9.883999999999947,
          "velocity": 0.49606299212598426,
          "duration": 0.07699999999999996
        },
        {
          "name": "A3",
          "midi": 57,
          "time": 9.893999999999947,
          "velocity": 0.6929133858267716,
          "duration": 0.027999999999998693
        },
        {
          "name": "A3",
          "midi": 57,
          "time": 9.893999999999947,
          "velocity": 0.6929133858267716,
          "duration": 0.027999999999998693
        },
        {
          "name": "D6",
          "midi": 86,
          "time": 9.912999999999945,
          "velocity": 0.48031496062992124,
          "duration": 0.018000000000000682
        },
        {
          "name": "D6",
          "midi": 86,
          "time": 9.912999999999945,
          "velocity": 0.48031496062992124,
          "duration": 0.018000000000000682
        },
        {
          "name": "A4",
          "midi": 69,
          "time": 9.932999999999947,
          "velocity": 0.48031496062992124,
          "duration": 0.02800000000000047
        },
        {
          "name": "A4",
          "midi": 69,
          "time": 9.932999999999947,
          "velocity": 0.48031496062992124,
          "duration": 0.02800000000000047
        },
        {
          "name": "G3",
          "midi": 55,
          "time": 9.942999999999946,
          "velocity": 0.5984251968503937,
          "duration": 0.17600000000000016
        },
        {
          "name": "G3",
          "midi": 55,
          "time": 9.942999999999946,
          "velocity": 0.5984251968503937,
          "duration": 0.17600000000000016
        },
        {
          "name": "A6",
          "midi": 93,
          "time": 9.971999999999946,
          "velocity": 0.47244094488188976,
          "duration": 0.017999999999998906
        },
        {
          "name": "C#5",
          "midi": 73,
          "time": 9.971999999999946,
          "velocity": 0.5039370078740157,
          "duration": 0.007999999999999119
        },
        {
          "name": "A6",
          "midi": 93,
          "time": 9.971999999999946,
          "velocity": 0.47244094488188976,
          "duration": 0.017999999999998906
        },
        {
          "name": "C#5",
          "midi": 73,
          "time": 9.971999999999946,
          "velocity": 0.5039370078740157,
          "duration": 0.007999999999999119
        },
        {
          "name": "D7",
          "midi": 98,
          "time": 9.981999999999946,
          "velocity": 0.5196850393700787,
          "duration": 0.038000000000000256
        },
        {
          "name": "D7",
          "midi": 98,
          "time": 9.981999999999946,
          "velocity": 0.5196850393700787,
          "duration": 0.038000000000000256
        },
        {
          "name": "D6",
          "midi": 86,
          "time": 9.991999999999946,
          "velocity": 0.5118110236220472,
          "duration": 0.03700000000000081
        },
        {
          "name": "D6",
          "midi": 86,
          "time": 9.991999999999946,
          "velocity": 0.5118110236220472,
          "duration": 0.03700000000000081
        },
        {
          "name": "D7",
          "midi": 98,
          "time": 10.001999999999946,
          "velocity": 0.5118110236220472,
          "duration": 0.08700000000000152
        },
        {
          "name": "D7",
          "midi": 98,
          "time": 10.001999999999946,
          "velocity": 0.5118110236220472,
          "duration": 0.08700000000000152
        },
        {
          "name": "A6",
          "midi": 93,
          "time": 10.031999999999947,
          "velocity": 0.5039370078740157,
          "duration": 0.018000000000000682
        },
        {
          "name": "A6",
          "midi": 93,
          "time": 10.031999999999947,
          "velocity": 0.5039370078740157,
          "duration": 0.018000000000000682
        },
        {
          "name": "D#7",
          "midi": 99,
          "time": 10.040999999999947,
          "velocity": 0.5433070866141733,
          "duration": 0.08699999999999974
        },
        {
          "name": "D5",
          "midi": 74,
          "time": 10.040999999999947,
          "velocity": 0.6535433070866141,
          "duration": 0.0779999999999994
        },
        {
          "name": "D#7",
          "midi": 99,
          "time": 10.040999999999947,
          "velocity": 0.5433070866141733,
          "duration": 0.08699999999999974
        },
        {
          "name": "D5",
          "midi": 74,
          "time": 10.040999999999947,
          "velocity": 0.6535433070866141,
          "duration": 0.0779999999999994
        },
        {
          "name": "A6",
          "midi": 93,
          "time": 10.070999999999948,
          "velocity": 0.48031496062992124,
          "duration": 0.007999999999999119
        },
        {
          "name": "A6",
          "midi": 93,
          "time": 10.070999999999948,
          "velocity": 0.48031496062992124,
          "duration": 0.007999999999999119
        },
        {
          "name": "A3",
          "midi": 57,
          "time": 10.100999999999948,
          "velocity": 0.5433070866141733,
          "duration": 0.09700000000000131
        },
        {
          "name": "A3",
          "midi": 57,
          "time": 10.100999999999948,
          "velocity": 0.5433070866141733,
          "duration": 0.09700000000000131
        },
        {
          "name": "D5",
          "midi": 74,
          "time": 10.110999999999947,
          "velocity": 0.49606299212598426,
          "duration": 0.11500000000000199
        },
        {
          "name": "D5",
          "midi": 74,
          "time": 10.110999999999947,
          "velocity": 0.49606299212598426,
          "duration": 0.11500000000000199
        },
        {
          "name": "A6",
          "midi": 93,
          "time": 10.129999999999947,
          "velocity": 0.4881889763779528,
          "duration": 0.02800000000000047
        },
        {
          "name": "D7",
          "midi": 98,
          "time": 10.129999999999947,
          "velocity": 0.4881889763779528,
          "duration": 0.07700000000000173
        },
        {
          "name": "A6",
          "midi": 93,
          "time": 10.129999999999947,
          "velocity": 0.4881889763779528,
          "duration": 0.02800000000000047
        },
        {
          "name": "D7",
          "midi": 98,
          "time": 10.129999999999947,
          "velocity": 0.4881889763779528,
          "duration": 0.07700000000000173
        },
        {
          "name": "F3",
          "midi": 53,
          "time": 10.159999999999949,
          "velocity": 0.7480314960629921,
          "duration": 1.260999999999985
        },
        {
          "name": "F3",
          "midi": 53,
          "time": 10.159999999999949,
          "velocity": 0.7480314960629921,
          "duration": 1.260999999999985
        },
        {
          "name": "D7",
          "midi": 98,
          "time": 10.169999999999948,
          "velocity": 0.48031496062992124,
          "duration": 0.09700000000000131
        },
        {
          "name": "D7",
          "midi": 98,
          "time": 10.169999999999948,
          "velocity": 0.48031496062992124,
          "duration": 0.09700000000000131
        },
        {
          "name": "D5",
          "midi": 74,
          "time": 10.21899999999995,
          "velocity": 0.6377952755905512,
          "duration": 0.6689999999999934
        },
        {
          "name": "D5",
          "midi": 74,
          "time": 10.21899999999995,
          "velocity": 0.6377952755905512,
          "duration": 0.6689999999999934
        },
        {
          "name": "D7",
          "midi": 98,
          "time": 10.23899999999995,
          "velocity": 0.4645669291338583,
          "duration": 0.06700000000000195
        },
        {
          "name": "A3",
          "midi": 57,
          "time": 10.23899999999995,
          "velocity": 0.5905511811023622,
          "duration": 0.3929999999999989
        },
        {
          "name": "D7",
          "midi": 98,
          "time": 10.23899999999995,
          "velocity": 0.4645669291338583,
          "duration": 0.06700000000000195
        },
        {
          "name": "A3",
          "midi": 57,
          "time": 10.23899999999995,
          "velocity": 0.5905511811023622,
          "duration": 0.3929999999999989
        },
        {
          "name": "D7",
          "midi": 98,
          "time": 10.28799999999995,
          "velocity": 0.47244094488188976,
          "duration": 0.10699999999999932
        },
        {
          "name": "D7",
          "midi": 98,
          "time": 10.28799999999995,
          "velocity": 0.47244094488188976,
          "duration": 0.10699999999999932
        },
        {
          "name": "G4",
          "midi": 67,
          "time": 10.317999999999952,
          "velocity": 0.4566929133858268,
          "duration": 0.018000000000000682
        },
        {
          "name": "G4",
          "midi": 67,
          "time": 10.317999999999952,
          "velocity": 0.4566929133858268,
          "duration": 0.018000000000000682
        },
        {
          "name": "D#5",
          "midi": 75,
          "time": 10.346999999999952,
          "velocity": 0.5826771653543307,
          "duration": 0.007999999999999119
        },
        {
          "name": "D#5",
          "midi": 75,
          "time": 10.346999999999952,
          "velocity": 0.5826771653543307,
          "duration": 0.007999999999999119
        },
        {
          "name": "D#7",
          "midi": 99,
          "time": 10.38699999999995,
          "velocity": 0.47244094488188976,
          "duration": 0.06700000000000017
        },
        {
          "name": "D#7",
          "midi": 99,
          "time": 10.38699999999995,
          "velocity": 0.47244094488188976,
          "duration": 0.06700000000000017
        },
        {
          "name": "A6",
          "midi": 93,
          "time": 10.41599999999995,
          "velocity": 0.4645669291338583,
          "duration": 0.02800000000000047
        },
        {
          "name": "A6",
          "midi": 93,
          "time": 10.41599999999995,
          "velocity": 0.4645669291338583,
          "duration": 0.02800000000000047
        },
        {
          "name": "D6",
          "midi": 86,
          "time": 10.455999999999952,
          "velocity": 0.4645669291338583,
          "duration": 0.017999999999998906
        },
        {
          "name": "D6",
          "midi": 86,
          "time": 10.455999999999952,
          "velocity": 0.4645669291338583,
          "duration": 0.017999999999998906
        },
        {
          "name": "G4",
          "midi": 67,
          "time": 10.465999999999951,
          "velocity": 0.4566929133858268,
          "duration": 0.017999999999998906
        },
        {
          "name": "G4",
          "midi": 67,
          "time": 10.465999999999951,
          "velocity": 0.4566929133858268,
          "duration": 0.017999999999998906
        },
        {
          "name": "D7",
          "midi": 98,
          "time": 10.48499999999995,
          "velocity": 0.48031496062992124,
          "duration": 0.0470000000000006
        },
        {
          "name": "D7",
          "midi": 98,
          "time": 10.48499999999995,
          "velocity": 0.48031496062992124,
          "duration": 0.0470000000000006
        },
        {
          "name": "A6",
          "midi": 93,
          "time": 10.49499999999995,
          "velocity": 0.47244094488188976,
          "duration": 0.03700000000000081
        },
        {
          "name": "A6",
          "midi": 93,
          "time": 10.49499999999995,
          "velocity": 0.47244094488188976,
          "duration": 0.03700000000000081
        },
        {
          "name": "A#6",
          "midi": 94,
          "time": 10.54499999999995,
          "velocity": 0.4881889763779528,
          "duration": 0.027999999999998693
        },
        {
          "name": "B3",
          "midi": 59,
          "time": 10.54499999999995,
          "velocity": 0.6141732283464567,
          "duration": 0.05699999999999683
        },
        {
          "name": "A#6",
          "midi": 94,
          "time": 10.54499999999995,
          "velocity": 0.4881889763779528,
          "duration": 0.027999999999998693
        },
        {
          "name": "B3",
          "midi": 59,
          "time": 10.54499999999995,
          "velocity": 0.6141732283464567,
          "duration": 0.05699999999999683
        },
        {
          "name": "D#7",
          "midi": 99,
          "time": 10.573999999999948,
          "velocity": 0.49606299212598426,
          "duration": 0.007999999999999119
        },
        {
          "name": "D#7",
          "midi": 99,
          "time": 10.573999999999948,
          "velocity": 0.49606299212598426,
          "duration": 0.007999999999999119
        },
        {
          "name": "D#5",
          "midi": 75,
          "time": 10.583999999999948,
          "velocity": 0.5275590551181102,
          "duration": 0.007999999999999119
        },
        {
          "name": "D#5",
          "midi": 75,
          "time": 10.583999999999948,
          "velocity": 0.5275590551181102,
          "duration": 0.007999999999999119
        },
        {
          "name": "F4",
          "midi": 65,
          "time": 10.593999999999948,
          "velocity": 0.6220472440944882,
          "duration": 0.3929999999999936
        },
        {
          "name": "F4",
          "midi": 65,
          "time": 10.593999999999948,
          "velocity": 0.6220472440944882,
          "duration": 0.3929999999999936
        },
        {
          "name": "A6",
          "midi": 93,
          "time": 10.603999999999948,
          "velocity": 0.49606299212598426,
          "duration": 0.057000000000000384
        },
        {
          "name": "A6",
          "midi": 93,
          "time": 10.603999999999948,
          "velocity": 0.49606299212598426,
          "duration": 0.057000000000000384
        },
        {
          "name": "B3",
          "midi": 59,
          "time": 10.622999999999948,
          "velocity": 0.6062992125984252,
          "duration": 0.826999999999984
        },
        {
          "name": "B3",
          "midi": 59,
          "time": 10.622999999999948,
          "velocity": 0.6062992125984252,
          "duration": 0.826999999999984
        },
        {
          "name": "D7",
          "midi": 98,
          "time": 10.652999999999949,
          "velocity": 0.47244094488188976,
          "duration": 0.017999999999998906
        },
        {
          "name": "D7",
          "midi": 98,
          "time": 10.652999999999949,
          "velocity": 0.47244094488188976,
          "duration": 0.017999999999998906
        },
        {
          "name": "G3",
          "midi": 55,
          "time": 10.672999999999949,
          "velocity": 0.5433070866141733,
          "duration": 0.007999999999999119
        },
        {
          "name": "G3",
          "midi": 55,
          "time": 10.672999999999949,
          "velocity": 0.5433070866141733,
          "duration": 0.007999999999999119
        },
        {
          "name": "A6",
          "midi": 93,
          "time": 10.682999999999948,
          "velocity": 0.5039370078740157,
          "duration": 0.05699999999999861
        },
        {
          "name": "A6",
          "midi": 93,
          "time": 10.682999999999948,
          "velocity": 0.5039370078740157,
          "duration": 0.05699999999999861
        },
        {
          "name": "G3",
          "midi": 55,
          "time": 10.711999999999948,
          "velocity": 0.5433070866141733,
          "duration": 0.007999999999999119
        },
        {
          "name": "G3",
          "midi": 55,
          "time": 10.711999999999948,
          "velocity": 0.5433070866141733,
          "duration": 0.007999999999999119
        },
        {
          "name": "D#7",
          "midi": 99,
          "time": 10.731999999999948,
          "velocity": 0.49606299212598426,
          "duration": 0.0669999999999984
        },
        {
          "name": "D#7",
          "midi": 99,
          "time": 10.731999999999948,
          "velocity": 0.49606299212598426,
          "duration": 0.0669999999999984
        },
        {
          "name": "G3",
          "midi": 55,
          "time": 10.761999999999947,
          "velocity": 0.5275590551181102,
          "duration": 0.007999999999999119
        },
        {
          "name": "G3",
          "midi": 55,
          "time": 10.761999999999947,
          "velocity": 0.5275590551181102,
          "duration": 0.007999999999999119
        },
        {
          "name": "D4",
          "midi": 62,
          "time": 10.790999999999947,
          "velocity": 0.48031496062992124,
          "duration": 0.036999999999999034
        },
        {
          "name": "D4",
          "midi": 62,
          "time": 10.790999999999947,
          "velocity": 0.48031496062992124,
          "duration": 0.036999999999999034
        },
        {
          "name": "D7",
          "midi": 98,
          "time": 10.820999999999946,
          "velocity": 0.4881889763779528,
          "duration": 0.017999999999998906
        },
        {
          "name": "D7",
          "midi": 98,
          "time": 10.820999999999946,
          "velocity": 0.4881889763779528,
          "duration": 0.017999999999998906
        },
        {
          "name": "A6",
          "midi": 93,
          "time": 10.839999999999945,
          "velocity": 0.48031496062992124,
          "duration": 0.036999999999999034
        },
        {
          "name": "A6",
          "midi": 93,
          "time": 10.839999999999945,
          "velocity": 0.48031496062992124,
          "duration": 0.036999999999999034
        },
        {
          "name": "G3",
          "midi": 55,
          "time": 10.849999999999945,
          "velocity": 0.5590551181102362,
          "duration": 0.007999999999999119
        },
        {
          "name": "G3",
          "midi": 55,
          "time": 10.849999999999945,
          "velocity": 0.5590551181102362,
          "duration": 0.007999999999999119
        },
        {
          "name": "G4",
          "midi": 67,
          "time": 10.869999999999944,
          "velocity": 0.49606299212598426,
          "duration": 0.05699999999999861
        },
        {
          "name": "G4",
          "midi": 67,
          "time": 10.869999999999944,
          "velocity": 0.49606299212598426,
          "duration": 0.05699999999999861
        },
        {
          "name": "F#5",
          "midi": 78,
          "time": 10.889999999999944,
          "velocity": 0.4881889763779528,
          "duration": 0.007999999999999119
        },
        {
          "name": "F#5",
          "midi": 78,
          "time": 10.889999999999944,
          "velocity": 0.4881889763779528,
          "duration": 0.007999999999999119
        },
        {
          "name": "G#3",
          "midi": 56,
          "time": 10.899999999999944,
          "velocity": 0.5511811023622047,
          "duration": 0.007999999999999119
        },
        {
          "name": "G#3",
          "midi": 56,
          "time": 10.899999999999944,
          "velocity": 0.5511811023622047,
          "duration": 0.007999999999999119
        },
        {
          "name": "D5",
          "midi": 74,
          "time": 10.909999999999943,
          "velocity": 0.5984251968503937,
          "duration": 0.15599999999999703
        },
        {
          "name": "D5",
          "midi": 74,
          "time": 10.909999999999943,
          "velocity": 0.5984251968503937,
          "duration": 0.15599999999999703
        },
        {
          "name": "D#7",
          "midi": 99,
          "time": 10.928999999999943,
          "velocity": 0.49606299212598426,
          "duration": 0.007999999999999119
        },
        {
          "name": "D#7",
          "midi": 99,
          "time": 10.928999999999943,
          "velocity": 0.49606299212598426,
          "duration": 0.007999999999999119
        },
        {
          "name": "G2",
          "midi": 43,
          "time": 10.938999999999943,
          "velocity": 0.4881889763779528,
          "duration": 0.036999999999999034
        },
        {
          "name": "G2",
          "midi": 43,
          "time": 10.938999999999943,
          "velocity": 0.4881889763779528,
          "duration": 0.036999999999999034
        },
        {
          "name": "D4",
          "midi": 62,
          "time": 10.968999999999943,
          "velocity": 0.5669291338582677,
          "duration": 0.3929999999999936
        },
        {
          "name": "D4",
          "midi": 62,
          "time": 10.968999999999943,
          "velocity": 0.5669291338582677,
          "duration": 0.3929999999999936
        },
        {
          "name": "G3",
          "midi": 55,
          "time": 10.987999999999941,
          "velocity": 0.5669291338582677,
          "duration": 0.007999999999999119
        },
        {
          "name": "G3",
          "midi": 55,
          "time": 10.987999999999941,
          "velocity": 0.5669291338582677,
          "duration": 0.007999999999999119
        },
        {
          "name": "C#5",
          "midi": 73,
          "time": 11.00799999999994,
          "velocity": 0.49606299212598426,
          "duration": 0.007999999999999119
        },
        {
          "name": "A6",
          "midi": 93,
          "time": 11.00799999999994,
          "velocity": 0.4881889763779528,
          "duration": 0.036999999999999034
        },
        {
          "name": "C#5",
          "midi": 73,
          "time": 11.00799999999994,
          "velocity": 0.49606299212598426,
          "duration": 0.007999999999999119
        },
        {
          "name": "A6",
          "midi": 93,
          "time": 11.00799999999994,
          "velocity": 0.4881889763779528,
          "duration": 0.036999999999999034
        },
        {
          "name": "G3",
          "midi": 55,
          "time": 11.02799999999994,
          "velocity": 0.5433070866141733,
          "duration": 0.007999999999999119
        },
        {
          "name": "G3",
          "midi": 55,
          "time": 11.02799999999994,
          "velocity": 0.5433070866141733,
          "duration": 0.007999999999999119
        },
        {
          "name": "G4",
          "midi": 67,
          "time": 11.04799999999994,
          "velocity": 0.5039370078740157,
          "duration": 0.05699999999999861
        },
        {
          "name": "G4",
          "midi": 67,
          "time": 11.04799999999994,
          "velocity": 0.5039370078740157,
          "duration": 0.05699999999999861
        },
        {
          "name": "F4",
          "midi": 65,
          "time": 11.05699999999994,
          "velocity": 0.5511811023622047,
          "duration": 0.24499999999999744
        },
        {
          "name": "F4",
          "midi": 65,
          "time": 11.05699999999994,
          "velocity": 0.5511811023622047,
          "duration": 0.24499999999999744
        },
        {
          "name": "G3",
          "midi": 55,
          "time": 11.07699999999994,
          "velocity": 0.5433070866141733,
          "duration": 0.007999999999999119
        },
        {
          "name": "G3",
          "midi": 55,
          "time": 11.07699999999994,
          "velocity": 0.5433070866141733,
          "duration": 0.007999999999999119
        },
        {
          "name": "F#5",
          "midi": 78,
          "time": 11.09699999999994,
          "velocity": 0.5118110236220472,
          "duration": 0.007999999999999119
        },
        {
          "name": "F#5",
          "midi": 78,
          "time": 11.09699999999994,
          "velocity": 0.5118110236220472,
          "duration": 0.007999999999999119
        },
        {
          "name": "B4",
          "midi": 71,
          "time": 11.116999999999939,
          "velocity": 0.6220472440944882,
          "duration": 0.31399999999999473
        },
        {
          "name": "G#3",
          "midi": 56,
          "time": 11.116999999999939,
          "velocity": 0.5196850393700787,
          "duration": 0.007999999999999119
        },
        {
          "name": "B4",
          "midi": 71,
          "time": 11.116999999999939,
          "velocity": 0.6220472440944882,
          "duration": 0.31399999999999473
        },
        {
          "name": "G#3",
          "midi": 56,
          "time": 11.116999999999939,
          "velocity": 0.5196850393700787,
          "duration": 0.007999999999999119
        },
        {
          "name": "F#5",
          "midi": 78,
          "time": 11.135999999999937,
          "velocity": 0.49606299212598426,
          "duration": 0.018000000000000682
        },
        {
          "name": "F#5",
          "midi": 78,
          "time": 11.135999999999937,
          "velocity": 0.49606299212598426,
          "duration": 0.018000000000000682
        },
        {
          "name": "G3",
          "midi": 55,
          "time": 11.204999999999938,
          "velocity": 0.5118110236220472,
          "duration": 0.007999999999999119
        },
        {
          "name": "G3",
          "midi": 55,
          "time": 11.204999999999938,
          "velocity": 0.5118110236220472,
          "duration": 0.007999999999999119
        },
        {
          "name": "D#7",
          "midi": 99,
          "time": 11.224999999999937,
          "velocity": 0.5118110236220472,
          "duration": 0.03700000000000081
        },
        {
          "name": "D#7",
          "midi": 99,
          "time": 11.224999999999937,
          "velocity": 0.5118110236220472,
          "duration": 0.03700000000000081
        },
        {
          "name": "G4",
          "midi": 67,
          "time": 11.293999999999938,
          "velocity": 0.5275590551181102,
          "duration": 0.036999999999999034
        },
        {
          "name": "G4",
          "midi": 67,
          "time": 11.293999999999938,
          "velocity": 0.5275590551181102,
          "duration": 0.036999999999999034
        },
        {
          "name": "F#5",
          "midi": 78,
          "time": 11.313999999999938,
          "velocity": 0.5275590551181102,
          "duration": 0.06699999999999662
        },
        {
          "name": "F#5",
          "midi": 78,
          "time": 11.313999999999938,
          "velocity": 0.5275590551181102,
          "duration": 0.06699999999999662
        },
        {
          "name": "B5",
          "midi": 83,
          "time": 11.343999999999937,
          "velocity": 0.49606299212598426,
          "duration": 0.007999999999999119
        },
        {
          "name": "B5",
          "midi": 83,
          "time": 11.343999999999937,
          "velocity": 0.49606299212598426,
          "duration": 0.007999999999999119
        },
        {
          "name": "G#2",
          "midi": 44,
          "time": 11.362999999999936,
          "velocity": 0.5354330708661418,
          "duration": 0.0769999999999964
        },
        {
          "name": "G#2",
          "midi": 44,
          "time": 11.362999999999936,
          "velocity": 0.5354330708661418,
          "duration": 0.0769999999999964
        },
        {
          "name": "F4",
          "midi": 65,
          "time": 11.372999999999935,
          "velocity": 0.5590551181102362,
          "duration": 0.04699999999999882
        },
        {
          "name": "F4",
          "midi": 65,
          "time": 11.372999999999935,
          "velocity": 0.5590551181102362,
          "duration": 0.04699999999999882
        },
        {
          "name": "A5",
          "midi": 81,
          "time": 11.412999999999935,
          "velocity": 0.5275590551181102,
          "duration": 0.10699999999999577
        },
        {
          "name": "A5",
          "midi": 81,
          "time": 11.412999999999935,
          "velocity": 0.5275590551181102,
          "duration": 0.10699999999999577
        },
        {
          "name": "F3",
          "midi": 53,
          "time": 11.431999999999933,
          "velocity": 0.5905511811023622,
          "duration": 0.36299999999999066
        },
        {
          "name": "G3",
          "midi": 55,
          "time": 11.431999999999933,
          "velocity": 0.5669291338582677,
          "duration": 0.007999999999999119
        },
        {
          "name": "F3",
          "midi": 53,
          "time": 11.431999999999933,
          "velocity": 0.5905511811023622,
          "duration": 0.36299999999999066
        },
        {
          "name": "G3",
          "midi": 55,
          "time": 11.431999999999933,
          "velocity": 0.5669291338582677,
          "duration": 0.007999999999999119
        },
        {
          "name": "A4",
          "midi": 69,
          "time": 11.441999999999933,
          "velocity": 0.7086614173228346,
          "duration": 0.1359999999999939
        },
        {
          "name": "A4",
          "midi": 69,
          "time": 11.441999999999933,
          "velocity": 0.7086614173228346,
          "duration": 0.1359999999999939
        },
        {
          "name": "D4",
          "midi": 62,
          "time": 11.461999999999932,
          "velocity": 0.4566929133858268,
          "duration": 0.007999999999999119
        },
        {
          "name": "D4",
          "midi": 62,
          "time": 11.461999999999932,
          "velocity": 0.4566929133858268,
          "duration": 0.007999999999999119
        },
        {
          "name": "F#4",
          "midi": 66,
          "time": 11.471999999999932,
          "velocity": 0.4566929133858268,
          "duration": 0.027999999999998693
        },
        {
          "name": "F#4",
          "midi": 66,
          "time": 11.471999999999932,
          "velocity": 0.4566929133858268,
          "duration": 0.027999999999998693
        },
        {
          "name": "C#7",
          "midi": 97,
          "time": 11.481999999999932,
          "velocity": 0.5039370078740157,
          "duration": 0.0769999999999964
        },
        {
          "name": "C#7",
          "midi": 97,
          "time": 11.481999999999932,
          "velocity": 0.5039370078740157,
          "duration": 0.0769999999999964
        },
        {
          "name": "D7",
          "midi": 98,
          "time": 11.490999999999932,
          "velocity": 0.4645669291338583,
          "duration": 0.007999999999999119
        },
        {
          "name": "D7",
          "midi": 98,
          "time": 11.490999999999932,
          "velocity": 0.4645669291338583,
          "duration": 0.007999999999999119
        },
        {
          "name": "D4",
          "midi": 62,
          "time": 11.51099999999993,
          "velocity": 0.4645669291338583,
          "duration": 0.036999999999999034
        },
        {
          "name": "D4",
          "midi": 62,
          "time": 11.51099999999993,
          "velocity": 0.4645669291338583,
          "duration": 0.036999999999999034
        },
        {
          "name": "C4",
          "midi": 60,
          "time": 11.52099999999993,
          "velocity": 0.48031496062992124,
          "duration": 0.017999999999998906
        },
        {
          "name": "C4",
          "midi": 60,
          "time": 11.52099999999993,
          "velocity": 0.48031496062992124,
          "duration": 0.017999999999998906
        },
        {
          "name": "G3",
          "midi": 55,
          "time": 11.53099999999993,
          "velocity": 0.4645669291338583,
          "duration": 0.007999999999999119
        },
        {
          "name": "G3",
          "midi": 55,
          "time": 11.53099999999993,
          "velocity": 0.4645669291338583,
          "duration": 0.007999999999999119
        },
        {
          "name": "C#7",
          "midi": 97,
          "time": 11.550999999999929,
          "velocity": 0.49606299212598426,
          "duration": 0.046999999999997044
        },
        {
          "name": "A5",
          "midi": 81,
          "time": 11.550999999999929,
          "velocity": 0.5354330708661418,
          "duration": 0.10699999999999577
        },
        {
          "name": "C#7",
          "midi": 97,
          "time": 11.550999999999929,
          "velocity": 0.49606299212598426,
          "duration": 0.046999999999997044
        },
        {
          "name": "A5",
          "midi": 81,
          "time": 11.550999999999929,
          "velocity": 0.5354330708661418,
          "duration": 0.10699999999999577
        },
        {
          "name": "G3",
          "midi": 55,
          "time": 11.569999999999927,
          "velocity": 0.5118110236220472,
          "duration": 0.007999999999999119
        },
        {
          "name": "A4",
          "midi": 69,
          "time": 11.569999999999927,
          "velocity": 0.5196850393700787,
          "duration": 0.1759999999999966
        },
        {
          "name": "G3",
          "midi": 55,
          "time": 11.569999999999927,
          "velocity": 0.5118110236220472,
          "duration": 0.007999999999999119
        },
        {
          "name": "A4",
          "midi": 69,
          "time": 11.569999999999927,
          "velocity": 0.5196850393700787,
          "duration": 0.1759999999999966
        },
        {
          "name": "C#7",
          "midi": 97,
          "time": 11.589999999999927,
          "velocity": 0.47244094488188976,
          "duration": 0.047999999999998266
        },
        {
          "name": "C4",
          "midi": 60,
          "time": 11.589999999999927,
          "velocity": 0.5039370078740157,
          "duration": 0.017999999999998906
        },
        {
          "name": "C#7",
          "midi": 97,
          "time": 11.589999999999927,
          "velocity": 0.47244094488188976,
          "duration": 0.047999999999998266
        },
        {
          "name": "C4",
          "midi": 60,
          "time": 11.589999999999927,
          "velocity": 0.5039370078740157,
          "duration": 0.017999999999998906
        },
        {
          "name": "F4",
          "midi": 65,
          "time": 11.609999999999927,
          "velocity": 0.5590551181102362,
          "duration": 0.40199999999999214
        },
        {
          "name": "F4",
          "midi": 65,
          "time": 11.609999999999927,
          "velocity": 0.5590551181102362,
          "duration": 0.40199999999999214
        },
        {
          "name": "C#7",
          "midi": 97,
          "time": 11.629999999999926,
          "velocity": 0.5039370078740157,
          "duration": 0.08699999999999797
        },
        {
          "name": "C#7",
          "midi": 97,
          "time": 11.629999999999926,
          "velocity": 0.5039370078740157,
          "duration": 0.08699999999999797
        },
        {
          "name": "A#5",
          "midi": 82,
          "time": 11.658999999999924,
          "velocity": 0.49606299212598426,
          "duration": 0.06700000000000017
        },
        {
          "name": "A#5",
          "midi": 82,
          "time": 11.658999999999924,
          "velocity": 0.49606299212598426,
          "duration": 0.06700000000000017
        },
        {
          "name": "C#7",
          "midi": 97,
          "time": 11.668999999999924,
          "velocity": 0.5354330708661418,
          "duration": 0.2739999999999956
        },
        {
          "name": "C#7",
          "midi": 97,
          "time": 11.668999999999924,
          "velocity": 0.5354330708661418,
          "duration": 0.2739999999999956
        },
        {
          "name": "A6",
          "midi": 93,
          "time": 11.737999999999925,
          "velocity": 0.5039370078740157,
          "duration": 0.036999999999999034
        },
        {
          "name": "A4",
          "midi": 69,
          "time": 11.737999999999925,
          "velocity": 0.5984251968503937,
          "duration": 0.10699999999999754
        },
        {
          "name": "A6",
          "midi": 93,
          "time": 11.737999999999925,
          "velocity": 0.5039370078740157,
          "duration": 0.036999999999999034
        },
        {
          "name": "A4",
          "midi": 69,
          "time": 11.737999999999925,
          "velocity": 0.5984251968503937,
          "duration": 0.10699999999999754
        },
        {
          "name": "A5",
          "midi": 81,
          "time": 11.757999999999925,
          "velocity": 0.5118110236220472,
          "duration": 0.05699999999999861
        },
        {
          "name": "A5",
          "midi": 81,
          "time": 11.757999999999925,
          "velocity": 0.5118110236220472,
          "duration": 0.05699999999999861
        },
        {
          "name": "G5",
          "midi": 79,
          "time": 11.786999999999924,
          "velocity": 0.47244094488188976,
          "duration": 0.017999999999998906
        },
        {
          "name": "G5",
          "midi": 79,
          "time": 11.786999999999924,
          "velocity": 0.47244094488188976,
          "duration": 0.017999999999998906
        },
        {
          "name": "C4",
          "midi": 60,
          "time": 11.806999999999924,
          "velocity": 0.5196850393700787,
          "duration": 0.16599999999999504
        },
        {
          "name": "C4",
          "midi": 60,
          "time": 11.806999999999924,
          "velocity": 0.5196850393700787,
          "duration": 0.16599999999999504
        },
        {
          "name": "C5",
          "midi": 72,
          "time": 11.826999999999924,
          "velocity": 0.4881889763779528,
          "duration": 0.03699999999999726
        },
        {
          "name": "C5",
          "midi": 72,
          "time": 11.826999999999924,
          "velocity": 0.4881889763779528,
          "duration": 0.03699999999999726
        },
        {
          "name": "A4",
          "midi": 69,
          "time": 11.836999999999923,
          "velocity": 0.6220472440944882,
          "duration": 0.06699999999999662
        },
        {
          "name": "A4",
          "midi": 69,
          "time": 11.836999999999923,
          "velocity": 0.6220472440944882,
          "duration": 0.06699999999999662
        },
        {
          "name": "F3",
          "midi": 53,
          "time": 11.855999999999922,
          "velocity": 0.4881889763779528,
          "duration": 0.027999999999998693
        },
        {
          "name": "F3",
          "midi": 53,
          "time": 11.855999999999922,
          "velocity": 0.4881889763779528,
          "duration": 0.027999999999998693
        },
        {
          "name": "A5",
          "midi": 81,
          "time": 11.875999999999921,
          "velocity": 0.48031496062992124,
          "duration": 0.007999999999999119
        },
        {
          "name": "A5",
          "midi": 81,
          "time": 11.875999999999921,
          "velocity": 0.48031496062992124,
          "duration": 0.007999999999999119
        },
        {
          "name": "A#4",
          "midi": 70,
          "time": 11.89599999999992,
          "velocity": 0.7637795275590551,
          "duration": 0.18499999999999694
        },
        {
          "name": "A#4",
          "midi": 70,
          "time": 11.89599999999992,
          "velocity": 0.7637795275590551,
          "duration": 0.18499999999999694
        },
        {
          "name": "A5",
          "midi": 81,
          "time": 11.90599999999992,
          "velocity": 0.5905511811023622,
          "duration": 0.11599999999999788
        },
        {
          "name": "A5",
          "midi": 81,
          "time": 11.90599999999992,
          "velocity": 0.5905511811023622,
          "duration": 0.11599999999999788
        },
        {
          "name": "C#7",
          "midi": 97,
          "time": 11.93499999999992,
          "velocity": 0.5905511811023622,
          "duration": 0.07699999999999818
        },
        {
          "name": "C#7",
          "midi": 97,
          "time": 11.93499999999992,
          "velocity": 0.5905511811023622,
          "duration": 0.07699999999999818
        },
        {
          "name": "A6",
          "midi": 93,
          "time": 11.95499999999992,
          "velocity": 0.5039370078740157,
          "duration": 0.007999999999999119
        },
        {
          "name": "A6",
          "midi": 93,
          "time": 11.95499999999992,
          "velocity": 0.5039370078740157,
          "duration": 0.007999999999999119
        },
        {
          "name": "F3",
          "midi": 53,
          "time": 11.98499999999992,
          "velocity": 0.4881889763779528,
          "duration": 0.04699999999999882
        },
        {
          "name": "F3",
          "midi": 53,
          "time": 11.98499999999992,
          "velocity": 0.4881889763779528,
          "duration": 0.04699999999999882
        },
        {
          "name": "D3",
          "midi": 50,
          "time": 12.01399999999992,
          "velocity": 0.4881889763779528,
          "duration": 0.04699999999999882
        },
        {
          "name": "D3",
          "midi": 50,
          "time": 12.01399999999992,
          "velocity": 0.4881889763779528,
          "duration": 0.04699999999999882
        },
        {
          "name": "C4",
          "midi": 60,
          "time": 12.02399999999992,
          "velocity": 0.5511811023622047,
          "duration": 0.09699999999999775
        },
        {
          "name": "A6",
          "midi": 93,
          "time": 12.02399999999992,
          "velocity": 0.4881889763779528,
          "duration": 0.017999999999998906
        },
        {
          "name": "C4",
          "midi": 60,
          "time": 12.02399999999992,
          "velocity": 0.5511811023622047,
          "duration": 0.09699999999999775
        },
        {
          "name": "A6",
          "midi": 93,
          "time": 12.02399999999992,
          "velocity": 0.4881889763779528,
          "duration": 0.017999999999998906
        },
        {
          "name": "F3",
          "midi": 53,
          "time": 12.043999999999919,
          "velocity": 0.5118110236220472,
          "duration": 0.05699999999999861
        },
        {
          "name": "G5",
          "midi": 79,
          "time": 12.043999999999919,
          "velocity": 0.5196850393700787,
          "duration": 0.0669999999999984
        },
        {
          "name": "F3",
          "midi": 53,
          "time": 12.043999999999919,
          "velocity": 0.5118110236220472,
          "duration": 0.05699999999999861
        },
        {
          "name": "G5",
          "midi": 79,
          "time": 12.043999999999919,
          "velocity": 0.5196850393700787,
          "duration": 0.0669999999999984
        },
        {
          "name": "G6",
          "midi": 91,
          "time": 12.053999999999919,
          "velocity": 0.5118110236220472,
          "duration": 0.036999999999999034
        },
        {
          "name": "G6",
          "midi": 91,
          "time": 12.053999999999919,
          "velocity": 0.5118110236220472,
          "duration": 0.036999999999999034
        },
        {
          "name": "F4",
          "midi": 65,
          "time": 12.082999999999918,
          "velocity": 0.6850393700787402,
          "duration": 0.8269999999999911
        },
        {
          "name": "F4",
          "midi": 65,
          "time": 12.082999999999918,
          "velocity": 0.6850393700787402,
          "duration": 0.8269999999999911
        },
        {
          "name": "F7",
          "midi": 101,
          "time": 12.092999999999918,
          "velocity": 0.5511811023622047,
          "duration": 0.017999999999998906
        },
        {
          "name": "F7",
          "midi": 101,
          "time": 12.092999999999918,
          "velocity": 0.5511811023622047,
          "duration": 0.017999999999998906
        },
        {
          "name": "A4",
          "midi": 69,
          "time": 12.112999999999918,
          "velocity": 0.5354330708661418,
          "duration": 0.036999999999999034
        },
        {
          "name": "G4",
          "midi": 67,
          "time": 12.112999999999918,
          "velocity": 0.5196850393700787,
          "duration": 0.04699999999999882
        },
        {
          "name": "A4",
          "midi": 69,
          "time": 12.112999999999918,
          "velocity": 0.5354330708661418,
          "duration": 0.036999999999999034
        },
        {
          "name": "G4",
          "midi": 67,
          "time": 12.112999999999918,
          "velocity": 0.5196850393700787,
          "duration": 0.04699999999999882
        },
        {
          "name": "C5",
          "midi": 72,
          "time": 12.122999999999918,
          "velocity": 0.5433070866141733,
          "duration": 0.0669999999999984
        },
        {
          "name": "F3",
          "midi": 53,
          "time": 12.122999999999918,
          "velocity": 0.5196850393700787,
          "duration": 0.027999999999998693
        },
        {
          "name": "C5",
          "midi": 72,
          "time": 12.122999999999918,
          "velocity": 0.5433070866141733,
          "duration": 0.0669999999999984
        },
        {
          "name": "F3",
          "midi": 53,
          "time": 12.122999999999918,
          "velocity": 0.5196850393700787,
          "duration": 0.027999999999998693
        },
        {
          "name": "A6",
          "midi": 93,
          "time": 12.142999999999917,
          "velocity": 0.5039370078740157,
          "duration": 0.02800000000000047
        },
        {
          "name": "A6",
          "midi": 93,
          "time": 12.142999999999917,
          "velocity": 0.5039370078740157,
          "duration": 0.02800000000000047
        },
        {
          "name": "G6",
          "midi": 91,
          "time": 12.161999999999917,
          "velocity": 0.5275590551181102,
          "duration": 0.14599999999999902
        },
        {
          "name": "D3",
          "midi": 50,
          "time": 12.161999999999917,
          "velocity": 0.5196850393700787,
          "duration": 0.245000000000001
        },
        {
          "name": "G6",
          "midi": 91,
          "time": 12.161999999999917,
          "velocity": 0.5275590551181102,
          "duration": 0.14599999999999902
        },
        {
          "name": "D3",
          "midi": 50,
          "time": 12.161999999999917,
          "velocity": 0.5196850393700787,
          "duration": 0.245000000000001
        },
        {
          "name": "B6",
          "midi": 95,
          "time": 12.171999999999917,
          "velocity": 0.5118110236220472,
          "duration": 0.027999999999998693
        },
        {
          "name": "B6",
          "midi": 95,
          "time": 12.171999999999917,
          "velocity": 0.5118110236220472,
          "duration": 0.027999999999998693
        },
        {
          "name": "D6",
          "midi": 86,
          "time": 12.181999999999917,
          "velocity": 0.5039370078740157,
          "duration": 0.036999999999999034
        },
        {
          "name": "D6",
          "midi": 86,
          "time": 12.181999999999917,
          "velocity": 0.5039370078740157,
          "duration": 0.036999999999999034
        },
        {
          "name": "G4",
          "midi": 67,
          "time": 12.201999999999916,
          "velocity": 0.5669291338582677,
          "duration": 0.11599999999999966
        },
        {
          "name": "G4",
          "midi": 67,
          "time": 12.201999999999916,
          "velocity": 0.5669291338582677,
          "duration": 0.11599999999999966
        },
        {
          "name": "G5",
          "midi": 79,
          "time": 12.211999999999916,
          "velocity": 0.5275590551181102,
          "duration": 0.03700000000000081
        },
        {
          "name": "G5",
          "midi": 79,
          "time": 12.211999999999916,
          "velocity": 0.5275590551181102,
          "duration": 0.03700000000000081
        },
        {
          "name": "C4",
          "midi": 60,
          "time": 12.230999999999916,
          "velocity": 0.5196850393700787,
          "duration": 0.018000000000000682
        },
        {
          "name": "C4",
          "midi": 60,
          "time": 12.230999999999916,
          "velocity": 0.5196850393700787,
          "duration": 0.018000000000000682
        },
        {
          "name": "G#4",
          "midi": 68,
          "time": 12.260999999999918,
          "velocity": 0.5354330708661418,
          "duration": 0.007999999999999119
        },
        {
          "name": "G#4",
          "midi": 68,
          "time": 12.260999999999918,
          "velocity": 0.5354330708661418,
          "duration": 0.007999999999999119
        },
        {
          "name": "C6",
          "midi": 84,
          "time": 12.270999999999917,
          "velocity": 0.5118110236220472,
          "duration": 0.018000000000000682
        },
        {
          "name": "C6",
          "midi": 84,
          "time": 12.270999999999917,
          "velocity": 0.5118110236220472,
          "duration": 0.018000000000000682
        },
        {
          "name": "G5",
          "midi": 79,
          "time": 12.289999999999917,
          "velocity": 0.5196850393700787,
          "duration": 0.007999999999999119
        },
        {
          "name": "G5",
          "midi": 79,
          "time": 12.289999999999917,
          "velocity": 0.5196850393700787,
          "duration": 0.007999999999999119
        },
        {
          "name": "B6",
          "midi": 95,
          "time": 12.299999999999917,
          "velocity": 0.5669291338582677,
          "duration": 0.07699999999999996
        },
        {
          "name": "B6",
          "midi": 95,
          "time": 12.299999999999917,
          "velocity": 0.5669291338582677,
          "duration": 0.07699999999999996
        },
        {
          "name": "C5",
          "midi": 72,
          "time": 12.309999999999917,
          "velocity": 0.5590551181102362,
          "duration": 0.057000000000000384
        },
        {
          "name": "C5",
          "midi": 72,
          "time": 12.309999999999917,
          "velocity": 0.5590551181102362,
          "duration": 0.057000000000000384
        },
        {
          "name": "C4",
          "midi": 60,
          "time": 12.319999999999917,
          "velocity": 0.5748031496062992,
          "duration": 0.15600000000000236
        },
        {
          "name": "C4",
          "midi": 60,
          "time": 12.319999999999917,
          "velocity": 0.5748031496062992,
          "duration": 0.15600000000000236
        },
        {
          "name": "F7",
          "midi": 101,
          "time": 12.329999999999917,
          "velocity": 0.5354330708661418,
          "duration": 0.02800000000000047
        },
        {
          "name": "F7",
          "midi": 101,
          "time": 12.329999999999917,
          "velocity": 0.5354330708661418,
          "duration": 0.02800000000000047
        },
        {
          "name": "G5",
          "midi": 79,
          "time": 12.368999999999918,
          "velocity": 0.5669291338582677,
          "duration": 0.07699999999999996
        },
        {
          "name": "G5",
          "midi": 79,
          "time": 12.368999999999918,
          "velocity": 0.5669291338582677,
          "duration": 0.07699999999999996
        },
        {
          "name": "D4",
          "midi": 62,
          "time": 12.378999999999918,
          "velocity": 0.5118110236220472,
          "duration": 0.057000000000000384
        },
        {
          "name": "D4",
          "midi": 62,
          "time": 12.378999999999918,
          "velocity": 0.5118110236220472,
          "duration": 0.057000000000000384
        },
        {
          "name": "G4",
          "midi": 67,
          "time": 12.388999999999918,
          "velocity": 0.5511811023622047,
          "duration": 0.11600000000000144
        },
        {
          "name": "G4",
          "midi": 67,
          "time": 12.388999999999918,
          "velocity": 0.5511811023622047,
          "duration": 0.11600000000000144
        },
        {
          "name": "C5",
          "midi": 72,
          "time": 12.418999999999919,
          "velocity": 0.5433070866141733,
          "duration": 0.1559999999999988
        },
        {
          "name": "C5",
          "midi": 72,
          "time": 12.418999999999919,
          "velocity": 0.5433070866141733,
          "duration": 0.1559999999999988
        },
        {
          "name": "B6",
          "midi": 95,
          "time": 12.447999999999919,
          "velocity": 0.5590551181102362,
          "duration": 0.11599999999999966
        },
        {
          "name": "B6",
          "midi": 95,
          "time": 12.447999999999919,
          "velocity": 0.5590551181102362,
          "duration": 0.11599999999999966
        },
        {
          "name": "F7",
          "midi": 101,
          "time": 12.457999999999918,
          "velocity": 0.5590551181102362,
          "duration": 0.0470000000000006
        },
        {
          "name": "F7",
          "midi": 101,
          "time": 12.457999999999918,
          "velocity": 0.5590551181102362,
          "duration": 0.0470000000000006
        },
        {
          "name": "G5",
          "midi": 79,
          "time": 12.48799999999992,
          "velocity": 0.5511811023622047,
          "duration": 0.12599999999999945
        },
        {
          "name": "G5",
          "midi": 79,
          "time": 12.48799999999992,
          "velocity": 0.5511811023622047,
          "duration": 0.12599999999999945
        },
        {
          "name": "D6",
          "midi": 86,
          "time": 12.51699999999992,
          "velocity": 0.5354330708661418,
          "duration": 0.036999999999999034
        },
        {
          "name": "D6",
          "midi": 86,
          "time": 12.51699999999992,
          "velocity": 0.5354330708661418,
          "duration": 0.036999999999999034
        },
        {
          "name": "D7",
          "midi": 98,
          "time": 12.536999999999919,
          "velocity": 0.5433070866141733,
          "duration": 0.007999999999999119
        },
        {
          "name": "D7",
          "midi": 98,
          "time": 12.536999999999919,
          "velocity": 0.5433070866141733,
          "duration": 0.007999999999999119
        },
        {
          "name": "F7",
          "midi": 101,
          "time": 12.556999999999919,
          "velocity": 0.5196850393700787,
          "duration": 0.007999999999999119
        },
        {
          "name": "F7",
          "midi": 101,
          "time": 12.556999999999919,
          "velocity": 0.5196850393700787,
          "duration": 0.007999999999999119
        },
        {
          "name": "D3",
          "midi": 50,
          "time": 12.566999999999918,
          "velocity": 0.5354330708661418,
          "duration": 0.13599999999999923
        },
        {
          "name": "D3",
          "midi": 50,
          "time": 12.566999999999918,
          "velocity": 0.5354330708661418,
          "duration": 0.13599999999999923
        },
        {
          "name": "C4",
          "midi": 60,
          "time": 12.576999999999918,
          "velocity": 0.5196850393700787,
          "duration": 0.057000000000000384
        },
        {
          "name": "G6",
          "midi": 91,
          "time": 12.576999999999918,
          "velocity": 0.5118110236220472,
          "duration": 0.03700000000000081
        },
        {
          "name": "C4",
          "midi": 60,
          "time": 12.576999999999918,
          "velocity": 0.5196850393700787,
          "duration": 0.057000000000000384
        },
        {
          "name": "G6",
          "midi": 91,
          "time": 12.576999999999918,
          "velocity": 0.5118110236220472,
          "duration": 0.03700000000000081
        },
        {
          "name": "G4",
          "midi": 67,
          "time": 12.61599999999992,
          "velocity": 0.5433070866141733,
          "duration": 0.10699999999999754
        },
        {
          "name": "G4",
          "midi": 67,
          "time": 12.61599999999992,
          "velocity": 0.5433070866141733,
          "duration": 0.10699999999999754
        },
        {
          "name": "D4",
          "midi": 62,
          "time": 12.62599999999992,
          "velocity": 0.49606299212598426,
          "duration": 0.05699999999999861
        },
        {
          "name": "A4",
          "midi": 69,
          "time": 12.62599999999992,
          "velocity": 0.4881889763779528,
          "duration": 0.027999999999998693
        },
        {
          "name": "D4",
          "midi": 62,
          "time": 12.62599999999992,
          "velocity": 0.49606299212598426,
          "duration": 0.05699999999999861
        },
        {
          "name": "A4",
          "midi": 69,
          "time": 12.62599999999992,
          "velocity": 0.4881889763779528,
          "duration": 0.027999999999998693
        },
        {
          "name": "A6",
          "midi": 93,
          "time": 12.645999999999919,
          "velocity": 0.5118110236220472,
          "duration": 0.04699999999999882
        },
        {
          "name": "A6",
          "midi": 93,
          "time": 12.645999999999919,
          "velocity": 0.5118110236220472,
          "duration": 0.04699999999999882
        },
        {
          "name": "C#7",
          "midi": 97,
          "time": 12.684999999999919,
          "velocity": 0.5196850393700787,
          "duration": 0.027999999999998693
        },
        {
          "name": "C#7",
          "midi": 97,
          "time": 12.684999999999919,
          "velocity": 0.5196850393700787,
          "duration": 0.027999999999998693
        },
        {
          "name": "C5",
          "midi": 72,
          "time": 12.694999999999919,
          "velocity": 0.5118110236220472,
          "duration": 0.007999999999999119
        },
        {
          "name": "C5",
          "midi": 72,
          "time": 12.694999999999919,
          "velocity": 0.5118110236220472,
          "duration": 0.007999999999999119
        },
        {
          "name": "C#5",
          "midi": 73,
          "time": 12.704999999999918,
          "velocity": 0.5511811023622047,
          "duration": 0.03699999999999726
        },
        {
          "name": "C#5",
          "midi": 73,
          "time": 12.704999999999918,
          "velocity": 0.5511811023622047,
          "duration": 0.03699999999999726
        },
        {
          "name": "C#6",
          "midi": 85,
          "time": 12.714999999999918,
          "velocity": 0.5039370078740157,
          "duration": 0.007999999999999119
        },
        {
          "name": "A6",
          "midi": 93,
          "time": 12.714999999999918,
          "velocity": 0.5196850393700787,
          "duration": 0.08699999999999797
        },
        {
          "name": "C#6",
          "midi": 85,
          "time": 12.714999999999918,
          "velocity": 0.5039370078740157,
          "duration": 0.007999999999999119
        },
        {
          "name": "A6",
          "midi": 93,
          "time": 12.714999999999918,
          "velocity": 0.5196850393700787,
          "duration": 0.08699999999999797
        },
        {
          "name": "D7",
          "midi": 98,
          "time": 12.733999999999916,
          "velocity": 0.5118110236220472,
          "duration": 0.057000000000000384
        },
        {
          "name": "D5",
          "midi": 74,
          "time": 12.733999999999916,
          "velocity": 0.6062992125984252,
          "duration": 0.08699999999999797
        },
        {
          "name": "D7",
          "midi": 98,
          "time": 12.733999999999916,
          "velocity": 0.5118110236220472,
          "duration": 0.057000000000000384
        },
        {
          "name": "D5",
          "midi": 74,
          "time": 12.733999999999916,
          "velocity": 0.6062992125984252,
          "duration": 0.08699999999999797
        },
        {
          "name": "G3",
          "midi": 55,
          "time": 12.753999999999916,
          "velocity": 0.48031496062992124,
          "duration": 0.018000000000000682
        },
        {
          "name": "G3",
          "midi": 55,
          "time": 12.753999999999916,
          "velocity": 0.48031496062992124,
          "duration": 0.018000000000000682
        },
        {
          "name": "D6",
          "midi": 86,
          "time": 12.783999999999917,
          "velocity": 0.5118110236220472,
          "duration": 0.08699999999999619
        },
        {
          "name": "D6",
          "midi": 86,
          "time": 12.783999999999917,
          "velocity": 0.5118110236220472,
          "duration": 0.08699999999999619
        },
        {
          "name": "G4",
          "midi": 67,
          "time": 12.793999999999917,
          "velocity": 0.49606299212598426,
          "duration": 0.03699999999999726
        },
        {
          "name": "G4",
          "midi": 67,
          "time": 12.793999999999917,
          "velocity": 0.49606299212598426,
          "duration": 0.03699999999999726
        },
        {
          "name": "A3",
          "midi": 57,
          "time": 12.802999999999916,
          "velocity": 0.5669291338582677,
          "duration": 0.4319999999999915
        },
        {
          "name": "A3",
          "midi": 57,
          "time": 12.802999999999916,
          "velocity": 0.5669291338582677,
          "duration": 0.4319999999999915
        },
        {
          "name": "D5",
          "midi": 74,
          "time": 12.812999999999915,
          "velocity": 0.48031496062992124,
          "duration": 0.2449999999999921
        },
        {
          "name": "D5",
          "midi": 74,
          "time": 12.812999999999915,
          "velocity": 0.48031496062992124,
          "duration": 0.2449999999999921
        },
        {
          "name": "A6",
          "midi": 93,
          "time": 12.832999999999915,
          "velocity": 0.5039370078740157,
          "duration": 0.05699999999999683
        },
        {
          "name": "A6",
          "midi": 93,
          "time": 12.832999999999915,
          "velocity": 0.5039370078740157,
          "duration": 0.05699999999999683
        },
        {
          "name": "G3",
          "midi": 55,
          "time": 12.842999999999915,
          "velocity": 0.5039370078740157,
          "duration": 0.007999999999999119
        },
        {
          "name": "G3",
          "midi": 55,
          "time": 12.842999999999915,
          "velocity": 0.5039370078740157,
          "duration": 0.007999999999999119
        },
        {
          "name": "D7",
          "midi": 98,
          "time": 12.862999999999914,
          "velocity": 0.5039370078740157,
          "duration": 0.027999999999996916
        },
        {
          "name": "D7",
          "midi": 98,
          "time": 12.862999999999914,
          "velocity": 0.5039370078740157,
          "duration": 0.027999999999996916
        },
        {
          "name": "D#3",
          "midi": 51,
          "time": 12.881999999999913,
          "velocity": 0.49606299212598426,
          "duration": 0.046999999999997044
        },
        {
          "name": "D#3",
          "midi": 51,
          "time": 12.881999999999913,
          "velocity": 0.49606299212598426,
          "duration": 0.046999999999997044
        },
        {
          "name": "D4",
          "midi": 62,
          "time": 12.90199999999991,
          "velocity": 0.4881889763779528,
          "duration": 0.036999999999999034
        },
        {
          "name": "D4",
          "midi": 62,
          "time": 12.90199999999991,
          "velocity": 0.4881889763779528,
          "duration": 0.036999999999999034
        },
        {
          "name": "D7",
          "midi": 98,
          "time": 12.91199999999991,
          "velocity": 0.5354330708661418,
          "duration": 0.036999999999999034
        },
        {
          "name": "D7",
          "midi": 98,
          "time": 12.91199999999991,
          "velocity": 0.5354330708661418,
          "duration": 0.036999999999999034
        },
        {
          "name": "A6",
          "midi": 93,
          "time": 12.92199999999991,
          "velocity": 0.4881889763779528,
          "duration": 0.007999999999999119
        },
        {
          "name": "A6",
          "midi": 93,
          "time": 12.92199999999991,
          "velocity": 0.4881889763779528,
          "duration": 0.007999999999999119
        },
        {
          "name": "D7",
          "midi": 98,
          "time": 12.94099999999991,
          "velocity": 0.4881889763779528,
          "duration": 0.03799999999999848
        },
        {
          "name": "D7",
          "midi": 98,
          "time": 12.94099999999991,
          "velocity": 0.4881889763779528,
          "duration": 0.03799999999999848
        },
        {
          "name": "F4",
          "midi": 65,
          "time": 12.95099999999991,
          "velocity": 0.5354330708661418,
          "duration": 0.33299999999999663
        },
        {
          "name": "D6",
          "midi": 86,
          "time": 12.95099999999991,
          "velocity": 0.5196850393700787,
          "duration": 0.07699999999999818
        },
        {
          "name": "F4",
          "midi": 65,
          "time": 12.95099999999991,
          "velocity": 0.5354330708661418,
          "duration": 0.33299999999999663
        },
        {
          "name": "D6",
          "midi": 86,
          "time": 12.95099999999991,
          "velocity": 0.5196850393700787,
          "duration": 0.07699999999999818
        },
        {
          "name": "C#5",
          "midi": 73,
          "time": 12.97099999999991,
          "velocity": 0.48031496062992124,
          "duration": 0.017999999999998906
        },
        {
          "name": "C#5",
          "midi": 73,
          "time": 12.97099999999991,
          "velocity": 0.48031496062992124,
          "duration": 0.017999999999998906
        },
        {
          "name": "A4",
          "midi": 69,
          "time": 12.990999999999909,
          "velocity": 0.5039370078740157,
          "duration": 0.036999999999999034
        },
        {
          "name": "A4",
          "midi": 69,
          "time": 12.990999999999909,
          "velocity": 0.5039370078740157,
          "duration": 0.036999999999999034
        },
        {
          "name": "D7",
          "midi": 98,
          "time": 13.010999999999909,
          "velocity": 0.5354330708661418,
          "duration": 0.07699999999999818
        },
        {
          "name": "D7",
          "midi": 98,
          "time": 13.010999999999909,
          "velocity": 0.5354330708661418,
          "duration": 0.07699999999999818
        },
        {
          "name": "A6",
          "midi": 93,
          "time": 13.039999999999909,
          "velocity": 0.5118110236220472,
          "duration": 0.11599999999999788
        },
        {
          "name": "A6",
          "midi": 93,
          "time": 13.039999999999909,
          "velocity": 0.5118110236220472,
          "duration": 0.11599999999999788
        },
        {
          "name": "D5",
          "midi": 74,
          "time": 13.049999999999908,
          "velocity": 0.7244094488188977,
          "duration": 0.18499999999999872
        },
        {
          "name": "D5",
          "midi": 74,
          "time": 13.049999999999908,
          "velocity": 0.7244094488188977,
          "duration": 0.18499999999999872
        },
        {
          "name": "D7",
          "midi": 98,
          "time": 13.079999999999908,
          "velocity": 0.49606299212598426,
          "duration": 0.04699999999999882
        },
        {
          "name": "D7",
          "midi": 98,
          "time": 13.079999999999908,
          "velocity": 0.49606299212598426,
          "duration": 0.04699999999999882
        },
        {
          "name": "A4",
          "midi": 69,
          "time": 13.108999999999908,
          "velocity": 0.49606299212598426,
          "duration": 0.007999999999999119
        },
        {
          "name": "A4",
          "midi": 69,
          "time": 13.108999999999908,
          "velocity": 0.49606299212598426,
          "duration": 0.007999999999999119
        },
        {
          "name": "D6",
          "midi": 86,
          "time": 13.138999999999907,
          "velocity": 0.5511811023622047,
          "duration": 0.036999999999999034
        },
        {
          "name": "D6",
          "midi": 86,
          "time": 13.138999999999907,
          "velocity": 0.5511811023622047,
          "duration": 0.036999999999999034
        },
        {
          "name": "D7",
          "midi": 98,
          "time": 13.148999999999907,
          "velocity": 0.5196850393700787,
          "duration": 0.06700000000000017
        },
        {
          "name": "D7",
          "midi": 98,
          "time": 13.148999999999907,
          "velocity": 0.5196850393700787,
          "duration": 0.06700000000000017
        },
        {
          "name": "D#5",
          "midi": 75,
          "time": 13.187999999999906,
          "velocity": 0.6062992125984252,
          "duration": 0.007999999999999119
        },
        {
          "name": "D#5",
          "midi": 75,
          "time": 13.187999999999906,
          "velocity": 0.6062992125984252,
          "duration": 0.007999999999999119
        },
        {
          "name": "A6",
          "midi": 93,
          "time": 13.197999999999906,
          "velocity": 0.5196850393700787,
          "duration": 0.057000000000000384
        },
        {
          "name": "A6",
          "midi": 93,
          "time": 13.197999999999906,
          "velocity": 0.5196850393700787,
          "duration": 0.057000000000000384
        },
        {
          "name": "D7",
          "midi": 98,
          "time": 13.217999999999908,
          "velocity": 0.5196850393700787,
          "duration": 0.05699999999999861
        },
        {
          "name": "D7",
          "midi": 98,
          "time": 13.217999999999908,
          "velocity": 0.5196850393700787,
          "duration": 0.05699999999999861
        },
        {
          "name": "D5",
          "midi": 74,
          "time": 13.227999999999907,
          "velocity": 0.7165354330708661,
          "duration": 0.4909999999999961
        },
        {
          "name": "D5",
          "midi": 74,
          "time": 13.227999999999907,
          "velocity": 0.7165354330708661,
          "duration": 0.4909999999999961
        },
        {
          "name": "D7",
          "midi": 98,
          "time": 13.246999999999908,
          "velocity": 0.5196850393700787,
          "duration": 0.10699999999999754
        },
        {
          "name": "A6",
          "midi": 93,
          "time": 13.246999999999908,
          "velocity": 0.5196850393700787,
          "duration": 0.07699999999999818
        },
        {
          "name": "D7",
          "midi": 98,
          "time": 13.246999999999908,
          "velocity": 0.5196850393700787,
          "duration": 0.10699999999999754
        },
        {
          "name": "A6",
          "midi": 93,
          "time": 13.246999999999908,
          "velocity": 0.5196850393700787,
          "duration": 0.07699999999999818
        },
        {
          "name": "D6",
          "midi": 86,
          "time": 13.266999999999907,
          "velocity": 0.5354330708661418,
          "duration": 0.036999999999999034
        },
        {
          "name": "D6",
          "midi": 86,
          "time": 13.266999999999907,
          "velocity": 0.5354330708661418,
          "duration": 0.036999999999999034
        },
        {
          "name": "A3",
          "midi": 57,
          "time": 13.286999999999907,
          "velocity": 0.49606299212598426,
          "duration": 0.04699999999999882
        },
        {
          "name": "A3",
          "midi": 57,
          "time": 13.286999999999907,
          "velocity": 0.49606299212598426,
          "duration": 0.04699999999999882
        },
        {
          "name": "D7",
          "midi": 98,
          "time": 13.296999999999906,
          "velocity": 0.5354330708661418,
          "duration": 0.17499999999999716
        },
        {
          "name": "D7",
          "midi": 98,
          "time": 13.296999999999906,
          "velocity": 0.5354330708661418,
          "duration": 0.17499999999999716
        },
        {
          "name": "F4",
          "midi": 65,
          "time": 13.325999999999906,
          "velocity": 0.5118110236220472,
          "duration": 0.28399999999999714
        },
        {
          "name": "F4",
          "midi": 65,
          "time": 13.325999999999906,
          "velocity": 0.5118110236220472,
          "duration": 0.28399999999999714
        },
        {
          "name": "G3",
          "midi": 55,
          "time": 13.335999999999906,
          "velocity": 0.5590551181102362,
          "duration": 0.36299999999999777
        },
        {
          "name": "G3",
          "midi": 55,
          "time": 13.335999999999906,
          "velocity": 0.5590551181102362,
          "duration": 0.36299999999999777
        },
        {
          "name": "A6",
          "midi": 93,
          "time": 13.345999999999906,
          "velocity": 0.5196850393700787,
          "duration": 0.04699999999999882
        },
        {
          "name": "A6",
          "midi": 93,
          "time": 13.345999999999906,
          "velocity": 0.5196850393700787,
          "duration": 0.04699999999999882
        },
        {
          "name": "D6",
          "midi": 86,
          "time": 13.365999999999906,
          "velocity": 0.5511811023622047,
          "duration": 0.04699999999999882
        },
        {
          "name": "D6",
          "midi": 86,
          "time": 13.365999999999906,
          "velocity": 0.5511811023622047,
          "duration": 0.04699999999999882
        },
        {
          "name": "D6",
          "midi": 86,
          "time": 13.404999999999905,
          "velocity": 0.49606299212598426,
          "duration": 0.03799999999999848
        },
        {
          "name": "D6",
          "midi": 86,
          "time": 13.404999999999905,
          "velocity": 0.49606299212598426,
          "duration": 0.03799999999999848
        },
        {
          "name": "D#7",
          "midi": 99,
          "time": 13.444999999999904,
          "velocity": 0.5433070866141733,
          "duration": 0.06700000000000017
        },
        {
          "name": "D#7",
          "midi": 99,
          "time": 13.444999999999904,
          "velocity": 0.5433070866141733,
          "duration": 0.06700000000000017
        },
        {
          "name": "A3",
          "midi": 57,
          "time": 13.493999999999904,
          "velocity": 0.49606299212598426,
          "duration": 0.018000000000000682
        },
        {
          "name": "D6",
          "midi": 86,
          "time": 13.493999999999904,
          "velocity": 0.5196850393700787,
          "duration": 0.08699999999999974
        },
        {
          "name": "A3",
          "midi": 57,
          "time": 13.493999999999904,
          "velocity": 0.49606299212598426,
          "duration": 0.018000000000000682
        },
        {
          "name": "D6",
          "midi": 86,
          "time": 13.493999999999904,
          "velocity": 0.5196850393700787,
          "duration": 0.08699999999999974
        },
        {
          "name": "D#5",
          "midi": 75,
          "time": 13.522999999999904,
          "velocity": 0.5511811023622047,
          "duration": 0.007999999999999119
        },
        {
          "name": "A6",
          "midi": 93,
          "time": 13.522999999999904,
          "velocity": 0.5433070866141733,
          "duration": 0.036999999999999034
        },
        {
          "name": "D#5",
          "midi": 75,
          "time": 13.522999999999904,
          "velocity": 0.5511811023622047,
          "duration": 0.007999999999999119
        },
        {
          "name": "A6",
          "midi": 93,
          "time": 13.522999999999904,
          "velocity": 0.5433070866141733,
          "duration": 0.036999999999999034
        },
        {
          "name": "D7",
          "midi": 98,
          "time": 13.552999999999903,
          "velocity": 0.5275590551181102,
          "duration": 0.09699999999999953
        },
        {
          "name": "D7",
          "midi": 98,
          "time": 13.552999999999903,
          "velocity": 0.5275590551181102,
          "duration": 0.09699999999999953
        },
        {
          "name": "A#6",
          "midi": 94,
          "time": 13.592999999999904,
          "velocity": 0.5118110236220472,
          "duration": 0.036999999999999034
        },
        {
          "name": "A6",
          "midi": 93,
          "time": 13.592999999999904,
          "velocity": 0.5354330708661418,
          "duration": 0.0669999999999984
        },
        {
          "name": "A#6",
          "midi": 94,
          "time": 13.592999999999904,
          "velocity": 0.5118110236220472,
          "duration": 0.036999999999999034
        },
        {
          "name": "A6",
          "midi": 93,
          "time": 13.592999999999904,
          "velocity": 0.5354330708661418,
          "duration": 0.0669999999999984
        },
        {
          "name": "D#7",
          "midi": 99,
          "time": 13.621999999999904,
          "velocity": 0.5275590551181102,
          "duration": 0.06700000000000017
        },
        {
          "name": "D#7",
          "midi": 99,
          "time": 13.621999999999904,
          "velocity": 0.5275590551181102,
          "duration": 0.06700000000000017
        },
        {
          "name": "D#5",
          "midi": 75,
          "time": 13.651999999999903,
          "velocity": 0.5590551181102362,
          "duration": 0.007999999999999119
        },
        {
          "name": "D#5",
          "midi": 75,
          "time": 13.651999999999903,
          "velocity": 0.5590551181102362,
          "duration": 0.007999999999999119
        },
        {
          "name": "D6",
          "midi": 86,
          "time": 13.661999999999903,
          "velocity": 0.5118110236220472,
          "duration": 0.03700000000000081
        },
        {
          "name": "D6",
          "midi": 86,
          "time": 13.661999999999903,
          "velocity": 0.5118110236220472,
          "duration": 0.03700000000000081
        },
        {
          "name": "D7",
          "midi": 98,
          "time": 13.670999999999903,
          "velocity": 0.5511811023622047,
          "duration": 0.07699999999999996
        },
        {
          "name": "D7",
          "midi": 98,
          "time": 13.670999999999903,
          "velocity": 0.5511811023622047,
          "duration": 0.07699999999999996
        },
        {
          "name": "A3",
          "midi": 57,
          "time": 13.690999999999905,
          "velocity": 0.5275590551181102,
          "duration": 0.017999999999998906
        },
        {
          "name": "A3",
          "midi": 57,
          "time": 13.690999999999905,
          "velocity": 0.5275590551181102,
          "duration": 0.017999999999998906
        },
        {
          "name": "A4",
          "midi": 69,
          "time": 13.700999999999905,
          "velocity": 0.5039370078740157,
          "duration": 0.0769999999999964
        },
        {
          "name": "A4",
          "midi": 69,
          "time": 13.700999999999905,
          "velocity": 0.5039370078740157,
          "duration": 0.0769999999999964
        },
        {
          "name": "D5",
          "midi": 74,
          "time": 13.710999999999904,
          "velocity": 0.7480314960629921,
          "duration": 0.30399999999999494
        },
        {
          "name": "D5",
          "midi": 74,
          "time": 13.710999999999904,
          "velocity": 0.7480314960629921,
          "duration": 0.30399999999999494
        },
        {
          "name": "F4",
          "midi": 65,
          "time": 13.720999999999904,
          "velocity": 0.4881889763779528,
          "duration": 0.05699999999999683
        },
        {
          "name": "F4",
          "midi": 65,
          "time": 13.720999999999904,
          "velocity": 0.4881889763779528,
          "duration": 0.05699999999999683
        },
        {
          "name": "G3",
          "midi": 55,
          "time": 13.730999999999904,
          "velocity": 0.5275590551181102,
          "duration": 0.017999999999998906
        },
        {
          "name": "G3",
          "midi": 55,
          "time": 13.730999999999904,
          "velocity": 0.5275590551181102,
          "duration": 0.017999999999998906
        },
        {
          "name": "A#6",
          "midi": 94,
          "time": 13.749999999999902,
          "velocity": 0.47244094488188976,
          "duration": 0.007999999999999119
        },
        {
          "name": "A#6",
          "midi": 94,
          "time": 13.749999999999902,
          "velocity": 0.47244094488188976,
          "duration": 0.007999999999999119
        },
        {
          "name": "G3",
          "midi": 55,
          "time": 13.759999999999902,
          "velocity": 0.5275590551181102,
          "duration": 0.08699999999999797
        },
        {
          "name": "G2",
          "midi": 43,
          "time": 13.759999999999902,
          "velocity": 0.5511811023622047,
          "duration": 0.6589999999999989
        },
        {
          "name": "G3",
          "midi": 55,
          "time": 13.759999999999902,
          "velocity": 0.5275590551181102,
          "duration": 0.08699999999999797
        },
        {
          "name": "G2",
          "midi": 43,
          "time": 13.759999999999902,
          "velocity": 0.5511811023622047,
          "duration": 0.6589999999999989
        },
        {
          "name": "D7",
          "midi": 98,
          "time": 13.769999999999902,
          "velocity": 0.48031496062992124,
          "duration": 0.017999999999998906
        },
        {
          "name": "D7",
          "midi": 98,
          "time": 13.769999999999902,
          "velocity": 0.48031496062992124,
          "duration": 0.017999999999998906
        },
        {
          "name": "D6",
          "midi": 86,
          "time": 13.789999999999901,
          "velocity": 0.5118110236220472,
          "duration": 0.04699999999999882
        },
        {
          "name": "G7",
          "midi": 103,
          "time": 13.789999999999901,
          "velocity": 0.48031496062992124,
          "duration": 0.007999999999999119
        },
        {
          "name": "D6",
          "midi": 86,
          "time": 13.789999999999901,
          "velocity": 0.5118110236220472,
          "duration": 0.04699999999999882
        },
        {
          "name": "G7",
          "midi": 103,
          "time": 13.789999999999901,
          "velocity": 0.48031496062992124,
          "duration": 0.007999999999999119
        },
        {
          "name": "G#4",
          "midi": 68,
          "time": 13.799999999999901,
          "velocity": 0.5590551181102362,
          "duration": 0.2049999999999983
        },
        {
          "name": "G#4",
          "midi": 68,
          "time": 13.799999999999901,
          "velocity": 0.5590551181102362,
          "duration": 0.2049999999999983
        },
        {
          "name": "D#7",
          "midi": 99,
          "time": 13.809999999999901,
          "velocity": 0.5118110236220472,
          "duration": 0.05699999999999861
        },
        {
          "name": "D#7",
          "midi": 99,
          "time": 13.809999999999901,
          "velocity": 0.5118110236220472,
          "duration": 0.05699999999999861
        },
        {
          "name": "D7",
          "midi": 98,
          "time": 13.8489999999999,
          "velocity": 0.5118110236220472,
          "duration": 0.18499999999999872
        },
        {
          "name": "D7",
          "midi": 98,
          "time": 13.8489999999999,
          "velocity": 0.5118110236220472,
          "duration": 0.18499999999999872
        },
        {
          "name": "D#6",
          "midi": 87,
          "time": 13.8589999999999,
          "velocity": 0.49606299212598426,
          "duration": 0.017999999999998906
        },
        {
          "name": "D#6",
          "midi": 87,
          "time": 13.8589999999999,
          "velocity": 0.49606299212598426,
          "duration": 0.017999999999998906
        },
        {
          "name": "A6",
          "midi": 93,
          "time": 13.8789999999999,
          "velocity": 0.49606299212598426,
          "duration": 0.0470000000000006
        },
        {
          "name": "A6",
          "midi": 93,
          "time": 13.8789999999999,
          "velocity": 0.49606299212598426,
          "duration": 0.0470000000000006
        },
        {
          "name": "G4",
          "midi": 67,
          "time": 13.8879999999999,
          "velocity": 0.48031496062992124,
          "duration": 0.007999999999999119
        },
        {
          "name": "G4",
          "midi": 67,
          "time": 13.8879999999999,
          "velocity": 0.48031496062992124,
          "duration": 0.007999999999999119
        },
        {
          "name": "D6",
          "midi": 86,
          "time": 13.9079999999999,
          "velocity": 0.49606299212598426,
          "duration": 0.02800000000000047
        },
        {
          "name": "D6",
          "midi": 86,
          "time": 13.9079999999999,
          "velocity": 0.49606299212598426,
          "duration": 0.02800000000000047
        },
        {
          "name": "B3",
          "midi": 59,
          "time": 13.937999999999901,
          "velocity": 0.48031496062992124,
          "duration": 0.017999999999998906
        },
        {
          "name": "B3",
          "midi": 59,
          "time": 13.937999999999901,
          "velocity": 0.48031496062992124,
          "duration": 0.017999999999998906
        },
        {
          "name": "G7",
          "midi": 103,
          "time": 13.947999999999901,
          "velocity": 0.49606299212598426,
          "duration": 0.036999999999999034
        },
        {
          "name": "G7",
          "midi": 103,
          "time": 13.947999999999901,
          "velocity": 0.49606299212598426,
          "duration": 0.036999999999999034
        },
        {
          "name": "A6",
          "midi": 93,
          "time": 13.9769999999999,
          "velocity": 0.5039370078740157,
          "duration": 0.10699999999999754
        },
        {
          "name": "A6",
          "midi": 93,
          "time": 13.9769999999999,
          "velocity": 0.5039370078740157,
          "duration": 0.10699999999999754
        },
        {
          "name": "D7",
          "midi": 98,
          "time": 14.0069999999999,
          "velocity": 0.5905511811023622,
          "duration": 0.04699999999999882
        },
        {
          "name": "D7",
          "midi": 98,
          "time": 14.0069999999999,
          "velocity": 0.5905511811023622,
          "duration": 0.04699999999999882
        },
        {
          "name": "B3",
          "midi": 59,
          "time": 14.0169999999999,
          "velocity": 0.5275590551181102,
          "duration": 0.08699999999999797
        },
        {
          "name": "B3",
          "midi": 59,
          "time": 14.0169999999999,
          "velocity": 0.5275590551181102,
          "duration": 0.08699999999999797
        },
        {
          "name": "G#4",
          "midi": 68,
          "time": 14.0269999999999,
          "velocity": 0.5669291338582677,
          "duration": 0.32399999999999984
        },
        {
          "name": "G#4",
          "midi": 68,
          "time": 14.0269999999999,
          "velocity": 0.5669291338582677,
          "duration": 0.32399999999999984
        },
        {
          "name": "D4",
          "midi": 62,
          "time": 14.0559999999999,
          "velocity": 0.4881889763779528,
          "duration": 0.036999999999999034
        },
        {
          "name": "D4",
          "midi": 62,
          "time": 14.0559999999999,
          "velocity": 0.4881889763779528,
          "duration": 0.036999999999999034
        },
        {
          "name": "G3",
          "midi": 55,
          "time": 14.0759999999999,
          "velocity": 0.49606299212598426,
          "duration": 0.11599999999999788
        },
        {
          "name": "G3",
          "midi": 55,
          "time": 14.0759999999999,
          "velocity": 0.49606299212598426,
          "duration": 0.11599999999999788
        },
        {
          "name": "F#7",
          "midi": 102,
          "time": 14.095999999999899,
          "velocity": 0.5039370078740157,
          "duration": 0.007999999999999119
        },
        {
          "name": "F#7",
          "midi": 102,
          "time": 14.095999999999899,
          "velocity": 0.5039370078740157,
          "duration": 0.007999999999999119
        },
        {
          "name": "D#5",
          "midi": 75,
          "time": 14.104999999999897,
          "velocity": 0.6377952755905512,
          "duration": 0.16600000000000215
        },
        {
          "name": "D#5",
          "midi": 75,
          "time": 14.104999999999897,
          "velocity": 0.6377952755905512,
          "duration": 0.16600000000000215
        },
        {
          "name": "D7",
          "midi": 98,
          "time": 14.114999999999897,
          "velocity": 0.49606299212598426,
          "duration": 0.02800000000000047
        },
        {
          "name": "A#7",
          "midi": 106,
          "time": 14.114999999999897,
          "velocity": 0.5039370078740157,
          "duration": 0.018000000000000682
        },
        {
          "name": "D7",
          "midi": 98,
          "time": 14.114999999999897,
          "velocity": 0.49606299212598426,
          "duration": 0.02800000000000047
        },
        {
          "name": "A#7",
          "midi": 106,
          "time": 14.114999999999897,
          "velocity": 0.5039370078740157,
          "duration": 0.018000000000000682
        },
        {
          "name": "E7",
          "midi": 100,
          "time": 14.144999999999898,
          "velocity": 0.6377952755905512,
          "duration": 0.4320000000000004
        },
        {
          "name": "E7",
          "midi": 100,
          "time": 14.144999999999898,
          "velocity": 0.6377952755905512,
          "duration": 0.4320000000000004
        },
        {
          "name": "D4",
          "midi": 62,
          "time": 14.154999999999898,
          "velocity": 0.4881889763779528,
          "duration": 0.007999999999999119
        },
        {
          "name": "D4",
          "midi": 62,
          "time": 14.154999999999898,
          "velocity": 0.4881889763779528,
          "duration": 0.007999999999999119
        },
        {
          "name": "A#6",
          "midi": 94,
          "time": 14.173999999999896,
          "velocity": 0.5196850393700787,
          "duration": 0.07700000000000173
        },
        {
          "name": "A#6",
          "midi": 94,
          "time": 14.173999999999896,
          "velocity": 0.5196850393700787,
          "duration": 0.07700000000000173
        },
        {
          "name": "F4",
          "midi": 65,
          "time": 14.223999999999897,
          "velocity": 0.5118110236220472,
          "duration": 0.018000000000000682
        },
        {
          "name": "F4",
          "midi": 65,
          "time": 14.223999999999897,
          "velocity": 0.5118110236220472,
          "duration": 0.018000000000000682
        },
        {
          "name": "B3",
          "midi": 59,
          "time": 14.252999999999899,
          "velocity": 0.5196850393700787,
          "duration": 0.07699999999999996
        },
        {
          "name": "B3",
          "midi": 59,
          "time": 14.252999999999899,
          "velocity": 0.5196850393700787,
          "duration": 0.07699999999999996
        },
        {
          "name": "A#6",
          "midi": 94,
          "time": 14.2929999999999,
          "velocity": 0.5354330708661418,
          "duration": 0.08699999999999974
        },
        {
          "name": "A#6",
          "midi": 94,
          "time": 14.2929999999999,
          "velocity": 0.5354330708661418,
          "duration": 0.08699999999999974
        },
        {
          "name": "D4",
          "midi": 62,
          "time": 14.3029999999999,
          "velocity": 0.5039370078740157,
          "duration": 0.007999999999999119
        },
        {
          "name": "D4",
          "midi": 62,
          "time": 14.3029999999999,
          "velocity": 0.5039370078740157,
          "duration": 0.007999999999999119
        },
        {
          "name": "G3",
          "midi": 55,
          "time": 14.3419999999999,
          "velocity": 0.5590551181102362,
          "duration": 0.1460000000000008
        },
        {
          "name": "G4",
          "midi": 67,
          "time": 14.3419999999999,
          "velocity": 0.5275590551181102,
          "duration": 0.0470000000000006
        },
        {
          "name": "G3",
          "midi": 55,
          "time": 14.3419999999999,
          "velocity": 0.5590551181102362,
          "duration": 0.1460000000000008
        },
        {
          "name": "G4",
          "midi": 67,
          "time": 14.3419999999999,
          "velocity": 0.5275590551181102,
          "duration": 0.0470000000000006
        },
        {
          "name": "E6",
          "midi": 88,
          "time": 14.361999999999899,
          "velocity": 0.5118110236220472,
          "duration": 0.018000000000000682
        },
        {
          "name": "E6",
          "midi": 88,
          "time": 14.361999999999899,
          "velocity": 0.5118110236220472,
          "duration": 0.018000000000000682
        },
        {
          "name": "B3",
          "midi": 59,
          "time": 14.3909999999999,
          "velocity": 0.5118110236220472,
          "duration": 0.07699999999999996
        },
        {
          "name": "D#5",
          "midi": 75,
          "time": 14.3909999999999,
          "velocity": 0.5826771653543307,
          "duration": 0.13599999999999923
        },
        {
          "name": "B3",
          "midi": 59,
          "time": 14.3909999999999,
          "velocity": 0.5118110236220472,
          "duration": 0.07699999999999996
        },
        {
          "name": "D#5",
          "midi": 75,
          "time": 14.3909999999999,
          "velocity": 0.5826771653543307,
          "duration": 0.13599999999999923
        },
        {
          "name": "A#6",
          "midi": 94,
          "time": 14.4009999999999,
          "velocity": 0.5354330708661418,
          "duration": 0.03700000000000081
        },
        {
          "name": "A#6",
          "midi": 94,
          "time": 14.4009999999999,
          "velocity": 0.5354330708661418,
          "duration": 0.03700000000000081
        },
        {
          "name": "E6",
          "midi": 88,
          "time": 14.440999999999901,
          "velocity": 0.5196850393700787,
          "duration": 0.12599999999999767
        },
        {
          "name": "E6",
          "midi": 88,
          "time": 14.440999999999901,
          "velocity": 0.5196850393700787,
          "duration": 0.12599999999999767
        },
        {
          "name": "F4",
          "midi": 65,
          "time": 14.450999999999901,
          "velocity": 0.48031496062992124,
          "duration": 0.007999999999999119
        },
        {
          "name": "F4",
          "midi": 65,
          "time": 14.450999999999901,
          "velocity": 0.48031496062992124,
          "duration": 0.007999999999999119
        },
        {
          "name": "A#2",
          "midi": 46,
          "time": 14.4899999999999,
          "velocity": 0.5905511811023622,
          "duration": 0.017999999999998906
        },
        {
          "name": "A#6",
          "midi": 94,
          "time": 14.4899999999999,
          "velocity": 0.5748031496062992,
          "duration": 0.027999999999998693
        },
        {
          "name": "A#2",
          "midi": 46,
          "time": 14.4899999999999,
          "velocity": 0.5905511811023622,
          "duration": 0.017999999999998906
        },
        {
          "name": "A#6",
          "midi": 94,
          "time": 14.4899999999999,
          "velocity": 0.5748031496062992,
          "duration": 0.027999999999998693
        },
        {
          "name": "B6",
          "midi": 95,
          "time": 14.4999999999999,
          "velocity": 0.5275590551181102,
          "duration": 0.04699999999999882
        },
        {
          "name": "B6",
          "midi": 95,
          "time": 14.4999999999999,
          "velocity": 0.5275590551181102,
          "duration": 0.04699999999999882
        },
        {
          "name": "G3",
          "midi": 55,
          "time": 14.5389999999999,
          "velocity": 0.5118110236220472,
          "duration": 0.036999999999999034
        },
        {
          "name": "G#4",
          "midi": 68,
          "time": 14.5389999999999,
          "velocity": 0.5196850393700787,
          "duration": 0.07699999999999818
        },
        {
          "name": "C4",
          "midi": 60,
          "time": 14.5389999999999,
          "velocity": 0.5196850393700787,
          "duration": 0.4219999999999935
        },
        {
          "name": "G3",
          "midi": 55,
          "time": 14.5389999999999,
          "velocity": 0.5118110236220472,
          "duration": 0.036999999999999034
        },
        {
          "name": "G#4",
          "midi": 68,
          "time": 14.5389999999999,
          "velocity": 0.5196850393700787,
          "duration": 0.07699999999999818
        },
        {
          "name": "C4",
          "midi": 60,
          "time": 14.5389999999999,
          "velocity": 0.5196850393700787,
          "duration": 0.4219999999999935
        },
        {
          "name": "G7",
          "midi": 103,
          "time": 14.5789999999999,
          "velocity": 0.47244094488188976,
          "duration": 0.017999999999998906
        },
        {
          "name": "E5",
          "midi": 76,
          "time": 14.5789999999999,
          "velocity": 0.5275590551181102,
          "duration": 0.1559999999999988
        },
        {
          "name": "G7",
          "midi": 103,
          "time": 14.5789999999999,
          "velocity": 0.47244094488188976,
          "duration": 0.017999999999998906
        },
        {
          "name": "E5",
          "midi": 76,
          "time": 14.5789999999999,
          "velocity": 0.5275590551181102,
          "duration": 0.1559999999999988
        },
        {
          "name": "A#6",
          "midi": 94,
          "time": 14.5889999999999,
          "velocity": 0.4645669291338583,
          "duration": 0.007999999999999119
        },
        {
          "name": "A#6",
          "midi": 94,
          "time": 14.5889999999999,
          "velocity": 0.4645669291338583,
          "duration": 0.007999999999999119
        },
        {
          "name": "A2",
          "midi": 45,
          "time": 14.608999999999899,
          "velocity": 0.5826771653543307,
          "duration": 0.018000000000000682
        },
        {
          "name": "E7",
          "midi": 100,
          "time": 14.608999999999899,
          "velocity": 0.5433070866141733,
          "duration": 0.27399999999999736
        },
        {
          "name": "A2",
          "midi": 45,
          "time": 14.608999999999899,
          "velocity": 0.5826771653543307,
          "duration": 0.018000000000000682
        },
        {
          "name": "E7",
          "midi": 100,
          "time": 14.608999999999899,
          "velocity": 0.5433070866141733,
          "duration": 0.27399999999999736
        },
        {
          "name": "B6",
          "midi": 95,
          "time": 14.617999999999899,
          "velocity": 0.48031496062992124,
          "duration": 0.027999999999998693
        },
        {
          "name": "B6",
          "midi": 95,
          "time": 14.617999999999899,
          "velocity": 0.48031496062992124,
          "duration": 0.027999999999998693
        },
        {
          "name": "G#7",
          "midi": 104,
          "time": 14.627999999999899,
          "velocity": 0.4881889763779528,
          "duration": 0.027999999999998693
        },
        {
          "name": "G#7",
          "midi": 104,
          "time": 14.627999999999899,
          "velocity": 0.4881889763779528,
          "duration": 0.027999999999998693
        },
        {
          "name": "B2",
          "midi": 47,
          "time": 14.637999999999899,
          "velocity": 0.7244094488188977,
          "duration": 0.036999999999999034
        },
        {
          "name": "B2",
          "midi": 47,
          "time": 14.637999999999899,
          "velocity": 0.7244094488188977,
          "duration": 0.036999999999999034
        },
        {
          "name": "G3",
          "midi": 55,
          "time": 14.657999999999898,
          "velocity": 0.5748031496062992,
          "duration": 0.14599999999999902
        },
        {
          "name": "G3",
          "midi": 55,
          "time": 14.657999999999898,
          "velocity": 0.5748031496062992,
          "duration": 0.14599999999999902
        },
        {
          "name": "B6",
          "midi": 95,
          "time": 14.667999999999898,
          "velocity": 0.5039370078740157,
          "duration": 0.07699999999999996
        },
        {
          "name": "B6",
          "midi": 95,
          "time": 14.667999999999898,
          "velocity": 0.5039370078740157,
          "duration": 0.07699999999999996
        },
        {
          "name": "G#7",
          "midi": 104,
          "time": 14.706999999999898,
          "velocity": 0.5196850393700787,
          "duration": 0.08699999999999974
        },
        {
          "name": "G#7",
          "midi": 104,
          "time": 14.706999999999898,
          "velocity": 0.5196850393700787,
          "duration": 0.08699999999999974
        },
        {
          "name": "E6",
          "midi": 88,
          "time": 14.746999999999899,
          "velocity": 0.49606299212598426,
          "duration": 0.02800000000000047
        },
        {
          "name": "E6",
          "midi": 88,
          "time": 14.746999999999899,
          "velocity": 0.49606299212598426,
          "duration": 0.02800000000000047
        },
        {
          "name": "B6",
          "midi": 95,
          "time": 14.775999999999899,
          "velocity": 0.5275590551181102,
          "duration": 0.04699999999999882
        },
        {
          "name": "B6",
          "midi": 95,
          "time": 14.775999999999899,
          "velocity": 0.5275590551181102,
          "duration": 0.04699999999999882
        },
        {
          "name": "E4",
          "midi": 64,
          "time": 14.785999999999898,
          "velocity": 0.4881889763779528,
          "duration": 0.007999999999999119
        },
        {
          "name": "E4",
          "midi": 64,
          "time": 14.785999999999898,
          "velocity": 0.4881889763779528,
          "duration": 0.007999999999999119
        },
        {
          "name": "E5",
          "midi": 76,
          "time": 14.805999999999898,
          "velocity": 0.5118110236220472,
          "duration": 0.027999999999998693
        },
        {
          "name": "B2",
          "midi": 47,
          "time": 14.805999999999898,
          "velocity": 0.5196850393700787,
          "duration": 0.007999999999999119
        },
        {
          "name": "E5",
          "midi": 76,
          "time": 14.805999999999898,
          "velocity": 0.5118110236220472,
          "duration": 0.027999999999998693
        },
        {
          "name": "B2",
          "midi": 47,
          "time": 14.805999999999898,
          "velocity": 0.5196850393700787,
          "duration": 0.007999999999999119
        },
        {
          "name": "E6",
          "midi": 88,
          "time": 14.825999999999897,
          "velocity": 0.5354330708661418,
          "duration": 0.017999999999998906
        },
        {
          "name": "E6",
          "midi": 88,
          "time": 14.825999999999897,
          "velocity": 0.5354330708661418,
          "duration": 0.017999999999998906
        },
        {
          "name": "G3",
          "midi": 55,
          "time": 14.834999999999896,
          "velocity": 0.6692913385826772,
          "duration": 0.5699999999999985
        },
        {
          "name": "C3",
          "midi": 48,
          "time": 14.834999999999896,
          "velocity": 0.5905511811023622,
          "duration": 0.1559999999999988
        },
        {
          "name": "G3",
          "midi": 55,
          "time": 14.834999999999896,
          "velocity": 0.6692913385826772,
          "duration": 0.5699999999999985
        },
        {
          "name": "C3",
          "midi": 48,
          "time": 14.834999999999896,
          "velocity": 0.5905511811023622,
          "duration": 0.1559999999999988
        },
        {
          "name": "G4",
          "midi": 67,
          "time": 14.844999999999896,
          "velocity": 0.5196850393700787,
          "duration": 0.02800000000000047
        },
        {
          "name": "G4",
          "midi": 67,
          "time": 14.844999999999896,
          "velocity": 0.5196850393700787,
          "duration": 0.02800000000000047
        },
        {
          "name": "E5",
          "midi": 76,
          "time": 14.854999999999896,
          "velocity": 0.5275590551181102,
          "duration": 0.03700000000000081
        },
        {
          "name": "E5",
          "midi": 76,
          "time": 14.854999999999896,
          "velocity": 0.5275590551181102,
          "duration": 0.03700000000000081
        },
        {
          "name": "E4",
          "midi": 64,
          "time": 14.884999999999897,
          "velocity": 0.5354330708661418,
          "duration": 0.017999999999998906
        },
        {
          "name": "E4",
          "midi": 64,
          "time": 14.884999999999897,
          "velocity": 0.5354330708661418,
          "duration": 0.017999999999998906
        },
        {
          "name": "G#7",
          "midi": 104,
          "time": 14.894999999999897,
          "velocity": 0.5275590551181102,
          "duration": 0.027999999999998693
        },
        {
          "name": "G#7",
          "midi": 104,
          "time": 14.894999999999897,
          "velocity": 0.5275590551181102,
          "duration": 0.027999999999998693
        },
        {
          "name": "E7",
          "midi": 100,
          "time": 14.903999999999895,
          "velocity": 0.5511811023622047,
          "duration": 0.2750000000000039
        },
        {
          "name": "E7",
          "midi": 100,
          "time": 14.903999999999895,
          "velocity": 0.5511811023622047,
          "duration": 0.2750000000000039
        },
        {
          "name": "B6",
          "midi": 95,
          "time": 14.913999999999895,
          "velocity": 0.5118110236220472,
          "duration": 0.16600000000000037
        },
        {
          "name": "B6",
          "midi": 95,
          "time": 14.913999999999895,
          "velocity": 0.5118110236220472,
          "duration": 0.16600000000000037
        },
        {
          "name": "F#3",
          "midi": 54,
          "time": 14.933999999999894,
          "velocity": 0.5433070866141733,
          "duration": 0.007999999999999119
        },
        {
          "name": "F#3",
          "midi": 54,
          "time": 14.933999999999894,
          "velocity": 0.5433070866141733,
          "duration": 0.007999999999999119
        },
        {
          "name": "G4",
          "midi": 67,
          "time": 14.953999999999894,
          "velocity": 0.5118110236220472,
          "duration": 0.057000000000000384
        },
        {
          "name": "G4",
          "midi": 67,
          "time": 14.953999999999894,
          "velocity": 0.5118110236220472,
          "duration": 0.057000000000000384
        },
        {
          "name": "G#7",
          "midi": 104,
          "time": 14.972999999999894,
          "velocity": 0.5118110236220472,
          "duration": 0.16600000000000392
        },
        {
          "name": "G#7",
          "midi": 104,
          "time": 14.972999999999894,
          "velocity": 0.5118110236220472,
          "duration": 0.16600000000000392
        },
        {
          "name": "F7",
          "midi": 101,
          "time": 15.002999999999895,
          "velocity": 0.5039370078740157,
          "duration": 0.007999999999999119
        },
        {
          "name": "F7",
          "midi": 101,
          "time": 15.002999999999895,
          "velocity": 0.5039370078740157,
          "duration": 0.007999999999999119
        },
        {
          "name": "C4",
          "midi": 60,
          "time": 15.022999999999895,
          "velocity": 0.4881889763779528,
          "duration": 0.08700000000000152
        },
        {
          "name": "C4",
          "midi": 60,
          "time": 15.022999999999895,
          "velocity": 0.4881889763779528,
          "duration": 0.08700000000000152
        },
        {
          "name": "E5",
          "midi": 76,
          "time": 15.042999999999894,
          "velocity": 0.48031496062992124,
          "duration": 0.018000000000000682
        },
        {
          "name": "E5",
          "midi": 76,
          "time": 15.042999999999894,
          "velocity": 0.48031496062992124,
          "duration": 0.018000000000000682
        },
        {
          "name": "G4",
          "midi": 67,
          "time": 15.081999999999896,
          "velocity": 0.49606299212598426,
          "duration": 0.03700000000000081
        },
        {
          "name": "G4",
          "midi": 67,
          "time": 15.081999999999896,
          "velocity": 0.49606299212598426,
          "duration": 0.03700000000000081
        },
        {
          "name": "E4",
          "midi": 64,
          "time": 15.091999999999896,
          "velocity": 0.5275590551181102,
          "duration": 0.06700000000000372
        },
        {
          "name": "E4",
          "midi": 64,
          "time": 15.091999999999896,
          "velocity": 0.5275590551181102,
          "duration": 0.06700000000000372
        },
        {
          "name": "G#7",
          "midi": 104,
          "time": 15.120999999999897,
          "velocity": 0.5590551181102362,
          "duration": 0.12599999999999945
        },
        {
          "name": "G#7",
          "midi": 104,
          "time": 15.120999999999897,
          "velocity": 0.5590551181102362,
          "duration": 0.12599999999999945
        },
        {
          "name": "G4",
          "midi": 67,
          "time": 15.140999999999899,
          "velocity": 0.5826771653543307,
          "duration": 0.2149999999999963
        },
        {
          "name": "G4",
          "midi": 67,
          "time": 15.140999999999899,
          "velocity": 0.5826771653543307,
          "duration": 0.2149999999999963
        },
        {
          "name": "E5",
          "midi": 76,
          "time": 15.1609999999999,
          "velocity": 0.5590551181102362,
          "duration": 0.03699999999999726
        },
        {
          "name": "E5",
          "midi": 76,
          "time": 15.1609999999999,
          "velocity": 0.5590551181102362,
          "duration": 0.03699999999999726
        },
        {
          "name": "E7",
          "midi": 100,
          "time": 15.1709999999999,
          "velocity": 0.5984251968503937,
          "duration": 0.046999999999997044
        },
        {
          "name": "E7",
          "midi": 100,
          "time": 15.1709999999999,
          "velocity": 0.5984251968503937,
          "duration": 0.046999999999997044
        },
        {
          "name": "B6",
          "midi": 95,
          "time": 15.189999999999898,
          "velocity": 0.5669291338582677,
          "duration": 0.036999999999999034
        },
        {
          "name": "B6",
          "midi": 95,
          "time": 15.189999999999898,
          "velocity": 0.5669291338582677,
          "duration": 0.036999999999999034
        },
        {
          "name": "E6",
          "midi": 88,
          "time": 15.209999999999898,
          "velocity": 0.5196850393700787,
          "duration": 0.017999999999998906
        },
        {
          "name": "E6",
          "midi": 88,
          "time": 15.209999999999898,
          "velocity": 0.5196850393700787,
          "duration": 0.017999999999998906
        },
        {
          "name": "E4",
          "midi": 64,
          "time": 15.229999999999897,
          "velocity": 0.5118110236220472,
          "duration": 0.027999999999998693
        },
        {
          "name": "E4",
          "midi": 64,
          "time": 15.229999999999897,
          "velocity": 0.5118110236220472,
          "duration": 0.027999999999998693
        },
        {
          "name": "C3",
          "midi": 48,
          "time": 15.239999999999897,
          "velocity": 0.5118110236220472,
          "duration": 0.007999999999999119
        },
        {
          "name": "E5",
          "midi": 76,
          "time": 15.239999999999897,
          "velocity": 0.6062992125984252,
          "duration": 0.09699999999999953
        },
        {
          "name": "C3",
          "midi": 48,
          "time": 15.239999999999897,
          "velocity": 0.5118110236220472,
          "duration": 0.007999999999999119
        },
        {
          "name": "E5",
          "midi": 76,
          "time": 15.239999999999897,
          "velocity": 0.6062992125984252,
          "duration": 0.09699999999999953
        },
        {
          "name": "C4",
          "midi": 60,
          "time": 15.259999999999897,
          "velocity": 0.6692913385826772,
          "duration": 0.4419999999999895
        },
        {
          "name": "E7",
          "midi": 100,
          "time": 15.259999999999897,
          "velocity": 0.5275590551181102,
          "duration": 0.14599999999999724
        },
        {
          "name": "C4",
          "midi": 60,
          "time": 15.259999999999897,
          "velocity": 0.6692913385826772,
          "duration": 0.4419999999999895
        },
        {
          "name": "E7",
          "midi": 100,
          "time": 15.259999999999897,
          "velocity": 0.5275590551181102,
          "duration": 0.14599999999999724
        },
        {
          "name": "E6",
          "midi": 88,
          "time": 15.268999999999897,
          "velocity": 0.5275590551181102,
          "duration": 0.007999999999999119
        },
        {
          "name": "E6",
          "midi": 88,
          "time": 15.268999999999897,
          "velocity": 0.5275590551181102,
          "duration": 0.007999999999999119
        },
        {
          "name": "G#7",
          "midi": 104,
          "time": 15.288999999999897,
          "velocity": 0.5196850393700787,
          "duration": 0.007999999999999119
        },
        {
          "name": "G#7",
          "midi": 104,
          "time": 15.288999999999897,
          "velocity": 0.5196850393700787,
          "duration": 0.007999999999999119
        },
        {
          "name": "G#7",
          "midi": 104,
          "time": 15.318999999999896,
          "velocity": 0.5118110236220472,
          "duration": 0.02800000000000047
        },
        {
          "name": "G#7",
          "midi": 104,
          "time": 15.318999999999896,
          "velocity": 0.5118110236220472,
          "duration": 0.02800000000000047
        },
        {
          "name": "B6",
          "midi": 95,
          "time": 15.347999999999896,
          "velocity": 0.5118110236220472,
          "duration": 0.027999999999998693
        },
        {
          "name": "B6",
          "midi": 95,
          "time": 15.347999999999896,
          "velocity": 0.5118110236220472,
          "duration": 0.027999999999998693
        },
        {
          "name": "E7",
          "midi": 100,
          "time": 15.357999999999896,
          "velocity": 0.5196850393700787,
          "duration": 0.09699999999999598
        },
        {
          "name": "E7",
          "midi": 100,
          "time": 15.357999999999896,
          "velocity": 0.5196850393700787,
          "duration": 0.09699999999999598
        },
        {
          "name": "E4",
          "midi": 64,
          "time": 15.367999999999896,
          "velocity": 0.5039370078740157,
          "duration": 0.017999999999998906
        },
        {
          "name": "E4",
          "midi": 64,
          "time": 15.367999999999896,
          "velocity": 0.5039370078740157,
          "duration": 0.017999999999998906
        },
        {
          "name": "G#7",
          "midi": 104,
          "time": 15.387999999999895,
          "velocity": 0.5354330708661418,
          "duration": 0.03699999999999726
        },
        {
          "name": "G#7",
          "midi": 104,
          "time": 15.387999999999895,
          "velocity": 0.5354330708661418,
          "duration": 0.03699999999999726
        },
        {
          "name": "C7",
          "midi": 96,
          "time": 15.397999999999895,
          "velocity": 0.5118110236220472,
          "duration": 0.0769999999999964
        },
        {
          "name": "C7",
          "midi": 96,
          "time": 15.397999999999895,
          "velocity": 0.5118110236220472,
          "duration": 0.0769999999999964
        },
        {
          "name": "G#7",
          "midi": 104,
          "time": 15.416999999999893,
          "velocity": 0.49606299212598426,
          "duration": 0.06799999999999784
        },
        {
          "name": "G4",
          "midi": 67,
          "time": 15.416999999999893,
          "velocity": 0.5748031496062992,
          "duration": 0.16599999999999682
        },
        {
          "name": "G#7",
          "midi": 104,
          "time": 15.416999999999893,
          "velocity": 0.49606299212598426,
          "duration": 0.06799999999999784
        },
        {
          "name": "G4",
          "midi": 67,
          "time": 15.416999999999893,
          "velocity": 0.5748031496062992,
          "duration": 0.16599999999999682
        },
        {
          "name": "E4",
          "midi": 64,
          "time": 15.456999999999892,
          "velocity": 0.5748031496062992,
          "duration": 0.13599999999999746
        },
        {
          "name": "E4",
          "midi": 64,
          "time": 15.456999999999892,
          "velocity": 0.5748031496062992,
          "duration": 0.13599999999999746
        },
        {
          "name": "B6",
          "midi": 95,
          "time": 15.466999999999892,
          "velocity": 0.5511811023622047,
          "duration": 0.03699999999999726
        },
        {
          "name": "B6",
          "midi": 95,
          "time": 15.466999999999892,
          "velocity": 0.5511811023622047,
          "duration": 0.03699999999999726
        },
        {
          "name": "G3",
          "midi": 55,
          "time": 15.48599999999989,
          "velocity": 0.5354330708661418,
          "duration": 0.08699999999999974
        },
        {
          "name": "G3",
          "midi": 55,
          "time": 15.48599999999989,
          "velocity": 0.5354330708661418,
          "duration": 0.08699999999999974
        },
        {
          "name": "B6",
          "midi": 95,
          "time": 15.49599999999989,
          "velocity": 0.5354330708661418,
          "duration": 0.09699999999999953
        },
        {
          "name": "B6",
          "midi": 95,
          "time": 15.49599999999989,
          "velocity": 0.5354330708661418,
          "duration": 0.09699999999999953
        },
        {
          "name": "E7",
          "midi": 100,
          "time": 15.51599999999989,
          "velocity": 0.5433070866141733,
          "duration": 0.03700000000000081
        },
        {
          "name": "E7",
          "midi": 100,
          "time": 15.51599999999989,
          "velocity": 0.5433070866141733,
          "duration": 0.03700000000000081
        },
        {
          "name": "B6",
          "midi": 95,
          "time": 15.574999999999891,
          "velocity": 0.5590551181102362,
          "duration": 0.05799999999999805
        },
        {
          "name": "B6",
          "midi": 95,
          "time": 15.574999999999891,
          "velocity": 0.5590551181102362,
          "duration": 0.05799999999999805
        },
        {
          "name": "E5",
          "midi": 76,
          "time": 15.58499999999989,
          "velocity": 0.5590551181102362,
          "duration": 0.06699999999999662
        },
        {
          "name": "E5",
          "midi": 76,
          "time": 15.58499999999989,
          "velocity": 0.5590551181102362,
          "duration": 0.06699999999999662
        },
        {
          "name": "G#7",
          "midi": 104,
          "time": 15.59499999999989,
          "velocity": 0.5196850393700787,
          "duration": 0.007999999999999119
        },
        {
          "name": "G#7",
          "midi": 104,
          "time": 15.59499999999989,
          "velocity": 0.5196850393700787,
          "duration": 0.007999999999999119
        },
        {
          "name": "G4",
          "midi": 67,
          "time": 15.60499999999989,
          "velocity": 0.49606299212598426,
          "duration": 0.017999999999998906
        },
        {
          "name": "G3",
          "midi": 55,
          "time": 15.60499999999989,
          "velocity": 0.6062992125984252,
          "duration": 0.42199999999999704
        },
        {
          "name": "G4",
          "midi": 67,
          "time": 15.60499999999989,
          "velocity": 0.49606299212598426,
          "duration": 0.017999999999998906
        },
        {
          "name": "G3",
          "midi": 55,
          "time": 15.60499999999989,
          "velocity": 0.6062992125984252,
          "duration": 0.42199999999999704
        },
        {
          "name": "E7",
          "midi": 100,
          "time": 15.61499999999989,
          "velocity": 0.5275590551181102,
          "duration": 0.017999999999998906
        },
        {
          "name": "E7",
          "midi": 100,
          "time": 15.61499999999989,
          "velocity": 0.5275590551181102,
          "duration": 0.017999999999998906
        },
        {
          "name": "G#7",
          "midi": 104,
          "time": 15.643999999999888,
          "velocity": 0.5039370078740157,
          "duration": 0.027999999999998693
        },
        {
          "name": "E4",
          "midi": 64,
          "time": 15.643999999999888,
          "velocity": 0.6771653543307087,
          "duration": 0.29399999999999515
        },
        {
          "name": "E6",
          "midi": 88,
          "time": 15.643999999999888,
          "velocity": 0.5354330708661418,
          "duration": 0.04699999999999882
        },
        {
          "name": "G#7",
          "midi": 104,
          "time": 15.643999999999888,
          "velocity": 0.5039370078740157,
          "duration": 0.027999999999998693
        },
        {
          "name": "E4",
          "midi": 64,
          "time": 15.643999999999888,
          "velocity": 0.6771653543307087,
          "duration": 0.29399999999999515
        },
        {
          "name": "E6",
          "midi": 88,
          "time": 15.643999999999888,
          "velocity": 0.5354330708661418,
          "duration": 0.04699999999999882
        },
        {
          "name": "E5",
          "midi": 76,
          "time": 15.673999999999888,
          "velocity": 0.5433070866141733,
          "duration": 0.05699999999999861
        },
        {
          "name": "E5",
          "midi": 76,
          "time": 15.673999999999888,
          "velocity": 0.5433070866141733,
          "duration": 0.05699999999999861
        },
        {
          "name": "E7",
          "midi": 100,
          "time": 15.683999999999887,
          "velocity": 0.5590551181102362,
          "duration": 0.08699999999999797
        },
        {
          "name": "E7",
          "midi": 100,
          "time": 15.683999999999887,
          "velocity": 0.5590551181102362,
          "duration": 0.08699999999999797
        },
        {
          "name": "B6",
          "midi": 95,
          "time": 15.702999999999886,
          "velocity": 0.5118110236220472,
          "duration": 0.15599999999999703
        },
        {
          "name": "B6",
          "midi": 95,
          "time": 15.702999999999886,
          "velocity": 0.5118110236220472,
          "duration": 0.15599999999999703
        },
        {
          "name": "G4",
          "midi": 67,
          "time": 15.732999999999887,
          "velocity": 0.5354330708661418,
          "duration": 0.036999999999999034
        },
        {
          "name": "G4",
          "midi": 67,
          "time": 15.732999999999887,
          "velocity": 0.5354330708661418,
          "duration": 0.036999999999999034
        },
        {
          "name": "C4",
          "midi": 60,
          "time": 15.742999999999887,
          "velocity": 0.5118110236220472,
          "duration": 0.046999999999997044
        },
        {
          "name": "C4",
          "midi": 60,
          "time": 15.742999999999887,
          "velocity": 0.5118110236220472,
          "duration": 0.046999999999997044
        },
        {
          "name": "E5",
          "midi": 76,
          "time": 15.781999999999885,
          "velocity": 0.49606299212598426,
          "duration": 0.017999999999998906
        },
        {
          "name": "G#7",
          "midi": 104,
          "time": 15.781999999999885,
          "velocity": 0.5118110236220472,
          "duration": 0.036999999999999034
        },
        {
          "name": "E5",
          "midi": 76,
          "time": 15.781999999999885,
          "velocity": 0.49606299212598426,
          "duration": 0.017999999999998906
        },
        {
          "name": "G#7",
          "midi": 104,
          "time": 15.781999999999885,
          "velocity": 0.5118110236220472,
          "duration": 0.036999999999999034
        },
        {
          "name": "E7",
          "midi": 100,
          "time": 15.801999999999884,
          "velocity": 0.5196850393700787,
          "duration": 0.1850000000000005
        },
        {
          "name": "E7",
          "midi": 100,
          "time": 15.801999999999884,
          "velocity": 0.5196850393700787,
          "duration": 0.1850000000000005
        },
        {
          "name": "E6",
          "midi": 88,
          "time": 15.821999999999884,
          "velocity": 0.5275590551181102,
          "duration": 0.05699999999999861
        },
        {
          "name": "E6",
          "midi": 88,
          "time": 15.821999999999884,
          "velocity": 0.5275590551181102,
          "duration": 0.05699999999999861
        },
        {
          "name": "C4",
          "midi": 60,
          "time": 15.831999999999883,
          "velocity": 0.5039370078740157,
          "duration": 0.17600000000000193
        },
        {
          "name": "C4",
          "midi": 60,
          "time": 15.831999999999883,
          "velocity": 0.5039370078740157,
          "duration": 0.17600000000000193
        },
        {
          "name": "G4",
          "midi": 67,
          "time": 15.870999999999883,
          "velocity": 0.4881889763779528,
          "duration": 0.017999999999998906
        },
        {
          "name": "G4",
          "midi": 67,
          "time": 15.870999999999883,
          "velocity": 0.4881889763779528,
          "duration": 0.017999999999998906
        },
        {
          "name": "B6",
          "midi": 95,
          "time": 15.890999999999883,
          "velocity": 0.49606299212598426,
          "duration": 0.02800000000000047
        },
        {
          "name": "B6",
          "midi": 95,
          "time": 15.890999999999883,
          "velocity": 0.49606299212598426,
          "duration": 0.02800000000000047
        },
        {
          "name": "G#7",
          "midi": 104,
          "time": 15.900999999999883,
          "velocity": 0.4881889763779528,
          "duration": 0.06700000000000195
        },
        {
          "name": "G#7",
          "midi": 104,
          "time": 15.900999999999883,
          "velocity": 0.4881889763779528,
          "duration": 0.06700000000000195
        },
        {
          "name": "B6",
          "midi": 95,
          "time": 15.939999999999884,
          "velocity": 0.48031496062992124,
          "duration": 0.13600000000000279
        },
        {
          "name": "B6",
          "midi": 95,
          "time": 15.939999999999884,
          "velocity": 0.48031496062992124,
          "duration": 0.13600000000000279
        },
        {
          "name": "E6",
          "midi": 88,
          "time": 15.949999999999884,
          "velocity": 0.4645669291338583,
          "duration": 0.018000000000000682
        },
        {
          "name": "E6",
          "midi": 88,
          "time": 15.949999999999884,
          "velocity": 0.4645669291338583,
          "duration": 0.018000000000000682
        },
        {
          "name": "G4",
          "midi": 67,
          "time": 15.979999999999885,
          "velocity": 0.6220472440944882,
          "duration": 1.4180000000000046
        },
        {
          "name": "E7",
          "midi": 100,
          "time": 15.979999999999885,
          "velocity": 0.49606299212598426,
          "duration": 0.15600000000000414
        },
        {
          "name": "G4",
          "midi": 67,
          "time": 15.979999999999885,
          "velocity": 0.6220472440944882,
          "duration": 1.4180000000000046
        },
        {
          "name": "E7",
          "midi": 100,
          "time": 15.979999999999885,
          "velocity": 0.49606299212598426,
          "duration": 0.15600000000000414
        },
        {
          "name": "E6",
          "midi": 88,
          "time": 16.008999999999887,
          "velocity": 0.48031496062992124,
          "duration": 0.0470000000000006
        },
        {
          "name": "E6",
          "midi": 88,
          "time": 16.008999999999887,
          "velocity": 0.48031496062992124,
          "duration": 0.0470000000000006
        },
        {
          "name": "G5",
          "midi": 79,
          "time": 16.018999999999888,
          "velocity": 0.4645669291338583,
          "duration": 0.09700000000000131
        },
        {
          "name": "G5",
          "midi": 79,
          "time": 16.018999999999888,
          "velocity": 0.4645669291338583,
          "duration": 0.09700000000000131
        },
        {
          "name": "C4",
          "midi": 60,
          "time": 16.038999999999888,
          "velocity": 0.4645669291338583,
          "duration": 0.06700000000000017
        },
        {
          "name": "C4",
          "midi": 60,
          "time": 16.038999999999888,
          "velocity": 0.4645669291338583,
          "duration": 0.06700000000000017
        },
        {
          "name": "E4",
          "midi": 64,
          "time": 16.077999999999886,
          "velocity": 0.4645669291338583,
          "duration": 0.17600000000000193
        },
        {
          "name": "E4",
          "midi": 64,
          "time": 16.077999999999886,
          "velocity": 0.4645669291338583,
          "duration": 0.17600000000000193
        },
        {
          "name": "G3",
          "midi": 55,
          "time": 16.087999999999887,
          "velocity": 0.5118110236220472,
          "duration": 0.8759999999999977
        },
        {
          "name": "G3",
          "midi": 55,
          "time": 16.087999999999887,
          "velocity": 0.5118110236220472,
          "duration": 0.8759999999999977
        },
        {
          "name": "E5",
          "midi": 76,
          "time": 16.11799999999989,
          "velocity": 0.4566929133858268,
          "duration": 0.06700000000000017
        },
        {
          "name": "E5",
          "midi": 76,
          "time": 16.11799999999989,
          "velocity": 0.4566929133858268,
          "duration": 0.06700000000000017
        },
        {
          "name": "E6",
          "midi": 88,
          "time": 16.13699999999989,
          "velocity": 0.48031496062992124,
          "duration": 0.06699999999999662
        },
        {
          "name": "E6",
          "midi": 88,
          "time": 16.13699999999989,
          "velocity": 0.48031496062992124,
          "duration": 0.06699999999999662
        },
        {
          "name": "E7",
          "midi": 100,
          "time": 16.15699999999989,
          "velocity": 0.4566929133858268,
          "duration": 0.12600000000000122
        },
        {
          "name": "E7",
          "midi": 100,
          "time": 16.15699999999989,
          "velocity": 0.4566929133858268,
          "duration": 0.12600000000000122
        },
        {
          "name": "E5",
          "midi": 76,
          "time": 16.215999999999887,
          "velocity": 0.4645669291338583,
          "duration": 0.05700000000000216
        },
        {
          "name": "E5",
          "midi": 76,
          "time": 16.215999999999887,
          "velocity": 0.4645669291338583,
          "duration": 0.05700000000000216
        },
        {
          "name": "B6",
          "midi": 95,
          "time": 16.22599999999989,
          "velocity": 0.4409448818897638,
          "duration": 0.007999999999999119
        },
        {
          "name": "B6",
          "midi": 95,
          "time": 16.22599999999989,
          "velocity": 0.4409448818897638,
          "duration": 0.007999999999999119
        },
        {
          "name": "E7",
          "midi": 100,
          "time": 16.255999999999887,
          "velocity": 0.47244094488188976,
          "duration": 0.05700000000000216
        },
        {
          "name": "E7",
          "midi": 100,
          "time": 16.255999999999887,
          "velocity": 0.47244094488188976,
          "duration": 0.05700000000000216
        },
        {
          "name": "B6",
          "midi": 95,
          "time": 16.265999999999888,
          "velocity": 0.44881889763779526,
          "duration": 0.09700000000000131
        },
        {
          "name": "B6",
          "midi": 95,
          "time": 16.265999999999888,
          "velocity": 0.44881889763779526,
          "duration": 0.09700000000000131
        },
        {
          "name": "G#7",
          "midi": 104,
          "time": 16.28499999999989,
          "velocity": 0.4409448818897638,
          "duration": 0.018000000000000682
        },
        {
          "name": "G#7",
          "midi": 104,
          "time": 16.28499999999989,
          "velocity": 0.4409448818897638,
          "duration": 0.018000000000000682
        },
        {
          "name": "E7",
          "midi": 100,
          "time": 16.30499999999989,
          "velocity": 0.4330708661417323,
          "duration": 0.07700000000000173
        },
        {
          "name": "E7",
          "midi": 100,
          "time": 16.30499999999989,
          "velocity": 0.4330708661417323,
          "duration": 0.07700000000000173
        },
        {
          "name": "E5",
          "midi": 76,
          "time": 16.32499999999989,
          "velocity": 0.4330708661417323,
          "duration": 0.027999999999998693
        },
        {
          "name": "G#7",
          "midi": 104,
          "time": 16.32499999999989,
          "velocity": 0.4330708661417323,
          "duration": 0.007999999999999119
        },
        {
          "name": "E5",
          "midi": 76,
          "time": 16.32499999999989,
          "velocity": 0.4330708661417323,
          "duration": 0.027999999999998693
        },
        {
          "name": "G#7",
          "midi": 104,
          "time": 16.32499999999989,
          "velocity": 0.4330708661417323,
          "duration": 0.007999999999999119
        },
        {
          "name": "E6",
          "midi": 88,
          "time": 16.34499999999989,
          "velocity": 0.44881889763779526,
          "duration": 0.018000000000000682
        },
        {
          "name": "E6",
          "midi": 88,
          "time": 16.34499999999989,
          "velocity": 0.44881889763779526,
          "duration": 0.018000000000000682
        },
        {
          "name": "C5",
          "midi": 72,
          "time": 16.36399999999989,
          "velocity": 0.49606299212598426,
          "duration": 1.0239999999999974
        },
        {
          "name": "C5",
          "midi": 72,
          "time": 16.36399999999989,
          "velocity": 0.49606299212598426,
          "duration": 1.0239999999999974
        },
        {
          "name": "E5",
          "midi": 76,
          "time": 16.373999999999892,
          "velocity": 0.4409448818897638,
          "duration": 0.027999999999998693
        },
        {
          "name": "E5",
          "midi": 76,
          "time": 16.373999999999892,
          "velocity": 0.4409448818897638,
          "duration": 0.027999999999998693
        },
        {
          "name": "E4",
          "midi": 64,
          "time": 16.38399999999989,
          "velocity": 0.44881889763779526,
          "duration": 0.0470000000000006
        },
        {
          "name": "E4",
          "midi": 64,
          "time": 16.38399999999989,
          "velocity": 0.44881889763779526,
          "duration": 0.0470000000000006
        },
        {
          "name": "B6",
          "midi": 95,
          "time": 16.40399999999989,
          "velocity": 0.47244094488188976,
          "duration": 0.028000000000002245
        },
        {
          "name": "B6",
          "midi": 95,
          "time": 16.40399999999989,
          "velocity": 0.47244094488188976,
          "duration": 0.028000000000002245
        },
        {
          "name": "E7",
          "midi": 100,
          "time": 16.41399999999989,
          "velocity": 0.4566929133858268,
          "duration": 0.26399999999999935
        },
        {
          "name": "E7",
          "midi": 100,
          "time": 16.41399999999989,
          "velocity": 0.4566929133858268,
          "duration": 0.26399999999999935
        },
        {
          "name": "E5",
          "midi": 76,
          "time": 16.44299999999989,
          "velocity": 0.44881889763779526,
          "duration": 0.06700000000000017
        },
        {
          "name": "C4",
          "midi": 60,
          "time": 16.44299999999989,
          "velocity": 0.4409448818897638,
          "duration": 0.12600000000000122
        },
        {
          "name": "E5",
          "midi": 76,
          "time": 16.44299999999989,
          "velocity": 0.44881889763779526,
          "duration": 0.06700000000000017
        },
        {
          "name": "C4",
          "midi": 60,
          "time": 16.44299999999989,
          "velocity": 0.4409448818897638,
          "duration": 0.12600000000000122
        },
        {
          "name": "E4",
          "midi": 64,
          "time": 16.521999999999892,
          "velocity": 0.44881889763779526,
          "duration": 0.07700000000000173
        },
        {
          "name": "E4",
          "midi": 64,
          "time": 16.521999999999892,
          "velocity": 0.44881889763779526,
          "duration": 0.07700000000000173
        },
        {
          "name": "B6",
          "midi": 95,
          "time": 16.580999999999893,
          "velocity": 0.4330708661417323,
          "duration": 0.028000000000002245
        },
        {
          "name": "B6",
          "midi": 95,
          "time": 16.580999999999893,
          "velocity": 0.4330708661417323,
          "duration": 0.028000000000002245
        },
        {
          "name": "E5",
          "midi": 76,
          "time": 16.610999999999894,
          "velocity": 0.4645669291338583,
          "duration": 0.10699999999999577
        },
        {
          "name": "E5",
          "midi": 76,
          "time": 16.610999999999894,
          "velocity": 0.4645669291338583,
          "duration": 0.10699999999999577
        },
        {
          "name": "C3",
          "midi": 48,
          "time": 16.630999999999894,
          "velocity": 0.4330708661417323,
          "duration": 0.007999999999999119
        },
        {
          "name": "C3",
          "midi": 48,
          "time": 16.630999999999894,
          "velocity": 0.4330708661417323,
          "duration": 0.007999999999999119
        },
        {
          "name": "C4",
          "midi": 60,
          "time": 16.649999999999892,
          "velocity": 0.4330708661417323,
          "duration": 0.13599999999999568
        },
        {
          "name": "C4",
          "midi": 60,
          "time": 16.649999999999892,
          "velocity": 0.4330708661417323,
          "duration": 0.13599999999999568
        },
        {
          "name": "E4",
          "midi": 64,
          "time": 16.68999999999989,
          "velocity": 0.4409448818897638,
          "duration": 0.10699999999999577
        },
        {
          "name": "E4",
          "midi": 64,
          "time": 16.68999999999989,
          "velocity": 0.4409448818897638,
          "duration": 0.10699999999999577
        },
        {
          "name": "B6",
          "midi": 95,
          "time": 16.72899999999989,
          "velocity": 0.4251968503937008,
          "duration": 0.027999999999998693
        },
        {
          "name": "B6",
          "midi": 95,
          "time": 16.72899999999989,
          "velocity": 0.4251968503937008,
          "duration": 0.027999999999998693
        },
        {
          "name": "E7",
          "midi": 100,
          "time": 16.768999999999888,
          "velocity": 0.4251968503937008,
          "duration": 0.046999999999997044
        },
        {
          "name": "E7",
          "midi": 100,
          "time": 16.768999999999888,
          "velocity": 0.4251968503937008,
          "duration": 0.046999999999997044
        },
        {
          "name": "E7",
          "midi": 100,
          "time": 16.807999999999886,
          "velocity": 0.41732283464566927,
          "duration": 0.027999999999998693
        },
        {
          "name": "E5",
          "midi": 76,
          "time": 16.807999999999886,
          "velocity": 0.41732283464566927,
          "duration": 0.08699999999999619
        },
        {
          "name": "E7",
          "midi": 100,
          "time": 16.807999999999886,
          "velocity": 0.41732283464566927,
          "duration": 0.027999999999998693
        },
        {
          "name": "E5",
          "midi": 76,
          "time": 16.807999999999886,
          "velocity": 0.41732283464566927,
          "duration": 0.08699999999999619
        },
        {
          "name": "E4",
          "midi": 64,
          "time": 16.827999999999886,
          "velocity": 0.41732283464566927,
          "duration": 0.5210000000000008
        },
        {
          "name": "E4",
          "midi": 64,
          "time": 16.827999999999886,
          "velocity": 0.41732283464566927,
          "duration": 0.5210000000000008
        },
        {
          "name": "A#4",
          "midi": 70,
          "time": 16.847999999999885,
          "velocity": 0.41732283464566927,
          "duration": 0.007999999999999119
        },
        {
          "name": "A#4",
          "midi": 70,
          "time": 16.847999999999885,
          "velocity": 0.41732283464566927,
          "duration": 0.007999999999999119
        },
        {
          "name": "E7",
          "midi": 100,
          "time": 16.866999999999884,
          "velocity": 0.41732283464566927,
          "duration": 0.027999999999998693
        },
        {
          "name": "E7",
          "midi": 100,
          "time": 16.866999999999884,
          "velocity": 0.41732283464566927,
          "duration": 0.027999999999998693
        },
        {
          "name": "C4",
          "midi": 60,
          "time": 16.906999999999883,
          "velocity": 0.4094488188976378,
          "duration": 0.0470000000000006
        },
        {
          "name": "B2",
          "midi": 47,
          "time": 16.906999999999883,
          "velocity": 0.4094488188976378,
          "duration": 0.007999999999999119
        },
        {
          "name": "C4",
          "midi": 60,
          "time": 16.906999999999883,
          "velocity": 0.4094488188976378,
          "duration": 0.0470000000000006
        },
        {
          "name": "B2",
          "midi": 47,
          "time": 16.906999999999883,
          "velocity": 0.4094488188976378,
          "duration": 0.007999999999999119
        },
        {
          "name": "C3",
          "midi": 48,
          "time": 16.926999999999882,
          "velocity": 0.4094488188976378,
          "duration": 0.04700000000000415
        },
        {
          "name": "C3",
          "midi": 48,
          "time": 16.926999999999882,
          "velocity": 0.4094488188976378,
          "duration": 0.04700000000000415
        },
        {
          "name": "E5",
          "midi": 76,
          "time": 16.975999999999885,
          "velocity": 0.4094488188976378,
          "duration": 0.06700000000000017
        },
        {
          "name": "E5",
          "midi": 76,
          "time": 16.975999999999885,
          "velocity": 0.4094488188976378,
          "duration": 0.06700000000000017
        },
        {
          "name": "E7",
          "midi": 100,
          "time": 16.985999999999887,
          "velocity": 0.4094488188976378,
          "duration": 0.06700000000000017
        },
        {
          "name": "F#3",
          "midi": 54,
          "time": 16.985999999999887,
          "velocity": 0.4094488188976378,
          "duration": 0.018000000000000682
        },
        {
          "name": "E7",
          "midi": 100,
          "time": 16.985999999999887,
          "velocity": 0.4094488188976378,
          "duration": 0.06700000000000017
        },
        {
          "name": "F#3",
          "midi": 54,
          "time": 16.985999999999887,
          "velocity": 0.4094488188976378,
          "duration": 0.018000000000000682
        },
        {
          "name": "C4",
          "midi": 60,
          "time": 17.034999999999886,
          "velocity": 0.4015748031496063,
          "duration": 0.07700000000000173
        },
        {
          "name": "C4",
          "midi": 60,
          "time": 17.034999999999886,
          "velocity": 0.4015748031496063,
          "duration": 0.07700000000000173
        },
        {
          "name": "F#3",
          "midi": 54,
          "time": 17.054999999999886,
          "velocity": 0.4015748031496063,
          "duration": 0.007999999999999119
        },
        {
          "name": "F#3",
          "midi": 54,
          "time": 17.054999999999886,
          "velocity": 0.4015748031496063,
          "duration": 0.007999999999999119
        },
        {
          "name": "E5",
          "midi": 76,
          "time": 17.083999999999886,
          "velocity": 0.4015748031496063,
          "duration": 0.09700000000000131
        },
        {
          "name": "E5",
          "midi": 76,
          "time": 17.083999999999886,
          "velocity": 0.4015748031496063,
          "duration": 0.09700000000000131
        },
        {
          "name": "C3",
          "midi": 48,
          "time": 17.093999999999888,
          "velocity": 0.4015748031496063,
          "duration": 0.036999999999999034
        },
        {
          "name": "C3",
          "midi": 48,
          "time": 17.093999999999888,
          "velocity": 0.4015748031496063,
          "duration": 0.036999999999999034
        },
        {
          "name": "C4",
          "midi": 60,
          "time": 17.143999999999888,
          "velocity": 0.4015748031496063,
          "duration": 0.1559999999999988
        },
        {
          "name": "G5",
          "midi": 79,
          "time": 17.143999999999888,
          "velocity": 0.4015748031496063,
          "duration": 0.018000000000000682
        },
        {
          "name": "C4",
          "midi": 60,
          "time": 17.143999999999888,
          "velocity": 0.4015748031496063,
          "duration": 0.1559999999999988
        },
        {
          "name": "G5",
          "midi": 79,
          "time": 17.143999999999888,
          "velocity": 0.4015748031496063,
          "duration": 0.018000000000000682
        },
        {
          "name": "C3",
          "midi": 48,
          "time": 17.172999999999888,
          "velocity": 0.3937007874015748,
          "duration": 0.007999999999999119
        },
        {
          "name": "C3",
          "midi": 48,
          "time": 17.172999999999888,
          "velocity": 0.3937007874015748,
          "duration": 0.007999999999999119
        },
        {
          "name": "G3",
          "midi": 55,
          "time": 17.202999999999886,
          "velocity": 0.4015748031496063,
          "duration": 0.018000000000000682
        },
        {
          "name": "G3",
          "midi": 55,
          "time": 17.202999999999886,
          "velocity": 0.4015748031496063,
          "duration": 0.018000000000000682
        },
        {
          "name": "C#2",
          "midi": 37,
          "time": 17.261999999999887,
          "velocity": 0.4015748031496063,
          "duration": 0.0470000000000006
        },
        {
          "name": "C#2",
          "midi": 37,
          "time": 17.261999999999887,
          "velocity": 0.4015748031496063,
          "duration": 0.0470000000000006
        },
        {
          "name": "G3",
          "midi": 55,
          "time": 17.281999999999886,
          "velocity": 0.4015748031496063,
          "duration": 0.07700000000000173
        },
        {
          "name": "G3",
          "midi": 55,
          "time": 17.281999999999886,
          "velocity": 0.4015748031496063,
          "duration": 0.07700000000000173
        },
        {
          "name": "F#4",
          "midi": 66,
          "time": 17.320999999999888,
          "velocity": 0.4015748031496063,
          "duration": 0.007999999999999119
        },
        {
          "name": "F#4",
          "midi": 66,
          "time": 17.320999999999888,
          "velocity": 0.4015748031496063,
          "duration": 0.007999999999999119
        },
        {
          "name": "C4",
          "midi": 60,
          "time": 17.330999999999886,
          "velocity": 0.4015748031496063,
          "duration": 0.028000000000002245
        },
        {
          "name": "C4",
          "midi": 60,
          "time": 17.330999999999886,
          "velocity": 0.4015748031496063,
          "duration": 0.028000000000002245
        },
        {
          "name": "E6",
          "midi": 88,
          "time": 17.360999999999887,
          "velocity": 0.5984251968503937,
          "duration": 0.07700000000000173
        },
        {
          "name": "E6",
          "midi": 88,
          "time": 17.360999999999887,
          "velocity": 0.5984251968503937,
          "duration": 0.07700000000000173
        },
        {
          "name": "A5",
          "midi": 81,
          "time": 17.369999999999887,
          "velocity": 0.49606299212598426,
          "duration": 0.24500000000000455
        },
        {
          "name": "E7",
          "midi": 100,
          "time": 17.369999999999887,
          "velocity": 0.4881889763779528,
          "duration": 0.24500000000000455
        },
        {
          "name": "A6",
          "midi": 93,
          "time": 17.369999999999887,
          "velocity": 0.4645669291338583,
          "duration": 0.20500000000000185
        },
        {
          "name": "A5",
          "midi": 81,
          "time": 17.369999999999887,
          "velocity": 0.49606299212598426,
          "duration": 0.24500000000000455
        },
        {
          "name": "E7",
          "midi": 100,
          "time": 17.369999999999887,
          "velocity": 0.4881889763779528,
          "duration": 0.24500000000000455
        },
        {
          "name": "A6",
          "midi": 93,
          "time": 17.369999999999887,
          "velocity": 0.4645669291338583,
          "duration": 0.20500000000000185
        },
        {
          "name": "C#7",
          "midi": 97,
          "time": 17.40999999999989,
          "velocity": 0.4409448818897638,
          "duration": 0.018000000000000682
        },
        {
          "name": "C#7",
          "midi": 97,
          "time": 17.40999999999989,
          "velocity": 0.4409448818897638,
          "duration": 0.018000000000000682
        },
        {
          "name": "E6",
          "midi": 88,
          "time": 17.42999999999989,
          "velocity": 0.5275590551181102,
          "duration": 0.1059999999999981
        },
        {
          "name": "E6",
          "midi": 88,
          "time": 17.42999999999989,
          "velocity": 0.5275590551181102,
          "duration": 0.1059999999999981
        },
        {
          "name": "A4",
          "midi": 69,
          "time": 17.43899999999989,
          "velocity": 0.5590551181102362,
          "duration": 0.2150000000000034
        },
        {
          "name": "A4",
          "midi": 69,
          "time": 17.43899999999989,
          "velocity": 0.5590551181102362,
          "duration": 0.2150000000000034
        },
        {
          "name": "C#7",
          "midi": 97,
          "time": 17.44899999999989,
          "velocity": 0.47244094488188976,
          "duration": 0.007999999999999119
        },
        {
          "name": "C#7",
          "midi": 97,
          "time": 17.44899999999989,
          "velocity": 0.47244094488188976,
          "duration": 0.007999999999999119
        },
        {
          "name": "C#7",
          "midi": 97,
          "time": 17.47899999999989,
          "velocity": 0.4566929133858268,
          "duration": 0.036999999999999034
        },
        {
          "name": "C#7",
          "midi": 97,
          "time": 17.47899999999989,
          "velocity": 0.4566929133858268,
          "duration": 0.036999999999999034
        },
        {
          "name": "E6",
          "midi": 88,
          "time": 17.52799999999989,
          "velocity": 0.48031496062992124,
          "duration": 0.11700000000000443
        },
        {
          "name": "E6",
          "midi": 88,
          "time": 17.52799999999989,
          "velocity": 0.48031496062992124,
          "duration": 0.11700000000000443
        },
        {
          "name": "C5",
          "midi": 72,
          "time": 17.547999999999888,
          "velocity": 0.41732283464566927,
          "duration": 0.05700000000000216
        },
        {
          "name": "C5",
          "midi": 72,
          "time": 17.547999999999888,
          "velocity": 0.41732283464566927,
          "duration": 0.05700000000000216
        },
        {
          "name": "F6",
          "midi": 89,
          "time": 17.61699999999989,
          "velocity": 0.6456692913385826,
          "duration": 0.284000000000006
        },
        {
          "name": "A#5",
          "midi": 82,
          "time": 17.61699999999989,
          "velocity": 0.5196850393700787,
          "duration": 0.1460000000000079
        },
        {
          "name": "F6",
          "midi": 89,
          "time": 17.61699999999989,
          "velocity": 0.6456692913385826,
          "duration": 0.284000000000006
        },
        {
          "name": "A#5",
          "midi": 82,
          "time": 17.61699999999989,
          "velocity": 0.5196850393700787,
          "duration": 0.1460000000000079
        },
        {
          "name": "D7",
          "midi": 98,
          "time": 17.626999999999892,
          "velocity": 0.5511811023622047,
          "duration": 0.12600000000000477
        },
        {
          "name": "D7",
          "midi": 98,
          "time": 17.626999999999892,
          "velocity": 0.5511811023622047,
          "duration": 0.12600000000000477
        },
        {
          "name": "A#4",
          "midi": 70,
          "time": 17.646999999999892,
          "velocity": 0.5039370078740157,
          "duration": 0.2640000000000029
        },
        {
          "name": "A#4",
          "midi": 70,
          "time": 17.646999999999892,
          "velocity": 0.5039370078740157,
          "duration": 0.2640000000000029
        },
        {
          "name": "A#7",
          "midi": 106,
          "time": 17.655999999999892,
          "velocity": 0.4645669291338583,
          "duration": 0.05700000000000216
        },
        {
          "name": "A#7",
          "midi": 106,
          "time": 17.655999999999892,
          "velocity": 0.4645669291338583,
          "duration": 0.05700000000000216
        },
        {
          "name": "A5",
          "midi": 81,
          "time": 17.665999999999894,
          "velocity": 0.44881889763779526,
          "duration": 0.05700000000000216
        },
        {
          "name": "A5",
          "midi": 81,
          "time": 17.665999999999894,
          "velocity": 0.44881889763779526,
          "duration": 0.05700000000000216
        },
        {
          "name": "F#6",
          "midi": 90,
          "time": 17.725999999999896,
          "velocity": 0.44881889763779526,
          "duration": 0.007999999999999119
        },
        {
          "name": "F#6",
          "midi": 90,
          "time": 17.725999999999896,
          "velocity": 0.44881889763779526,
          "duration": 0.007999999999999119
        },
        {
          "name": "G6",
          "midi": 91,
          "time": 17.734999999999896,
          "velocity": 0.4881889763779528,
          "duration": 0.2539999999999978
        },
        {
          "name": "G6",
          "midi": 91,
          "time": 17.734999999999896,
          "velocity": 0.4881889763779528,
          "duration": 0.2539999999999978
        },
        {
          "name": "C6",
          "midi": 84,
          "time": 17.764999999999898,
          "velocity": 0.49606299212598426,
          "duration": 0.16599999999999682
        },
        {
          "name": "E7",
          "midi": 100,
          "time": 17.764999999999898,
          "velocity": 0.47244094488188976,
          "duration": 0.07700000000000173
        },
        {
          "name": "C6",
          "midi": 84,
          "time": 17.764999999999898,
          "velocity": 0.49606299212598426,
          "duration": 0.16599999999999682
        },
        {
          "name": "E7",
          "midi": 100,
          "time": 17.764999999999898,
          "velocity": 0.47244094488188976,
          "duration": 0.07700000000000173
        },
        {
          "name": "C5",
          "midi": 72,
          "time": 17.7749999999999,
          "velocity": 0.48031496062992124,
          "duration": 0.17599999999999483
        },
        {
          "name": "C5",
          "midi": 72,
          "time": 17.7749999999999,
          "velocity": 0.48031496062992124,
          "duration": 0.17599999999999483
        },
        {
          "name": "A#5",
          "midi": 82,
          "time": 17.8539999999999,
          "velocity": 0.4251968503937008,
          "duration": 0.007999999999999119
        },
        {
          "name": "A#5",
          "midi": 82,
          "time": 17.8539999999999,
          "velocity": 0.4251968503937008,
          "duration": 0.007999999999999119
        },
        {
          "name": "D7",
          "midi": 98,
          "time": 17.872999999999898,
          "velocity": 0.41732283464566927,
          "duration": 0.007999999999999119
        },
        {
          "name": "D7",
          "midi": 98,
          "time": 17.872999999999898,
          "velocity": 0.41732283464566927,
          "duration": 0.007999999999999119
        },
        {
          "name": "A#5",
          "midi": 82,
          "time": 17.902999999999896,
          "velocity": 0.41732283464566927,
          "duration": 0.007999999999999119
        },
        {
          "name": "A#5",
          "midi": 82,
          "time": 17.902999999999896,
          "velocity": 0.41732283464566927,
          "duration": 0.007999999999999119
        },
        {
          "name": "E7",
          "midi": 100,
          "time": 17.912999999999894,
          "velocity": 0.4409448818897638,
          "duration": 0.1960000000000015
        },
        {
          "name": "E7",
          "midi": 100,
          "time": 17.912999999999894,
          "velocity": 0.4409448818897638,
          "duration": 0.1960000000000015
        },
        {
          "name": "A5",
          "midi": 81,
          "time": 17.922999999999895,
          "velocity": 0.5196850393700787,
          "duration": 0.13600000000000279
        },
        {
          "name": "A6",
          "midi": 93,
          "time": 17.922999999999895,
          "velocity": 0.5433070866141733,
          "duration": 0.06700000000000017
        },
        {
          "name": "A5",
          "midi": 81,
          "time": 17.922999999999895,
          "velocity": 0.5196850393700787,
          "duration": 0.13600000000000279
        },
        {
          "name": "A6",
          "midi": 93,
          "time": 17.922999999999895,
          "velocity": 0.5433070866141733,
          "duration": 0.06700000000000017
        },
        {
          "name": "A#4",
          "midi": 70,
          "time": 17.942999999999895,
          "velocity": 0.4330708661417323,
          "duration": 0.036999999999999034
        },
        {
          "name": "A#4",
          "midi": 70,
          "time": 17.942999999999895,
          "velocity": 0.4330708661417323,
          "duration": 0.036999999999999034
        },
        {
          "name": "A#5",
          "midi": 82,
          "time": 17.961999999999893,
          "velocity": 0.4251968503937008,
          "duration": 0.007999999999999119
        },
        {
          "name": "A#5",
          "midi": 82,
          "time": 17.961999999999893,
          "velocity": 0.4251968503937008,
          "duration": 0.007999999999999119
        },
        {
          "name": "A6",
          "midi": 93,
          "time": 17.981999999999893,
          "velocity": 0.4330708661417323,
          "duration": 0.2149999999999963
        },
        {
          "name": "A6",
          "midi": 93,
          "time": 17.981999999999893,
          "velocity": 0.4330708661417323,
          "duration": 0.2149999999999963
        },
        {
          "name": "C6",
          "midi": 84,
          "time": 18.001999999999896,
          "velocity": 0.4094488188976378,
          "duration": 0.07700000000000173
        },
        {
          "name": "C5",
          "midi": 72,
          "time": 18.001999999999896,
          "velocity": 0.41732283464566927,
          "duration": 0.018000000000000682
        },
        {
          "name": "C6",
          "midi": 84,
          "time": 18.001999999999896,
          "velocity": 0.4094488188976378,
          "duration": 0.07700000000000173
        },
        {
          "name": "C5",
          "midi": 72,
          "time": 18.001999999999896,
          "velocity": 0.41732283464566927,
          "duration": 0.018000000000000682
        },
        {
          "name": "G#6",
          "midi": 92,
          "time": 18.020999999999898,
          "velocity": 0.41732283464566927,
          "duration": 0.018000000000000682
        },
        {
          "name": "G#6",
          "midi": 92,
          "time": 18.020999999999898,
          "velocity": 0.41732283464566927,
          "duration": 0.018000000000000682
        },
        {
          "name": "F6",
          "midi": 89,
          "time": 18.0309999999999,
          "velocity": 0.4094488188976378,
          "duration": 0.018000000000000682
        },
        {
          "name": "F6",
          "midi": 89,
          "time": 18.0309999999999,
          "velocity": 0.4094488188976378,
          "duration": 0.018000000000000682
        },
        {
          "name": "A5",
          "midi": 81,
          "time": 18.0509999999999,
          "velocity": 0.4330708661417323,
          "duration": 0.046999999999997044
        },
        {
          "name": "A5",
          "midi": 81,
          "time": 18.0509999999999,
          "velocity": 0.4330708661417323,
          "duration": 0.046999999999997044
        },
        {
          "name": "A#5",
          "midi": 82,
          "time": 18.060999999999897,
          "velocity": 0.4015748031496063,
          "duration": 0.027999999999998693
        },
        {
          "name": "A#5",
          "midi": 82,
          "time": 18.060999999999897,
          "velocity": 0.4015748031496063,
          "duration": 0.027999999999998693
        },
        {
          "name": "E7",
          "midi": 100,
          "time": 18.080999999999896,
          "velocity": 0.4094488188976378,
          "duration": 0.10599999999999454
        },
        {
          "name": "E7",
          "midi": 100,
          "time": 18.080999999999896,
          "velocity": 0.4094488188976378,
          "duration": 0.10599999999999454
        },
        {
          "name": "A5",
          "midi": 81,
          "time": 18.089999999999897,
          "velocity": 0.41732283464566927,
          "duration": 0.05799999999999983
        },
        {
          "name": "A5",
          "midi": 81,
          "time": 18.089999999999897,
          "velocity": 0.41732283464566927,
          "duration": 0.05799999999999983
        },
        {
          "name": "A2",
          "midi": 45,
          "time": 18.109999999999896,
          "velocity": 0.3937007874015748,
          "duration": 0.018000000000000682
        },
        {
          "name": "A2",
          "midi": 45,
          "time": 18.109999999999896,
          "velocity": 0.3937007874015748,
          "duration": 0.018000000000000682
        },
        {
          "name": "A7",
          "midi": 105,
          "time": 18.119999999999898,
          "velocity": 0.3937007874015748,
          "duration": 0.027999999999998693
        },
        {
          "name": "A7",
          "midi": 105,
          "time": 18.119999999999898,
          "velocity": 0.3937007874015748,
          "duration": 0.027999999999998693
        },
        {
          "name": "A5",
          "midi": 81,
          "time": 18.139999999999898,
          "velocity": 0.4015748031496063,
          "duration": 0.18499999999999162
        },
        {
          "name": "A5",
          "midi": 81,
          "time": 18.139999999999898,
          "velocity": 0.4015748031496063,
          "duration": 0.18499999999999162
        },
        {
          "name": "E7",
          "midi": 100,
          "time": 18.149999999999896,
          "velocity": 0.4015748031496063,
          "duration": 0.13599999999999568
        },
        {
          "name": "E7",
          "midi": 100,
          "time": 18.149999999999896,
          "velocity": 0.4015748031496063,
          "duration": 0.13599999999999568
        },
        {
          "name": "A7",
          "midi": 105,
          "time": 18.168999999999894,
          "velocity": 0.3937007874015748,
          "duration": 0.007999999999999119
        },
        {
          "name": "A7",
          "midi": 105,
          "time": 18.168999999999894,
          "velocity": 0.3937007874015748,
          "duration": 0.007999999999999119
        },
        {
          "name": "A#5",
          "midi": 82,
          "time": 18.178999999999892,
          "velocity": 0.4015748031496063,
          "duration": 0.01799999999999713
        },
        {
          "name": "A#5",
          "midi": 82,
          "time": 18.178999999999892,
          "velocity": 0.4015748031496063,
          "duration": 0.01799999999999713
        },
        {
          "name": "A6",
          "midi": 93,
          "time": 18.18899999999989,
          "velocity": 0.41732283464566927,
          "duration": 0.09700000000000131
        },
        {
          "name": "A6",
          "midi": 93,
          "time": 18.18899999999989,
          "velocity": 0.41732283464566927,
          "duration": 0.09700000000000131
        },
        {
          "name": "A7",
          "midi": 105,
          "time": 18.20899999999989,
          "velocity": 0.4015748031496063,
          "duration": 0.018000000000000682
        },
        {
          "name": "A7",
          "midi": 105,
          "time": 18.20899999999989,
          "velocity": 0.4015748031496063,
          "duration": 0.018000000000000682
        },
        {
          "name": "A#6",
          "midi": 94,
          "time": 18.21899999999989,
          "velocity": 0.3937007874015748,
          "duration": 0.007999999999999119
        },
        {
          "name": "A#6",
          "midi": 94,
          "time": 18.21899999999989,
          "velocity": 0.3937007874015748,
          "duration": 0.007999999999999119
        },
        {
          "name": "G#5",
          "midi": 80,
          "time": 18.22899999999989,
          "velocity": 0.4015748031496063,
          "duration": 0.018000000000000682
        },
        {
          "name": "G#5",
          "midi": 80,
          "time": 18.22899999999989,
          "velocity": 0.4015748031496063,
          "duration": 0.018000000000000682
        },
        {
          "name": "A7",
          "midi": 105,
          "time": 18.24799999999989,
          "velocity": 0.4094488188976378,
          "duration": 0.18499999999999517
        },
        {
          "name": "A7",
          "midi": 105,
          "time": 18.24799999999989,
          "velocity": 0.4094488188976378,
          "duration": 0.18499999999999517
        },
        {
          "name": "E7",
          "midi": 100,
          "time": 18.257999999999893,
          "velocity": 0.4645669291338583,
          "duration": 0.05699999999999861
        },
        {
          "name": "E7",
          "midi": 100,
          "time": 18.257999999999893,
          "velocity": 0.4645669291338583,
          "duration": 0.05699999999999861
        },
        {
          "name": "A6",
          "midi": 93,
          "time": 18.277999999999892,
          "velocity": 0.4251968503937008,
          "duration": 0.19499999999999318
        },
        {
          "name": "A6",
          "midi": 93,
          "time": 18.277999999999892,
          "velocity": 0.4251968503937008,
          "duration": 0.19499999999999318
        },
        {
          "name": "E8",
          "midi": 112,
          "time": 18.29799999999989,
          "velocity": 0.4015748031496063,
          "duration": 0.007999999999999119
        },
        {
          "name": "E8",
          "midi": 112,
          "time": 18.29799999999989,
          "velocity": 0.4015748031496063,
          "duration": 0.007999999999999119
        },
        {
          "name": "E7",
          "midi": 100,
          "time": 18.306999999999892,
          "velocity": 0.4094488188976378,
          "duration": 0.05799999999999628
        },
        {
          "name": "E7",
          "midi": 100,
          "time": 18.306999999999892,
          "velocity": 0.4094488188976378,
          "duration": 0.05799999999999628
        },
        {
          "name": "A5",
          "midi": 81,
          "time": 18.31699999999989,
          "velocity": 0.4251968503937008,
          "duration": 0.10699999999999577
        },
        {
          "name": "A5",
          "midi": 81,
          "time": 18.31699999999989,
          "velocity": 0.4251968503937008,
          "duration": 0.10699999999999577
        },
        {
          "name": "A#6",
          "midi": 94,
          "time": 18.33699999999989,
          "velocity": 0.4015748031496063,
          "duration": 0.007999999999999119
        },
        {
          "name": "A#6",
          "midi": 94,
          "time": 18.33699999999989,
          "velocity": 0.4015748031496063,
          "duration": 0.007999999999999119
        },
        {
          "name": "E7",
          "midi": 100,
          "time": 18.346999999999888,
          "velocity": 0.41732283464566927,
          "duration": 0.11599999999999966
        },
        {
          "name": "E7",
          "midi": 100,
          "time": 18.346999999999888,
          "velocity": 0.41732283464566927,
          "duration": 0.11599999999999966
        },
        {
          "name": "G#6",
          "midi": 92,
          "time": 18.37699999999989,
          "velocity": 0.4015748031496063,
          "duration": 0.007999999999999119
        },
        {
          "name": "A#6",
          "midi": 94,
          "time": 18.37699999999989,
          "velocity": 0.4015748031496063,
          "duration": 0.036999999999999034
        },
        {
          "name": "G#6",
          "midi": 92,
          "time": 18.37699999999989,
          "velocity": 0.4015748031496063,
          "duration": 0.007999999999999119
        },
        {
          "name": "A#6",
          "midi": 94,
          "time": 18.37699999999989,
          "velocity": 0.4015748031496063,
          "duration": 0.036999999999999034
        },
        {
          "name": "A5",
          "midi": 81,
          "time": 18.415999999999887,
          "velocity": 0.4566929133858268,
          "duration": 0.14599999999999724
        },
        {
          "name": "A5",
          "midi": 81,
          "time": 18.415999999999887,
          "velocity": 0.4566929133858268,
          "duration": 0.14599999999999724
        },
        {
          "name": "A7",
          "midi": 105,
          "time": 18.425999999999885,
          "velocity": 0.41732283464566927,
          "duration": 0.09699999999999775
        },
        {
          "name": "A7",
          "midi": 105,
          "time": 18.425999999999885,
          "velocity": 0.41732283464566927,
          "duration": 0.09699999999999775
        },
        {
          "name": "E7",
          "midi": 100,
          "time": 18.445999999999888,
          "velocity": 0.4566929133858268,
          "duration": 0.08699999999999619
        },
        {
          "name": "E7",
          "midi": 100,
          "time": 18.445999999999888,
          "velocity": 0.4566929133858268,
          "duration": 0.08699999999999619
        },
        {
          "name": "A6",
          "midi": 93,
          "time": 18.464999999999886,
          "velocity": 0.4409448818897638,
          "duration": 0.10699999999999577
        },
        {
          "name": "A6",
          "midi": 93,
          "time": 18.464999999999886,
          "velocity": 0.4409448818897638,
          "duration": 0.10699999999999577
        },
        {
          "name": "A#6",
          "midi": 94,
          "time": 18.494999999999884,
          "velocity": 0.4094488188976378,
          "duration": 0.007999999999999119
        },
        {
          "name": "A#6",
          "midi": 94,
          "time": 18.494999999999884,
          "velocity": 0.4094488188976378,
          "duration": 0.007999999999999119
        },
        {
          "name": "A7",
          "midi": 105,
          "time": 18.514999999999883,
          "velocity": 0.4094488188976378,
          "duration": 0.05699999999999861
        },
        {
          "name": "E7",
          "midi": 100,
          "time": 18.514999999999883,
          "velocity": 0.4566929133858268,
          "duration": 0.09700000000000131
        },
        {
          "name": "A7",
          "midi": 105,
          "time": 18.514999999999883,
          "velocity": 0.4094488188976378,
          "duration": 0.05699999999999861
        },
        {
          "name": "E7",
          "midi": 100,
          "time": 18.514999999999883,
          "velocity": 0.4566929133858268,
          "duration": 0.09700000000000131
        },
        {
          "name": "A5",
          "midi": 81,
          "time": 18.543999999999883,
          "velocity": 0.5275590551181102,
          "duration": 0.23499999999999588
        },
        {
          "name": "A5",
          "midi": 81,
          "time": 18.543999999999883,
          "velocity": 0.5275590551181102,
          "duration": 0.23499999999999588
        },
        {
          "name": "A6",
          "midi": 93,
          "time": 18.563999999999883,
          "velocity": 0.41732283464566927,
          "duration": 0.038000000000000256
        },
        {
          "name": "A6",
          "midi": 93,
          "time": 18.563999999999883,
          "velocity": 0.41732283464566927,
          "duration": 0.038000000000000256
        },
        {
          "name": "A6",
          "midi": 93,
          "time": 18.57399999999988,
          "velocity": 0.4645669291338583,
          "duration": 0.19500000000000028
        },
        {
          "name": "A6",
          "midi": 93,
          "time": 18.57399999999988,
          "velocity": 0.4645669291338583,
          "duration": 0.19500000000000028
        },
        {
          "name": "E7",
          "midi": 100,
          "time": 18.583999999999882,
          "velocity": 0.4566929133858268,
          "duration": 0.07700000000000529
        },
        {
          "name": "E7",
          "midi": 100,
          "time": 18.583999999999882,
          "velocity": 0.4566929133858268,
          "duration": 0.07700000000000529
        },
        {
          "name": "A7",
          "midi": 105,
          "time": 18.612999999999886,
          "velocity": 0.4094488188976378,
          "duration": 0.05800000000000338
        },
        {
          "name": "A7",
          "midi": 105,
          "time": 18.612999999999886,
          "velocity": 0.4094488188976378,
          "duration": 0.05800000000000338
        },
        {
          "name": "E7",
          "midi": 100,
          "time": 18.642999999999887,
          "velocity": 0.41732283464566927,
          "duration": 0.05700000000000216
        },
        {
          "name": "E7",
          "midi": 100,
          "time": 18.642999999999887,
          "velocity": 0.41732283464566927,
          "duration": 0.05700000000000216
        },
        {
          "name": "A7",
          "midi": 105,
          "time": 18.65299999999989,
          "velocity": 0.4015748031496063,
          "duration": 0.10599999999999454
        },
        {
          "name": "A7",
          "midi": 105,
          "time": 18.65299999999989,
          "velocity": 0.4015748031496063,
          "duration": 0.10599999999999454
        },
        {
          "name": "E7",
          "midi": 100,
          "time": 18.68199999999989,
          "velocity": 0.4015748031496063,
          "duration": 0.09699999999999065
        },
        {
          "name": "E7",
          "midi": 100,
          "time": 18.68199999999989,
          "velocity": 0.4015748031496063,
          "duration": 0.09699999999999065
        },
        {
          "name": "C#8",
          "midi": 109,
          "time": 18.701999999999888,
          "velocity": 0.4015748031496063,
          "duration": 0.007999999999999119
        },
        {
          "name": "C#8",
          "midi": 109,
          "time": 18.701999999999888,
          "velocity": 0.4015748031496063,
          "duration": 0.007999999999999119
        },
        {
          "name": "A#6",
          "midi": 94,
          "time": 18.721999999999888,
          "velocity": 0.4015748031496063,
          "duration": 0.007999999999999119
        },
        {
          "name": "A#6",
          "midi": 94,
          "time": 18.721999999999888,
          "velocity": 0.4015748031496063,
          "duration": 0.007999999999999119
        },
        {
          "name": "G#5",
          "midi": 80,
          "time": 18.731999999999886,
          "velocity": 0.4015748031496063,
          "duration": 0.007999999999999119
        },
        {
          "name": "G#5",
          "midi": 80,
          "time": 18.731999999999886,
          "velocity": 0.4015748031496063,
          "duration": 0.007999999999999119
        },
        {
          "name": "E7",
          "midi": 100,
          "time": 18.750999999999884,
          "velocity": 0.4094488188976378,
          "duration": 0.1559999999999846
        },
        {
          "name": "E7",
          "midi": 100,
          "time": 18.750999999999884,
          "velocity": 0.4094488188976378,
          "duration": 0.1559999999999846
        },
        {
          "name": "A6",
          "midi": 93,
          "time": 18.760999999999882,
          "velocity": 0.4881889763779528,
          "duration": 0.03799999999999315
        },
        {
          "name": "A6",
          "midi": 93,
          "time": 18.760999999999882,
          "velocity": 0.4881889763779528,
          "duration": 0.03799999999999315
        },
        {
          "name": "A5",
          "midi": 81,
          "time": 18.77099999999988,
          "velocity": 0.48031496062992124,
          "duration": 0.07699999999999108
        },
        {
          "name": "A5",
          "midi": 81,
          "time": 18.77099999999988,
          "velocity": 0.48031496062992124,
          "duration": 0.07699999999999108
        },
        {
          "name": "A7",
          "midi": 105,
          "time": 18.780999999999878,
          "velocity": 0.4015748031496063,
          "duration": 0.007999999999999119
        },
        {
          "name": "A7",
          "midi": 105,
          "time": 18.780999999999878,
          "velocity": 0.4015748031496063,
          "duration": 0.007999999999999119
        },
        {
          "name": "A6",
          "midi": 93,
          "time": 18.790999999999876,
          "velocity": 0.4566929133858268,
          "duration": 0.036999999999999034
        },
        {
          "name": "A6",
          "midi": 93,
          "time": 18.790999999999876,
          "velocity": 0.4566929133858268,
          "duration": 0.036999999999999034
        },
        {
          "name": "A6",
          "midi": 93,
          "time": 18.819999999999876,
          "velocity": 0.44881889763779526,
          "duration": 0.01799999999999713
        },
        {
          "name": "A6",
          "midi": 93,
          "time": 18.819999999999876,
          "velocity": 0.4094488188976378,
          "duration": 0.01799999999999713
        },
        {
          "name": "A6",
          "midi": 93,
          "time": 18.819999999999876,
          "velocity": 0.44881889763779526,
          "duration": 0.10699999999999221
        },
        {
          "name": "A6",
          "midi": 93,
          "time": 18.819999999999876,
          "velocity": 0.4094488188976378,
          "duration": 0.10699999999999221
        },
        {
          "name": "A7",
          "midi": 105,
          "time": 18.829999999999874,
          "velocity": 0.41732283464566927,
          "duration": 0.047999999999994714
        },
        {
          "name": "A7",
          "midi": 105,
          "time": 18.829999999999874,
          "velocity": 0.41732283464566927,
          "duration": 0.047999999999994714
        },
        {
          "name": "A5",
          "midi": 81,
          "time": 18.839999999999872,
          "velocity": 0.48031496062992124,
          "duration": 0.13599999999999213
        },
        {
          "name": "A5",
          "midi": 81,
          "time": 18.839999999999872,
          "velocity": 0.48031496062992124,
          "duration": 0.13599999999999213
        },
        {
          "name": "A7",
          "midi": 105,
          "time": 18.86999999999987,
          "velocity": 0.4015748031496063,
          "duration": 0.16499999999999204
        },
        {
          "name": "A7",
          "midi": 105,
          "time": 18.86999999999987,
          "velocity": 0.4015748031496063,
          "duration": 0.16499999999999204
        },
        {
          "name": "E7",
          "midi": 100,
          "time": 18.888999999999868,
          "velocity": 0.4094488188976378,
          "duration": 0.06799999999999784
        },
        {
          "name": "E7",
          "midi": 100,
          "time": 18.888999999999868,
          "velocity": 0.4094488188976378,
          "duration": 0.06799999999999784
        },
        {
          "name": "A6",
          "midi": 93,
          "time": 18.908999999999867,
          "velocity": 0.4409448818897638,
          "duration": 0.0969999999999942
        },
        {
          "name": "A6",
          "midi": 93,
          "time": 18.908999999999867,
          "velocity": 0.4409448818897638,
          "duration": 0.0969999999999942
        },
        {
          "name": "E8",
          "midi": 112,
          "time": 18.928999999999867,
          "velocity": 0.3937007874015748,
          "duration": 0.007999999999999119
        },
        {
          "name": "E8",
          "midi": 112,
          "time": 18.928999999999867,
          "velocity": 0.3937007874015748,
          "duration": 0.007999999999999119
        },
        {
          "name": "E7",
          "midi": 100,
          "time": 18.938999999999865,
          "velocity": 0.41732283464566927,
          "duration": 0.17599999999999483
        },
        {
          "name": "E7",
          "midi": 100,
          "time": 18.938999999999865,
          "velocity": 0.41732283464566927,
          "duration": 0.17599999999999483
        },
        {
          "name": "A5",
          "midi": 81,
          "time": 18.967999999999865,
          "velocity": 0.41732283464566927,
          "duration": 0.0379999999999967
        },
        {
          "name": "A5",
          "midi": 81,
          "time": 18.967999999999865,
          "velocity": 0.41732283464566927,
          "duration": 0.0379999999999967
        },
        {
          "name": "A6",
          "midi": 93,
          "time": 18.977999999999863,
          "velocity": 0.4566929133858268,
          "duration": 0.10699999999999577
        },
        {
          "name": "A6",
          "midi": 93,
          "time": 18.977999999999863,
          "velocity": 0.4566929133858268,
          "duration": 0.10699999999999577
        },
        {
          "name": "A5",
          "midi": 81,
          "time": 18.997999999999863,
          "velocity": 0.5039370078740157,
          "duration": 0.3729999999999869
        },
        {
          "name": "A5",
          "midi": 81,
          "time": 18.997999999999863,
          "velocity": 0.5039370078740157,
          "duration": 0.3729999999999869
        },
        {
          "name": "E7",
          "midi": 100,
          "time": 19.02799999999986,
          "velocity": 0.4566929133858268,
          "duration": 0.13599999999999923
        },
        {
          "name": "E7",
          "midi": 100,
          "time": 19.02799999999986,
          "velocity": 0.4566929133858268,
          "duration": 0.13599999999999923
        },
        {
          "name": "A6",
          "midi": 93,
          "time": 19.03699999999986,
          "velocity": 0.5275590551181102,
          "duration": 0.13599999999999923
        },
        {
          "name": "A6",
          "midi": 93,
          "time": 19.03699999999986,
          "velocity": 0.5275590551181102,
          "duration": 0.13599999999999923
        },
        {
          "name": "A7",
          "midi": 105,
          "time": 19.05699999999986,
          "velocity": 0.4094488188976378,
          "duration": 0.06700000000000017
        },
        {
          "name": "A7",
          "midi": 105,
          "time": 19.05699999999986,
          "velocity": 0.4094488188976378,
          "duration": 0.06700000000000017
        },
        {
          "name": "A7",
          "midi": 105,
          "time": 19.11599999999986,
          "velocity": 0.4015748031496063,
          "duration": 0.06700000000000017
        },
        {
          "name": "A7",
          "midi": 105,
          "time": 19.11599999999986,
          "velocity": 0.4015748031496063,
          "duration": 0.06700000000000017
        },
        {
          "name": "A#6",
          "midi": 94,
          "time": 19.12599999999986,
          "velocity": 0.4094488188976378,
          "duration": 0.018000000000000682
        },
        {
          "name": "A#6",
          "midi": 94,
          "time": 19.12599999999986,
          "velocity": 0.4094488188976378,
          "duration": 0.018000000000000682
        },
        {
          "name": "E7",
          "midi": 100,
          "time": 19.15599999999986,
          "velocity": 0.4015748031496063,
          "duration": 0.07699999999999818
        },
        {
          "name": "E7",
          "midi": 100,
          "time": 19.15599999999986,
          "velocity": 0.4015748031496063,
          "duration": 0.07699999999999818
        },
        {
          "name": "A6",
          "midi": 93,
          "time": 19.16599999999986,
          "velocity": 0.5039370078740157,
          "duration": 0.0470000000000006
        },
        {
          "name": "A6",
          "midi": 93,
          "time": 19.16599999999986,
          "velocity": 0.5039370078740157,
          "duration": 0.0470000000000006
        },
        {
          "name": "A6",
          "midi": 93,
          "time": 19.17599999999986,
          "velocity": 0.4015748031496063,
          "duration": 0.12599999999999412
        },
        {
          "name": "A6",
          "midi": 93,
          "time": 19.17599999999986,
          "velocity": 0.4015748031496063,
          "duration": 0.12599999999999412
        },
        {
          "name": "C#8",
          "midi": 109,
          "time": 19.18499999999986,
          "velocity": 0.4015748031496063,
          "duration": 0.027999999999998693
        },
        {
          "name": "C#8",
          "midi": 109,
          "time": 19.18499999999986,
          "velocity": 0.4015748031496063,
          "duration": 0.027999999999998693
        },
        {
          "name": "A7",
          "midi": 105,
          "time": 19.20499999999986,
          "velocity": 0.4094488188976378,
          "duration": 0.08699999999999619
        },
        {
          "name": "A7",
          "midi": 105,
          "time": 19.20499999999986,
          "velocity": 0.4094488188976378,
          "duration": 0.08699999999999619
        },
        {
          "name": "E7",
          "midi": 100,
          "time": 19.22499999999986,
          "velocity": 0.4330708661417323,
          "duration": 0.1659999999999897
        },
        {
          "name": "E7",
          "midi": 100,
          "time": 19.22499999999986,
          "velocity": 0.4330708661417323,
          "duration": 0.1659999999999897
        },
        {
          "name": "A#5",
          "midi": 82,
          "time": 19.283999999999857,
          "velocity": 0.4015748031496063,
          "duration": 0.04699999999999349
        },
        {
          "name": "A#5",
          "midi": 82,
          "time": 19.283999999999857,
          "velocity": 0.4015748031496063,
          "duration": 0.04699999999999349
        },
        {
          "name": "A6",
          "midi": 93,
          "time": 19.293999999999855,
          "velocity": 0.44881889763779526,
          "duration": 0.07699999999999463
        },
        {
          "name": "A6",
          "midi": 93,
          "time": 19.293999999999855,
          "velocity": 0.44881889763779526,
          "duration": 0.07699999999999463
        },
        {
          "name": "G#5",
          "midi": 80,
          "time": 19.303999999999853,
          "velocity": 0.4015748031496063,
          "duration": 0.007999999999999119
        },
        {
          "name": "G#5",
          "midi": 80,
          "time": 19.303999999999853,
          "velocity": 0.4015748031496063,
          "duration": 0.007999999999999119
        },
        {
          "name": "F7",
          "midi": 101,
          "time": 19.31399999999985,
          "velocity": 0.4015748031496063,
          "duration": 0.007999999999999119
        },
        {
          "name": "F7",
          "midi": 101,
          "time": 19.31399999999985,
          "velocity": 0.4015748031496063,
          "duration": 0.007999999999999119
        },
        {
          "name": "A7",
          "midi": 105,
          "time": 19.32299999999985,
          "velocity": 0.4015748031496063,
          "duration": 0.027999999999998693
        },
        {
          "name": "A7",
          "midi": 105,
          "time": 19.32299999999985,
          "velocity": 0.4015748031496063,
          "duration": 0.027999999999998693
        },
        {
          "name": "A5",
          "midi": 81,
          "time": 19.36299999999985,
          "velocity": 0.4330708661417323,
          "duration": 0.046999999999997044
        },
        {
          "name": "A6",
          "midi": 93,
          "time": 19.36299999999985,
          "velocity": 0.4094488188976378,
          "duration": 0.12599999999999412
        },
        {
          "name": "A5",
          "midi": 81,
          "time": 19.36299999999985,
          "velocity": 0.4330708661417323,
          "duration": 0.046999999999997044
        },
        {
          "name": "A6",
          "midi": 93,
          "time": 19.36299999999985,
          "velocity": 0.4094488188976378,
          "duration": 0.12599999999999412
        },
        {
          "name": "A7",
          "midi": 105,
          "time": 19.37299999999985,
          "velocity": 0.4015748031496063,
          "duration": 0.06700000000000017
        },
        {
          "name": "A7",
          "midi": 105,
          "time": 19.37299999999985,
          "velocity": 0.4015748031496063,
          "duration": 0.06700000000000017
        },
        {
          "name": "E7",
          "midi": 100,
          "time": 19.38299999999985,
          "velocity": 0.4330708661417323,
          "duration": 0.046999999999997044
        },
        {
          "name": "F7",
          "midi": 101,
          "time": 19.38299999999985,
          "velocity": 0.4015748031496063,
          "duration": 0.007999999999999119
        },
        {
          "name": "E7",
          "midi": 100,
          "time": 19.38299999999985,
          "velocity": 0.4330708661417323,
          "duration": 0.046999999999997044
        },
        {
          "name": "F7",
          "midi": 101,
          "time": 19.38299999999985,
          "velocity": 0.4015748031496063,
          "duration": 0.007999999999999119
        },
        {
          "name": "A5",
          "midi": 81,
          "time": 19.40199999999985,
          "velocity": 0.4251968503937008,
          "duration": 0.10699999999999221
        },
        {
          "name": "A5",
          "midi": 81,
          "time": 19.40199999999985,
          "velocity": 0.4251968503937008,
          "duration": 0.10699999999999221
        },
        {
          "name": "E7",
          "midi": 100,
          "time": 19.421999999999848,
          "velocity": 0.4330708661417323,
          "duration": 0.018000000000000682
        },
        {
          "name": "E7",
          "midi": 100,
          "time": 19.421999999999848,
          "velocity": 0.3937007874015748,
          "duration": 0.018000000000000682
        },
        {
          "name": "E7",
          "midi": 100,
          "time": 19.421999999999848,
          "velocity": 0.4330708661417323,
          "duration": 0.07699999999999463
        },
        {
          "name": "E7",
          "midi": 100,
          "time": 19.421999999999848,
          "velocity": 0.3937007874015748,
          "duration": 0.07699999999999463
        },
        {
          "name": "A#6",
          "midi": 94,
          "time": 19.441999999999847,
          "velocity": 0.3937007874015748,
          "duration": 0.007999999999999119
        },
        {
          "name": "A#6",
          "midi": 94,
          "time": 19.441999999999847,
          "velocity": 0.3937007874015748,
          "duration": 0.007999999999999119
        },
        {
          "name": "A#6",
          "midi": 94,
          "time": 19.451999999999845,
          "velocity": 0.3937007874015748,
          "duration": 0.027999999999998693
        },
        {
          "name": "A#6",
          "midi": 94,
          "time": 19.451999999999845,
          "velocity": 0.3937007874015748,
          "duration": 0.027999999999998693
        },
        {
          "name": "A7",
          "midi": 105,
          "time": 19.470999999999844,
          "velocity": 0.4015748031496063,
          "duration": 0.007999999999999119
        },
        {
          "name": "A7",
          "midi": 105,
          "time": 19.470999999999844,
          "velocity": 0.4015748031496063,
          "duration": 0.007999999999999119
        },
        {
          "name": "A6",
          "midi": 93,
          "time": 19.480999999999845,
          "velocity": 0.47244094488188976,
          "duration": 0.09700000000000131
        },
        {
          "name": "A6",
          "midi": 93,
          "time": 19.480999999999845,
          "velocity": 0.47244094488188976,
          "duration": 0.09700000000000131
        },
        {
          "name": "E7",
          "midi": 100,
          "time": 19.490999999999843,
          "velocity": 0.4251968503937008,
          "duration": 0.07800000000000296
        },
        {
          "name": "E7",
          "midi": 100,
          "time": 19.490999999999843,
          "velocity": 0.4251968503937008,
          "duration": 0.07800000000000296
        },
        {
          "name": "A5",
          "midi": 81,
          "time": 19.50099999999984,
          "velocity": 0.47244094488188976,
          "duration": 0.15600000000000236
        },
        {
          "name": "A7",
          "midi": 105,
          "time": 19.50099999999984,
          "velocity": 0.4015748031496063,
          "duration": 0.007999999999999119
        },
        {
          "name": "A5",
          "midi": 81,
          "time": 19.50099999999984,
          "velocity": 0.47244094488188976,
          "duration": 0.15600000000000236
        },
        {
          "name": "A7",
          "midi": 105,
          "time": 19.50099999999984,
          "velocity": 0.4015748031496063,
          "duration": 0.007999999999999119
        },
        {
          "name": "A#6",
          "midi": 94,
          "time": 19.52099999999984,
          "velocity": 0.4015748031496063,
          "duration": 0.028000000000002245
        },
        {
          "name": "E7",
          "midi": 100,
          "time": 19.52099999999984,
          "velocity": 0.4330708661417323,
          "duration": 0.12600000000000477
        },
        {
          "name": "A#6",
          "midi": 94,
          "time": 19.52099999999984,
          "velocity": 0.4015748031496063,
          "duration": 0.028000000000002245
        },
        {
          "name": "E7",
          "midi": 100,
          "time": 19.52099999999984,
          "velocity": 0.4330708661417323,
          "duration": 0.12600000000000477
        },
        {
          "name": "A7",
          "midi": 105,
          "time": 19.530999999999842,
          "velocity": 0.4015748031496063,
          "duration": 0.028000000000002245
        },
        {
          "name": "A7",
          "midi": 105,
          "time": 19.530999999999842,
          "velocity": 0.4015748031496063,
          "duration": 0.028000000000002245
        },
        {
          "name": "A6",
          "midi": 93,
          "time": 19.559999999999846,
          "velocity": 0.44881889763779526,
          "duration": 0.05799999999999983
        },
        {
          "name": "A6",
          "midi": 93,
          "time": 19.559999999999846,
          "velocity": 0.44881889763779526,
          "duration": 0.05799999999999983
        },
        {
          "name": "A#5",
          "midi": 82,
          "time": 19.569999999999848,
          "velocity": 0.41732283464566927,
          "duration": 0.027999999999998693
        },
        {
          "name": "A#5",
          "midi": 82,
          "time": 19.569999999999848,
          "velocity": 0.41732283464566927,
          "duration": 0.027999999999998693
        },
        {
          "name": "A7",
          "midi": 105,
          "time": 19.579999999999846,
          "velocity": 0.4015748031496063,
          "duration": 0.18499999999999517
        },
        {
          "name": "A7",
          "midi": 105,
          "time": 19.579999999999846,
          "velocity": 0.4015748031496063,
          "duration": 0.18499999999999517
        },
        {
          "name": "A6",
          "midi": 93,
          "time": 19.609999999999847,
          "velocity": 0.3937007874015748,
          "duration": 0.046999999999997044
        },
        {
          "name": "A6",
          "midi": 93,
          "time": 19.609999999999847,
          "velocity": 0.3937007874015748,
          "duration": 0.046999999999997044
        },
        {
          "name": "E7",
          "midi": 100,
          "time": 19.618999999999847,
          "velocity": 0.4015748031496063,
          "duration": 0.07699999999999463
        },
        {
          "name": "E7",
          "midi": 100,
          "time": 19.618999999999847,
          "velocity": 0.4015748031496063,
          "duration": 0.07699999999999463
        },
        {
          "name": "A6",
          "midi": 93,
          "time": 19.648999999999845,
          "velocity": 0.44881889763779526,
          "duration": 0.07699999999999463
        },
        {
          "name": "A6",
          "midi": 93,
          "time": 19.648999999999845,
          "velocity": 0.44881889763779526,
          "duration": 0.07699999999999463
        },
        {
          "name": "A5",
          "midi": 81,
          "time": 19.658999999999843,
          "velocity": 0.48031496062992124,
          "duration": 0.06699999999999662
        },
        {
          "name": "A5",
          "midi": 81,
          "time": 19.658999999999843,
          "velocity": 0.48031496062992124,
          "duration": 0.06699999999999662
        },
        {
          "name": "E7",
          "midi": 100,
          "time": 19.687999999999843,
          "velocity": 0.4409448818897638,
          "duration": 0.14699999999999847
        },
        {
          "name": "A6",
          "midi": 93,
          "time": 19.687999999999843,
          "velocity": 0.47244094488188976,
          "duration": 0.2549999999999919
        },
        {
          "name": "E7",
          "midi": 100,
          "time": 19.687999999999843,
          "velocity": 0.4409448818897638,
          "duration": 0.14699999999999847
        },
        {
          "name": "A6",
          "midi": 93,
          "time": 19.687999999999843,
          "velocity": 0.47244094488188976,
          "duration": 0.2549999999999919
        },
        {
          "name": "A5",
          "midi": 81,
          "time": 19.71799999999984,
          "velocity": 0.41732283464566927,
          "duration": 0.12600000000000122
        },
        {
          "name": "A5",
          "midi": 81,
          "time": 19.71799999999984,
          "velocity": 0.41732283464566927,
          "duration": 0.12600000000000122
        },
        {
          "name": "E7",
          "midi": 100,
          "time": 19.73799999999984,
          "velocity": 0.4330708661417323,
          "duration": 0.12600000000000122
        },
        {
          "name": "E7",
          "midi": 100,
          "time": 19.73799999999984,
          "velocity": 0.4330708661417323,
          "duration": 0.12600000000000122
        },
        {
          "name": "A#5",
          "midi": 82,
          "time": 19.79699999999984,
          "velocity": 0.4094488188976378,
          "duration": 0.007999999999999119
        },
        {
          "name": "A#5",
          "midi": 82,
          "time": 19.79699999999984,
          "velocity": 0.4094488188976378,
          "duration": 0.007999999999999119
        },
        {
          "name": "A7",
          "midi": 105,
          "time": 19.80699999999984,
          "velocity": 0.4015748031496063,
          "duration": 0.018000000000000682
        },
        {
          "name": "A7",
          "midi": 105,
          "time": 19.80699999999984,
          "velocity": 0.4015748031496063,
          "duration": 0.018000000000000682
        },
        {
          "name": "A5",
          "midi": 81,
          "time": 19.835999999999842,
          "velocity": 0.4330708661417323,
          "duration": 0.047999999999994714
        },
        {
          "name": "A5",
          "midi": 81,
          "time": 19.835999999999842,
          "velocity": 0.4330708661417323,
          "duration": 0.047999999999994714
        },
        {
          "name": "A7",
          "midi": 105,
          "time": 19.84599999999984,
          "velocity": 0.4015748031496063,
          "duration": 0.046999999999997044
        },
        {
          "name": "A7",
          "midi": 105,
          "time": 19.84599999999984,
          "velocity": 0.4015748031496063,
          "duration": 0.046999999999997044
        },
        {
          "name": "E7",
          "midi": 100,
          "time": 19.85599999999984,
          "velocity": 0.4015748031496063,
          "duration": 0.07699999999999463
        },
        {
          "name": "E7",
          "midi": 100,
          "time": 19.85599999999984,
          "velocity": 0.4015748031496063,
          "duration": 0.07699999999999463
        },
        {
          "name": "F7",
          "midi": 101,
          "time": 19.86599999999984,
          "velocity": 0.3937007874015748,
          "duration": 0.007999999999999119
        },
        {
          "name": "F7",
          "midi": 101,
          "time": 19.86599999999984,
          "velocity": 0.3937007874015748,
          "duration": 0.007999999999999119
        },
        {
          "name": "A5",
          "midi": 81,
          "time": 19.875999999999838,
          "velocity": 0.41732283464566927,
          "duration": 0.29400000000000404
        },
        {
          "name": "A5",
          "midi": 81,
          "time": 19.875999999999838,
          "velocity": 0.41732283464566927,
          "duration": 0.29400000000000404
        },
        {
          "name": "E7",
          "midi": 100,
          "time": 19.895999999999837,
          "velocity": 0.4015748031496063,
          "duration": 0.08699999999999974
        },
        {
          "name": "E7",
          "midi": 100,
          "time": 19.895999999999837,
          "velocity": 0.4015748031496063,
          "duration": 0.08699999999999974
        },
        {
          "name": "C2",
          "midi": 36,
          "time": 19.934999999999835,
          "velocity": 0.3937007874015748,
          "duration": 0.007999999999999119
        },
        {
          "name": "A6",
          "midi": 93,
          "time": 19.934999999999835,
          "velocity": 0.4251968503937008,
          "duration": 0.11700000000000088
        },
        {
          "name": "C2",
          "midi": 36,
          "time": 19.934999999999835,
          "velocity": 0.3937007874015748,
          "duration": 0.007999999999999119
        },
        {
          "name": "A6",
          "midi": 93,
          "time": 19.934999999999835,
          "velocity": 0.4251968503937008,
          "duration": 0.11700000000000088
        },
        {
          "name": "E7",
          "midi": 100,
          "time": 19.954999999999835,
          "velocity": 0.3937007874015748,
          "duration": 0.11599999999999966
        },
        {
          "name": "E7",
          "midi": 100,
          "time": 19.954999999999835,
          "velocity": 0.3937007874015748,
          "duration": 0.11599999999999966
        },
        {
          "name": "A7",
          "midi": 105,
          "time": 19.964999999999836,
          "velocity": 0.3937007874015748,
          "duration": 0.11599999999999966
        },
        {
          "name": "A7",
          "midi": 105,
          "time": 19.964999999999836,
          "velocity": 0.3937007874015748,
          "duration": 0.11599999999999966
        },
        {
          "name": "A#6",
          "midi": 94,
          "time": 19.993999999999836,
          "velocity": 0.3937007874015748,
          "duration": 0.007999999999999119
        },
        {
          "name": "A#6",
          "midi": 94,
          "time": 19.993999999999836,
          "velocity": 0.3937007874015748,
          "duration": 0.007999999999999119
        },
        {
          "name": "A6",
          "midi": 93,
          "time": 20.043999999999837,
          "velocity": 0.41732283464566927,
          "duration": 0.06699999999999662
        },
        {
          "name": "A6",
          "midi": 93,
          "time": 20.043999999999837,
          "velocity": 0.41732283464566927,
          "duration": 0.06699999999999662
        },
        {
          "name": "E7",
          "midi": 100,
          "time": 20.062999999999835,
          "velocity": 0.4094488188976378,
          "duration": 0.05799999999999983
        },
        {
          "name": "E7",
          "midi": 100,
          "time": 20.062999999999835,
          "velocity": 0.4094488188976378,
          "duration": 0.05799999999999983
        },
        {
          "name": "A6",
          "midi": 93,
          "time": 20.102999999999835,
          "velocity": 0.4330708661417323,
          "duration": 0.15600000000000236
        },
        {
          "name": "G#6",
          "midi": 92,
          "time": 20.102999999999835,
          "velocity": 0.3937007874015748,
          "duration": 0.028000000000002245
        },
        {
          "name": "E7",
          "midi": 100,
          "time": 20.102999999999835,
          "velocity": 0.3937007874015748,
          "duration": 0.04700000000000415
        },
        {
          "name": "A6",
          "midi": 93,
          "time": 20.102999999999835,
          "velocity": 0.4330708661417323,
          "duration": 0.15600000000000236
        },
        {
          "name": "G#6",
          "midi": 92,
          "time": 20.102999999999835,
          "velocity": 0.3937007874015748,
          "duration": 0.028000000000002245
        },
        {
          "name": "E7",
          "midi": 100,
          "time": 20.102999999999835,
          "velocity": 0.3937007874015748,
          "duration": 0.04700000000000415
        },
        {
          "name": "A7",
          "midi": 105,
          "time": 20.131999999999838,
          "velocity": 0.3937007874015748,
          "duration": 0.037000000000002586
        },
        {
          "name": "A7",
          "midi": 105,
          "time": 20.131999999999838,
          "velocity": 0.3937007874015748,
          "duration": 0.037000000000002586
        },
        {
          "name": "E7",
          "midi": 100,
          "time": 20.14199999999984,
          "velocity": 0.4094488188976378,
          "duration": 0.04800000000000182
        },
        {
          "name": "E7",
          "midi": 100,
          "time": 20.14199999999984,
          "velocity": 0.4094488188976378,
          "duration": 0.04800000000000182
        },
        {
          "name": "A#6",
          "midi": 94,
          "time": 20.16199999999984,
          "velocity": 0.3937007874015748,
          "duration": 0.018000000000004235
        },
        {
          "name": "A5",
          "midi": 81,
          "time": 20.16199999999984,
          "velocity": 0.4330708661417323,
          "duration": 0.05700000000000216
        },
        {
          "name": "A#6",
          "midi": 94,
          "time": 20.16199999999984,
          "velocity": 0.3937007874015748,
          "duration": 0.018000000000004235
        },
        {
          "name": "A5",
          "midi": 81,
          "time": 20.16199999999984,
          "velocity": 0.4330708661417323,
          "duration": 0.05700000000000216
        },
        {
          "name": "E7",
          "midi": 100,
          "time": 20.181999999999842,
          "velocity": 0.41732283464566927,
          "duration": 0.056999999999995055
        },
        {
          "name": "E7",
          "midi": 100,
          "time": 20.181999999999842,
          "velocity": 0.41732283464566927,
          "duration": 0.056999999999995055
        },
        {
          "name": "F#2",
          "midi": 42,
          "time": 20.190999999999843,
          "velocity": 0.3937007874015748,
          "duration": 0.007999999999999119
        },
        {
          "name": "F#2",
          "midi": 42,
          "time": 20.190999999999843,
          "velocity": 0.3937007874015748,
          "duration": 0.007999999999999119
        },
        {
          "name": "A7",
          "midi": 105,
          "time": 20.20099999999984,
          "velocity": 0.3937007874015748,
          "duration": 0.018000000000000682
        },
        {
          "name": "A7",
          "midi": 105,
          "time": 20.20099999999984,
          "velocity": 0.3937007874015748,
          "duration": 0.018000000000000682
        },
        {
          "name": "A5",
          "midi": 81,
          "time": 20.210999999999842,
          "velocity": 0.4094488188976378,
          "duration": 0.10699999999998866
        },
        {
          "name": "A5",
          "midi": 81,
          "time": 20.210999999999842,
          "velocity": 0.4094488188976378,
          "duration": 0.10699999999998866
        },
        {
          "name": "D2",
          "midi": 38,
          "time": 20.22099999999984,
          "velocity": 0.3937007874015748,
          "duration": 0.007999999999999119
        },
        {
          "name": "D2",
          "midi": 38,
          "time": 20.22099999999984,
          "velocity": 0.3937007874015748,
          "duration": 0.007999999999999119
        },
        {
          "name": "E7",
          "midi": 100,
          "time": 20.230999999999838,
          "velocity": 0.3937007874015748,
          "duration": 0.06699999999999307
        },
        {
          "name": "E7",
          "midi": 100,
          "time": 20.230999999999838,
          "velocity": 0.3937007874015748,
          "duration": 0.06699999999999307
        },
        {
          "name": "A6",
          "midi": 93,
          "time": 20.250999999999838,
          "velocity": 0.4015748031496063,
          "duration": 0.04699999999999349
        },
        {
          "name": "A6",
          "midi": 93,
          "time": 20.250999999999838,
          "velocity": 0.4015748031496063,
          "duration": 0.04699999999999349
        },
        {
          "name": "E7",
          "midi": 100,
          "time": 20.260999999999836,
          "velocity": 0.4094488188976378,
          "duration": 0.11499999999999844
        },
        {
          "name": "E7",
          "midi": 100,
          "time": 20.260999999999836,
          "velocity": 0.4094488188976378,
          "duration": 0.11499999999999844
        },
        {
          "name": "A#6",
          "midi": 94,
          "time": 20.279999999999834,
          "velocity": 0.3937007874015748,
          "duration": 0.007999999999999119
        },
        {
          "name": "A#6",
          "midi": 94,
          "time": 20.279999999999834,
          "velocity": 0.3937007874015748,
          "duration": 0.007999999999999119
        },
        {
          "name": "A6",
          "midi": 93,
          "time": 20.289999999999832,
          "velocity": 0.4251968503937008,
          "duration": 0.09600000000000364
        },
        {
          "name": "A6",
          "midi": 93,
          "time": 20.289999999999832,
          "velocity": 0.4251968503937008,
          "duration": 0.09600000000000364
        },
        {
          "name": "G#2",
          "midi": 44,
          "time": 20.30999999999983,
          "velocity": 0.3937007874015748,
          "duration": 0.027999999999998693
        },
        {
          "name": "A5",
          "midi": 81,
          "time": 20.30999999999983,
          "velocity": 0.41732283464566927,
          "duration": 0.16600000000000037
        },
        {
          "name": "G#2",
          "midi": 44,
          "time": 20.30999999999983,
          "velocity": 0.3937007874015748,
          "duration": 0.027999999999998693
        },
        {
          "name": "A5",
          "midi": 81,
          "time": 20.30999999999983,
          "velocity": 0.41732283464566927,
          "duration": 0.16600000000000037
        },
        {
          "name": "E7",
          "midi": 100,
          "time": 20.33899999999983,
          "velocity": 0.3937007874015748,
          "duration": 0.08800000000000452
        },
        {
          "name": "E7",
          "midi": 100,
          "time": 20.33899999999983,
          "velocity": 0.3937007874015748,
          "duration": 0.08800000000000452
        },
        {
          "name": "A6",
          "midi": 93,
          "time": 20.348999999999833,
          "velocity": 0.4015748031496063,
          "duration": 0.0870000000000033
        },
        {
          "name": "A6",
          "midi": 93,
          "time": 20.348999999999833,
          "velocity": 0.4015748031496063,
          "duration": 0.0870000000000033
        },
        {
          "name": "A#5",
          "midi": 82,
          "time": 20.388999999999836,
          "velocity": 0.4015748031496063,
          "duration": 0.027999999999998693
        },
        {
          "name": "A7",
          "midi": 105,
          "time": 20.388999999999836,
          "velocity": 0.3937007874015748,
          "duration": 0.007999999999999119
        },
        {
          "name": "A#5",
          "midi": 82,
          "time": 20.388999999999836,
          "velocity": 0.4015748031496063,
          "duration": 0.027999999999998693
        },
        {
          "name": "A7",
          "midi": 105,
          "time": 20.388999999999836,
          "velocity": 0.3937007874015748,
          "duration": 0.007999999999999119
        },
        {
          "name": "E7",
          "midi": 100,
          "time": 20.398999999999834,
          "velocity": 0.3937007874015748,
          "duration": 0.09699999999999775
        },
        {
          "name": "E7",
          "midi": 100,
          "time": 20.398999999999834,
          "velocity": 0.3937007874015748,
          "duration": 0.09699999999999775
        },
        {
          "name": "G#5",
          "midi": 80,
          "time": 20.427999999999837,
          "velocity": 0.4015748031496063,
          "duration": 0.007999999999999119
        },
        {
          "name": "A6",
          "midi": 93,
          "time": 20.427999999999837,
          "velocity": 0.4015748031496063,
          "duration": 0.07699999999999463
        },
        {
          "name": "G#5",
          "midi": 80,
          "time": 20.427999999999837,
          "velocity": 0.4015748031496063,
          "duration": 0.007999999999999119
        },
        {
          "name": "A6",
          "midi": 93,
          "time": 20.427999999999837,
          "velocity": 0.4015748031496063,
          "duration": 0.07699999999999463
        },
        {
          "name": "A7",
          "midi": 105,
          "time": 20.437999999999835,
          "velocity": 0.3937007874015748,
          "duration": 0.007999999999999119
        },
        {
          "name": "A7",
          "midi": 105,
          "time": 20.437999999999835,
          "velocity": 0.3937007874015748,
          "duration": 0.007999999999999119
        },
        {
          "name": "A#6",
          "midi": 94,
          "time": 20.447999999999833,
          "velocity": 0.4015748031496063,
          "duration": 0.007999999999999119
        },
        {
          "name": "A#6",
          "midi": 94,
          "time": 20.447999999999833,
          "velocity": 0.4015748031496063,
          "duration": 0.007999999999999119
        },
        {
          "name": "E7",
          "midi": 100,
          "time": 20.45799999999983,
          "velocity": 0.41732283464566927,
          "duration": 0.08699999999999974
        },
        {
          "name": "E7",
          "midi": 100,
          "time": 20.45799999999983,
          "velocity": 0.41732283464566927,
          "duration": 0.08699999999999974
        },
        {
          "name": "A5",
          "midi": 81,
          "time": 20.467999999999833,
          "velocity": 0.4330708661417323,
          "duration": 0.1459999999999937
        },
        {
          "name": "A7",
          "midi": 105,
          "time": 20.467999999999833,
          "velocity": 0.3937007874015748,
          "duration": 0.06699999999999662
        },
        {
          "name": "A5",
          "midi": 81,
          "time": 20.467999999999833,
          "velocity": 0.4330708661417323,
          "duration": 0.1459999999999937
        },
        {
          "name": "A7",
          "midi": 105,
          "time": 20.467999999999833,
          "velocity": 0.3937007874015748,
          "duration": 0.06699999999999662
        },
        {
          "name": "A6",
          "midi": 93,
          "time": 20.496999999999833,
          "velocity": 0.41732283464566927,
          "duration": 0.10699999999999577
        },
        {
          "name": "A6",
          "midi": 93,
          "time": 20.496999999999833,
          "velocity": 0.41732283464566927,
          "duration": 0.10699999999999577
        },
        {
          "name": "E7",
          "midi": 100,
          "time": 20.52699999999983,
          "velocity": 0.4015748031496063,
          "duration": 0.05699999999999861
        },
        {
          "name": "E7",
          "midi": 100,
          "time": 20.52699999999983,
          "velocity": 0.4015748031496063,
          "duration": 0.05699999999999861
        },
        {
          "name": "A#2",
          "midi": 46,
          "time": 20.54699999999983,
          "velocity": 0.3937007874015748,
          "duration": 0.007999999999999119
        },
        {
          "name": "A#6",
          "midi": 94,
          "time": 20.54699999999983,
          "velocity": 0.4015748031496063,
          "duration": 0.027999999999998693
        },
        {
          "name": "A#2",
          "midi": 46,
          "time": 20.54699999999983,
          "velocity": 0.3937007874015748,
          "duration": 0.007999999999999119
        },
        {
          "name": "A#6",
          "midi": 94,
          "time": 20.54699999999983,
          "velocity": 0.4015748031496063,
          "duration": 0.027999999999998693
        },
        {
          "name": "E7",
          "midi": 100,
          "time": 20.56599999999983,
          "velocity": 0.41732283464566927,
          "duration": 0.05799999999999628
        },
        {
          "name": "E7",
          "midi": 100,
          "time": 20.56599999999983,
          "velocity": 0.41732283464566927,
          "duration": 0.05799999999999628
        },
        {
          "name": "D#2",
          "midi": 39,
          "time": 20.57599999999983,
          "velocity": 0.4015748031496063,
          "duration": 0.007999999999999119
        },
        {
          "name": "D#2",
          "midi": 39,
          "time": 20.57599999999983,
          "velocity": 0.4015748031496063,
          "duration": 0.007999999999999119
        },
        {
          "name": "A6",
          "midi": 93,
          "time": 20.59599999999983,
          "velocity": 0.4094488188976378,
          "duration": 0.25499999999999545
        },
        {
          "name": "A6",
          "midi": 93,
          "time": 20.59599999999983,
          "velocity": 0.4094488188976378,
          "duration": 0.25499999999999545
        },
        {
          "name": "A5",
          "midi": 81,
          "time": 20.605999999999828,
          "velocity": 0.48031496062992124,
          "duration": 0.07699999999999818
        },
        {
          "name": "A5",
          "midi": 81,
          "time": 20.605999999999828,
          "velocity": 0.48031496062992124,
          "duration": 0.07699999999999818
        },
        {
          "name": "E7",
          "midi": 100,
          "time": 20.615999999999826,
          "velocity": 0.4015748031496063,
          "duration": 0.07699999999999818
        },
        {
          "name": "E7",
          "midi": 100,
          "time": 20.615999999999826,
          "velocity": 0.4015748031496063,
          "duration": 0.07699999999999818
        },
        {
          "name": "A7",
          "midi": 105,
          "time": 20.634999999999824,
          "velocity": 0.3937007874015748,
          "duration": 0.018000000000000682
        },
        {
          "name": "D#2",
          "midi": 39,
          "time": 20.634999999999824,
          "velocity": 0.3937007874015748,
          "duration": 0.007999999999999119
        },
        {
          "name": "A7",
          "midi": 105,
          "time": 20.634999999999824,
          "velocity": 0.3937007874015748,
          "duration": 0.018000000000000682
        },
        {
          "name": "D#2",
          "midi": 39,
          "time": 20.634999999999824,
          "velocity": 0.3937007874015748,
          "duration": 0.007999999999999119
        },
        {
          "name": "A5",
          "midi": 81,
          "time": 20.654999999999824,
          "velocity": 0.41732283464566927,
          "duration": 0.34299999999999997
        },
        {
          "name": "A5",
          "midi": 81,
          "time": 20.654999999999824,
          "velocity": 0.41732283464566927,
          "duration": 0.34299999999999997
        },
        {
          "name": "E7",
          "midi": 100,
          "time": 20.664999999999825,
          "velocity": 0.4015748031496063,
          "duration": 0.046999999999997044
        },
        {
          "name": "E7",
          "midi": 100,
          "time": 20.664999999999825,
          "velocity": 0.4015748031496063,
          "duration": 0.046999999999997044
        },
        {
          "name": "A3",
          "midi": 57,
          "time": 20.684999999999825,
          "velocity": 0.4330708661417323,
          "duration": 0.1159999999999961
        },
        {
          "name": "A3",
          "midi": 57,
          "time": 20.684999999999825,
          "velocity": 0.4330708661417323,
          "duration": 0.1159999999999961
        },
        {
          "name": "G7",
          "midi": 103,
          "time": 20.703999999999823,
          "velocity": 0.4330708661417323,
          "duration": 0.06700000000000017
        },
        {
          "name": "D7",
          "midi": 98,
          "time": 20.703999999999823,
          "velocity": 0.44881889763779526,
          "duration": 0.07699999999999818
        },
        {
          "name": "G7",
          "midi": 103,
          "time": 20.703999999999823,
          "velocity": 0.4330708661417323,
          "duration": 0.06700000000000017
        },
        {
          "name": "D7",
          "midi": 98,
          "time": 20.703999999999823,
          "velocity": 0.44881889763779526,
          "duration": 0.07699999999999818
        },
        {
          "name": "G5",
          "midi": 79,
          "time": 20.723999999999823,
          "velocity": 0.4251968503937008,
          "duration": 0.018000000000000682
        },
        {
          "name": "G5",
          "midi": 79,
          "time": 20.723999999999823,
          "velocity": 0.4251968503937008,
          "duration": 0.018000000000000682
        },
        {
          "name": "G6",
          "midi": 91,
          "time": 20.753999999999824,
          "velocity": 0.4409448818897638,
          "duration": 0.007999999999999119
        },
        {
          "name": "G6",
          "midi": 91,
          "time": 20.753999999999824,
          "velocity": 0.4409448818897638,
          "duration": 0.007999999999999119
        },
        {
          "name": "G5",
          "midi": 79,
          "time": 20.772999999999822,
          "velocity": 0.4330708661417323,
          "duration": 0.0470000000000006
        },
        {
          "name": "G5",
          "midi": 79,
          "time": 20.772999999999822,
          "velocity": 0.4330708661417323,
          "duration": 0.0470000000000006
        },
        {
          "name": "G4",
          "midi": 67,
          "time": 20.78299999999982,
          "velocity": 0.5039370078740157,
          "duration": 0.1560000000000059
        },
        {
          "name": "G4",
          "midi": 67,
          "time": 20.78299999999982,
          "velocity": 0.5039370078740157,
          "duration": 0.1560000000000059
        },
        {
          "name": "G#6",
          "midi": 92,
          "time": 20.79299999999982,
          "velocity": 0.4566929133858268,
          "duration": 0.04700000000000415
        },
        {
          "name": "G#6",
          "midi": 92,
          "time": 20.79299999999982,
          "velocity": 0.4566929133858268,
          "duration": 0.04700000000000415
        },
        {
          "name": "D#5",
          "midi": 75,
          "time": 20.81299999999982,
          "velocity": 0.47244094488188976,
          "duration": 0.4710000000000001
        },
        {
          "name": "D#5",
          "midi": 75,
          "time": 20.81299999999982,
          "velocity": 0.47244094488188976,
          "duration": 0.4710000000000001
        },
        {
          "name": "A6",
          "midi": 93,
          "time": 20.832999999999824,
          "velocity": 0.44881889763779526,
          "duration": 0.30299999999999727
        },
        {
          "name": "A6",
          "midi": 93,
          "time": 20.832999999999824,
          "velocity": 0.44881889763779526,
          "duration": 0.30299999999999727
        },
        {
          "name": "C#5",
          "midi": 73,
          "time": 20.851999999999826,
          "velocity": 0.41732283464566927,
          "duration": 0.007999999999999119
        },
        {
          "name": "C#5",
          "midi": 73,
          "time": 20.851999999999826,
          "velocity": 0.41732283464566927,
          "duration": 0.007999999999999119
        },
        {
          "name": "A4",
          "midi": 69,
          "time": 20.861999999999824,
          "velocity": 0.44881889763779526,
          "duration": 0.0470000000000006
        },
        {
          "name": "A4",
          "midi": 69,
          "time": 20.861999999999824,
          "velocity": 0.44881889763779526,
          "duration": 0.0470000000000006
        },
        {
          "name": "D#7",
          "midi": 99,
          "time": 20.871999999999826,
          "velocity": 0.4251968503937008,
          "duration": 0.018000000000000682
        },
        {
          "name": "D#7",
          "midi": 99,
          "time": 20.871999999999826,
          "velocity": 0.4251968503937008,
          "duration": 0.018000000000000682
        },
        {
          "name": "G5",
          "midi": 79,
          "time": 20.911999999999825,
          "velocity": 0.4645669291338583,
          "duration": 0.028000000000002245
        },
        {
          "name": "G5",
          "midi": 79,
          "time": 20.911999999999825,
          "velocity": 0.4645669291338583,
          "duration": 0.028000000000002245
        },
        {
          "name": "G5",
          "midi": 79,
          "time": 20.94099999999983,
          "velocity": 0.44881889763779526,
          "duration": 0.007999999999999119
        },
        {
          "name": "G5",
          "midi": 79,
          "time": 20.94099999999983,
          "velocity": 0.44881889763779526,
          "duration": 0.007999999999999119
        },
        {
          "name": "A4",
          "midi": 69,
          "time": 20.950999999999826,
          "velocity": 0.4330708661417323,
          "duration": 0.06699999999999307
        },
        {
          "name": "D7",
          "midi": 98,
          "time": 20.950999999999826,
          "velocity": 0.4330708661417323,
          "duration": 0.007999999999999119
        },
        {
          "name": "A4",
          "midi": 69,
          "time": 20.950999999999826,
          "velocity": 0.4330708661417323,
          "duration": 0.06699999999999307
        },
        {
          "name": "D7",
          "midi": 98,
          "time": 20.950999999999826,
          "velocity": 0.4330708661417323,
          "duration": 0.007999999999999119
        },
        {
          "name": "C#5",
          "midi": 73,
          "time": 20.960999999999824,
          "velocity": 0.4409448818897638,
          "duration": 0.046999999999997044
        },
        {
          "name": "C#5",
          "midi": 73,
          "time": 20.960999999999824,
          "velocity": 0.4409448818897638,
          "duration": 0.046999999999997044
        },
        {
          "name": "D#4",
          "midi": 63,
          "time": 20.999999999999822,
          "velocity": 0.4251968503937008,
          "duration": 0.01799999999999713
        },
        {
          "name": "D#4",
          "midi": 63,
          "time": 20.999999999999822,
          "velocity": 0.4251968503937008,
          "duration": 0.01799999999999713
        },
        {
          "name": "G4",
          "midi": 67,
          "time": 21.00999999999982,
          "velocity": 0.4330708661417323,
          "duration": 0.07699999999999818
        },
        {
          "name": "G4",
          "midi": 67,
          "time": 21.00999999999982,
          "velocity": 0.4330708661417323,
          "duration": 0.07699999999999818
        },
        {
          "name": "E7",
          "midi": 100,
          "time": 21.01999999999982,
          "velocity": 0.4251968503937008,
          "duration": 0.018000000000000682
        },
        {
          "name": "E7",
          "midi": 100,
          "time": 21.01999999999982,
          "velocity": 0.4251968503937008,
          "duration": 0.018000000000000682
        },
        {
          "name": "A5",
          "midi": 81,
          "time": 21.02999999999982,
          "velocity": 0.4409448818897638,
          "duration": 0.09700000000000131
        },
        {
          "name": "A5",
          "midi": 81,
          "time": 21.02999999999982,
          "velocity": 0.4409448818897638,
          "duration": 0.09700000000000131
        },
        {
          "name": "A4",
          "midi": 69,
          "time": 21.059999999999818,
          "velocity": 0.4566929133858268,
          "duration": 0.0870000000000033
        },
        {
          "name": "A4",
          "midi": 69,
          "time": 21.059999999999818,
          "velocity": 0.4566929133858268,
          "duration": 0.0870000000000033
        },
        {
          "name": "G5",
          "midi": 79,
          "time": 21.088999999999817,
          "velocity": 0.48031496062992124,
          "duration": 0.0870000000000033
        },
        {
          "name": "G5",
          "midi": 79,
          "time": 21.088999999999817,
          "velocity": 0.48031496062992124,
          "duration": 0.0870000000000033
        },
        {
          "name": "G6",
          "midi": 91,
          "time": 21.09899999999982,
          "velocity": 0.44881889763779526,
          "duration": 0.018000000000000682
        },
        {
          "name": "G6",
          "midi": 91,
          "time": 21.09899999999982,
          "velocity": 0.44881889763779526,
          "duration": 0.018000000000000682
        },
        {
          "name": "G4",
          "midi": 67,
          "time": 21.12899999999982,
          "velocity": 0.47244094488188976,
          "duration": 0.10700000000000287
        },
        {
          "name": "G4",
          "midi": 67,
          "time": 21.12899999999982,
          "velocity": 0.47244094488188976,
          "duration": 0.10700000000000287
        },
        {
          "name": "C#5",
          "midi": 73,
          "time": 21.13799999999982,
          "velocity": 0.4409448818897638,
          "duration": 0.007999999999999119
        },
        {
          "name": "C#5",
          "midi": 73,
          "time": 21.13799999999982,
          "velocity": 0.4409448818897638,
          "duration": 0.007999999999999119
        },
        {
          "name": "A6",
          "midi": 93,
          "time": 21.15799999999982,
          "velocity": 0.4881889763779528,
          "duration": 0.07700000000000173
        },
        {
          "name": "A5",
          "midi": 81,
          "time": 21.15799999999982,
          "velocity": 0.4881889763779528,
          "duration": 0.13600000000000279
        },
        {
          "name": "A6",
          "midi": 93,
          "time": 21.15799999999982,
          "velocity": 0.4881889763779528,
          "duration": 0.07700000000000173
        },
        {
          "name": "A5",
          "midi": 81,
          "time": 21.15799999999982,
          "velocity": 0.4881889763779528,
          "duration": 0.13600000000000279
        },
        {
          "name": "E7",
          "midi": 100,
          "time": 21.16799999999982,
          "velocity": 0.4409448818897638,
          "duration": 0.007999999999999119
        },
        {
          "name": "E7",
          "midi": 100,
          "time": 21.16799999999982,
          "velocity": 0.4409448818897638,
          "duration": 0.007999999999999119
        },
        {
          "name": "A3",
          "midi": 57,
          "time": 21.18799999999982,
          "velocity": 0.4409448818897638,
          "duration": 0.027999999999998693
        },
        {
          "name": "A#6",
          "midi": 94,
          "time": 21.18799999999982,
          "velocity": 0.4409448818897638,
          "duration": 0.007999999999999119
        },
        {
          "name": "A3",
          "midi": 57,
          "time": 21.18799999999982,
          "velocity": 0.4409448818897638,
          "duration": 0.027999999999998693
        },
        {
          "name": "A#6",
          "midi": 94,
          "time": 21.18799999999982,
          "velocity": 0.4409448818897638,
          "duration": 0.007999999999999119
        },
        {
          "name": "A4",
          "midi": 69,
          "time": 21.21699999999982,
          "velocity": 0.4409448818897638,
          "duration": 0.16599999999999682
        },
        {
          "name": "A4",
          "midi": 69,
          "time": 21.21699999999982,
          "velocity": 0.4409448818897638,
          "duration": 0.16599999999999682
        },
        {
          "name": "A6",
          "midi": 93,
          "time": 21.226999999999823,
          "velocity": 0.4645669291338583,
          "duration": 0.2049999999999912
        },
        {
          "name": "A6",
          "midi": 93,
          "time": 21.226999999999823,
          "velocity": 0.4645669291338583,
          "duration": 0.2049999999999912
        },
        {
          "name": "G5",
          "midi": 79,
          "time": 21.246999999999822,
          "velocity": 0.4645669291338583,
          "duration": 0.1159999999999961
        },
        {
          "name": "A3",
          "midi": 57,
          "time": 21.246999999999822,
          "velocity": 0.4409448818897638,
          "duration": 0.007999999999999119
        },
        {
          "name": "G5",
          "midi": 79,
          "time": 21.246999999999822,
          "velocity": 0.4645669291338583,
          "duration": 0.1159999999999961
        },
        {
          "name": "A3",
          "midi": 57,
          "time": 21.246999999999822,
          "velocity": 0.4409448818897638,
          "duration": 0.007999999999999119
        },
        {
          "name": "D7",
          "midi": 98,
          "time": 21.266999999999822,
          "velocity": 0.4566929133858268,
          "duration": 0.036999999999999034
        },
        {
          "name": "D7",
          "midi": 98,
          "time": 21.266999999999822,
          "velocity": 0.4566929133858268,
          "duration": 0.036999999999999034
        },
        {
          "name": "G4",
          "midi": 67,
          "time": 21.29599999999982,
          "velocity": 0.4645669291338583,
          "duration": 0.10699999999999577
        },
        {
          "name": "G4",
          "midi": 67,
          "time": 21.29599999999982,
          "velocity": 0.4645669291338583,
          "duration": 0.10699999999999577
        },
        {
          "name": "E5",
          "midi": 76,
          "time": 21.30599999999982,
          "velocity": 0.4330708661417323,
          "duration": 0.027999999999998693
        },
        {
          "name": "E5",
          "midi": 76,
          "time": 21.30599999999982,
          "velocity": 0.4330708661417323,
          "duration": 0.027999999999998693
        },
        {
          "name": "D#5",
          "midi": 75,
          "time": 21.32599999999982,
          "velocity": 0.4645669291338583,
          "duration": 0.08699999999999619
        },
        {
          "name": "D#5",
          "midi": 75,
          "time": 21.32599999999982,
          "velocity": 0.4645669291338583,
          "duration": 0.08699999999999619
        },
        {
          "name": "D#7",
          "midi": 99,
          "time": 21.34599999999982,
          "velocity": 0.4330708661417323,
          "duration": 0.027999999999998693
        },
        {
          "name": "D#7",
          "midi": 99,
          "time": 21.34599999999982,
          "velocity": 0.4330708661417323,
          "duration": 0.027999999999998693
        },
        {
          "name": "A5",
          "midi": 81,
          "time": 21.37499999999982,
          "velocity": 0.5196850393700787,
          "duration": 0.6389999999999887
        },
        {
          "name": "A5",
          "midi": 81,
          "time": 21.37499999999982,
          "velocity": 0.5196850393700787,
          "duration": 0.6389999999999887
        },
        {
          "name": "G5",
          "midi": 79,
          "time": 21.384999999999817,
          "velocity": 0.4566929133858268,
          "duration": 0.036999999999999034
        },
        {
          "name": "G5",
          "midi": 79,
          "time": 21.384999999999817,
          "velocity": 0.4566929133858268,
          "duration": 0.036999999999999034
        },
        {
          "name": "G#6",
          "midi": 92,
          "time": 21.404999999999816,
          "velocity": 0.44881889763779526,
          "duration": 0.03699999999999548
        },
        {
          "name": "G#6",
          "midi": 92,
          "time": 21.404999999999816,
          "velocity": 0.44881889763779526,
          "duration": 0.03699999999999548
        },
        {
          "name": "A4",
          "midi": 69,
          "time": 21.414999999999814,
          "velocity": 0.44881889763779526,
          "duration": 0.03699999999999548
        },
        {
          "name": "A4",
          "midi": 69,
          "time": 21.414999999999814,
          "velocity": 0.44881889763779526,
          "duration": 0.03699999999999548
        },
        {
          "name": "A6",
          "midi": 93,
          "time": 21.423999999999815,
          "velocity": 0.4566929133858268,
          "duration": 0.1859999999999964
        },
        {
          "name": "A6",
          "midi": 93,
          "time": 21.423999999999815,
          "velocity": 0.4566929133858268,
          "duration": 0.1859999999999964
        },
        {
          "name": "D7",
          "midi": 98,
          "time": 21.433999999999813,
          "velocity": 0.44881889763779526,
          "duration": 0.03699999999999548
        },
        {
          "name": "D7",
          "midi": 98,
          "time": 21.433999999999813,
          "velocity": 0.44881889763779526,
          "duration": 0.03699999999999548
        },
        {
          "name": "D#5",
          "midi": 75,
          "time": 21.44399999999981,
          "velocity": 0.48031496062992124,
          "duration": 0.0470000000000006
        },
        {
          "name": "D#5",
          "midi": 75,
          "time": 21.44399999999981,
          "velocity": 0.48031496062992124,
          "duration": 0.0470000000000006
        },
        {
          "name": "G4",
          "midi": 67,
          "time": 21.45399999999981,
          "velocity": 0.5905511811023622,
          "duration": 0.17600000000000193
        },
        {
          "name": "G4",
          "midi": 67,
          "time": 21.45399999999981,
          "velocity": 0.5905511811023622,
          "duration": 0.17600000000000193
        },
        {
          "name": "A3",
          "midi": 57,
          "time": 21.47399999999981,
          "velocity": 0.4566929133858268,
          "duration": 0.037000000000002586
        },
        {
          "name": "A3",
          "midi": 57,
          "time": 21.47399999999981,
          "velocity": 0.4566929133858268,
          "duration": 0.037000000000002586
        },
        {
          "name": "G5",
          "midi": 79,
          "time": 21.48399999999981,
          "velocity": 0.44881889763779526,
          "duration": 0.05700000000000216
        },
        {
          "name": "G5",
          "midi": 79,
          "time": 21.48399999999981,
          "velocity": 0.44881889763779526,
          "duration": 0.05700000000000216
        },
        {
          "name": "D#7",
          "midi": 99,
          "time": 21.502999999999812,
          "velocity": 0.4330708661417323,
          "duration": 0.027999999999998693
        },
        {
          "name": "D#7",
          "midi": 99,
          "time": 21.502999999999812,
          "velocity": 0.4330708661417323,
          "duration": 0.027999999999998693
        },
        {
          "name": "E5",
          "midi": 76,
          "time": 21.52299999999981,
          "velocity": 0.4330708661417323,
          "duration": 0.027999999999998693
        },
        {
          "name": "E5",
          "midi": 76,
          "time": 21.52299999999981,
          "velocity": 0.4330708661417323,
          "duration": 0.027999999999998693
        },
        {
          "name": "G#6",
          "midi": 92,
          "time": 21.54299999999981,
          "velocity": 0.4645669291338583,
          "duration": 0.05699999999999861
        },
        {
          "name": "G#6",
          "midi": 92,
          "time": 21.54299999999981,
          "velocity": 0.4645669291338583,
          "duration": 0.05699999999999861
        },
        {
          "name": "A4",
          "midi": 69,
          "time": 21.56299999999981,
          "velocity": 0.47244094488188976,
          "duration": 0.14600000000000435
        },
        {
          "name": "F#5",
          "midi": 78,
          "time": 21.56299999999981,
          "velocity": 0.4409448818897638,
          "duration": 0.018000000000000682
        },
        {
          "name": "A4",
          "midi": 69,
          "time": 21.56299999999981,
          "velocity": 0.47244094488188976,
          "duration": 0.14600000000000435
        },
        {
          "name": "F#5",
          "midi": 78,
          "time": 21.56299999999981,
          "velocity": 0.4409448818897638,
          "duration": 0.018000000000000682
        },
        {
          "name": "G5",
          "midi": 79,
          "time": 21.59199999999981,
          "velocity": 0.5039370078740157,
          "duration": 0.06700000000000017
        },
        {
          "name": "G5",
          "midi": 79,
          "time": 21.59199999999981,
          "velocity": 0.5039370078740157,
          "duration": 0.06700000000000017
        },
        {
          "name": "D7",
          "midi": 98,
          "time": 21.61199999999981,
          "velocity": 0.4566929133858268,
          "duration": 0.028000000000002245
        },
        {
          "name": "D7",
          "midi": 98,
          "time": 21.61199999999981,
          "velocity": 0.4566929133858268,
          "duration": 0.028000000000002245
        },
        {
          "name": "A3",
          "midi": 57,
          "time": 21.62199999999981,
          "velocity": 0.4645669291338583,
          "duration": 0.036999999999999034
        },
        {
          "name": "A3",
          "midi": 57,
          "time": 21.62199999999981,
          "velocity": 0.4645669291338583,
          "duration": 0.036999999999999034
        },
        {
          "name": "G5",
          "midi": 79,
          "time": 21.65099999999981,
          "velocity": 0.4566929133858268,
          "duration": 0.0870000000000033
        },
        {
          "name": "D#5",
          "midi": 75,
          "time": 21.65099999999981,
          "velocity": 0.4566929133858268,
          "duration": 0.0470000000000006
        },
        {
          "name": "G5",
          "midi": 79,
          "time": 21.65099999999981,
          "velocity": 0.4566929133858268,
          "duration": 0.0870000000000033
        },
        {
          "name": "D#5",
          "midi": 75,
          "time": 21.65099999999981,
          "velocity": 0.4566929133858268,
          "duration": 0.0470000000000006
        },
        {
          "name": "A6",
          "midi": 93,
          "time": 21.67099999999981,
          "velocity": 0.4566929133858268,
          "duration": 0.037000000000002586
        },
        {
          "name": "G4",
          "midi": 67,
          "time": 21.67099999999981,
          "velocity": 0.5039370078740157,
          "duration": 0.2839999999999989
        },
        {
          "name": "A6",
          "midi": 93,
          "time": 21.67099999999981,
          "velocity": 0.4566929133858268,
          "duration": 0.037000000000002586
        },
        {
          "name": "G4",
          "midi": 67,
          "time": 21.67099999999981,
          "velocity": 0.5039370078740157,
          "duration": 0.2839999999999989
        },
        {
          "name": "G#6",
          "midi": 92,
          "time": 21.710999999999814,
          "velocity": 0.4645669291338583,
          "duration": 0.0470000000000006
        },
        {
          "name": "G#6",
          "midi": 92,
          "time": 21.710999999999814,
          "velocity": 0.4645669291338583,
          "duration": 0.0470000000000006
        },
        {
          "name": "C#5",
          "midi": 73,
          "time": 21.719999999999814,
          "velocity": 0.4409448818897638,
          "duration": 0.028000000000002245
        },
        {
          "name": "C#5",
          "midi": 73,
          "time": 21.719999999999814,
          "velocity": 0.4409448818897638,
          "duration": 0.028000000000002245
        },
        {
          "name": "A6",
          "midi": 93,
          "time": 21.729999999999816,
          "velocity": 0.4645669291338583,
          "duration": 0.05699999999999861
        },
        {
          "name": "A6",
          "midi": 93,
          "time": 21.729999999999816,
          "velocity": 0.4645669291338583,
          "duration": 0.05699999999999861
        },
        {
          "name": "A4",
          "midi": 69,
          "time": 21.749999999999815,
          "velocity": 0.4566929133858268,
          "duration": 0.06700000000000017
        },
        {
          "name": "A4",
          "midi": 69,
          "time": 21.749999999999815,
          "velocity": 0.4566929133858268,
          "duration": 0.06700000000000017
        },
        {
          "name": "A3",
          "midi": 57,
          "time": 21.759999999999813,
          "velocity": 0.4566929133858268,
          "duration": 0.06700000000000372
        },
        {
          "name": "A3",
          "midi": 57,
          "time": 21.759999999999813,
          "velocity": 0.4566929133858268,
          "duration": 0.06700000000000372
        },
        {
          "name": "G5",
          "midi": 79,
          "time": 21.769999999999815,
          "velocity": 0.49606299212598426,
          "duration": 0.0870000000000033
        },
        {
          "name": "G5",
          "midi": 79,
          "time": 21.769999999999815,
          "velocity": 0.49606299212598426,
          "duration": 0.0870000000000033
        },
        {
          "name": "D#5",
          "midi": 75,
          "time": 21.798999999999815,
          "velocity": 0.48031496062992124,
          "duration": 0.06700000000000372
        },
        {
          "name": "D#5",
          "midi": 75,
          "time": 21.798999999999815,
          "velocity": 0.48031496062992124,
          "duration": 0.06700000000000372
        },
        {
          "name": "A6",
          "midi": 93,
          "time": 21.828999999999816,
          "velocity": 0.4566929133858268,
          "duration": 0.028000000000002245
        },
        {
          "name": "A6",
          "midi": 93,
          "time": 21.828999999999816,
          "velocity": 0.4566929133858268,
          "duration": 0.028000000000002245
        },
        {
          "name": "A4",
          "midi": 69,
          "time": 21.838999999999817,
          "velocity": 0.4409448818897638,
          "duration": 0.007999999999999119
        },
        {
          "name": "A4",
          "midi": 69,
          "time": 21.838999999999817,
          "velocity": 0.4409448818897638,
          "duration": 0.007999999999999119
        },
        {
          "name": "C#5",
          "midi": 73,
          "time": 21.858999999999817,
          "velocity": 0.44881889763779526,
          "duration": 0.056999999999995055
        },
        {
          "name": "C#5",
          "midi": 73,
          "time": 21.858999999999817,
          "velocity": 0.44881889763779526,
          "duration": 0.056999999999995055
        },
        {
          "name": "A#7",
          "midi": 106,
          "time": 21.867999999999817,
          "velocity": 0.4409448818897638,
          "duration": 0.007999999999999119
        },
        {
          "name": "F7",
          "midi": 101,
          "time": 21.867999999999817,
          "velocity": 0.4566929133858268,
          "duration": 0.01799999999999713
        },
        {
          "name": "A#7",
          "midi": 106,
          "time": 21.867999999999817,
          "velocity": 0.4409448818897638,
          "duration": 0.007999999999999119
        },
        {
          "name": "F7",
          "midi": 101,
          "time": 21.867999999999817,
          "velocity": 0.4566929133858268,
          "duration": 0.01799999999999713
        },
        {
          "name": "A4",
          "midi": 69,
          "time": 21.877999999999815,
          "velocity": 0.48031496062992124,
          "duration": 0.22499999999999076
        },
        {
          "name": "A4",
          "midi": 69,
          "time": 21.877999999999815,
          "velocity": 0.48031496062992124,
          "duration": 0.22499999999999076
        },
        {
          "name": "G#6",
          "midi": 92,
          "time": 21.887999999999813,
          "velocity": 0.44881889763779526,
          "duration": 0.018000000000000682
        },
        {
          "name": "G#6",
          "midi": 92,
          "time": 21.887999999999813,
          "velocity": 0.44881889763779526,
          "duration": 0.018000000000000682
        },
        {
          "name": "G5",
          "midi": 79,
          "time": 21.907999999999813,
          "velocity": 0.4881889763779528,
          "duration": 0.12599999999999412
        },
        {
          "name": "G5",
          "midi": 79,
          "time": 21.907999999999813,
          "velocity": 0.4881889763779528,
          "duration": 0.12599999999999412
        },
        {
          "name": "A6",
          "midi": 93,
          "time": 21.91799999999981,
          "velocity": 0.4566929133858268,
          "duration": 0.018000000000000682
        },
        {
          "name": "A6",
          "midi": 93,
          "time": 21.91799999999981,
          "velocity": 0.4566929133858268,
          "duration": 0.018000000000000682
        },
        {
          "name": "G6",
          "midi": 91,
          "time": 21.927999999999813,
          "velocity": 0.44881889763779526,
          "duration": 0.056999999999995055
        },
        {
          "name": "G6",
          "midi": 91,
          "time": 21.927999999999813,
          "velocity": 0.44881889763779526,
          "duration": 0.056999999999995055
        },
        {
          "name": "D#5",
          "midi": 75,
          "time": 21.94699999999981,
          "velocity": 0.4566929133858268,
          "duration": 0.19499999999999318
        },
        {
          "name": "D#5",
          "midi": 75,
          "time": 21.94699999999981,
          "velocity": 0.4566929133858268,
          "duration": 0.19499999999999318
        },
        {
          "name": "A3",
          "midi": 57,
          "time": 21.97699999999981,
          "velocity": 0.48031496062992124,
          "duration": 0.13599999999999568
        },
        {
          "name": "A3",
          "midi": 57,
          "time": 21.97699999999981,
          "velocity": 0.48031496062992124,
          "duration": 0.13599999999999568
        },
        {
          "name": "A6",
          "midi": 93,
          "time": 21.996999999999808,
          "velocity": 0.4566929133858268,
          "duration": 0.09699999999999775
        },
        {
          "name": "A6",
          "midi": 93,
          "time": 21.996999999999808,
          "velocity": 0.4566929133858268,
          "duration": 0.09699999999999775
        },
        {
          "name": "A#6",
          "midi": 94,
          "time": 22.025999999999808,
          "velocity": 0.4566929133858268,
          "duration": 0.027999999999998693
        },
        {
          "name": "A#6",
          "midi": 94,
          "time": 22.025999999999808,
          "velocity": 0.4566929133858268,
          "duration": 0.027999999999998693
        },
        {
          "name": "G5",
          "midi": 79,
          "time": 22.055999999999806,
          "velocity": 0.48031496062992124,
          "duration": 0.12599999999999767
        },
        {
          "name": "G5",
          "midi": 79,
          "time": 22.055999999999806,
          "velocity": 0.48031496062992124,
          "duration": 0.12599999999999767
        },
        {
          "name": "A5",
          "midi": 81,
          "time": 22.065999999999807,
          "velocity": 0.5354330708661418,
          "duration": 0.09699999999999775
        },
        {
          "name": "A5",
          "midi": 81,
          "time": 22.065999999999807,
          "velocity": 0.5354330708661418,
          "duration": 0.09699999999999775
        },
        {
          "name": "D7",
          "midi": 98,
          "time": 22.104999999999805,
          "velocity": 0.4566929133858268,
          "duration": 0.027999999999998693
        },
        {
          "name": "D7",
          "midi": 98,
          "time": 22.104999999999805,
          "velocity": 0.4566929133858268,
          "duration": 0.027999999999998693
        },
        {
          "name": "A6",
          "midi": 93,
          "time": 22.114999999999803,
          "velocity": 0.4645669291338583,
          "duration": 0.037000000000002586
        },
        {
          "name": "A6",
          "midi": 93,
          "time": 22.114999999999803,
          "velocity": 0.4645669291338583,
          "duration": 0.037000000000002586
        },
        {
          "name": "F5",
          "midi": 77,
          "time": 22.124999999999805,
          "velocity": 0.5039370078740157,
          "duration": 0.18500000000000583
        },
        {
          "name": "F5",
          "midi": 77,
          "time": 22.124999999999805,
          "velocity": 0.5039370078740157,
          "duration": 0.18500000000000583
        },
        {
          "name": "C7",
          "midi": 96,
          "time": 22.144999999999804,
          "velocity": 0.4566929133858268,
          "duration": 0.09700000000000486
        },
        {
          "name": "C7",
          "midi": 96,
          "time": 22.144999999999804,
          "velocity": 0.4566929133858268,
          "duration": 0.09700000000000486
        },
        {
          "name": "A3",
          "midi": 57,
          "time": 22.153999999999805,
          "velocity": 0.48031496062992124,
          "duration": 0.4810000000000052
        },
        {
          "name": "A3",
          "midi": 57,
          "time": 22.153999999999805,
          "velocity": 0.48031496062992124,
          "duration": 0.4810000000000052
        },
        {
          "name": "D5",
          "midi": 74,
          "time": 22.163999999999806,
          "velocity": 0.44881889763779526,
          "duration": 0.007999999999999119
        },
        {
          "name": "D5",
          "midi": 74,
          "time": 22.163999999999806,
          "velocity": 0.44881889763779526,
          "duration": 0.007999999999999119
        },
        {
          "name": "D#5",
          "midi": 75,
          "time": 22.173999999999804,
          "velocity": 0.44881889763779526,
          "duration": 0.018000000000000682
        },
        {
          "name": "D#5",
          "midi": 75,
          "time": 22.173999999999804,
          "velocity": 0.44881889763779526,
          "duration": 0.018000000000000682
        },
        {
          "name": "D5",
          "midi": 74,
          "time": 22.193999999999804,
          "velocity": 0.4330708661417323,
          "duration": 0.028000000000002245
        },
        {
          "name": "A5",
          "midi": 81,
          "time": 22.193999999999804,
          "velocity": 0.5196850393700787,
          "duration": 0.1460000000000079
        },
        {
          "name": "D5",
          "midi": 74,
          "time": 22.193999999999804,
          "velocity": 0.4330708661417323,
          "duration": 0.028000000000002245
        },
        {
          "name": "A5",
          "midi": 81,
          "time": 22.193999999999804,
          "velocity": 0.5196850393700787,
          "duration": 0.1460000000000079
        },
        {
          "name": "A4",
          "midi": 69,
          "time": 22.203999999999805,
          "velocity": 0.4330708661417323,
          "duration": 0.028000000000002245
        },
        {
          "name": "A4",
          "midi": 69,
          "time": 22.203999999999805,
          "velocity": 0.4330708661417323,
          "duration": 0.028000000000002245
        },
        {
          "name": "D#5",
          "midi": 75,
          "time": 22.23299999999981,
          "velocity": 0.4251968503937008,
          "duration": 0.018000000000000682
        },
        {
          "name": "D#5",
          "midi": 75,
          "time": 22.23299999999981,
          "velocity": 0.4251968503937008,
          "duration": 0.018000000000000682
        },
        {
          "name": "A6",
          "midi": 93,
          "time": 22.24299999999981,
          "velocity": 0.4409448818897638,
          "duration": 0.06700000000000017
        },
        {
          "name": "A6",
          "midi": 93,
          "time": 22.24299999999981,
          "velocity": 0.4409448818897638,
          "duration": 0.06700000000000017
        },
        {
          "name": "D5",
          "midi": 74,
          "time": 22.26299999999981,
          "velocity": 0.4566929133858268,
          "duration": 0.18500000000000227
        },
        {
          "name": "D5",
          "midi": 74,
          "time": 22.26299999999981,
          "velocity": 0.4566929133858268,
          "duration": 0.18500000000000227
        },
        {
          "name": "E6",
          "midi": 88,
          "time": 22.27299999999981,
          "velocity": 0.4566929133858268,
          "duration": 0.018000000000000682
        },
        {
          "name": "E6",
          "midi": 88,
          "time": 22.27299999999981,
          "velocity": 0.4566929133858268,
          "duration": 0.018000000000000682
        },
        {
          "name": "A4",
          "midi": 69,
          "time": 22.32199999999981,
          "velocity": 0.4566929133858268,
          "duration": 0.037000000000002586
        },
        {
          "name": "F6",
          "midi": 89,
          "time": 22.32199999999981,
          "velocity": 0.4645669291338583,
          "duration": 0.11600000000000321
        },
        {
          "name": "A4",
          "midi": 69,
          "time": 22.32199999999981,
          "velocity": 0.4566929133858268,
          "duration": 0.037000000000002586
        },
        {
          "name": "F6",
          "midi": 89,
          "time": 22.32199999999981,
          "velocity": 0.4645669291338583,
          "duration": 0.11600000000000321
        },
        {
          "name": "A6",
          "midi": 93,
          "time": 22.331999999999812,
          "velocity": 0.44881889763779526,
          "duration": 0.018000000000000682
        },
        {
          "name": "A6",
          "midi": 93,
          "time": 22.331999999999812,
          "velocity": 0.44881889763779526,
          "duration": 0.018000000000000682
        },
        {
          "name": "F5",
          "midi": 77,
          "time": 22.351999999999812,
          "velocity": 0.44881889763779526,
          "duration": 0.06700000000000372
        },
        {
          "name": "F5",
          "midi": 77,
          "time": 22.351999999999812,
          "velocity": 0.44881889763779526,
          "duration": 0.06700000000000372
        },
        {
          "name": "A5",
          "midi": 81,
          "time": 22.361999999999814,
          "velocity": 0.49606299212598426,
          "duration": 1.1919999999999895
        },
        {
          "name": "A5",
          "midi": 81,
          "time": 22.361999999999814,
          "velocity": 0.49606299212598426,
          "duration": 1.1919999999999895
        },
        {
          "name": "E5",
          "midi": 76,
          "time": 22.370999999999814,
          "velocity": 0.4251968503937008,
          "duration": 0.018000000000000682
        },
        {
          "name": "E5",
          "midi": 76,
          "time": 22.370999999999814,
          "velocity": 0.4251968503937008,
          "duration": 0.018000000000000682
        },
        {
          "name": "A6",
          "midi": 93,
          "time": 22.400999999999815,
          "velocity": 0.44881889763779526,
          "duration": 0.07699999999999463
        },
        {
          "name": "A6",
          "midi": 93,
          "time": 22.400999999999815,
          "velocity": 0.44881889763779526,
          "duration": 0.07699999999999463
        },
        {
          "name": "F5",
          "midi": 77,
          "time": 22.439999999999813,
          "velocity": 0.4251968503937008,
          "duration": 0.06699999999999662
        },
        {
          "name": "F5",
          "midi": 77,
          "time": 22.439999999999813,
          "velocity": 0.4251968503937008,
          "duration": 0.06699999999999662
        },
        {
          "name": "F4",
          "midi": 65,
          "time": 22.44999999999981,
          "velocity": 0.4251968503937008,
          "duration": 0.018000000000000682
        },
        {
          "name": "F4",
          "midi": 65,
          "time": 22.44999999999981,
          "velocity": 0.4251968503937008,
          "duration": 0.018000000000000682
        },
        {
          "name": "D#7",
          "midi": 99,
          "time": 22.46999999999981,
          "velocity": 0.4251968503937008,
          "duration": 0.027999999999998693
        },
        {
          "name": "D#7",
          "midi": 99,
          "time": 22.46999999999981,
          "velocity": 0.4251968503937008,
          "duration": 0.027999999999998693
        },
        {
          "name": "D6",
          "midi": 86,
          "time": 22.47999999999981,
          "velocity": 0.4251968503937008,
          "duration": 0.028000000000002245
        },
        {
          "name": "D6",
          "midi": 86,
          "time": 22.47999999999981,
          "velocity": 0.4251968503937008,
          "duration": 0.028000000000002245
        },
        {
          "name": "F6",
          "midi": 89,
          "time": 22.499999999999808,
          "velocity": 0.4251968503937008,
          "duration": 0.037000000000002586
        },
        {
          "name": "F6",
          "midi": 89,
          "time": 22.499999999999808,
          "velocity": 0.4251968503937008,
          "duration": 0.037000000000002586
        },
        {
          "name": "E5",
          "midi": 76,
          "time": 22.50999999999981,
          "velocity": 0.41732283464566927,
          "duration": 0.037000000000002586
        },
        {
          "name": "E5",
          "midi": 76,
          "time": 22.50999999999981,
          "velocity": 0.41732283464566927,
          "duration": 0.037000000000002586
        },
        {
          "name": "D5",
          "midi": 74,
          "time": 22.51899999999981,
          "velocity": 0.4094488188976378,
          "duration": 0.05699999999999861
        },
        {
          "name": "A6",
          "midi": 93,
          "time": 22.51899999999981,
          "velocity": 0.4409448818897638,
          "duration": 0.047999999999998266
        },
        {
          "name": "D5",
          "midi": 74,
          "time": 22.51899999999981,
          "velocity": 0.4094488188976378,
          "duration": 0.05699999999999861
        },
        {
          "name": "A6",
          "midi": 93,
          "time": 22.51899999999981,
          "velocity": 0.4409448818897638,
          "duration": 0.047999999999998266
        },
        {
          "name": "F5",
          "midi": 77,
          "time": 22.54899999999981,
          "velocity": 0.4094488188976378,
          "duration": 0.007999999999999119
        },
        {
          "name": "F5",
          "midi": 77,
          "time": 22.54899999999981,
          "velocity": 0.4094488188976378,
          "duration": 0.007999999999999119
        },
        {
          "name": "A6",
          "midi": 93,
          "time": 22.55899999999981,
          "velocity": 0.4409448818897638,
          "duration": 0.0470000000000006
        },
        {
          "name": "A6",
          "midi": 93,
          "time": 22.55899999999981,
          "velocity": 0.4409448818897638,
          "duration": 0.0470000000000006
        },
        {
          "name": "F4",
          "midi": 65,
          "time": 22.568999999999807,
          "velocity": 0.4094488188976378,
          "duration": 0.028000000000002245
        },
        {
          "name": "F4",
          "midi": 65,
          "time": 22.568999999999807,
          "velocity": 0.4094488188976378,
          "duration": 0.028000000000002245
        },
        {
          "name": "F5",
          "midi": 77,
          "time": 22.57899999999981,
          "velocity": 0.4015748031496063,
          "duration": 0.007999999999999119
        },
        {
          "name": "F5",
          "midi": 77,
          "time": 22.57899999999981,
          "velocity": 0.4015748031496063,
          "duration": 0.007999999999999119
        },
        {
          "name": "A6",
          "midi": 93,
          "time": 22.59799999999981,
          "velocity": 0.4330708661417323,
          "duration": 0.027999999999998693
        },
        {
          "name": "A6",
          "midi": 93,
          "time": 22.59799999999981,
          "velocity": 0.4330708661417323,
          "duration": 0.027999999999998693
        },
        {
          "name": "F7",
          "midi": 101,
          "time": 22.60799999999981,
          "velocity": 0.4094488188976378,
          "duration": 0.018000000000000682
        },
        {
          "name": "F7",
          "midi": 101,
          "time": 22.60799999999981,
          "velocity": 0.4094488188976378,
          "duration": 0.018000000000000682
        },
        {
          "name": "A6",
          "midi": 93,
          "time": 22.61799999999981,
          "velocity": 0.41732283464566927,
          "duration": 0.046999999999997044
        },
        {
          "name": "E5",
          "midi": 76,
          "time": 22.61799999999981,
          "velocity": 0.41732283464566927,
          "duration": 0.018000000000000682
        },
        {
          "name": "A6",
          "midi": 93,
          "time": 22.61799999999981,
          "velocity": 0.41732283464566927,
          "duration": 0.046999999999997044
        },
        {
          "name": "E5",
          "midi": 76,
          "time": 22.61799999999981,
          "velocity": 0.41732283464566927,
          "duration": 0.018000000000000682
        },
        {
          "name": "D#7",
          "midi": 99,
          "time": 22.63799999999981,
          "velocity": 0.4251968503937008,
          "duration": 0.007999999999999119
        },
        {
          "name": "D6",
          "midi": 86,
          "time": 22.63799999999981,
          "velocity": 0.47244094488188976,
          "duration": 0.15599999999999525
        },
        {
          "name": "D#7",
          "midi": 99,
          "time": 22.63799999999981,
          "velocity": 0.4251968503937008,
          "duration": 0.007999999999999119
        },
        {
          "name": "D6",
          "midi": 86,
          "time": 22.63799999999981,
          "velocity": 0.47244094488188976,
          "duration": 0.15599999999999525
        },
        {
          "name": "F6",
          "midi": 89,
          "time": 22.647999999999808,
          "velocity": 0.5118110236220472,
          "duration": 0.28399999999999537
        },
        {
          "name": "F6",
          "midi": 89,
          "time": 22.647999999999808,
          "velocity": 0.5118110236220472,
          "duration": 0.28399999999999537
        },
        {
          "name": "A6",
          "midi": 93,
          "time": 22.656999999999808,
          "velocity": 0.4330708661417323,
          "duration": 0.08699999999999619
        },
        {
          "name": "A6",
          "midi": 93,
          "time": 22.656999999999808,
          "velocity": 0.4330708661417323,
          "duration": 0.08699999999999619
        },
        {
          "name": "D7",
          "midi": 98,
          "time": 22.666999999999806,
          "velocity": 0.4251968503937008,
          "duration": 0.007999999999999119
        },
        {
          "name": "D7",
          "midi": 98,
          "time": 22.666999999999806,
          "velocity": 0.4251968503937008,
          "duration": 0.007999999999999119
        },
        {
          "name": "F4",
          "midi": 65,
          "time": 22.686999999999806,
          "velocity": 0.48031496062992124,
          "duration": 0.5899999999999928
        },
        {
          "name": "A#5",
          "midi": 82,
          "time": 22.686999999999806,
          "velocity": 0.44881889763779526,
          "duration": 0.007999999999999119
        },
        {
          "name": "F4",
          "midi": 65,
          "time": 22.686999999999806,
          "velocity": 0.48031496062992124,
          "duration": 0.5899999999999928
        },
        {
          "name": "A#5",
          "midi": 82,
          "time": 22.686999999999806,
          "velocity": 0.44881889763779526,
          "duration": 0.007999999999999119
        },
        {
          "name": "F7",
          "midi": 101,
          "time": 22.706999999999805,
          "velocity": 0.4251968503937008,
          "duration": 0.018000000000000682
        },
        {
          "name": "F7",
          "midi": 101,
          "time": 22.706999999999805,
          "velocity": 0.4251968503937008,
          "duration": 0.018000000000000682
        },
        {
          "name": "A6",
          "midi": 93,
          "time": 22.735999999999805,
          "velocity": 0.41732283464566927,
          "duration": 0.09699999999999775
        },
        {
          "name": "A6",
          "midi": 93,
          "time": 22.735999999999805,
          "velocity": 0.41732283464566927,
          "duration": 0.09699999999999775
        },
        {
          "name": "D4",
          "midi": 62,
          "time": 22.775999999999804,
          "velocity": 0.4094488188976378,
          "duration": 0.007999999999999119
        },
        {
          "name": "D4",
          "midi": 62,
          "time": 22.775999999999804,
          "velocity": 0.4094488188976378,
          "duration": 0.007999999999999119
        },
        {
          "name": "A3",
          "midi": 57,
          "time": 22.804999999999804,
          "velocity": 0.4409448818897638,
          "duration": 0.10699999999999932
        },
        {
          "name": "A3",
          "midi": 57,
          "time": 22.804999999999804,
          "velocity": 0.4409448818897638,
          "duration": 0.10699999999999932
        },
        {
          "name": "A6",
          "midi": 93,
          "time": 22.824999999999804,
          "velocity": 0.41732283464566927,
          "duration": 0.09600000000000009
        },
        {
          "name": "A6",
          "midi": 93,
          "time": 22.824999999999804,
          "velocity": 0.41732283464566927,
          "duration": 0.09600000000000009
        },
        {
          "name": "A4",
          "midi": 69,
          "time": 22.8549999999998,
          "velocity": 0.4094488188976378,
          "duration": 0.0470000000000006
        },
        {
          "name": "A4",
          "midi": 69,
          "time": 22.8549999999998,
          "velocity": 0.4094488188976378,
          "duration": 0.0470000000000006
        },
        {
          "name": "A6",
          "midi": 93,
          "time": 22.913999999999803,
          "velocity": 0.4251968503937008,
          "duration": 0.08699999999999974
        },
        {
          "name": "A6",
          "midi": 93,
          "time": 22.913999999999803,
          "velocity": 0.4251968503937008,
          "duration": 0.08699999999999974
        },
        {
          "name": "E6",
          "midi": 88,
          "time": 22.923999999999804,
          "velocity": 0.4566929133858268,
          "duration": 0.05699999999999861
        },
        {
          "name": "E6",
          "midi": 88,
          "time": 22.923999999999804,
          "velocity": 0.4566929133858268,
          "duration": 0.05699999999999861
        },
        {
          "name": "C#7",
          "midi": 97,
          "time": 22.933999999999802,
          "velocity": 0.4251968503937008,
          "duration": 0.037000000000002586
        },
        {
          "name": "C#7",
          "midi": 97,
          "time": 22.933999999999802,
          "velocity": 0.4251968503937008,
          "duration": 0.037000000000002586
        },
        {
          "name": "B7",
          "midi": 107,
          "time": 22.943999999999804,
          "velocity": 0.41732283464566927,
          "duration": 0.018000000000000682
        },
        {
          "name": "B7",
          "midi": 107,
          "time": 22.943999999999804,
          "velocity": 0.41732283464566927,
          "duration": 0.018000000000000682
        },
        {
          "name": "E5",
          "midi": 76,
          "time": 22.972999999999804,
          "velocity": 0.4251968503937008,
          "duration": 0.01799999999999713
        },
        {
          "name": "E5",
          "midi": 76,
          "time": 22.972999999999804,
          "velocity": 0.4251968503937008,
          "duration": 0.01799999999999713
        },
        {
          "name": "D5",
          "midi": 74,
          "time": 22.9829999999998,
          "velocity": 0.4409448818897638,
          "duration": 0.11600000000000321
        },
        {
          "name": "D5",
          "midi": 74,
          "time": 22.9829999999998,
          "velocity": 0.4409448818897638,
          "duration": 0.11600000000000321
        },
        {
          "name": "A4",
          "midi": 69,
          "time": 23.0029999999998,
          "velocity": 0.4330708661417323,
          "duration": 0.007999999999999119
        },
        {
          "name": "A3",
          "midi": 57,
          "time": 23.0029999999998,
          "velocity": 0.4566929133858268,
          "duration": 0.10700000000000287
        },
        {
          "name": "A4",
          "midi": 69,
          "time": 23.0029999999998,
          "velocity": 0.4330708661417323,
          "duration": 0.007999999999999119
        },
        {
          "name": "A3",
          "midi": 57,
          "time": 23.0029999999998,
          "velocity": 0.4566929133858268,
          "duration": 0.10700000000000287
        },
        {
          "name": "F#5",
          "midi": 78,
          "time": 23.0129999999998,
          "velocity": 0.4330708661417323,
          "duration": 0.007999999999999119
        },
        {
          "name": "F#5",
          "midi": 78,
          "time": 23.0129999999998,
          "velocity": 0.4330708661417323,
          "duration": 0.007999999999999119
        },
        {
          "name": "C6",
          "midi": 84,
          "time": 23.0219999999998,
          "velocity": 0.4330708661417323,
          "duration": 0.037000000000002586
        },
        {
          "name": "C6",
          "midi": 84,
          "time": 23.0219999999998,
          "velocity": 0.4330708661417323,
          "duration": 0.037000000000002586
        },
        {
          "name": "D4",
          "midi": 62,
          "time": 23.0519999999998,
          "velocity": 0.4251968503937008,
          "duration": 0.09700000000000131
        },
        {
          "name": "D4",
          "midi": 62,
          "time": 23.0519999999998,
          "velocity": 0.4251968503937008,
          "duration": 0.09700000000000131
        },
        {
          "name": "F5",
          "midi": 77,
          "time": 23.071999999999804,
          "velocity": 0.41732283464566927,
          "duration": 0.018000000000000682
        },
        {
          "name": "F5",
          "midi": 77,
          "time": 23.071999999999804,
          "velocity": 0.41732283464566927,
          "duration": 0.018000000000000682
        },
        {
          "name": "A6",
          "midi": 93,
          "time": 23.100999999999804,
          "velocity": 0.41732283464566927,
          "duration": 0.027999999999998693
        },
        {
          "name": "A6",
          "midi": 93,
          "time": 23.100999999999804,
          "velocity": 0.41732283464566927,
          "duration": 0.027999999999998693
        },
        {
          "name": "F5",
          "midi": 77,
          "time": 23.1309999999998,
          "velocity": 0.4330708661417323,
          "duration": 0.027999999999998693
        },
        {
          "name": "A3",
          "midi": 57,
          "time": 23.1309999999998,
          "velocity": 0.4645669291338583,
          "duration": 0.362999999999996
        },
        {
          "name": "F5",
          "midi": 77,
          "time": 23.1309999999998,
          "velocity": 0.4330708661417323,
          "duration": 0.027999999999998693
        },
        {
          "name": "A3",
          "midi": 57,
          "time": 23.1309999999998,
          "velocity": 0.4645669291338583,
          "duration": 0.362999999999996
        },
        {
          "name": "A6",
          "midi": 93,
          "time": 23.1509999999998,
          "velocity": 0.4330708661417323,
          "duration": 0.12599999999999767
        },
        {
          "name": "A6",
          "midi": 93,
          "time": 23.1509999999998,
          "velocity": 0.4330708661417323,
          "duration": 0.12599999999999767
        },
        {
          "name": "F7",
          "midi": 101,
          "time": 23.1609999999998,
          "velocity": 0.4330708661417323,
          "duration": 0.007999999999999119
        },
        {
          "name": "F7",
          "midi": 101,
          "time": 23.1609999999998,
          "velocity": 0.4330708661417323,
          "duration": 0.007999999999999119
        },
        {
          "name": "C6",
          "midi": 84,
          "time": 23.1699999999998,
          "velocity": 0.4330708661417323,
          "duration": 0.028000000000002245
        },
        {
          "name": "C6",
          "midi": 84,
          "time": 23.1699999999998,
          "velocity": 0.4330708661417323,
          "duration": 0.028000000000002245
        },
        {
          "name": "D4",
          "midi": 62,
          "time": 23.1799999999998,
          "velocity": 0.4330708661417323,
          "duration": 0.1459999999999937
        },
        {
          "name": "D4",
          "midi": 62,
          "time": 23.1799999999998,
          "velocity": 0.4330708661417323,
          "duration": 0.1459999999999937
        },
        {
          "name": "E5",
          "midi": 76,
          "time": 23.209999999999802,
          "velocity": 0.41732283464566927,
          "duration": 0.007999999999999119
        },
        {
          "name": "E5",
          "midi": 76,
          "time": 23.209999999999802,
          "velocity": 0.41732283464566927,
          "duration": 0.007999999999999119
        },
        {
          "name": "C6",
          "midi": 84,
          "time": 23.2299999999998,
          "velocity": 0.4094488188976378,
          "duration": 0.007999999999999119
        },
        {
          "name": "C6",
          "midi": 84,
          "time": 23.2299999999998,
          "velocity": 0.4094488188976378,
          "duration": 0.007999999999999119
        },
        {
          "name": "F6",
          "midi": 89,
          "time": 23.2489999999998,
          "velocity": 0.4094488188976378,
          "duration": 0.007999999999999119
        },
        {
          "name": "F6",
          "midi": 89,
          "time": 23.2489999999998,
          "velocity": 0.4094488188976378,
          "duration": 0.007999999999999119
        },
        {
          "name": "F6",
          "midi": 89,
          "time": 23.278999999999797,
          "velocity": 0.6299212598425197,
          "duration": 0.21499999999999986
        },
        {
          "name": "F6",
          "midi": 89,
          "time": 23.278999999999797,
          "velocity": 0.6299212598425197,
          "duration": 0.21499999999999986
        },
        {
          "name": "F7",
          "midi": 101,
          "time": 23.2889999999998,
          "velocity": 0.4251968503937008,
          "duration": 0.007999999999999119
        },
        {
          "name": "F7",
          "midi": 101,
          "time": 23.2889999999998,
          "velocity": 0.4251968503937008,
          "duration": 0.007999999999999119
        },
        {
          "name": "A6",
          "midi": 93,
          "time": 23.298999999999797,
          "velocity": 0.4330708661417323,
          "duration": 0.007999999999999119
        },
        {
          "name": "A6",
          "midi": 93,
          "time": 23.298999999999797,
          "velocity": 0.4330708661417323,
          "duration": 0.007999999999999119
        },
        {
          "name": "F7",
          "midi": 101,
          "time": 23.308999999999795,
          "velocity": 0.44881889763779526,
          "duration": 0.027999999999998693
        },
        {
          "name": "F7",
          "midi": 101,
          "time": 23.308999999999795,
          "velocity": 0.44881889763779526,
          "duration": 0.027999999999998693
        },
        {
          "name": "D6",
          "midi": 86,
          "time": 23.337999999999795,
          "velocity": 0.4645669291338583,
          "duration": 0.10699999999999932
        },
        {
          "name": "F4",
          "midi": 65,
          "time": 23.337999999999795,
          "velocity": 0.4645669291338583,
          "duration": 0.09699999999999775
        },
        {
          "name": "D6",
          "midi": 86,
          "time": 23.337999999999795,
          "velocity": 0.4645669291338583,
          "duration": 0.10699999999999932
        },
        {
          "name": "F4",
          "midi": 65,
          "time": 23.337999999999795,
          "velocity": 0.4645669291338583,
          "duration": 0.09699999999999775
        },
        {
          "name": "A6",
          "midi": 93,
          "time": 23.377999999999794,
          "velocity": 0.44881889763779526,
          "duration": 0.007999999999999119
        },
        {
          "name": "A6",
          "midi": 93,
          "time": 23.377999999999794,
          "velocity": 0.44881889763779526,
          "duration": 0.007999999999999119
        },
        {
          "name": "F#6",
          "midi": 90,
          "time": 23.396999999999792,
          "velocity": 0.48031496062992124,
          "duration": 0.007999999999999119
        },
        {
          "name": "F#6",
          "midi": 90,
          "time": 23.396999999999792,
          "velocity": 0.48031496062992124,
          "duration": 0.007999999999999119
        },
        {
          "name": "A6",
          "midi": 93,
          "time": 23.416999999999792,
          "velocity": 0.41732283464566927,
          "duration": 0.037000000000002586
        },
        {
          "name": "A6",
          "midi": 93,
          "time": 23.416999999999792,
          "velocity": 0.41732283464566927,
          "duration": 0.037000000000002586
        },
        {
          "name": "D7",
          "midi": 98,
          "time": 23.446999999999793,
          "velocity": 0.41732283464566927,
          "duration": 0.008000000000002672
        },
        {
          "name": "D7",
          "midi": 98,
          "time": 23.446999999999793,
          "velocity": 0.41732283464566927,
          "duration": 0.008000000000002672
        },
        {
          "name": "G5",
          "midi": 79,
          "time": 23.455999999999797,
          "velocity": 0.4251968503937008,
          "duration": 0.028000000000002245
        },
        {
          "name": "G5",
          "midi": 79,
          "time": 23.455999999999797,
          "velocity": 0.4251968503937008,
          "duration": 0.028000000000002245
        },
        {
          "name": "G6",
          "midi": 91,
          "time": 23.4659999999998,
          "velocity": 0.5039370078740157,
          "duration": 0.0870000000000033
        },
        {
          "name": "G6",
          "midi": 91,
          "time": 23.4659999999998,
          "velocity": 0.5039370078740157,
          "duration": 0.0870000000000033
        },
        {
          "name": "G7",
          "midi": 103,
          "time": 23.485999999999798,
          "velocity": 0.4645669291338583,
          "duration": 0.037000000000002586
        },
        {
          "name": "G7",
          "midi": 103,
          "time": 23.485999999999798,
          "velocity": 0.4645669291338583,
          "duration": 0.037000000000002586
        },
        {
          "name": "G4",
          "midi": 67,
          "time": 23.495999999999796,
          "velocity": 0.6141732283464567,
          "duration": 0.19500000000000028
        },
        {
          "name": "G4",
          "midi": 67,
          "time": 23.495999999999796,
          "velocity": 0.6141732283464567,
          "duration": 0.19500000000000028
        },
        {
          "name": "D7",
          "midi": 98,
          "time": 23.505999999999798,
          "velocity": 0.4566929133858268,
          "duration": 0.028000000000002245
        },
        {
          "name": "D7",
          "midi": 98,
          "time": 23.505999999999798,
          "velocity": 0.4566929133858268,
          "duration": 0.028000000000002245
        },
        {
          "name": "A3",
          "midi": 57,
          "time": 23.5159999999998,
          "velocity": 0.4566929133858268,
          "duration": 0.05700000000000216
        },
        {
          "name": "A3",
          "midi": 57,
          "time": 23.5159999999998,
          "velocity": 0.4566929133858268,
          "duration": 0.05700000000000216
        },
        {
          "name": "F6",
          "midi": 89,
          "time": 23.5349999999998,
          "velocity": 0.44881889763779526,
          "duration": 0.028000000000002245
        },
        {
          "name": "F6",
          "midi": 89,
          "time": 23.5349999999998,
          "velocity": 0.44881889763779526,
          "duration": 0.028000000000002245
        },
        {
          "name": "D#5",
          "midi": 75,
          "time": 23.554999999999804,
          "velocity": 0.44881889763779526,
          "duration": 0.036999999999999034
        },
        {
          "name": "D#5",
          "midi": 75,
          "time": 23.554999999999804,
          "velocity": 0.44881889763779526,
          "duration": 0.036999999999999034
        },
        {
          "name": "A6",
          "midi": 93,
          "time": 23.564999999999802,
          "velocity": 0.4645669291338583,
          "duration": 0.05700000000000216
        },
        {
          "name": "A#6",
          "midi": 94,
          "time": 23.564999999999802,
          "velocity": 0.47244094488188976,
          "duration": 0.07699999999999818
        },
        {
          "name": "A6",
          "midi": 93,
          "time": 23.564999999999802,
          "velocity": 0.4645669291338583,
          "duration": 0.05700000000000216
        },
        {
          "name": "A#6",
          "midi": 94,
          "time": 23.564999999999802,
          "velocity": 0.47244094488188976,
          "duration": 0.07699999999999818
        },
        {
          "name": "E7",
          "midi": 100,
          "time": 23.5749999999998,
          "velocity": 0.4566929133858268,
          "duration": 0.037000000000002586
        },
        {
          "name": "E7",
          "midi": 100,
          "time": 23.5749999999998,
          "velocity": 0.4566929133858268,
          "duration": 0.037000000000002586
        },
        {
          "name": "A5",
          "midi": 81,
          "time": 23.584999999999802,
          "velocity": 0.4645669291338583,
          "duration": 0.028000000000002245
        },
        {
          "name": "A5",
          "midi": 81,
          "time": 23.584999999999802,
          "velocity": 0.4645669291338583,
          "duration": 0.028000000000002245
        },
        {
          "name": "A4",
          "midi": 69,
          "time": 23.603999999999804,
          "velocity": 0.4566929133858268,
          "duration": 0.046999999999997044
        },
        {
          "name": "A4",
          "midi": 69,
          "time": 23.603999999999804,
          "velocity": 0.4566929133858268,
          "duration": 0.046999999999997044
        },
        {
          "name": "D#5",
          "midi": 75,
          "time": 23.623999999999803,
          "velocity": 0.4409448818897638,
          "duration": 0.007999999999999119
        },
        {
          "name": "A3",
          "midi": 57,
          "time": 23.623999999999803,
          "velocity": 0.5039370078740157,
          "duration": 0.5799999999999947
        },
        {
          "name": "D#5",
          "midi": 75,
          "time": 23.623999999999803,
          "velocity": 0.4409448818897638,
          "duration": 0.007999999999999119
        },
        {
          "name": "A3",
          "midi": 57,
          "time": 23.623999999999803,
          "velocity": 0.5039370078740157,
          "duration": 0.5799999999999947
        },
        {
          "name": "D#7",
          "midi": 99,
          "time": 23.6339999999998,
          "velocity": 0.44881889763779526,
          "duration": 0.027999999999998693
        },
        {
          "name": "D#7",
          "midi": 99,
          "time": 23.6339999999998,
          "velocity": 0.44881889763779526,
          "duration": 0.027999999999998693
        },
        {
          "name": "G5",
          "midi": 79,
          "time": 23.6539999999998,
          "velocity": 0.48031496062992124,
          "duration": 0.06699999999999307
        },
        {
          "name": "D7",
          "midi": 98,
          "time": 23.6539999999998,
          "velocity": 0.4566929133858268,
          "duration": 0.056999999999995055
        },
        {
          "name": "G5",
          "midi": 79,
          "time": 23.6539999999998,
          "velocity": 0.48031496062992124,
          "duration": 0.06699999999999307
        },
        {
          "name": "D7",
          "midi": 98,
          "time": 23.6539999999998,
          "velocity": 0.4566929133858268,
          "duration": 0.056999999999995055
        },
        {
          "name": "A5",
          "midi": 81,
          "time": 23.6639999999998,
          "velocity": 0.4330708661417323,
          "duration": 0.007999999999999119
        },
        {
          "name": "A5",
          "midi": 81,
          "time": 23.6639999999998,
          "velocity": 0.4330708661417323,
          "duration": 0.007999999999999119
        },
        {
          "name": "D#4",
          "midi": 63,
          "time": 23.682999999999797,
          "velocity": 0.4645669291338583,
          "duration": 0.05699999999999861
        },
        {
          "name": "D#4",
          "midi": 63,
          "time": 23.682999999999797,
          "velocity": 0.4645669291338583,
          "duration": 0.05699999999999861
        },
        {
          "name": "G5",
          "midi": 79,
          "time": 23.712999999999795,
          "velocity": 0.4566929133858268,
          "duration": 0.05700000000000216
        },
        {
          "name": "A4",
          "midi": 69,
          "time": 23.712999999999795,
          "velocity": 0.4409448818897638,
          "duration": 0.037000000000002586
        },
        {
          "name": "G5",
          "midi": 79,
          "time": 23.712999999999795,
          "velocity": 0.4566929133858268,
          "duration": 0.05700000000000216
        },
        {
          "name": "A4",
          "midi": 69,
          "time": 23.712999999999795,
          "velocity": 0.4409448818897638,
          "duration": 0.037000000000002586
        },
        {
          "name": "D#5",
          "midi": 75,
          "time": 23.722999999999793,
          "velocity": 0.44881889763779526,
          "duration": 0.04700000000000415
        },
        {
          "name": "D#5",
          "midi": 75,
          "time": 23.722999999999793,
          "velocity": 0.44881889763779526,
          "duration": 0.04700000000000415
        },
        {
          "name": "G4",
          "midi": 67,
          "time": 23.732999999999794,
          "velocity": 0.5196850393700787,
          "duration": 0.2839999999999989
        },
        {
          "name": "G4",
          "midi": 67,
          "time": 23.732999999999794,
          "velocity": 0.5196850393700787,
          "duration": 0.2839999999999989
        },
        {
          "name": "A6",
          "midi": 93,
          "time": 23.751999999999796,
          "velocity": 0.4566929133858268,
          "duration": 0.06700000000000017
        },
        {
          "name": "A6",
          "midi": 93,
          "time": 23.751999999999796,
          "velocity": 0.4566929133858268,
          "duration": 0.06700000000000017
        },
        {
          "name": "A5",
          "midi": 81,
          "time": 23.761999999999798,
          "velocity": 0.4409448818897638,
          "duration": 0.018000000000000682
        },
        {
          "name": "A5",
          "midi": 81,
          "time": 23.761999999999798,
          "velocity": 0.4409448818897638,
          "duration": 0.018000000000000682
        },
        {
          "name": "E7",
          "midi": 100,
          "time": 23.781999999999798,
          "velocity": 0.44881889763779526,
          "duration": 0.007999999999999119
        },
        {
          "name": "A4",
          "midi": 69,
          "time": 23.781999999999798,
          "velocity": 0.44881889763779526,
          "duration": 0.05699999999999861
        },
        {
          "name": "E7",
          "midi": 100,
          "time": 23.781999999999798,
          "velocity": 0.44881889763779526,
          "duration": 0.007999999999999119
        },
        {
          "name": "A4",
          "midi": 69,
          "time": 23.781999999999798,
          "velocity": 0.44881889763779526,
          "duration": 0.05699999999999861
        },
        {
          "name": "A#6",
          "midi": 94,
          "time": 23.791999999999796,
          "velocity": 0.4645669291338583,
          "duration": 0.037000000000002586
        },
        {
          "name": "A#6",
          "midi": 94,
          "time": 23.791999999999796,
          "velocity": 0.4645669291338583,
          "duration": 0.037000000000002586
        },
        {
          "name": "D#5",
          "midi": 75,
          "time": 23.801999999999797,
          "velocity": 0.4566929133858268,
          "duration": 0.05699999999999861
        },
        {
          "name": "D#5",
          "midi": 75,
          "time": 23.801999999999797,
          "velocity": 0.4566929133858268,
          "duration": 0.05699999999999861
        },
        {
          "name": "D7",
          "midi": 98,
          "time": 23.830999999999797,
          "velocity": 0.4881889763779528,
          "duration": 0.08699999999999619
        },
        {
          "name": "D7",
          "midi": 98,
          "time": 23.830999999999797,
          "velocity": 0.4881889763779528,
          "duration": 0.08699999999999619
        },
        {
          "name": "G5",
          "midi": 79,
          "time": 23.840999999999795,
          "velocity": 0.5039370078740157,
          "duration": 0.39300000000000423
        },
        {
          "name": "G5",
          "midi": 79,
          "time": 23.840999999999795,
          "velocity": 0.5039370078740157,
          "duration": 0.39300000000000423
        },
        {
          "name": "G6",
          "midi": 91,
          "time": 23.850999999999797,
          "velocity": 0.4645669291338583,
          "duration": 0.05699999999999861
        },
        {
          "name": "G6",
          "midi": 91,
          "time": 23.850999999999797,
          "velocity": 0.4645669291338583,
          "duration": 0.05699999999999861
        },
        {
          "name": "G7",
          "midi": 103,
          "time": 23.870999999999796,
          "velocity": 0.4645669291338583,
          "duration": 0.007999999999999119
        },
        {
          "name": "G7",
          "midi": 103,
          "time": 23.870999999999796,
          "velocity": 0.4645669291338583,
          "duration": 0.007999999999999119
        },
        {
          "name": "C#5",
          "midi": 73,
          "time": 23.889999999999795,
          "velocity": 0.4409448818897638,
          "duration": 0.007999999999999119
        },
        {
          "name": "C#5",
          "midi": 73,
          "time": 23.889999999999795,
          "velocity": 0.4409448818897638,
          "duration": 0.007999999999999119
        },
        {
          "name": "A4",
          "midi": 69,
          "time": 23.909999999999794,
          "velocity": 0.4645669291338583,
          "duration": 0.11599999999999966
        },
        {
          "name": "A4",
          "midi": 69,
          "time": 23.909999999999794,
          "velocity": 0.4645669291338583,
          "duration": 0.11599999999999966
        },
        {
          "name": "A6",
          "midi": 93,
          "time": 23.919999999999792,
          "velocity": 0.4645669291338583,
          "duration": 0.037000000000002586
        },
        {
          "name": "A6",
          "midi": 93,
          "time": 23.919999999999792,
          "velocity": 0.4645669291338583,
          "duration": 0.037000000000002586
        },
        {
          "name": "E7",
          "midi": 100,
          "time": 23.929999999999794,
          "velocity": 0.4409448818897638,
          "duration": 0.018000000000000682
        },
        {
          "name": "E7",
          "midi": 100,
          "time": 23.929999999999794,
          "velocity": 0.4409448818897638,
          "duration": 0.018000000000000682
        },
        {
          "name": "A#6",
          "midi": 94,
          "time": 23.959999999999795,
          "velocity": 0.44881889763779526,
          "duration": 0.036999999999999034
        },
        {
          "name": "A#6",
          "midi": 94,
          "time": 23.959999999999795,
          "velocity": 0.44881889763779526,
          "duration": 0.036999999999999034
        },
        {
          "name": "E5",
          "midi": 76,
          "time": 23.978999999999793,
          "velocity": 0.4251968503937008,
          "duration": 0.018000000000000682
        },
        {
          "name": "E5",
          "midi": 76,
          "time": 23.978999999999793,
          "velocity": 0.4251968503937008,
          "duration": 0.018000000000000682
        },
        {
          "name": "G6",
          "midi": 91,
          "time": 24.008999999999794,
          "velocity": 0.4566929133858268,
          "duration": 0.036999999999999034
        },
        {
          "name": "D7",
          "midi": 98,
          "time": 24.008999999999794,
          "velocity": 0.48031496062992124,
          "duration": 0.06700000000000017
        },
        {
          "name": "G6",
          "midi": 91,
          "time": 24.008999999999794,
          "velocity": 0.4566929133858268,
          "duration": 0.036999999999999034
        },
        {
          "name": "D7",
          "midi": 98,
          "time": 24.008999999999794,
          "velocity": 0.48031496062992124,
          "duration": 0.06700000000000017
        },
        {
          "name": "G#6",
          "midi": 92,
          "time": 24.028999999999794,
          "velocity": 0.44881889763779526,
          "duration": 0.007999999999999119
        },
        {
          "name": "G#6",
          "midi": 92,
          "time": 24.028999999999794,
          "velocity": 0.44881889763779526,
          "duration": 0.007999999999999119
        },
        {
          "name": "A4",
          "midi": 69,
          "time": 24.047999999999792,
          "velocity": 0.47244094488188976,
          "duration": 0.0470000000000006
        },
        {
          "name": "D#5",
          "midi": 75,
          "time": 24.047999999999792,
          "velocity": 0.49606299212598426,
          "duration": 0.11600000000000321
        },
        {
          "name": "A4",
          "midi": 69,
          "time": 24.047999999999792,
          "velocity": 0.47244094488188976,
          "duration": 0.0470000000000006
        },
        {
          "name": "D#5",
          "midi": 75,
          "time": 24.047999999999792,
          "velocity": 0.49606299212598426,
          "duration": 0.11600000000000321
        },
        {
          "name": "G4",
          "midi": 67,
          "time": 24.057999999999794,
          "velocity": 0.5275590551181102,
          "duration": 0.11600000000000321
        },
        {
          "name": "G4",
          "midi": 67,
          "time": 24.057999999999794,
          "velocity": 0.5275590551181102,
          "duration": 0.11600000000000321
        },
        {
          "name": "A6",
          "midi": 93,
          "time": 24.097999999999793,
          "velocity": 0.47244094488188976,
          "duration": 0.018000000000000682
        },
        {
          "name": "A6",
          "midi": 93,
          "time": 24.097999999999793,
          "velocity": 0.47244094488188976,
          "duration": 0.018000000000000682
        },
        {
          "name": "A4",
          "midi": 69,
          "time": 24.116999999999795,
          "velocity": 0.5118110236220472,
          "duration": 0.19500000000000384
        },
        {
          "name": "A4",
          "midi": 69,
          "time": 24.116999999999795,
          "velocity": 0.5118110236220472,
          "duration": 0.19500000000000384
        },
        {
          "name": "A#6",
          "midi": 94,
          "time": 24.126999999999796,
          "velocity": 0.47244094488188976,
          "duration": 0.027999999999998693
        },
        {
          "name": "A#6",
          "midi": 94,
          "time": 24.126999999999796,
          "velocity": 0.47244094488188976,
          "duration": 0.027999999999998693
        },
        {
          "name": "D7",
          "midi": 98,
          "time": 24.166999999999796,
          "velocity": 0.4881889763779528,
          "duration": 0.018000000000000682
        },
        {
          "name": "D7",
          "midi": 98,
          "time": 24.166999999999796,
          "velocity": 0.4881889763779528,
          "duration": 0.018000000000000682
        },
        {
          "name": "D#4",
          "midi": 63,
          "time": 24.176999999999797,
          "velocity": 0.48031496062992124,
          "duration": 0.04700000000000415
        },
        {
          "name": "D#4",
          "midi": 63,
          "time": 24.176999999999797,
          "velocity": 0.48031496062992124,
          "duration": 0.04700000000000415
        },
        {
          "name": "G6",
          "midi": 91,
          "time": 24.185999999999797,
          "velocity": 0.48031496062992124,
          "duration": 0.028000000000002245
        },
        {
          "name": "G6",
          "midi": 91,
          "time": 24.185999999999797,
          "velocity": 0.48031496062992124,
          "duration": 0.028000000000002245
        },
        {
          "name": "G4",
          "midi": 67,
          "time": 24.1959999999998,
          "velocity": 0.5354330708661418,
          "duration": 0.3140000000000107
        },
        {
          "name": "G4",
          "midi": 67,
          "time": 24.1959999999998,
          "velocity": 0.5354330708661418,
          "duration": 0.3140000000000107
        },
        {
          "name": "D#7",
          "midi": 99,
          "time": 24.2259999999998,
          "velocity": 0.4881889763779528,
          "duration": 0.02799999999999514
        },
        {
          "name": "G5",
          "midi": 79,
          "time": 24.2259999999998,
          "velocity": 0.4566929133858268,
          "duration": 0.007999999999999119
        },
        {
          "name": "D#7",
          "midi": 99,
          "time": 24.2259999999998,
          "velocity": 0.4881889763779528,
          "duration": 0.02799999999999514
        },
        {
          "name": "G5",
          "midi": 79,
          "time": 24.2259999999998,
          "velocity": 0.4566929133858268,
          "duration": 0.007999999999999119
        },
        {
          "name": "D7",
          "midi": 98,
          "time": 24.235999999999798,
          "velocity": 0.4645669291338583,
          "duration": 0.007999999999999119
        },
        {
          "name": "D7",
          "midi": 98,
          "time": 24.235999999999798,
          "velocity": 0.4645669291338583,
          "duration": 0.007999999999999119
        },
        {
          "name": "A5",
          "midi": 81,
          "time": 24.245999999999796,
          "velocity": 0.47244094488188976,
          "duration": 0.0470000000000006
        },
        {
          "name": "A6",
          "midi": 93,
          "time": 24.245999999999796,
          "velocity": 0.5039370078740157,
          "duration": 0.0470000000000006
        },
        {
          "name": "A5",
          "midi": 81,
          "time": 24.245999999999796,
          "velocity": 0.47244094488188976,
          "duration": 0.0470000000000006
        },
        {
          "name": "A6",
          "midi": 93,
          "time": 24.245999999999796,
          "velocity": 0.5039370078740157,
          "duration": 0.0470000000000006
        },
        {
          "name": "E7",
          "midi": 100,
          "time": 24.254999999999797,
          "velocity": 0.49606299212598426,
          "duration": 0.0470000000000006
        },
        {
          "name": "E7",
          "midi": 100,
          "time": 24.254999999999797,
          "velocity": 0.49606299212598426,
          "duration": 0.0470000000000006
        },
        {
          "name": "G5",
          "midi": 79,
          "time": 24.264999999999798,
          "velocity": 0.4645669291338583,
          "duration": 0.007999999999999119
        },
        {
          "name": "G5",
          "midi": 79,
          "time": 24.264999999999798,
          "velocity": 0.4645669291338583,
          "duration": 0.007999999999999119
        },
        {
          "name": "D#5",
          "midi": 75,
          "time": 24.294999999999796,
          "velocity": 0.4566929133858268,
          "duration": 0.028000000000002245
        },
        {
          "name": "D#5",
          "midi": 75,
          "time": 24.294999999999796,
          "velocity": 0.4566929133858268,
          "duration": 0.028000000000002245
        },
        {
          "name": "G#6",
          "midi": 92,
          "time": 24.304999999999797,
          "velocity": 0.48031496062992124,
          "duration": 0.028000000000002245
        },
        {
          "name": "A#6",
          "midi": 94,
          "time": 24.304999999999797,
          "velocity": 0.47244094488188976,
          "duration": 0.018000000000000682
        },
        {
          "name": "G#6",
          "midi": 92,
          "time": 24.304999999999797,
          "velocity": 0.48031496062992124,
          "duration": 0.028000000000002245
        },
        {
          "name": "A#6",
          "midi": 94,
          "time": 24.304999999999797,
          "velocity": 0.47244094488188976,
          "duration": 0.018000000000000682
        },
        {
          "name": "A3",
          "midi": 57,
          "time": 24.3149999999998,
          "velocity": 0.4566929133858268,
          "duration": 0.018000000000000682
        },
        {
          "name": "A3",
          "midi": 57,
          "time": 24.3149999999998,
          "velocity": 0.4566929133858268,
          "duration": 0.018000000000000682
        },
        {
          "name": "D#4",
          "midi": 63,
          "time": 24.3239999999998,
          "velocity": 0.49606299212598426,
          "duration": 0.06700000000000372
        },
        {
          "name": "D#4",
          "midi": 63,
          "time": 24.3239999999998,
          "velocity": 0.49606299212598426,
          "duration": 0.06700000000000372
        },
        {
          "name": "A4",
          "midi": 69,
          "time": 24.3339999999998,
          "velocity": 0.47244094488188976,
          "duration": 0.018000000000000682
        },
        {
          "name": "D7",
          "midi": 98,
          "time": 24.3339999999998,
          "velocity": 0.5433070866141733,
          "duration": 0.06700000000000372
        },
        {
          "name": "A4",
          "midi": 69,
          "time": 24.3339999999998,
          "velocity": 0.47244094488188976,
          "duration": 0.018000000000000682
        },
        {
          "name": "D7",
          "midi": 98,
          "time": 24.3339999999998,
          "velocity": 0.5433070866141733,
          "duration": 0.06700000000000372
        },
        {
          "name": "G7",
          "midi": 103,
          "time": 24.343999999999802,
          "velocity": 0.4881889763779528,
          "duration": 0.036999999999999034
        },
        {
          "name": "G5",
          "midi": 79,
          "time": 24.343999999999802,
          "velocity": 0.5118110236220472,
          "duration": 0.11600000000000321
        },
        {
          "name": "G7",
          "midi": 103,
          "time": 24.343999999999802,
          "velocity": 0.4881889763779528,
          "duration": 0.036999999999999034
        },
        {
          "name": "G5",
          "midi": 79,
          "time": 24.343999999999802,
          "velocity": 0.5118110236220472,
          "duration": 0.11600000000000321
        },
        {
          "name": "G6",
          "midi": 91,
          "time": 24.363999999999802,
          "velocity": 0.4881889763779528,
          "duration": 0.037000000000002586
        },
        {
          "name": "G6",
          "midi": 91,
          "time": 24.363999999999802,
          "velocity": 0.4881889763779528,
          "duration": 0.037000000000002586
        },
        {
          "name": "D#7",
          "midi": 99,
          "time": 24.402999999999803,
          "velocity": 0.4645669291338583,
          "duration": 0.018000000000000682
        },
        {
          "name": "D#7",
          "midi": 99,
          "time": 24.402999999999803,
          "velocity": 0.4645669291338583,
          "duration": 0.018000000000000682
        },
        {
          "name": "A6",
          "midi": 93,
          "time": 24.412999999999805,
          "velocity": 0.5118110236220472,
          "duration": 0.0470000000000006
        },
        {
          "name": "A5",
          "midi": 81,
          "time": 24.412999999999805,
          "velocity": 0.5039370078740157,
          "duration": 0.06700000000000017
        },
        {
          "name": "A4",
          "midi": 69,
          "time": 24.412999999999805,
          "velocity": 0.48031496062992124,
          "duration": 0.1460000000000079
        },
        {
          "name": "A6",
          "midi": 93,
          "time": 24.412999999999805,
          "velocity": 0.5118110236220472,
          "duration": 0.0470000000000006
        },
        {
          "name": "A5",
          "midi": 81,
          "time": 24.412999999999805,
          "velocity": 0.5039370078740157,
          "duration": 0.06700000000000017
        },
        {
          "name": "A4",
          "midi": 69,
          "time": 24.412999999999805,
          "velocity": 0.48031496062992124,
          "duration": 0.1460000000000079
        },
        {
          "name": "E7",
          "midi": 100,
          "time": 24.432999999999804,
          "velocity": 0.5275590551181102,
          "duration": 0.05700000000000216
        },
        {
          "name": "E7",
          "midi": 100,
          "time": 24.432999999999804,
          "velocity": 0.5275590551181102,
          "duration": 0.05700000000000216
        },
        {
          "name": "A#6",
          "midi": 94,
          "time": 24.471999999999806,
          "velocity": 0.48031496062992124,
          "duration": 0.037000000000002586
        },
        {
          "name": "G#6",
          "midi": 92,
          "time": 24.471999999999806,
          "velocity": 0.4645669291338583,
          "duration": 0.018000000000000682
        },
        {
          "name": "A#6",
          "midi": 94,
          "time": 24.471999999999806,
          "velocity": 0.48031496062992124,
          "duration": 0.037000000000002586
        },
        {
          "name": "G#6",
          "midi": 92,
          "time": 24.471999999999806,
          "velocity": 0.4645669291338583,
          "duration": 0.018000000000000682
        },
        {
          "name": "D7",
          "midi": 98,
          "time": 24.491999999999805,
          "velocity": 0.5354330708661418,
          "duration": 0.09700000000000486
        },
        {
          "name": "D7",
          "midi": 98,
          "time": 24.491999999999805,
          "velocity": 0.5354330708661418,
          "duration": 0.09700000000000486
        },
        {
          "name": "G5",
          "midi": 79,
          "time": 24.501999999999807,
          "velocity": 0.5433070866141733,
          "duration": 0.18599999999999994
        },
        {
          "name": "D#5",
          "midi": 75,
          "time": 24.501999999999807,
          "velocity": 0.48031496062992124,
          "duration": 0.04700000000000415
        },
        {
          "name": "G5",
          "midi": 79,
          "time": 24.501999999999807,
          "velocity": 0.5433070866141733,
          "duration": 0.18599999999999994
        },
        {
          "name": "D#5",
          "midi": 75,
          "time": 24.501999999999807,
          "velocity": 0.48031496062992124,
          "duration": 0.04700000000000415
        },
        {
          "name": "G6",
          "midi": 91,
          "time": 24.52199999999981,
          "velocity": 0.49606299212598426,
          "duration": 0.0470000000000006
        },
        {
          "name": "G6",
          "midi": 91,
          "time": 24.52199999999981,
          "velocity": 0.49606299212598426,
          "duration": 0.0470000000000006
        },
        {
          "name": "A3",
          "midi": 57,
          "time": 24.53199999999981,
          "velocity": 0.5748031496062992,
          "duration": 0.7480000000000047
        },
        {
          "name": "A3",
          "midi": 57,
          "time": 24.53199999999981,
          "velocity": 0.5748031496062992,
          "duration": 0.7480000000000047
        },
        {
          "name": "D#4",
          "midi": 63,
          "time": 24.56099999999981,
          "velocity": 0.4566929133858268,
          "duration": 0.007999999999999119
        },
        {
          "name": "D#4",
          "midi": 63,
          "time": 24.56099999999981,
          "velocity": 0.4566929133858268,
          "duration": 0.007999999999999119
        },
        {
          "name": "A6",
          "midi": 93,
          "time": 24.58099999999981,
          "velocity": 0.49606299212598426,
          "duration": 0.01799999999999713
        },
        {
          "name": "A7",
          "midi": 105,
          "time": 24.58099999999981,
          "velocity": 0.4881889763779528,
          "duration": 0.036999999999999034
        },
        {
          "name": "A6",
          "midi": 93,
          "time": 24.58099999999981,
          "velocity": 0.49606299212598426,
          "duration": 0.01799999999999713
        },
        {
          "name": "A7",
          "midi": 105,
          "time": 24.58099999999981,
          "velocity": 0.4881889763779528,
          "duration": 0.036999999999999034
        },
        {
          "name": "E7",
          "midi": 100,
          "time": 24.59099999999981,
          "velocity": 0.5039370078740157,
          "duration": 0.037000000000002586
        },
        {
          "name": "E7",
          "midi": 100,
          "time": 24.59099999999981,
          "velocity": 0.5039370078740157,
          "duration": 0.037000000000002586
        },
        {
          "name": "A4",
          "midi": 69,
          "time": 24.600999999999807,
          "velocity": 0.5511811023622047,
          "duration": 0.04700000000000415
        },
        {
          "name": "A4",
          "midi": 69,
          "time": 24.600999999999807,
          "velocity": 0.5511811023622047,
          "duration": 0.04700000000000415
        },
        {
          "name": "D#5",
          "midi": 75,
          "time": 24.61099999999981,
          "velocity": 0.5039370078740157,
          "duration": 0.037000000000002586
        },
        {
          "name": "D#5",
          "midi": 75,
          "time": 24.61099999999981,
          "velocity": 0.5039370078740157,
          "duration": 0.037000000000002586
        },
        {
          "name": "A#6",
          "midi": 94,
          "time": 24.639999999999812,
          "velocity": 0.48031496062992124,
          "duration": 0.02799999999999514
        },
        {
          "name": "A#6",
          "midi": 94,
          "time": 24.639999999999812,
          "velocity": 0.48031496062992124,
          "duration": 0.02799999999999514
        },
        {
          "name": "G4",
          "midi": 67,
          "time": 24.64999999999981,
          "velocity": 0.4645669291338583,
          "duration": 0.007999999999999119
        },
        {
          "name": "G4",
          "midi": 67,
          "time": 24.64999999999981,
          "velocity": 0.4645669291338583,
          "duration": 0.007999999999999119
        },
        {
          "name": "C#5",
          "midi": 73,
          "time": 24.65999999999981,
          "velocity": 0.4645669291338583,
          "duration": 0.007999999999999119
        },
        {
          "name": "G7",
          "midi": 103,
          "time": 24.65999999999981,
          "velocity": 0.48031496062992124,
          "duration": 0.027999999999998693
        },
        {
          "name": "C#5",
          "midi": 73,
          "time": 24.65999999999981,
          "velocity": 0.4645669291338583,
          "duration": 0.007999999999999119
        },
        {
          "name": "G7",
          "midi": 103,
          "time": 24.65999999999981,
          "velocity": 0.48031496062992124,
          "duration": 0.027999999999998693
        },
        {
          "name": "D7",
          "midi": 98,
          "time": 24.669999999999806,
          "velocity": 0.4881889763779528,
          "duration": 0.06700000000000017
        },
        {
          "name": "D7",
          "midi": 98,
          "time": 24.669999999999806,
          "velocity": 0.4881889763779528,
          "duration": 0.06700000000000017
        },
        {
          "name": "A5",
          "midi": 81,
          "time": 24.679999999999808,
          "velocity": 0.4881889763779528,
          "duration": 0.08699999999999974
        },
        {
          "name": "G5",
          "midi": 79,
          "time": 24.679999999999808,
          "velocity": 0.5039370078740157,
          "duration": 0.10600000000000165
        },
        {
          "name": "A5",
          "midi": 81,
          "time": 24.679999999999808,
          "velocity": 0.4881889763779528,
          "duration": 0.08699999999999974
        },
        {
          "name": "G5",
          "midi": 79,
          "time": 24.679999999999808,
          "velocity": 0.5039370078740157,
          "duration": 0.10600000000000165
        },
        {
          "name": "A4",
          "midi": 69,
          "time": 24.698999999999806,
          "velocity": 0.5118110236220472,
          "duration": 0.12600000000000477
        },
        {
          "name": "G4",
          "midi": 67,
          "time": 24.698999999999806,
          "velocity": 0.5118110236220472,
          "duration": 0.15600000000000236
        },
        {
          "name": "A4",
          "midi": 69,
          "time": 24.698999999999806,
          "velocity": 0.5118110236220472,
          "duration": 0.12600000000000477
        },
        {
          "name": "G4",
          "midi": 67,
          "time": 24.698999999999806,
          "velocity": 0.5118110236220472,
          "duration": 0.15600000000000236
        },
        {
          "name": "A6",
          "midi": 93,
          "time": 24.748999999999807,
          "velocity": 0.49606299212598426,
          "duration": 0.028000000000002245
        },
        {
          "name": "A6",
          "midi": 93,
          "time": 24.748999999999807,
          "velocity": 0.49606299212598426,
          "duration": 0.028000000000002245
        },
        {
          "name": "G6",
          "midi": 91,
          "time": 24.77799999999981,
          "velocity": 0.48031496062992124,
          "duration": 0.027999999999998693
        },
        {
          "name": "G6",
          "midi": 91,
          "time": 24.77799999999981,
          "velocity": 0.48031496062992124,
          "duration": 0.027999999999998693
        },
        {
          "name": "D#5",
          "midi": 75,
          "time": 24.78799999999981,
          "velocity": 0.49606299212598426,
          "duration": 0.05700000000000216
        },
        {
          "name": "D#5",
          "midi": 75,
          "time": 24.78799999999981,
          "velocity": 0.49606299212598426,
          "duration": 0.05700000000000216
        },
        {
          "name": "A#6",
          "midi": 94,
          "time": 24.79799999999981,
          "velocity": 0.5196850393700787,
          "duration": 0.028000000000002245
        },
        {
          "name": "A#6",
          "midi": 94,
          "time": 24.79799999999981,
          "velocity": 0.5196850393700787,
          "duration": 0.028000000000002245
        },
        {
          "name": "G5",
          "midi": 79,
          "time": 24.81799999999981,
          "velocity": 0.49606299212598426,
          "duration": 0.046999999999997044
        },
        {
          "name": "G5",
          "midi": 79,
          "time": 24.81799999999981,
          "velocity": 0.49606299212598426,
          "duration": 0.046999999999997044
        },
        {
          "name": "F6",
          "midi": 89,
          "time": 24.83699999999981,
          "velocity": 0.5275590551181102,
          "duration": 0.03699999999999548
        },
        {
          "name": "F6",
          "midi": 89,
          "time": 24.83699999999981,
          "velocity": 0.5275590551181102,
          "duration": 0.03699999999999548
        },
        {
          "name": "F5",
          "midi": 77,
          "time": 24.84699999999981,
          "velocity": 0.48031496062992124,
          "duration": 0.007999999999999119
        },
        {
          "name": "F5",
          "midi": 77,
          "time": 24.84699999999981,
          "velocity": 0.48031496062992124,
          "duration": 0.007999999999999119
        },
        {
          "name": "F4",
          "midi": 65,
          "time": 24.856999999999807,
          "velocity": 0.5039370078740157,
          "duration": 0.0470000000000006
        },
        {
          "name": "F4",
          "midi": 65,
          "time": 24.856999999999807,
          "velocity": 0.5039370078740157,
          "duration": 0.0470000000000006
        },
        {
          "name": "A5",
          "midi": 81,
          "time": 24.866999999999805,
          "velocity": 0.4881889763779528,
          "duration": 0.008000000000002672
        },
        {
          "name": "D7",
          "midi": 98,
          "time": 24.866999999999805,
          "velocity": 0.5354330708661418,
          "duration": 0.037000000000002586
        },
        {
          "name": "A5",
          "midi": 81,
          "time": 24.866999999999805,
          "velocity": 0.4881889763779528,
          "duration": 0.008000000000002672
        },
        {
          "name": "D7",
          "midi": 98,
          "time": 24.866999999999805,
          "velocity": 0.5354330708661418,
          "duration": 0.037000000000002586
        },
        {
          "name": "D#5",
          "midi": 75,
          "time": 24.88699999999981,
          "velocity": 0.48031496062992124,
          "duration": 0.05700000000000216
        },
        {
          "name": "G6",
          "midi": 91,
          "time": 24.88699999999981,
          "velocity": 0.47244094488188976,
          "duration": 0.007999999999999119
        },
        {
          "name": "D#5",
          "midi": 75,
          "time": 24.88699999999981,
          "velocity": 0.48031496062992124,
          "duration": 0.05700000000000216
        },
        {
          "name": "G6",
          "midi": 91,
          "time": 24.88699999999981,
          "velocity": 0.47244094488188976,
          "duration": 0.007999999999999119
        },
        {
          "name": "G5",
          "midi": 79,
          "time": 24.896999999999807,
          "velocity": 0.4881889763779528,
          "duration": 0.06700000000000372
        },
        {
          "name": "G5",
          "midi": 79,
          "time": 24.896999999999807,
          "velocity": 0.4881889763779528,
          "duration": 0.06700000000000372
        },
        {
          "name": "F5",
          "midi": 77,
          "time": 24.91599999999981,
          "velocity": 0.5511811023622047,
          "duration": 0.1559999999999988
        },
        {
          "name": "D5",
          "midi": 74,
          "time": 24.91599999999981,
          "velocity": 0.48031496062992124,
          "duration": 0.23499999999999943
        },
        {
          "name": "F5",
          "midi": 77,
          "time": 24.91599999999981,
          "velocity": 0.5511811023622047,
          "duration": 0.1559999999999988
        },
        {
          "name": "D5",
          "midi": 74,
          "time": 24.91599999999981,
          "velocity": 0.48031496062992124,
          "duration": 0.23499999999999943
        },
        {
          "name": "C7",
          "midi": 96,
          "time": 24.92599999999981,
          "velocity": 0.5039370078740157,
          "duration": 0.07699999999999818
        },
        {
          "name": "C7",
          "midi": 96,
          "time": 24.92599999999981,
          "velocity": 0.5039370078740157,
          "duration": 0.07699999999999818
        },
        {
          "name": "F4",
          "midi": 65,
          "time": 24.95599999999981,
          "velocity": 0.44881889763779526,
          "duration": 0.027999999999998693
        },
        {
          "name": "F4",
          "midi": 65,
          "time": 24.95599999999981,
          "velocity": 0.44881889763779526,
          "duration": 0.027999999999998693
        },
        {
          "name": "E5",
          "midi": 76,
          "time": 24.98499999999981,
          "velocity": 0.4409448818897638,
          "duration": 0.007999999999999119
        },
        {
          "name": "E5",
          "midi": 76,
          "time": 24.98499999999981,
          "velocity": 0.4409448818897638,
          "duration": 0.007999999999999119
        },
        {
          "name": "D4",
          "midi": 62,
          "time": 24.99499999999981,
          "velocity": 0.4645669291338583,
          "duration": 0.09699999999999775
        },
        {
          "name": "D4",
          "midi": 62,
          "time": 24.99499999999981,
          "velocity": 0.4645669291338583,
          "duration": 0.09699999999999775
        },
        {
          "name": "A6",
          "midi": 93,
          "time": 25.01499999999981,
          "velocity": 0.5039370078740157,
          "duration": 0.05699999999999861
        },
        {
          "name": "F4",
          "midi": 65,
          "time": 25.01499999999981,
          "velocity": 0.5196850393700787,
          "duration": 0.40200000000001523
        },
        {
          "name": "A6",
          "midi": 93,
          "time": 25.01499999999981,
          "velocity": 0.5039370078740157,
          "duration": 0.05699999999999861
        },
        {
          "name": "F4",
          "midi": 65,
          "time": 25.01499999999981,
          "velocity": 0.5196850393700787,
          "duration": 0.40200000000001523
        },
        {
          "name": "A4",
          "midi": 69,
          "time": 25.083999999999808,
          "velocity": 0.47244094488188976,
          "duration": 0.036999999999999034
        },
        {
          "name": "C6",
          "midi": 84,
          "time": 25.083999999999808,
          "velocity": 0.4645669291338583,
          "duration": 0.027999999999998693
        },
        {
          "name": "A4",
          "midi": 69,
          "time": 25.083999999999808,
          "velocity": 0.47244094488188976,
          "duration": 0.036999999999999034
        },
        {
          "name": "C6",
          "midi": 84,
          "time": 25.083999999999808,
          "velocity": 0.4645669291338583,
          "duration": 0.027999999999998693
        },
        {
          "name": "A6",
          "midi": 93,
          "time": 25.103999999999807,
          "velocity": 0.47244094488188976,
          "duration": 0.06700000000000372
        },
        {
          "name": "A6",
          "midi": 93,
          "time": 25.103999999999807,
          "velocity": 0.47244094488188976,
          "duration": 0.06700000000000372
        },
        {
          "name": "D6",
          "midi": 86,
          "time": 25.122999999999806,
          "velocity": 0.4566929133858268,
          "duration": 0.028000000000002245
        },
        {
          "name": "D6",
          "midi": 86,
          "time": 25.122999999999806,
          "velocity": 0.4566929133858268,
          "duration": 0.028000000000002245
        },
        {
          "name": "E6",
          "midi": 88,
          "time": 25.132999999999807,
          "velocity": 0.4566929133858268,
          "duration": 0.037000000000002586
        },
        {
          "name": "E6",
          "midi": 88,
          "time": 25.132999999999807,
          "velocity": 0.4566929133858268,
          "duration": 0.037000000000002586
        },
        {
          "name": "D4",
          "midi": 62,
          "time": 25.16299999999981,
          "velocity": 0.48031496062992124,
          "duration": 0.3040000000000127
        },
        {
          "name": "D4",
          "midi": 62,
          "time": 25.16299999999981,
          "velocity": 0.48031496062992124,
          "duration": 0.3040000000000127
        },
        {
          "name": "A4",
          "midi": 69,
          "time": 25.17299999999981,
          "velocity": 0.48031496062992124,
          "duration": 0.13600000000000279
        },
        {
          "name": "A4",
          "midi": 69,
          "time": 25.17299999999981,
          "velocity": 0.48031496062992124,
          "duration": 0.13600000000000279
        },
        {
          "name": "A5",
          "midi": 81,
          "time": 25.18299999999981,
          "velocity": 0.48031496062992124,
          "duration": 0.05700000000000216
        },
        {
          "name": "A5",
          "midi": 81,
          "time": 25.18299999999981,
          "velocity": 0.48031496062992124,
          "duration": 0.05700000000000216
        },
        {
          "name": "G6",
          "midi": 91,
          "time": 25.192999999999813,
          "velocity": 0.4566929133858268,
          "duration": 0.018000000000000682
        },
        {
          "name": "G6",
          "midi": 91,
          "time": 25.192999999999813,
          "velocity": 0.4566929133858268,
          "duration": 0.018000000000000682
        },
        {
          "name": "A6",
          "midi": 93,
          "time": 25.221999999999813,
          "velocity": 0.4645669291338583,
          "duration": 0.018000000000000682
        },
        {
          "name": "A6",
          "midi": 93,
          "time": 25.221999999999813,
          "velocity": 0.4645669291338583,
          "duration": 0.018000000000000682
        },
        {
          "name": "C6",
          "midi": 84,
          "time": 25.251999999999814,
          "velocity": 0.4566929133858268,
          "duration": 0.037000000000002586
        },
        {
          "name": "C6",
          "midi": 84,
          "time": 25.251999999999814,
          "velocity": 0.4566929133858268,
          "duration": 0.037000000000002586
        },
        {
          "name": "F6",
          "midi": 89,
          "time": 25.261999999999816,
          "velocity": 0.4330708661417323,
          "duration": 0.036999999999999034
        },
        {
          "name": "F6",
          "midi": 89,
          "time": 25.261999999999816,
          "velocity": 0.4330708661417323,
          "duration": 0.036999999999999034
        },
        {
          "name": "G#3",
          "midi": 56,
          "time": 25.290999999999816,
          "velocity": 0.4645669291338583,
          "duration": 0.036999999999999034
        },
        {
          "name": "G#3",
          "midi": 56,
          "time": 25.290999999999816,
          "velocity": 0.4645669291338583,
          "duration": 0.036999999999999034
        },
        {
          "name": "A3",
          "midi": 57,
          "time": 25.300999999999814,
          "velocity": 0.4251968503937008,
          "duration": 0.007999999999999119
        },
        {
          "name": "A3",
          "midi": 57,
          "time": 25.300999999999814,
          "velocity": 0.4251968503937008,
          "duration": 0.007999999999999119
        },
        {
          "name": "E5",
          "midi": 76,
          "time": 25.31099999999981,
          "velocity": 0.4330708661417323,
          "duration": 0.018000000000004235
        },
        {
          "name": "E5",
          "midi": 76,
          "time": 25.31099999999981,
          "velocity": 0.4330708661417323,
          "duration": 0.018000000000004235
        },
        {
          "name": "C6",
          "midi": 84,
          "time": 25.320999999999813,
          "velocity": 0.4330708661417323,
          "duration": 0.018000000000004235
        },
        {
          "name": "C6",
          "midi": 84,
          "time": 25.320999999999813,
          "velocity": 0.4330708661417323,
          "duration": 0.018000000000004235
        },
        {
          "name": "A3",
          "midi": 57,
          "time": 25.33999999999982,
          "velocity": 0.6062992125984252,
          "duration": 0.5310000000000024
        },
        {
          "name": "G6",
          "midi": 91,
          "time": 25.33999999999982,
          "velocity": 0.4645669291338583,
          "duration": 0.037000000000002586
        },
        {
          "name": "A6",
          "midi": 93,
          "time": 25.33999999999982,
          "velocity": 0.4645669291338583,
          "duration": 0.037000000000002586
        },
        {
          "name": "A3",
          "midi": 57,
          "time": 25.33999999999982,
          "velocity": 0.6062992125984252,
          "duration": 0.5310000000000024
        },
        {
          "name": "G6",
          "midi": 91,
          "time": 25.33999999999982,
          "velocity": 0.4645669291338583,
          "duration": 0.037000000000002586
        },
        {
          "name": "A6",
          "midi": 93,
          "time": 25.33999999999982,
          "velocity": 0.4645669291338583,
          "duration": 0.037000000000002586
        },
        {
          "name": "C6",
          "midi": 84,
          "time": 25.36999999999982,
          "velocity": 0.4566929133858268,
          "duration": 0.037000000000002586
        },
        {
          "name": "C6",
          "midi": 84,
          "time": 25.36999999999982,
          "velocity": 0.4566929133858268,
          "duration": 0.037000000000002586
        },
        {
          "name": "D5",
          "midi": 74,
          "time": 25.389999999999823,
          "velocity": 0.4566929133858268,
          "duration": 0.06700000000000017
        },
        {
          "name": "F6",
          "midi": 89,
          "time": 25.389999999999823,
          "velocity": 0.44881889763779526,
          "duration": 0.007999999999999119
        },
        {
          "name": "D5",
          "midi": 74,
          "time": 25.389999999999823,
          "velocity": 0.4566929133858268,
          "duration": 0.06700000000000017
        },
        {
          "name": "F6",
          "midi": 89,
          "time": 25.389999999999823,
          "velocity": 0.44881889763779526,
          "duration": 0.007999999999999119
        },
        {
          "name": "E5",
          "midi": 76,
          "time": 25.409999999999823,
          "velocity": 0.44881889763779526,
          "duration": 0.036999999999999034
        },
        {
          "name": "E5",
          "midi": 76,
          "time": 25.409999999999823,
          "velocity": 0.44881889763779526,
          "duration": 0.036999999999999034
        },
        {
          "name": "F5",
          "midi": 77,
          "time": 25.418999999999823,
          "velocity": 0.4409448818897638,
          "duration": 0.007999999999999119
        },
        {
          "name": "F5",
          "midi": 77,
          "time": 25.418999999999823,
          "velocity": 0.4409448818897638,
          "duration": 0.007999999999999119
        },
        {
          "name": "F6",
          "midi": 89,
          "time": 25.42899999999982,
          "velocity": 0.6692913385826772,
          "duration": 0.1269999999999989
        },
        {
          "name": "F6",
          "midi": 89,
          "time": 25.42899999999982,
          "velocity": 0.6692913385826772,
          "duration": 0.1269999999999989
        },
        {
          "name": "F4",
          "midi": 65,
          "time": 25.438999999999822,
          "velocity": 0.4330708661417323,
          "duration": 0.007999999999999119
        },
        {
          "name": "F4",
          "midi": 65,
          "time": 25.438999999999822,
          "velocity": 0.4330708661417323,
          "duration": 0.007999999999999119
        },
        {
          "name": "A5",
          "midi": 81,
          "time": 25.458999999999822,
          "velocity": 0.5039370078740157,
          "duration": 0.08699999999999974
        },
        {
          "name": "F7",
          "midi": 101,
          "time": 25.458999999999822,
          "velocity": 0.4645669291338583,
          "duration": 0.036999999999999034
        },
        {
          "name": "A5",
          "midi": 81,
          "time": 25.458999999999822,
          "velocity": 0.5039370078740157,
          "duration": 0.08699999999999974
        },
        {
          "name": "F7",
          "midi": 101,
          "time": 25.458999999999822,
          "velocity": 0.4645669291338583,
          "duration": 0.036999999999999034
        },
        {
          "name": "A6",
          "midi": 93,
          "time": 25.46899999999982,
          "velocity": 0.44881889763779526,
          "duration": 0.028000000000002245
        },
        {
          "name": "A6",
          "midi": 93,
          "time": 25.46899999999982,
          "velocity": 0.44881889763779526,
          "duration": 0.028000000000002245
        },
        {
          "name": "D6",
          "midi": 86,
          "time": 25.47899999999982,
          "velocity": 0.44881889763779526,
          "duration": 0.007999999999999119
        },
        {
          "name": "D6",
          "midi": 86,
          "time": 25.47899999999982,
          "velocity": 0.44881889763779526,
          "duration": 0.007999999999999119
        },
        {
          "name": "F4",
          "midi": 65,
          "time": 25.497999999999823,
          "velocity": 0.49606299212598426,
          "duration": 0.2449999999999939
        },
        {
          "name": "F4",
          "midi": 65,
          "time": 25.497999999999823,
          "velocity": 0.49606299212598426,
          "duration": 0.2449999999999939
        },
        {
          "name": "D7",
          "midi": 98,
          "time": 25.507999999999825,
          "velocity": 0.4330708661417323,
          "duration": 0.007999999999999119
        },
        {
          "name": "D7",
          "midi": 98,
          "time": 25.507999999999825,
          "velocity": 0.4330708661417323,
          "duration": 0.007999999999999119
        },
        {
          "name": "D4",
          "midi": 62,
          "time": 25.517999999999823,
          "velocity": 0.5039370078740157,
          "duration": 0.6189999999999927
        },
        {
          "name": "D4",
          "midi": 62,
          "time": 25.517999999999823,
          "velocity": 0.5039370078740157,
          "duration": 0.6189999999999927
        },
        {
          "name": "F6",
          "midi": 89,
          "time": 25.54799999999982,
          "velocity": 0.5118110236220472,
          "duration": 0.11599999999999966
        },
        {
          "name": "F6",
          "midi": 89,
          "time": 25.54799999999982,
          "velocity": 0.5118110236220472,
          "duration": 0.11599999999999966
        },
        {
          "name": "A4",
          "midi": 69,
          "time": 25.55699999999982,
          "velocity": 0.4645669291338583,
          "duration": 0.07699999999999818
        },
        {
          "name": "A4",
          "midi": 69,
          "time": 25.55699999999982,
          "velocity": 0.4645669291338583,
          "duration": 0.07699999999999818
        },
        {
          "name": "A5",
          "midi": 81,
          "time": 25.566999999999823,
          "velocity": 0.48031496062992124,
          "duration": 0.007999999999999119
        },
        {
          "name": "A5",
          "midi": 81,
          "time": 25.566999999999823,
          "velocity": 0.48031496062992124,
          "duration": 0.007999999999999119
        },
        {
          "name": "A5",
          "midi": 81,
          "time": 25.59699999999982,
          "velocity": 0.4330708661417323,
          "duration": 0.0470000000000006
        },
        {
          "name": "A5",
          "midi": 81,
          "time": 25.59699999999982,
          "velocity": 0.4330708661417323,
          "duration": 0.0470000000000006
        },
        {
          "name": "E5",
          "midi": 76,
          "time": 25.66599999999982,
          "velocity": 0.4566929133858268,
          "duration": 0.007999999999999119
        },
        {
          "name": "D#7",
          "midi": 99,
          "time": 25.66599999999982,
          "velocity": 0.4566929133858268,
          "duration": 0.01799999999999713
        },
        {
          "name": "E5",
          "midi": 76,
          "time": 25.66599999999982,
          "velocity": 0.4566929133858268,
          "duration": 0.007999999999999119
        },
        {
          "name": "D#7",
          "midi": 99,
          "time": 25.66599999999982,
          "velocity": 0.4566929133858268,
          "duration": 0.01799999999999713
        },
        {
          "name": "C6",
          "midi": 84,
          "time": 25.675999999999817,
          "velocity": 0.47244094488188976,
          "duration": 0.06700000000000017
        },
        {
          "name": "C6",
          "midi": 84,
          "time": 25.675999999999817,
          "velocity": 0.47244094488188976,
          "duration": 0.06700000000000017
        },
        {
          "name": "E5",
          "midi": 76,
          "time": 25.695999999999817,
          "velocity": 0.4566929133858268,
          "duration": 0.007999999999999119
        },
        {
          "name": "G6",
          "midi": 91,
          "time": 25.695999999999817,
          "velocity": 0.47244094488188976,
          "duration": 0.027999999999998693
        },
        {
          "name": "E5",
          "midi": 76,
          "time": 25.695999999999817,
          "velocity": 0.4566929133858268,
          "duration": 0.007999999999999119
        },
        {
          "name": "G6",
          "midi": 91,
          "time": 25.695999999999817,
          "velocity": 0.47244094488188976,
          "duration": 0.027999999999998693
        },
        {
          "name": "F6",
          "midi": 89,
          "time": 25.724999999999817,
          "velocity": 0.4409448818897638,
          "duration": 0.0470000000000006
        },
        {
          "name": "F6",
          "midi": 89,
          "time": 25.724999999999817,
          "velocity": 0.4409448818897638,
          "duration": 0.0470000000000006
        },
        {
          "name": "F5",
          "midi": 77,
          "time": 25.744999999999816,
          "velocity": 0.4330708661417323,
          "duration": 0.007999999999999119
        },
        {
          "name": "F5",
          "midi": 77,
          "time": 25.744999999999816,
          "velocity": 0.4330708661417323,
          "duration": 0.007999999999999119
        },
        {
          "name": "D5",
          "midi": 74,
          "time": 25.754999999999814,
          "velocity": 0.4330708661417323,
          "duration": 0.037000000000002586
        },
        {
          "name": "A4",
          "midi": 69,
          "time": 25.754999999999814,
          "velocity": 0.4409448818897638,
          "duration": 0.037000000000002586
        },
        {
          "name": "D5",
          "midi": 74,
          "time": 25.754999999999814,
          "velocity": 0.4330708661417323,
          "duration": 0.037000000000002586
        },
        {
          "name": "A4",
          "midi": 69,
          "time": 25.754999999999814,
          "velocity": 0.4409448818897638,
          "duration": 0.037000000000002586
        },
        {
          "name": "E5",
          "midi": 76,
          "time": 25.764999999999816,
          "velocity": 0.4251968503937008,
          "duration": 0.018000000000000682
        },
        {
          "name": "E5",
          "midi": 76,
          "time": 25.764999999999816,
          "velocity": 0.4251968503937008,
          "duration": 0.018000000000000682
        },
        {
          "name": "G3",
          "midi": 55,
          "time": 25.783999999999818,
          "velocity": 0.44881889763779526,
          "duration": 0.007999999999999119
        },
        {
          "name": "G3",
          "midi": 55,
          "time": 25.783999999999818,
          "velocity": 0.44881889763779526,
          "duration": 0.007999999999999119
        },
        {
          "name": "E6",
          "midi": 88,
          "time": 25.793999999999816,
          "velocity": 0.4645669291338583,
          "duration": 0.037000000000002586
        },
        {
          "name": "E6",
          "midi": 88,
          "time": 25.793999999999816,
          "velocity": 0.4645669291338583,
          "duration": 0.037000000000002586
        },
        {
          "name": "D6",
          "midi": 86,
          "time": 25.803999999999817,
          "velocity": 0.4409448818897638,
          "duration": 0.007999999999999119
        },
        {
          "name": "F6",
          "midi": 89,
          "time": 25.803999999999817,
          "velocity": 0.44881889763779526,
          "duration": 0.028000000000002245
        },
        {
          "name": "D6",
          "midi": 86,
          "time": 25.803999999999817,
          "velocity": 0.4409448818897638,
          "duration": 0.007999999999999119
        },
        {
          "name": "F6",
          "midi": 89,
          "time": 25.803999999999817,
          "velocity": 0.44881889763779526,
          "duration": 0.028000000000002245
        },
        {
          "name": "C#7",
          "midi": 97,
          "time": 25.813999999999815,
          "velocity": 0.47244094488188976,
          "duration": 0.03700000000000614
        },
        {
          "name": "C#7",
          "midi": 97,
          "time": 25.813999999999815,
          "velocity": 0.47244094488188976,
          "duration": 0.03700000000000614
        },
        {
          "name": "F4",
          "midi": 65,
          "time": 25.823999999999817,
          "velocity": 0.4881889763779528,
          "duration": 0.1360000000000099
        },
        {
          "name": "F4",
          "midi": 65,
          "time": 25.823999999999817,
          "velocity": 0.4881889763779528,
          "duration": 0.1360000000000099
        },
        {
          "name": "D5",
          "midi": 74,
          "time": 25.84399999999982,
          "velocity": 0.4566929133858268,
          "duration": 0.028000000000002245
        },
        {
          "name": "D5",
          "midi": 74,
          "time": 25.84399999999982,
          "velocity": 0.4566929133858268,
          "duration": 0.028000000000002245
        },
        {
          "name": "C6",
          "midi": 84,
          "time": 25.862999999999822,
          "velocity": 0.47244094488188976,
          "duration": 0.037000000000002586
        },
        {
          "name": "C6",
          "midi": 84,
          "time": 25.862999999999822,
          "velocity": 0.47244094488188976,
          "duration": 0.037000000000002586
        },
        {
          "name": "F5",
          "midi": 77,
          "time": 25.872999999999823,
          "velocity": 0.4881889763779528,
          "duration": 0.13600000000000279
        },
        {
          "name": "F5",
          "midi": 77,
          "time": 25.872999999999823,
          "velocity": 0.4881889763779528,
          "duration": 0.13600000000000279
        },
        {
          "name": "F6",
          "midi": 89,
          "time": 25.882999999999825,
          "velocity": 0.4566929133858268,
          "duration": 0.09700000000000131
        },
        {
          "name": "A3",
          "midi": 57,
          "time": 25.882999999999825,
          "velocity": 0.5433070866141733,
          "duration": 0.20499999999999474
        },
        {
          "name": "F6",
          "midi": 89,
          "time": 25.882999999999825,
          "velocity": 0.4566929133858268,
          "duration": 0.09700000000000131
        },
        {
          "name": "A3",
          "midi": 57,
          "time": 25.882999999999825,
          "velocity": 0.5433070866141733,
          "duration": 0.20499999999999474
        },
        {
          "name": "D6",
          "midi": 86,
          "time": 25.912999999999826,
          "velocity": 0.4566929133858268,
          "duration": 0.018000000000000682
        },
        {
          "name": "D6",
          "midi": 86,
          "time": 25.912999999999826,
          "velocity": 0.4566929133858268,
          "duration": 0.018000000000000682
        },
        {
          "name": "C7",
          "midi": 96,
          "time": 25.941999999999826,
          "velocity": 0.4409448818897638,
          "duration": 0.028000000000002245
        },
        {
          "name": "C7",
          "midi": 96,
          "time": 25.941999999999826,
          "velocity": 0.4409448818897638,
          "duration": 0.028000000000002245
        },
        {
          "name": "D5",
          "midi": 74,
          "time": 25.971999999999827,
          "velocity": 0.4330708661417323,
          "duration": 0.007999999999999119
        },
        {
          "name": "D5",
          "midi": 74,
          "time": 25.971999999999827,
          "velocity": 0.4330708661417323,
          "duration": 0.007999999999999119
        },
        {
          "name": "A6",
          "midi": 93,
          "time": 25.981999999999825,
          "velocity": 0.4330708661417323,
          "duration": 0.007999999999999119
        },
        {
          "name": "A6",
          "midi": 93,
          "time": 25.981999999999825,
          "velocity": 0.4330708661417323,
          "duration": 0.007999999999999119
        },
        {
          "name": "A5",
          "midi": 81,
          "time": 25.990999999999826,
          "velocity": 0.4645669291338583,
          "duration": 0.0470000000000006
        },
        {
          "name": "F4",
          "midi": 65,
          "time": 25.990999999999826,
          "velocity": 0.47244094488188976,
          "duration": 0.11599999999999255
        },
        {
          "name": "A5",
          "midi": 81,
          "time": 25.990999999999826,
          "velocity": 0.4645669291338583,
          "duration": 0.0470000000000006
        },
        {
          "name": "F4",
          "midi": 65,
          "time": 25.990999999999826,
          "velocity": 0.47244094488188976,
          "duration": 0.11599999999999255
        },
        {
          "name": "E5",
          "midi": 76,
          "time": 26.000999999999827,
          "velocity": 0.4566929133858268,
          "duration": 0.027999999999998693
        },
        {
          "name": "E5",
          "midi": 76,
          "time": 26.000999999999827,
          "velocity": 0.4566929133858268,
          "duration": 0.027999999999998693
        },
        {
          "name": "A4",
          "midi": 69,
          "time": 26.020999999999827,
          "velocity": 0.4566929133858268,
          "duration": 0.027999999999998693
        },
        {
          "name": "A4",
          "midi": 69,
          "time": 26.020999999999827,
          "velocity": 0.4566929133858268,
          "duration": 0.027999999999998693
        },
        {
          "name": "C7",
          "midi": 96,
          "time": 26.040999999999826,
          "velocity": 0.4409448818897638,
          "duration": 0.03699999999999548
        },
        {
          "name": "C7",
          "midi": 96,
          "time": 26.040999999999826,
          "velocity": 0.4409448818897638,
          "duration": 0.03699999999999548
        },
        {
          "name": "E4",
          "midi": 64,
          "time": 26.050999999999824,
          "velocity": 0.4566929133858268,
          "duration": 0.007999999999999119
        },
        {
          "name": "E4",
          "midi": 64,
          "time": 26.050999999999824,
          "velocity": 0.4566929133858268,
          "duration": 0.007999999999999119
        },
        {
          "name": "E5",
          "midi": 76,
          "time": 26.060999999999822,
          "velocity": 0.4409448818897638,
          "duration": 0.007999999999999119
        },
        {
          "name": "E5",
          "midi": 76,
          "time": 26.060999999999822,
          "velocity": 0.4409448818897638,
          "duration": 0.007999999999999119
        },
        {
          "name": "A5",
          "midi": 81,
          "time": 26.069999999999823,
          "velocity": 0.4409448818897638,
          "duration": 0.02799999999999514
        },
        {
          "name": "A5",
          "midi": 81,
          "time": 26.069999999999823,
          "velocity": 0.4409448818897638,
          "duration": 0.02799999999999514
        },
        {
          "name": "G#3",
          "midi": 56,
          "time": 26.07999999999982,
          "velocity": 0.4566929133858268,
          "duration": 0.007999999999999119
        },
        {
          "name": "G#3",
          "midi": 56,
          "time": 26.07999999999982,
          "velocity": 0.4566929133858268,
          "duration": 0.007999999999999119
        },
        {
          "name": "A4",
          "midi": 69,
          "time": 26.08999999999982,
          "velocity": 0.4566929133858268,
          "duration": 0.046999999999997044
        },
        {
          "name": "A4",
          "midi": 69,
          "time": 26.08999999999982,
          "velocity": 0.4566929133858268,
          "duration": 0.046999999999997044
        },
        {
          "name": "D5",
          "midi": 74,
          "time": 26.099999999999817,
          "velocity": 0.4409448818897638,
          "duration": 0.018000000000000682
        },
        {
          "name": "D5",
          "midi": 74,
          "time": 26.099999999999817,
          "velocity": 0.4409448818897638,
          "duration": 0.018000000000000682
        },
        {
          "name": "G#3",
          "midi": 56,
          "time": 26.10999999999982,
          "velocity": 0.4409448818897638,
          "duration": 0.01799999999999713
        },
        {
          "name": "F6",
          "midi": 89,
          "time": 26.10999999999982,
          "velocity": 0.6377952755905512,
          "duration": 0.07699999999999818
        },
        {
          "name": "G#3",
          "midi": 56,
          "time": 26.10999999999982,
          "velocity": 0.4409448818897638,
          "duration": 0.01799999999999713
        },
        {
          "name": "F6",
          "midi": 89,
          "time": 26.10999999999982,
          "velocity": 0.6377952755905512,
          "duration": 0.07699999999999818
        },
        {
          "name": "D6",
          "midi": 86,
          "time": 26.119999999999816,
          "velocity": 0.5039370078740157,
          "duration": 0.07699999999999818
        },
        {
          "name": "D6",
          "midi": 86,
          "time": 26.119999999999816,
          "velocity": 0.5039370078740157,
          "duration": 0.07699999999999818
        },
        {
          "name": "D7",
          "midi": 98,
          "time": 26.129999999999814,
          "velocity": 0.49606299212598426,
          "duration": 0.037000000000002586
        },
        {
          "name": "D7",
          "midi": 98,
          "time": 26.129999999999814,
          "velocity": 0.49606299212598426,
          "duration": 0.037000000000002586
        },
        {
          "name": "A3",
          "midi": 57,
          "time": 26.138999999999815,
          "velocity": 0.48031496062992124,
          "duration": 0.037000000000002586
        },
        {
          "name": "A3",
          "midi": 57,
          "time": 26.138999999999815,
          "velocity": 0.48031496062992124,
          "duration": 0.037000000000002586
        },
        {
          "name": "C#6",
          "midi": 85,
          "time": 26.148999999999816,
          "velocity": 0.47244094488188976,
          "duration": 0.018000000000000682
        },
        {
          "name": "E6",
          "midi": 88,
          "time": 26.148999999999816,
          "velocity": 0.6771653543307087,
          "duration": 0.06699999999999662
        },
        {
          "name": "C#6",
          "midi": 85,
          "time": 26.148999999999816,
          "velocity": 0.47244094488188976,
          "duration": 0.018000000000000682
        },
        {
          "name": "E6",
          "midi": 88,
          "time": 26.148999999999816,
          "velocity": 0.6771653543307087,
          "duration": 0.06699999999999662
        },
        {
          "name": "G#4",
          "midi": 68,
          "time": 26.178999999999817,
          "velocity": 0.5826771653543307,
          "duration": 0.3240000000000123
        },
        {
          "name": "C6",
          "midi": 84,
          "time": 26.178999999999817,
          "velocity": 0.48031496062992124,
          "duration": 0.007999999999999119
        },
        {
          "name": "G#4",
          "midi": 68,
          "time": 26.178999999999817,
          "velocity": 0.5826771653543307,
          "duration": 0.3240000000000123
        },
        {
          "name": "C6",
          "midi": 84,
          "time": 26.178999999999817,
          "velocity": 0.48031496062992124,
          "duration": 0.007999999999999119
        },
        {
          "name": "C6",
          "midi": 84,
          "time": 26.188999999999815,
          "velocity": 0.49606299212598426,
          "duration": 0.027999999999998693
        },
        {
          "name": "C6",
          "midi": 84,
          "time": 26.188999999999815,
          "velocity": 0.49606299212598426,
          "duration": 0.027999999999998693
        },
        {
          "name": "A5",
          "midi": 81,
          "time": 26.198999999999813,
          "velocity": 0.5118110236220472,
          "duration": 0.037000000000002586
        },
        {
          "name": "E7",
          "midi": 100,
          "time": 26.198999999999813,
          "velocity": 0.5039370078740157,
          "duration": 0.037000000000002586
        },
        {
          "name": "A5",
          "midi": 81,
          "time": 26.198999999999813,
          "velocity": 0.5118110236220472,
          "duration": 0.037000000000002586
        },
        {
          "name": "E7",
          "midi": 100,
          "time": 26.198999999999813,
          "velocity": 0.5039370078740157,
          "duration": 0.037000000000002586
        },
        {
          "name": "C5",
          "midi": 72,
          "time": 26.217999999999815,
          "velocity": 0.6062992125984252,
          "duration": 0.37300000000001177
        },
        {
          "name": "C5",
          "midi": 72,
          "time": 26.217999999999815,
          "velocity": 0.6062992125984252,
          "duration": 0.37300000000001177
        },
        {
          "name": "C6",
          "midi": 84,
          "time": 26.227999999999817,
          "velocity": 0.5118110236220472,
          "duration": 0.007999999999999119
        },
        {
          "name": "C7",
          "midi": 96,
          "time": 26.227999999999817,
          "velocity": 0.5196850393700787,
          "duration": 0.06700000000000017
        },
        {
          "name": "C6",
          "midi": 84,
          "time": 26.227999999999817,
          "velocity": 0.5118110236220472,
          "duration": 0.007999999999999119
        },
        {
          "name": "C7",
          "midi": 96,
          "time": 26.227999999999817,
          "velocity": 0.5196850393700787,
          "duration": 0.06700000000000017
        },
        {
          "name": "G7",
          "midi": 103,
          "time": 26.247999999999816,
          "velocity": 0.5118110236220472,
          "duration": 0.018000000000000682
        },
        {
          "name": "D#7",
          "midi": 99,
          "time": 26.247999999999816,
          "velocity": 0.5511811023622047,
          "duration": 0.11600000000000321
        },
        {
          "name": "D#6",
          "midi": 87,
          "time": 26.247999999999816,
          "velocity": 0.5039370078740157,
          "duration": 0.07700000000000173
        },
        {
          "name": "G7",
          "midi": 103,
          "time": 26.247999999999816,
          "velocity": 0.5118110236220472,
          "duration": 0.018000000000000682
        },
        {
          "name": "D#7",
          "midi": 99,
          "time": 26.247999999999816,
          "velocity": 0.5511811023622047,
          "duration": 0.11600000000000321
        },
        {
          "name": "D#6",
          "midi": 87,
          "time": 26.247999999999816,
          "velocity": 0.5039370078740157,
          "duration": 0.07700000000000173
        },
        {
          "name": "A#7",
          "midi": 106,
          "time": 26.286999999999818,
          "velocity": 0.5826771653543307,
          "duration": 0.05700000000000216
        },
        {
          "name": "A#7",
          "midi": 106,
          "time": 26.286999999999818,
          "velocity": 0.5826771653543307,
          "duration": 0.05700000000000216
        },
        {
          "name": "C6",
          "midi": 84,
          "time": 26.306999999999817,
          "velocity": 0.5275590551181102,
          "duration": 0.028000000000002245
        },
        {
          "name": "C6",
          "midi": 84,
          "time": 26.306999999999817,
          "velocity": 0.5275590551181102,
          "duration": 0.028000000000002245
        },
        {
          "name": "D7",
          "midi": 98,
          "time": 26.33699999999982,
          "velocity": 0.47244094488188976,
          "duration": 0.018000000000000682
        },
        {
          "name": "D7",
          "midi": 98,
          "time": 26.33699999999982,
          "velocity": 0.47244094488188976,
          "duration": 0.018000000000000682
        },
        {
          "name": "G#6",
          "midi": 92,
          "time": 26.34699999999982,
          "velocity": 0.48031496062992124,
          "duration": 0.018000000000000682
        },
        {
          "name": "G#6",
          "midi": 92,
          "time": 26.34699999999982,
          "velocity": 0.48031496062992124,
          "duration": 0.018000000000000682
        },
        {
          "name": "D5",
          "midi": 74,
          "time": 26.365999999999822,
          "velocity": 0.5039370078740157,
          "duration": 0.08700000000000685
        },
        {
          "name": "C7",
          "midi": 96,
          "time": 26.365999999999822,
          "velocity": 0.5354330708661418,
          "duration": 0.04700000000000415
        },
        {
          "name": "D5",
          "midi": 74,
          "time": 26.365999999999822,
          "velocity": 0.5039370078740157,
          "duration": 0.08700000000000685
        },
        {
          "name": "C7",
          "midi": 96,
          "time": 26.365999999999822,
          "velocity": 0.5354330708661418,
          "duration": 0.04700000000000415
        },
        {
          "name": "G7",
          "midi": 103,
          "time": 26.375999999999824,
          "velocity": 0.5118110236220472,
          "duration": 0.05800000000000338
        },
        {
          "name": "G7",
          "midi": 103,
          "time": 26.375999999999824,
          "velocity": 0.5118110236220472,
          "duration": 0.05800000000000338
        },
        {
          "name": "C6",
          "midi": 84,
          "time": 26.385999999999825,
          "velocity": 0.5118110236220472,
          "duration": 0.07700000000000173
        },
        {
          "name": "C6",
          "midi": 84,
          "time": 26.385999999999825,
          "velocity": 0.5118110236220472,
          "duration": 0.07700000000000173
        },
        {
          "name": "G7",
          "midi": 103,
          "time": 26.425999999999828,
          "velocity": 0.5118110236220472,
          "duration": 0.01699999999999946
        },
        {
          "name": "G7",
          "midi": 103,
          "time": 26.425999999999828,
          "velocity": 0.5118110236220472,
          "duration": 0.01699999999999946
        },
        {
          "name": "A#7",
          "midi": 106,
          "time": 26.454999999999828,
          "velocity": 0.5748031496062992,
          "duration": 0.05700000000000216
        },
        {
          "name": "D#7",
          "midi": 99,
          "time": 26.454999999999828,
          "velocity": 0.5826771653543307,
          "duration": 0.07700000000000173
        },
        {
          "name": "A#7",
          "midi": 106,
          "time": 26.454999999999828,
          "velocity": 0.5748031496062992,
          "duration": 0.05700000000000216
        },
        {
          "name": "D#7",
          "midi": 99,
          "time": 26.454999999999828,
          "velocity": 0.5826771653543307,
          "duration": 0.07700000000000173
        },
        {
          "name": "F#5",
          "midi": 78,
          "time": 26.464999999999826,
          "velocity": 0.5039370078740157,
          "duration": 0.09700000000000131
        },
        {
          "name": "F#5",
          "midi": 78,
          "time": 26.464999999999826,
          "velocity": 0.5039370078740157,
          "duration": 0.09700000000000131
        },
        {
          "name": "D#6",
          "midi": 87,
          "time": 26.474999999999827,
          "velocity": 0.5039370078740157,
          "duration": 0.018000000000000682
        },
        {
          "name": "D#6",
          "midi": 87,
          "time": 26.474999999999827,
          "velocity": 0.5039370078740157,
          "duration": 0.018000000000000682
        },
        {
          "name": "D7",
          "midi": 98,
          "time": 26.50399999999983,
          "velocity": 0.48031496062992124,
          "duration": 0.01799999999999713
        },
        {
          "name": "D7",
          "midi": 98,
          "time": 26.50399999999983,
          "velocity": 0.48031496062992124,
          "duration": 0.01799999999999713
        },
        {
          "name": "C7",
          "midi": 96,
          "time": 26.51399999999983,
          "velocity": 0.5118110236220472,
          "duration": 0.08699999999999619
        },
        {
          "name": "C7",
          "midi": 96,
          "time": 26.51399999999983,
          "velocity": 0.5118110236220472,
          "duration": 0.08699999999999619
        },
        {
          "name": "G#5",
          "midi": 80,
          "time": 26.53399999999983,
          "velocity": 0.4566929133858268,
          "duration": 0.007999999999999119
        },
        {
          "name": "D5",
          "midi": 74,
          "time": 26.53399999999983,
          "velocity": 0.5118110236220472,
          "duration": 0.3329999999999984
        },
        {
          "name": "G#5",
          "midi": 80,
          "time": 26.53399999999983,
          "velocity": 0.4566929133858268,
          "duration": 0.007999999999999119
        },
        {
          "name": "D5",
          "midi": 74,
          "time": 26.53399999999983,
          "velocity": 0.5118110236220472,
          "duration": 0.3329999999999984
        },
        {
          "name": "C6",
          "midi": 84,
          "time": 26.543999999999826,
          "velocity": 0.5669291338582677,
          "duration": 0.05699999999999861
        },
        {
          "name": "C6",
          "midi": 84,
          "time": 26.543999999999826,
          "velocity": 0.5669291338582677,
          "duration": 0.05699999999999861
        },
        {
          "name": "C7",
          "midi": 96,
          "time": 26.553999999999828,
          "velocity": 0.5196850393700787,
          "duration": 0.046999999999997044
        },
        {
          "name": "C7",
          "midi": 96,
          "time": 26.553999999999828,
          "velocity": 0.5196850393700787,
          "duration": 0.046999999999997044
        },
        {
          "name": "G7",
          "midi": 103,
          "time": 26.592999999999826,
          "velocity": 0.5118110236220472,
          "duration": 0.01799999999999713
        },
        {
          "name": "G7",
          "midi": 103,
          "time": 26.592999999999826,
          "velocity": 0.5118110236220472,
          "duration": 0.01799999999999713
        },
        {
          "name": "G7",
          "midi": 103,
          "time": 26.602999999999824,
          "velocity": 0.49606299212598426,
          "duration": 0.007999999999999119
        },
        {
          "name": "G7",
          "midi": 103,
          "time": 26.602999999999824,
          "velocity": 0.49606299212598426,
          "duration": 0.007999999999999119
        },
        {
          "name": "G#4",
          "midi": 68,
          "time": 26.612999999999822,
          "velocity": 0.4881889763779528,
          "duration": 0.05700000000000216
        },
        {
          "name": "C5",
          "midi": 72,
          "time": 26.612999999999822,
          "velocity": 0.7559055118110236,
          "duration": 0.9350000000000094
        },
        {
          "name": "G#4",
          "midi": 68,
          "time": 26.612999999999822,
          "velocity": 0.4881889763779528,
          "duration": 0.05700000000000216
        },
        {
          "name": "C5",
          "midi": 72,
          "time": 26.612999999999822,
          "velocity": 0.7559055118110236,
          "duration": 0.9350000000000094
        },
        {
          "name": "D6",
          "midi": 86,
          "time": 26.622999999999823,
          "velocity": 0.5511811023622047,
          "duration": 0.0870000000000033
        },
        {
          "name": "D7",
          "midi": 98,
          "time": 26.622999999999823,
          "velocity": 0.6141732283464567,
          "duration": 0.07700000000000173
        },
        {
          "name": "A7",
          "midi": 105,
          "time": 26.622999999999823,
          "velocity": 0.5590551181102362,
          "duration": 0.05700000000000216
        },
        {
          "name": "D6",
          "midi": 86,
          "time": 26.622999999999823,
          "velocity": 0.5511811023622047,
          "duration": 0.0870000000000033
        },
        {
          "name": "D7",
          "midi": 98,
          "time": 26.622999999999823,
          "velocity": 0.6141732283464567,
          "duration": 0.07700000000000173
        },
        {
          "name": "A7",
          "midi": 105,
          "time": 26.622999999999823,
          "velocity": 0.5590551181102362,
          "duration": 0.05700000000000216
        },
        {
          "name": "G6",
          "midi": 91,
          "time": 26.681999999999825,
          "velocity": 0.4645669291338583,
          "duration": 0.018000000000000682
        },
        {
          "name": "G6",
          "midi": 91,
          "time": 26.681999999999825,
          "velocity": 0.4645669291338583,
          "duration": 0.018000000000000682
        },
        {
          "name": "C6",
          "midi": 84,
          "time": 26.691999999999826,
          "velocity": 0.5826771653543307,
          "duration": 0.08699999999999974
        },
        {
          "name": "C6",
          "midi": 84,
          "time": 26.691999999999826,
          "velocity": 0.5826771653543307,
          "duration": 0.08699999999999974
        },
        {
          "name": "C7",
          "midi": 96,
          "time": 26.711999999999826,
          "velocity": 0.5039370078740157,
          "duration": 0.02699999999999747
        },
        {
          "name": "C7",
          "midi": 96,
          "time": 26.711999999999826,
          "velocity": 0.5275590551181102,
          "duration": 0.02699999999999747
        },
        {
          "name": "C7",
          "midi": 96,
          "time": 26.711999999999826,
          "velocity": 0.5039370078740157,
          "duration": 0.05699999999999861
        },
        {
          "name": "C7",
          "midi": 96,
          "time": 26.711999999999826,
          "velocity": 0.5275590551181102,
          "duration": 0.05699999999999861
        },
        {
          "name": "C7",
          "midi": 96,
          "time": 26.730999999999824,
          "velocity": 0.48031496062992124,
          "duration": 0.038000000000000256
        },
        {
          "name": "C7",
          "midi": 96,
          "time": 26.730999999999824,
          "velocity": 0.48031496062992124,
          "duration": 0.038000000000000256
        },
        {
          "name": "G7",
          "midi": 103,
          "time": 26.750999999999824,
          "velocity": 0.5196850393700787,
          "duration": 0.037000000000002586
        },
        {
          "name": "G7",
          "midi": 103,
          "time": 26.750999999999824,
          "velocity": 0.5196850393700787,
          "duration": 0.037000000000002586
        },
        {
          "name": "F#4",
          "midi": 66,
          "time": 26.780999999999825,
          "velocity": 0.4881889763779528,
          "duration": 0.008000000000002672
        },
        {
          "name": "G7",
          "midi": 103,
          "time": 26.780999999999825,
          "velocity": 0.5039370078740157,
          "duration": 0.008000000000002672
        },
        {
          "name": "F#4",
          "midi": 66,
          "time": 26.780999999999825,
          "velocity": 0.4881889763779528,
          "duration": 0.008000000000002672
        },
        {
          "name": "G7",
          "midi": 103,
          "time": 26.780999999999825,
          "velocity": 0.5039370078740157,
          "duration": 0.008000000000002672
        },
        {
          "name": "G#4",
          "midi": 68,
          "time": 26.78999999999983,
          "velocity": 0.5196850393700787,
          "duration": 0.018000000000000682
        },
        {
          "name": "G#4",
          "midi": 68,
          "time": 26.78999999999983,
          "velocity": 0.5196850393700787,
          "duration": 0.018000000000000682
        },
        {
          "name": "D#7",
          "midi": 99,
          "time": 26.79999999999983,
          "velocity": 0.6377952755905512,
          "duration": 0.06699999999999662
        },
        {
          "name": "D#6",
          "midi": 87,
          "time": 26.79999999999983,
          "velocity": 0.5511811023622047,
          "duration": 0.06699999999999662
        },
        {
          "name": "A#7",
          "midi": 106,
          "time": 26.79999999999983,
          "velocity": 0.5905511811023622,
          "duration": 0.056999999999995055
        },
        {
          "name": "D#7",
          "midi": 99,
          "time": 26.79999999999983,
          "velocity": 0.6377952755905512,
          "duration": 0.06699999999999662
        },
        {
          "name": "D#6",
          "midi": 87,
          "time": 26.79999999999983,
          "velocity": 0.5511811023622047,
          "duration": 0.06699999999999662
        },
        {
          "name": "A#7",
          "midi": 106,
          "time": 26.79999999999983,
          "velocity": 0.5905511811023622,
          "duration": 0.056999999999995055
        },
        {
          "name": "G#4",
          "midi": 68,
          "time": 26.829999999999828,
          "velocity": 0.47244094488188976,
          "duration": 0.007999999999999119
        },
        {
          "name": "G#4",
          "midi": 68,
          "time": 26.829999999999828,
          "velocity": 0.47244094488188976,
          "duration": 0.007999999999999119
        },
        {
          "name": "D5",
          "midi": 74,
          "time": 26.859999999999825,
          "velocity": 0.5511811023622047,
          "duration": 0.06700000000000372
        },
        {
          "name": "D5",
          "midi": 74,
          "time": 26.859999999999825,
          "velocity": 0.5511811023622047,
          "duration": 0.06700000000000372
        },
        {
          "name": "A6",
          "midi": 93,
          "time": 26.868999999999826,
          "velocity": 0.5275590551181102,
          "duration": 0.037000000000002586
        },
        {
          "name": "A6",
          "midi": 93,
          "time": 26.868999999999826,
          "velocity": 0.5275590551181102,
          "duration": 0.037000000000002586
        },
        {
          "name": "F#4",
          "midi": 66,
          "time": 26.878999999999827,
          "velocity": 0.4881889763779528,
          "duration": 0.007999999999999119
        },
        {
          "name": "C6",
          "midi": 84,
          "time": 26.878999999999827,
          "velocity": 0.5275590551181102,
          "duration": 0.09700000000000131
        },
        {
          "name": "C7",
          "midi": 96,
          "time": 26.878999999999827,
          "velocity": 0.5826771653543307,
          "duration": 0.05700000000000216
        },
        {
          "name": "F#4",
          "midi": 66,
          "time": 26.878999999999827,
          "velocity": 0.4881889763779528,
          "duration": 0.007999999999999119
        },
        {
          "name": "C6",
          "midi": 84,
          "time": 26.878999999999827,
          "velocity": 0.5275590551181102,
          "duration": 0.09700000000000131
        },
        {
          "name": "C7",
          "midi": 96,
          "time": 26.878999999999827,
          "velocity": 0.5826771653543307,
          "duration": 0.05700000000000216
        },
        {
          "name": "C7",
          "midi": 96,
          "time": 26.898999999999827,
          "velocity": 0.6062992125984252,
          "duration": 0.05700000000000216
        },
        {
          "name": "C7",
          "midi": 96,
          "time": 26.898999999999827,
          "velocity": 0.6062992125984252,
          "duration": 0.05700000000000216
        },
        {
          "name": "G7",
          "midi": 103,
          "time": 26.91899999999983,
          "velocity": 0.5354330708661418,
          "duration": 0.036999999999999034
        },
        {
          "name": "G7",
          "midi": 103,
          "time": 26.91899999999983,
          "velocity": 0.5354330708661418,
          "duration": 0.036999999999999034
        },
        {
          "name": "G#4",
          "midi": 68,
          "time": 26.93799999999983,
          "velocity": 0.5433070866141733,
          "duration": 0.08699999999999974
        },
        {
          "name": "G#4",
          "midi": 68,
          "time": 26.93799999999983,
          "velocity": 0.5433070866141733,
          "duration": 0.08699999999999974
        },
        {
          "name": "E7",
          "midi": 100,
          "time": 26.94799999999983,
          "velocity": 0.5196850393700787,
          "duration": 0.007999999999999119
        },
        {
          "name": "E7",
          "midi": 100,
          "time": 26.94799999999983,
          "velocity": 0.5196850393700787,
          "duration": 0.007999999999999119
        },
        {
          "name": "D7",
          "midi": 98,
          "time": 26.96799999999983,
          "velocity": 0.5669291338582677,
          "duration": 0.07699999999999818
        },
        {
          "name": "A7",
          "midi": 105,
          "time": 26.96799999999983,
          "velocity": 0.5590551181102362,
          "duration": 0.06700000000000017
        },
        {
          "name": "D6",
          "midi": 86,
          "time": 26.96799999999983,
          "velocity": 0.49606299212598426,
          "duration": 0.07699999999999818
        },
        {
          "name": "D7",
          "midi": 98,
          "time": 26.96799999999983,
          "velocity": 0.5669291338582677,
          "duration": 0.07699999999999818
        },
        {
          "name": "A7",
          "midi": 105,
          "time": 26.96799999999983,
          "velocity": 0.5590551181102362,
          "duration": 0.06700000000000017
        },
        {
          "name": "D6",
          "midi": 86,
          "time": 26.96799999999983,
          "velocity": 0.49606299212598426,
          "duration": 0.07699999999999818
        },
        {
          "name": "D5",
          "midi": 74,
          "time": 26.98799999999983,
          "velocity": 0.5354330708661418,
          "duration": 0.08699999999999619
        },
        {
          "name": "D5",
          "midi": 74,
          "time": 26.98799999999983,
          "velocity": 0.5354330708661418,
          "duration": 0.08699999999999619
        },
        {
          "name": "D6",
          "midi": 86,
          "time": 27.03699999999983,
          "velocity": 0.4645669291338583,
          "duration": 0.01799999999999713
        },
        {
          "name": "D6",
          "midi": 86,
          "time": 27.03699999999983,
          "velocity": 0.4645669291338583,
          "duration": 0.01799999999999713
        },
        {
          "name": "C6",
          "midi": 84,
          "time": 27.046999999999827,
          "velocity": 0.4566929133858268,
          "duration": 0.007999999999999119
        },
        {
          "name": "C6",
          "midi": 84,
          "time": 27.046999999999827,
          "velocity": 0.4566929133858268,
          "duration": 0.007999999999999119
        },
        {
          "name": "C7",
          "midi": 96,
          "time": 27.056999999999825,
          "velocity": 0.49606299212598426,
          "duration": 0.028000000000002245
        },
        {
          "name": "C7",
          "midi": 96,
          "time": 27.056999999999825,
          "velocity": 0.5039370078740157,
          "duration": 0.028000000000002245
        },
        {
          "name": "C7",
          "midi": 96,
          "time": 27.056999999999825,
          "velocity": 0.49606299212598426,
          "duration": 0.05700000000000571
        },
        {
          "name": "C7",
          "midi": 96,
          "time": 27.056999999999825,
          "velocity": 0.5039370078740157,
          "duration": 0.05700000000000571
        },
        {
          "name": "G7",
          "midi": 103,
          "time": 27.066999999999826,
          "velocity": 0.5039370078740157,
          "duration": 0.04700000000000415
        },
        {
          "name": "G#4",
          "midi": 68,
          "time": 27.066999999999826,
          "velocity": 0.5039370078740157,
          "duration": 0.05700000000000571
        },
        {
          "name": "G7",
          "midi": 103,
          "time": 27.066999999999826,
          "velocity": 0.5039370078740157,
          "duration": 0.04700000000000415
        },
        {
          "name": "G#4",
          "midi": 68,
          "time": 27.066999999999826,
          "velocity": 0.5039370078740157,
          "duration": 0.05700000000000571
        },
        {
          "name": "G7",
          "midi": 103,
          "time": 27.085999999999828,
          "velocity": 0.5196850393700787,
          "duration": 0.037000000000002586
        },
        {
          "name": "G7",
          "midi": 103,
          "time": 27.085999999999828,
          "velocity": 0.5196850393700787,
          "duration": 0.037000000000002586
        },
        {
          "name": "E7",
          "midi": 100,
          "time": 27.09599999999983,
          "velocity": 0.5196850393700787,
          "duration": 0.04700000000000415
        },
        {
          "name": "E7",
          "midi": 100,
          "time": 27.09599999999983,
          "velocity": 0.5196850393700787,
          "duration": 0.04700000000000415
        },
        {
          "name": "D5",
          "midi": 74,
          "time": 27.12599999999983,
          "velocity": 0.5511811023622047,
          "duration": 0.2840000000000025
        },
        {
          "name": "D#6",
          "midi": 87,
          "time": 27.12599999999983,
          "velocity": 0.5118110236220472,
          "duration": 0.09700000000000131
        },
        {
          "name": "D5",
          "midi": 74,
          "time": 27.12599999999983,
          "velocity": 0.5511811023622047,
          "duration": 0.2840000000000025
        },
        {
          "name": "D#6",
          "midi": 87,
          "time": 27.12599999999983,
          "velocity": 0.5118110236220472,
          "duration": 0.09700000000000131
        },
        {
          "name": "D#7",
          "midi": 99,
          "time": 27.135999999999832,
          "velocity": 0.5669291338582677,
          "duration": 0.07700000000000173
        },
        {
          "name": "A#7",
          "midi": 106,
          "time": 27.135999999999832,
          "velocity": 0.5511811023622047,
          "duration": 0.05700000000000216
        },
        {
          "name": "D#7",
          "midi": 99,
          "time": 27.135999999999832,
          "velocity": 0.5669291338582677,
          "duration": 0.07700000000000173
        },
        {
          "name": "A#7",
          "midi": 106,
          "time": 27.135999999999832,
          "velocity": 0.5511811023622047,
          "duration": 0.05700000000000216
        },
        {
          "name": "C6",
          "midi": 84,
          "time": 27.204999999999835,
          "velocity": 0.5196850393700787,
          "duration": 0.2049999999999983
        },
        {
          "name": "C6",
          "midi": 84,
          "time": 27.204999999999835,
          "velocity": 0.5196850393700787,
          "duration": 0.2049999999999983
        },
        {
          "name": "D4",
          "midi": 62,
          "time": 27.214999999999833,
          "velocity": 0.4645669291338583,
          "duration": 0.036999999999999034
        },
        {
          "name": "D4",
          "midi": 62,
          "time": 27.214999999999833,
          "velocity": 0.4645669291338583,
          "duration": 0.036999999999999034
        },
        {
          "name": "G7",
          "midi": 103,
          "time": 27.223999999999833,
          "velocity": 0.4881889763779528,
          "duration": 0.036999999999999034
        },
        {
          "name": "G7",
          "midi": 103,
          "time": 27.223999999999833,
          "velocity": 0.4881889763779528,
          "duration": 0.036999999999999034
        },
        {
          "name": "C7",
          "midi": 96,
          "time": 27.25399999999983,
          "velocity": 0.47244094488188976,
          "duration": 0.018000000000000682
        },
        {
          "name": "C7",
          "midi": 96,
          "time": 27.25399999999983,
          "velocity": 0.47244094488188976,
          "duration": 0.018000000000000682
        },
        {
          "name": "E7",
          "midi": 100,
          "time": 27.263999999999832,
          "velocity": 0.5039370078740157,
          "duration": 0.027999999999998693
        },
        {
          "name": "E7",
          "midi": 100,
          "time": 27.263999999999832,
          "velocity": 0.5039370078740157,
          "duration": 0.027999999999998693
        },
        {
          "name": "C7",
          "midi": 96,
          "time": 27.27399999999983,
          "velocity": 0.4645669291338583,
          "duration": 0.007999999999999119
        },
        {
          "name": "C7",
          "midi": 96,
          "time": 27.27399999999983,
          "velocity": 0.4645669291338583,
          "duration": 0.007999999999999119
        },
        {
          "name": "D6",
          "midi": 86,
          "time": 27.29399999999983,
          "velocity": 0.5118110236220472,
          "duration": 0.06700000000000017
        },
        {
          "name": "D7",
          "midi": 98,
          "time": 27.29399999999983,
          "velocity": 0.5669291338582677,
          "duration": 0.08699999999999974
        },
        {
          "name": "D6",
          "midi": 86,
          "time": 27.29399999999983,
          "velocity": 0.5118110236220472,
          "duration": 0.06700000000000017
        },
        {
          "name": "D7",
          "midi": 98,
          "time": 27.29399999999983,
          "velocity": 0.5669291338582677,
          "duration": 0.08699999999999974
        },
        {
          "name": "A7",
          "midi": 105,
          "time": 27.30299999999983,
          "velocity": 0.5118110236220472,
          "duration": 0.0470000000000006
        },
        {
          "name": "A7",
          "midi": 105,
          "time": 27.30299999999983,
          "velocity": 0.5118110236220472,
          "duration": 0.0470000000000006
        },
        {
          "name": "G7",
          "midi": 103,
          "time": 27.36299999999983,
          "velocity": 0.4645669291338583,
          "duration": 0.007999999999999119
        },
        {
          "name": "G7",
          "midi": 103,
          "time": 27.36299999999983,
          "velocity": 0.4645669291338583,
          "duration": 0.007999999999999119
        },
        {
          "name": "G#4",
          "midi": 68,
          "time": 27.37199999999983,
          "velocity": 0.4645669291338583,
          "duration": 0.007999999999999119
        },
        {
          "name": "G#4",
          "midi": 68,
          "time": 27.37199999999983,
          "velocity": 0.4645669291338583,
          "duration": 0.007999999999999119
        },
        {
          "name": "F#5",
          "midi": 78,
          "time": 27.38199999999983,
          "velocity": 0.5039370078740157,
          "duration": 0.07699999999999818
        },
        {
          "name": "F#5",
          "midi": 78,
          "time": 27.38199999999983,
          "velocity": 0.5039370078740157,
          "duration": 0.07699999999999818
        },
        {
          "name": "C7",
          "midi": 96,
          "time": 27.391999999999832,
          "velocity": 0.4881889763779528,
          "duration": 0.027999999999998693
        },
        {
          "name": "G#5",
          "midi": 80,
          "time": 27.391999999999832,
          "velocity": 0.47244094488188976,
          "duration": 0.007999999999999119
        },
        {
          "name": "C7",
          "midi": 96,
          "time": 27.391999999999832,
          "velocity": 0.4881889763779528,
          "duration": 0.027999999999998693
        },
        {
          "name": "G#5",
          "midi": 80,
          "time": 27.391999999999832,
          "velocity": 0.47244094488188976,
          "duration": 0.007999999999999119
        },
        {
          "name": "E7",
          "midi": 100,
          "time": 27.411999999999832,
          "velocity": 0.5039370078740157,
          "duration": 0.02799999999999514
        },
        {
          "name": "E7",
          "midi": 100,
          "time": 27.411999999999832,
          "velocity": 0.5039370078740157,
          "duration": 0.02799999999999514
        },
        {
          "name": "D4",
          "midi": 62,
          "time": 27.42199999999983,
          "velocity": 0.48031496062992124,
          "duration": 0.01799999999999713
        },
        {
          "name": "G#5",
          "midi": 80,
          "time": 27.42199999999983,
          "velocity": 0.48031496062992124,
          "duration": 0.007999999999999119
        },
        {
          "name": "D4",
          "midi": 62,
          "time": 27.42199999999983,
          "velocity": 0.48031496062992124,
          "duration": 0.01799999999999713
        },
        {
          "name": "G#5",
          "midi": 80,
          "time": 27.42199999999983,
          "velocity": 0.48031496062992124,
          "duration": 0.007999999999999119
        },
        {
          "name": "G#4",
          "midi": 68,
          "time": 27.431999999999828,
          "velocity": 0.4881889763779528,
          "duration": 0.10700000000000287
        },
        {
          "name": "G#4",
          "midi": 68,
          "time": 27.431999999999828,
          "velocity": 0.4881889763779528,
          "duration": 0.10700000000000287
        },
        {
          "name": "D6",
          "midi": 86,
          "time": 27.44099999999983,
          "velocity": 0.5511811023622047,
          "duration": 0.08699999999999974
        },
        {
          "name": "D6",
          "midi": 86,
          "time": 27.44099999999983,
          "velocity": 0.5511811023622047,
          "duration": 0.08699999999999974
        },
        {
          "name": "D7",
          "midi": 98,
          "time": 27.45099999999983,
          "velocity": 0.5984251968503937,
          "duration": 0.08699999999999974
        },
        {
          "name": "D7",
          "midi": 98,
          "time": 27.45099999999983,
          "velocity": 0.5984251968503937,
          "duration": 0.08699999999999974
        },
        {
          "name": "D5",
          "midi": 74,
          "time": 27.47099999999983,
          "velocity": 0.5275590551181102,
          "duration": 0.08699999999999974
        },
        {
          "name": "A7",
          "midi": 105,
          "time": 27.47099999999983,
          "velocity": 0.49606299212598426,
          "duration": 0.036999999999999034
        },
        {
          "name": "D5",
          "midi": 74,
          "time": 27.47099999999983,
          "velocity": 0.5275590551181102,
          "duration": 0.08699999999999974
        },
        {
          "name": "A7",
          "midi": 105,
          "time": 27.47099999999983,
          "velocity": 0.49606299212598426,
          "duration": 0.036999999999999034
        },
        {
          "name": "D6",
          "midi": 86,
          "time": 27.51999999999983,
          "velocity": 0.4881889763779528,
          "duration": 0.018000000000000682
        },
        {
          "name": "D6",
          "midi": 86,
          "time": 27.51999999999983,
          "velocity": 0.4881889763779528,
          "duration": 0.018000000000000682
        },
        {
          "name": "A#4",
          "midi": 70,
          "time": 27.539999999999832,
          "velocity": 0.6299212598425197,
          "duration": 0.3039999999999914
        },
        {
          "name": "A#4",
          "midi": 70,
          "time": 27.539999999999832,
          "velocity": 0.6299212598425197,
          "duration": 0.3039999999999914
        },
        {
          "name": "A#5",
          "midi": 82,
          "time": 27.54999999999983,
          "velocity": 0.5118110236220472,
          "duration": 0.17599999999999483
        },
        {
          "name": "G5",
          "midi": 79,
          "time": 27.54999999999983,
          "velocity": 0.5039370078740157,
          "duration": 0.20499999999999474
        },
        {
          "name": "F7",
          "midi": 101,
          "time": 27.54999999999983,
          "velocity": 0.5669291338582677,
          "duration": 0.027999999999998693
        },
        {
          "name": "A#5",
          "midi": 82,
          "time": 27.54999999999983,
          "velocity": 0.5118110236220472,
          "duration": 0.17599999999999483
        },
        {
          "name": "G5",
          "midi": 79,
          "time": 27.54999999999983,
          "velocity": 0.5039370078740157,
          "duration": 0.20499999999999474
        },
        {
          "name": "F7",
          "midi": 101,
          "time": 27.54999999999983,
          "velocity": 0.5669291338582677,
          "duration": 0.027999999999998693
        },
        {
          "name": "F6",
          "midi": 89,
          "time": 27.559999999999828,
          "velocity": 0.5590551181102362,
          "duration": 0.036999999999999034
        },
        {
          "name": "F6",
          "midi": 89,
          "time": 27.559999999999828,
          "velocity": 0.5590551181102362,
          "duration": 0.036999999999999034
        },
        {
          "name": "A#6",
          "midi": 94,
          "time": 27.56999999999983,
          "velocity": 0.5984251968503937,
          "duration": 0.027999999999998693
        },
        {
          "name": "A#6",
          "midi": 94,
          "time": 27.56999999999983,
          "velocity": 0.5984251968503937,
          "duration": 0.027999999999998693
        },
        {
          "name": "G4",
          "midi": 67,
          "time": 27.588999999999828,
          "velocity": 0.5275590551181102,
          "duration": 0.16599999999999682
        },
        {
          "name": "G4",
          "midi": 67,
          "time": 27.588999999999828,
          "velocity": 0.5275590551181102,
          "duration": 0.16599999999999682
        },
        {
          "name": "F7",
          "midi": 101,
          "time": 27.608999999999828,
          "velocity": 0.5275590551181102,
          "duration": 0.027999999999998693
        },
        {
          "name": "D5",
          "midi": 74,
          "time": 27.608999999999828,
          "velocity": 0.5354330708661418,
          "duration": 0.14599999999999724
        },
        {
          "name": "F7",
          "midi": 101,
          "time": 27.608999999999828,
          "velocity": 0.5275590551181102,
          "duration": 0.027999999999998693
        },
        {
          "name": "D5",
          "midi": 74,
          "time": 27.608999999999828,
          "velocity": 0.5354330708661418,
          "duration": 0.14599999999999724
        },
        {
          "name": "C5",
          "midi": 72,
          "time": 27.648999999999827,
          "velocity": 0.4645669291338583,
          "duration": 0.018000000000000682
        },
        {
          "name": "C5",
          "midi": 72,
          "time": 27.648999999999827,
          "velocity": 0.4645669291338583,
          "duration": 0.018000000000000682
        },
        {
          "name": "D4",
          "midi": 62,
          "time": 27.697999999999826,
          "velocity": 0.4251968503937008,
          "duration": 0.007999999999999119
        },
        {
          "name": "D4",
          "midi": 62,
          "time": 27.697999999999826,
          "velocity": 0.4251968503937008,
          "duration": 0.007999999999999119
        },
        {
          "name": "G6",
          "midi": 91,
          "time": 27.717999999999826,
          "velocity": 0.4881889763779528,
          "duration": 0.06699999999999662
        },
        {
          "name": "G6",
          "midi": 91,
          "time": 27.717999999999826,
          "velocity": 0.4881889763779528,
          "duration": 0.06699999999999662
        },
        {
          "name": "A6",
          "midi": 93,
          "time": 27.736999999999824,
          "velocity": 0.4566929133858268,
          "duration": 0.007999999999999119
        },
        {
          "name": "A6",
          "midi": 93,
          "time": 27.736999999999824,
          "velocity": 0.4566929133858268,
          "duration": 0.007999999999999119
        },
        {
          "name": "D7",
          "midi": 98,
          "time": 27.756999999999824,
          "velocity": 0.49606299212598426,
          "duration": 0.027999999999998693
        },
        {
          "name": "D7",
          "midi": 98,
          "time": 27.756999999999824,
          "velocity": 0.49606299212598426,
          "duration": 0.027999999999998693
        },
        {
          "name": "C7",
          "midi": 96,
          "time": 27.776999999999823,
          "velocity": 0.5118110236220472,
          "duration": 0.007999999999999119
        },
        {
          "name": "A#6",
          "midi": 94,
          "time": 27.776999999999823,
          "velocity": 0.5039370078740157,
          "duration": 0.09700000000000131
        },
        {
          "name": "C7",
          "midi": 96,
          "time": 27.776999999999823,
          "velocity": 0.5118110236220472,
          "duration": 0.007999999999999119
        },
        {
          "name": "A#6",
          "midi": 94,
          "time": 27.776999999999823,
          "velocity": 0.5039370078740157,
          "duration": 0.09700000000000131
        },
        {
          "name": "A#5",
          "midi": 82,
          "time": 27.78699999999982,
          "velocity": 0.5118110236220472,
          "duration": 0.10700000000000287
        },
        {
          "name": "A#5",
          "midi": 82,
          "time": 27.78699999999982,
          "velocity": 0.5118110236220472,
          "duration": 0.10700000000000287
        },
        {
          "name": "A6",
          "midi": 93,
          "time": 27.796999999999823,
          "velocity": 0.49606299212598426,
          "duration": 0.007999999999999119
        },
        {
          "name": "G4",
          "midi": 67,
          "time": 27.796999999999823,
          "velocity": 0.5354330708661418,
          "duration": 0.24500000000000455
        },
        {
          "name": "A6",
          "midi": 93,
          "time": 27.796999999999823,
          "velocity": 0.49606299212598426,
          "duration": 0.007999999999999119
        },
        {
          "name": "G4",
          "midi": 67,
          "time": 27.796999999999823,
          "velocity": 0.5354330708661418,
          "duration": 0.24500000000000455
        },
        {
          "name": "G5",
          "midi": 79,
          "time": 27.805999999999823,
          "velocity": 0.4881889763779528,
          "duration": 0.09700000000000131
        },
        {
          "name": "G5",
          "midi": 79,
          "time": 27.805999999999823,
          "velocity": 0.4881889763779528,
          "duration": 0.09700000000000131
        },
        {
          "name": "D5",
          "midi": 74,
          "time": 27.815999999999825,
          "velocity": 0.5039370078740157,
          "duration": 0.23500000000000298
        },
        {
          "name": "D5",
          "midi": 74,
          "time": 27.815999999999825,
          "velocity": 0.5039370078740157,
          "duration": 0.23500000000000298
        },
        {
          "name": "A#7",
          "midi": 106,
          "time": 27.855999999999824,
          "velocity": 0.4645669291338583,
          "duration": 0.007999999999999119
        },
        {
          "name": "A#7",
          "midi": 106,
          "time": 27.855999999999824,
          "velocity": 0.4645669291338583,
          "duration": 0.007999999999999119
        },
        {
          "name": "D4",
          "midi": 62,
          "time": 27.875999999999824,
          "velocity": 0.4566929133858268,
          "duration": 0.028000000000002245
        },
        {
          "name": "D4",
          "midi": 62,
          "time": 27.875999999999824,
          "velocity": 0.4566929133858268,
          "duration": 0.028000000000002245
        },
        {
          "name": "A5",
          "midi": 81,
          "time": 27.904999999999827,
          "velocity": 0.4566929133858268,
          "duration": 0.007999999999999119
        },
        {
          "name": "A#4",
          "midi": 70,
          "time": 27.904999999999827,
          "velocity": 0.5826771653543307,
          "duration": 0.1460000000000008
        },
        {
          "name": "A5",
          "midi": 81,
          "time": 27.904999999999827,
          "velocity": 0.4566929133858268,
          "duration": 0.007999999999999119
        },
        {
          "name": "A#4",
          "midi": 70,
          "time": 27.904999999999827,
          "velocity": 0.5826771653543307,
          "duration": 0.1460000000000008
        },
        {
          "name": "G#4",
          "midi": 68,
          "time": 27.914999999999825,
          "velocity": 0.47244094488188976,
          "duration": 0.007999999999999119
        },
        {
          "name": "G#4",
          "midi": 68,
          "time": 27.914999999999825,
          "velocity": 0.47244094488188976,
          "duration": 0.007999999999999119
        },
        {
          "name": "G5",
          "midi": 79,
          "time": 27.924999999999823,
          "velocity": 0.48031496062992124,
          "duration": 0.036999999999999034
        },
        {
          "name": "C7",
          "midi": 96,
          "time": 27.924999999999823,
          "velocity": 0.5511811023622047,
          "duration": 0.0470000000000006
        },
        {
          "name": "G5",
          "midi": 79,
          "time": 27.924999999999823,
          "velocity": 0.48031496062992124,
          "duration": 0.036999999999999034
        },
        {
          "name": "C7",
          "midi": 96,
          "time": 27.924999999999823,
          "velocity": 0.5511811023622047,
          "duration": 0.0470000000000006
        },
        {
          "name": "D6",
          "midi": 86,
          "time": 27.934999999999825,
          "velocity": 0.48031496062992124,
          "duration": 0.007999999999999119
        },
        {
          "name": "D6",
          "midi": 86,
          "time": 27.934999999999825,
          "velocity": 0.48031496062992124,
          "duration": 0.007999999999999119
        },
        {
          "name": "G6",
          "midi": 91,
          "time": 27.953999999999823,
          "velocity": 0.4881889763779528,
          "duration": 0.037000000000002586
        },
        {
          "name": "G6",
          "midi": 91,
          "time": 27.953999999999823,
          "velocity": 0.4881889763779528,
          "duration": 0.037000000000002586
        },
        {
          "name": "A5",
          "midi": 81,
          "time": 27.973999999999823,
          "velocity": 0.4566929133858268,
          "duration": 0.018000000000004235
        },
        {
          "name": "A5",
          "midi": 81,
          "time": 27.973999999999823,
          "velocity": 0.4566929133858268,
          "duration": 0.018000000000004235
        },
        {
          "name": "A#5",
          "midi": 82,
          "time": 27.983999999999824,
          "velocity": 0.4645669291338583,
          "duration": 0.05700000000000216
        },
        {
          "name": "A#5",
          "midi": 82,
          "time": 27.983999999999824,
          "velocity": 0.4645669291338583,
          "duration": 0.05700000000000216
        },
        {
          "name": "G5",
          "midi": 79,
          "time": 28.003999999999827,
          "velocity": 0.4566929133858268,
          "duration": 0.07699999999999818
        },
        {
          "name": "G5",
          "midi": 79,
          "time": 28.003999999999827,
          "velocity": 0.4566929133858268,
          "duration": 0.07699999999999818
        },
        {
          "name": "A5",
          "midi": 81,
          "time": 28.022999999999826,
          "velocity": 0.4330708661417323,
          "duration": 0.007999999999999119
        },
        {
          "name": "A5",
          "midi": 81,
          "time": 28.022999999999826,
          "velocity": 0.4330708661417323,
          "duration": 0.007999999999999119
        },
        {
          "name": "A#4",
          "midi": 70,
          "time": 28.04299999999983,
          "velocity": 0.4409448818897638,
          "duration": 0.19599999999999795
        },
        {
          "name": "A#4",
          "midi": 70,
          "time": 28.04299999999983,
          "velocity": 0.4409448818897638,
          "duration": 0.19599999999999795
        },
        {
          "name": "D7",
          "midi": 98,
          "time": 28.052999999999827,
          "velocity": 0.5511811023622047,
          "duration": 0.05700000000000216
        },
        {
          "name": "C#7",
          "midi": 97,
          "time": 28.052999999999827,
          "velocity": 0.4409448818897638,
          "duration": 0.007999999999999119
        },
        {
          "name": "D7",
          "midi": 98,
          "time": 28.052999999999827,
          "velocity": 0.5511811023622047,
          "duration": 0.05700000000000216
        },
        {
          "name": "C#7",
          "midi": 97,
          "time": 28.052999999999827,
          "velocity": 0.4409448818897638,
          "duration": 0.007999999999999119
        },
        {
          "name": "D4",
          "midi": 62,
          "time": 28.062999999999825,
          "velocity": 0.4881889763779528,
          "duration": 0.037000000000002586
        },
        {
          "name": "G#7",
          "midi": 104,
          "time": 28.062999999999825,
          "velocity": 0.4566929133858268,
          "duration": 0.018000000000000682
        },
        {
          "name": "D4",
          "midi": 62,
          "time": 28.062999999999825,
          "velocity": 0.4881889763779528,
          "duration": 0.037000000000002586
        },
        {
          "name": "G#7",
          "midi": 104,
          "time": 28.062999999999825,
          "velocity": 0.4566929133858268,
          "duration": 0.018000000000000682
        },
        {
          "name": "F6",
          "midi": 89,
          "time": 28.072999999999826,
          "velocity": 0.5511811023622047,
          "duration": 0.0870000000000033
        },
        {
          "name": "F6",
          "midi": 89,
          "time": 28.072999999999826,
          "velocity": 0.5511811023622047,
          "duration": 0.0870000000000033
        },
        {
          "name": "F#4",
          "midi": 66,
          "time": 28.092999999999826,
          "velocity": 0.5118110236220472,
          "duration": 0.008000000000002672
        },
        {
          "name": "C7",
          "midi": 96,
          "time": 28.092999999999826,
          "velocity": 0.5118110236220472,
          "duration": 0.028000000000002245
        },
        {
          "name": "F#4",
          "midi": 66,
          "time": 28.092999999999826,
          "velocity": 0.5118110236220472,
          "duration": 0.008000000000002672
        },
        {
          "name": "C7",
          "midi": 96,
          "time": 28.092999999999826,
          "velocity": 0.5118110236220472,
          "duration": 0.028000000000002245
        },
        {
          "name": "G6",
          "midi": 91,
          "time": 28.111999999999828,
          "velocity": 0.5118110236220472,
          "duration": 0.018000000000000682
        },
        {
          "name": "G6",
          "midi": 91,
          "time": 28.111999999999828,
          "velocity": 0.5118110236220472,
          "duration": 0.018000000000000682
        },
        {
          "name": "A#6",
          "midi": 94,
          "time": 28.12199999999983,
          "velocity": 0.5590551181102362,
          "duration": 0.06700000000000017
        },
        {
          "name": "D5",
          "midi": 74,
          "time": 28.12199999999983,
          "velocity": 0.49606299212598426,
          "duration": 0.007999999999999119
        },
        {
          "name": "A#6",
          "midi": 94,
          "time": 28.12199999999983,
          "velocity": 0.5590551181102362,
          "duration": 0.06700000000000017
        },
        {
          "name": "D5",
          "midi": 74,
          "time": 28.12199999999983,
          "velocity": 0.49606299212598426,
          "duration": 0.007999999999999119
        },
        {
          "name": "A#5",
          "midi": 82,
          "time": 28.131999999999827,
          "velocity": 0.49606299212598426,
          "duration": 0.028000000000002245
        },
        {
          "name": "A#5",
          "midi": 82,
          "time": 28.131999999999827,
          "velocity": 0.49606299212598426,
          "duration": 0.028000000000002245
        },
        {
          "name": "D6",
          "midi": 86,
          "time": 28.14199999999983,
          "velocity": 0.6141732283464567,
          "duration": 0.1559999999999988
        },
        {
          "name": "D6",
          "midi": 86,
          "time": 28.14199999999983,
          "velocity": 0.6141732283464567,
          "duration": 0.1559999999999988
        },
        {
          "name": "G4",
          "midi": 67,
          "time": 28.15199999999983,
          "velocity": 0.47244094488188976,
          "duration": 0.06700000000000017
        },
        {
          "name": "G4",
          "midi": 67,
          "time": 28.15199999999983,
          "velocity": 0.47244094488188976,
          "duration": 0.06700000000000017
        },
        {
          "name": "A#6",
          "midi": 94,
          "time": 28.17099999999983,
          "velocity": 0.4881889763779528,
          "duration": 0.05799999999999983
        },
        {
          "name": "A#6",
          "midi": 94,
          "time": 28.17099999999983,
          "velocity": 0.4881889763779528,
          "duration": 0.05799999999999983
        },
        {
          "name": "D4",
          "midi": 62,
          "time": 28.18099999999983,
          "velocity": 0.48031496062992124,
          "duration": 0.09699999999999775
        },
        {
          "name": "D4",
          "midi": 62,
          "time": 28.18099999999983,
          "velocity": 0.48031496062992124,
          "duration": 0.09699999999999775
        },
        {
          "name": "G6",
          "midi": 91,
          "time": 28.20099999999983,
          "velocity": 0.4251968503937008,
          "duration": 0.007999999999999119
        },
        {
          "name": "G6",
          "midi": 91,
          "time": 28.20099999999983,
          "velocity": 0.4251968503937008,
          "duration": 0.007999999999999119
        },
        {
          "name": "D7",
          "midi": 98,
          "time": 28.22099999999983,
          "velocity": 0.5118110236220472,
          "duration": 0.046999999999997044
        },
        {
          "name": "D7",
          "midi": 98,
          "time": 28.22099999999983,
          "velocity": 0.5118110236220472,
          "duration": 0.046999999999997044
        },
        {
          "name": "A#4",
          "midi": 70,
          "time": 28.230999999999828,
          "velocity": 0.4881889763779528,
          "duration": 0.36200000000000543
        },
        {
          "name": "A#4",
          "midi": 70,
          "time": 28.230999999999828,
          "velocity": 0.4881889763779528,
          "duration": 0.36200000000000543
        },
        {
          "name": "G4",
          "midi": 67,
          "time": 28.249999999999826,
          "velocity": 0.5275590551181102,
          "duration": 0.13600000000000279
        },
        {
          "name": "G4",
          "midi": 67,
          "time": 28.249999999999826,
          "velocity": 0.5275590551181102,
          "duration": 0.13600000000000279
        },
        {
          "name": "A6",
          "midi": 93,
          "time": 28.259999999999827,
          "velocity": 0.5275590551181102,
          "duration": 0.028000000000002245
        },
        {
          "name": "A6",
          "midi": 93,
          "time": 28.259999999999827,
          "velocity": 0.5275590551181102,
          "duration": 0.028000000000002245
        },
        {
          "name": "G5",
          "midi": 79,
          "time": 28.28999999999983,
          "velocity": 0.48031496062992124,
          "duration": 0.036999999999999034
        },
        {
          "name": "D5",
          "midi": 74,
          "time": 28.28999999999983,
          "velocity": 0.5275590551181102,
          "duration": 0.10699999999999932
        },
        {
          "name": "G5",
          "midi": 79,
          "time": 28.28999999999983,
          "velocity": 0.48031496062992124,
          "duration": 0.036999999999999034
        },
        {
          "name": "D5",
          "midi": 74,
          "time": 28.28999999999983,
          "velocity": 0.5275590551181102,
          "duration": 0.10699999999999932
        },
        {
          "name": "D4",
          "midi": 62,
          "time": 28.299999999999827,
          "velocity": 0.48031496062992124,
          "duration": 0.18500000000000227
        },
        {
          "name": "D4",
          "midi": 62,
          "time": 28.299999999999827,
          "velocity": 0.48031496062992124,
          "duration": 0.18500000000000227
        },
        {
          "name": "G6",
          "midi": 91,
          "time": 28.309999999999828,
          "velocity": 0.4566929133858268,
          "duration": 0.027999999999998693
        },
        {
          "name": "G6",
          "midi": 91,
          "time": 28.309999999999828,
          "velocity": 0.4566929133858268,
          "duration": 0.027999999999998693
        },
        {
          "name": "A#5",
          "midi": 82,
          "time": 28.338999999999828,
          "velocity": 0.4409448818897638,
          "duration": 0.018000000000000682
        },
        {
          "name": "A#5",
          "midi": 82,
          "time": 28.338999999999828,
          "velocity": 0.4409448818897638,
          "duration": 0.018000000000000682
        },
        {
          "name": "F3",
          "midi": 53,
          "time": 28.34899999999983,
          "velocity": 0.4330708661417323,
          "duration": 0.018000000000000682
        },
        {
          "name": "F3",
          "midi": 53,
          "time": 28.34899999999983,
          "velocity": 0.4330708661417323,
          "duration": 0.018000000000000682
        },
        {
          "name": "A#6",
          "midi": 94,
          "time": 28.36899999999983,
          "velocity": 0.4251968503937008,
          "duration": 0.007999999999999119
        },
        {
          "name": "A#6",
          "midi": 94,
          "time": 28.36899999999983,
          "velocity": 0.4251968503937008,
          "duration": 0.007999999999999119
        },
        {
          "name": "D7",
          "midi": 98,
          "time": 28.387999999999828,
          "velocity": 0.5039370078740157,
          "duration": 0.05700000000000216
        },
        {
          "name": "D7",
          "midi": 98,
          "time": 28.387999999999828,
          "velocity": 0.5039370078740157,
          "duration": 0.05700000000000216
        },
        {
          "name": "F6",
          "midi": 89,
          "time": 28.39799999999983,
          "velocity": 0.5433070866141733,
          "duration": 0.07700000000000173
        },
        {
          "name": "F6",
          "midi": 89,
          "time": 28.39799999999983,
          "velocity": 0.5433070866141733,
          "duration": 0.07700000000000173
        },
        {
          "name": "G#7",
          "midi": 104,
          "time": 28.41799999999983,
          "velocity": 0.48031496062992124,
          "duration": 0.018000000000000682
        },
        {
          "name": "G#7",
          "midi": 104,
          "time": 28.41799999999983,
          "velocity": 0.48031496062992124,
          "duration": 0.018000000000000682
        },
        {
          "name": "G5",
          "midi": 79,
          "time": 28.43799999999983,
          "velocity": 0.5039370078740157,
          "duration": 0.018000000000000682
        },
        {
          "name": "G5",
          "midi": 79,
          "time": 28.43799999999983,
          "velocity": 0.5039370078740157,
          "duration": 0.018000000000000682
        },
        {
          "name": "G4",
          "midi": 67,
          "time": 28.45699999999983,
          "velocity": 0.5748031496062992,
          "duration": 0.16600000000000392
        },
        {
          "name": "G4",
          "midi": 67,
          "time": 28.45699999999983,
          "velocity": 0.5748031496062992,
          "duration": 0.16600000000000392
        },
        {
          "name": "G6",
          "midi": 91,
          "time": 28.46699999999983,
          "velocity": 0.4881889763779528,
          "duration": 0.01799999999999713
        },
        {
          "name": "G6",
          "midi": 91,
          "time": 28.46699999999983,
          "velocity": 0.4881889763779528,
          "duration": 0.01799999999999713
        },
        {
          "name": "A#6",
          "midi": 94,
          "time": 28.47699999999983,
          "velocity": 0.48031496062992124,
          "duration": 0.036999999999999034
        },
        {
          "name": "A#6",
          "midi": 94,
          "time": 28.47699999999983,
          "velocity": 0.48031496062992124,
          "duration": 0.036999999999999034
        },
        {
          "name": "D6",
          "midi": 86,
          "time": 28.486999999999828,
          "velocity": 0.47244094488188976,
          "duration": 0.007999999999999119
        },
        {
          "name": "D6",
          "midi": 86,
          "time": 28.486999999999828,
          "velocity": 0.47244094488188976,
          "duration": 0.007999999999999119
        },
        {
          "name": "D5",
          "midi": 74,
          "time": 28.496999999999826,
          "velocity": 0.4881889763779528,
          "duration": 0.07700000000000529
        },
        {
          "name": "A6",
          "midi": 93,
          "time": 28.496999999999826,
          "velocity": 0.49606299212598426,
          "duration": 0.03700000000000614
        },
        {
          "name": "D5",
          "midi": 74,
          "time": 28.496999999999826,
          "velocity": 0.4881889763779528,
          "duration": 0.07700000000000529
        },
        {
          "name": "A6",
          "midi": 93,
          "time": 28.496999999999826,
          "velocity": 0.49606299212598426,
          "duration": 0.03700000000000614
        },
        {
          "name": "A#5",
          "midi": 82,
          "time": 28.506999999999827,
          "velocity": 0.48031496062992124,
          "duration": 0.008000000000002672
        },
        {
          "name": "A#5",
          "midi": 82,
          "time": 28.506999999999827,
          "velocity": 0.48031496062992124,
          "duration": 0.008000000000002672
        },
        {
          "name": "D7",
          "midi": 98,
          "time": 28.52699999999983,
          "velocity": 0.47244094488188976,
          "duration": 0.037000000000002586
        },
        {
          "name": "G5",
          "midi": 79,
          "time": 28.52699999999983,
          "velocity": 0.5275590551181102,
          "duration": 0.11600000000000676
        },
        {
          "name": "D7",
          "midi": 98,
          "time": 28.52699999999983,
          "velocity": 0.47244094488188976,
          "duration": 0.037000000000002586
        },
        {
          "name": "G5",
          "midi": 79,
          "time": 28.52699999999983,
          "velocity": 0.5275590551181102,
          "duration": 0.11600000000000676
        },
        {
          "name": "D4",
          "midi": 62,
          "time": 28.565999999999832,
          "velocity": 0.48031496062992124,
          "duration": 0.037000000000002586
        },
        {
          "name": "D4",
          "midi": 62,
          "time": 28.565999999999832,
          "velocity": 0.48031496062992124,
          "duration": 0.037000000000002586
        },
        {
          "name": "A6",
          "midi": 93,
          "time": 28.58599999999983,
          "velocity": 0.49606299212598426,
          "duration": 0.04700000000000415
        },
        {
          "name": "A6",
          "midi": 93,
          "time": 28.58599999999983,
          "velocity": 0.49606299212598426,
          "duration": 0.04700000000000415
        },
        {
          "name": "G6",
          "midi": 91,
          "time": 28.604999999999833,
          "velocity": 0.5275590551181102,
          "duration": 0.07700000000000173
        },
        {
          "name": "D7",
          "midi": 98,
          "time": 28.604999999999833,
          "velocity": 0.5433070866141733,
          "duration": 0.028000000000002245
        },
        {
          "name": "G6",
          "midi": 91,
          "time": 28.604999999999833,
          "velocity": 0.5275590551181102,
          "duration": 0.07700000000000173
        },
        {
          "name": "D7",
          "midi": 98,
          "time": 28.604999999999833,
          "velocity": 0.5433070866141733,
          "duration": 0.028000000000002245
        },
        {
          "name": "A#4",
          "midi": 70,
          "time": 28.614999999999835,
          "velocity": 0.5354330708661418,
          "duration": 0.31400000000000006
        },
        {
          "name": "A#4",
          "midi": 70,
          "time": 28.614999999999835,
          "velocity": 0.5354330708661418,
          "duration": 0.31400000000000006
        },
        {
          "name": "D4",
          "midi": 62,
          "time": 28.644999999999836,
          "velocity": 0.47244094488188976,
          "duration": 0.1159999999999961
        },
        {
          "name": "D5",
          "midi": 74,
          "time": 28.644999999999836,
          "velocity": 0.5039370078740157,
          "duration": 0.20499999999999474
        },
        {
          "name": "B6",
          "midi": 95,
          "time": 28.644999999999836,
          "velocity": 0.47244094488188976,
          "duration": 0.027999999999998693
        },
        {
          "name": "D4",
          "midi": 62,
          "time": 28.644999999999836,
          "velocity": 0.47244094488188976,
          "duration": 0.1159999999999961
        },
        {
          "name": "D5",
          "midi": 74,
          "time": 28.644999999999836,
          "velocity": 0.5039370078740157,
          "duration": 0.20499999999999474
        },
        {
          "name": "B6",
          "midi": 95,
          "time": 28.644999999999836,
          "velocity": 0.47244094488188976,
          "duration": 0.027999999999998693
        },
        {
          "name": "G4",
          "midi": 67,
          "time": 28.664999999999836,
          "velocity": 0.5511811023622047,
          "duration": 0.26399999999999935
        },
        {
          "name": "G4",
          "midi": 67,
          "time": 28.664999999999836,
          "velocity": 0.5511811023622047,
          "duration": 0.26399999999999935
        },
        {
          "name": "G5",
          "midi": 79,
          "time": 28.683999999999834,
          "velocity": 0.44881889763779526,
          "duration": 0.018000000000000682
        },
        {
          "name": "G5",
          "midi": 79,
          "time": 28.683999999999834,
          "velocity": 0.44881889763779526,
          "duration": 0.018000000000000682
        },
        {
          "name": "A#5",
          "midi": 82,
          "time": 28.693999999999836,
          "velocity": 0.48031496062992124,
          "duration": 0.046999999999997044
        },
        {
          "name": "A#5",
          "midi": 82,
          "time": 28.693999999999836,
          "velocity": 0.48031496062992124,
          "duration": 0.046999999999997044
        },
        {
          "name": "A#6",
          "midi": 94,
          "time": 28.723999999999833,
          "velocity": 0.4645669291338583,
          "duration": 0.007999999999999119
        },
        {
          "name": "A#6",
          "midi": 94,
          "time": 28.723999999999833,
          "velocity": 0.4645669291338583,
          "duration": 0.007999999999999119
        },
        {
          "name": "G6",
          "midi": 91,
          "time": 28.743999999999833,
          "velocity": 0.5118110236220472,
          "duration": 0.1559999999999988
        },
        {
          "name": "G6",
          "midi": 91,
          "time": 28.743999999999833,
          "velocity": 0.5118110236220472,
          "duration": 0.1559999999999988
        },
        {
          "name": "D7",
          "midi": 98,
          "time": 28.752999999999833,
          "velocity": 0.5118110236220472,
          "duration": 0.027999999999998693
        },
        {
          "name": "D7",
          "midi": 98,
          "time": 28.752999999999833,
          "velocity": 0.5118110236220472,
          "duration": 0.027999999999998693
        },
        {
          "name": "A#6",
          "midi": 94,
          "time": 28.772999999999833,
          "velocity": 0.7007874015748031,
          "duration": 0.11599999999999966
        },
        {
          "name": "A#6",
          "midi": 94,
          "time": 28.772999999999833,
          "velocity": 0.7007874015748031,
          "duration": 0.11599999999999966
        },
        {
          "name": "D6",
          "midi": 86,
          "time": 28.812999999999832,
          "velocity": 0.6299212598425197,
          "duration": 0.08699999999999974
        },
        {
          "name": "D6",
          "midi": 86,
          "time": 28.812999999999832,
          "velocity": 0.6299212598425197,
          "duration": 0.08699999999999974
        },
        {
          "name": "C8",
          "midi": 108,
          "time": 28.900999999999833,
          "velocity": 0.5590551181102362,
          "duration": 0.037000000000002586
        },
        {
          "name": "C7",
          "midi": 96,
          "time": 28.900999999999833,
          "velocity": 0.5354330708661418,
          "duration": 0.07700000000000529
        },
        {
          "name": "C8",
          "midi": 108,
          "time": 28.900999999999833,
          "velocity": 0.5590551181102362,
          "duration": 0.037000000000002586
        },
        {
          "name": "C7",
          "midi": 96,
          "time": 28.900999999999833,
          "velocity": 0.5354330708661418,
          "duration": 0.07700000000000529
        },
        {
          "name": "C6",
          "midi": 84,
          "time": 28.910999999999834,
          "velocity": 0.6850393700787402,
          "duration": 0.09700000000000486
        },
        {
          "name": "C6",
          "midi": 84,
          "time": 28.910999999999834,
          "velocity": 0.6850393700787402,
          "duration": 0.09700000000000486
        },
        {
          "name": "G7",
          "midi": 103,
          "time": 28.920999999999836,
          "velocity": 0.5669291338582677,
          "duration": 0.0470000000000006
        },
        {
          "name": "G7",
          "midi": 103,
          "time": 28.920999999999836,
          "velocity": 0.5669291338582677,
          "duration": 0.0470000000000006
        },
        {
          "name": "C5",
          "midi": 72,
          "time": 28.940999999999836,
          "velocity": 0.6692913385826772,
          "duration": 0.19499999999999673
        },
        {
          "name": "C5",
          "midi": 72,
          "time": 28.940999999999836,
          "velocity": 0.6692913385826772,
          "duration": 0.19499999999999673
        },
        {
          "name": "D5",
          "midi": 74,
          "time": 28.950999999999837,
          "velocity": 0.5118110236220472,
          "duration": 0.1460000000000008
        },
        {
          "name": "G#4",
          "midi": 68,
          "time": 28.950999999999837,
          "velocity": 0.6535433070866141,
          "duration": 0.09700000000000131
        },
        {
          "name": "D5",
          "midi": 74,
          "time": 28.950999999999837,
          "velocity": 0.5118110236220472,
          "duration": 0.1460000000000008
        },
        {
          "name": "G#4",
          "midi": 68,
          "time": 28.950999999999837,
          "velocity": 0.6535433070866141,
          "duration": 0.09700000000000131
        },
        {
          "name": "F#5",
          "midi": 78,
          "time": 28.979999999999837,
          "velocity": 0.5118110236220472,
          "duration": 0.028000000000002245
        },
        {
          "name": "F#5",
          "midi": 78,
          "time": 28.979999999999837,
          "velocity": 0.5118110236220472,
          "duration": 0.028000000000002245
        },
        {
          "name": "C#6",
          "midi": 85,
          "time": 28.98999999999984,
          "velocity": 0.47244094488188976,
          "duration": 0.007999999999999119
        },
        {
          "name": "C#6",
          "midi": 85,
          "time": 28.98999999999984,
          "velocity": 0.47244094488188976,
          "duration": 0.007999999999999119
        },
        {
          "name": "C#5",
          "midi": 73,
          "time": 29.009999999999838,
          "velocity": 0.5984251968503937,
          "duration": 0.007999999999999119
        },
        {
          "name": "C#5",
          "midi": 73,
          "time": 29.009999999999838,
          "velocity": 0.5984251968503937,
          "duration": 0.007999999999999119
        },
        {
          "name": "D7",
          "midi": 98,
          "time": 29.019999999999836,
          "velocity": 0.6062992125984252,
          "duration": 0.07700000000000173
        },
        {
          "name": "A7",
          "midi": 105,
          "time": 29.019999999999836,
          "velocity": 0.6220472440944882,
          "duration": 0.06700000000000017
        },
        {
          "name": "D7",
          "midi": 98,
          "time": 29.019999999999836,
          "velocity": 0.6062992125984252,
          "duration": 0.07700000000000173
        },
        {
          "name": "A7",
          "midi": 105,
          "time": 29.019999999999836,
          "velocity": 0.6220472440944882,
          "duration": 0.06700000000000017
        },
        {
          "name": "D6",
          "midi": 86,
          "time": 29.029999999999838,
          "velocity": 0.5826771653543307,
          "duration": 0.05699999999999861
        },
        {
          "name": "D6",
          "midi": 86,
          "time": 29.029999999999838,
          "velocity": 0.5826771653543307,
          "duration": 0.05699999999999861
        },
        {
          "name": "C6",
          "midi": 84,
          "time": 29.058999999999838,
          "velocity": 0.6062992125984252,
          "duration": 0.07699999999999463
        },
        {
          "name": "C6",
          "midi": 84,
          "time": 29.058999999999838,
          "velocity": 0.6062992125984252,
          "duration": 0.07699999999999463
        },
        {
          "name": "F#5",
          "midi": 78,
          "time": 29.098999999999837,
          "velocity": 0.5669291338582677,
          "duration": 0.08699999999999619
        },
        {
          "name": "C#6",
          "midi": 85,
          "time": 29.098999999999837,
          "velocity": 0.5039370078740157,
          "duration": 0.007999999999999119
        },
        {
          "name": "F#5",
          "midi": 78,
          "time": 29.098999999999837,
          "velocity": 0.5669291338582677,
          "duration": 0.08699999999999619
        },
        {
          "name": "C#6",
          "midi": 85,
          "time": 29.098999999999837,
          "velocity": 0.5039370078740157,
          "duration": 0.007999999999999119
        },
        {
          "name": "G7",
          "midi": 103,
          "time": 29.108999999999835,
          "velocity": 0.5039370078740157,
          "duration": 0.007999999999999119
        },
        {
          "name": "C7",
          "midi": 96,
          "time": 29.108999999999835,
          "velocity": 0.5196850393700787,
          "duration": 0.036999999999999034
        },
        {
          "name": "G7",
          "midi": 103,
          "time": 29.108999999999835,
          "velocity": 0.5039370078740157,
          "duration": 0.007999999999999119
        },
        {
          "name": "C7",
          "midi": 96,
          "time": 29.108999999999835,
          "velocity": 0.5196850393700787,
          "duration": 0.036999999999999034
        },
        {
          "name": "C6",
          "midi": 84,
          "time": 29.127999999999833,
          "velocity": 0.5354330708661418,
          "duration": 0.0470000000000006
        },
        {
          "name": "G#4",
          "midi": 68,
          "time": 29.127999999999833,
          "velocity": 0.6377952755905512,
          "duration": 0.12600000000000122
        },
        {
          "name": "C6",
          "midi": 84,
          "time": 29.127999999999833,
          "velocity": 0.5354330708661418,
          "duration": 0.0470000000000006
        },
        {
          "name": "G#4",
          "midi": 68,
          "time": 29.127999999999833,
          "velocity": 0.6377952755905512,
          "duration": 0.12600000000000122
        },
        {
          "name": "D6",
          "midi": 86,
          "time": 29.147999999999833,
          "velocity": 0.5275590551181102,
          "duration": 0.10700000000000287
        },
        {
          "name": "G7",
          "midi": 103,
          "time": 29.147999999999833,
          "velocity": 0.5039370078740157,
          "duration": 0.018000000000000682
        },
        {
          "name": "D6",
          "midi": 86,
          "time": 29.147999999999833,
          "velocity": 0.5275590551181102,
          "duration": 0.10700000000000287
        },
        {
          "name": "G7",
          "midi": 103,
          "time": 29.147999999999833,
          "velocity": 0.5039370078740157,
          "duration": 0.018000000000000682
        },
        {
          "name": "C5",
          "midi": 72,
          "time": 29.167999999999832,
          "velocity": 0.6377952755905512,
          "duration": 0.22500000000001208
        },
        {
          "name": "C5",
          "midi": 72,
          "time": 29.167999999999832,
          "velocity": 0.6377952755905512,
          "duration": 0.22500000000001208
        },
        {
          "name": "D7",
          "midi": 98,
          "time": 29.177999999999834,
          "velocity": 0.6062992125984252,
          "duration": 0.07700000000000173
        },
        {
          "name": "D7",
          "midi": 98,
          "time": 29.177999999999834,
          "velocity": 0.6062992125984252,
          "duration": 0.07700000000000173
        },
        {
          "name": "A7",
          "midi": 105,
          "time": 29.186999999999834,
          "velocity": 0.6692913385826772,
          "duration": 0.06700000000000017
        },
        {
          "name": "A7",
          "midi": 105,
          "time": 29.186999999999834,
          "velocity": 0.6692913385826772,
          "duration": 0.06700000000000017
        },
        {
          "name": "D5",
          "midi": 74,
          "time": 29.196999999999836,
          "velocity": 0.5511811023622047,
          "duration": 0.13600000000000279
        },
        {
          "name": "D5",
          "midi": 74,
          "time": 29.196999999999836,
          "velocity": 0.5511811023622047,
          "duration": 0.13600000000000279
        },
        {
          "name": "G7",
          "midi": 103,
          "time": 29.265999999999835,
          "velocity": 0.5118110236220472,
          "duration": 0.037000000000002586
        },
        {
          "name": "C8",
          "midi": 108,
          "time": 29.265999999999835,
          "velocity": 0.5275590551181102,
          "duration": 0.028000000000002245
        },
        {
          "name": "C7",
          "midi": 96,
          "time": 29.265999999999835,
          "velocity": 0.49606299212598426,
          "duration": 0.018000000000000682
        },
        {
          "name": "G7",
          "midi": 103,
          "time": 29.265999999999835,
          "velocity": 0.5118110236220472,
          "duration": 0.037000000000002586
        },
        {
          "name": "C8",
          "midi": 108,
          "time": 29.265999999999835,
          "velocity": 0.5275590551181102,
          "duration": 0.028000000000002245
        },
        {
          "name": "C7",
          "midi": 96,
          "time": 29.265999999999835,
          "velocity": 0.49606299212598426,
          "duration": 0.018000000000000682
        },
        {
          "name": "C6",
          "midi": 84,
          "time": 29.275999999999836,
          "velocity": 0.7244094488188977,
          "duration": 0.06700000000000372
        },
        {
          "name": "C6",
          "midi": 84,
          "time": 29.275999999999836,
          "velocity": 0.7244094488188977,
          "duration": 0.06700000000000372
        },
        {
          "name": "F#5",
          "midi": 78,
          "time": 29.295999999999836,
          "velocity": 0.5511811023622047,
          "duration": 0.06700000000000728
        },
        {
          "name": "F#5",
          "midi": 78,
          "time": 29.295999999999836,
          "velocity": 0.5511811023622047,
          "duration": 0.06700000000000728
        },
        {
          "name": "C7",
          "midi": 96,
          "time": 29.305999999999838,
          "velocity": 0.5118110236220472,
          "duration": 0.007999999999999119
        },
        {
          "name": "C7",
          "midi": 96,
          "time": 29.305999999999838,
          "velocity": 0.5118110236220472,
          "duration": 0.007999999999999119
        },
        {
          "name": "F#4",
          "midi": 66,
          "time": 29.315999999999836,
          "velocity": 0.5275590551181102,
          "duration": 0.028000000000005798
        },
        {
          "name": "F#4",
          "midi": 66,
          "time": 29.315999999999836,
          "velocity": 0.5275590551181102,
          "duration": 0.028000000000005798
        },
        {
          "name": "G#4",
          "midi": 68,
          "time": 29.325999999999837,
          "velocity": 0.5433070866141733,
          "duration": 0.028000000000005798
        },
        {
          "name": "G#4",
          "midi": 68,
          "time": 29.325999999999837,
          "velocity": 0.5433070866141733,
          "duration": 0.028000000000005798
        },
        {
          "name": "D6",
          "midi": 86,
          "time": 29.344999999999843,
          "velocity": 0.5984251968503937,
          "duration": 0.05800000000000338
        },
        {
          "name": "D6",
          "midi": 86,
          "time": 29.344999999999843,
          "velocity": 0.5984251968503937,
          "duration": 0.05800000000000338
        },
        {
          "name": "D7",
          "midi": 98,
          "time": 29.354999999999844,
          "velocity": 0.6062992125984252,
          "duration": 0.0470000000000006
        },
        {
          "name": "A7",
          "midi": 105,
          "time": 29.354999999999844,
          "velocity": 0.5669291338582677,
          "duration": 0.027999999999998693
        },
        {
          "name": "D7",
          "midi": 98,
          "time": 29.354999999999844,
          "velocity": 0.6062992125984252,
          "duration": 0.0470000000000006
        },
        {
          "name": "A7",
          "midi": 105,
          "time": 29.354999999999844,
          "velocity": 0.5669291338582677,
          "duration": 0.027999999999998693
        },
        {
          "name": "D7",
          "midi": 98,
          "time": 29.364999999999842,
          "velocity": 0.5669291338582677,
          "duration": 0.05700000000000216
        },
        {
          "name": "D7",
          "midi": 98,
          "time": 29.364999999999842,
          "velocity": 0.5669291338582677,
          "duration": 0.05700000000000216
        },
        {
          "name": "D5",
          "midi": 74,
          "time": 29.374999999999844,
          "velocity": 0.6220472440944882,
          "duration": 0.0870000000000033
        },
        {
          "name": "D5",
          "midi": 74,
          "time": 29.374999999999844,
          "velocity": 0.6220472440944882,
          "duration": 0.0870000000000033
        },
        {
          "name": "D6",
          "midi": 86,
          "time": 29.394999999999843,
          "velocity": 0.5196850393700787,
          "duration": 0.017000000000003013
        },
        {
          "name": "D6",
          "midi": 86,
          "time": 29.394999999999843,
          "velocity": 0.5196850393700787,
          "duration": 0.017000000000003013
        },
        {
          "name": "F#5",
          "midi": 78,
          "time": 29.403999999999847,
          "velocity": 0.5039370078740157,
          "duration": 0.036999999999999034
        },
        {
          "name": "F#5",
          "midi": 78,
          "time": 29.403999999999847,
          "velocity": 0.5039370078740157,
          "duration": 0.036999999999999034
        },
        {
          "name": "C6",
          "midi": 84,
          "time": 29.413999999999845,
          "velocity": 0.6141732283464567,
          "duration": 0.09700000000000131
        },
        {
          "name": "C6",
          "midi": 84,
          "time": 29.413999999999845,
          "velocity": 0.6141732283464567,
          "duration": 0.09700000000000131
        },
        {
          "name": "C5",
          "midi": 72,
          "time": 29.423999999999843,
          "velocity": 0.6692913385826772,
          "duration": 0.27399999999999736
        },
        {
          "name": "C#7",
          "midi": 97,
          "time": 29.423999999999843,
          "velocity": 0.4881889763779528,
          "duration": 0.018000000000004235
        },
        {
          "name": "C5",
          "midi": 72,
          "time": 29.423999999999843,
          "velocity": 0.6692913385826772,
          "duration": 0.27399999999999736
        },
        {
          "name": "C#7",
          "midi": 97,
          "time": 29.423999999999843,
          "velocity": 0.4881889763779528,
          "duration": 0.018000000000004235
        },
        {
          "name": "C7",
          "midi": 96,
          "time": 29.433999999999845,
          "velocity": 0.5826771653543307,
          "duration": 0.037000000000002586
        },
        {
          "name": "C7",
          "midi": 96,
          "time": 29.433999999999845,
          "velocity": 0.5826771653543307,
          "duration": 0.037000000000002586
        },
        {
          "name": "G7",
          "midi": 103,
          "time": 29.453999999999848,
          "velocity": 0.5354330708661418,
          "duration": 0.0470000000000006
        },
        {
          "name": "G7",
          "midi": 103,
          "time": 29.453999999999848,
          "velocity": 0.5354330708661418,
          "duration": 0.0470000000000006
        },
        {
          "name": "F#5",
          "midi": 78,
          "time": 29.463999999999846,
          "velocity": 0.5196850393700787,
          "duration": 0.018000000000000682
        },
        {
          "name": "F#5",
          "midi": 78,
          "time": 29.463999999999846,
          "velocity": 0.5196850393700787,
          "duration": 0.018000000000000682
        },
        {
          "name": "G#4",
          "midi": 68,
          "time": 29.482999999999848,
          "velocity": 0.6220472440944882,
          "duration": 0.10699999999999932
        },
        {
          "name": "F#4",
          "midi": 66,
          "time": 29.482999999999848,
          "velocity": 0.5275590551181102,
          "duration": 0.036999999999999034
        },
        {
          "name": "G#4",
          "midi": 68,
          "time": 29.482999999999848,
          "velocity": 0.6220472440944882,
          "duration": 0.10699999999999932
        },
        {
          "name": "F#4",
          "midi": 66,
          "time": 29.482999999999848,
          "velocity": 0.5275590551181102,
          "duration": 0.036999999999999034
        },
        {
          "name": "F#5",
          "midi": 78,
          "time": 29.502999999999847,
          "velocity": 0.5196850393700787,
          "duration": 0.007999999999999119
        },
        {
          "name": "F#5",
          "midi": 78,
          "time": 29.502999999999847,
          "velocity": 0.5196850393700787,
          "duration": 0.007999999999999119
        },
        {
          "name": "D7",
          "midi": 98,
          "time": 29.512999999999845,
          "velocity": 0.5984251968503937,
          "duration": 0.09700000000000131
        },
        {
          "name": "D7",
          "midi": 98,
          "time": 29.512999999999845,
          "velocity": 0.5984251968503937,
          "duration": 0.09700000000000131
        },
        {
          "name": "D6",
          "midi": 86,
          "time": 29.522999999999847,
          "velocity": 0.5826771653543307,
          "duration": 0.07700000000000173
        },
        {
          "name": "D5",
          "midi": 74,
          "time": 29.522999999999847,
          "velocity": 0.5669291338582677,
          "duration": 0.0470000000000006
        },
        {
          "name": "D6",
          "midi": 86,
          "time": 29.522999999999847,
          "velocity": 0.5826771653543307,
          "duration": 0.07700000000000173
        },
        {
          "name": "D5",
          "midi": 74,
          "time": 29.522999999999847,
          "velocity": 0.5669291338582677,
          "duration": 0.0470000000000006
        },
        {
          "name": "A7",
          "midi": 105,
          "time": 29.53299999999985,
          "velocity": 0.5748031496062992,
          "duration": 0.036999999999999034
        },
        {
          "name": "A7",
          "midi": 105,
          "time": 29.53299999999985,
          "velocity": 0.5748031496062992,
          "duration": 0.036999999999999034
        },
        {
          "name": "C6",
          "midi": 84,
          "time": 29.581999999999848,
          "velocity": 0.5196850393700787,
          "duration": 0.007999999999999119
        },
        {
          "name": "D6",
          "midi": 86,
          "time": 29.581999999999848,
          "velocity": 0.5511811023622047,
          "duration": 0.036999999999999034
        },
        {
          "name": "C6",
          "midi": 84,
          "time": 29.581999999999848,
          "velocity": 0.5196850393700787,
          "duration": 0.007999999999999119
        },
        {
          "name": "D6",
          "midi": 86,
          "time": 29.581999999999848,
          "velocity": 0.5511811023622047,
          "duration": 0.036999999999999034
        },
        {
          "name": "C7",
          "midi": 96,
          "time": 29.601999999999848,
          "velocity": 0.6299212598425197,
          "duration": 0.027999999999998693
        },
        {
          "name": "C7",
          "midi": 96,
          "time": 29.601999999999848,
          "velocity": 0.6299212598425197,
          "duration": 0.027999999999998693
        },
        {
          "name": "G7",
          "midi": 103,
          "time": 29.611999999999846,
          "velocity": 0.6299212598425197,
          "duration": 0.027000000000001023
        },
        {
          "name": "C7",
          "midi": 96,
          "time": 29.611999999999846,
          "velocity": 0.5748031496062992,
          "duration": 0.05699999999999861
        },
        {
          "name": "G7",
          "midi": 103,
          "time": 29.611999999999846,
          "velocity": 0.6299212598425197,
          "duration": 0.027000000000001023
        },
        {
          "name": "C7",
          "midi": 96,
          "time": 29.611999999999846,
          "velocity": 0.5748031496062992,
          "duration": 0.05699999999999861
        },
        {
          "name": "F#4",
          "midi": 66,
          "time": 29.620999999999846,
          "velocity": 0.5354330708661418,
          "duration": 0.028000000000002245
        },
        {
          "name": "F#4",
          "midi": 66,
          "time": 29.620999999999846,
          "velocity": 0.5354330708661418,
          "duration": 0.028000000000002245
        },
        {
          "name": "G7",
          "midi": 103,
          "time": 29.630999999999847,
          "velocity": 0.5433070866141733,
          "duration": 0.027999999999998693
        },
        {
          "name": "G7",
          "midi": 103,
          "time": 29.630999999999847,
          "velocity": 0.5433070866141733,
          "duration": 0.027999999999998693
        },
        {
          "name": "F#5",
          "midi": 78,
          "time": 29.650999999999847,
          "velocity": 0.5118110236220472,
          "duration": 0.03699999999999548
        },
        {
          "name": "G#4",
          "midi": 68,
          "time": 29.650999999999847,
          "velocity": 0.5905511811023622,
          "duration": 0.20499999999999474
        },
        {
          "name": "F#5",
          "midi": 78,
          "time": 29.650999999999847,
          "velocity": 0.5118110236220472,
          "duration": 0.03699999999999548
        },
        {
          "name": "G#4",
          "midi": 68,
          "time": 29.650999999999847,
          "velocity": 0.5905511811023622,
          "duration": 0.20499999999999474
        },
        {
          "name": "C7",
          "midi": 96,
          "time": 29.660999999999845,
          "velocity": 0.5511811023622047,
          "duration": 0.007999999999999119
        },
        {
          "name": "C7",
          "midi": 96,
          "time": 29.660999999999845,
          "velocity": 0.5511811023622047,
          "duration": 0.007999999999999119
        },
        {
          "name": "C6",
          "midi": 84,
          "time": 29.670999999999843,
          "velocity": 0.5118110236220472,
          "duration": 0.007999999999999119
        },
        {
          "name": "C6",
          "midi": 84,
          "time": 29.670999999999843,
          "velocity": 0.5118110236220472,
          "duration": 0.007999999999999119
        },
        {
          "name": "D5",
          "midi": 74,
          "time": 29.68099999999984,
          "velocity": 0.5748031496062992,
          "duration": 0.046999999999997044
        },
        {
          "name": "D5",
          "midi": 74,
          "time": 29.68099999999984,
          "velocity": 0.5748031496062992,
          "duration": 0.046999999999997044
        },
        {
          "name": "D6",
          "midi": 86,
          "time": 29.68999999999984,
          "velocity": 0.5984251968503937,
          "duration": 0.07699999999999818
        },
        {
          "name": "D7",
          "midi": 98,
          "time": 29.68999999999984,
          "velocity": 0.6299212598425197,
          "duration": 0.06699999999999662
        },
        {
          "name": "D6",
          "midi": 86,
          "time": 29.68999999999984,
          "velocity": 0.5984251968503937,
          "duration": 0.07699999999999818
        },
        {
          "name": "D7",
          "midi": 98,
          "time": 29.68999999999984,
          "velocity": 0.6299212598425197,
          "duration": 0.06699999999999662
        },
        {
          "name": "A7",
          "midi": 105,
          "time": 29.69999999999984,
          "velocity": 0.6062992125984252,
          "duration": 0.046999999999997044
        },
        {
          "name": "A7",
          "midi": 105,
          "time": 29.69999999999984,
          "velocity": 0.6062992125984252,
          "duration": 0.046999999999997044
        },
        {
          "name": "C5",
          "midi": 72,
          "time": 29.71999999999984,
          "velocity": 0.7086614173228346,
          "duration": 0.32399999999999096
        },
        {
          "name": "C5",
          "midi": 72,
          "time": 29.71999999999984,
          "velocity": 0.7086614173228346,
          "duration": 0.32399999999999096
        },
        {
          "name": "C6",
          "midi": 84,
          "time": 29.749999999999837,
          "velocity": 0.6141732283464567,
          "duration": 0.11600000000000321
        },
        {
          "name": "C6",
          "midi": 84,
          "time": 29.749999999999837,
          "velocity": 0.6141732283464567,
          "duration": 0.11600000000000321
        },
        {
          "name": "D5",
          "midi": 74,
          "time": 29.759999999999838,
          "velocity": 0.4881889763779528,
          "duration": 0.008000000000002672
        },
        {
          "name": "D5",
          "midi": 74,
          "time": 29.759999999999838,
          "velocity": 0.4881889763779528,
          "duration": 0.008000000000002672
        },
        {
          "name": "D6",
          "midi": 86,
          "time": 29.768999999999842,
          "velocity": 0.49606299212598426,
          "duration": 0.018000000000000682
        },
        {
          "name": "D6",
          "midi": 86,
          "time": 29.768999999999842,
          "velocity": 0.49606299212598426,
          "duration": 0.018000000000000682
        },
        {
          "name": "C7",
          "midi": 96,
          "time": 29.778999999999844,
          "velocity": 0.5275590551181102,
          "duration": 0.036999999999999034
        },
        {
          "name": "C7",
          "midi": 96,
          "time": 29.778999999999844,
          "velocity": 0.5275590551181102,
          "duration": 0.036999999999999034
        },
        {
          "name": "F#5",
          "midi": 78,
          "time": 29.78899999999984,
          "velocity": 0.5511811023622047,
          "duration": 0.09699999999999775
        },
        {
          "name": "F#5",
          "midi": 78,
          "time": 29.78899999999984,
          "velocity": 0.5511811023622047,
          "duration": 0.09699999999999775
        },
        {
          "name": "C7",
          "midi": 96,
          "time": 29.798999999999843,
          "velocity": 0.5669291338582677,
          "duration": 0.027999999999998693
        },
        {
          "name": "C7",
          "midi": 96,
          "time": 29.798999999999843,
          "velocity": 0.5669291338582677,
          "duration": 0.027999999999998693
        },
        {
          "name": "D5",
          "midi": 74,
          "time": 29.82899999999984,
          "velocity": 0.5196850393700787,
          "duration": 0.06700000000000017
        },
        {
          "name": "D5",
          "midi": 74,
          "time": 29.82899999999984,
          "velocity": 0.5196850393700787,
          "duration": 0.06700000000000017
        },
        {
          "name": "A7",
          "midi": 105,
          "time": 29.85799999999984,
          "velocity": 0.6456692913385826,
          "duration": 0.05699999999999861
        },
        {
          "name": "A7",
          "midi": 105,
          "time": 29.85799999999984,
          "velocity": 0.6456692913385826,
          "duration": 0.05699999999999861
        },
        {
          "name": "D6",
          "midi": 86,
          "time": 29.86799999999984,
          "velocity": 0.5354330708661418,
          "duration": 0.08699999999999974
        },
        {
          "name": "D6",
          "midi": 86,
          "time": 29.86799999999984,
          "velocity": 0.5354330708661418,
          "duration": 0.08699999999999974
        },
        {
          "name": "D#7",
          "midi": 99,
          "time": 29.87799999999984,
          "velocity": 0.6299212598425197,
          "duration": 0.05699999999999861
        },
        {
          "name": "D#7",
          "midi": 99,
          "time": 29.87799999999984,
          "velocity": 0.6299212598425197,
          "duration": 0.05699999999999861
        },
        {
          "name": "G#4",
          "midi": 68,
          "time": 29.89799999999984,
          "velocity": 0.5039370078740157,
          "duration": 0.027999999999998693
        },
        {
          "name": "G#4",
          "midi": 68,
          "time": 29.89799999999984,
          "velocity": 0.5039370078740157,
          "duration": 0.027999999999998693
        },
        {
          "name": "C6",
          "midi": 84,
          "time": 29.916999999999838,
          "velocity": 0.5039370078740157,
          "duration": 0.028000000000002245
        },
        {
          "name": "C6",
          "midi": 84,
          "time": 29.916999999999838,
          "velocity": 0.5039370078740157,
          "duration": 0.028000000000002245
        },
        {
          "name": "D7",
          "midi": 98,
          "time": 29.92699999999984,
          "velocity": 0.5039370078740157,
          "duration": 0.027999999999998693
        },
        {
          "name": "D7",
          "midi": 98,
          "time": 29.92699999999984,
          "velocity": 0.5039370078740157,
          "duration": 0.027999999999998693
        },
        {
          "name": "C7",
          "midi": 96,
          "time": 29.94699999999984,
          "velocity": 0.5275590551181102,
          "duration": 0.0470000000000006
        },
        {
          "name": "C7",
          "midi": 96,
          "time": 29.94699999999984,
          "velocity": 0.5275590551181102,
          "duration": 0.0470000000000006
        },
        {
          "name": "G7",
          "midi": 103,
          "time": 29.956999999999837,
          "velocity": 0.5511811023622047,
          "duration": 0.028000000000002245
        },
        {
          "name": "G#4",
          "midi": 68,
          "time": 29.956999999999837,
          "velocity": 0.5748031496062992,
          "duration": 0.28399999999998826
        },
        {
          "name": "G7",
          "midi": 103,
          "time": 29.956999999999837,
          "velocity": 0.5511811023622047,
          "duration": 0.028000000000002245
        },
        {
          "name": "G#4",
          "midi": 68,
          "time": 29.956999999999837,
          "velocity": 0.5748031496062992,
          "duration": 0.28399999999998826
        },
        {
          "name": "C6",
          "midi": 84,
          "time": 29.96699999999984,
          "velocity": 0.5590551181102362,
          "duration": 0.036999999999999034
        },
        {
          "name": "G7",
          "midi": 103,
          "time": 29.96699999999984,
          "velocity": 0.5433070866141733,
          "duration": 0.046999999999997044
        },
        {
          "name": "C6",
          "midi": 84,
          "time": 29.96699999999984,
          "velocity": 0.5590551181102362,
          "duration": 0.036999999999999034
        },
        {
          "name": "G7",
          "midi": 103,
          "time": 29.96699999999984,
          "velocity": 0.5433070866141733,
          "duration": 0.046999999999997044
        },
        {
          "name": "D5",
          "midi": 74,
          "time": 29.99599999999984,
          "velocity": 0.5511811023622047,
          "duration": 0.2149999999999892
        },
        {
          "name": "D5",
          "midi": 74,
          "time": 29.99599999999984,
          "velocity": 0.5511811023622047,
          "duration": 0.2149999999999892
        },
        {
          "name": "F#4",
          "midi": 66,
          "time": 30.005999999999837,
          "velocity": 0.5196850393700787,
          "duration": 0.01799999999999713
        },
        {
          "name": "F#4",
          "midi": 66,
          "time": 30.005999999999837,
          "velocity": 0.5196850393700787,
          "duration": 0.01799999999999713
        },
        {
          "name": "F#5",
          "midi": 78,
          "time": 30.015999999999835,
          "velocity": 0.5039370078740157,
          "duration": 0.01799999999999713
        },
        {
          "name": "F#5",
          "midi": 78,
          "time": 30.015999999999835,
          "velocity": 0.5039370078740157,
          "duration": 0.01799999999999713
        },
        {
          "name": "A#7",
          "midi": 106,
          "time": 30.025999999999833,
          "velocity": 0.5984251968503937,
          "duration": 0.056999999999995055
        },
        {
          "name": "A#7",
          "midi": 106,
          "time": 30.025999999999833,
          "velocity": 0.5984251968503937,
          "duration": 0.056999999999995055
        },
        {
          "name": "D#7",
          "midi": 99,
          "time": 30.03599999999983,
          "velocity": 0.6535433070866141,
          "duration": 0.05699999999999861
        },
        {
          "name": "D#7",
          "midi": 99,
          "time": 30.03599999999983,
          "velocity": 0.6535433070866141,
          "duration": 0.05699999999999861
        },
        {
          "name": "D6",
          "midi": 86,
          "time": 30.04599999999983,
          "velocity": 0.5669291338582677,
          "duration": 0.0470000000000006
        },
        {
          "name": "D6",
          "midi": 86,
          "time": 30.04599999999983,
          "velocity": 0.5669291338582677,
          "duration": 0.0470000000000006
        },
        {
          "name": "F#5",
          "midi": 78,
          "time": 30.05499999999983,
          "velocity": 0.5275590551181102,
          "duration": 0.0470000000000006
        },
        {
          "name": "F#5",
          "midi": 78,
          "time": 30.05499999999983,
          "velocity": 0.5275590551181102,
          "duration": 0.0470000000000006
        },
        {
          "name": "C5",
          "midi": 72,
          "time": 30.09499999999983,
          "velocity": 0.5433070866141733,
          "duration": 0.06700000000000728
        },
        {
          "name": "C5",
          "midi": 72,
          "time": 30.09499999999983,
          "velocity": 0.5433070866141733,
          "duration": 0.06700000000000728
        },
        {
          "name": "C6",
          "midi": 84,
          "time": 30.10499999999983,
          "velocity": 0.5669291338582677,
          "duration": 0.028000000000002245
        },
        {
          "name": "G7",
          "midi": 103,
          "time": 30.10499999999983,
          "velocity": 0.5039370078740157,
          "duration": 0.018000000000000682
        },
        {
          "name": "C6",
          "midi": 84,
          "time": 30.10499999999983,
          "velocity": 0.5669291338582677,
          "duration": 0.028000000000002245
        },
        {
          "name": "G7",
          "midi": 103,
          "time": 30.10499999999983,
          "velocity": 0.5039370078740157,
          "duration": 0.018000000000000682
        },
        {
          "name": "C7",
          "midi": 96,
          "time": 30.11499999999983,
          "velocity": 0.5511811023622047,
          "duration": 0.037000000000002586
        },
        {
          "name": "C7",
          "midi": 96,
          "time": 30.11499999999983,
          "velocity": 0.5511811023622047,
          "duration": 0.037000000000002586
        },
        {
          "name": "C7",
          "midi": 96,
          "time": 30.133999999999833,
          "velocity": 0.5433070866141733,
          "duration": 0.038000000000000256
        },
        {
          "name": "C7",
          "midi": 96,
          "time": 30.133999999999833,
          "velocity": 0.5433070866141733,
          "duration": 0.038000000000000256
        },
        {
          "name": "G7",
          "midi": 103,
          "time": 30.143999999999835,
          "velocity": 0.5118110236220472,
          "duration": 0.007999999999999119
        },
        {
          "name": "G7",
          "midi": 103,
          "time": 30.143999999999835,
          "velocity": 0.5118110236220472,
          "duration": 0.007999999999999119
        },
        {
          "name": "F#5",
          "midi": 78,
          "time": 30.163999999999835,
          "velocity": 0.5118110236220472,
          "duration": 0.03699999999999548
        },
        {
          "name": "F#4",
          "midi": 66,
          "time": 30.163999999999835,
          "velocity": 0.5118110236220472,
          "duration": 0.02799999999999514
        },
        {
          "name": "F#5",
          "midi": 78,
          "time": 30.163999999999835,
          "velocity": 0.5118110236220472,
          "duration": 0.03699999999999548
        },
        {
          "name": "F#4",
          "midi": 66,
          "time": 30.163999999999835,
          "velocity": 0.5118110236220472,
          "duration": 0.02799999999999514
        },
        {
          "name": "G#5",
          "midi": 80,
          "time": 30.173999999999833,
          "velocity": 0.5039370078740157,
          "duration": 0.007999999999999119
        },
        {
          "name": "G#5",
          "midi": 80,
          "time": 30.173999999999833,
          "velocity": 0.5039370078740157,
          "duration": 0.007999999999999119
        },
        {
          "name": "D6",
          "midi": 86,
          "time": 30.18399999999983,
          "velocity": 0.5748031496062992,
          "duration": 0.056999999999995055
        },
        {
          "name": "D6",
          "midi": 86,
          "time": 30.18399999999983,
          "velocity": 0.5748031496062992,
          "duration": 0.056999999999995055
        },
        {
          "name": "A7",
          "midi": 105,
          "time": 30.19399999999983,
          "velocity": 0.6220472440944882,
          "duration": 0.036999999999999034
        },
        {
          "name": "A7",
          "midi": 105,
          "time": 30.19399999999983,
          "velocity": 0.6220472440944882,
          "duration": 0.036999999999999034
        },
        {
          "name": "D7",
          "midi": 98,
          "time": 30.20299999999983,
          "velocity": 0.6299212598425197,
          "duration": 0.046999999999997044
        },
        {
          "name": "D7",
          "midi": 98,
          "time": 30.20299999999983,
          "velocity": 0.6299212598425197,
          "duration": 0.046999999999997044
        },
        {
          "name": "C6",
          "midi": 84,
          "time": 30.212999999999827,
          "velocity": 0.4881889763779528,
          "duration": 0.007999999999999119
        },
        {
          "name": "C6",
          "midi": 84,
          "time": 30.212999999999827,
          "velocity": 0.4881889763779528,
          "duration": 0.007999999999999119
        },
        {
          "name": "D7",
          "midi": 98,
          "time": 30.232999999999826,
          "velocity": 0.5826771653543307,
          "duration": 0.05700000000000216
        },
        {
          "name": "A#4",
          "midi": 70,
          "time": 30.232999999999826,
          "velocity": 0.6614173228346457,
          "duration": 0.09700000000000131
        },
        {
          "name": "D7",
          "midi": 98,
          "time": 30.232999999999826,
          "velocity": 0.5826771653543307,
          "duration": 0.05700000000000216
        },
        {
          "name": "A#4",
          "midi": 70,
          "time": 30.232999999999826,
          "velocity": 0.6614173228346457,
          "duration": 0.09700000000000131
        },
        {
          "name": "C5",
          "midi": 72,
          "time": 30.242999999999824,
          "velocity": 0.49606299212598426,
          "duration": 0.008000000000002672
        },
        {
          "name": "C5",
          "midi": 72,
          "time": 30.242999999999824,
          "velocity": 0.49606299212598426,
          "duration": 0.008000000000002672
        },
        {
          "name": "A#5",
          "midi": 82,
          "time": 30.252999999999826,
          "velocity": 0.5511811023622047,
          "duration": 0.17600000000000549
        },
        {
          "name": "F6",
          "midi": 89,
          "time": 30.252999999999826,
          "velocity": 0.5354330708661418,
          "duration": 0.037000000000002586
        },
        {
          "name": "A#5",
          "midi": 82,
          "time": 30.252999999999826,
          "velocity": 0.5511811023622047,
          "duration": 0.17600000000000549
        },
        {
          "name": "F6",
          "midi": 89,
          "time": 30.252999999999826,
          "velocity": 0.5354330708661418,
          "duration": 0.037000000000002586
        },
        {
          "name": "A#6",
          "midi": 94,
          "time": 30.262999999999828,
          "velocity": 0.6220472440944882,
          "duration": 0.08599999999999852
        },
        {
          "name": "A#6",
          "midi": 94,
          "time": 30.262999999999828,
          "velocity": 0.6220472440944882,
          "duration": 0.08599999999999852
        },
        {
          "name": "G5",
          "midi": 79,
          "time": 30.271999999999828,
          "velocity": 0.5826771653543307,
          "duration": 0.15600000000000236
        },
        {
          "name": "G5",
          "midi": 79,
          "time": 30.271999999999828,
          "velocity": 0.5826771653543307,
          "duration": 0.15600000000000236
        },
        {
          "name": "G6",
          "midi": 91,
          "time": 30.30199999999983,
          "velocity": 0.5118110236220472,
          "duration": 0.007999999999999119
        },
        {
          "name": "G4",
          "midi": 67,
          "time": 30.30199999999983,
          "velocity": 0.5748031496062992,
          "duration": 0.11600000000000321
        },
        {
          "name": "G6",
          "midi": 91,
          "time": 30.30199999999983,
          "velocity": 0.5118110236220472,
          "duration": 0.007999999999999119
        },
        {
          "name": "G4",
          "midi": 67,
          "time": 30.30199999999983,
          "velocity": 0.5748031496062992,
          "duration": 0.11600000000000321
        },
        {
          "name": "A#7",
          "midi": 106,
          "time": 30.32199999999983,
          "velocity": 0.49606299212598426,
          "duration": 0.007999999999999119
        },
        {
          "name": "A#7",
          "midi": 106,
          "time": 30.32199999999983,
          "velocity": 0.49606299212598426,
          "duration": 0.007999999999999119
        },
        {
          "name": "A#6",
          "midi": 94,
          "time": 30.340999999999827,
          "velocity": 0.5275590551181102,
          "duration": 0.019000000000001904
        },
        {
          "name": "F7",
          "midi": 101,
          "time": 30.340999999999827,
          "velocity": 0.48031496062992124,
          "duration": 0.018000000000000682
        },
        {
          "name": "A#6",
          "midi": 94,
          "time": 30.340999999999827,
          "velocity": 0.5275590551181102,
          "duration": 0.019000000000001904
        },
        {
          "name": "F7",
          "midi": 101,
          "time": 30.340999999999827,
          "velocity": 0.48031496062992124,
          "duration": 0.018000000000000682
        },
        {
          "name": "D5",
          "midi": 74,
          "time": 30.36099999999983,
          "velocity": 0.4566929133858268,
          "duration": 0.028000000000002245
        },
        {
          "name": "D5",
          "midi": 74,
          "time": 30.36099999999983,
          "velocity": 0.4566929133858268,
          "duration": 0.028000000000002245
        },
        {
          "name": "A5",
          "midi": 81,
          "time": 30.37099999999983,
          "velocity": 0.4566929133858268,
          "duration": 0.018000000000000682
        },
        {
          "name": "A#4",
          "midi": 70,
          "time": 30.37099999999983,
          "velocity": 0.6377952755905512,
          "duration": 0.18500000000000583
        },
        {
          "name": "A5",
          "midi": 81,
          "time": 30.37099999999983,
          "velocity": 0.4566929133858268,
          "duration": 0.018000000000000682
        },
        {
          "name": "A#4",
          "midi": 70,
          "time": 30.37099999999983,
          "velocity": 0.6377952755905512,
          "duration": 0.18500000000000583
        },
        {
          "name": "F6",
          "midi": 89,
          "time": 30.400999999999833,
          "velocity": 0.5354330708661418,
          "duration": 0.06699999999999662
        },
        {
          "name": "B4",
          "midi": 71,
          "time": 30.400999999999833,
          "velocity": 0.4881889763779528,
          "duration": 0.007999999999999119
        },
        {
          "name": "F6",
          "midi": 89,
          "time": 30.400999999999833,
          "velocity": 0.5354330708661418,
          "duration": 0.06699999999999662
        },
        {
          "name": "B4",
          "midi": 71,
          "time": 30.400999999999833,
          "velocity": 0.4881889763779528,
          "duration": 0.007999999999999119
        },
        {
          "name": "G#7",
          "midi": 104,
          "time": 30.41999999999983,
          "velocity": 0.48031496062992124,
          "duration": 0.018000000000000682
        },
        {
          "name": "G#7",
          "midi": 104,
          "time": 30.41999999999983,
          "velocity": 0.48031496062992124,
          "duration": 0.018000000000000682
        },
        {
          "name": "A#6",
          "midi": 94,
          "time": 30.429999999999833,
          "velocity": 0.4645669291338583,
          "duration": 0.007999999999999119
        },
        {
          "name": "A#6",
          "midi": 94,
          "time": 30.429999999999833,
          "velocity": 0.4645669291338583,
          "duration": 0.007999999999999119
        },
        {
          "name": "G6",
          "midi": 91,
          "time": 30.43999999999983,
          "velocity": 0.5196850393700787,
          "duration": 0.0470000000000006
        },
        {
          "name": "F#4",
          "midi": 66,
          "time": 30.43999999999983,
          "velocity": 0.48031496062992124,
          "duration": 0.007999999999999119
        },
        {
          "name": "G6",
          "midi": 91,
          "time": 30.43999999999983,
          "velocity": 0.5196850393700787,
          "duration": 0.0470000000000006
        },
        {
          "name": "F#4",
          "midi": 66,
          "time": 30.43999999999983,
          "velocity": 0.48031496062992124,
          "duration": 0.007999999999999119
        },
        {
          "name": "D5",
          "midi": 74,
          "time": 30.44999999999983,
          "velocity": 0.5354330708661418,
          "duration": 0.07700000000000529
        },
        {
          "name": "D5",
          "midi": 74,
          "time": 30.44999999999983,
          "velocity": 0.5354330708661418,
          "duration": 0.07700000000000529
        },
        {
          "name": "A#5",
          "midi": 82,
          "time": 30.45999999999983,
          "velocity": 0.5118110236220472,
          "duration": 0.13600000000000634
        },
        {
          "name": "A6",
          "midi": 93,
          "time": 30.45999999999983,
          "velocity": 0.5118110236220472,
          "duration": 0.018000000000000682
        },
        {
          "name": "A#5",
          "midi": 82,
          "time": 30.45999999999983,
          "velocity": 0.5118110236220472,
          "duration": 0.13600000000000634
        },
        {
          "name": "A6",
          "midi": 93,
          "time": 30.45999999999983,
          "velocity": 0.5118110236220472,
          "duration": 0.018000000000000682
        },
        {
          "name": "D7",
          "midi": 98,
          "time": 30.47999999999983,
          "velocity": 0.5196850393700787,
          "duration": 0.008000000000002672
        },
        {
          "name": "D7",
          "midi": 98,
          "time": 30.47999999999983,
          "velocity": 0.5196850393700787,
          "duration": 0.008000000000002672
        },
        {
          "name": "G4",
          "midi": 67,
          "time": 30.488999999999834,
          "velocity": 0.6220472440944882,
          "duration": 0.2740000000000009
        },
        {
          "name": "G4",
          "midi": 67,
          "time": 30.488999999999834,
          "velocity": 0.6220472440944882,
          "duration": 0.2740000000000009
        },
        {
          "name": "A#6",
          "midi": 94,
          "time": 30.498999999999835,
          "velocity": 0.49606299212598426,
          "duration": 0.07700000000000173
        },
        {
          "name": "D6",
          "midi": 86,
          "time": 30.498999999999835,
          "velocity": 0.5039370078740157,
          "duration": 0.007999999999999119
        },
        {
          "name": "A#6",
          "midi": 94,
          "time": 30.498999999999835,
          "velocity": 0.49606299212598426,
          "duration": 0.07700000000000173
        },
        {
          "name": "D6",
          "midi": 86,
          "time": 30.498999999999835,
          "velocity": 0.5039370078740157,
          "duration": 0.007999999999999119
        },
        {
          "name": "D7",
          "midi": 98,
          "time": 30.518999999999835,
          "velocity": 0.4881889763779528,
          "duration": 0.018000000000000682
        },
        {
          "name": "D7",
          "midi": 98,
          "time": 30.518999999999835,
          "velocity": 0.4881889763779528,
          "duration": 0.018000000000000682
        },
        {
          "name": "G5",
          "midi": 79,
          "time": 30.538999999999835,
          "velocity": 0.49606299212598426,
          "duration": 0.07700000000000173
        },
        {
          "name": "G5",
          "midi": 79,
          "time": 30.538999999999835,
          "velocity": 0.49606299212598426,
          "duration": 0.07700000000000173
        },
        {
          "name": "D6",
          "midi": 86,
          "time": 30.548999999999836,
          "velocity": 0.47244094488188976,
          "duration": 0.018000000000000682
        },
        {
          "name": "D6",
          "midi": 86,
          "time": 30.548999999999836,
          "velocity": 0.47244094488188976,
          "duration": 0.018000000000000682
        },
        {
          "name": "D4",
          "midi": 62,
          "time": 30.567999999999838,
          "velocity": 0.49606299212598426,
          "duration": 0.05699999999999861
        },
        {
          "name": "D4",
          "midi": 62,
          "time": 30.567999999999838,
          "velocity": 0.49606299212598426,
          "duration": 0.05699999999999861
        },
        {
          "name": "D5",
          "midi": 74,
          "time": 30.577999999999836,
          "velocity": 0.5433070866141733,
          "duration": 0.10699999999999932
        },
        {
          "name": "D5",
          "midi": 74,
          "time": 30.577999999999836,
          "velocity": 0.5433070866141733,
          "duration": 0.10699999999999932
        },
        {
          "name": "D7",
          "midi": 98,
          "time": 30.587999999999838,
          "velocity": 0.5511811023622047,
          "duration": 0.06700000000000017
        },
        {
          "name": "D7",
          "midi": 98,
          "time": 30.587999999999838,
          "velocity": 0.5511811023622047,
          "duration": 0.06700000000000017
        },
        {
          "name": "A#4",
          "midi": 70,
          "time": 30.607999999999837,
          "velocity": 0.5984251968503937,
          "duration": 0.06700000000000017
        },
        {
          "name": "A#4",
          "midi": 70,
          "time": 30.607999999999837,
          "velocity": 0.5984251968503937,
          "duration": 0.06700000000000017
        },
        {
          "name": "G5",
          "midi": 79,
          "time": 30.636999999999837,
          "velocity": 0.4881889763779528,
          "duration": 0.10699999999999577
        },
        {
          "name": "G6",
          "midi": 91,
          "time": 30.636999999999837,
          "velocity": 0.5275590551181102,
          "duration": 0.028000000000002245
        },
        {
          "name": "G5",
          "midi": 79,
          "time": 30.636999999999837,
          "velocity": 0.4881889763779528,
          "duration": 0.10699999999999577
        },
        {
          "name": "G6",
          "midi": 91,
          "time": 30.636999999999837,
          "velocity": 0.5275590551181102,
          "duration": 0.028000000000002245
        },
        {
          "name": "A#4",
          "midi": 70,
          "time": 30.666999999999838,
          "velocity": 0.49606299212598426,
          "duration": 0.09699999999999775
        },
        {
          "name": "A#4",
          "midi": 70,
          "time": 30.666999999999838,
          "velocity": 0.49606299212598426,
          "duration": 0.09699999999999775
        },
        {
          "name": "A6",
          "midi": 93,
          "time": 30.676999999999836,
          "velocity": 0.48031496062992124,
          "duration": 0.007999999999999119
        },
        {
          "name": "A6",
          "midi": 93,
          "time": 30.676999999999836,
          "velocity": 0.48031496062992124,
          "duration": 0.007999999999999119
        },
        {
          "name": "G6",
          "midi": 91,
          "time": 30.686999999999834,
          "velocity": 0.4566929133858268,
          "duration": 0.05699999999999861
        },
        {
          "name": "G6",
          "midi": 91,
          "time": 30.686999999999834,
          "velocity": 0.4566929133858268,
          "duration": 0.05699999999999861
        },
        {
          "name": "D6",
          "midi": 86,
          "time": 30.696999999999836,
          "velocity": 0.4409448818897638,
          "duration": 0.027999999999998693
        },
        {
          "name": "A#5",
          "midi": 82,
          "time": 30.696999999999836,
          "velocity": 0.44881889763779526,
          "duration": 0.046999999999997044
        },
        {
          "name": "D6",
          "midi": 86,
          "time": 30.696999999999836,
          "velocity": 0.4409448818897638,
          "duration": 0.027999999999998693
        },
        {
          "name": "A#5",
          "midi": 82,
          "time": 30.696999999999836,
          "velocity": 0.44881889763779526,
          "duration": 0.046999999999997044
        },
        {
          "name": "D5",
          "midi": 74,
          "time": 30.74599999999983,
          "velocity": 0.5039370078740157,
          "duration": 0.10700000000000287
        },
        {
          "name": "D5",
          "midi": 74,
          "time": 30.74599999999983,
          "velocity": 0.5039370078740157,
          "duration": 0.10700000000000287
        },
        {
          "name": "D7",
          "midi": 98,
          "time": 30.755999999999833,
          "velocity": 0.4881889763779528,
          "duration": 0.04700000000000415
        },
        {
          "name": "A#4",
          "midi": 70,
          "time": 30.755999999999833,
          "velocity": 0.48031496062992124,
          "duration": 0.0870000000000033
        },
        {
          "name": "F6",
          "midi": 89,
          "time": 30.755999999999833,
          "velocity": 0.4566929133858268,
          "duration": 0.028000000000002245
        },
        {
          "name": "D7",
          "midi": 98,
          "time": 30.755999999999833,
          "velocity": 0.4881889763779528,
          "duration": 0.04700000000000415
        },
        {
          "name": "A#4",
          "midi": 70,
          "time": 30.755999999999833,
          "velocity": 0.48031496062992124,
          "duration": 0.0870000000000033
        },
        {
          "name": "F6",
          "midi": 89,
          "time": 30.755999999999833,
          "velocity": 0.4566929133858268,
          "duration": 0.028000000000002245
        },
        {
          "name": "A6",
          "midi": 93,
          "time": 30.775999999999836,
          "velocity": 0.48031496062992124,
          "duration": 0.018000000000000682
        },
        {
          "name": "A6",
          "midi": 93,
          "time": 30.775999999999836,
          "velocity": 0.48031496062992124,
          "duration": 0.018000000000000682
        },
        {
          "name": "G4",
          "midi": 67,
          "time": 30.79499999999984,
          "velocity": 0.5748031496062992,
          "duration": 0.13599999999999568
        },
        {
          "name": "G5",
          "midi": 79,
          "time": 30.79499999999984,
          "velocity": 0.5196850393700787,
          "duration": 0.06699999999999662
        },
        {
          "name": "G4",
          "midi": 67,
          "time": 30.79499999999984,
          "velocity": 0.5748031496062992,
          "duration": 0.13599999999999568
        },
        {
          "name": "G5",
          "midi": 79,
          "time": 30.79499999999984,
          "velocity": 0.5196850393700787,
          "duration": 0.06699999999999662
        },
        {
          "name": "G6",
          "midi": 91,
          "time": 30.804999999999836,
          "velocity": 0.49606299212598426,
          "duration": 0.018000000000000682
        },
        {
          "name": "G6",
          "midi": 91,
          "time": 30.804999999999836,
          "velocity": 0.49606299212598426,
          "duration": 0.018000000000000682
        },
        {
          "name": "A#6",
          "midi": 94,
          "time": 30.814999999999838,
          "velocity": 0.6692913385826772,
          "duration": 0.12599999999999767
        },
        {
          "name": "A#6",
          "midi": 94,
          "time": 30.814999999999838,
          "velocity": 0.6692913385826772,
          "duration": 0.12599999999999767
        },
        {
          "name": "A#4",
          "midi": 70,
          "time": 30.844999999999835,
          "velocity": 0.5275590551181102,
          "duration": 0.08699999999999974
        },
        {
          "name": "A#4",
          "midi": 70,
          "time": 30.844999999999835,
          "velocity": 0.5275590551181102,
          "duration": 0.08699999999999974
        },
        {
          "name": "D6",
          "midi": 86,
          "time": 30.853999999999836,
          "velocity": 0.6299212598425197,
          "duration": 0.12599999999999412
        },
        {
          "name": "D6",
          "midi": 86,
          "time": 30.853999999999836,
          "velocity": 0.6299212598425197,
          "duration": 0.12599999999999412
        },
        {
          "name": "G6",
          "midi": 91,
          "time": 30.863999999999834,
          "velocity": 0.5118110236220472,
          "duration": 0.09699999999999775
        },
        {
          "name": "G6",
          "midi": 91,
          "time": 30.863999999999834,
          "velocity": 0.5118110236220472,
          "duration": 0.09699999999999775
        },
        {
          "name": "G#6",
          "midi": 92,
          "time": 30.873999999999835,
          "velocity": 0.48031496062992124,
          "duration": 0.007999999999999119
        },
        {
          "name": "G#6",
          "midi": 92,
          "time": 30.873999999999835,
          "velocity": 0.48031496062992124,
          "duration": 0.007999999999999119
        },
        {
          "name": "D4",
          "midi": 62,
          "time": 30.893999999999835,
          "velocity": 0.4566929133858268,
          "duration": 0.05699999999999861
        },
        {
          "name": "D4",
          "midi": 62,
          "time": 30.893999999999835,
          "velocity": 0.4566929133858268,
          "duration": 0.05699999999999861
        },
        {
          "name": "D7",
          "midi": 98,
          "time": 30.942999999999834,
          "velocity": 0.49606299212598426,
          "duration": 0.03699999999999548
        },
        {
          "name": "G6",
          "midi": 91,
          "time": 30.942999999999834,
          "velocity": 0.5039370078740157,
          "duration": 0.02799999999999514
        },
        {
          "name": "D7",
          "midi": 98,
          "time": 30.942999999999834,
          "velocity": 0.49606299212598426,
          "duration": 0.03699999999999548
        },
        {
          "name": "G6",
          "midi": 91,
          "time": 30.942999999999834,
          "velocity": 0.5039370078740157,
          "duration": 0.02799999999999514
        },
        {
          "name": "A#4",
          "midi": 70,
          "time": 30.952999999999832,
          "velocity": 0.5748031496062992,
          "duration": 0.33300000000000196
        },
        {
          "name": "A#4",
          "midi": 70,
          "time": 30.952999999999832,
          "velocity": 0.5748031496062992,
          "duration": 0.33300000000000196
        },
        {
          "name": "G4",
          "midi": 67,
          "time": 30.96299999999983,
          "velocity": 0.5826771653543307,
          "duration": 0.5009999999999977
        },
        {
          "name": "G4",
          "midi": 67,
          "time": 30.96299999999983,
          "velocity": 0.5826771653543307,
          "duration": 0.5009999999999977
        },
        {
          "name": "G5",
          "midi": 79,
          "time": 30.97299999999983,
          "velocity": 0.5275590551181102,
          "duration": 0.11600000000000321
        },
        {
          "name": "G5",
          "midi": 79,
          "time": 30.97299999999983,
          "velocity": 0.5275590551181102,
          "duration": 0.11600000000000321
        },
        {
          "name": "A6",
          "midi": 93,
          "time": 30.98299999999983,
          "velocity": 0.5118110236220472,
          "duration": 0.007999999999999119
        },
        {
          "name": "A6",
          "midi": 93,
          "time": 30.98299999999983,
          "velocity": 0.5118110236220472,
          "duration": 0.007999999999999119
        },
        {
          "name": "A#5",
          "midi": 82,
          "time": 30.992999999999828,
          "velocity": 0.5196850393700787,
          "duration": 0.04700000000000415
        },
        {
          "name": "C7",
          "midi": 96,
          "time": 30.992999999999828,
          "velocity": 0.5118110236220472,
          "duration": 0.007999999999999119
        },
        {
          "name": "A#5",
          "midi": 82,
          "time": 30.992999999999828,
          "velocity": 0.5196850393700787,
          "duration": 0.04700000000000415
        },
        {
          "name": "C7",
          "midi": 96,
          "time": 30.992999999999828,
          "velocity": 0.5118110236220472,
          "duration": 0.007999999999999119
        },
        {
          "name": "A#6",
          "midi": 94,
          "time": 31.00199999999983,
          "velocity": 0.49606299212598426,
          "duration": 0.028000000000002245
        },
        {
          "name": "A#6",
          "midi": 94,
          "time": 31.00199999999983,
          "velocity": 0.49606299212598426,
          "duration": 0.028000000000002245
        },
        {
          "name": "G6",
          "midi": 91,
          "time": 31.01199999999983,
          "velocity": 0.4881889763779528,
          "duration": 0.0470000000000006
        },
        {
          "name": "G6",
          "midi": 91,
          "time": 31.01199999999983,
          "velocity": 0.4881889763779528,
          "duration": 0.0470000000000006
        },
        {
          "name": "D#6",
          "midi": 87,
          "time": 31.04199999999983,
          "velocity": 0.44881889763779526,
          "duration": 0.036999999999999034
        },
        {
          "name": "D#6",
          "midi": 87,
          "time": 31.04199999999983,
          "velocity": 0.44881889763779526,
          "duration": 0.036999999999999034
        },
        {
          "name": "A#6",
          "midi": 94,
          "time": 31.06199999999983,
          "velocity": 0.44881889763779526,
          "duration": 0.036999999999999034
        },
        {
          "name": "A#6",
          "midi": 94,
          "time": 31.06199999999983,
          "velocity": 0.44881889763779526,
          "duration": 0.036999999999999034
        },
        {
          "name": "A#5",
          "midi": 82,
          "time": 31.07099999999983,
          "velocity": 0.4330708661417323,
          "duration": 0.018000000000000682
        },
        {
          "name": "A#5",
          "midi": 82,
          "time": 31.07099999999983,
          "velocity": 0.4330708661417323,
          "duration": 0.018000000000000682
        },
        {
          "name": "G#7",
          "midi": 104,
          "time": 31.09099999999983,
          "velocity": 0.4645669291338583,
          "duration": 0.027999999999998693
        },
        {
          "name": "G#7",
          "midi": 104,
          "time": 31.09099999999983,
          "velocity": 0.4645669291338583,
          "duration": 0.027999999999998693
        },
        {
          "name": "F6",
          "midi": 89,
          "time": 31.10099999999983,
          "velocity": 0.5196850393700787,
          "duration": 0.0470000000000006
        },
        {
          "name": "F6",
          "midi": 89,
          "time": 31.10099999999983,
          "velocity": 0.5196850393700787,
          "duration": 0.0470000000000006
        },
        {
          "name": "G6",
          "midi": 91,
          "time": 31.11099999999983,
          "velocity": 0.5354330708661418,
          "duration": 0.06700000000000017
        },
        {
          "name": "C#7",
          "midi": 97,
          "time": 31.11099999999983,
          "velocity": 0.4881889763779528,
          "duration": 0.018000000000000682
        },
        {
          "name": "G6",
          "midi": 91,
          "time": 31.11099999999983,
          "velocity": 0.5354330708661418,
          "duration": 0.06700000000000017
        },
        {
          "name": "C#7",
          "midi": 97,
          "time": 31.11099999999983,
          "velocity": 0.4881889763779528,
          "duration": 0.018000000000000682
        },
        {
          "name": "F7",
          "midi": 101,
          "time": 31.13099999999983,
          "velocity": 0.49606299212598426,
          "duration": 0.007999999999999119
        },
        {
          "name": "F7",
          "midi": 101,
          "time": 31.13099999999983,
          "velocity": 0.49606299212598426,
          "duration": 0.007999999999999119
        },
        {
          "name": "D5",
          "midi": 74,
          "time": 31.13999999999983,
          "velocity": 0.49606299212598426,
          "duration": 0.027999999999998693
        },
        {
          "name": "D5",
          "midi": 74,
          "time": 31.13999999999983,
          "velocity": 0.49606299212598426,
          "duration": 0.027999999999998693
        },
        {
          "name": "G5",
          "midi": 79,
          "time": 31.149999999999828,
          "velocity": 0.5433070866141733,
          "duration": 0.36299999999999955
        },
        {
          "name": "G5",
          "midi": 79,
          "time": 31.149999999999828,
          "velocity": 0.5433070866141733,
          "duration": 0.36299999999999955
        },
        {
          "name": "D6",
          "midi": 86,
          "time": 31.15999999999983,
          "velocity": 0.5118110236220472,
          "duration": 0.036999999999999034
        },
        {
          "name": "D6",
          "midi": 86,
          "time": 31.15999999999983,
          "velocity": 0.5118110236220472,
          "duration": 0.036999999999999034
        },
        {
          "name": "A6",
          "midi": 93,
          "time": 31.17999999999983,
          "velocity": 0.49606299212598426,
          "duration": 0.037000000000002586
        },
        {
          "name": "A6",
          "midi": 93,
          "time": 31.17999999999983,
          "velocity": 0.49606299212598426,
          "duration": 0.037000000000002586
        },
        {
          "name": "D7",
          "midi": 98,
          "time": 31.19999999999983,
          "velocity": 0.5196850393700787,
          "duration": 0.028000000000002245
        },
        {
          "name": "D7",
          "midi": 98,
          "time": 31.19999999999983,
          "velocity": 0.5196850393700787,
          "duration": 0.028000000000002245
        },
        {
          "name": "G6",
          "midi": 91,
          "time": 31.20999999999983,
          "velocity": 0.49606299212598426,
          "duration": 0.028000000000002245
        },
        {
          "name": "G6",
          "midi": 91,
          "time": 31.20999999999983,
          "velocity": 0.49606299212598426,
          "duration": 0.028000000000002245
        },
        {
          "name": "A#5",
          "midi": 82,
          "time": 31.238999999999834,
          "velocity": 0.5039370078740157,
          "duration": 0.0470000000000006
        },
        {
          "name": "A#6",
          "midi": 94,
          "time": 31.238999999999834,
          "velocity": 0.5118110236220472,
          "duration": 0.09699999999999775
        },
        {
          "name": "A#5",
          "midi": 82,
          "time": 31.238999999999834,
          "velocity": 0.5039370078740157,
          "duration": 0.0470000000000006
        },
        {
          "name": "A#6",
          "midi": 94,
          "time": 31.238999999999834,
          "velocity": 0.5118110236220472,
          "duration": 0.09699999999999775
        },
        {
          "name": "A#7",
          "midi": 106,
          "time": 31.248999999999835,
          "velocity": 0.48031496062992124,
          "duration": 0.018000000000000682
        },
        {
          "name": "A#7",
          "midi": 106,
          "time": 31.248999999999835,
          "velocity": 0.48031496062992124,
          "duration": 0.018000000000000682
        },
        {
          "name": "G6",
          "midi": 91,
          "time": 31.287999999999833,
          "velocity": 0.4881889763779528,
          "duration": 0.018000000000000682
        },
        {
          "name": "G6",
          "midi": 91,
          "time": 31.287999999999833,
          "velocity": 0.4881889763779528,
          "duration": 0.018000000000000682
        },
        {
          "name": "D7",
          "midi": 98,
          "time": 31.297999999999835,
          "velocity": 0.5354330708661418,
          "duration": 0.01799999999999713
        },
        {
          "name": "D7",
          "midi": 98,
          "time": 31.297999999999835,
          "velocity": 0.5354330708661418,
          "duration": 0.01799999999999713
        },
        {
          "name": "A#4",
          "midi": 70,
          "time": 31.307999999999833,
          "velocity": 0.5590551181102362,
          "duration": 0.382999999999992
        },
        {
          "name": "A#4",
          "midi": 70,
          "time": 31.307999999999833,
          "velocity": 0.5590551181102362,
          "duration": 0.382999999999992
        },
        {
          "name": "F6",
          "midi": 89,
          "time": 31.31799999999983,
          "velocity": 0.5039370078740157,
          "duration": 0.027999999999998693
        },
        {
          "name": "F6",
          "midi": 89,
          "time": 31.31799999999983,
          "velocity": 0.5039370078740157,
          "duration": 0.027999999999998693
        },
        {
          "name": "G6",
          "midi": 91,
          "time": 31.33799999999983,
          "velocity": 0.48031496062992124,
          "duration": 0.01799999999999713
        },
        {
          "name": "G6",
          "midi": 91,
          "time": 31.33799999999983,
          "velocity": 0.48031496062992124,
          "duration": 0.01799999999999713
        },
        {
          "name": "D5",
          "midi": 74,
          "time": 31.34799999999983,
          "velocity": 0.4645669291338583,
          "duration": 0.007999999999999119
        },
        {
          "name": "D5",
          "midi": 74,
          "time": 31.34799999999983,
          "velocity": 0.4645669291338583,
          "duration": 0.007999999999999119
        },
        {
          "name": "A#6",
          "midi": 94,
          "time": 31.35699999999983,
          "velocity": 0.4409448818897638,
          "duration": 0.018000000000000682
        },
        {
          "name": "A#6",
          "midi": 94,
          "time": 31.35699999999983,
          "velocity": 0.4409448818897638,
          "duration": 0.018000000000000682
        },
        {
          "name": "B6",
          "midi": 95,
          "time": 31.36699999999983,
          "velocity": 0.4409448818897638,
          "duration": 0.007999999999999119
        },
        {
          "name": "A#5",
          "midi": 82,
          "time": 31.36699999999983,
          "velocity": 0.4409448818897638,
          "duration": 0.027999999999998693
        },
        {
          "name": "B6",
          "midi": 95,
          "time": 31.36699999999983,
          "velocity": 0.4409448818897638,
          "duration": 0.007999999999999119
        },
        {
          "name": "A#5",
          "midi": 82,
          "time": 31.36699999999983,
          "velocity": 0.4409448818897638,
          "duration": 0.027999999999998693
        },
        {
          "name": "D#4",
          "midi": 63,
          "time": 31.38699999999983,
          "velocity": 0.4251968503937008,
          "duration": 0.036999999999999034
        },
        {
          "name": "A6",
          "midi": 93,
          "time": 31.38699999999983,
          "velocity": 0.41732283464566927,
          "duration": 0.027999999999998693
        },
        {
          "name": "D#4",
          "midi": 63,
          "time": 31.38699999999983,
          "velocity": 0.4251968503937008,
          "duration": 0.036999999999999034
        },
        {
          "name": "A6",
          "midi": 93,
          "time": 31.38699999999983,
          "velocity": 0.41732283464566927,
          "duration": 0.027999999999998693
        },
        {
          "name": "G6",
          "midi": 91,
          "time": 31.40699999999983,
          "velocity": 0.47244094488188976,
          "duration": 0.07699999999999818
        },
        {
          "name": "G6",
          "midi": 91,
          "time": 31.40699999999983,
          "velocity": 0.47244094488188976,
          "duration": 0.07699999999999818
        },
        {
          "name": "D7",
          "midi": 98,
          "time": 31.42699999999983,
          "velocity": 0.5275590551181102,
          "duration": 0.07699999999999818
        },
        {
          "name": "D7",
          "midi": 98,
          "time": 31.42699999999983,
          "velocity": 0.5275590551181102,
          "duration": 0.07699999999999818
        },
        {
          "name": "C8",
          "midi": 108,
          "time": 31.445999999999827,
          "velocity": 0.4566929133858268,
          "duration": 0.007999999999999119
        },
        {
          "name": "C8",
          "midi": 108,
          "time": 31.445999999999827,
          "velocity": 0.4566929133858268,
          "duration": 0.007999999999999119
        },
        {
          "name": "F6",
          "midi": 89,
          "time": 31.465999999999827,
          "velocity": 0.5196850393700787,
          "duration": 0.018000000000000682
        },
        {
          "name": "F6",
          "midi": 89,
          "time": 31.465999999999827,
          "velocity": 0.5196850393700787,
          "duration": 0.018000000000000682
        },
        {
          "name": "G4",
          "midi": 67,
          "time": 31.47599999999983,
          "velocity": 0.5511811023622047,
          "duration": 0.352999999999998
        },
        {
          "name": "G4",
          "midi": 67,
          "time": 31.47599999999983,
          "velocity": 0.5511811023622047,
          "duration": 0.352999999999998
        },
        {
          "name": "D#6",
          "midi": 87,
          "time": 31.495999999999828,
          "velocity": 0.6220472440944882,
          "duration": 0.10699999999999577
        },
        {
          "name": "A#6",
          "midi": 94,
          "time": 31.495999999999828,
          "velocity": 0.6456692913385826,
          "duration": 0.12599999999999412
        },
        {
          "name": "D#6",
          "midi": 87,
          "time": 31.495999999999828,
          "velocity": 0.6220472440944882,
          "duration": 0.10699999999999577
        },
        {
          "name": "A#6",
          "midi": 94,
          "time": 31.495999999999828,
          "velocity": 0.6456692913385826,
          "duration": 0.12599999999999412
        },
        {
          "name": "F5",
          "midi": 77,
          "time": 31.524999999999828,
          "velocity": 0.4645669291338583,
          "duration": 0.007999999999999119
        },
        {
          "name": "F5",
          "midi": 77,
          "time": 31.524999999999828,
          "velocity": 0.4645669291338583,
          "duration": 0.007999999999999119
        },
        {
          "name": "G6",
          "midi": 91,
          "time": 31.534999999999826,
          "velocity": 0.5196850393700787,
          "duration": 0.09699999999999775
        },
        {
          "name": "G6",
          "midi": 91,
          "time": 31.534999999999826,
          "velocity": 0.5196850393700787,
          "duration": 0.09699999999999775
        },
        {
          "name": "G7",
          "midi": 103,
          "time": 31.544999999999828,
          "velocity": 0.4566929133858268,
          "duration": 0.027999999999998693
        },
        {
          "name": "G7",
          "midi": 103,
          "time": 31.544999999999828,
          "velocity": 0.4566929133858268,
          "duration": 0.027999999999998693
        },
        {
          "name": "D4",
          "midi": 62,
          "time": 31.583999999999826,
          "velocity": 0.4645669291338583,
          "duration": 0.05699999999999861
        },
        {
          "name": "D4",
          "midi": 62,
          "time": 31.583999999999826,
          "velocity": 0.4645669291338583,
          "duration": 0.05699999999999861
        },
        {
          "name": "G5",
          "midi": 79,
          "time": 31.613999999999823,
          "velocity": 0.49606299212598426,
          "duration": 0.07700000000000173
        },
        {
          "name": "G5",
          "midi": 79,
          "time": 31.613999999999823,
          "velocity": 0.49606299212598426,
          "duration": 0.07700000000000173
        },
        {
          "name": "A#5",
          "midi": 82,
          "time": 31.633999999999823,
          "velocity": 0.5196850393700787,
          "duration": 0.0470000000000006
        },
        {
          "name": "A#5",
          "midi": 82,
          "time": 31.633999999999823,
          "velocity": 0.5196850393700787,
          "duration": 0.0470000000000006
        },
        {
          "name": "D5",
          "midi": 74,
          "time": 31.643999999999824,
          "velocity": 0.5039370078740157,
          "duration": 0.07700000000000173
        },
        {
          "name": "D5",
          "midi": 74,
          "time": 31.643999999999824,
          "velocity": 0.5039370078740157,
          "duration": 0.07700000000000173
        },
        {
          "name": "E4",
          "midi": 64,
          "time": 31.652999999999825,
          "velocity": 0.6692913385826772,
          "duration": 0.20500000000000185
        },
        {
          "name": "E4",
          "midi": 64,
          "time": 31.652999999999825,
          "velocity": 0.6692913385826772,
          "duration": 0.20500000000000185
        },
        {
          "name": "D#6",
          "midi": 87,
          "time": 31.692999999999824,
          "velocity": 0.4645669291338583,
          "duration": 0.0870000000000033
        },
        {
          "name": "D#6",
          "midi": 87,
          "time": 31.692999999999824,
          "velocity": 0.4645669291338583,
          "duration": 0.0870000000000033
        },
        {
          "name": "G#6",
          "midi": 92,
          "time": 31.702999999999825,
          "velocity": 0.47244094488188976,
          "duration": 0.036999999999999034
        },
        {
          "name": "E5",
          "midi": 76,
          "time": 31.702999999999825,
          "velocity": 0.44881889763779526,
          "duration": 0.036999999999999034
        },
        {
          "name": "G#6",
          "midi": 92,
          "time": 31.702999999999825,
          "velocity": 0.47244094488188976,
          "duration": 0.036999999999999034
        },
        {
          "name": "E5",
          "midi": 76,
          "time": 31.702999999999825,
          "velocity": 0.44881889763779526,
          "duration": 0.036999999999999034
        },
        {
          "name": "A#5",
          "midi": 82,
          "time": 31.741999999999823,
          "velocity": 0.47244094488188976,
          "duration": 0.06700000000000372
        },
        {
          "name": "A#5",
          "midi": 82,
          "time": 31.741999999999823,
          "velocity": 0.47244094488188976,
          "duration": 0.06700000000000372
        },
        {
          "name": "B5",
          "midi": 83,
          "time": 31.751999999999825,
          "velocity": 0.4566929133858268,
          "duration": 0.06700000000000372
        },
        {
          "name": "B5",
          "midi": 83,
          "time": 31.751999999999825,
          "velocity": 0.4566929133858268,
          "duration": 0.06700000000000372
        },
        {
          "name": "E5",
          "midi": 76,
          "time": 31.761999999999826,
          "velocity": 0.44881889763779526,
          "duration": 0.007999999999999119
        },
        {
          "name": "E5",
          "midi": 76,
          "time": 31.761999999999826,
          "velocity": 0.44881889763779526,
          "duration": 0.007999999999999119
        },
        {
          "name": "D4",
          "midi": 62,
          "time": 31.781999999999826,
          "velocity": 0.4409448818897638,
          "duration": 0.05700000000000216
        },
        {
          "name": "D4",
          "midi": 62,
          "time": 31.781999999999826,
          "velocity": 0.4409448818897638,
          "duration": 0.05700000000000216
        },
        {
          "name": "G5",
          "midi": 79,
          "time": 31.790999999999826,
          "velocity": 0.44881889763779526,
          "duration": 0.0470000000000006
        },
        {
          "name": "G5",
          "midi": 79,
          "time": 31.790999999999826,
          "velocity": 0.44881889763779526,
          "duration": 0.0470000000000006
        },
        {
          "name": "D5",
          "midi": 74,
          "time": 31.820999999999827,
          "velocity": 0.4566929133858268,
          "duration": 0.06700000000000017
        },
        {
          "name": "D5",
          "midi": 74,
          "time": 31.820999999999827,
          "velocity": 0.4566929133858268,
          "duration": 0.06700000000000017
        },
        {
          "name": "A6",
          "midi": 93,
          "time": 31.830999999999825,
          "velocity": 0.4881889763779528,
          "duration": 0.05700000000000216
        },
        {
          "name": "A6",
          "midi": 93,
          "time": 31.830999999999825,
          "velocity": 0.4881889763779528,
          "duration": 0.05700000000000216
        },
        {
          "name": "A5",
          "midi": 81,
          "time": 31.840999999999827,
          "velocity": 0.4330708661417323,
          "duration": 0.007999999999999119
        },
        {
          "name": "A5",
          "midi": 81,
          "time": 31.840999999999827,
          "velocity": 0.4330708661417323,
          "duration": 0.007999999999999119
        },
        {
          "name": "A#5",
          "midi": 82,
          "time": 31.850999999999825,
          "velocity": 0.4645669291338583,
          "duration": 0.028000000000002245
        },
        {
          "name": "A#5",
          "midi": 82,
          "time": 31.850999999999825,
          "velocity": 0.4645669291338583,
          "duration": 0.028000000000002245
        },
        {
          "name": "A#5",
          "midi": 82,
          "time": 31.860999999999827,
          "velocity": 0.5039370078740157,
          "duration": 0.12599999999999412
        },
        {
          "name": "A#5",
          "midi": 82,
          "time": 31.860999999999827,
          "velocity": 0.5039370078740157,
          "duration": 0.12599999999999412
        },
        {
          "name": "D8",
          "midi": 110,
          "time": 31.869999999999827,
          "velocity": 0.48031496062992124,
          "duration": 0.027999999999998693
        },
        {
          "name": "D8",
          "midi": 110,
          "time": 31.869999999999827,
          "velocity": 0.48031496062992124,
          "duration": 0.027999999999998693
        },
        {
          "name": "F7",
          "midi": 101,
          "time": 31.87999999999983,
          "velocity": 0.4645669291338583,
          "duration": 0.007999999999999119
        },
        {
          "name": "F7",
          "midi": 101,
          "time": 31.87999999999983,
          "velocity": 0.4645669291338583,
          "duration": 0.007999999999999119
        },
        {
          "name": "D6",
          "midi": 86,
          "time": 31.889999999999826,
          "velocity": 0.48031496062992124,
          "duration": 0.027999999999998693
        },
        {
          "name": "D6",
          "midi": 86,
          "time": 31.889999999999826,
          "velocity": 0.48031496062992124,
          "duration": 0.027999999999998693
        },
        {
          "name": "A#6",
          "midi": 94,
          "time": 31.899999999999824,
          "velocity": 0.48031496062992124,
          "duration": 0.0470000000000006
        },
        {
          "name": "A#7",
          "midi": 106,
          "time": 31.899999999999824,
          "velocity": 0.4881889763779528,
          "duration": 0.06700000000000017
        },
        {
          "name": "A#6",
          "midi": 94,
          "time": 31.899999999999824,
          "velocity": 0.48031496062992124,
          "duration": 0.0470000000000006
        },
        {
          "name": "A#7",
          "midi": 106,
          "time": 31.899999999999824,
          "velocity": 0.4881889763779528,
          "duration": 0.06700000000000017
        },
        {
          "name": "G5",
          "midi": 79,
          "time": 31.909999999999826,
          "velocity": 0.4645669291338583,
          "duration": 0.254000000000012
        },
        {
          "name": "G5",
          "midi": 79,
          "time": 31.909999999999826,
          "velocity": 0.4645669291338583,
          "duration": 0.254000000000012
        },
        {
          "name": "D7",
          "midi": 98,
          "time": 31.919999999999824,
          "velocity": 0.4566929133858268,
          "duration": 0.018000000000000682
        },
        {
          "name": "D7",
          "midi": 98,
          "time": 31.919999999999824,
          "velocity": 0.4566929133858268,
          "duration": 0.018000000000000682
        },
        {
          "name": "G4",
          "midi": 67,
          "time": 31.948999999999824,
          "velocity": 0.4330708661417323,
          "duration": 0.027999999999998693
        },
        {
          "name": "G4",
          "midi": 67,
          "time": 31.948999999999824,
          "velocity": 0.4330708661417323,
          "duration": 0.027999999999998693
        },
        {
          "name": "E4",
          "midi": 64,
          "time": 31.958999999999826,
          "velocity": 0.44881889763779526,
          "duration": 0.0870000000000033
        },
        {
          "name": "E4",
          "midi": 64,
          "time": 31.958999999999826,
          "velocity": 0.44881889763779526,
          "duration": 0.0870000000000033
        },
        {
          "name": "D5",
          "midi": 74,
          "time": 31.968999999999824,
          "velocity": 0.41732283464566927,
          "duration": 0.02799999999999514
        },
        {
          "name": "D5",
          "midi": 74,
          "time": 31.968999999999824,
          "velocity": 0.41732283464566927,
          "duration": 0.02799999999999514
        },
        {
          "name": "F7",
          "midi": 101,
          "time": 31.97899999999982,
          "velocity": 0.41732283464566927,
          "duration": 0.036999999999999034
        },
        {
          "name": "F7",
          "midi": 101,
          "time": 31.97899999999982,
          "velocity": 0.41732283464566927,
          "duration": 0.036999999999999034
        },
        {
          "name": "D7",
          "midi": 98,
          "time": 31.98899999999982,
          "velocity": 0.41732283464566927,
          "duration": 0.007999999999999119
        },
        {
          "name": "D7",
          "midi": 98,
          "time": 31.98899999999982,
          "velocity": 0.41732283464566927,
          "duration": 0.007999999999999119
        },
        {
          "name": "B5",
          "midi": 83,
          "time": 31.998999999999818,
          "velocity": 0.4409448818897638,
          "duration": 0.09700000000001552
        },
        {
          "name": "B5",
          "midi": 83,
          "time": 31.998999999999818,
          "velocity": 0.4409448818897638,
          "duration": 0.09700000000001552
        },
        {
          "name": "G4",
          "midi": 67,
          "time": 32.01799999999982,
          "velocity": 0.4251968503937008,
          "duration": 0.136000000000017
        },
        {
          "name": "E6",
          "midi": 88,
          "time": 32.01799999999982,
          "velocity": 0.41732283464566927,
          "duration": 0.018000000000000682
        },
        {
          "name": "G4",
          "midi": 67,
          "time": 32.01799999999982,
          "velocity": 0.4251968503937008,
          "duration": 0.136000000000017
        },
        {
          "name": "E6",
          "midi": 88,
          "time": 32.01799999999982,
          "velocity": 0.41732283464566927,
          "duration": 0.018000000000000682
        },
        {
          "name": "B6",
          "midi": 95,
          "time": 32.037999999999826,
          "velocity": 0.41732283464566927,
          "duration": 0.018000000000007788
        },
        {
          "name": "B6",
          "midi": 95,
          "time": 32.037999999999826,
          "velocity": 0.41732283464566927,
          "duration": 0.018000000000007788
        },
        {
          "name": "D6",
          "midi": 86,
          "time": 32.04799999999983,
          "velocity": 0.41732283464566927,
          "duration": 0.05700000000000216
        },
        {
          "name": "D6",
          "midi": 86,
          "time": 32.04799999999983,
          "velocity": 0.41732283464566927,
          "duration": 0.05700000000000216
        },
        {
          "name": "A#5",
          "midi": 82,
          "time": 32.057999999999836,
          "velocity": 0.4330708661417323,
          "duration": 0.09700000000000131
        },
        {
          "name": "A#5",
          "midi": 82,
          "time": 32.057999999999836,
          "velocity": 0.4330708661417323,
          "duration": 0.09700000000000131
        },
        {
          "name": "A#4",
          "midi": 70,
          "time": 32.067999999999834,
          "velocity": 0.41732283464566927,
          "duration": 0.036999999999999034
        },
        {
          "name": "A#4",
          "midi": 70,
          "time": 32.067999999999834,
          "velocity": 0.41732283464566927,
          "duration": 0.036999999999999034
        },
        {
          "name": "D5",
          "midi": 74,
          "time": 32.106999999999836,
          "velocity": 0.41732283464566927,
          "duration": 0.03700000000000614
        },
        {
          "name": "D5",
          "midi": 74,
          "time": 32.106999999999836,
          "velocity": 0.41732283464566927,
          "duration": 0.03700000000000614
        },
        {
          "name": "A#4",
          "midi": 70,
          "time": 32.12699999999984,
          "velocity": 0.4094488188976378,
          "duration": 0.008000000000002672
        },
        {
          "name": "B5",
          "midi": 83,
          "time": 32.12699999999984,
          "velocity": 0.4251968503937008,
          "duration": 0.07700000000000529
        },
        {
          "name": "A#4",
          "midi": 70,
          "time": 32.12699999999984,
          "velocity": 0.4094488188976378,
          "duration": 0.008000000000002672
        },
        {
          "name": "B5",
          "midi": 83,
          "time": 32.12699999999984,
          "velocity": 0.4251968503937008,
          "duration": 0.07700000000000529
        },
        {
          "name": "G6",
          "midi": 91,
          "time": 32.155999999999835,
          "velocity": 0.44881889763779526,
          "duration": 0.3440000000000438
        },
        {
          "name": "D6",
          "midi": 86,
          "time": 32.155999999999835,
          "velocity": 0.4645669291338583,
          "duration": 0.028000000000005798
        },
        {
          "name": "G6",
          "midi": 91,
          "time": 32.155999999999835,
          "velocity": 0.44881889763779526,
          "duration": 0.3440000000000438
        },
        {
          "name": "D6",
          "midi": 86,
          "time": 32.155999999999835,
          "velocity": 0.4645669291338583,
          "duration": 0.028000000000005798
        },
        {
          "name": "G7",
          "midi": 103,
          "time": 32.16599999999984,
          "velocity": 0.44881889763779526,
          "duration": 0.04700000000000415
        },
        {
          "name": "D#6",
          "midi": 87,
          "time": 32.16599999999984,
          "velocity": 0.4881889763779528,
          "duration": 0.10700000000000642
        },
        {
          "name": "G7",
          "midi": 103,
          "time": 32.16599999999984,
          "velocity": 0.44881889763779526,
          "duration": 0.04700000000000415
        },
        {
          "name": "D#6",
          "midi": 87,
          "time": 32.16599999999984,
          "velocity": 0.4881889763779528,
          "duration": 0.10700000000000642
        },
        {
          "name": "A#6",
          "midi": 94,
          "time": 32.17599999999984,
          "velocity": 0.5669291338582677,
          "duration": 0.1950000000000287
        },
        {
          "name": "A#6",
          "midi": 94,
          "time": 32.17599999999984,
          "velocity": 0.5669291338582677,
          "duration": 0.1950000000000287
        },
        {
          "name": "F5",
          "midi": 77,
          "time": 32.20599999999985,
          "velocity": 0.4566929133858268,
          "duration": 0.036999999999999034
        },
        {
          "name": "F5",
          "midi": 77,
          "time": 32.20599999999985,
          "velocity": 0.4566929133858268,
          "duration": 0.036999999999999034
        },
        {
          "name": "G7",
          "midi": 103,
          "time": 32.215999999999845,
          "velocity": 0.4566929133858268,
          "duration": 0.027999999999998693
        },
        {
          "name": "G7",
          "midi": 103,
          "time": 32.215999999999845,
          "velocity": 0.4566929133858268,
          "duration": 0.027999999999998693
        },
        {
          "name": "A#5",
          "midi": 82,
          "time": 32.24499999999984,
          "velocity": 0.4251968503937008,
          "duration": 0.05800000000001404
        },
        {
          "name": "A#5",
          "midi": 82,
          "time": 32.24499999999984,
          "velocity": 0.4251968503937008,
          "duration": 0.05800000000001404
        },
        {
          "name": "B5",
          "midi": 83,
          "time": 32.25499999999984,
          "velocity": 0.41732283464566927,
          "duration": 0.008000000000002672
        },
        {
          "name": "B5",
          "midi": 83,
          "time": 32.25499999999984,
          "velocity": 0.41732283464566927,
          "duration": 0.008000000000002672
        },
        {
          "name": "D#6",
          "midi": 87,
          "time": 32.264999999999844,
          "velocity": 0.4409448818897638,
          "duration": 0.1260000000000261
        },
        {
          "name": "D#6",
          "midi": 87,
          "time": 32.264999999999844,
          "velocity": 0.4409448818897638,
          "duration": 0.1260000000000261
        },
        {
          "name": "B6",
          "midi": 95,
          "time": 32.27499999999985,
          "velocity": 0.44881889763779526,
          "duration": 0.008000000000002672
        },
        {
          "name": "B6",
          "midi": 95,
          "time": 32.27499999999985,
          "velocity": 0.44881889763779526,
          "duration": 0.008000000000002672
        },
        {
          "name": "A#5",
          "midi": 82,
          "time": 32.284999999999854,
          "velocity": 0.4251968503937008,
          "duration": 0.05700000000000216
        },
        {
          "name": "A#5",
          "midi": 82,
          "time": 32.284999999999854,
          "velocity": 0.4251968503937008,
          "duration": 0.05700000000000216
        },
        {
          "name": "G#5",
          "midi": 80,
          "time": 32.29499999999985,
          "velocity": 0.4251968503937008,
          "duration": 0.057000000000009265
        },
        {
          "name": "G#5",
          "midi": 80,
          "time": 32.29499999999985,
          "velocity": 0.4251968503937008,
          "duration": 0.057000000000009265
        },
        {
          "name": "D#7",
          "midi": 99,
          "time": 32.323999999999856,
          "velocity": 0.41732283464566927,
          "duration": 0.008000000000002672
        },
        {
          "name": "D#7",
          "midi": 99,
          "time": 32.323999999999856,
          "velocity": 0.41732283464566927,
          "duration": 0.008000000000002672
        },
        {
          "name": "B6",
          "midi": 95,
          "time": 32.34399999999986,
          "velocity": 0.41732283464566927,
          "duration": 0.07700000000001239
        },
        {
          "name": "B6",
          "midi": 95,
          "time": 32.34399999999986,
          "velocity": 0.41732283464566927,
          "duration": 0.07700000000001239
        },
        {
          "name": "B5",
          "midi": 83,
          "time": 32.353999999999864,
          "velocity": 0.4094488188976378,
          "duration": 0.028000000000005798
        },
        {
          "name": "B5",
          "midi": 83,
          "time": 32.353999999999864,
          "velocity": 0.4094488188976378,
          "duration": 0.028000000000005798
        },
        {
          "name": "G5",
          "midi": 79,
          "time": 32.38299999999987,
          "velocity": 0.4015748031496063,
          "duration": 0.07700000000000529
        },
        {
          "name": "D#6",
          "midi": 87,
          "time": 32.38299999999987,
          "velocity": 0.41732283464566927,
          "duration": 0.21500000000003894
        },
        {
          "name": "G5",
          "midi": 79,
          "time": 32.38299999999987,
          "velocity": 0.4015748031496063,
          "duration": 0.07700000000000529
        },
        {
          "name": "D#6",
          "midi": 87,
          "time": 32.38299999999987,
          "velocity": 0.41732283464566927,
          "duration": 0.21500000000003894
        },
        {
          "name": "A#6",
          "midi": 94,
          "time": 32.41299999999987,
          "velocity": 0.41732283464566927,
          "duration": 0.10700000000001353
        },
        {
          "name": "A#4",
          "midi": 70,
          "time": 32.41299999999987,
          "velocity": 0.4015748031496063,
          "duration": 0.06700000000000728
        },
        {
          "name": "A#6",
          "midi": 94,
          "time": 32.41299999999987,
          "velocity": 0.41732283464566927,
          "duration": 0.10700000000001353
        },
        {
          "name": "A#4",
          "midi": 70,
          "time": 32.41299999999987,
          "velocity": 0.4015748031496063,
          "duration": 0.06700000000000728
        },
        {
          "name": "A#5",
          "midi": 82,
          "time": 32.43299999999987,
          "velocity": 0.4015748031496063,
          "duration": 0.06700000000000728
        },
        {
          "name": "A#5",
          "midi": 82,
          "time": 32.43299999999987,
          "velocity": 0.4015748031496063,
          "duration": 0.06700000000000728
        },
        {
          "name": "G6",
          "midi": 91,
          "time": 32.48199999999988,
          "velocity": 0.4015748031496063,
          "duration": 0.0770000000000195
        },
        {
          "name": "G6",
          "midi": 91,
          "time": 32.48199999999988,
          "velocity": 0.4015748031496063,
          "duration": 0.0770000000000195
        },
        {
          "name": "D3",
          "midi": 50,
          "time": 32.50199999999988,
          "velocity": 0.3937007874015748,
          "duration": 0.018000000000000682
        },
        {
          "name": "D3",
          "midi": 50,
          "time": 32.50199999999988,
          "velocity": 0.3937007874015748,
          "duration": 0.018000000000000682
        },
        {
          "name": "A#6",
          "midi": 94,
          "time": 32.51199999999988,
          "velocity": 0.4015748031496063,
          "duration": 0.10600000000002296
        },
        {
          "name": "A#6",
          "midi": 94,
          "time": 32.51199999999988,
          "velocity": 0.4015748031496063,
          "duration": 0.10600000000002296
        },
        {
          "name": "D#2",
          "midi": 39,
          "time": 32.52099999999988,
          "velocity": 0.3937007874015748,
          "duration": 0.008000000000002672
        },
        {
          "name": "D#2",
          "midi": 39,
          "time": 32.52099999999988,
          "velocity": 0.3937007874015748,
          "duration": 0.008000000000002672
        },
        {
          "name": "D6",
          "midi": 86,
          "time": 32.530999999999885,
          "velocity": 0.3937007874015748,
          "duration": 0.008000000000002672
        },
        {
          "name": "A#5",
          "midi": 82,
          "time": 32.530999999999885,
          "velocity": 0.3937007874015748,
          "duration": 0.06700000000002149
        },
        {
          "name": "D6",
          "midi": 86,
          "time": 32.530999999999885,
          "velocity": 0.3937007874015748,
          "duration": 0.008000000000002672
        },
        {
          "name": "A#5",
          "midi": 82,
          "time": 32.530999999999885,
          "velocity": 0.3937007874015748,
          "duration": 0.06700000000002149
        },
        {
          "name": "A2",
          "midi": 45,
          "time": 32.54099999999989,
          "velocity": 0.3937007874015748,
          "duration": 0.008000000000002672
        },
        {
          "name": "A2",
          "midi": 45,
          "time": 32.54099999999989,
          "velocity": 0.3937007874015748,
          "duration": 0.008000000000002672
        },
        {
          "name": "G6",
          "midi": 91,
          "time": 32.550999999999895,
          "velocity": 0.3937007874015748,
          "duration": 0.06700000000000728
        },
        {
          "name": "G6",
          "midi": 91,
          "time": 32.550999999999895,
          "velocity": 0.3937007874015748,
          "duration": 0.06700000000000728
        },
        {
          "name": "D7",
          "midi": 98,
          "time": 32.5609999999999,
          "velocity": 0.3937007874015748,
          "duration": 0.018000000000000682
        },
        {
          "name": "D7",
          "midi": 98,
          "time": 32.5609999999999,
          "velocity": 0.3937007874015748,
          "duration": 0.018000000000000682
        },
        {
          "name": "E3",
          "midi": 52,
          "time": 32.5709999999999,
          "velocity": 0.3937007874015748,
          "duration": 0.008000000000002672
        },
        {
          "name": "E3",
          "midi": 52,
          "time": 32.5709999999999,
          "velocity": 0.3937007874015748,
          "duration": 0.008000000000002672
        },
        {
          "name": "F#3",
          "midi": 54,
          "time": 32.589999999999904,
          "velocity": 0.3937007874015748,
          "duration": 0.018000000000000682
        },
        {
          "name": "F#3",
          "midi": 54,
          "time": 32.589999999999904,
          "velocity": 0.3937007874015748,
          "duration": 0.018000000000000682
        },
        {
          "name": "B1",
          "midi": 35,
          "time": 32.619999999999905,
          "velocity": 0.3937007874015748,
          "duration": 0.008000000000002672
        },
        {
          "name": "B1",
          "midi": 35,
          "time": 32.619999999999905,
          "velocity": 0.3937007874015748,
          "duration": 0.008000000000002672
        },
        {
          "name": "D2",
          "midi": 38,
          "time": 32.649999999999906,
          "velocity": 0.3937007874015748,
          "duration": 0.027999999999998693
        },
        {
          "name": "D2",
          "midi": 38,
          "time": 32.649999999999906,
          "velocity": 0.3937007874015748,
          "duration": 0.027999999999998693
        },
        {
          "name": "A2",
          "midi": 45,
          "time": 32.659999999999904,
          "velocity": 0.3937007874015748,
          "duration": 0.008000000000002672
        },
        {
          "name": "F3",
          "midi": 53,
          "time": 32.659999999999904,
          "velocity": 0.3937007874015748,
          "duration": 0.018000000000000682
        },
        {
          "name": "A2",
          "midi": 45,
          "time": 32.659999999999904,
          "velocity": 0.3937007874015748,
          "duration": 0.008000000000002672
        },
        {
          "name": "F3",
          "midi": 53,
          "time": 32.659999999999904,
          "velocity": 0.3937007874015748,
          "duration": 0.018000000000000682
        },
        {
          "name": "A#2",
          "midi": 46,
          "time": 32.6789999999999,
          "velocity": 0.3937007874015748,
          "duration": 0.008000000000002672
        },
        {
          "name": "A#2",
          "midi": 46,
          "time": 32.6789999999999,
          "velocity": 0.3937007874015748,
          "duration": 0.008000000000002672
        },
        {
          "name": "E2",
          "midi": 40,
          "time": 32.698999999999906,
          "velocity": 0.3937007874015748,
          "duration": 0.008000000000002672
        },
        {
          "name": "E2",
          "midi": 40,
          "time": 32.698999999999906,
          "velocity": 0.3937007874015748,
          "duration": 0.008000000000002672
        },
        {
          "name": "A4",
          "midi": 69,
          "time": 32.70899999999991,
          "velocity": 0.5669291338582677,
          "duration": 0.23500000000002785
        },
        {
          "name": "A4",
          "midi": 69,
          "time": 32.70899999999991,
          "velocity": 0.5669291338582677,
          "duration": 0.23500000000002785
        },
        {
          "name": "A5",
          "midi": 81,
          "time": 32.71899999999991,
          "velocity": 0.4330708661417323,
          "duration": 0.03700000000000614
        },
        {
          "name": "G3",
          "midi": 55,
          "time": 32.71899999999991,
          "velocity": 0.4094488188976378,
          "duration": 0.008000000000002672
        },
        {
          "name": "A5",
          "midi": 81,
          "time": 32.71899999999991,
          "velocity": 0.4330708661417323,
          "duration": 0.03700000000000614
        },
        {
          "name": "G3",
          "midi": 55,
          "time": 32.71899999999991,
          "velocity": 0.4094488188976378,
          "duration": 0.008000000000002672
        },
        {
          "name": "E4",
          "midi": 64,
          "time": 32.728999999999914,
          "velocity": 0.5905511811023622,
          "duration": 0.24500000000002586
        },
        {
          "name": "F5",
          "midi": 77,
          "time": 32.728999999999914,
          "velocity": 0.4330708661417323,
          "duration": 0.018000000000000682
        },
        {
          "name": "E4",
          "midi": 64,
          "time": 32.728999999999914,
          "velocity": 0.5905511811023622,
          "duration": 0.24500000000002586
        },
        {
          "name": "F5",
          "midi": 77,
          "time": 32.728999999999914,
          "velocity": 0.4330708661417323,
          "duration": 0.018000000000000682
        },
        {
          "name": "G5",
          "midi": 79,
          "time": 32.74799999999991,
          "velocity": 0.44881889763779526,
          "duration": 0.008000000000002672
        },
        {
          "name": "G5",
          "midi": 79,
          "time": 32.74799999999991,
          "velocity": 0.44881889763779526,
          "duration": 0.008000000000002672
        },
        {
          "name": "G6",
          "midi": 91,
          "time": 32.75799999999992,
          "velocity": 0.4881889763779528,
          "duration": 0.008000000000002672
        },
        {
          "name": "G6",
          "midi": 91,
          "time": 32.75799999999992,
          "velocity": 0.4881889763779528,
          "duration": 0.008000000000002672
        },
        {
          "name": "A#4",
          "midi": 70,
          "time": 32.76799999999992,
          "velocity": 0.5433070866141733,
          "duration": 0.008000000000002672
        },
        {
          "name": "A#4",
          "midi": 70,
          "time": 32.76799999999992,
          "velocity": 0.5433070866141733,
          "duration": 0.008000000000002672
        },
        {
          "name": "F#4",
          "midi": 66,
          "time": 32.77799999999993,
          "velocity": 0.5905511811023622,
          "duration": 0.07699999999999818
        },
        {
          "name": "F#4",
          "midi": 66,
          "time": 32.77799999999993,
          "velocity": 0.5905511811023622,
          "duration": 0.07699999999999818
        },
        {
          "name": "G6",
          "midi": 91,
          "time": 32.787999999999926,
          "velocity": 0.4645669291338583,
          "duration": 0.05700000000000216
        },
        {
          "name": "G6",
          "midi": 91,
          "time": 32.787999999999926,
          "velocity": 0.4645669291338583,
          "duration": 0.05700000000000216
        },
        {
          "name": "F3",
          "midi": 53,
          "time": 32.797999999999924,
          "velocity": 0.4881889763779528,
          "duration": 0.008000000000002672
        },
        {
          "name": "C#4",
          "midi": 61,
          "time": 32.797999999999924,
          "velocity": 0.48031496062992124,
          "duration": 0.008000000000002672
        },
        {
          "name": "F3",
          "midi": 53,
          "time": 32.797999999999924,
          "velocity": 0.4881889763779528,
          "duration": 0.008000000000002672
        },
        {
          "name": "C#4",
          "midi": 61,
          "time": 32.797999999999924,
          "velocity": 0.48031496062992124,
          "duration": 0.008000000000002672
        },
        {
          "name": "B5",
          "midi": 83,
          "time": 32.81699999999993,
          "velocity": 0.4566929133858268,
          "duration": 0.056999999999995055
        },
        {
          "name": "G4",
          "midi": 67,
          "time": 32.81699999999993,
          "velocity": 0.5354330708661418,
          "duration": 0.07699999999999818
        },
        {
          "name": "B5",
          "midi": 83,
          "time": 32.81699999999993,
          "velocity": 0.4566929133858268,
          "duration": 0.056999999999995055
        },
        {
          "name": "G4",
          "midi": 67,
          "time": 32.81699999999993,
          "velocity": 0.5354330708661418,
          "duration": 0.07699999999999818
        },
        {
          "name": "C#4",
          "midi": 61,
          "time": 32.85699999999993,
          "velocity": 0.5039370078740157,
          "duration": 0.12600000000001188
        },
        {
          "name": "C#4",
          "midi": 61,
          "time": 32.85699999999993,
          "velocity": 0.5039370078740157,
          "duration": 0.12600000000001188
        },
        {
          "name": "C#5",
          "midi": 73,
          "time": 32.866999999999926,
          "velocity": 0.4409448818897638,
          "duration": 0.03700000000000614
        },
        {
          "name": "C#5",
          "midi": 73,
          "time": 32.866999999999926,
          "velocity": 0.4409448818897638,
          "duration": 0.03700000000000614
        },
        {
          "name": "G#5",
          "midi": 80,
          "time": 32.89599999999993,
          "velocity": 0.4330708661417323,
          "duration": 0.008000000000002672
        },
        {
          "name": "G#5",
          "midi": 80,
          "time": 32.89599999999993,
          "velocity": 0.4330708661417323,
          "duration": 0.008000000000002672
        },
        {
          "name": "G3",
          "midi": 55,
          "time": 32.905999999999935,
          "velocity": 0.4409448818897638,
          "duration": 0.018000000000000682
        },
        {
          "name": "G3",
          "midi": 55,
          "time": 32.905999999999935,
          "velocity": 0.4409448818897638,
          "duration": 0.018000000000000682
        },
        {
          "name": "F4",
          "midi": 65,
          "time": 32.91599999999993,
          "velocity": 0.4409448818897638,
          "duration": 0.008000000000002672
        },
        {
          "name": "F4",
          "midi": 65,
          "time": 32.91599999999993,
          "velocity": 0.4409448818897638,
          "duration": 0.008000000000002672
        },
        {
          "name": "G#5",
          "midi": 80,
          "time": 32.92599999999994,
          "velocity": 0.4330708661417323,
          "duration": 0.008000000000002672
        },
        {
          "name": "G#5",
          "midi": 80,
          "time": 32.92599999999994,
          "velocity": 0.4330708661417323,
          "duration": 0.008000000000002672
        },
        {
          "name": "G#6",
          "midi": 92,
          "time": 32.94599999999994,
          "velocity": 0.5354330708661418,
          "duration": 0.0870000000000033
        },
        {
          "name": "G4",
          "midi": 67,
          "time": 32.94599999999994,
          "velocity": 0.4566929133858268,
          "duration": 0.027999999999998693
        },
        {
          "name": "A5",
          "midi": 81,
          "time": 32.94599999999994,
          "velocity": 0.4409448818897638,
          "duration": 0.008000000000002672
        },
        {
          "name": "G#6",
          "midi": 92,
          "time": 32.94599999999994,
          "velocity": 0.5354330708661418,
          "duration": 0.0870000000000033
        },
        {
          "name": "G4",
          "midi": 67,
          "time": 32.94599999999994,
          "velocity": 0.4566929133858268,
          "duration": 0.027999999999998693
        },
        {
          "name": "A5",
          "midi": 81,
          "time": 32.94599999999994,
          "velocity": 0.4409448818897638,
          "duration": 0.008000000000002672
        },
        {
          "name": "C#6",
          "midi": 85,
          "time": 32.95499999999994,
          "velocity": 0.5118110236220472,
          "duration": 0.0870000000000033
        },
        {
          "name": "C#6",
          "midi": 85,
          "time": 32.95499999999994,
          "velocity": 0.5118110236220472,
          "duration": 0.0870000000000033
        },
        {
          "name": "A6",
          "midi": 93,
          "time": 32.96499999999994,
          "velocity": 0.4881889763779528,
          "duration": 0.07700000000000529
        },
        {
          "name": "A6",
          "midi": 93,
          "time": 32.96499999999994,
          "velocity": 0.4881889763779528,
          "duration": 0.07700000000000529
        },
        {
          "name": "B6",
          "midi": 95,
          "time": 32.98499999999994,
          "velocity": 0.5984251968503937,
          "duration": 0.05700000000000216
        },
        {
          "name": "C#5",
          "midi": 73,
          "time": 32.98499999999994,
          "velocity": 0.48031496062992124,
          "duration": 0.027999999999998693
        },
        {
          "name": "B6",
          "midi": 95,
          "time": 32.98499999999994,
          "velocity": 0.5984251968503937,
          "duration": 0.05700000000000216
        },
        {
          "name": "C#5",
          "midi": 73,
          "time": 32.98499999999994,
          "velocity": 0.48031496062992124,
          "duration": 0.027999999999998693
        },
        {
          "name": "E5",
          "midi": 76,
          "time": 32.99499999999994,
          "velocity": 0.4645669291338583,
          "duration": 0.30400000000003047
        },
        {
          "name": "E5",
          "midi": 76,
          "time": 32.99499999999994,
          "velocity": 0.4645669291338583,
          "duration": 0.30400000000003047
        },
        {
          "name": "E4",
          "midi": 64,
          "time": 33.023999999999944,
          "velocity": 0.4881889763779528,
          "duration": 0.1460000000000079
        },
        {
          "name": "E4",
          "midi": 64,
          "time": 33.023999999999944,
          "velocity": 0.4881889763779528,
          "duration": 0.1460000000000079
        },
        {
          "name": "G4",
          "midi": 67,
          "time": 33.04399999999995,
          "velocity": 0.4566929133858268,
          "duration": 0.027999999999998693
        },
        {
          "name": "G4",
          "midi": 67,
          "time": 33.04399999999995,
          "velocity": 0.4566929133858268,
          "duration": 0.027999999999998693
        },
        {
          "name": "C#4",
          "midi": 61,
          "time": 33.053999999999945,
          "velocity": 0.4409448818897638,
          "duration": 0.05700000000000216
        },
        {
          "name": "C#5",
          "midi": 73,
          "time": 33.053999999999945,
          "velocity": 0.44881889763779526,
          "duration": 0.036999999999999034
        },
        {
          "name": "C#4",
          "midi": 61,
          "time": 33.053999999999945,
          "velocity": 0.4409448818897638,
          "duration": 0.05700000000000216
        },
        {
          "name": "C#5",
          "midi": 73,
          "time": 33.053999999999945,
          "velocity": 0.44881889763779526,
          "duration": 0.036999999999999034
        },
        {
          "name": "A5",
          "midi": 81,
          "time": 33.07399999999995,
          "velocity": 0.4330708661417323,
          "duration": 0.027999999999998693
        },
        {
          "name": "A5",
          "midi": 81,
          "time": 33.07399999999995,
          "velocity": 0.4330708661417323,
          "duration": 0.027999999999998693
        },
        {
          "name": "A6",
          "midi": 93,
          "time": 33.083999999999946,
          "velocity": 0.4330708661417323,
          "duration": 0.018000000000000682
        },
        {
          "name": "A6",
          "midi": 93,
          "time": 33.083999999999946,
          "velocity": 0.4330708661417323,
          "duration": 0.018000000000000682
        },
        {
          "name": "B5",
          "midi": 83,
          "time": 33.102999999999945,
          "velocity": 0.4409448818897638,
          "duration": 0.0870000000000104
        },
        {
          "name": "B5",
          "midi": 83,
          "time": 33.102999999999945,
          "velocity": 0.4409448818897638,
          "duration": 0.0870000000000104
        },
        {
          "name": "E6",
          "midi": 88,
          "time": 33.11299999999995,
          "velocity": 0.4330708661417323,
          "duration": 0.008000000000002672
        },
        {
          "name": "B6",
          "midi": 95,
          "time": 33.11299999999995,
          "velocity": 0.4330708661417323,
          "duration": 0.03700000000000614
        },
        {
          "name": "E6",
          "midi": 88,
          "time": 33.11299999999995,
          "velocity": 0.4330708661417323,
          "duration": 0.008000000000002672
        },
        {
          "name": "B6",
          "midi": 95,
          "time": 33.11299999999995,
          "velocity": 0.4330708661417323,
          "duration": 0.03700000000000614
        },
        {
          "name": "C#6",
          "midi": 85,
          "time": 33.122999999999955,
          "velocity": 0.4330708661417323,
          "duration": 0.008000000000002672
        },
        {
          "name": "C#6",
          "midi": 85,
          "time": 33.122999999999955,
          "velocity": 0.4330708661417323,
          "duration": 0.008000000000002672
        },
        {
          "name": "G#6",
          "midi": 92,
          "time": 33.13299999999996,
          "velocity": 0.4251968503937008,
          "duration": 0.017999999999993577
        },
        {
          "name": "G#6",
          "midi": 92,
          "time": 33.13299999999996,
          "velocity": 0.4251968503937008,
          "duration": 0.017999999999993577
        },
        {
          "name": "D6",
          "midi": 86,
          "time": 33.14299999999996,
          "velocity": 0.4251968503937008,
          "duration": 0.06700000000000017
        },
        {
          "name": "D6",
          "midi": 86,
          "time": 33.14299999999996,
          "velocity": 0.4251968503937008,
          "duration": 0.06700000000000017
        },
        {
          "name": "G4",
          "midi": 67,
          "time": 33.162999999999954,
          "velocity": 0.4330708661417323,
          "duration": 0.11600000000001387
        },
        {
          "name": "G4",
          "midi": 67,
          "time": 33.162999999999954,
          "velocity": 0.4330708661417323,
          "duration": 0.11600000000001387
        },
        {
          "name": "C#5",
          "midi": 73,
          "time": 33.171999999999954,
          "velocity": 0.4251968503937008,
          "duration": 0.07700000000000529
        },
        {
          "name": "C#5",
          "midi": 73,
          "time": 33.171999999999954,
          "velocity": 0.4251968503937008,
          "duration": 0.07700000000000529
        },
        {
          "name": "G5",
          "midi": 79,
          "time": 33.18199999999995,
          "velocity": 0.4330708661417323,
          "duration": 0.0870000000000104
        },
        {
          "name": "G5",
          "midi": 79,
          "time": 33.18199999999995,
          "velocity": 0.4330708661417323,
          "duration": 0.0870000000000104
        },
        {
          "name": "B5",
          "midi": 83,
          "time": 33.22199999999996,
          "velocity": 0.44881889763779526,
          "duration": 0.09700000000001552
        },
        {
          "name": "B5",
          "midi": 83,
          "time": 33.22199999999996,
          "velocity": 0.44881889763779526,
          "duration": 0.09700000000001552
        },
        {
          "name": "E6",
          "midi": 88,
          "time": 33.26099999999996,
          "velocity": 0.4330708661417323,
          "duration": 0.14600000000002922
        },
        {
          "name": "E6",
          "midi": 88,
          "time": 33.26099999999996,
          "velocity": 0.4330708661417323,
          "duration": 0.14600000000002922
        },
        {
          "name": "B6",
          "midi": 95,
          "time": 33.270999999999965,
          "velocity": 0.4094488188976378,
          "duration": 0.008000000000002672
        },
        {
          "name": "B6",
          "midi": 95,
          "time": 33.270999999999965,
          "velocity": 0.4094488188976378,
          "duration": 0.008000000000002672
        },
        {
          "name": "D6",
          "midi": 86,
          "time": 33.28099999999997,
          "velocity": 0.4566929133858268,
          "duration": 0.058000000000006935
        },
        {
          "name": "D6",
          "midi": 86,
          "time": 33.28099999999997,
          "velocity": 0.4566929133858268,
          "duration": 0.058000000000006935
        },
        {
          "name": "A6",
          "midi": 93,
          "time": 33.29099999999997,
          "velocity": 0.49606299212598426,
          "duration": 0.15600000000004144
        },
        {
          "name": "A6",
          "midi": 93,
          "time": 33.29099999999997,
          "velocity": 0.5511811023622047,
          "duration": 0.15600000000004144
        },
        {
          "name": "A7",
          "midi": 105,
          "time": 33.31099999999997,
          "velocity": 0.47244094488188976,
          "duration": 0.04700000000000415
        },
        {
          "name": "D6",
          "midi": 86,
          "time": 33.31099999999997,
          "velocity": 0.4330708661417323,
          "duration": 0.11600000000002808
        },
        {
          "name": "A7",
          "midi": 105,
          "time": 33.31099999999997,
          "velocity": 0.47244094488188976,
          "duration": 0.04700000000000415
        },
        {
          "name": "D6",
          "midi": 86,
          "time": 33.31099999999997,
          "velocity": 0.4330708661417323,
          "duration": 0.11600000000002808
        },
        {
          "name": "E5",
          "midi": 76,
          "time": 33.339999999999975,
          "velocity": 0.41732283464566927,
          "duration": 0.008000000000002672
        },
        {
          "name": "E5",
          "midi": 76,
          "time": 33.339999999999975,
          "velocity": 0.41732283464566927,
          "duration": 0.008000000000002672
        },
        {
          "name": "A#6",
          "midi": 94,
          "time": 33.369999999999976,
          "velocity": 0.48031496062992124,
          "duration": 0.008000000000002672
        },
        {
          "name": "A#6",
          "midi": 94,
          "time": 33.369999999999976,
          "velocity": 0.48031496062992124,
          "duration": 0.008000000000002672
        },
        {
          "name": "C#5",
          "midi": 73,
          "time": 33.37999999999998,
          "velocity": 0.41732283464566927,
          "duration": 0.008000000000002672
        },
        {
          "name": "C#5",
          "midi": 73,
          "time": 33.37999999999998,
          "velocity": 0.41732283464566927,
          "duration": 0.008000000000002672
        },
        {
          "name": "B5",
          "midi": 83,
          "time": 33.38899999999998,
          "velocity": 0.41732283464566927,
          "duration": 0.008000000000002672
        },
        {
          "name": "B5",
          "midi": 83,
          "time": 33.38899999999998,
          "velocity": 0.41732283464566927,
          "duration": 0.008000000000002672
        },
        {
          "name": "G5",
          "midi": 79,
          "time": 33.39899999999999,
          "velocity": 0.41732283464566927,
          "duration": 0.057000000000023476
        },
        {
          "name": "C#6",
          "midi": 85,
          "time": 33.39899999999999,
          "velocity": 0.4251968503937008,
          "duration": 0.008000000000002672
        },
        {
          "name": "G5",
          "midi": 79,
          "time": 33.39899999999999,
          "velocity": 0.41732283464566927,
          "duration": 0.057000000000023476
        },
        {
          "name": "C#6",
          "midi": 85,
          "time": 33.39899999999999,
          "velocity": 0.4251968503937008,
          "duration": 0.008000000000002672
        },
        {
          "name": "E5",
          "midi": 76,
          "time": 33.40899999999999,
          "velocity": 0.41732283464566927,
          "duration": 0.008000000000002672
        },
        {
          "name": "E5",
          "midi": 76,
          "time": 33.40899999999999,
          "velocity": 0.41732283464566927,
          "duration": 0.008000000000002672
        },
        {
          "name": "D6",
          "midi": 86,
          "time": 33.419,
          "velocity": 0.4409448818897638,
          "duration": 0.018000000000007788
        },
        {
          "name": "D6",
          "midi": 86,
          "time": 33.419,
          "velocity": 0.4409448818897638,
          "duration": 0.018000000000007788
        },
        {
          "name": "D6",
          "midi": 86,
          "time": 33.429,
          "velocity": 0.4094488188976378,
          "duration": 0.047000000000011255
        },
        {
          "name": "D6",
          "midi": 86,
          "time": 33.429,
          "velocity": 0.4094488188976378,
          "duration": 0.047000000000011255
        },
        {
          "name": "A6",
          "midi": 93,
          "time": 33.43900000000001,
          "velocity": 0.44881889763779526,
          "duration": 0.13500000000001933
        },
        {
          "name": "B5",
          "midi": 83,
          "time": 33.43900000000001,
          "velocity": 0.41732283464566927,
          "duration": 0.018000000000000682
        },
        {
          "name": "A6",
          "midi": 93,
          "time": 33.43900000000001,
          "velocity": 0.44881889763779526,
          "duration": 0.13500000000001933
        },
        {
          "name": "B5",
          "midi": 83,
          "time": 33.43900000000001,
          "velocity": 0.41732283464566927,
          "duration": 0.018000000000000682
        },
        {
          "name": "A#6",
          "midi": 94,
          "time": 33.45900000000001,
          "velocity": 0.41732283464566927,
          "duration": 0.008000000000002672
        },
        {
          "name": "A#6",
          "midi": 94,
          "time": 33.45900000000001,
          "velocity": 0.41732283464566927,
          "duration": 0.008000000000002672
        },
        {
          "name": "D6",
          "midi": 86,
          "time": 33.46800000000001,
          "velocity": 0.4330708661417323,
          "duration": 0.09700000000001552
        },
        {
          "name": "D6",
          "midi": 86,
          "time": 33.46800000000001,
          "velocity": 0.4330708661417323,
          "duration": 0.09700000000001552
        },
        {
          "name": "A5",
          "midi": 81,
          "time": 33.478000000000016,
          "velocity": 0.4015748031496063,
          "duration": 0.008000000000002672
        },
        {
          "name": "C6",
          "midi": 84,
          "time": 33.478000000000016,
          "velocity": 0.4015748031496063,
          "duration": 0.04700000000000415
        },
        {
          "name": "E6",
          "midi": 88,
          "time": 33.478000000000016,
          "velocity": 0.4094488188976378,
          "duration": 0.0870000000000104
        },
        {
          "name": "A5",
          "midi": 81,
          "time": 33.478000000000016,
          "velocity": 0.4015748031496063,
          "duration": 0.008000000000002672
        },
        {
          "name": "C6",
          "midi": 84,
          "time": 33.478000000000016,
          "velocity": 0.4015748031496063,
          "duration": 0.04700000000000415
        },
        {
          "name": "E6",
          "midi": 88,
          "time": 33.478000000000016,
          "velocity": 0.4094488188976378,
          "duration": 0.0870000000000104
        },
        {
          "name": "G5",
          "midi": 79,
          "time": 33.49800000000002,
          "velocity": 0.4015748031496063,
          "duration": 0.027999999999998693
        },
        {
          "name": "G5",
          "midi": 79,
          "time": 33.49800000000002,
          "velocity": 0.4015748031496063,
          "duration": 0.027999999999998693
        },
        {
          "name": "D6",
          "midi": 86,
          "time": 33.50800000000002,
          "velocity": 0.4094488188976378,
          "duration": 0.1460000000000221
        },
        {
          "name": "D6",
          "midi": 86,
          "time": 33.50800000000002,
          "velocity": 0.4094488188976378,
          "duration": 0.1460000000000221
        },
        {
          "name": "A6",
          "midi": 93,
          "time": 33.53700000000002,
          "velocity": 0.4015748031496063,
          "duration": 0.13700000000001467
        },
        {
          "name": "A6",
          "midi": 93,
          "time": 33.53700000000002,
          "velocity": 0.4015748031496063,
          "duration": 0.13700000000001467
        },
        {
          "name": "A5",
          "midi": 81,
          "time": 33.55700000000002,
          "velocity": 0.4015748031496063,
          "duration": 0.057000000000009265
        },
        {
          "name": "A5",
          "midi": 81,
          "time": 33.55700000000002,
          "velocity": 0.4015748031496063,
          "duration": 0.057000000000009265
        },
        {
          "name": "B5",
          "midi": 83,
          "time": 33.57700000000003,
          "velocity": 0.3937007874015748,
          "duration": 0.06700000000001438
        },
        {
          "name": "G5",
          "midi": 79,
          "time": 33.57700000000003,
          "velocity": 0.3937007874015748,
          "duration": 0.008000000000002672
        },
        {
          "name": "B5",
          "midi": 83,
          "time": 33.57700000000003,
          "velocity": 0.3937007874015748,
          "duration": 0.06700000000001438
        },
        {
          "name": "G5",
          "midi": 79,
          "time": 33.57700000000003,
          "velocity": 0.3937007874015748,
          "duration": 0.008000000000002672
        },
        {
          "name": "A4",
          "midi": 69,
          "time": 33.59700000000003,
          "velocity": 0.3937007874015748,
          "duration": 0.008000000000002672
        },
        {
          "name": "A4",
          "midi": 69,
          "time": 33.59700000000003,
          "velocity": 0.3937007874015748,
          "duration": 0.008000000000002672
        },
        {
          "name": "E6",
          "midi": 88,
          "time": 33.60600000000003,
          "velocity": 0.4015748031496063,
          "duration": 0.057000000000009265
        },
        {
          "name": "E6",
          "midi": 88,
          "time": 33.60600000000003,
          "velocity": 0.4015748031496063,
          "duration": 0.057000000000009265
        },
        {
          "name": "F6",
          "midi": 89,
          "time": 33.616000000000035,
          "velocity": 0.3937007874015748,
          "duration": 0.008000000000002672
        },
        {
          "name": "F6",
          "midi": 89,
          "time": 33.616000000000035,
          "velocity": 0.3937007874015748,
          "duration": 0.008000000000002672
        },
        {
          "name": "D6",
          "midi": 86,
          "time": 33.62600000000004,
          "velocity": 0.3937007874015748,
          "duration": 0.24500000000001165
        },
        {
          "name": "D6",
          "midi": 86,
          "time": 33.62600000000004,
          "velocity": 0.3937007874015748,
          "duration": 0.24500000000001165
        },
        {
          "name": "A6",
          "midi": 93,
          "time": 33.65600000000004,
          "velocity": 0.4015748031496063,
          "duration": 0.09700000000000131
        },
        {
          "name": "A2",
          "midi": 45,
          "time": 33.65600000000004,
          "velocity": 0.3937007874015748,
          "duration": 0.007999999999995566
        },
        {
          "name": "A6",
          "midi": 93,
          "time": 33.65600000000004,
          "velocity": 0.4015748031496063,
          "duration": 0.09700000000000131
        },
        {
          "name": "A2",
          "midi": 45,
          "time": 33.65600000000004,
          "velocity": 0.3937007874015748,
          "duration": 0.007999999999995566
        },
        {
          "name": "A5",
          "midi": 81,
          "time": 33.68500000000004,
          "velocity": 0.3937007874015748,
          "duration": 0.04700000000000415
        },
        {
          "name": "E6",
          "midi": 88,
          "time": 33.68500000000004,
          "velocity": 0.3937007874015748,
          "duration": 0.018000000000000682
        },
        {
          "name": "A5",
          "midi": 81,
          "time": 33.68500000000004,
          "velocity": 0.3937007874015748,
          "duration": 0.04700000000000415
        },
        {
          "name": "E6",
          "midi": 88,
          "time": 33.68500000000004,
          "velocity": 0.3937007874015748,
          "duration": 0.018000000000000682
        },
        {
          "name": "B2",
          "midi": 47,
          "time": 33.73500000000004,
          "velocity": 0.3937007874015748,
          "duration": 0.018000000000000682
        },
        {
          "name": "G#3",
          "midi": 56,
          "time": 33.73500000000004,
          "velocity": 0.3937007874015748,
          "duration": 0.027999999999998693
        },
        {
          "name": "B2",
          "midi": 47,
          "time": 33.73500000000004,
          "velocity": 0.3937007874015748,
          "duration": 0.018000000000000682
        },
        {
          "name": "G#3",
          "midi": 56,
          "time": 33.73500000000004,
          "velocity": 0.3937007874015748,
          "duration": 0.027999999999998693
        },
        {
          "name": "A6",
          "midi": 93,
          "time": 33.74500000000004,
          "velocity": 0.4015748031496063,
          "duration": 0.12600000000001188
        },
        {
          "name": "F2",
          "midi": 41,
          "time": 33.74500000000004,
          "velocity": 0.3937007874015748,
          "duration": 0.018000000000000682
        },
        {
          "name": "A6",
          "midi": 93,
          "time": 33.74500000000004,
          "velocity": 0.4015748031496063,
          "duration": 0.12600000000001188
        },
        {
          "name": "F2",
          "midi": 41,
          "time": 33.74500000000004,
          "velocity": 0.3937007874015748,
          "duration": 0.018000000000000682
        },
        {
          "name": "D3",
          "midi": 50,
          "time": 33.77400000000004,
          "velocity": 0.3937007874015748,
          "duration": 0.008000000000002672
        },
        {
          "name": "D3",
          "midi": 50,
          "time": 33.77400000000004,
          "velocity": 0.3937007874015748,
          "duration": 0.008000000000002672
        },
        {
          "name": "D#2",
          "midi": 39,
          "time": 33.78400000000005,
          "velocity": 0.3937007874015748,
          "duration": 0.008000000000002672
        },
        {
          "name": "E6",
          "midi": 88,
          "time": 33.78400000000005,
          "velocity": 0.3937007874015748,
          "duration": 0.028000000000005798
        },
        {
          "name": "E6",
          "midi": 88,
          "time": 33.78400000000005,
          "velocity": 0.3937007874015748,
          "duration": 0.028000000000005798
        },
        {
          "name": "D#2",
          "midi": 39,
          "time": 33.78400000000005,
          "velocity": 0.3937007874015748,
          "duration": 0.008000000000002672
        },
        {
          "name": "F3",
          "midi": 53,
          "time": 33.80400000000005,
          "velocity": 0.3937007874015748,
          "duration": 0.018000000000000682
        },
        {
          "name": "F3",
          "midi": 53,
          "time": 33.80400000000005,
          "velocity": 0.3937007874015748,
          "duration": 0.018000000000000682
        },
        {
          "name": "D2",
          "midi": 38,
          "time": 33.82300000000005,
          "velocity": 0.3937007874015748,
          "duration": 0.027999999999998693
        },
        {
          "name": "D2",
          "midi": 38,
          "time": 33.82300000000005,
          "velocity": 0.3937007874015748,
          "duration": 0.027999999999998693
        },
        {
          "name": "A6",
          "midi": 93,
          "time": 33.85300000000005,
          "velocity": 0.3937007874015748,
          "duration": 0.03800000000000381
        },
        {
          "name": "A6",
          "midi": 93,
          "time": 33.85300000000005,
          "velocity": 0.3937007874015748,
          "duration": 0.03800000000000381
        },
        {
          "name": "F3",
          "midi": 53,
          "time": 33.89300000000006,
          "velocity": 0.3937007874015748,
          "duration": 0.018000000000000682
        },
        {
          "name": "B3",
          "midi": 59,
          "time": 33.89300000000006,
          "velocity": 0.3937007874015748,
          "duration": 0.06700000000001438
        },
        {
          "name": "F3",
          "midi": 53,
          "time": 33.89300000000006,
          "velocity": 0.3937007874015748,
          "duration": 0.018000000000000682
        },
        {
          "name": "B3",
          "midi": 59,
          "time": 33.89300000000006,
          "velocity": 0.3937007874015748,
          "duration": 0.06700000000001438
        },
        {
          "name": "D6",
          "midi": 86,
          "time": 33.92200000000006,
          "velocity": 0.3937007874015748,
          "duration": 0.028000000000005798
        },
        {
          "name": "F1",
          "midi": 29,
          "time": 33.92200000000006,
          "velocity": 0.3937007874015748,
          "duration": 0.008000000000002672
        },
        {
          "name": "D6",
          "midi": 86,
          "time": 33.92200000000006,
          "velocity": 0.3937007874015748,
          "duration": 0.028000000000005798
        },
        {
          "name": "F1",
          "midi": 29,
          "time": 33.92200000000006,
          "velocity": 0.3937007874015748,
          "duration": 0.008000000000002672
        },
        {
          "name": "D2",
          "midi": 38,
          "time": 33.95200000000007,
          "velocity": 0.3937007874015748,
          "duration": 0.028000000000005798
        },
        {
          "name": "D2",
          "midi": 38,
          "time": 33.95200000000007,
          "velocity": 0.3937007874015748,
          "duration": 0.028000000000005798
        },
        {
          "name": "F#2",
          "midi": 42,
          "time": 34.001000000000076,
          "velocity": 0.3937007874015748,
          "duration": 0.008000000000002672
        },
        {
          "name": "F#2",
          "midi": 42,
          "time": 34.001000000000076,
          "velocity": 0.3937007874015748,
          "duration": 0.008000000000002672
        },
        {
          "name": "F3",
          "midi": 53,
          "time": 34.03100000000008,
          "velocity": 0.3937007874015748,
          "duration": 0.008000000000002672
        },
        {
          "name": "F3",
          "midi": 53,
          "time": 34.03100000000008,
          "velocity": 0.3937007874015748,
          "duration": 0.008000000000002672
        },
        {
          "name": "D2",
          "midi": 38,
          "time": 34.04000000000008,
          "velocity": 0.3937007874015748,
          "duration": 0.008000000000002672
        },
        {
          "name": "D2",
          "midi": 38,
          "time": 34.04000000000008,
          "velocity": 0.3937007874015748,
          "duration": 0.008000000000002672
        },
        {
          "name": "F#3",
          "midi": 54,
          "time": 34.09000000000008,
          "velocity": 0.3937007874015748,
          "duration": 0.018000000000000682
        },
        {
          "name": "F#3",
          "midi": 54,
          "time": 34.09000000000008,
          "velocity": 0.3937007874015748,
          "duration": 0.018000000000000682
        },
        {
          "name": "E4",
          "midi": 64,
          "time": 34.159000000000084,
          "velocity": 0.47244094488188976,
          "duration": 0.018000000000000682
        },
        {
          "name": "A4",
          "midi": 69,
          "time": 34.159000000000084,
          "velocity": 0.5275590551181102,
          "duration": 0.2640000000000242
        },
        {
          "name": "E4",
          "midi": 64,
          "time": 34.159000000000084,
          "velocity": 0.47244094488188976,
          "duration": 0.018000000000000682
        },
        {
          "name": "A4",
          "midi": 69,
          "time": 34.159000000000084,
          "velocity": 0.5275590551181102,
          "duration": 0.2640000000000242
        },
        {
          "name": "F5",
          "midi": 77,
          "time": 34.16900000000008,
          "velocity": 0.4015748031496063,
          "duration": 0.008000000000002672
        },
        {
          "name": "E5",
          "midi": 76,
          "time": 34.16900000000008,
          "velocity": 0.4094488188976378,
          "duration": 0.018000000000007788
        },
        {
          "name": "F5",
          "midi": 77,
          "time": 34.16900000000008,
          "velocity": 0.4015748031496063,
          "duration": 0.008000000000002672
        },
        {
          "name": "E5",
          "midi": 76,
          "time": 34.16900000000008,
          "velocity": 0.4094488188976378,
          "duration": 0.018000000000007788
        },
        {
          "name": "C4",
          "midi": 60,
          "time": 34.17900000000009,
          "velocity": 0.5354330708661418,
          "duration": 0.27400000000002933
        },
        {
          "name": "C4",
          "midi": 60,
          "time": 34.17900000000009,
          "velocity": 0.5354330708661418,
          "duration": 0.27400000000002933
        },
        {
          "name": "F4",
          "midi": 65,
          "time": 34.18800000000009,
          "velocity": 0.5984251968503937,
          "duration": 0.027999999999998693
        },
        {
          "name": "G4",
          "midi": 67,
          "time": 34.18800000000009,
          "velocity": 0.49606299212598426,
          "duration": 0.22500000000001563
        },
        {
          "name": "F4",
          "midi": 65,
          "time": 34.18800000000009,
          "velocity": 0.5984251968503937,
          "duration": 0.027999999999998693
        },
        {
          "name": "G4",
          "midi": 67,
          "time": 34.18800000000009,
          "velocity": 0.49606299212598426,
          "duration": 0.22500000000001563
        },
        {
          "name": "D#4",
          "midi": 63,
          "time": 34.198000000000086,
          "velocity": 0.5669291338582677,
          "duration": 0.12600000000001188
        },
        {
          "name": "G#3",
          "midi": 56,
          "time": 34.198000000000086,
          "velocity": 0.49606299212598426,
          "duration": 0.027999999999998693
        },
        {
          "name": "D#4",
          "midi": 63,
          "time": 34.198000000000086,
          "velocity": 0.5669291338582677,
          "duration": 0.12600000000001188
        },
        {
          "name": "G#3",
          "midi": 56,
          "time": 34.198000000000086,
          "velocity": 0.49606299212598426,
          "duration": 0.027999999999998693
        },
        {
          "name": "G5",
          "midi": 79,
          "time": 34.22800000000009,
          "velocity": 0.49606299212598426,
          "duration": 0.018000000000000682
        },
        {
          "name": "G5",
          "midi": 79,
          "time": 34.22800000000009,
          "velocity": 0.49606299212598426,
          "duration": 0.018000000000000682
        },
        {
          "name": "F3",
          "midi": 53,
          "time": 34.24800000000009,
          "velocity": 0.4881889763779528,
          "duration": 0.09700000000000841
        },
        {
          "name": "F3",
          "midi": 53,
          "time": 34.24800000000009,
          "velocity": 0.4881889763779528,
          "duration": 0.09700000000000841
        },
        {
          "name": "A#3",
          "midi": 58,
          "time": 34.25700000000009,
          "velocity": 0.4566929133858268,
          "duration": 0.008000000000002672
        },
        {
          "name": "A#3",
          "midi": 58,
          "time": 34.25700000000009,
          "velocity": 0.4566929133858268,
          "duration": 0.008000000000002672
        },
        {
          "name": "D#6",
          "midi": 87,
          "time": 34.27700000000009,
          "velocity": 0.4566929133858268,
          "duration": 0.008000000000002672
        },
        {
          "name": "D#6",
          "midi": 87,
          "time": 34.27700000000009,
          "velocity": 0.4566929133858268,
          "duration": 0.008000000000002672
        },
        {
          "name": "D#5",
          "midi": 75,
          "time": 34.307000000000095,
          "velocity": 0.4409448818897638,
          "duration": 0.03700000000000614
        },
        {
          "name": "D#5",
          "midi": 75,
          "time": 34.307000000000095,
          "velocity": 0.4409448818897638,
          "duration": 0.03700000000000614
        },
        {
          "name": "G5",
          "midi": 79,
          "time": 34.346000000000096,
          "velocity": 0.4251968503937008,
          "duration": 0.018000000000000682
        },
        {
          "name": "G5",
          "midi": 79,
          "time": 34.346000000000096,
          "velocity": 0.4251968503937008,
          "duration": 0.018000000000000682
        },
        {
          "name": "D#4",
          "midi": 63,
          "time": 34.356000000000094,
          "velocity": 0.4566929133858268,
          "duration": 0.09700000000002262
        },
        {
          "name": "D#4",
          "midi": 63,
          "time": 34.356000000000094,
          "velocity": 0.4566929133858268,
          "duration": 0.09700000000002262
        },
        {
          "name": "G3",
          "midi": 55,
          "time": 34.3660000000001,
          "velocity": 0.4330708661417323,
          "duration": 0.018000000000000682
        },
        {
          "name": "G3",
          "midi": 55,
          "time": 34.3660000000001,
          "velocity": 0.4330708661417323,
          "duration": 0.018000000000000682
        },
        {
          "name": "A5",
          "midi": 81,
          "time": 34.3760000000001,
          "velocity": 0.4330708661417323,
          "duration": 0.028000000000005798
        },
        {
          "name": "A5",
          "midi": 81,
          "time": 34.3760000000001,
          "velocity": 0.4330708661417323,
          "duration": 0.028000000000005798
        },
        {
          "name": "D#5",
          "midi": 75,
          "time": 34.4050000000001,
          "velocity": 0.49606299212598426,
          "duration": 0.20500000000004803
        },
        {
          "name": "D#5",
          "midi": 75,
          "time": 34.4050000000001,
          "velocity": 0.49606299212598426,
          "duration": 0.20500000000004803
        },
        {
          "name": "C6",
          "midi": 84,
          "time": 34.415000000000106,
          "velocity": 0.44881889763779526,
          "duration": 0.018000000000007788
        },
        {
          "name": "C6",
          "midi": 84,
          "time": 34.415000000000106,
          "velocity": 0.44881889763779526,
          "duration": 0.018000000000007788
        },
        {
          "name": "A#6",
          "midi": 94,
          "time": 34.42500000000011,
          "velocity": 0.49606299212598426,
          "duration": 0.048000000000008924
        },
        {
          "name": "A#6",
          "midi": 94,
          "time": 34.42500000000011,
          "velocity": 0.49606299212598426,
          "duration": 0.048000000000008924
        },
        {
          "name": "D#6",
          "midi": 87,
          "time": 34.435000000000116,
          "velocity": 0.4566929133858268,
          "duration": 0.04700000000000415
        },
        {
          "name": "D#6",
          "midi": 87,
          "time": 34.435000000000116,
          "velocity": 0.4566929133858268,
          "duration": 0.04700000000000415
        },
        {
          "name": "A#6",
          "midi": 94,
          "time": 34.45500000000012,
          "velocity": 0.4645669291338583,
          "duration": 0.08700000000001751
        },
        {
          "name": "A#6",
          "midi": 94,
          "time": 34.45500000000012,
          "velocity": 0.4645669291338583,
          "duration": 0.08700000000001751
        },
        {
          "name": "G5",
          "midi": 79,
          "time": 34.46500000000012,
          "velocity": 0.4881889763779528,
          "duration": 0.10700000000002774
        },
        {
          "name": "G6",
          "midi": 91,
          "time": 34.46500000000012,
          "velocity": 0.49606299212598426,
          "duration": 0.06700000000001438
        },
        {
          "name": "G5",
          "midi": 79,
          "time": 34.46500000000012,
          "velocity": 0.4881889763779528,
          "duration": 0.10700000000002774
        },
        {
          "name": "G6",
          "midi": 91,
          "time": 34.46500000000012,
          "velocity": 0.49606299212598426,
          "duration": 0.06700000000001438
        },
        {
          "name": "D#4",
          "midi": 63,
          "time": 34.48400000000012,
          "velocity": 0.4566929133858268,
          "duration": 0.0770000000000195
        },
        {
          "name": "D#4",
          "midi": 63,
          "time": 34.48400000000012,
          "velocity": 0.4566929133858268,
          "duration": 0.0770000000000195
        },
        {
          "name": "G7",
          "midi": 103,
          "time": 34.504000000000126,
          "velocity": 0.4409448818897638,
          "duration": 0.008000000000002672
        },
        {
          "name": "G7",
          "midi": 103,
          "time": 34.504000000000126,
          "velocity": 0.4409448818897638,
          "duration": 0.008000000000002672
        },
        {
          "name": "A#6",
          "midi": 94,
          "time": 34.534000000000134,
          "velocity": 0.4330708661417323,
          "duration": 0.05700000000001637
        },
        {
          "name": "A#6",
          "midi": 94,
          "time": 34.534000000000134,
          "velocity": 0.4330708661417323,
          "duration": 0.05700000000001637
        },
        {
          "name": "C4",
          "midi": 60,
          "time": 34.54400000000014,
          "velocity": 0.4330708661417323,
          "duration": 0.15600000000002723
        },
        {
          "name": "C4",
          "midi": 60,
          "time": 34.54400000000014,
          "velocity": 0.4330708661417323,
          "duration": 0.15600000000002723
        },
        {
          "name": "D#6",
          "midi": 87,
          "time": 34.563000000000144,
          "velocity": 0.44881889763779526,
          "duration": 0.04700000000000415
        },
        {
          "name": "D#6",
          "midi": 87,
          "time": 34.563000000000144,
          "velocity": 0.44881889763779526,
          "duration": 0.04700000000000415
        },
        {
          "name": "A6",
          "midi": 93,
          "time": 34.58300000000015,
          "velocity": 0.4330708661417323,
          "duration": 0.008000000000002672
        },
        {
          "name": "A6",
          "midi": 93,
          "time": 34.58300000000015,
          "velocity": 0.4330708661417323,
          "duration": 0.008000000000002672
        },
        {
          "name": "D6",
          "midi": 86,
          "time": 34.59300000000015,
          "velocity": 0.4409448818897638,
          "duration": 0.07700000000001239
        },
        {
          "name": "D6",
          "midi": 86,
          "time": 34.59300000000015,
          "velocity": 0.4409448818897638,
          "duration": 0.07700000000001239
        },
        {
          "name": "A5",
          "midi": 81,
          "time": 34.60300000000015,
          "velocity": 0.4409448818897638,
          "duration": 0.03700000000000614
        },
        {
          "name": "A5",
          "midi": 81,
          "time": 34.60300000000015,
          "velocity": 0.4409448818897638,
          "duration": 0.03700000000000614
        },
        {
          "name": "G#4",
          "midi": 68,
          "time": 34.62200000000015,
          "velocity": 0.4251968503937008,
          "duration": 0.037000000000013245
        },
        {
          "name": "G5",
          "midi": 79,
          "time": 34.62200000000015,
          "velocity": 0.4251968503937008,
          "duration": 0.008000000000002672
        },
        {
          "name": "G#4",
          "midi": 68,
          "time": 34.62200000000015,
          "velocity": 0.4251968503937008,
          "duration": 0.037000000000013245
        },
        {
          "name": "G5",
          "midi": 79,
          "time": 34.62200000000015,
          "velocity": 0.4251968503937008,
          "duration": 0.008000000000002672
        },
        {
          "name": "A4",
          "midi": 69,
          "time": 34.632000000000154,
          "velocity": 0.4251968503937008,
          "duration": 0.057000000000009265
        },
        {
          "name": "A4",
          "midi": 69,
          "time": 34.632000000000154,
          "velocity": 0.4251968503937008,
          "duration": 0.057000000000009265
        },
        {
          "name": "A5",
          "midi": 81,
          "time": 34.64200000000016,
          "velocity": 0.4251968503937008,
          "duration": 0.008000000000002672
        },
        {
          "name": "A5",
          "midi": 81,
          "time": 34.64200000000016,
          "velocity": 0.4251968503937008,
          "duration": 0.008000000000002672
        },
        {
          "name": "D#4",
          "midi": 63,
          "time": 34.652000000000164,
          "velocity": 0.41732283464566927,
          "duration": 0.07700000000001239
        },
        {
          "name": "D#4",
          "midi": 63,
          "time": 34.652000000000164,
          "velocity": 0.41732283464566927,
          "duration": 0.07700000000001239
        },
        {
          "name": "G5",
          "midi": 79,
          "time": 34.67200000000017,
          "velocity": 0.4251968503937008,
          "duration": 0.06700000000001438
        },
        {
          "name": "A5",
          "midi": 81,
          "time": 34.67200000000017,
          "velocity": 0.41732283464566927,
          "duration": 0.036999999999999034
        },
        {
          "name": "G5",
          "midi": 79,
          "time": 34.67200000000017,
          "velocity": 0.4251968503937008,
          "duration": 0.06700000000001438
        },
        {
          "name": "A5",
          "midi": 81,
          "time": 34.67200000000017,
          "velocity": 0.41732283464566927,
          "duration": 0.036999999999999034
        },
        {
          "name": "G6",
          "midi": 91,
          "time": 34.682000000000166,
          "velocity": 0.41732283464566927,
          "duration": 0.018000000000000682
        },
        {
          "name": "G6",
          "midi": 91,
          "time": 34.682000000000166,
          "velocity": 0.41732283464566927,
          "duration": 0.018000000000000682
        },
        {
          "name": "D#5",
          "midi": 75,
          "time": 34.701000000000164,
          "velocity": 0.4094488188976378,
          "duration": 0.018000000000007788
        },
        {
          "name": "D#5",
          "midi": 75,
          "time": 34.701000000000164,
          "velocity": 0.4094488188976378,
          "duration": 0.018000000000007788
        },
        {
          "name": "E6",
          "midi": 88,
          "time": 34.71100000000017,
          "velocity": 0.4094488188976378,
          "duration": 0.028000000000012903
        },
        {
          "name": "G4",
          "midi": 67,
          "time": 34.71100000000017,
          "velocity": 0.4094488188976378,
          "duration": 0.018000000000007788
        },
        {
          "name": "E6",
          "midi": 88,
          "time": 34.71100000000017,
          "velocity": 0.4094488188976378,
          "duration": 0.028000000000012903
        },
        {
          "name": "G4",
          "midi": 67,
          "time": 34.71100000000017,
          "velocity": 0.4094488188976378,
          "duration": 0.018000000000007788
        },
        {
          "name": "C4",
          "midi": 60,
          "time": 34.721000000000174,
          "velocity": 0.4094488188976378,
          "duration": 0.008000000000002672
        },
        {
          "name": "C4",
          "midi": 60,
          "time": 34.721000000000174,
          "velocity": 0.4094488188976378,
          "duration": 0.008000000000002672
        },
        {
          "name": "G#5",
          "midi": 80,
          "time": 34.73100000000018,
          "velocity": 0.41732283464566927,
          "duration": 0.018000000000007788
        },
        {
          "name": "G#5",
          "midi": 80,
          "time": 34.73100000000018,
          "velocity": 0.41732283464566927,
          "duration": 0.018000000000007788
        },
        {
          "name": "A4",
          "midi": 69,
          "time": 34.741000000000184,
          "velocity": 0.41732283464566927,
          "duration": 0.018000000000007788
        },
        {
          "name": "A#5",
          "midi": 82,
          "time": 34.741000000000184,
          "velocity": 0.41732283464566927,
          "duration": 0.018000000000007788
        },
        {
          "name": "D#6",
          "midi": 87,
          "time": 34.741000000000184,
          "velocity": 0.44881889763779526,
          "duration": 0.037000000000013245
        },
        {
          "name": "A4",
          "midi": 69,
          "time": 34.741000000000184,
          "velocity": 0.41732283464566927,
          "duration": 0.018000000000007788
        },
        {
          "name": "A#5",
          "midi": 82,
          "time": 34.741000000000184,
          "velocity": 0.41732283464566927,
          "duration": 0.018000000000007788
        },
        {
          "name": "D#6",
          "midi": 87,
          "time": 34.741000000000184,
          "velocity": 0.44881889763779526,
          "duration": 0.037000000000013245
        },
        {
          "name": "C#6",
          "midi": 85,
          "time": 34.75100000000019,
          "velocity": 0.4566929133858268,
          "duration": 0.17500000000001847
        },
        {
          "name": "G6",
          "midi": 91,
          "time": 34.75100000000019,
          "velocity": 0.5905511811023622,
          "duration": 0.12600000000000477
        },
        {
          "name": "C#6",
          "midi": 85,
          "time": 34.75100000000019,
          "velocity": 0.4566929133858268,
          "duration": 0.17500000000001847
        },
        {
          "name": "G6",
          "midi": 91,
          "time": 34.75100000000019,
          "velocity": 0.5905511811023622,
          "duration": 0.12600000000000477
        },
        {
          "name": "D6",
          "midi": 86,
          "time": 34.761000000000195,
          "velocity": 0.4330708661417323,
          "duration": 0.008000000000002672
        },
        {
          "name": "D6",
          "midi": 86,
          "time": 34.761000000000195,
          "velocity": 0.4330708661417323,
          "duration": 0.008000000000002672
        },
        {
          "name": "G#7",
          "midi": 104,
          "time": 34.770000000000195,
          "velocity": 0.44881889763779526,
          "duration": 0.05700000000000216
        },
        {
          "name": "G#6",
          "midi": 92,
          "time": 34.770000000000195,
          "velocity": 0.4645669291338583,
          "duration": 0.028000000000005798
        },
        {
          "name": "G#7",
          "midi": 104,
          "time": 34.770000000000195,
          "velocity": 0.44881889763779526,
          "duration": 0.05700000000000216
        },
        {
          "name": "G#6",
          "midi": 92,
          "time": 34.770000000000195,
          "velocity": 0.4645669291338583,
          "duration": 0.028000000000005798
        },
        {
          "name": "C5",
          "midi": 72,
          "time": 34.7800000000002,
          "velocity": 0.44881889763779526,
          "duration": 0.036999999999999034
        },
        {
          "name": "C5",
          "midi": 72,
          "time": 34.7800000000002,
          "velocity": 0.44881889763779526,
          "duration": 0.036999999999999034
        },
        {
          "name": "E7",
          "midi": 100,
          "time": 34.7900000000002,
          "velocity": 0.44881889763779526,
          "duration": 0.018000000000000682
        },
        {
          "name": "E7",
          "midi": 100,
          "time": 34.7900000000002,
          "velocity": 0.44881889763779526,
          "duration": 0.018000000000000682
        },
        {
          "name": "G#6",
          "midi": 92,
          "time": 34.8200000000002,
          "velocity": 0.44881889763779526,
          "duration": 0.027999999999998693
        },
        {
          "name": "C7",
          "midi": 96,
          "time": 34.8200000000002,
          "velocity": 0.41732283464566927,
          "duration": 0.007999999999995566
        },
        {
          "name": "G#6",
          "midi": 92,
          "time": 34.8200000000002,
          "velocity": 0.44881889763779526,
          "duration": 0.027999999999998693
        },
        {
          "name": "C7",
          "midi": 96,
          "time": 34.8200000000002,
          "velocity": 0.41732283464566927,
          "duration": 0.007999999999995566
        },
        {
          "name": "G#5",
          "midi": 80,
          "time": 34.8300000000002,
          "velocity": 0.4251968503937008,
          "duration": 0.0870000000000104
        },
        {
          "name": "G#5",
          "midi": 80,
          "time": 34.8300000000002,
          "velocity": 0.4251968503937008,
          "duration": 0.0870000000000104
        },
        {
          "name": "E6",
          "midi": 88,
          "time": 34.8390000000002,
          "velocity": 0.4251968503937008,
          "duration": 0.036999999999999034
        },
        {
          "name": "E6",
          "midi": 88,
          "time": 34.8390000000002,
          "velocity": 0.4251968503937008,
          "duration": 0.036999999999999034
        },
        {
          "name": "C#7",
          "midi": 97,
          "time": 34.849000000000196,
          "velocity": 0.4094488188976378,
          "duration": 0.018000000000000682
        },
        {
          "name": "C#7",
          "midi": 97,
          "time": 34.849000000000196,
          "velocity": 0.4094488188976378,
          "duration": 0.018000000000000682
        },
        {
          "name": "G6",
          "midi": 91,
          "time": 34.8690000000002,
          "velocity": 0.4251968503937008,
          "duration": 0.03800000000000381
        },
        {
          "name": "G6",
          "midi": 91,
          "time": 34.8690000000002,
          "velocity": 0.4251968503937008,
          "duration": 0.03800000000000381
        },
        {
          "name": "C#7",
          "midi": 97,
          "time": 34.889000000000195,
          "velocity": 0.4094488188976378,
          "duration": 0.018000000000007788
        },
        {
          "name": "G#4",
          "midi": 68,
          "time": 34.889000000000195,
          "velocity": 0.4094488188976378,
          "duration": 0.008000000000002672
        },
        {
          "name": "C#7",
          "midi": 97,
          "time": 34.889000000000195,
          "velocity": 0.4094488188976378,
          "duration": 0.018000000000007788
        },
        {
          "name": "G#4",
          "midi": 68,
          "time": 34.889000000000195,
          "velocity": 0.4094488188976378,
          "duration": 0.008000000000002672
        },
        {
          "name": "G6",
          "midi": 91,
          "time": 34.8990000000002,
          "velocity": 0.44881889763779526,
          "duration": 0.1360000000000241
        },
        {
          "name": "G6",
          "midi": 91,
          "time": 34.8990000000002,
          "velocity": 0.44881889763779526,
          "duration": 0.1360000000000241
        },
        {
          "name": "E6",
          "midi": 88,
          "time": 34.909000000000205,
          "velocity": 0.4015748031496063,
          "duration": 0.06700000000001438
        },
        {
          "name": "E6",
          "midi": 88,
          "time": 34.909000000000205,
          "velocity": 0.4015748031496063,
          "duration": 0.06700000000001438
        },
        {
          "name": "A5",
          "midi": 81,
          "time": 34.918000000000205,
          "velocity": 0.4015748031496063,
          "duration": 0.028000000000005798
        },
        {
          "name": "C#6",
          "midi": 85,
          "time": 34.918000000000205,
          "velocity": 0.4409448818897638,
          "duration": 0.16600000000002524
        },
        {
          "name": "A5",
          "midi": 81,
          "time": 34.918000000000205,
          "velocity": 0.4015748031496063,
          "duration": 0.028000000000005798
        },
        {
          "name": "C#6",
          "midi": 85,
          "time": 34.918000000000205,
          "velocity": 0.4409448818897638,
          "duration": 0.16600000000002524
        },
        {
          "name": "D#6",
          "midi": 87,
          "time": 34.92800000000021,
          "velocity": 0.4015748031496063,
          "duration": 0.018000000000000682
        },
        {
          "name": "D#6",
          "midi": 87,
          "time": 34.92800000000021,
          "velocity": 0.4015748031496063,
          "duration": 0.018000000000000682
        },
        {
          "name": "G#6",
          "midi": 92,
          "time": 34.948000000000214,
          "velocity": 0.4251968503937008,
          "duration": 0.008000000000002672
        },
        {
          "name": "G#6",
          "midi": 92,
          "time": 34.948000000000214,
          "velocity": 0.4251968503937008,
          "duration": 0.008000000000002672
        },
        {
          "name": "A5",
          "midi": 81,
          "time": 34.95800000000022,
          "velocity": 0.4015748031496063,
          "duration": 0.09700000000000841
        },
        {
          "name": "A5",
          "midi": 81,
          "time": 34.95800000000022,
          "velocity": 0.4015748031496063,
          "duration": 0.09700000000000841
        },
        {
          "name": "D6",
          "midi": 86,
          "time": 34.96800000000022,
          "velocity": 0.4015748031496063,
          "duration": 0.04700000000000415
        },
        {
          "name": "C7",
          "midi": 96,
          "time": 34.96800000000022,
          "velocity": 0.4015748031496063,
          "duration": 0.008000000000002672
        },
        {
          "name": "D6",
          "midi": 86,
          "time": 34.96800000000022,
          "velocity": 0.4015748031496063,
          "duration": 0.04700000000000415
        },
        {
          "name": "C7",
          "midi": 96,
          "time": 34.96800000000022,
          "velocity": 0.4015748031496063,
          "duration": 0.008000000000002672
        },
        {
          "name": "C4",
          "midi": 60,
          "time": 34.99700000000022,
          "velocity": 0.4015748031496063,
          "duration": 0.3630000000000422
        },
        {
          "name": "C4",
          "midi": 60,
          "time": 34.99700000000022,
          "velocity": 0.4015748031496063,
          "duration": 0.3630000000000422
        },
        {
          "name": "G6",
          "midi": 91,
          "time": 35.01700000000022,
          "velocity": 0.4094488188976378,
          "duration": 0.06700000000000728
        },
        {
          "name": "G6",
          "midi": 91,
          "time": 35.01700000000022,
          "velocity": 0.4094488188976378,
          "duration": 0.06700000000000728
        },
        {
          "name": "D#6",
          "midi": 87,
          "time": 35.02700000000022,
          "velocity": 0.4015748031496063,
          "duration": 0.03700000000000614
        },
        {
          "name": "D#6",
          "midi": 87,
          "time": 35.02700000000022,
          "velocity": 0.4015748031496063,
          "duration": 0.03700000000000614
        },
        {
          "name": "E2",
          "midi": 40,
          "time": 35.056000000000225,
          "velocity": 0.4015748031496063,
          "duration": 0.008000000000002672
        },
        {
          "name": "E2",
          "midi": 40,
          "time": 35.056000000000225,
          "velocity": 0.4015748031496063,
          "duration": 0.008000000000002672
        },
        {
          "name": "C#6",
          "midi": 85,
          "time": 35.07600000000023,
          "velocity": 0.4015748031496063,
          "duration": 0.06800000000000495
        },
        {
          "name": "C#6",
          "midi": 85,
          "time": 35.07600000000023,
          "velocity": 0.4015748031496063,
          "duration": 0.06800000000000495
        },
        {
          "name": "G6",
          "midi": 91,
          "time": 35.08600000000023,
          "velocity": 0.4015748031496063,
          "duration": 0.07699999999999818
        },
        {
          "name": "D2",
          "midi": 38,
          "time": 35.08600000000023,
          "velocity": 0.3937007874015748,
          "duration": 0.027999999999998693
        },
        {
          "name": "G6",
          "midi": 91,
          "time": 35.08600000000023,
          "velocity": 0.4015748031496063,
          "duration": 0.07699999999999818
        },
        {
          "name": "D2",
          "midi": 38,
          "time": 35.08600000000023,
          "velocity": 0.3937007874015748,
          "duration": 0.027999999999998693
        },
        {
          "name": "D#6",
          "midi": 87,
          "time": 35.09600000000023,
          "velocity": 0.3937007874015748,
          "duration": 0.036999999999999034
        },
        {
          "name": "D#6",
          "midi": 87,
          "time": 35.09600000000023,
          "velocity": 0.3937007874015748,
          "duration": 0.036999999999999034
        },
        {
          "name": "G6",
          "midi": 91,
          "time": 35.116000000000234,
          "velocity": 0.4015748031496063,
          "duration": 0.15600000000002723
        },
        {
          "name": "G6",
          "midi": 91,
          "time": 35.116000000000234,
          "velocity": 0.4015748031496063,
          "duration": 0.15600000000002723
        },
        {
          "name": "C#6",
          "midi": 85,
          "time": 35.12600000000023,
          "velocity": 0.3937007874015748,
          "duration": 0.2540000000000333
        },
        {
          "name": "C#6",
          "midi": 85,
          "time": 35.12600000000023,
          "velocity": 0.3937007874015748,
          "duration": 0.2540000000000333
        },
        {
          "name": "A5",
          "midi": 81,
          "time": 35.14500000000023,
          "velocity": 0.3937007874015748,
          "duration": 0.008000000000002672
        },
        {
          "name": "A5",
          "midi": 81,
          "time": 35.14500000000023,
          "velocity": 0.3937007874015748,
          "duration": 0.008000000000002672
        },
        {
          "name": "D2",
          "midi": 38,
          "time": 35.165000000000234,
          "velocity": 0.3937007874015748,
          "duration": 0.018000000000000682
        },
        {
          "name": "D2",
          "midi": 38,
          "time": 35.165000000000234,
          "velocity": 0.3937007874015748,
          "duration": 0.018000000000000682
        },
        {
          "name": "A#2",
          "midi": 46,
          "time": 35.18500000000024,
          "velocity": 0.3937007874015748,
          "duration": 0.008000000000002672
        },
        {
          "name": "A#2",
          "midi": 46,
          "time": 35.18500000000024,
          "velocity": 0.3937007874015748,
          "duration": 0.008000000000002672
        },
        {
          "name": "D2",
          "midi": 38,
          "time": 35.19500000000024,
          "velocity": 0.3937007874015748,
          "duration": 0.03700000000000614
        },
        {
          "name": "C6",
          "midi": 84,
          "time": 35.19500000000024,
          "velocity": 0.3937007874015748,
          "duration": 0.008000000000002672
        },
        {
          "name": "D2",
          "midi": 38,
          "time": 35.19500000000024,
          "velocity": 0.3937007874015748,
          "duration": 0.03700000000000614
        },
        {
          "name": "C6",
          "midi": 84,
          "time": 35.19500000000024,
          "velocity": 0.3937007874015748,
          "duration": 0.008000000000002672
        },
        {
          "name": "D#6",
          "midi": 87,
          "time": 35.21400000000025,
          "velocity": 0.3937007874015748,
          "duration": 0.018000000000000682
        },
        {
          "name": "D#3",
          "midi": 51,
          "time": 35.21400000000025,
          "velocity": 0.3937007874015748,
          "duration": 0.008000000000002672
        },
        {
          "name": "D#6",
          "midi": 87,
          "time": 35.21400000000025,
          "velocity": 0.3937007874015748,
          "duration": 0.018000000000000682
        },
        {
          "name": "D#3",
          "midi": 51,
          "time": 35.21400000000025,
          "velocity": 0.3937007874015748,
          "duration": 0.008000000000002672
        },
        {
          "name": "G#2",
          "midi": 44,
          "time": 35.24400000000025,
          "velocity": 0.3937007874015748,
          "duration": 0.008000000000002672
        },
        {
          "name": "G#2",
          "midi": 44,
          "time": 35.24400000000025,
          "velocity": 0.3937007874015748,
          "duration": 0.008000000000002672
        },
        {
          "name": "E1",
          "midi": 28,
          "time": 35.254000000000254,
          "velocity": 0.3937007874015748,
          "duration": 0.008000000000002672
        },
        {
          "name": "E1",
          "midi": 28,
          "time": 35.254000000000254,
          "velocity": 0.3937007874015748,
          "duration": 0.008000000000002672
        },
        {
          "name": "G6",
          "midi": 91,
          "time": 35.26400000000026,
          "velocity": 0.3937007874015748,
          "duration": 0.0870000000000033
        },
        {
          "name": "G6",
          "midi": 91,
          "time": 35.26400000000026,
          "velocity": 0.3937007874015748,
          "duration": 0.0870000000000033
        },
        {
          "name": "G#2",
          "midi": 44,
          "time": 35.30300000000026,
          "velocity": 0.3937007874015748,
          "duration": 0.008000000000002672
        },
        {
          "name": "G#2",
          "midi": 44,
          "time": 35.30300000000026,
          "velocity": 0.3937007874015748,
          "duration": 0.008000000000002672
        },
        {
          "name": "A#2",
          "midi": 46,
          "time": 35.34300000000026,
          "velocity": 0.3937007874015748,
          "duration": 0.057000000000009265
        },
        {
          "name": "A#2",
          "midi": 46,
          "time": 35.34300000000026,
          "velocity": 0.3937007874015748,
          "duration": 0.057000000000009265
        },
        {
          "name": "F#3",
          "midi": 54,
          "time": 35.45100000000027,
          "velocity": 0.3937007874015748,
          "duration": 0.008000000000002672
        },
        {
          "name": "F#3",
          "midi": 54,
          "time": 35.45100000000027,
          "velocity": 0.3937007874015748,
          "duration": 0.008000000000002672
        },
        {
          "name": "A#1",
          "midi": 34,
          "time": 35.49000000000027,
          "velocity": 0.3937007874015748,
          "duration": 0.018000000000000682
        },
        {
          "name": "A#1",
          "midi": 34,
          "time": 35.49000000000027,
          "velocity": 0.3937007874015748,
          "duration": 0.018000000000000682
        },
        {
          "name": "F2",
          "midi": 41,
          "time": 35.50000000000027,
          "velocity": 0.3937007874015748,
          "duration": 0.008000000000002672
        },
        {
          "name": "F2",
          "midi": 41,
          "time": 35.50000000000027,
          "velocity": 0.3937007874015748,
          "duration": 0.008000000000002672
        },
        {
          "name": "C2",
          "midi": 36,
          "time": 35.53000000000027,
          "velocity": 0.3937007874015748,
          "duration": 0.018000000000000682
        },
        {
          "name": "C2",
          "midi": 36,
          "time": 35.53000000000027,
          "velocity": 0.3937007874015748,
          "duration": 0.018000000000000682
        },
        {
          "name": "B2",
          "midi": 47,
          "time": 35.54000000000027,
          "velocity": 0.3937007874015748,
          "duration": 0.028000000000005798
        },
        {
          "name": "B2",
          "midi": 47,
          "time": 35.54000000000027,
          "velocity": 0.3937007874015748,
          "duration": 0.028000000000005798
        },
        {
          "name": "F3",
          "midi": 53,
          "time": 35.56900000000027,
          "velocity": 0.3937007874015748,
          "duration": 0.027999999999998693
        },
        {
          "name": "F3",
          "midi": 53,
          "time": 35.56900000000027,
          "velocity": 0.3937007874015748,
          "duration": 0.027999999999998693
        },
        {
          "name": "A2",
          "midi": 45,
          "time": 35.57900000000027,
          "velocity": 0.3937007874015748,
          "duration": 0.018000000000000682
        },
        {
          "name": "D2",
          "midi": 38,
          "time": 35.57900000000027,
          "velocity": 0.3937007874015748,
          "duration": 0.018000000000000682
        },
        {
          "name": "A2",
          "midi": 45,
          "time": 35.57900000000027,
          "velocity": 0.3937007874015748,
          "duration": 0.018000000000000682
        },
        {
          "name": "D2",
          "midi": 38,
          "time": 35.57900000000027,
          "velocity": 0.3937007874015748,
          "duration": 0.018000000000000682
        },
        {
          "name": "D#3",
          "midi": 51,
          "time": 35.61900000000027,
          "velocity": 0.3937007874015748,
          "duration": 0.008000000000002672
        },
        {
          "name": "D#3",
          "midi": 51,
          "time": 35.61900000000027,
          "velocity": 0.3937007874015748,
          "duration": 0.008000000000002672
        },
        {
          "name": "B2",
          "midi": 47,
          "time": 35.638000000000275,
          "velocity": 0.3937007874015748,
          "duration": 0.008000000000002672
        },
        {
          "name": "B2",
          "midi": 47,
          "time": 35.638000000000275,
          "velocity": 0.3937007874015748,
          "duration": 0.008000000000002672
        },
        {
          "name": "C#2",
          "midi": 37,
          "time": 35.668000000000276,
          "velocity": 0.3937007874015748,
          "duration": 0.008000000000002672
        },
        {
          "name": "C#2",
          "midi": 37,
          "time": 35.668000000000276,
          "velocity": 0.3937007874015748,
          "duration": 0.008000000000002672
        },
        {
          "name": "D2",
          "midi": 38,
          "time": 35.68800000000028,
          "velocity": 0.3937007874015748,
          "duration": 0.008000000000002672
        },
        {
          "name": "D2",
          "midi": 38,
          "time": 35.68800000000028,
          "velocity": 0.3937007874015748,
          "duration": 0.008000000000002672
        },
        {
          "name": "C#2",
          "midi": 37,
          "time": 35.707000000000285,
          "velocity": 0.3937007874015748,
          "duration": 0.008000000000002672
        },
        {
          "name": "C#2",
          "midi": 37,
          "time": 35.707000000000285,
          "velocity": 0.3937007874015748,
          "duration": 0.008000000000002672
        },
        {
          "name": "G2",
          "midi": 43,
          "time": 35.71700000000029,
          "velocity": 0.3937007874015748,
          "duration": 0.008000000000002672
        },
        {
          "name": "G2",
          "midi": 43,
          "time": 35.71700000000029,
          "velocity": 0.3937007874015748,
          "duration": 0.008000000000002672
        },
        {
          "name": "F2",
          "midi": 41,
          "time": 35.73700000000029,
          "velocity": 0.3937007874015748,
          "duration": 0.036999999999999034
        },
        {
          "name": "F2",
          "midi": 41,
          "time": 35.73700000000029,
          "velocity": 0.3937007874015748,
          "duration": 0.036999999999999034
        },
        {
          "name": "B2",
          "midi": 47,
          "time": 35.895000000000294,
          "velocity": 0.3937007874015748,
          "duration": 0.008000000000002672
        },
        {
          "name": "B2",
          "midi": 47,
          "time": 35.895000000000294,
          "velocity": 0.3937007874015748,
          "duration": 0.008000000000002672
        },
        {
          "name": "E2",
          "midi": 40,
          "time": 35.9050000000003,
          "velocity": 0.3937007874015748,
          "duration": 0.036999999999999034
        },
        {
          "name": "E2",
          "midi": 40,
          "time": 35.9050000000003,
          "velocity": 0.3937007874015748,
          "duration": 0.036999999999999034
        },
        {
          "name": "D2",
          "midi": 38,
          "time": 35.9640000000003,
          "velocity": 0.3937007874015748,
          "duration": 0.008000000000002672
        },
        {
          "name": "D2",
          "midi": 38,
          "time": 35.9640000000003,
          "velocity": 0.3937007874015748,
          "duration": 0.008000000000002672
        },
        {
          "name": "C#1",
          "midi": 25,
          "time": 36.0230000000003,
          "velocity": 0.3937007874015748,
          "duration": 0.018000000000000682
        },
        {
          "name": "A#2",
          "midi": 46,
          "time": 36.0230000000003,
          "velocity": 0.3937007874015748,
          "duration": 0.018000000000000682
        },
        {
          "name": "C#1",
          "midi": 25,
          "time": 36.0230000000003,
          "velocity": 0.3937007874015748,
          "duration": 0.018000000000000682
        },
        {
          "name": "A#2",
          "midi": 46,
          "time": 36.0230000000003,
          "velocity": 0.3937007874015748,
          "duration": 0.018000000000000682
        },
        {
          "name": "C1",
          "midi": 24,
          "time": 36.0530000000003,
          "velocity": 0.3937007874015748,
          "duration": 0.008000000000002672
        },
        {
          "name": "B2",
          "midi": 47,
          "time": 36.0530000000003,
          "velocity": 0.3937007874015748,
          "duration": 0.018000000000007788
        },
        {
          "name": "C1",
          "midi": 24,
          "time": 36.0530000000003,
          "velocity": 0.3937007874015748,
          "duration": 0.008000000000002672
        },
        {
          "name": "B2",
          "midi": 47,
          "time": 36.0530000000003,
          "velocity": 0.3937007874015748,
          "duration": 0.018000000000007788
        },
        {
          "name": "D#2",
          "midi": 39,
          "time": 36.06300000000031,
          "velocity": 0.3937007874015748,
          "duration": 0.028000000000005798
        },
        {
          "name": "D#2",
          "midi": 39,
          "time": 36.06300000000031,
          "velocity": 0.3937007874015748,
          "duration": 0.028000000000005798
        },
        {
          "name": "G#2",
          "midi": 44,
          "time": 36.08200000000031,
          "velocity": 0.3937007874015748,
          "duration": 0.008000000000002672
        },
        {
          "name": "G#2",
          "midi": 44,
          "time": 36.08200000000031,
          "velocity": 0.3937007874015748,
          "duration": 0.008000000000002672
        },
        {
          "name": "B2",
          "midi": 47,
          "time": 36.112000000000315,
          "velocity": 0.3937007874015748,
          "duration": 0.008000000000002672
        },
        {
          "name": "B2",
          "midi": 47,
          "time": 36.112000000000315,
          "velocity": 0.3937007874015748,
          "duration": 0.008000000000002672
        },
        {
          "name": "E2",
          "midi": 40,
          "time": 36.191000000000315,
          "velocity": 0.3937007874015748,
          "duration": 0.018000000000000682
        },
        {
          "name": "E2",
          "midi": 40,
          "time": 36.191000000000315,
          "velocity": 0.3937007874015748,
          "duration": 0.018000000000000682
        },
        {
          "name": "D3",
          "midi": 50,
          "time": 36.23000000000032,
          "velocity": 0.3937007874015748,
          "duration": 0.027999999999998693
        },
        {
          "name": "D3",
          "midi": 50,
          "time": 36.23000000000032,
          "velocity": 0.3937007874015748,
          "duration": 0.027999999999998693
        },
        {
          "name": "B1",
          "midi": 35,
          "time": 36.240000000000315,
          "velocity": 0.3937007874015748,
          "duration": 0.008000000000002672
        },
        {
          "name": "B1",
          "midi": 35,
          "time": 36.240000000000315,
          "velocity": 0.3937007874015748,
          "duration": 0.008000000000002672
        },
        {
          "name": "C#2",
          "midi": 37,
          "time": 36.270000000000316,
          "velocity": 0.3937007874015748,
          "duration": 0.018000000000000682
        },
        {
          "name": "C#2",
          "midi": 37,
          "time": 36.270000000000316,
          "velocity": 0.3937007874015748,
          "duration": 0.018000000000000682
        },
        {
          "name": "A#2",
          "midi": 46,
          "time": 36.280000000000314,
          "velocity": 0.3937007874015748,
          "duration": 0.028000000000005798
        },
        {
          "name": "A#2",
          "midi": 46,
          "time": 36.280000000000314,
          "velocity": 0.3937007874015748,
          "duration": 0.028000000000005798
        },
        {
          "name": "E3",
          "midi": 52,
          "time": 36.29900000000032,
          "velocity": 0.3937007874015748,
          "duration": 0.07700000000000529
        },
        {
          "name": "E3",
          "midi": 52,
          "time": 36.29900000000032,
          "velocity": 0.3937007874015748,
          "duration": 0.07700000000000529
        },
        {
          "name": "D2",
          "midi": 38,
          "time": 36.30900000000032,
          "velocity": 0.3937007874015748,
          "duration": 0.008000000000002672
        },
        {
          "name": "D2",
          "midi": 38,
          "time": 36.30900000000032,
          "velocity": 0.3937007874015748,
          "duration": 0.008000000000002672
        },
        {
          "name": "G#3",
          "midi": 56,
          "time": 36.31900000000032,
          "velocity": 0.3937007874015748,
          "duration": 0.04700000000000415
        },
        {
          "name": "G#3",
          "midi": 56,
          "time": 36.31900000000032,
          "velocity": 0.3937007874015748,
          "duration": 0.04700000000000415
        },
        {
          "name": "C3",
          "midi": 48,
          "time": 36.339000000000325,
          "velocity": 0.3937007874015748,
          "duration": 0.008000000000002672
        },
        {
          "name": "B4",
          "midi": 71,
          "time": 36.339000000000325,
          "velocity": 0.3937007874015748,
          "duration": 0.07700000000000529
        },
        {
          "name": "C3",
          "midi": 48,
          "time": 36.339000000000325,
          "velocity": 0.3937007874015748,
          "duration": 0.008000000000002672
        },
        {
          "name": "B4",
          "midi": 71,
          "time": 36.339000000000325,
          "velocity": 0.3937007874015748,
          "duration": 0.07700000000000529
        },
        {
          "name": "B2",
          "midi": 47,
          "time": 36.35900000000033,
          "velocity": 0.3937007874015748,
          "duration": 0.017999999999993577
        },
        {
          "name": "F2",
          "midi": 41,
          "time": 36.35900000000033,
          "velocity": 0.3937007874015748,
          "duration": 0.007999999999995566
        },
        {
          "name": "E4",
          "midi": 64,
          "time": 36.35900000000033,
          "velocity": 0.3937007874015748,
          "duration": 0.046999999999997044
        },
        {
          "name": "B2",
          "midi": 47,
          "time": 36.35900000000033,
          "velocity": 0.3937007874015748,
          "duration": 0.017999999999993577
        },
        {
          "name": "F2",
          "midi": 41,
          "time": 36.35900000000033,
          "velocity": 0.3937007874015748,
          "duration": 0.007999999999995566
        },
        {
          "name": "E4",
          "midi": 64,
          "time": 36.35900000000033,
          "velocity": 0.3937007874015748,
          "duration": 0.046999999999997044
        },
        {
          "name": "C#3",
          "midi": 49,
          "time": 36.388000000000325,
          "velocity": 0.3937007874015748,
          "duration": 0.008000000000002672
        },
        {
          "name": "D2",
          "midi": 38,
          "time": 36.388000000000325,
          "velocity": 0.3937007874015748,
          "duration": 0.03700000000000614
        },
        {
          "name": "C#3",
          "midi": 49,
          "time": 36.388000000000325,
          "velocity": 0.3937007874015748,
          "duration": 0.008000000000002672
        },
        {
          "name": "D2",
          "midi": 38,
          "time": 36.388000000000325,
          "velocity": 0.3937007874015748,
          "duration": 0.03700000000000614
        },
        {
          "name": "C3",
          "midi": 48,
          "time": 36.40800000000033,
          "velocity": 0.3937007874015748,
          "duration": 0.008000000000002672
        },
        {
          "name": "C3",
          "midi": 48,
          "time": 36.40800000000033,
          "velocity": 0.3937007874015748,
          "duration": 0.008000000000002672
        },
        {
          "name": "E3",
          "midi": 52,
          "time": 36.41800000000033,
          "velocity": 0.3937007874015748,
          "duration": 0.046999999999997044
        },
        {
          "name": "E3",
          "midi": 52,
          "time": 36.41800000000033,
          "velocity": 0.3937007874015748,
          "duration": 0.046999999999997044
        },
        {
          "name": "C3",
          "midi": 48,
          "time": 36.42800000000033,
          "velocity": 0.4015748031496063,
          "duration": 0.05700000000000216
        },
        {
          "name": "C3",
          "midi": 48,
          "time": 36.42800000000033,
          "velocity": 0.4015748031496063,
          "duration": 0.05700000000000216
        },
        {
          "name": "G3",
          "midi": 55,
          "time": 36.44700000000033,
          "velocity": 0.3937007874015748,
          "duration": 0.008000000000002672
        },
        {
          "name": "F2",
          "midi": 41,
          "time": 36.44700000000033,
          "velocity": 0.3937007874015748,
          "duration": 0.018000000000000682
        },
        {
          "name": "G3",
          "midi": 55,
          "time": 36.44700000000033,
          "velocity": 0.3937007874015748,
          "duration": 0.008000000000002672
        },
        {
          "name": "F2",
          "midi": 41,
          "time": 36.44700000000033,
          "velocity": 0.3937007874015748,
          "duration": 0.018000000000000682
        },
        {
          "name": "A#3",
          "midi": 58,
          "time": 36.46700000000033,
          "velocity": 0.3937007874015748,
          "duration": 0.008000000000002672
        },
        {
          "name": "A#3",
          "midi": 58,
          "time": 36.46700000000033,
          "velocity": 0.3937007874015748,
          "duration": 0.008000000000002672
        },
        {
          "name": "F4",
          "midi": 65,
          "time": 36.487000000000336,
          "velocity": 0.4015748031496063,
          "duration": 0.028000000000005798
        },
        {
          "name": "A#3",
          "midi": 58,
          "time": 36.487000000000336,
          "velocity": 0.4015748031496063,
          "duration": 0.008000000000002672
        },
        {
          "name": "F4",
          "midi": 65,
          "time": 36.487000000000336,
          "velocity": 0.4015748031496063,
          "duration": 0.028000000000005798
        },
        {
          "name": "A#3",
          "midi": 58,
          "time": 36.487000000000336,
          "velocity": 0.4015748031496063,
          "duration": 0.008000000000002672
        },
        {
          "name": "G3",
          "midi": 55,
          "time": 36.49700000000034,
          "velocity": 0.5275590551181102,
          "duration": 0.08699999999999619
        },
        {
          "name": "D#4",
          "midi": 63,
          "time": 36.49700000000034,
          "velocity": 0.4094488188976378,
          "duration": 0.027999999999998693
        },
        {
          "name": "G3",
          "midi": 55,
          "time": 36.49700000000034,
          "velocity": 0.5275590551181102,
          "duration": 0.08699999999999619
        },
        {
          "name": "D#4",
          "midi": 63,
          "time": 36.49700000000034,
          "velocity": 0.4094488188976378,
          "duration": 0.027999999999998693
        },
        {
          "name": "A#2",
          "midi": 46,
          "time": 36.50600000000034,
          "velocity": 0.5354330708661418,
          "duration": 0.008000000000002672
        },
        {
          "name": "C4",
          "midi": 60,
          "time": 36.50600000000034,
          "velocity": 0.4094488188976378,
          "duration": 0.008000000000002672
        },
        {
          "name": "A#2",
          "midi": 46,
          "time": 36.50600000000034,
          "velocity": 0.5354330708661418,
          "duration": 0.008000000000002672
        },
        {
          "name": "C4",
          "midi": 60,
          "time": 36.50600000000034,
          "velocity": 0.4094488188976378,
          "duration": 0.008000000000002672
        },
        {
          "name": "B2",
          "midi": 47,
          "time": 36.52600000000034,
          "velocity": 0.5511811023622047,
          "duration": 0.036999999999999034
        },
        {
          "name": "B2",
          "midi": 47,
          "time": 36.52600000000034,
          "velocity": 0.5511811023622047,
          "duration": 0.036999999999999034
        },
        {
          "name": "B4",
          "midi": 71,
          "time": 36.536000000000335,
          "velocity": 0.5669291338582677,
          "duration": 0.07700000000000529
        },
        {
          "name": "G4",
          "midi": 67,
          "time": 36.536000000000335,
          "velocity": 0.6929133858267716,
          "duration": 0.1460000000000221
        },
        {
          "name": "B3",
          "midi": 59,
          "time": 36.536000000000335,
          "velocity": 0.5669291338582677,
          "duration": 0.05700000000000216
        },
        {
          "name": "B4",
          "midi": 71,
          "time": 36.536000000000335,
          "velocity": 0.5669291338582677,
          "duration": 0.07700000000000529
        },
        {
          "name": "G4",
          "midi": 67,
          "time": 36.536000000000335,
          "velocity": 0.6929133858267716,
          "duration": 0.1460000000000221
        },
        {
          "name": "B3",
          "midi": 59,
          "time": 36.536000000000335,
          "velocity": 0.5669291338582677,
          "duration": 0.05700000000000216
        },
        {
          "name": "D2",
          "midi": 38,
          "time": 36.55600000000034,
          "velocity": 0.6299212598425197,
          "duration": 0.007999999999995566
        },
        {
          "name": "D2",
          "midi": 38,
          "time": 36.55600000000034,
          "velocity": 0.6299212598425197,
          "duration": 0.007999999999995566
        },
        {
          "name": "G5",
          "midi": 79,
          "time": 36.576000000000334,
          "velocity": 0.5826771653543307,
          "duration": 0.047000000000011255
        },
        {
          "name": "D5",
          "midi": 74,
          "time": 36.576000000000334,
          "velocity": 0.5669291338582677,
          "duration": 0.028000000000005798
        },
        {
          "name": "G5",
          "midi": 79,
          "time": 36.576000000000334,
          "velocity": 0.5826771653543307,
          "duration": 0.047000000000011255
        },
        {
          "name": "D5",
          "midi": 74,
          "time": 36.576000000000334,
          "velocity": 0.5669291338582677,
          "duration": 0.028000000000005798
        },
        {
          "name": "A#2",
          "midi": 46,
          "time": 36.60500000000034,
          "velocity": 0.5354330708661418,
          "duration": 0.018000000000007788
        },
        {
          "name": "G6",
          "midi": 91,
          "time": 36.60500000000034,
          "velocity": 0.5511811023622047,
          "duration": 0.037000000000013245
        },
        {
          "name": "A#2",
          "midi": 46,
          "time": 36.60500000000034,
          "velocity": 0.5354330708661418,
          "duration": 0.018000000000007788
        },
        {
          "name": "G6",
          "midi": 91,
          "time": 36.60500000000034,
          "velocity": 0.5511811023622047,
          "duration": 0.037000000000013245
        },
        {
          "name": "G5",
          "midi": 79,
          "time": 36.61500000000034,
          "velocity": 0.5433070866141733,
          "duration": 0.17600000000002325
        },
        {
          "name": "G5",
          "midi": 79,
          "time": 36.61500000000034,
          "velocity": 0.5433070866141733,
          "duration": 0.17600000000002325
        },
        {
          "name": "F#4",
          "midi": 66,
          "time": 36.62500000000035,
          "velocity": 0.5826771653543307,
          "duration": 0.008000000000002672
        },
        {
          "name": "F#4",
          "midi": 66,
          "time": 36.62500000000035,
          "velocity": 0.5826771653543307,
          "duration": 0.008000000000002672
        },
        {
          "name": "F6",
          "midi": 89,
          "time": 36.63500000000035,
          "velocity": 0.5118110236220472,
          "duration": 0.018000000000000682
        },
        {
          "name": "B2",
          "midi": 47,
          "time": 36.63500000000035,
          "velocity": 0.6456692913385826,
          "duration": 0.04700000000000415
        },
        {
          "name": "F6",
          "midi": 89,
          "time": 36.63500000000035,
          "velocity": 0.5118110236220472,
          "duration": 0.018000000000000682
        },
        {
          "name": "B2",
          "midi": 47,
          "time": 36.63500000000035,
          "velocity": 0.6456692913385826,
          "duration": 0.04700000000000415
        },
        {
          "name": "F#4",
          "midi": 66,
          "time": 36.65400000000035,
          "velocity": 0.5275590551181102,
          "duration": 0.008000000000002672
        },
        {
          "name": "G3",
          "midi": 55,
          "time": 36.65400000000035,
          "velocity": 0.6377952755905512,
          "duration": 0.09700000000000841
        },
        {
          "name": "F#4",
          "midi": 66,
          "time": 36.65400000000035,
          "velocity": 0.5275590551181102,
          "duration": 0.008000000000002672
        },
        {
          "name": "G3",
          "midi": 55,
          "time": 36.65400000000035,
          "velocity": 0.6377952755905512,
          "duration": 0.09700000000000841
        },
        {
          "name": "B4",
          "midi": 71,
          "time": 36.66400000000036,
          "velocity": 0.5196850393700787,
          "duration": 0.09700000000000131
        },
        {
          "name": "B4",
          "midi": 71,
          "time": 36.66400000000036,
          "velocity": 0.5196850393700787,
          "duration": 0.09700000000000131
        },
        {
          "name": "G4",
          "midi": 67,
          "time": 36.674000000000355,
          "velocity": 0.6850393700787402,
          "duration": 0.11600000000001387
        },
        {
          "name": "G4",
          "midi": 67,
          "time": 36.674000000000355,
          "velocity": 0.6850393700787402,
          "duration": 0.11600000000001387
        },
        {
          "name": "C3",
          "midi": 48,
          "time": 36.704000000000356,
          "velocity": 0.5433070866141733,
          "duration": 0.008000000000002672
        },
        {
          "name": "A2",
          "midi": 45,
          "time": 36.704000000000356,
          "velocity": 0.5275590551181102,
          "duration": 0.008000000000002672
        },
        {
          "name": "C3",
          "midi": 48,
          "time": 36.704000000000356,
          "velocity": 0.5433070866141733,
          "duration": 0.008000000000002672
        },
        {
          "name": "A2",
          "midi": 45,
          "time": 36.704000000000356,
          "velocity": 0.5275590551181102,
          "duration": 0.008000000000002672
        },
        {
          "name": "B2",
          "midi": 47,
          "time": 36.73300000000036,
          "velocity": 0.7559055118110236,
          "duration": 0.018000000000000682
        },
        {
          "name": "B3",
          "midi": 59,
          "time": 36.73300000000036,
          "velocity": 0.5196850393700787,
          "duration": 0.008000000000002672
        },
        {
          "name": "B2",
          "midi": 47,
          "time": 36.73300000000036,
          "velocity": 0.7559055118110236,
          "duration": 0.018000000000000682
        },
        {
          "name": "B3",
          "midi": 59,
          "time": 36.73300000000036,
          "velocity": 0.5196850393700787,
          "duration": 0.008000000000002672
        },
        {
          "name": "B2",
          "midi": 47,
          "time": 36.76300000000036,
          "velocity": 0.6850393700787402,
          "duration": 0.047000000000011255
        },
        {
          "name": "F#4",
          "midi": 66,
          "time": 36.76300000000036,
          "velocity": 0.5511811023622047,
          "duration": 0.008000000000002672
        },
        {
          "name": "B2",
          "midi": 47,
          "time": 36.76300000000036,
          "velocity": 0.6850393700787402,
          "duration": 0.047000000000011255
        },
        {
          "name": "F#4",
          "midi": 66,
          "time": 36.76300000000036,
          "velocity": 0.5511811023622047,
          "duration": 0.008000000000002672
        },
        {
          "name": "A3",
          "midi": 57,
          "time": 36.773000000000366,
          "velocity": 0.5354330708661418,
          "duration": 0.018000000000000682
        },
        {
          "name": "A3",
          "midi": 57,
          "time": 36.773000000000366,
          "velocity": 0.5354330708661418,
          "duration": 0.018000000000000682
        },
        {
          "name": "D5",
          "midi": 74,
          "time": 36.79300000000037,
          "velocity": 0.5196850393700787,
          "duration": 0.028000000000005798
        },
        {
          "name": "D5",
          "midi": 74,
          "time": 36.79300000000037,
          "velocity": 0.5196850393700787,
          "duration": 0.028000000000005798
        },
        {
          "name": "G#3",
          "midi": 56,
          "time": 36.80200000000037,
          "velocity": 0.5984251968503937,
          "duration": 0.09700000000002262
        },
        {
          "name": "G#4",
          "midi": 68,
          "time": 36.80200000000037,
          "velocity": 0.6299212598425197,
          "duration": 0.018000000000007788
        },
        {
          "name": "G#3",
          "midi": 56,
          "time": 36.80200000000037,
          "velocity": 0.5984251968503937,
          "duration": 0.09700000000002262
        },
        {
          "name": "G#4",
          "midi": 68,
          "time": 36.80200000000037,
          "velocity": 0.6299212598425197,
          "duration": 0.018000000000007788
        },
        {
          "name": "A#4",
          "midi": 70,
          "time": 36.812000000000374,
          "velocity": 0.5275590551181102,
          "duration": 0.018000000000000682
        },
        {
          "name": "A#4",
          "midi": 70,
          "time": 36.812000000000374,
          "velocity": 0.5275590551181102,
          "duration": 0.018000000000000682
        },
        {
          "name": "F4",
          "midi": 65,
          "time": 36.82200000000037,
          "velocity": 0.5511811023622047,
          "duration": 0.06700000000001438
        },
        {
          "name": "C3",
          "midi": 48,
          "time": 36.82200000000037,
          "velocity": 0.6377952755905512,
          "duration": 0.018000000000007788
        },
        {
          "name": "F4",
          "midi": 65,
          "time": 36.82200000000037,
          "velocity": 0.5511811023622047,
          "duration": 0.06700000000001438
        },
        {
          "name": "C3",
          "midi": 48,
          "time": 36.82200000000037,
          "velocity": 0.6377952755905512,
          "duration": 0.018000000000007788
        },
        {
          "name": "G4",
          "midi": 67,
          "time": 36.83200000000038,
          "velocity": 0.5984251968503937,
          "duration": 0.018000000000000682
        },
        {
          "name": "F6",
          "midi": 89,
          "time": 36.83200000000038,
          "velocity": 0.6062992125984252,
          "duration": 0.028000000000005798
        },
        {
          "name": "G4",
          "midi": 67,
          "time": 36.83200000000038,
          "velocity": 0.5984251968503937,
          "duration": 0.018000000000000682
        },
        {
          "name": "F6",
          "midi": 89,
          "time": 36.83200000000038,
          "velocity": 0.6062992125984252,
          "duration": 0.028000000000005798
        },
        {
          "name": "A4",
          "midi": 69,
          "time": 36.85200000000038,
          "velocity": 0.7007874015748031,
          "duration": 0.4320000000000519
        },
        {
          "name": "A4",
          "midi": 69,
          "time": 36.85200000000038,
          "velocity": 0.7007874015748031,
          "duration": 0.4320000000000519
        },
        {
          "name": "A#3",
          "midi": 58,
          "time": 36.862000000000386,
          "velocity": 0.5669291338582677,
          "duration": 0.07700000000001239
        },
        {
          "name": "A#2",
          "midi": 46,
          "time": 36.862000000000386,
          "velocity": 0.7322834645669292,
          "duration": 0.04700000000000415
        },
        {
          "name": "A#3",
          "midi": 58,
          "time": 36.862000000000386,
          "velocity": 0.5669291338582677,
          "duration": 0.07700000000001239
        },
        {
          "name": "A#2",
          "midi": 46,
          "time": 36.862000000000386,
          "velocity": 0.7322834645669292,
          "duration": 0.04700000000000415
        },
        {
          "name": "G#5",
          "midi": 80,
          "time": 36.89100000000039,
          "velocity": 0.5275590551181102,
          "duration": 0.10700000000001353
        },
        {
          "name": "G#5",
          "midi": 80,
          "time": 36.89100000000039,
          "velocity": 0.5275590551181102,
          "duration": 0.10700000000001353
        },
        {
          "name": "F#3",
          "midi": 54,
          "time": 36.91100000000039,
          "velocity": 0.5590551181102362,
          "duration": 0.018000000000000682
        },
        {
          "name": "F#3",
          "midi": 54,
          "time": 36.91100000000039,
          "velocity": 0.5590551181102362,
          "duration": 0.018000000000000682
        },
        {
          "name": "G#3",
          "midi": 56,
          "time": 36.931000000000395,
          "velocity": 0.5826771653543307,
          "duration": 0.04700000000000415
        },
        {
          "name": "G#3",
          "midi": 56,
          "time": 36.931000000000395,
          "velocity": 0.5826771653543307,
          "duration": 0.04700000000000415
        },
        {
          "name": "A#2",
          "midi": 46,
          "time": 36.9500000000004,
          "velocity": 0.7559055118110236,
          "duration": 0.2640000000000242
        },
        {
          "name": "A#2",
          "midi": 46,
          "time": 36.9500000000004,
          "velocity": 0.7559055118110236,
          "duration": 0.2640000000000242
        },
        {
          "name": "D3",
          "midi": 50,
          "time": 36.9600000000004,
          "velocity": 0.4881889763779528,
          "duration": 0.008000000000002672
        },
        {
          "name": "D3",
          "midi": 50,
          "time": 36.9600000000004,
          "velocity": 0.4881889763779528,
          "duration": 0.008000000000002672
        },
        {
          "name": "F3",
          "midi": 53,
          "time": 36.9800000000004,
          "velocity": 0.5196850393700787,
          "duration": 0.03700000000000614
        },
        {
          "name": "A#4",
          "midi": 70,
          "time": 36.9800000000004,
          "velocity": 0.5590551181102362,
          "duration": 0.008000000000002672
        },
        {
          "name": "F3",
          "midi": 53,
          "time": 36.9800000000004,
          "velocity": 0.5196850393700787,
          "duration": 0.03700000000000614
        },
        {
          "name": "A#4",
          "midi": 70,
          "time": 36.9800000000004,
          "velocity": 0.5590551181102362,
          "duration": 0.008000000000002672
        },
        {
          "name": "A5",
          "midi": 81,
          "time": 37.000000000000405,
          "velocity": 0.5196850393700787,
          "duration": 0.06700000000000017
        },
        {
          "name": "G#3",
          "midi": 56,
          "time": 37.000000000000405,
          "velocity": 0.5354330708661418,
          "duration": 0.008000000000002672
        },
        {
          "name": "A5",
          "midi": 81,
          "time": 37.000000000000405,
          "velocity": 0.5196850393700787,
          "duration": 0.06700000000000017
        },
        {
          "name": "G#3",
          "midi": 56,
          "time": 37.000000000000405,
          "velocity": 0.5354330708661418,
          "duration": 0.008000000000002672
        },
        {
          "name": "A3",
          "midi": 57,
          "time": 37.02900000000041,
          "velocity": 0.7007874015748031,
          "duration": 0.30400000000002336
        },
        {
          "name": "A3",
          "midi": 57,
          "time": 37.02900000000041,
          "velocity": 0.7007874015748031,
          "duration": 0.30400000000002336
        },
        {
          "name": "G6",
          "midi": 91,
          "time": 37.03900000000041,
          "velocity": 0.5118110236220472,
          "duration": 0.05700000000000216
        },
        {
          "name": "G6",
          "midi": 91,
          "time": 37.03900000000041,
          "velocity": 0.5118110236220472,
          "duration": 0.05700000000000216
        },
        {
          "name": "E4",
          "midi": 64,
          "time": 37.06900000000041,
          "velocity": 0.5118110236220472,
          "duration": 0.04700000000000415
        },
        {
          "name": "E4",
          "midi": 64,
          "time": 37.06900000000041,
          "velocity": 0.5118110236220472,
          "duration": 0.04700000000000415
        },
        {
          "name": "A5",
          "midi": 81,
          "time": 37.10800000000041,
          "velocity": 0.49606299212598426,
          "duration": 0.08700000000001751
        },
        {
          "name": "A5",
          "midi": 81,
          "time": 37.10800000000041,
          "velocity": 0.49606299212598426,
          "duration": 0.08700000000001751
        },
        {
          "name": "A6",
          "midi": 93,
          "time": 37.118000000000414,
          "velocity": 0.47244094488188976,
          "duration": 0.008000000000002672
        },
        {
          "name": "A6",
          "midi": 93,
          "time": 37.118000000000414,
          "velocity": 0.47244094488188976,
          "duration": 0.008000000000002672
        },
        {
          "name": "E5",
          "midi": 76,
          "time": 37.13800000000042,
          "velocity": 0.44881889763779526,
          "duration": 0.008000000000002672
        },
        {
          "name": "E5",
          "midi": 76,
          "time": 37.13800000000042,
          "velocity": 0.44881889763779526,
          "duration": 0.008000000000002672
        },
        {
          "name": "D2",
          "midi": 38,
          "time": 37.15700000000042,
          "velocity": 0.4645669291338583,
          "duration": 0.018000000000000682
        },
        {
          "name": "G#4",
          "midi": 68,
          "time": 37.15700000000042,
          "velocity": 0.47244094488188976,
          "duration": 0.008000000000002672
        },
        {
          "name": "D2",
          "midi": 38,
          "time": 37.15700000000042,
          "velocity": 0.4645669291338583,
          "duration": 0.018000000000000682
        },
        {
          "name": "G#4",
          "midi": 68,
          "time": 37.15700000000042,
          "velocity": 0.47244094488188976,
          "duration": 0.008000000000002672
        },
        {
          "name": "E6",
          "midi": 88,
          "time": 37.177000000000426,
          "velocity": 0.4566929133858268,
          "duration": 0.027999999999998693
        },
        {
          "name": "E6",
          "midi": 88,
          "time": 37.177000000000426,
          "velocity": 0.4566929133858268,
          "duration": 0.027999999999998693
        },
        {
          "name": "G6",
          "midi": 91,
          "time": 37.187000000000424,
          "velocity": 0.44881889763779526,
          "duration": 0.008000000000002672
        },
        {
          "name": "G6",
          "midi": 91,
          "time": 37.187000000000424,
          "velocity": 0.44881889763779526,
          "duration": 0.008000000000002672
        },
        {
          "name": "G#4",
          "midi": 68,
          "time": 37.20700000000043,
          "velocity": 0.47244094488188976,
          "duration": 0.018000000000000682
        },
        {
          "name": "G#4",
          "midi": 68,
          "time": 37.20700000000043,
          "velocity": 0.47244094488188976,
          "duration": 0.018000000000000682
        },
        {
          "name": "D#3",
          "midi": 51,
          "time": 37.217000000000425,
          "velocity": 0.47244094488188976,
          "duration": 0.008000000000002672
        },
        {
          "name": "A5",
          "midi": 81,
          "time": 37.217000000000425,
          "velocity": 0.48031496062992124,
          "duration": 0.018000000000007788
        },
        {
          "name": "D#3",
          "midi": 51,
          "time": 37.217000000000425,
          "velocity": 0.47244094488188976,
          "duration": 0.008000000000002672
        },
        {
          "name": "A5",
          "midi": 81,
          "time": 37.217000000000425,
          "velocity": 0.48031496062992124,
          "duration": 0.018000000000007788
        },
        {
          "name": "B2",
          "midi": 47,
          "time": 37.22700000000043,
          "velocity": 0.6141732283464567,
          "duration": 0.12600000000000477
        },
        {
          "name": "B2",
          "midi": 47,
          "time": 37.22700000000043,
          "velocity": 0.6141732283464567,
          "duration": 0.12600000000000477
        },
        {
          "name": "A#4",
          "midi": 70,
          "time": 37.23600000000043,
          "velocity": 0.5196850393700787,
          "duration": 0.008000000000002672
        },
        {
          "name": "G#2",
          "midi": 44,
          "time": 37.23600000000043,
          "velocity": 0.5433070866141733,
          "duration": 0.008000000000002672
        },
        {
          "name": "A#4",
          "midi": 70,
          "time": 37.23600000000043,
          "velocity": 0.5196850393700787,
          "duration": 0.008000000000002672
        },
        {
          "name": "G#2",
          "midi": 44,
          "time": 37.23600000000043,
          "velocity": 0.5433070866141733,
          "duration": 0.008000000000002672
        },
        {
          "name": "G#3",
          "midi": 56,
          "time": 37.246000000000436,
          "velocity": 0.6377952755905512,
          "duration": 0.046999999999997044
        },
        {
          "name": "G#3",
          "midi": 56,
          "time": 37.246000000000436,
          "velocity": 0.6377952755905512,
          "duration": 0.046999999999997044
        },
        {
          "name": "F6",
          "midi": 89,
          "time": 37.256000000000434,
          "velocity": 0.5669291338582677,
          "duration": 0.11599999999999966
        },
        {
          "name": "C5",
          "midi": 72,
          "time": 37.256000000000434,
          "velocity": 0.5590551181102362,
          "duration": 0.0870000000000033
        },
        {
          "name": "F6",
          "midi": 89,
          "time": 37.256000000000434,
          "velocity": 0.5669291338582677,
          "duration": 0.11599999999999966
        },
        {
          "name": "C5",
          "midi": 72,
          "time": 37.256000000000434,
          "velocity": 0.5590551181102362,
          "duration": 0.0870000000000033
        },
        {
          "name": "A#6",
          "midi": 94,
          "time": 37.29600000000043,
          "velocity": 0.5354330708661418,
          "duration": 0.008000000000002672
        },
        {
          "name": "A#6",
          "midi": 94,
          "time": 37.29600000000043,
          "velocity": 0.5354330708661418,
          "duration": 0.008000000000002672
        },
        {
          "name": "B4",
          "midi": 71,
          "time": 37.30500000000043,
          "velocity": 0.6299212598425197,
          "duration": 0.5210000000000292
        },
        {
          "name": "B4",
          "midi": 71,
          "time": 37.30500000000043,
          "velocity": 0.6299212598425197,
          "duration": 0.5210000000000292
        },
        {
          "name": "G#3",
          "midi": 56,
          "time": 37.335000000000434,
          "velocity": 0.6850393700787402,
          "duration": 0.10700000000000642
        },
        {
          "name": "G#3",
          "midi": 56,
          "time": 37.335000000000434,
          "velocity": 0.6850393700787402,
          "duration": 0.10700000000000642
        },
        {
          "name": "A#5",
          "midi": 82,
          "time": 37.35500000000044,
          "velocity": 0.47244094488188976,
          "duration": 0.017999999999993577
        },
        {
          "name": "A#5",
          "midi": 82,
          "time": 37.35500000000044,
          "velocity": 0.47244094488188976,
          "duration": 0.017999999999993577
        },
        {
          "name": "G#2",
          "midi": 44,
          "time": 37.365000000000435,
          "velocity": 0.5118110236220472,
          "duration": 0.027999999999998693
        },
        {
          "name": "C5",
          "midi": 72,
          "time": 37.365000000000435,
          "velocity": 0.5354330708661418,
          "duration": 0.0870000000000033
        },
        {
          "name": "G#2",
          "midi": 44,
          "time": 37.365000000000435,
          "velocity": 0.5118110236220472,
          "duration": 0.027999999999998693
        },
        {
          "name": "C5",
          "midi": 72,
          "time": 37.365000000000435,
          "velocity": 0.5354330708661418,
          "duration": 0.0870000000000033
        },
        {
          "name": "A#3",
          "midi": 58,
          "time": 37.384000000000434,
          "velocity": 0.5039370078740157,
          "duration": 0.008000000000002672
        },
        {
          "name": "A#3",
          "midi": 58,
          "time": 37.384000000000434,
          "velocity": 0.5039370078740157,
          "duration": 0.008000000000002672
        },
        {
          "name": "D6",
          "midi": 86,
          "time": 37.40400000000044,
          "velocity": 0.47244094488188976,
          "duration": 0.018000000000000682
        },
        {
          "name": "D6",
          "midi": 86,
          "time": 37.40400000000044,
          "velocity": 0.47244094488188976,
          "duration": 0.018000000000000682
        },
        {
          "name": "A#3",
          "midi": 58,
          "time": 37.414000000000435,
          "velocity": 0.5590551181102362,
          "duration": 0.03700000000000614
        },
        {
          "name": "A2",
          "midi": 45,
          "time": 37.414000000000435,
          "velocity": 0.7086614173228346,
          "duration": 0.008000000000002672
        },
        {
          "name": "A#3",
          "midi": 58,
          "time": 37.414000000000435,
          "velocity": 0.5590551181102362,
          "duration": 0.03700000000000614
        },
        {
          "name": "A2",
          "midi": 45,
          "time": 37.414000000000435,
          "velocity": 0.7086614173228346,
          "duration": 0.008000000000002672
        },
        {
          "name": "G#2",
          "midi": 44,
          "time": 37.44400000000044,
          "velocity": 0.7480314960629921,
          "duration": 0.017999999999993577
        },
        {
          "name": "G#2",
          "midi": 44,
          "time": 37.44400000000044,
          "velocity": 0.7480314960629921,
          "duration": 0.017999999999993577
        },
        {
          "name": "G#3",
          "midi": 56,
          "time": 37.453000000000436,
          "velocity": 0.5984251968503937,
          "duration": 0.2540000000000333
        },
        {
          "name": "G#3",
          "midi": 56,
          "time": 37.453000000000436,
          "velocity": 0.5984251968503937,
          "duration": 0.2540000000000333
        },
        {
          "name": "B3",
          "midi": 59,
          "time": 37.463000000000434,
          "velocity": 0.5826771653543307,
          "duration": 0.028000000000005798
        },
        {
          "name": "E4",
          "midi": 64,
          "time": 37.463000000000434,
          "velocity": 0.49606299212598426,
          "duration": 0.008000000000002672
        },
        {
          "name": "B3",
          "midi": 59,
          "time": 37.463000000000434,
          "velocity": 0.5826771653543307,
          "duration": 0.028000000000005798
        },
        {
          "name": "E4",
          "midi": 64,
          "time": 37.463000000000434,
          "velocity": 0.49606299212598426,
          "duration": 0.008000000000002672
        },
        {
          "name": "A2",
          "midi": 45,
          "time": 37.48300000000044,
          "velocity": 0.6220472440944882,
          "duration": 0.008000000000002672
        },
        {
          "name": "A2",
          "midi": 45,
          "time": 37.48300000000044,
          "velocity": 0.6220472440944882,
          "duration": 0.008000000000002672
        },
        {
          "name": "G#6",
          "midi": 92,
          "time": 37.49300000000044,
          "velocity": 0.5433070866141733,
          "duration": 0.008000000000002672
        },
        {
          "name": "F#6",
          "midi": 90,
          "time": 37.49300000000044,
          "velocity": 0.5905511811023622,
          "duration": 0.037000000000013245
        },
        {
          "name": "G#6",
          "midi": 92,
          "time": 37.49300000000044,
          "velocity": 0.5433070866141733,
          "duration": 0.008000000000002672
        },
        {
          "name": "F#6",
          "midi": 90,
          "time": 37.49300000000044,
          "velocity": 0.5905511811023622,
          "duration": 0.037000000000013245
        },
        {
          "name": "A#4",
          "midi": 70,
          "time": 37.50300000000045,
          "velocity": 0.5511811023622047,
          "duration": 0.008000000000002672
        },
        {
          "name": "A#4",
          "midi": 70,
          "time": 37.50300000000045,
          "velocity": 0.5511811023622047,
          "duration": 0.008000000000002672
        },
        {
          "name": "G4",
          "midi": 67,
          "time": 37.51300000000045,
          "velocity": 0.5826771653543307,
          "duration": 0.17600000000001614
        },
        {
          "name": "G4",
          "midi": 67,
          "time": 37.51300000000045,
          "velocity": 0.5826771653543307,
          "duration": 0.17600000000001614
        },
        {
          "name": "A7",
          "midi": 105,
          "time": 37.52200000000045,
          "velocity": 0.5118110236220472,
          "duration": 0.018000000000007788
        },
        {
          "name": "A7",
          "midi": 105,
          "time": 37.52200000000045,
          "velocity": 0.5118110236220472,
          "duration": 0.018000000000007788
        },
        {
          "name": "A2",
          "midi": 45,
          "time": 37.53200000000046,
          "velocity": 0.6771653543307087,
          "duration": 0.008000000000002672
        },
        {
          "name": "A2",
          "midi": 45,
          "time": 37.53200000000046,
          "velocity": 0.6771653543307087,
          "duration": 0.008000000000002672
        },
        {
          "name": "G#2",
          "midi": 44,
          "time": 37.55200000000046,
          "velocity": 0.6929133858267716,
          "duration": 0.018000000000000682
        },
        {
          "name": "G#2",
          "midi": 44,
          "time": 37.55200000000046,
          "velocity": 0.6929133858267716,
          "duration": 0.018000000000000682
        },
        {
          "name": "A#4",
          "midi": 70,
          "time": 37.572000000000465,
          "velocity": 0.4645669291338583,
          "duration": 0.008000000000002672
        },
        {
          "name": "A#4",
          "midi": 70,
          "time": 37.572000000000465,
          "velocity": 0.4645669291338583,
          "duration": 0.008000000000002672
        },
        {
          "name": "A#3",
          "midi": 58,
          "time": 37.58200000000047,
          "velocity": 0.48031496062992124,
          "duration": 0.008000000000002672
        },
        {
          "name": "A#3",
          "midi": 58,
          "time": 37.58200000000047,
          "velocity": 0.48031496062992124,
          "duration": 0.008000000000002672
        },
        {
          "name": "G#2",
          "midi": 44,
          "time": 37.59100000000047,
          "velocity": 0.7559055118110236,
          "duration": 0.1559999999999988
        },
        {
          "name": "G#2",
          "midi": 44,
          "time": 37.59100000000047,
          "velocity": 0.7559055118110236,
          "duration": 0.1559999999999988
        },
        {
          "name": "A#3",
          "midi": 58,
          "time": 37.62100000000047,
          "velocity": 0.5275590551181102,
          "duration": 0.036999999999999034
        },
        {
          "name": "A#3",
          "midi": 58,
          "time": 37.62100000000047,
          "velocity": 0.5275590551181102,
          "duration": 0.036999999999999034
        },
        {
          "name": "F#6",
          "midi": 90,
          "time": 37.65100000000047,
          "velocity": 0.47244094488188976,
          "duration": 0.0969999999999942
        },
        {
          "name": "F#6",
          "midi": 90,
          "time": 37.65100000000047,
          "velocity": 0.47244094488188976,
          "duration": 0.0969999999999942
        },
        {
          "name": "D#4",
          "midi": 63,
          "time": 37.68000000000047,
          "velocity": 0.44881889763779526,
          "duration": 0.018000000000000682
        },
        {
          "name": "D#4",
          "midi": 63,
          "time": 37.68000000000047,
          "velocity": 0.44881889763779526,
          "duration": 0.018000000000000682
        },
        {
          "name": "B3",
          "midi": 59,
          "time": 37.71000000000047,
          "velocity": 0.5196850393700787,
          "duration": 0.07699999999999818
        },
        {
          "name": "B3",
          "midi": 59,
          "time": 37.71000000000047,
          "velocity": 0.5196850393700787,
          "duration": 0.07699999999999818
        },
        {
          "name": "A3",
          "midi": 57,
          "time": 37.72000000000047,
          "velocity": 0.5118110236220472,
          "duration": 0.008000000000002672
        },
        {
          "name": "A3",
          "midi": 57,
          "time": 37.72000000000047,
          "velocity": 0.5118110236220472,
          "duration": 0.008000000000002672
        },
        {
          "name": "G#3",
          "midi": 56,
          "time": 37.749000000000464,
          "velocity": 0.5039370078740157,
          "duration": 0.05700000000000216
        },
        {
          "name": "G#3",
          "midi": 56,
          "time": 37.749000000000464,
          "velocity": 0.5039370078740157,
          "duration": 0.05700000000000216
        },
        {
          "name": "E3",
          "midi": 52,
          "time": 37.76900000000047,
          "velocity": 0.44881889763779526,
          "duration": 0.018000000000000682
        },
        {
          "name": "E3",
          "midi": 52,
          "time": 37.76900000000047,
          "velocity": 0.44881889763779526,
          "duration": 0.018000000000000682
        },
        {
          "name": "B2",
          "midi": 47,
          "time": 37.779000000000465,
          "velocity": 0.4566929133858268,
          "duration": 0.008000000000002672
        },
        {
          "name": "B2",
          "midi": 47,
          "time": 37.779000000000465,
          "velocity": 0.4566929133858268,
          "duration": 0.008000000000002672
        },
        {
          "name": "E3",
          "midi": 52,
          "time": 37.79900000000047,
          "velocity": 0.4330708661417323,
          "duration": 0.017999999999993577
        },
        {
          "name": "G2",
          "midi": 43,
          "time": 37.79900000000047,
          "velocity": 0.44881889763779526,
          "duration": 0.007999999999995566
        },
        {
          "name": "C4",
          "midi": 60,
          "time": 37.79900000000047,
          "velocity": 0.44881889763779526,
          "duration": 0.017999999999993577
        },
        {
          "name": "E3",
          "midi": 52,
          "time": 37.79900000000047,
          "velocity": 0.4330708661417323,
          "duration": 0.017999999999993577
        },
        {
          "name": "G2",
          "midi": 43,
          "time": 37.79900000000047,
          "velocity": 0.44881889763779526,
          "duration": 0.007999999999995566
        },
        {
          "name": "C4",
          "midi": 60,
          "time": 37.79900000000047,
          "velocity": 0.44881889763779526,
          "duration": 0.017999999999993577
        },
        {
          "name": "G3",
          "midi": 55,
          "time": 37.81800000000046,
          "velocity": 0.4566929133858268,
          "duration": 0.008000000000002672
        },
        {
          "name": "B4",
          "midi": 71,
          "time": 37.81800000000046,
          "velocity": 0.44881889763779526,
          "duration": 0.07700000000000529
        },
        {
          "name": "G#2",
          "midi": 44,
          "time": 37.81800000000046,
          "velocity": 0.4566929133858268,
          "duration": 0.008000000000002672
        },
        {
          "name": "G3",
          "midi": 55,
          "time": 37.81800000000046,
          "velocity": 0.4566929133858268,
          "duration": 0.008000000000002672
        },
        {
          "name": "B4",
          "midi": 71,
          "time": 37.81800000000046,
          "velocity": 0.44881889763779526,
          "duration": 0.07700000000000529
        },
        {
          "name": "G#2",
          "midi": 44,
          "time": 37.81800000000046,
          "velocity": 0.4566929133858268,
          "duration": 0.008000000000002672
        },
        {
          "name": "B5",
          "midi": 83,
          "time": 37.83800000000046,
          "velocity": 0.4330708661417323,
          "duration": 0.036999999999999034
        },
        {
          "name": "B3",
          "midi": 59,
          "time": 37.83800000000046,
          "velocity": 0.5196850393700787,
          "duration": 0.046999999999997044
        },
        {
          "name": "B5",
          "midi": 83,
          "time": 37.83800000000046,
          "velocity": 0.4330708661417323,
          "duration": 0.036999999999999034
        },
        {
          "name": "B3",
          "midi": 59,
          "time": 37.83800000000046,
          "velocity": 0.5196850393700787,
          "duration": 0.046999999999997044
        },
        {
          "name": "B2",
          "midi": 47,
          "time": 37.84800000000046,
          "velocity": 0.4330708661417323,
          "duration": 0.008000000000002672
        },
        {
          "name": "B2",
          "midi": 47,
          "time": 37.84800000000046,
          "velocity": 0.4330708661417323,
          "duration": 0.008000000000002672
        },
        {
          "name": "G3",
          "midi": 55,
          "time": 37.868000000000464,
          "velocity": 0.4881889763779528,
          "duration": 0.027999999999998693
        },
        {
          "name": "G3",
          "midi": 55,
          "time": 37.868000000000464,
          "velocity": 0.4881889763779528,
          "duration": 0.027999999999998693
        },
        {
          "name": "C#7",
          "midi": 97,
          "time": 37.88700000000046,
          "velocity": 0.4645669291338583,
          "duration": 0.008000000000002672
        },
        {
          "name": "A7",
          "midi": 105,
          "time": 37.88700000000046,
          "velocity": 0.5118110236220472,
          "duration": 0.028000000000005798
        },
        {
          "name": "C#7",
          "midi": 97,
          "time": 37.88700000000046,
          "velocity": 0.4645669291338583,
          "duration": 0.008000000000002672
        },
        {
          "name": "A7",
          "midi": 105,
          "time": 37.88700000000046,
          "velocity": 0.5118110236220472,
          "duration": 0.028000000000005798
        },
        {
          "name": "A2",
          "midi": 45,
          "time": 37.89700000000046,
          "velocity": 0.5984251968503937,
          "duration": 0.008000000000002672
        },
        {
          "name": "C7",
          "midi": 96,
          "time": 37.89700000000046,
          "velocity": 0.4881889763779528,
          "duration": 0.008000000000002672
        },
        {
          "name": "A2",
          "midi": 45,
          "time": 37.89700000000046,
          "velocity": 0.5984251968503937,
          "duration": 0.008000000000002672
        },
        {
          "name": "C7",
          "midi": 96,
          "time": 37.89700000000046,
          "velocity": 0.4881889763779528,
          "duration": 0.008000000000002672
        },
        {
          "name": "G#6",
          "midi": 92,
          "time": 37.907000000000465,
          "velocity": 0.5196850393700787,
          "duration": 0.008000000000002672
        },
        {
          "name": "G4",
          "midi": 67,
          "time": 37.907000000000465,
          "velocity": 0.7007874015748031,
          "duration": 0.23500000000002075
        },
        {
          "name": "G#6",
          "midi": 92,
          "time": 37.907000000000465,
          "velocity": 0.5196850393700787,
          "duration": 0.008000000000002672
        },
        {
          "name": "G4",
          "midi": 67,
          "time": 37.907000000000465,
          "velocity": 0.7007874015748031,
          "duration": 0.23500000000002075
        },
        {
          "name": "F5",
          "midi": 77,
          "time": 37.91700000000047,
          "velocity": 0.5826771653543307,
          "duration": 0.028000000000012903
        },
        {
          "name": "A#2",
          "midi": 46,
          "time": 37.91700000000047,
          "velocity": 0.5984251968503937,
          "duration": 0.008000000000002672
        },
        {
          "name": "F5",
          "midi": 77,
          "time": 37.91700000000047,
          "velocity": 0.5826771653543307,
          "duration": 0.028000000000012903
        },
        {
          "name": "A#2",
          "midi": 46,
          "time": 37.91700000000047,
          "velocity": 0.5984251968503937,
          "duration": 0.008000000000002672
        },
        {
          "name": "D5",
          "midi": 74,
          "time": 37.927000000000476,
          "velocity": 0.5826771653543307,
          "duration": 0.1460000000000079
        },
        {
          "name": "B4",
          "midi": 71,
          "time": 37.927000000000476,
          "velocity": 0.5590551181102362,
          "duration": 0.008000000000002672
        },
        {
          "name": "D5",
          "midi": 74,
          "time": 37.927000000000476,
          "velocity": 0.5826771653543307,
          "duration": 0.1460000000000079
        },
        {
          "name": "B4",
          "midi": 71,
          "time": 37.927000000000476,
          "velocity": 0.5590551181102362,
          "duration": 0.008000000000002672
        },
        {
          "name": "E4",
          "midi": 64,
          "time": 37.93700000000048,
          "velocity": 0.6062992125984252,
          "duration": 0.008000000000002672
        },
        {
          "name": "E4",
          "midi": 64,
          "time": 37.93700000000048,
          "velocity": 0.6062992125984252,
          "duration": 0.008000000000002672
        },
        {
          "name": "B6",
          "midi": 95,
          "time": 37.947000000000486,
          "velocity": 0.5748031496062992,
          "duration": 0.018000000000000682
        },
        {
          "name": "B6",
          "midi": 95,
          "time": 37.947000000000486,
          "velocity": 0.5748031496062992,
          "duration": 0.018000000000000682
        },
        {
          "name": "C#2",
          "midi": 37,
          "time": 37.956000000000486,
          "velocity": 0.5826771653543307,
          "duration": 0.008000000000002672
        },
        {
          "name": "F4",
          "midi": 65,
          "time": 37.956000000000486,
          "velocity": 0.5984251968503937,
          "duration": 0.036999999999999034
        },
        {
          "name": "C#2",
          "midi": 37,
          "time": 37.956000000000486,
          "velocity": 0.5826771653543307,
          "duration": 0.008000000000002672
        },
        {
          "name": "F4",
          "midi": 65,
          "time": 37.956000000000486,
          "velocity": 0.5984251968503937,
          "duration": 0.036999999999999034
        },
        {
          "name": "G5",
          "midi": 79,
          "time": 37.97600000000049,
          "velocity": 0.5590551181102362,
          "duration": 0.11599999999999255
        },
        {
          "name": "G5",
          "midi": 79,
          "time": 37.97600000000049,
          "velocity": 0.5590551181102362,
          "duration": 0.11599999999999255
        },
        {
          "name": "G2",
          "midi": 43,
          "time": 37.98600000000049,
          "velocity": 0.5511811023622047,
          "duration": 0.007999999999995566
        },
        {
          "name": "G2",
          "midi": 43,
          "time": 37.98600000000049,
          "velocity": 0.5511811023622047,
          "duration": 0.007999999999995566
        },
        {
          "name": "B4",
          "midi": 71,
          "time": 37.996000000000485,
          "velocity": 0.5590551181102362,
          "duration": 0.254000000000012
        },
        {
          "name": "B4",
          "midi": 71,
          "time": 37.996000000000485,
          "velocity": 0.5590551181102362,
          "duration": 0.254000000000012
        },
        {
          "name": "G3",
          "midi": 55,
          "time": 38.00600000000048,
          "velocity": 0.5433070866141733,
          "duration": 0.008000000000002672
        },
        {
          "name": "G3",
          "midi": 55,
          "time": 38.00600000000048,
          "velocity": 0.5433070866141733,
          "duration": 0.008000000000002672
        },
        {
          "name": "G#2",
          "midi": 44,
          "time": 38.01600000000049,
          "velocity": 0.5905511811023622,
          "duration": 0.11599999999999966
        },
        {
          "name": "G#2",
          "midi": 44,
          "time": 38.01600000000049,
          "velocity": 0.5905511811023622,
          "duration": 0.11599999999999966
        },
        {
          "name": "F4",
          "midi": 65,
          "time": 38.03500000000049,
          "velocity": 0.5354330708661418,
          "duration": 0.027999999999998693
        },
        {
          "name": "F4",
          "midi": 65,
          "time": 38.03500000000049,
          "velocity": 0.5354330708661418,
          "duration": 0.027999999999998693
        },
        {
          "name": "G3",
          "midi": 55,
          "time": 38.085000000000484,
          "velocity": 0.5196850393700787,
          "duration": 0.10700000000000642
        },
        {
          "name": "G3",
          "midi": 55,
          "time": 38.085000000000484,
          "velocity": 0.5196850393700787,
          "duration": 0.10700000000000642
        },
        {
          "name": "B5",
          "midi": 83,
          "time": 38.09500000000048,
          "velocity": 0.4881889763779528,
          "duration": 0.018000000000000682
        },
        {
          "name": "B5",
          "midi": 83,
          "time": 38.09500000000048,
          "velocity": 0.4881889763779528,
          "duration": 0.018000000000000682
        },
        {
          "name": "F4",
          "midi": 65,
          "time": 38.10400000000048,
          "velocity": 0.5748031496062992,
          "duration": 0.057000000000009265
        },
        {
          "name": "F4",
          "midi": 65,
          "time": 38.10400000000048,
          "velocity": 0.5748031496062992,
          "duration": 0.057000000000009265
        },
        {
          "name": "D#4",
          "midi": 63,
          "time": 38.124000000000485,
          "velocity": 0.5433070866141733,
          "duration": 0.04700000000000415
        },
        {
          "name": "D#4",
          "midi": 63,
          "time": 38.124000000000485,
          "velocity": 0.5433070866141733,
          "duration": 0.04700000000000415
        },
        {
          "name": "D5",
          "midi": 74,
          "time": 38.14400000000049,
          "velocity": 0.5354330708661418,
          "duration": 0.07700000000000529
        },
        {
          "name": "D5",
          "midi": 74,
          "time": 38.14400000000049,
          "velocity": 0.5354330708661418,
          "duration": 0.07700000000000529
        },
        {
          "name": "B2",
          "midi": 47,
          "time": 38.16400000000049,
          "velocity": 0.5354330708661418,
          "duration": 0.007999999999995566
        },
        {
          "name": "B2",
          "midi": 47,
          "time": 38.16400000000049,
          "velocity": 0.5354330708661418,
          "duration": 0.007999999999995566
        },
        {
          "name": "A#2",
          "midi": 46,
          "time": 38.18300000000049,
          "velocity": 0.5669291338582677,
          "duration": 0.0870000000000104
        },
        {
          "name": "G4",
          "midi": 67,
          "time": 38.18300000000049,
          "velocity": 0.5826771653543307,
          "duration": 0.12600000000001899
        },
        {
          "name": "A#2",
          "midi": 46,
          "time": 38.18300000000049,
          "velocity": 0.5669291338582677,
          "duration": 0.0870000000000104
        },
        {
          "name": "G4",
          "midi": 67,
          "time": 38.18300000000049,
          "velocity": 0.5826771653543307,
          "duration": 0.12600000000001899
        },
        {
          "name": "D#4",
          "midi": 63,
          "time": 38.19300000000049,
          "velocity": 0.4881889763779528,
          "duration": 0.008000000000002672
        },
        {
          "name": "D#4",
          "midi": 63,
          "time": 38.19300000000049,
          "velocity": 0.4881889763779528,
          "duration": 0.008000000000002672
        },
        {
          "name": "F4",
          "midi": 65,
          "time": 38.21300000000049,
          "velocity": 0.49606299212598426,
          "duration": 0.008000000000002672
        },
        {
          "name": "G5",
          "midi": 79,
          "time": 38.21300000000049,
          "velocity": 0.48031496062992124,
          "duration": 0.057000000000009265
        },
        {
          "name": "F4",
          "midi": 65,
          "time": 38.21300000000049,
          "velocity": 0.49606299212598426,
          "duration": 0.008000000000002672
        },
        {
          "name": "G5",
          "midi": 79,
          "time": 38.21300000000049,
          "velocity": 0.48031496062992124,
          "duration": 0.057000000000009265
        },
        {
          "name": "G3",
          "midi": 55,
          "time": 38.233000000000494,
          "velocity": 0.5196850393700787,
          "duration": 0.12600000000001899
        },
        {
          "name": "F5",
          "midi": 77,
          "time": 38.233000000000494,
          "velocity": 0.4881889763779528,
          "duration": 0.1360000000000241
        },
        {
          "name": "G3",
          "midi": 55,
          "time": 38.233000000000494,
          "velocity": 0.5196850393700787,
          "duration": 0.12600000000001899
        },
        {
          "name": "F5",
          "midi": 77,
          "time": 38.233000000000494,
          "velocity": 0.4881889763779528,
          "duration": 0.1360000000000241
        },
        {
          "name": "D5",
          "midi": 74,
          "time": 38.2620000000005,
          "velocity": 0.47244094488188976,
          "duration": 0.028000000000005798
        },
        {
          "name": "D5",
          "midi": 74,
          "time": 38.2620000000005,
          "velocity": 0.47244094488188976,
          "duration": 0.028000000000005798
        },
        {
          "name": "B3",
          "midi": 59,
          "time": 38.2820000000005,
          "velocity": 0.4645669291338583,
          "duration": 0.018000000000007788
        },
        {
          "name": "B3",
          "midi": 59,
          "time": 38.2820000000005,
          "velocity": 0.4645669291338583,
          "duration": 0.018000000000007788
        },
        {
          "name": "G#2",
          "midi": 44,
          "time": 38.292000000000506,
          "velocity": 0.5196850393700787,
          "duration": 0.008000000000002672
        },
        {
          "name": "G#2",
          "midi": 44,
          "time": 38.292000000000506,
          "velocity": 0.5196850393700787,
          "duration": 0.008000000000002672
        },
        {
          "name": "D4",
          "midi": 62,
          "time": 38.30200000000051,
          "velocity": 0.4566929133858268,
          "duration": 0.036999999999999034
        },
        {
          "name": "D4",
          "midi": 62,
          "time": 38.30200000000051,
          "velocity": 0.4566929133858268,
          "duration": 0.036999999999999034
        },
        {
          "name": "B4",
          "midi": 71,
          "time": 38.31200000000051,
          "velocity": 0.4566929133858268,
          "duration": 0.057000000000009265
        },
        {
          "name": "B4",
          "midi": 71,
          "time": 38.31200000000051,
          "velocity": 0.4566929133858268,
          "duration": 0.057000000000009265
        },
        {
          "name": "A2",
          "midi": 45,
          "time": 38.32100000000051,
          "velocity": 0.5433070866141733,
          "duration": 0.018000000000000682
        },
        {
          "name": "A2",
          "midi": 45,
          "time": 38.32100000000051,
          "velocity": 0.5433070866141733,
          "duration": 0.018000000000000682
        },
        {
          "name": "F4",
          "midi": 65,
          "time": 38.33100000000051,
          "velocity": 0.49606299212598426,
          "duration": 0.06700000000001438
        },
        {
          "name": "F4",
          "midi": 65,
          "time": 38.33100000000051,
          "velocity": 0.49606299212598426,
          "duration": 0.06700000000001438
        },
        {
          "name": "G#4",
          "midi": 68,
          "time": 38.35100000000051,
          "velocity": 0.4881889763779528,
          "duration": 0.047000000000011255
        },
        {
          "name": "G#4",
          "midi": 68,
          "time": 38.35100000000051,
          "velocity": 0.4881889763779528,
          "duration": 0.047000000000011255
        },
        {
          "name": "F#2",
          "midi": 42,
          "time": 38.361000000000516,
          "velocity": 0.47244094488188976,
          "duration": 0.008000000000002672
        },
        {
          "name": "F#2",
          "midi": 42,
          "time": 38.361000000000516,
          "velocity": 0.47244094488188976,
          "duration": 0.008000000000002672
        },
        {
          "name": "G6",
          "midi": 91,
          "time": 38.38100000000052,
          "velocity": 0.5118110236220472,
          "duration": 0.06700000000002149
        },
        {
          "name": "G5",
          "midi": 79,
          "time": 38.38100000000052,
          "velocity": 0.5354330708661418,
          "duration": 0.047000000000011255
        },
        {
          "name": "G2",
          "midi": 43,
          "time": 38.38100000000052,
          "velocity": 0.4881889763779528,
          "duration": 0.008000000000002672
        },
        {
          "name": "D6",
          "midi": 86,
          "time": 38.38100000000052,
          "velocity": 0.5748031496062992,
          "duration": 0.05700000000001637
        },
        {
          "name": "G6",
          "midi": 91,
          "time": 38.38100000000052,
          "velocity": 0.5118110236220472,
          "duration": 0.06700000000002149
        },
        {
          "name": "G5",
          "midi": 79,
          "time": 38.38100000000052,
          "velocity": 0.5354330708661418,
          "duration": 0.047000000000011255
        },
        {
          "name": "G2",
          "midi": 43,
          "time": 38.38100000000052,
          "velocity": 0.4881889763779528,
          "duration": 0.008000000000002672
        },
        {
          "name": "D6",
          "midi": 86,
          "time": 38.38100000000052,
          "velocity": 0.5748031496062992,
          "duration": 0.05700000000001637
        },
        {
          "name": "A3",
          "midi": 57,
          "time": 38.400000000000524,
          "velocity": 0.7480314960629921,
          "duration": 0.15600000000002723
        },
        {
          "name": "A3",
          "midi": 57,
          "time": 38.400000000000524,
          "velocity": 0.7480314960629921,
          "duration": 0.15600000000002723
        },
        {
          "name": "G4",
          "midi": 67,
          "time": 38.42000000000053,
          "velocity": 0.8661417322834646,
          "duration": 0.06700000000002149
        },
        {
          "name": "G4",
          "midi": 67,
          "time": 38.42000000000053,
          "velocity": 0.8661417322834646,
          "duration": 0.06700000000002149
        },
        {
          "name": "G3",
          "midi": 55,
          "time": 38.43000000000053,
          "velocity": 0.5354330708661418,
          "duration": 0.008000000000002672
        },
        {
          "name": "G3",
          "midi": 55,
          "time": 38.43000000000053,
          "velocity": 0.5354330708661418,
          "duration": 0.008000000000002672
        },
        {
          "name": "D4",
          "midi": 62,
          "time": 38.44000000000054,
          "velocity": 0.48031496062992124,
          "duration": 0.047000000000011255
        },
        {
          "name": "D4",
          "midi": 62,
          "time": 38.44000000000054,
          "velocity": 0.48031496062992124,
          "duration": 0.047000000000011255
        },
        {
          "name": "F#4",
          "midi": 66,
          "time": 38.46000000000054,
          "velocity": 0.5118110236220472,
          "duration": 0.008000000000002672
        },
        {
          "name": "G5",
          "midi": 79,
          "time": 38.46000000000054,
          "velocity": 0.5118110236220472,
          "duration": 0.03700000000000614
        },
        {
          "name": "F#4",
          "midi": 66,
          "time": 38.46000000000054,
          "velocity": 0.5118110236220472,
          "duration": 0.008000000000002672
        },
        {
          "name": "G5",
          "midi": 79,
          "time": 38.46000000000054,
          "velocity": 0.5118110236220472,
          "duration": 0.03700000000000614
        },
        {
          "name": "D2",
          "midi": 38,
          "time": 38.479000000000546,
          "velocity": 0.49606299212598426,
          "duration": 0.03700000000000614
        },
        {
          "name": "D2",
          "midi": 38,
          "time": 38.479000000000546,
          "velocity": 0.49606299212598426,
          "duration": 0.03700000000000614
        },
        {
          "name": "F#4",
          "midi": 66,
          "time": 38.49900000000055,
          "velocity": 0.5118110236220472,
          "duration": 0.008000000000002672
        },
        {
          "name": "G5",
          "midi": 79,
          "time": 38.49900000000055,
          "velocity": 0.4881889763779528,
          "duration": 0.028000000000005798
        },
        {
          "name": "G4",
          "midi": 67,
          "time": 38.49900000000055,
          "velocity": 0.6614173228346457,
          "duration": 0.28400000000003445
        },
        {
          "name": "F#4",
          "midi": 66,
          "time": 38.49900000000055,
          "velocity": 0.5118110236220472,
          "duration": 0.008000000000002672
        },
        {
          "name": "G5",
          "midi": 79,
          "time": 38.49900000000055,
          "velocity": 0.4881889763779528,
          "duration": 0.028000000000005798
        },
        {
          "name": "G4",
          "midi": 67,
          "time": 38.49900000000055,
          "velocity": 0.6614173228346457,
          "duration": 0.28400000000003445
        },
        {
          "name": "G3",
          "midi": 55,
          "time": 38.509000000000555,
          "velocity": 0.6456692913385826,
          "duration": 0.007999999999995566
        },
        {
          "name": "G3",
          "midi": 55,
          "time": 38.509000000000555,
          "velocity": 0.6456692913385826,
          "duration": 0.007999999999995566
        },
        {
          "name": "C#3",
          "midi": 49,
          "time": 38.51900000000055,
          "velocity": 0.49606299212598426,
          "duration": 0.018000000000000682
        },
        {
          "name": "C#3",
          "midi": 49,
          "time": 38.51900000000055,
          "velocity": 0.49606299212598426,
          "duration": 0.018000000000000682
        },
        {
          "name": "E2",
          "midi": 40,
          "time": 38.53800000000055,
          "velocity": 0.4881889763779528,
          "duration": 0.018000000000000682
        },
        {
          "name": "G3",
          "midi": 55,
          "time": 38.53800000000055,
          "velocity": 0.6535433070866141,
          "duration": 0.018000000000000682
        },
        {
          "name": "E2",
          "midi": 40,
          "time": 38.53800000000055,
          "velocity": 0.4881889763779528,
          "duration": 0.018000000000000682
        },
        {
          "name": "G3",
          "midi": 55,
          "time": 38.53800000000055,
          "velocity": 0.6535433070866141,
          "duration": 0.018000000000000682
        },
        {
          "name": "G5",
          "midi": 79,
          "time": 38.54800000000055,
          "velocity": 0.49606299212598426,
          "duration": 0.03700000000000614
        },
        {
          "name": "G5",
          "midi": 79,
          "time": 38.54800000000055,
          "velocity": 0.49606299212598426,
          "duration": 0.03700000000000614
        },
        {
          "name": "D5",
          "midi": 74,
          "time": 38.56800000000055,
          "velocity": 0.48031496062992124,
          "duration": 0.028000000000005798
        },
        {
          "name": "G#3",
          "midi": 56,
          "time": 38.56800000000055,
          "velocity": 0.6456692913385826,
          "duration": 0.03700000000000614
        },
        {
          "name": "D2",
          "midi": 38,
          "time": 38.56800000000055,
          "velocity": 0.5748031496062992,
          "duration": 0.06700000000000728
        },
        {
          "name": "D5",
          "midi": 74,
          "time": 38.56800000000055,
          "velocity": 0.48031496062992124,
          "duration": 0.028000000000005798
        },
        {
          "name": "G#3",
          "midi": 56,
          "time": 38.56800000000055,
          "velocity": 0.6456692913385826,
          "duration": 0.03700000000000614
        },
        {
          "name": "D2",
          "midi": 38,
          "time": 38.56800000000055,
          "velocity": 0.5748031496062992,
          "duration": 0.06700000000000728
        },
        {
          "name": "E3",
          "midi": 52,
          "time": 38.59800000000056,
          "velocity": 0.5118110236220472,
          "duration": 0.036999999999999034
        },
        {
          "name": "E3",
          "midi": 52,
          "time": 38.59800000000056,
          "velocity": 0.5118110236220472,
          "duration": 0.036999999999999034
        },
        {
          "name": "A#4",
          "midi": 70,
          "time": 38.60700000000056,
          "velocity": 0.7559055118110236,
          "duration": 0.12600000000001188
        },
        {
          "name": "A#4",
          "midi": 70,
          "time": 38.60700000000056,
          "velocity": 0.7559055118110236,
          "duration": 0.12600000000001188
        },
        {
          "name": "A#6",
          "midi": 94,
          "time": 38.61700000000056,
          "velocity": 0.5039370078740157,
          "duration": 0.027999999999998693
        },
        {
          "name": "A#6",
          "midi": 94,
          "time": 38.61700000000056,
          "velocity": 0.5039370078740157,
          "duration": 0.027999999999998693
        },
        {
          "name": "F#6",
          "midi": 90,
          "time": 38.62700000000056,
          "velocity": 0.5511811023622047,
          "duration": 0.08700000000001751
        },
        {
          "name": "F#6",
          "midi": 90,
          "time": 38.62700000000056,
          "velocity": 0.5511811023622047,
          "duration": 0.08700000000001751
        },
        {
          "name": "D5",
          "midi": 74,
          "time": 38.64700000000056,
          "velocity": 0.5196850393700787,
          "duration": 0.028000000000005798
        },
        {
          "name": "B3",
          "midi": 59,
          "time": 38.64700000000056,
          "velocity": 0.6692913385826772,
          "duration": 0.06700000000001438
        },
        {
          "name": "D5",
          "midi": 74,
          "time": 38.64700000000056,
          "velocity": 0.5196850393700787,
          "duration": 0.028000000000005798
        },
        {
          "name": "B3",
          "midi": 59,
          "time": 38.64700000000056,
          "velocity": 0.6692913385826772,
          "duration": 0.06700000000001438
        },
        {
          "name": "B6",
          "midi": 95,
          "time": 38.66700000000056,
          "velocity": 0.5984251968503937,
          "duration": 0.03700000000000614
        },
        {
          "name": "B6",
          "midi": 95,
          "time": 38.66700000000056,
          "velocity": 0.5984251968503937,
          "duration": 0.03700000000000614
        },
        {
          "name": "G3",
          "midi": 55,
          "time": 38.68600000000057,
          "velocity": 0.5118110236220472,
          "duration": 0.008000000000002672
        },
        {
          "name": "G3",
          "midi": 55,
          "time": 38.68600000000057,
          "velocity": 0.5118110236220472,
          "duration": 0.008000000000002672
        },
        {
          "name": "G3",
          "midi": 55,
          "time": 38.70600000000057,
          "velocity": 0.5275590551181102,
          "duration": 0.008000000000002672
        },
        {
          "name": "G3",
          "midi": 55,
          "time": 38.70600000000057,
          "velocity": 0.5275590551181102,
          "duration": 0.008000000000002672
        },
        {
          "name": "C5",
          "midi": 72,
          "time": 38.71600000000058,
          "velocity": 0.6299212598425197,
          "duration": 0.03800000000000381
        },
        {
          "name": "C5",
          "midi": 72,
          "time": 38.71600000000058,
          "velocity": 0.6299212598425197,
          "duration": 0.03800000000000381
        },
        {
          "name": "B5",
          "midi": 83,
          "time": 38.726000000000575,
          "velocity": 0.5196850393700787,
          "duration": 0.03700000000000614
        },
        {
          "name": "G#3",
          "midi": 56,
          "time": 38.726000000000575,
          "velocity": 0.5511811023622047,
          "duration": 0.018000000000000682
        },
        {
          "name": "B5",
          "midi": 83,
          "time": 38.726000000000575,
          "velocity": 0.5196850393700787,
          "duration": 0.03700000000000614
        },
        {
          "name": "G#3",
          "midi": 56,
          "time": 38.726000000000575,
          "velocity": 0.5511811023622047,
          "duration": 0.018000000000000682
        },
        {
          "name": "C5",
          "midi": 72,
          "time": 38.74600000000058,
          "velocity": 0.5433070866141733,
          "duration": 0.14600000000002922
        },
        {
          "name": "C6",
          "midi": 84,
          "time": 38.74600000000058,
          "velocity": 0.5354330708661418,
          "duration": 0.057000000000009265
        },
        {
          "name": "C5",
          "midi": 72,
          "time": 38.74600000000058,
          "velocity": 0.5433070866141733,
          "duration": 0.14600000000002922
        },
        {
          "name": "C6",
          "midi": 84,
          "time": 38.74600000000058,
          "velocity": 0.5354330708661418,
          "duration": 0.057000000000009265
        },
        {
          "name": "C4",
          "midi": 60,
          "time": 38.75500000000058,
          "velocity": 0.5984251968503937,
          "duration": 0.018000000000007788
        },
        {
          "name": "C4",
          "midi": 60,
          "time": 38.75500000000058,
          "velocity": 0.5984251968503937,
          "duration": 0.018000000000007788
        },
        {
          "name": "G6",
          "midi": 91,
          "time": 38.76500000000058,
          "velocity": 0.5275590551181102,
          "duration": 0.05800000000001404
        },
        {
          "name": "G6",
          "midi": 91,
          "time": 38.76500000000058,
          "velocity": 0.5275590551181102,
          "duration": 0.05800000000001404
        },
        {
          "name": "B4",
          "midi": 71,
          "time": 38.795000000000584,
          "velocity": 0.5826771653543307,
          "duration": 0.05700000000001637
        },
        {
          "name": "B4",
          "midi": 71,
          "time": 38.795000000000584,
          "velocity": 0.5826771653543307,
          "duration": 0.05700000000001637
        },
        {
          "name": "C4",
          "midi": 60,
          "time": 38.80500000000059,
          "velocity": 0.5433070866141733,
          "duration": 0.047000000000011255
        },
        {
          "name": "A#3",
          "midi": 58,
          "time": 38.80500000000059,
          "velocity": 0.5118110236220472,
          "duration": 0.008000000000002672
        },
        {
          "name": "C4",
          "midi": 60,
          "time": 38.80500000000059,
          "velocity": 0.5433070866141733,
          "duration": 0.047000000000011255
        },
        {
          "name": "A#3",
          "midi": 58,
          "time": 38.80500000000059,
          "velocity": 0.5118110236220472,
          "duration": 0.008000000000002672
        },
        {
          "name": "G6",
          "midi": 91,
          "time": 38.815000000000595,
          "velocity": 0.47244094488188976,
          "duration": 0.027000000000001023
        },
        {
          "name": "G6",
          "midi": 91,
          "time": 38.815000000000595,
          "velocity": 0.47244094488188976,
          "duration": 0.027000000000001023
        },
        {
          "name": "D5",
          "midi": 74,
          "time": 38.824000000000595,
          "velocity": 0.5590551181102362,
          "duration": 0.1460000000000221
        },
        {
          "name": "D5",
          "midi": 74,
          "time": 38.824000000000595,
          "velocity": 0.5590551181102362,
          "duration": 0.1460000000000221
        },
        {
          "name": "G#3",
          "midi": 56,
          "time": 38.8440000000006,
          "velocity": 0.5826771653543307,
          "duration": 0.23500000000002075
        },
        {
          "name": "G#3",
          "midi": 56,
          "time": 38.8440000000006,
          "velocity": 0.5826771653543307,
          "duration": 0.23500000000002075
        },
        {
          "name": "D4",
          "midi": 62,
          "time": 38.8540000000006,
          "velocity": 0.5826771653543307,
          "duration": 0.11600000000001387
        },
        {
          "name": "D4",
          "midi": 62,
          "time": 38.8540000000006,
          "velocity": 0.5826771653543307,
          "duration": 0.11600000000001387
        },
        {
          "name": "G#2",
          "midi": 44,
          "time": 38.874000000000606,
          "velocity": 0.8582677165354331,
          "duration": 0.04700000000000415
        },
        {
          "name": "B4",
          "midi": 71,
          "time": 38.874000000000606,
          "velocity": 0.5039370078740157,
          "duration": 0.008000000000002672
        },
        {
          "name": "G#2",
          "midi": 44,
          "time": 38.874000000000606,
          "velocity": 0.8582677165354331,
          "duration": 0.04700000000000415
        },
        {
          "name": "B4",
          "midi": 71,
          "time": 38.874000000000606,
          "velocity": 0.5039370078740157,
          "duration": 0.008000000000002672
        },
        {
          "name": "A6",
          "midi": 93,
          "time": 38.89400000000061,
          "velocity": 0.47244094488188976,
          "duration": 0.018000000000000682
        },
        {
          "name": "A6",
          "midi": 93,
          "time": 38.89400000000061,
          "velocity": 0.47244094488188976,
          "duration": 0.018000000000000682
        },
        {
          "name": "G4",
          "midi": 67,
          "time": 38.92300000000061,
          "velocity": 0.6692913385826772,
          "duration": 0.7480000000000686
        },
        {
          "name": "G4",
          "midi": 67,
          "time": 38.92300000000061,
          "velocity": 0.6692913385826772,
          "duration": 0.7480000000000686
        },
        {
          "name": "A2",
          "midi": 45,
          "time": 38.943000000000616,
          "velocity": 0.8031496062992126,
          "duration": 0.09700000000000131
        },
        {
          "name": "A2",
          "midi": 45,
          "time": 38.943000000000616,
          "velocity": 0.8031496062992126,
          "duration": 0.09700000000000131
        },
        {
          "name": "B4",
          "midi": 71,
          "time": 38.96300000000062,
          "velocity": 0.48031496062992124,
          "duration": 0.027999999999998693
        },
        {
          "name": "B4",
          "midi": 71,
          "time": 38.96300000000062,
          "velocity": 0.48031496062992124,
          "duration": 0.027999999999998693
        },
        {
          "name": "C4",
          "midi": 60,
          "time": 38.98200000000062,
          "velocity": 0.5196850393700787,
          "duration": 0.0870000000000033
        },
        {
          "name": "C5",
          "midi": 72,
          "time": 38.98200000000062,
          "velocity": 0.7244094488188977,
          "duration": 0.12600000000000477
        },
        {
          "name": "C4",
          "midi": 60,
          "time": 38.98200000000062,
          "velocity": 0.5196850393700787,
          "duration": 0.0870000000000033
        },
        {
          "name": "C5",
          "midi": 72,
          "time": 38.98200000000062,
          "velocity": 0.7244094488188977,
          "duration": 0.12600000000000477
        },
        {
          "name": "C7",
          "midi": 96,
          "time": 39.00200000000062,
          "velocity": 0.49606299212598426,
          "duration": 0.036999999999999034
        },
        {
          "name": "C7",
          "midi": 96,
          "time": 39.00200000000062,
          "velocity": 0.49606299212598426,
          "duration": 0.036999999999999034
        },
        {
          "name": "D5",
          "midi": 74,
          "time": 39.05100000000062,
          "velocity": 0.5039370078740157,
          "duration": 0.07700000000000529
        },
        {
          "name": "D5",
          "midi": 74,
          "time": 39.05100000000062,
          "velocity": 0.5039370078740157,
          "duration": 0.07700000000000529
        },
        {
          "name": "B2",
          "midi": 47,
          "time": 39.06100000000062,
          "velocity": 0.48031496062992124,
          "duration": 0.008000000000002672
        },
        {
          "name": "B2",
          "midi": 47,
          "time": 39.06100000000062,
          "velocity": 0.48031496062992124,
          "duration": 0.008000000000002672
        },
        {
          "name": "B4",
          "midi": 71,
          "time": 39.08100000000062,
          "velocity": 0.6850393700787402,
          "duration": 0.21500000000002473
        },
        {
          "name": "B4",
          "midi": 71,
          "time": 39.08100000000062,
          "velocity": 0.6850393700787402,
          "duration": 0.21500000000002473
        },
        {
          "name": "A2",
          "midi": 45,
          "time": 39.101000000000624,
          "velocity": 0.6299212598425197,
          "duration": 0.06700000000000728
        },
        {
          "name": "F4",
          "midi": 65,
          "time": 39.101000000000624,
          "velocity": 0.5433070866141733,
          "duration": 0.04700000000000415
        },
        {
          "name": "A2",
          "midi": 45,
          "time": 39.101000000000624,
          "velocity": 0.6299212598425197,
          "duration": 0.06700000000000728
        },
        {
          "name": "F4",
          "midi": 65,
          "time": 39.101000000000624,
          "velocity": 0.5433070866141733,
          "duration": 0.04700000000000415
        },
        {
          "name": "F3",
          "midi": 53,
          "time": 39.13000000000063,
          "velocity": 0.5433070866141733,
          "duration": 0.05700000000000216
        },
        {
          "name": "F3",
          "midi": 53,
          "time": 39.13000000000063,
          "velocity": 0.5433070866141733,
          "duration": 0.05700000000000216
        },
        {
          "name": "D4",
          "midi": 62,
          "time": 39.15000000000063,
          "velocity": 0.5039370078740157,
          "duration": 0.018000000000000682
        },
        {
          "name": "D4",
          "midi": 62,
          "time": 39.15000000000063,
          "velocity": 0.5039370078740157,
          "duration": 0.018000000000000682
        },
        {
          "name": "F4",
          "midi": 65,
          "time": 39.170000000000634,
          "velocity": 0.5039370078740157,
          "duration": 0.036999999999999034
        },
        {
          "name": "F4",
          "midi": 65,
          "time": 39.170000000000634,
          "velocity": 0.5039370078740157,
          "duration": 0.036999999999999034
        },
        {
          "name": "B3",
          "midi": 59,
          "time": 39.18000000000063,
          "velocity": 0.5039370078740157,
          "duration": 0.018000000000000682
        },
        {
          "name": "B3",
          "midi": 59,
          "time": 39.18000000000063,
          "velocity": 0.5039370078740157,
          "duration": 0.018000000000000682
        },
        {
          "name": "C5",
          "midi": 72,
          "time": 39.18900000000063,
          "velocity": 0.5826771653543307,
          "duration": 0.028000000000005798
        },
        {
          "name": "C5",
          "midi": 72,
          "time": 39.18900000000063,
          "velocity": 0.5826771653543307,
          "duration": 0.028000000000005798
        },
        {
          "name": "A4",
          "midi": 69,
          "time": 39.19900000000063,
          "velocity": 0.7795275590551181,
          "duration": 0.1460000000000221
        },
        {
          "name": "A4",
          "midi": 69,
          "time": 39.19900000000063,
          "velocity": 0.7795275590551181,
          "duration": 0.1460000000000221
        },
        {
          "name": "F3",
          "midi": 53,
          "time": 39.209000000000636,
          "velocity": 0.5275590551181102,
          "duration": 0.04700000000000415
        },
        {
          "name": "F3",
          "midi": 53,
          "time": 39.209000000000636,
          "velocity": 0.5275590551181102,
          "duration": 0.04700000000000415
        },
        {
          "name": "G#3",
          "midi": 56,
          "time": 39.22900000000064,
          "velocity": 0.5748031496062992,
          "duration": 0.04700000000000415
        },
        {
          "name": "G#3",
          "midi": 56,
          "time": 39.22900000000064,
          "velocity": 0.5748031496062992,
          "duration": 0.04700000000000415
        },
        {
          "name": "A5",
          "midi": 81,
          "time": 39.23900000000064,
          "velocity": 0.5669291338582677,
          "duration": 0.09700000000001552
        },
        {
          "name": "A5",
          "midi": 81,
          "time": 39.23900000000064,
          "velocity": 0.5669291338582677,
          "duration": 0.09700000000001552
        },
        {
          "name": "F4",
          "midi": 65,
          "time": 39.26800000000064,
          "velocity": 0.5275590551181102,
          "duration": 0.028000000000005798
        },
        {
          "name": "F4",
          "midi": 65,
          "time": 39.26800000000064,
          "velocity": 0.5275590551181102,
          "duration": 0.028000000000005798
        },
        {
          "name": "B2",
          "midi": 47,
          "time": 39.308000000000646,
          "velocity": 0.8661417322834646,
          "duration": 0.057000000000009265
        },
        {
          "name": "C4",
          "midi": 60,
          "time": 39.308000000000646,
          "velocity": 0.5433070866141733,
          "duration": 0.018000000000000682
        },
        {
          "name": "B2",
          "midi": 47,
          "time": 39.308000000000646,
          "velocity": 0.8661417322834646,
          "duration": 0.057000000000009265
        },
        {
          "name": "C4",
          "midi": 60,
          "time": 39.308000000000646,
          "velocity": 0.5433070866141733,
          "duration": 0.018000000000000682
        },
        {
          "name": "D6",
          "midi": 86,
          "time": 39.32800000000065,
          "velocity": 0.5275590551181102,
          "duration": 0.07700000000000529
        },
        {
          "name": "D6",
          "midi": 86,
          "time": 39.32800000000065,
          "velocity": 0.5275590551181102,
          "duration": 0.07700000000000529
        },
        {
          "name": "G5",
          "midi": 79,
          "time": 39.33700000000065,
          "velocity": 0.5039370078740157,
          "duration": 0.13600000000000279
        },
        {
          "name": "G5",
          "midi": 79,
          "time": 39.33700000000065,
          "velocity": 0.5039370078740157,
          "duration": 0.13600000000000279
        },
        {
          "name": "G3",
          "midi": 55,
          "time": 39.347000000000655,
          "velocity": 0.5984251968503937,
          "duration": 0.47100000000002495
        },
        {
          "name": "G3",
          "midi": 55,
          "time": 39.347000000000655,
          "velocity": 0.5984251968503937,
          "duration": 0.47100000000002495
        },
        {
          "name": "C#3",
          "midi": 49,
          "time": 39.377000000000656,
          "velocity": 0.7716535433070866,
          "duration": 0.018000000000000682
        },
        {
          "name": "C#3",
          "midi": 49,
          "time": 39.377000000000656,
          "velocity": 0.7716535433070866,
          "duration": 0.018000000000000682
        },
        {
          "name": "C3",
          "midi": 48,
          "time": 39.40600000000065,
          "velocity": 0.7795275590551181,
          "duration": 0.008000000000002672
        },
        {
          "name": "C2",
          "midi": 36,
          "time": 39.40600000000065,
          "velocity": 0.48031496062992124,
          "duration": 0.008000000000002672
        },
        {
          "name": "C3",
          "midi": 48,
          "time": 39.40600000000065,
          "velocity": 0.7795275590551181,
          "duration": 0.008000000000002672
        },
        {
          "name": "C2",
          "midi": 36,
          "time": 39.40600000000065,
          "velocity": 0.48031496062992124,
          "duration": 0.008000000000002672
        },
        {
          "name": "A#2",
          "midi": 46,
          "time": 39.436000000000654,
          "velocity": 0.5748031496062992,
          "duration": 0.008000000000002672
        },
        {
          "name": "C#3",
          "midi": 49,
          "time": 39.436000000000654,
          "velocity": 0.5905511811023622,
          "duration": 0.008000000000002672
        },
        {
          "name": "C#2",
          "midi": 37,
          "time": 39.436000000000654,
          "velocity": 0.5039370078740157,
          "duration": 0.05700000000000216
        },
        {
          "name": "A#2",
          "midi": 46,
          "time": 39.436000000000654,
          "velocity": 0.5748031496062992,
          "duration": 0.008000000000002672
        },
        {
          "name": "C#3",
          "midi": 49,
          "time": 39.436000000000654,
          "velocity": 0.5905511811023622,
          "duration": 0.008000000000002672
        },
        {
          "name": "C#2",
          "midi": 37,
          "time": 39.436000000000654,
          "velocity": 0.5039370078740157,
          "duration": 0.05700000000000216
        },
        {
          "name": "B2",
          "midi": 47,
          "time": 39.45600000000066,
          "velocity": 0.5748031496062992,
          "duration": 0.04700000000000415
        },
        {
          "name": "B2",
          "midi": 47,
          "time": 39.45600000000066,
          "velocity": 0.5748031496062992,
          "duration": 0.04700000000000415
        },
        {
          "name": "D6",
          "midi": 86,
          "time": 39.466000000000655,
          "velocity": 0.4645669291338583,
          "duration": 0.018000000000000682
        },
        {
          "name": "D6",
          "midi": 86,
          "time": 39.466000000000655,
          "velocity": 0.4645669291338583,
          "duration": 0.018000000000000682
        },
        {
          "name": "G5",
          "midi": 79,
          "time": 39.48500000000065,
          "velocity": 0.5354330708661418,
          "duration": 0.08700000000001751
        },
        {
          "name": "G5",
          "midi": 79,
          "time": 39.48500000000065,
          "velocity": 0.5354330708661418,
          "duration": 0.08700000000001751
        },
        {
          "name": "D#4",
          "midi": 63,
          "time": 39.49500000000066,
          "velocity": 0.47244094488188976,
          "duration": 0.008000000000002672
        },
        {
          "name": "D#4",
          "midi": 63,
          "time": 39.49500000000066,
          "velocity": 0.47244094488188976,
          "duration": 0.008000000000002672
        },
        {
          "name": "C5",
          "midi": 72,
          "time": 39.50500000000066,
          "velocity": 0.5275590551181102,
          "duration": 0.05700000000000216
        },
        {
          "name": "C5",
          "midi": 72,
          "time": 39.50500000000066,
          "velocity": 0.5275590551181102,
          "duration": 0.05700000000000216
        },
        {
          "name": "C3",
          "midi": 48,
          "time": 39.51500000000066,
          "velocity": 0.49606299212598426,
          "duration": 0.018000000000000682
        },
        {
          "name": "C#4",
          "midi": 61,
          "time": 39.51500000000066,
          "velocity": 0.5433070866141733,
          "duration": 0.027999999999998693
        },
        {
          "name": "C3",
          "midi": 48,
          "time": 39.51500000000066,
          "velocity": 0.49606299212598426,
          "duration": 0.018000000000000682
        },
        {
          "name": "C#4",
          "midi": 61,
          "time": 39.51500000000066,
          "velocity": 0.5433070866141733,
          "duration": 0.027999999999998693
        },
        {
          "name": "B2",
          "midi": 47,
          "time": 39.54500000000066,
          "velocity": 0.5433070866141733,
          "duration": 0.037000000000013245
        },
        {
          "name": "B2",
          "midi": 47,
          "time": 39.54500000000066,
          "velocity": 0.5433070866141733,
          "duration": 0.037000000000013245
        },
        {
          "name": "E4",
          "midi": 64,
          "time": 39.56400000000067,
          "velocity": 0.7165354330708661,
          "duration": 0.23500000000001364
        },
        {
          "name": "E4",
          "midi": 64,
          "time": 39.56400000000067,
          "velocity": 0.7165354330708661,
          "duration": 0.23500000000001364
        },
        {
          "name": "D6",
          "midi": 86,
          "time": 39.57400000000067,
          "velocity": 0.5748031496062992,
          "duration": 0.07700000000000529
        },
        {
          "name": "D6",
          "midi": 86,
          "time": 39.57400000000067,
          "velocity": 0.5748031496062992,
          "duration": 0.07700000000000529
        },
        {
          "name": "C4",
          "midi": 60,
          "time": 39.58400000000068,
          "velocity": 0.5748031496062992,
          "duration": 0.12600000000000477
        },
        {
          "name": "C4",
          "midi": 60,
          "time": 39.58400000000068,
          "velocity": 0.5748031496062992,
          "duration": 0.12600000000000477
        },
        {
          "name": "G5",
          "midi": 79,
          "time": 39.62300000000068,
          "velocity": 0.5275590551181102,
          "duration": 0.05700000000000216
        },
        {
          "name": "G5",
          "midi": 79,
          "time": 39.62300000000068,
          "velocity": 0.5275590551181102,
          "duration": 0.05700000000000216
        },
        {
          "name": "B4",
          "midi": 71,
          "time": 39.66300000000068,
          "velocity": 0.5511811023622047,
          "duration": 0.0870000000000033
        },
        {
          "name": "B4",
          "midi": 71,
          "time": 39.66300000000068,
          "velocity": 0.5511811023622047,
          "duration": 0.0870000000000033
        },
        {
          "name": "B5",
          "midi": 83,
          "time": 39.68300000000068,
          "velocity": 0.49606299212598426,
          "duration": 0.036999999999999034
        },
        {
          "name": "B5",
          "midi": 83,
          "time": 39.68300000000068,
          "velocity": 0.49606299212598426,
          "duration": 0.036999999999999034
        },
        {
          "name": "E6",
          "midi": 88,
          "time": 39.69300000000068,
          "velocity": 0.5039370078740157,
          "duration": 0.027999999999998693
        },
        {
          "name": "E6",
          "midi": 88,
          "time": 39.69300000000068,
          "velocity": 0.5039370078740157,
          "duration": 0.027999999999998693
        },
        {
          "name": "G4",
          "midi": 67,
          "time": 39.722000000000676,
          "velocity": 0.5275590551181102,
          "duration": 0.008000000000002672
        },
        {
          "name": "G4",
          "midi": 67,
          "time": 39.722000000000676,
          "velocity": 0.5275590551181102,
          "duration": 0.008000000000002672
        },
        {
          "name": "G5",
          "midi": 79,
          "time": 39.73200000000068,
          "velocity": 0.5354330708661418,
          "duration": 0.036999999999999034
        },
        {
          "name": "G5",
          "midi": 79,
          "time": 39.73200000000068,
          "velocity": 0.5354330708661418,
          "duration": 0.036999999999999034
        },
        {
          "name": "G4",
          "midi": 67,
          "time": 39.74200000000068,
          "velocity": 0.6929133858267716,
          "duration": 0.11599999999999966
        },
        {
          "name": "G4",
          "midi": 67,
          "time": 39.74200000000068,
          "velocity": 0.6929133858267716,
          "duration": 0.11599999999999966
        },
        {
          "name": "D6",
          "midi": 86,
          "time": 39.76200000000068,
          "velocity": 0.5433070866141733,
          "duration": 0.018000000000000682
        },
        {
          "name": "D6",
          "midi": 86,
          "time": 39.76200000000068,
          "velocity": 0.5433070866141733,
          "duration": 0.018000000000000682
        },
        {
          "name": "D4",
          "midi": 62,
          "time": 39.78100000000068,
          "velocity": 0.5511811023622047,
          "duration": 0.06700000000000017
        },
        {
          "name": "D4",
          "midi": 62,
          "time": 39.78100000000068,
          "velocity": 0.5511811023622047,
          "duration": 0.06700000000000017
        },
        {
          "name": "G2",
          "midi": 43,
          "time": 39.79100000000068,
          "velocity": 0.6692913385826772,
          "duration": 0.018000000000000682
        },
        {
          "name": "G2",
          "midi": 43,
          "time": 39.79100000000068,
          "velocity": 0.6692913385826772,
          "duration": 0.018000000000000682
        },
        {
          "name": "C#2",
          "midi": 37,
          "time": 39.81100000000068,
          "velocity": 0.4645669291338583,
          "duration": 0.007999999999995566
        },
        {
          "name": "G6",
          "midi": 91,
          "time": 39.81100000000068,
          "velocity": 0.47244094488188976,
          "duration": 0.007999999999995566
        },
        {
          "name": "C#2",
          "midi": 37,
          "time": 39.81100000000068,
          "velocity": 0.4645669291338583,
          "duration": 0.007999999999995566
        },
        {
          "name": "G6",
          "midi": 91,
          "time": 39.81100000000068,
          "velocity": 0.47244094488188976,
          "duration": 0.007999999999995566
        },
        {
          "name": "G2",
          "midi": 43,
          "time": 39.82100000000068,
          "velocity": 0.7874015748031497,
          "duration": 0.10699999999999932
        },
        {
          "name": "G2",
          "midi": 43,
          "time": 39.82100000000068,
          "velocity": 0.7874015748031497,
          "duration": 0.10699999999999932
        },
        {
          "name": "G5",
          "midi": 79,
          "time": 39.83100000000068,
          "velocity": 0.4881889763779528,
          "duration": 0.04700000000000415
        },
        {
          "name": "G5",
          "midi": 79,
          "time": 39.83100000000068,
          "velocity": 0.4881889763779528,
          "duration": 0.04700000000000415
        },
        {
          "name": "G4",
          "midi": 67,
          "time": 39.84000000000068,
          "velocity": 0.5196850393700787,
          "duration": 1.3600000000001558
        },
        {
          "name": "G3",
          "midi": 55,
          "time": 39.84000000000068,
          "velocity": 0.6141732283464567,
          "duration": 0.3140000000000214
        },
        {
          "name": "G4",
          "midi": 67,
          "time": 39.84000000000068,
          "velocity": 0.5196850393700787,
          "duration": 1.3600000000001558
        },
        {
          "name": "G3",
          "midi": 55,
          "time": 39.84000000000068,
          "velocity": 0.6141732283464567,
          "duration": 0.3140000000000214
        },
        {
          "name": "D#4",
          "midi": 63,
          "time": 39.87000000000068,
          "velocity": 0.4566929133858268,
          "duration": 0.008000000000002672
        },
        {
          "name": "D#4",
          "midi": 63,
          "time": 39.87000000000068,
          "velocity": 0.4566929133858268,
          "duration": 0.008000000000002672
        },
        {
          "name": "E4",
          "midi": 64,
          "time": 39.89000000000068,
          "velocity": 0.5118110236220472,
          "duration": 0.07700000000000529
        },
        {
          "name": "E4",
          "midi": 64,
          "time": 39.89000000000068,
          "velocity": 0.5118110236220472,
          "duration": 0.07700000000000529
        },
        {
          "name": "D#4",
          "midi": 63,
          "time": 39.90000000000068,
          "velocity": 0.49606299212598426,
          "duration": 0.05700000000000216
        },
        {
          "name": "E5",
          "midi": 76,
          "time": 39.90000000000068,
          "velocity": 0.44881889763779526,
          "duration": 0.018000000000000682
        },
        {
          "name": "D#4",
          "midi": 63,
          "time": 39.90000000000068,
          "velocity": 0.49606299212598426,
          "duration": 0.05700000000000216
        },
        {
          "name": "E5",
          "midi": 76,
          "time": 39.90000000000068,
          "velocity": 0.44881889763779526,
          "duration": 0.018000000000000682
        },
        {
          "name": "D5",
          "midi": 74,
          "time": 39.93900000000068,
          "velocity": 0.47244094488188976,
          "duration": 0.008000000000002672
        },
        {
          "name": "D5",
          "midi": 74,
          "time": 39.93900000000068,
          "velocity": 0.47244094488188976,
          "duration": 0.008000000000002672
        },
        {
          "name": "C4",
          "midi": 60,
          "time": 39.959000000000685,
          "velocity": 0.6535433070866141,
          "duration": 0.15600000000001302
        },
        {
          "name": "C4",
          "midi": 60,
          "time": 39.959000000000685,
          "velocity": 0.6535433070866141,
          "duration": 0.15600000000001302
        },
        {
          "name": "D5",
          "midi": 74,
          "time": 39.96900000000069,
          "velocity": 0.4881889763779528,
          "duration": 0.008000000000002672
        },
        {
          "name": "C5",
          "midi": 72,
          "time": 39.96900000000069,
          "velocity": 0.5905511811023622,
          "duration": 0.10699999999999932
        },
        {
          "name": "D5",
          "midi": 74,
          "time": 39.96900000000069,
          "velocity": 0.4881889763779528,
          "duration": 0.008000000000002672
        },
        {
          "name": "C5",
          "midi": 72,
          "time": 39.96900000000069,
          "velocity": 0.5905511811023622,
          "duration": 0.10699999999999932
        },
        {
          "name": "G5",
          "midi": 79,
          "time": 39.979000000000696,
          "velocity": 0.5196850393700787,
          "duration": 0.018000000000000682
        },
        {
          "name": "G5",
          "midi": 79,
          "time": 39.979000000000696,
          "velocity": 0.5196850393700787,
          "duration": 0.018000000000000682
        },
        {
          "name": "D6",
          "midi": 86,
          "time": 39.998000000000694,
          "velocity": 0.5669291338582677,
          "duration": 0.09700000000000131
        },
        {
          "name": "D6",
          "midi": 86,
          "time": 39.998000000000694,
          "velocity": 0.5669291338582677,
          "duration": 0.09700000000000131
        },
        {
          "name": "E4",
          "midi": 64,
          "time": 40.00800000000069,
          "velocity": 0.7322834645669292,
          "duration": 0.22500000000002274
        },
        {
          "name": "E4",
          "midi": 64,
          "time": 40.00800000000069,
          "velocity": 0.7322834645669292,
          "duration": 0.22500000000002274
        },
        {
          "name": "G5",
          "midi": 79,
          "time": 40.08700000000069,
          "velocity": 0.5590551181102362,
          "duration": 0.028000000000005798
        },
        {
          "name": "G5",
          "midi": 79,
          "time": 40.08700000000069,
          "velocity": 0.5590551181102362,
          "duration": 0.028000000000005798
        },
        {
          "name": "B4",
          "midi": 71,
          "time": 40.107000000000696,
          "velocity": 0.5196850393700787,
          "duration": 0.0870000000000104
        },
        {
          "name": "B4",
          "midi": 71,
          "time": 40.107000000000696,
          "velocity": 0.5196850393700787,
          "duration": 0.0870000000000104
        },
        {
          "name": "E6",
          "midi": 88,
          "time": 40.1270000000007,
          "velocity": 0.5196850393700787,
          "duration": 0.018000000000000682
        },
        {
          "name": "B5",
          "midi": 83,
          "time": 40.1270000000007,
          "velocity": 0.5118110236220472,
          "duration": 0.036999999999999034
        },
        {
          "name": "E6",
          "midi": 88,
          "time": 40.1270000000007,
          "velocity": 0.5196850393700787,
          "duration": 0.018000000000000682
        },
        {
          "name": "B5",
          "midi": 83,
          "time": 40.1270000000007,
          "velocity": 0.5118110236220472,
          "duration": 0.036999999999999034
        },
        {
          "name": "E5",
          "midi": 76,
          "time": 40.1660000000007,
          "velocity": 0.48031496062992124,
          "duration": 0.008000000000002672
        },
        {
          "name": "E5",
          "midi": 76,
          "time": 40.1660000000007,
          "velocity": 0.48031496062992124,
          "duration": 0.008000000000002672
        },
        {
          "name": "G5",
          "midi": 79,
          "time": 40.176000000000705,
          "velocity": 0.48031496062992124,
          "duration": 0.018000000000000682
        },
        {
          "name": "G5",
          "midi": 79,
          "time": 40.176000000000705,
          "velocity": 0.48031496062992124,
          "duration": 0.018000000000000682
        },
        {
          "name": "D6",
          "midi": 86,
          "time": 40.1860000000007,
          "velocity": 0.5275590551181102,
          "duration": 0.05700000000001637
        },
        {
          "name": "D6",
          "midi": 86,
          "time": 40.1860000000007,
          "velocity": 0.5275590551181102,
          "duration": 0.05700000000001637
        },
        {
          "name": "G3",
          "midi": 55,
          "time": 40.19600000000071,
          "velocity": 0.6456692913385826,
          "duration": 0.27400000000003644
        },
        {
          "name": "G3",
          "midi": 55,
          "time": 40.19600000000071,
          "velocity": 0.6456692913385826,
          "duration": 0.27400000000003644
        },
        {
          "name": "A6",
          "midi": 93,
          "time": 40.20500000000071,
          "velocity": 0.5039370078740157,
          "duration": 0.008000000000002672
        },
        {
          "name": "A6",
          "midi": 93,
          "time": 40.20500000000071,
          "velocity": 0.5039370078740157,
          "duration": 0.008000000000002672
        },
        {
          "name": "C3",
          "midi": 48,
          "time": 40.215000000000714,
          "velocity": 0.6062992125984252,
          "duration": 0.008000000000002672
        },
        {
          "name": "C3",
          "midi": 48,
          "time": 40.215000000000714,
          "velocity": 0.6062992125984252,
          "duration": 0.008000000000002672
        },
        {
          "name": "B2",
          "midi": 47,
          "time": 40.23500000000072,
          "velocity": 0.6220472440944882,
          "duration": 0.028000000000005798
        },
        {
          "name": "G6",
          "midi": 91,
          "time": 40.23500000000072,
          "velocity": 0.5118110236220472,
          "duration": 0.028000000000005798
        },
        {
          "name": "B2",
          "midi": 47,
          "time": 40.23500000000072,
          "velocity": 0.6220472440944882,
          "duration": 0.028000000000005798
        },
        {
          "name": "G6",
          "midi": 91,
          "time": 40.23500000000072,
          "velocity": 0.5118110236220472,
          "duration": 0.028000000000005798
        },
        {
          "name": "D#3",
          "midi": 51,
          "time": 40.24500000000072,
          "velocity": 0.6850393700787402,
          "duration": 0.16600000000001813
        },
        {
          "name": "D#3",
          "midi": 51,
          "time": 40.24500000000072,
          "velocity": 0.6850393700787402,
          "duration": 0.16600000000001813
        },
        {
          "name": "C4",
          "midi": 60,
          "time": 40.25500000000072,
          "velocity": 0.5118110236220472,
          "duration": 0.04700000000000415
        },
        {
          "name": "C4",
          "midi": 60,
          "time": 40.25500000000072,
          "velocity": 0.5118110236220472,
          "duration": 0.04700000000000415
        },
        {
          "name": "A2",
          "midi": 45,
          "time": 40.30400000000073,
          "velocity": 0.5039370078740157,
          "duration": 0.008000000000002672
        },
        {
          "name": "E4",
          "midi": 64,
          "time": 40.30400000000073,
          "velocity": 0.5433070866141733,
          "duration": 0.1950000000000216
        },
        {
          "name": "A2",
          "midi": 45,
          "time": 40.30400000000073,
          "velocity": 0.5039370078740157,
          "duration": 0.008000000000002672
        },
        {
          "name": "E4",
          "midi": 64,
          "time": 40.30400000000073,
          "velocity": 0.5433070866141733,
          "duration": 0.1950000000000216
        },
        {
          "name": "D4",
          "midi": 62,
          "time": 40.31400000000073,
          "velocity": 0.49606299212598426,
          "duration": 0.018000000000000682
        },
        {
          "name": "D4",
          "midi": 62,
          "time": 40.31400000000073,
          "velocity": 0.49606299212598426,
          "duration": 0.018000000000000682
        },
        {
          "name": "B2",
          "midi": 47,
          "time": 40.32400000000073,
          "velocity": 0.49606299212598426,
          "duration": 0.008000000000002672
        },
        {
          "name": "B2",
          "midi": 47,
          "time": 40.32400000000073,
          "velocity": 0.49606299212598426,
          "duration": 0.008000000000002672
        },
        {
          "name": "G5",
          "midi": 79,
          "time": 40.34400000000073,
          "velocity": 0.4645669291338583,
          "duration": 0.04700000000000415
        },
        {
          "name": "G5",
          "midi": 79,
          "time": 40.34400000000073,
          "velocity": 0.4645669291338583,
          "duration": 0.04700000000000415
        },
        {
          "name": "D4",
          "midi": 62,
          "time": 40.35300000000073,
          "velocity": 0.47244094488188976,
          "duration": 0.008000000000002672
        },
        {
          "name": "D4",
          "midi": 62,
          "time": 40.35300000000073,
          "velocity": 0.47244094488188976,
          "duration": 0.008000000000002672
        },
        {
          "name": "D5",
          "midi": 74,
          "time": 40.37300000000074,
          "velocity": 0.4566929133858268,
          "duration": 0.008000000000002672
        },
        {
          "name": "D5",
          "midi": 74,
          "time": 40.37300000000074,
          "velocity": 0.4566929133858268,
          "duration": 0.008000000000002672
        },
        {
          "name": "B4",
          "midi": 71,
          "time": 40.40300000000074,
          "velocity": 0.5196850393700787,
          "duration": 0.057000000000009265
        },
        {
          "name": "B4",
          "midi": 71,
          "time": 40.40300000000074,
          "velocity": 0.5196850393700787,
          "duration": 0.057000000000009265
        },
        {
          "name": "D5",
          "midi": 74,
          "time": 40.42200000000074,
          "velocity": 0.5354330708661418,
          "duration": 0.04700000000000415
        },
        {
          "name": "D5",
          "midi": 74,
          "time": 40.42200000000074,
          "velocity": 0.5354330708661418,
          "duration": 0.04700000000000415
        },
        {
          "name": "G5",
          "midi": 79,
          "time": 40.43200000000074,
          "velocity": 0.5196850393700787,
          "duration": 0.008000000000002672
        },
        {
          "name": "G5",
          "midi": 79,
          "time": 40.43200000000074,
          "velocity": 0.5196850393700787,
          "duration": 0.008000000000002672
        },
        {
          "name": "D6",
          "midi": 86,
          "time": 40.452000000000744,
          "velocity": 0.5354330708661418,
          "duration": 0.07700000000001239
        },
        {
          "name": "D6",
          "midi": 86,
          "time": 40.452000000000744,
          "velocity": 0.5354330708661418,
          "duration": 0.07700000000001239
        },
        {
          "name": "G5",
          "midi": 79,
          "time": 40.47200000000075,
          "velocity": 0.4881889763779528,
          "duration": 0.04700000000000415
        },
        {
          "name": "G5",
          "midi": 79,
          "time": 40.47200000000075,
          "velocity": 0.4881889763779528,
          "duration": 0.04700000000000415
        },
        {
          "name": "F#3",
          "midi": 54,
          "time": 40.482000000000745,
          "velocity": 0.5984251968503937,
          "duration": 0.018000000000000682
        },
        {
          "name": "F#3",
          "midi": 54,
          "time": 40.482000000000745,
          "velocity": 0.5984251968503937,
          "duration": 0.018000000000000682
        },
        {
          "name": "F#5",
          "midi": 78,
          "time": 40.501000000000744,
          "velocity": 0.47244094488188976,
          "duration": 0.008000000000002672
        },
        {
          "name": "F#5",
          "midi": 78,
          "time": 40.501000000000744,
          "velocity": 0.47244094488188976,
          "duration": 0.008000000000002672
        },
        {
          "name": "G3",
          "midi": 55,
          "time": 40.51100000000075,
          "velocity": 0.5354330708661418,
          "duration": 0.037000000000013245
        },
        {
          "name": "G3",
          "midi": 55,
          "time": 40.51100000000075,
          "velocity": 0.5354330708661418,
          "duration": 0.037000000000013245
        },
        {
          "name": "A4",
          "midi": 69,
          "time": 40.521000000000754,
          "velocity": 0.6299212598425197,
          "duration": 0.1260000000000261
        },
        {
          "name": "A4",
          "midi": 69,
          "time": 40.521000000000754,
          "velocity": 0.6299212598425197,
          "duration": 0.1260000000000261
        },
        {
          "name": "D5",
          "midi": 74,
          "time": 40.53100000000076,
          "velocity": 0.5590551181102362,
          "duration": 0.22500000000004405
        },
        {
          "name": "D3",
          "midi": 50,
          "time": 40.53100000000076,
          "velocity": 0.5196850393700787,
          "duration": 0.008000000000002672
        },
        {
          "name": "D5",
          "midi": 74,
          "time": 40.53100000000076,
          "velocity": 0.5590551181102362,
          "duration": 0.22500000000004405
        },
        {
          "name": "D3",
          "midi": 50,
          "time": 40.53100000000076,
          "velocity": 0.5196850393700787,
          "duration": 0.008000000000002672
        },
        {
          "name": "D#3",
          "midi": 51,
          "time": 40.55100000000076,
          "velocity": 0.5118110236220472,
          "duration": 0.008000000000002672
        },
        {
          "name": "D#3",
          "midi": 51,
          "time": 40.55100000000076,
          "velocity": 0.5118110236220472,
          "duration": 0.008000000000002672
        },
        {
          "name": "F3",
          "midi": 53,
          "time": 40.56100000000077,
          "velocity": 0.5275590551181102,
          "duration": 0.018000000000000682
        },
        {
          "name": "G3",
          "midi": 55,
          "time": 40.56100000000077,
          "velocity": 0.5826771653543307,
          "duration": 0.018000000000000682
        },
        {
          "name": "F3",
          "midi": 53,
          "time": 40.56100000000077,
          "velocity": 0.5275590551181102,
          "duration": 0.018000000000000682
        },
        {
          "name": "G3",
          "midi": 55,
          "time": 40.56100000000077,
          "velocity": 0.5826771653543307,
          "duration": 0.018000000000000682
        },
        {
          "name": "D4",
          "midi": 62,
          "time": 40.57000000000077,
          "velocity": 0.5118110236220472,
          "duration": 0.028000000000005798
        },
        {
          "name": "D4",
          "midi": 62,
          "time": 40.57000000000077,
          "velocity": 0.5118110236220472,
          "duration": 0.028000000000005798
        },
        {
          "name": "G3",
          "midi": 55,
          "time": 40.59000000000077,
          "velocity": 0.5669291338582677,
          "duration": 0.018000000000000682
        },
        {
          "name": "G3",
          "midi": 55,
          "time": 40.59000000000077,
          "velocity": 0.5669291338582677,
          "duration": 0.018000000000000682
        },
        {
          "name": "F3",
          "midi": 53,
          "time": 40.610000000000774,
          "velocity": 0.5433070866141733,
          "duration": 0.008000000000002672
        },
        {
          "name": "G5",
          "midi": 79,
          "time": 40.610000000000774,
          "velocity": 0.5354330708661418,
          "duration": 0.028000000000005798
        },
        {
          "name": "F3",
          "midi": 53,
          "time": 40.610000000000774,
          "velocity": 0.5433070866141733,
          "duration": 0.008000000000002672
        },
        {
          "name": "G5",
          "midi": 79,
          "time": 40.610000000000774,
          "velocity": 0.5354330708661418,
          "duration": 0.028000000000005798
        },
        {
          "name": "G3",
          "midi": 55,
          "time": 40.63000000000078,
          "velocity": 0.5826771653543307,
          "duration": 0.21500000000003183
        },
        {
          "name": "G3",
          "midi": 55,
          "time": 40.63000000000078,
          "velocity": 0.5826771653543307,
          "duration": 0.21500000000003183
        },
        {
          "name": "D6",
          "midi": 86,
          "time": 40.64900000000078,
          "velocity": 0.49606299212598426,
          "duration": 0.05700000000000216
        },
        {
          "name": "D6",
          "midi": 86,
          "time": 40.64900000000078,
          "velocity": 0.49606299212598426,
          "duration": 0.05700000000000216
        },
        {
          "name": "G5",
          "midi": 79,
          "time": 40.65900000000078,
          "velocity": 0.48031496062992124,
          "duration": 0.008000000000002672
        },
        {
          "name": "C#3",
          "midi": 49,
          "time": 40.65900000000078,
          "velocity": 0.8346456692913385,
          "duration": 0.23500000000003496
        },
        {
          "name": "G5",
          "midi": 79,
          "time": 40.65900000000078,
          "velocity": 0.48031496062992124,
          "duration": 0.008000000000002672
        },
        {
          "name": "C#3",
          "midi": 49,
          "time": 40.65900000000078,
          "velocity": 0.8346456692913385,
          "duration": 0.23500000000003496
        },
        {
          "name": "G6",
          "midi": 91,
          "time": 40.68900000000078,
          "velocity": 0.44881889763779526,
          "duration": 0.028000000000005798
        },
        {
          "name": "G6",
          "midi": 91,
          "time": 40.68900000000078,
          "velocity": 0.44881889763779526,
          "duration": 0.028000000000005798
        },
        {
          "name": "C#5",
          "midi": 73,
          "time": 40.72800000000079,
          "velocity": 0.44881889763779526,
          "duration": 0.008000000000002672
        },
        {
          "name": "C#5",
          "midi": 73,
          "time": 40.72800000000079,
          "velocity": 0.44881889763779526,
          "duration": 0.008000000000002672
        },
        {
          "name": "A2",
          "midi": 45,
          "time": 40.738000000000795,
          "velocity": 0.5118110236220472,
          "duration": 0.008000000000002672
        },
        {
          "name": "A2",
          "midi": 45,
          "time": 40.738000000000795,
          "velocity": 0.5118110236220472,
          "duration": 0.008000000000002672
        },
        {
          "name": "G5",
          "midi": 79,
          "time": 40.7480000000008,
          "velocity": 0.4645669291338583,
          "duration": 0.0870000000000104
        },
        {
          "name": "G5",
          "midi": 79,
          "time": 40.7480000000008,
          "velocity": 0.4645669291338583,
          "duration": 0.0870000000000104
        },
        {
          "name": "F#4",
          "midi": 66,
          "time": 40.758000000000806,
          "velocity": 0.47244094488188976,
          "duration": 0.008000000000002672
        },
        {
          "name": "F#4",
          "midi": 66,
          "time": 40.758000000000806,
          "velocity": 0.47244094488188976,
          "duration": 0.008000000000002672
        },
        {
          "name": "D5",
          "midi": 74,
          "time": 40.77800000000081,
          "velocity": 0.4566929133858268,
          "duration": 0.036999999999999034
        },
        {
          "name": "D5",
          "midi": 74,
          "time": 40.77800000000081,
          "velocity": 0.4566929133858268,
          "duration": 0.036999999999999034
        },
        {
          "name": "D6",
          "midi": 86,
          "time": 40.78700000000081,
          "velocity": 0.4881889763779528,
          "duration": 0.10700000000000642
        },
        {
          "name": "D6",
          "midi": 86,
          "time": 40.78700000000081,
          "velocity": 0.4881889763779528,
          "duration": 0.10700000000000642
        },
        {
          "name": "C4",
          "midi": 60,
          "time": 40.82700000000081,
          "velocity": 0.47244094488188976,
          "duration": 0.028000000000005798
        },
        {
          "name": "C4",
          "midi": 60,
          "time": 40.82700000000081,
          "velocity": 0.47244094488188976,
          "duration": 0.028000000000005798
        },
        {
          "name": "G6",
          "midi": 91,
          "time": 40.84700000000081,
          "velocity": 0.6299212598425197,
          "duration": 0.07700000000000529
        },
        {
          "name": "G6",
          "midi": 91,
          "time": 40.84700000000081,
          "velocity": 0.6299212598425197,
          "duration": 0.07700000000000529
        },
        {
          "name": "E4",
          "midi": 64,
          "time": 40.876000000000815,
          "velocity": 0.5826771653543307,
          "duration": 0.29400000000001825
        },
        {
          "name": "D7",
          "midi": 98,
          "time": 40.876000000000815,
          "velocity": 0.5669291338582677,
          "duration": 0.036999999999999034
        },
        {
          "name": "E4",
          "midi": 64,
          "time": 40.876000000000815,
          "velocity": 0.5826771653543307,
          "duration": 0.29400000000001825
        },
        {
          "name": "D7",
          "midi": 98,
          "time": 40.876000000000815,
          "velocity": 0.5669291338582677,
          "duration": 0.036999999999999034
        },
        {
          "name": "B5",
          "midi": 83,
          "time": 40.906000000000816,
          "velocity": 0.5984251968503937,
          "duration": 0.028000000000005798
        },
        {
          "name": "D7",
          "midi": 98,
          "time": 40.906000000000816,
          "velocity": 0.5669291338582677,
          "duration": 0.05700000000000216
        },
        {
          "name": "B5",
          "midi": 83,
          "time": 40.906000000000816,
          "velocity": 0.5984251968503937,
          "duration": 0.028000000000005798
        },
        {
          "name": "D7",
          "midi": 98,
          "time": 40.906000000000816,
          "velocity": 0.5669291338582677,
          "duration": 0.05700000000000216
        },
        {
          "name": "G5",
          "midi": 79,
          "time": 40.92600000000082,
          "velocity": 0.5669291338582677,
          "duration": 0.06700000000000017
        },
        {
          "name": "G5",
          "midi": 79,
          "time": 40.92600000000082,
          "velocity": 0.5669291338582677,
          "duration": 0.06700000000000017
        },
        {
          "name": "C4",
          "midi": 60,
          "time": 40.93500000000082,
          "velocity": 0.5826771653543307,
          "duration": 0.17600000000000904
        },
        {
          "name": "C4",
          "midi": 60,
          "time": 40.93500000000082,
          "velocity": 0.5826771653543307,
          "duration": 0.17600000000000904
        },
        {
          "name": "G3",
          "midi": 55,
          "time": 40.94500000000082,
          "velocity": 0.6614173228346457,
          "duration": 0.3140000000000214
        },
        {
          "name": "G3",
          "midi": 55,
          "time": 40.94500000000082,
          "velocity": 0.6614173228346457,
          "duration": 0.3140000000000214
        },
        {
          "name": "D5",
          "midi": 74,
          "time": 40.97500000000082,
          "velocity": 0.48031496062992124,
          "duration": 0.008000000000002672
        },
        {
          "name": "D5",
          "midi": 74,
          "time": 40.97500000000082,
          "velocity": 0.48031496062992124,
          "duration": 0.008000000000002672
        },
        {
          "name": "C3",
          "midi": 48,
          "time": 40.99500000000082,
          "velocity": 0.5354330708661418,
          "duration": 0.06700000000000728
        },
        {
          "name": "C3",
          "midi": 48,
          "time": 40.99500000000082,
          "velocity": 0.5354330708661418,
          "duration": 0.06700000000000728
        },
        {
          "name": "D5",
          "midi": 74,
          "time": 41.00400000000082,
          "velocity": 0.4645669291338583,
          "duration": 0.018000000000000682
        },
        {
          "name": "D5",
          "midi": 74,
          "time": 41.00400000000082,
          "velocity": 0.4645669291338583,
          "duration": 0.018000000000000682
        },
        {
          "name": "F3",
          "midi": 53,
          "time": 41.03400000000082,
          "velocity": 0.4645669291338583,
          "duration": 0.008000000000002672
        },
        {
          "name": "F3",
          "midi": 53,
          "time": 41.03400000000082,
          "velocity": 0.4645669291338583,
          "duration": 0.008000000000002672
        },
        {
          "name": "B2",
          "midi": 47,
          "time": 41.09300000000083,
          "velocity": 0.9763779527559056,
          "duration": 0.07700000000000529
        },
        {
          "name": "B2",
          "midi": 47,
          "time": 41.09300000000083,
          "velocity": 0.9763779527559056,
          "duration": 0.07700000000000529
        },
        {
          "name": "D6",
          "midi": 86,
          "time": 41.103000000000826,
          "velocity": 0.49606299212598426,
          "duration": 0.03700000000000614
        },
        {
          "name": "D6",
          "midi": 86,
          "time": 41.103000000000826,
          "velocity": 0.49606299212598426,
          "duration": 0.03700000000000614
        },
        {
          "name": "D5",
          "midi": 74,
          "time": 41.12300000000083,
          "velocity": 0.48031496062992124,
          "duration": 0.018000000000000682
        },
        {
          "name": "D5",
          "midi": 74,
          "time": 41.12300000000083,
          "velocity": 0.48031496062992124,
          "duration": 0.018000000000000682
        },
        {
          "name": "G6",
          "midi": 91,
          "time": 41.15200000000083,
          "velocity": 0.4645669291338583,
          "duration": 0.008000000000002672
        },
        {
          "name": "G5",
          "midi": 79,
          "time": 41.15200000000083,
          "velocity": 0.5118110236220472,
          "duration": 0.07700000000000529
        },
        {
          "name": "G6",
          "midi": 91,
          "time": 41.15200000000083,
          "velocity": 0.4645669291338583,
          "duration": 0.008000000000002672
        },
        {
          "name": "G5",
          "midi": 79,
          "time": 41.15200000000083,
          "velocity": 0.5118110236220472,
          "duration": 0.07700000000000529
        },
        {
          "name": "A2",
          "midi": 45,
          "time": 41.18200000000083,
          "velocity": 0.5433070866141733,
          "duration": 0.018000000000000682
        },
        {
          "name": "G4",
          "midi": 67,
          "time": 41.18200000000083,
          "velocity": 0.5669291338582677,
          "duration": 0.15600000000002723
        },
        {
          "name": "A2",
          "midi": 45,
          "time": 41.18200000000083,
          "velocity": 0.5433070866141733,
          "duration": 0.018000000000000682
        },
        {
          "name": "G4",
          "midi": 67,
          "time": 41.18200000000083,
          "velocity": 0.5669291338582677,
          "duration": 0.15600000000002723
        },
        {
          "name": "C4",
          "midi": 60,
          "time": 41.20200000000084,
          "velocity": 0.48031496062992124,
          "duration": 0.018000000000000682
        },
        {
          "name": "C4",
          "midi": 60,
          "time": 41.20200000000084,
          "velocity": 0.48031496062992124,
          "duration": 0.018000000000000682
        },
        {
          "name": "D3",
          "midi": 50,
          "time": 41.212000000000835,
          "velocity": 0.4645669291338583,
          "duration": 0.008000000000002672
        },
        {
          "name": "D3",
          "midi": 50,
          "time": 41.212000000000835,
          "velocity": 0.4645669291338583,
          "duration": 0.008000000000002672
        },
        {
          "name": "G5",
          "midi": 79,
          "time": 41.221000000000835,
          "velocity": 0.4645669291338583,
          "duration": 0.06700000000000728
        },
        {
          "name": "G5",
          "midi": 79,
          "time": 41.221000000000835,
          "velocity": 0.4645669291338583,
          "duration": 0.06700000000000728
        },
        {
          "name": "B2",
          "midi": 47,
          "time": 41.23100000000084,
          "velocity": 0.8582677165354331,
          "duration": 0.08700000000001751
        },
        {
          "name": "B2",
          "midi": 47,
          "time": 41.23100000000084,
          "velocity": 0.8582677165354331,
          "duration": 0.08700000000001751
        },
        {
          "name": "G6",
          "midi": 91,
          "time": 41.24100000000084,
          "velocity": 0.4566929133858268,
          "duration": 0.018000000000000682
        },
        {
          "name": "F#4",
          "midi": 66,
          "time": 41.24100000000084,
          "velocity": 0.5039370078740157,
          "duration": 0.008000000000002672
        },
        {
          "name": "G6",
          "midi": 91,
          "time": 41.24100000000084,
          "velocity": 0.4566929133858268,
          "duration": 0.018000000000000682
        },
        {
          "name": "F#4",
          "midi": 66,
          "time": 41.24100000000084,
          "velocity": 0.5039370078740157,
          "duration": 0.008000000000002672
        },
        {
          "name": "D5",
          "midi": 74,
          "time": 41.26100000000084,
          "velocity": 0.47244094488188976,
          "duration": 0.018000000000000682
        },
        {
          "name": "D5",
          "midi": 74,
          "time": 41.26100000000084,
          "velocity": 0.47244094488188976,
          "duration": 0.018000000000000682
        },
        {
          "name": "B3",
          "midi": 59,
          "time": 41.27100000000084,
          "velocity": 0.4645669291338583,
          "duration": 0.008000000000002672
        },
        {
          "name": "F#4",
          "midi": 66,
          "time": 41.27100000000084,
          "velocity": 0.48031496062992124,
          "duration": 0.008000000000002672
        },
        {
          "name": "B3",
          "midi": 59,
          "time": 41.27100000000084,
          "velocity": 0.4645669291338583,
          "duration": 0.008000000000002672
        },
        {
          "name": "F#4",
          "midi": 66,
          "time": 41.27100000000084,
          "velocity": 0.48031496062992124,
          "duration": 0.008000000000002672
        },
        {
          "name": "B4",
          "midi": 71,
          "time": 41.290000000000845,
          "velocity": 0.6141732283464567,
          "duration": 0.136000000000017
        },
        {
          "name": "E4",
          "midi": 64,
          "time": 41.290000000000845,
          "velocity": 0.4566929133858268,
          "duration": 0.008000000000002672
        },
        {
          "name": "B4",
          "midi": 71,
          "time": 41.290000000000845,
          "velocity": 0.6141732283464567,
          "duration": 0.136000000000017
        },
        {
          "name": "E4",
          "midi": 64,
          "time": 41.290000000000845,
          "velocity": 0.4566929133858268,
          "duration": 0.008000000000002672
        },
        {
          "name": "G3",
          "midi": 55,
          "time": 41.30000000000085,
          "velocity": 0.5826771653543307,
          "duration": 0.1360000000000099
        },
        {
          "name": "A#3",
          "midi": 58,
          "time": 41.30000000000085,
          "velocity": 0.4645669291338583,
          "duration": 0.008000000000002672
        },
        {
          "name": "G3",
          "midi": 55,
          "time": 41.30000000000085,
          "velocity": 0.5826771653543307,
          "duration": 0.1360000000000099
        },
        {
          "name": "A#3",
          "midi": 58,
          "time": 41.30000000000085,
          "velocity": 0.4645669291338583,
          "duration": 0.008000000000002672
        },
        {
          "name": "B6",
          "midi": 95,
          "time": 41.310000000000855,
          "velocity": 0.5354330708661418,
          "duration": 0.047000000000011255
        },
        {
          "name": "B6",
          "midi": 95,
          "time": 41.310000000000855,
          "velocity": 0.5354330708661418,
          "duration": 0.047000000000011255
        },
        {
          "name": "D4",
          "midi": 62,
          "time": 41.32000000000086,
          "velocity": 0.5826771653543307,
          "duration": 0.13600000000000279
        },
        {
          "name": "D4",
          "midi": 62,
          "time": 41.32000000000086,
          "velocity": 0.5826771653543307,
          "duration": 0.13600000000000279
        },
        {
          "name": "B2",
          "midi": 47,
          "time": 41.34000000000086,
          "velocity": 0.6614173228346457,
          "duration": 0.1360000000000099
        },
        {
          "name": "B2",
          "midi": 47,
          "time": 41.34000000000086,
          "velocity": 0.6614173228346457,
          "duration": 0.1360000000000099
        },
        {
          "name": "F4",
          "midi": 65,
          "time": 41.360000000000866,
          "velocity": 0.5905511811023622,
          "duration": 0.036999999999999034
        },
        {
          "name": "F4",
          "midi": 65,
          "time": 41.360000000000866,
          "velocity": 0.5905511811023622,
          "duration": 0.036999999999999034
        },
        {
          "name": "G4",
          "midi": 67,
          "time": 41.379000000000865,
          "velocity": 0.5905511811023622,
          "duration": 0.027999999999998693
        },
        {
          "name": "G4",
          "midi": 67,
          "time": 41.379000000000865,
          "velocity": 0.5905511811023622,
          "duration": 0.027999999999998693
        },
        {
          "name": "C4",
          "midi": 60,
          "time": 41.409000000000866,
          "velocity": 0.5905511811023622,
          "duration": 0.046999999999997044
        },
        {
          "name": "C4",
          "midi": 60,
          "time": 41.409000000000866,
          "velocity": 0.5905511811023622,
          "duration": 0.046999999999997044
        },
        {
          "name": "C5",
          "midi": 72,
          "time": 41.419000000000864,
          "velocity": 0.5984251968503937,
          "duration": 0.027999999999998693
        },
        {
          "name": "C5",
          "midi": 72,
          "time": 41.419000000000864,
          "velocity": 0.5984251968503937,
          "duration": 0.027999999999998693
        },
        {
          "name": "C6",
          "midi": 84,
          "time": 41.43800000000086,
          "velocity": 0.5511811023622047,
          "duration": 0.008000000000002672
        },
        {
          "name": "C6",
          "midi": 84,
          "time": 41.43800000000086,
          "velocity": 0.5511811023622047,
          "duration": 0.008000000000002672
        },
        {
          "name": "C5",
          "midi": 72,
          "time": 41.458000000000865,
          "velocity": 0.5511811023622047,
          "duration": 0.08700000000002461
        },
        {
          "name": "F#3",
          "midi": 54,
          "time": 41.458000000000865,
          "velocity": 0.5511811023622047,
          "duration": 0.008000000000002672
        },
        {
          "name": "C5",
          "midi": 72,
          "time": 41.458000000000865,
          "velocity": 0.5511811023622047,
          "duration": 0.08700000000002461
        },
        {
          "name": "F#3",
          "midi": 54,
          "time": 41.458000000000865,
          "velocity": 0.5511811023622047,
          "duration": 0.008000000000002672
        },
        {
          "name": "B4",
          "midi": 71,
          "time": 41.46800000000087,
          "velocity": 0.5984251968503937,
          "duration": 0.05700000000001637
        },
        {
          "name": "F4",
          "midi": 65,
          "time": 41.46800000000087,
          "velocity": 0.5511811023622047,
          "duration": 0.047000000000011255
        },
        {
          "name": "B4",
          "midi": 71,
          "time": 41.46800000000087,
          "velocity": 0.5984251968503937,
          "duration": 0.05700000000001637
        },
        {
          "name": "F4",
          "midi": 65,
          "time": 41.46800000000087,
          "velocity": 0.5511811023622047,
          "duration": 0.047000000000011255
        },
        {
          "name": "F3",
          "midi": 53,
          "time": 41.478000000000876,
          "velocity": 0.5196850393700787,
          "duration": 0.008000000000002672
        },
        {
          "name": "F3",
          "midi": 53,
          "time": 41.478000000000876,
          "velocity": 0.5196850393700787,
          "duration": 0.008000000000002672
        },
        {
          "name": "G3",
          "midi": 55,
          "time": 41.48800000000088,
          "velocity": 0.6141732283464567,
          "duration": 0.21500000000002473
        },
        {
          "name": "G3",
          "midi": 55,
          "time": 41.48800000000088,
          "velocity": 0.6141732283464567,
          "duration": 0.21500000000002473
        },
        {
          "name": "A#3",
          "midi": 58,
          "time": 41.49800000000088,
          "velocity": 0.5039370078740157,
          "duration": 0.008000000000002672
        },
        {
          "name": "D4",
          "midi": 62,
          "time": 41.49800000000088,
          "velocity": 0.5196850393700787,
          "duration": 0.07700000000001239
        },
        {
          "name": "A#3",
          "midi": 58,
          "time": 41.49800000000088,
          "velocity": 0.5039370078740157,
          "duration": 0.008000000000002672
        },
        {
          "name": "D4",
          "midi": 62,
          "time": 41.49800000000088,
          "velocity": 0.5196850393700787,
          "duration": 0.07700000000001239
        },
        {
          "name": "B3",
          "midi": 59,
          "time": 41.517000000000884,
          "velocity": 0.5039370078740157,
          "duration": 0.10700000000001353
        },
        {
          "name": "B3",
          "midi": 59,
          "time": 41.517000000000884,
          "velocity": 0.5039370078740157,
          "duration": 0.10700000000001353
        },
        {
          "name": "D5",
          "midi": 74,
          "time": 41.53700000000089,
          "velocity": 0.5669291338582677,
          "duration": 0.04700000000000415
        },
        {
          "name": "D5",
          "midi": 74,
          "time": 41.53700000000089,
          "velocity": 0.5669291338582677,
          "duration": 0.04700000000000415
        },
        {
          "name": "A#2",
          "midi": 46,
          "time": 41.55700000000089,
          "velocity": 0.84251968503937,
          "duration": 0.008000000000002672
        },
        {
          "name": "D6",
          "midi": 86,
          "time": 41.55700000000089,
          "velocity": 0.48031496062992124,
          "duration": 0.008000000000002672
        },
        {
          "name": "A#2",
          "midi": 46,
          "time": 41.55700000000089,
          "velocity": 0.84251968503937,
          "duration": 0.008000000000002672
        },
        {
          "name": "D6",
          "midi": 86,
          "time": 41.55700000000089,
          "velocity": 0.48031496062992124,
          "duration": 0.008000000000002672
        },
        {
          "name": "F3",
          "midi": 53,
          "time": 41.57700000000089,
          "velocity": 0.5196850393700787,
          "duration": 0.007999999999995566
        },
        {
          "name": "F3",
          "midi": 53,
          "time": 41.57700000000089,
          "velocity": 0.5196850393700787,
          "duration": 0.007999999999995566
        },
        {
          "name": "B2",
          "midi": 47,
          "time": 41.58600000000089,
          "velocity": 0.7322834645669292,
          "duration": 0.008000000000002672
        },
        {
          "name": "G2",
          "midi": 43,
          "time": 41.58600000000089,
          "velocity": 0.7007874015748031,
          "duration": 0.008000000000002672
        },
        {
          "name": "B2",
          "midi": 47,
          "time": 41.58600000000089,
          "velocity": 0.7322834645669292,
          "duration": 0.008000000000002672
        },
        {
          "name": "G2",
          "midi": 43,
          "time": 41.58600000000089,
          "velocity": 0.7007874015748031,
          "duration": 0.008000000000002672
        },
        {
          "name": "G4",
          "midi": 67,
          "time": 41.59600000000089,
          "velocity": 0.4881889763779528,
          "duration": 0.008000000000002672
        },
        {
          "name": "C5",
          "midi": 72,
          "time": 41.59600000000089,
          "velocity": 0.6456692913385826,
          "duration": 0.136000000000017
        },
        {
          "name": "G4",
          "midi": 67,
          "time": 41.59600000000089,
          "velocity": 0.4881889763779528,
          "duration": 0.008000000000002672
        },
        {
          "name": "C5",
          "midi": 72,
          "time": 41.59600000000089,
          "velocity": 0.6456692913385826,
          "duration": 0.136000000000017
        },
        {
          "name": "A2",
          "midi": 45,
          "time": 41.6060000000009,
          "velocity": 0.8818897637795275,
          "duration": 0.057000000000009265
        },
        {
          "name": "D5",
          "midi": 74,
          "time": 41.6060000000009,
          "velocity": 0.5275590551181102,
          "duration": 0.057000000000009265
        },
        {
          "name": "A2",
          "midi": 45,
          "time": 41.6060000000009,
          "velocity": 0.8818897637795275,
          "duration": 0.057000000000009265
        },
        {
          "name": "D5",
          "midi": 74,
          "time": 41.6060000000009,
          "velocity": 0.5275590551181102,
          "duration": 0.057000000000009265
        },
        {
          "name": "D#4",
          "midi": 63,
          "time": 41.6260000000009,
          "velocity": 0.49606299212598426,
          "duration": 0.04700000000000415
        },
        {
          "name": "D#4",
          "midi": 63,
          "time": 41.6260000000009,
          "velocity": 0.49606299212598426,
          "duration": 0.04700000000000415
        },
        {
          "name": "C7",
          "midi": 96,
          "time": 41.6550000000009,
          "velocity": 0.5039370078740157,
          "duration": 0.04700000000000415
        },
        {
          "name": "C7",
          "midi": 96,
          "time": 41.6550000000009,
          "velocity": 0.5039370078740157,
          "duration": 0.04700000000000415
        },
        {
          "name": "C4",
          "midi": 60,
          "time": 41.67500000000091,
          "velocity": 0.4881889763779528,
          "duration": 0.036999999999999034
        },
        {
          "name": "C4",
          "midi": 60,
          "time": 41.67500000000091,
          "velocity": 0.4881889763779528,
          "duration": 0.036999999999999034
        },
        {
          "name": "B2",
          "midi": 47,
          "time": 41.685000000000905,
          "velocity": 0.6062992125984252,
          "duration": 0.018000000000000682
        },
        {
          "name": "B2",
          "midi": 47,
          "time": 41.685000000000905,
          "velocity": 0.6062992125984252,
          "duration": 0.018000000000000682
        },
        {
          "name": "D#4",
          "midi": 63,
          "time": 41.70500000000091,
          "velocity": 0.5118110236220472,
          "duration": 0.06700000000000017
        },
        {
          "name": "D#4",
          "midi": 63,
          "time": 41.70500000000091,
          "velocity": 0.5118110236220472,
          "duration": 0.06700000000000017
        },
        {
          "name": "A#3",
          "midi": 58,
          "time": 41.715000000000906,
          "velocity": 0.4881889763779528,
          "duration": 0.018000000000000682
        },
        {
          "name": "G3",
          "midi": 55,
          "time": 41.715000000000906,
          "velocity": 0.48031496062992124,
          "duration": 0.008000000000002672
        },
        {
          "name": "A#3",
          "midi": 58,
          "time": 41.715000000000906,
          "velocity": 0.4881889763779528,
          "duration": 0.018000000000000682
        },
        {
          "name": "G3",
          "midi": 55,
          "time": 41.715000000000906,
          "velocity": 0.48031496062992124,
          "duration": 0.008000000000002672
        },
        {
          "name": "C5",
          "midi": 72,
          "time": 41.724000000000906,
          "velocity": 0.5669291338582677,
          "duration": 0.05700000000000216
        },
        {
          "name": "C5",
          "midi": 72,
          "time": 41.724000000000906,
          "velocity": 0.5669291338582677,
          "duration": 0.05700000000000216
        },
        {
          "name": "G2",
          "midi": 43,
          "time": 41.734000000000904,
          "velocity": 0.5511811023622047,
          "duration": 0.008000000000002672
        },
        {
          "name": "C3",
          "midi": 48,
          "time": 41.734000000000904,
          "velocity": 0.5196850393700787,
          "duration": 0.008000000000002672
        },
        {
          "name": "G2",
          "midi": 43,
          "time": 41.734000000000904,
          "velocity": 0.5511811023622047,
          "duration": 0.008000000000002672
        },
        {
          "name": "C3",
          "midi": 48,
          "time": 41.734000000000904,
          "velocity": 0.5196850393700787,
          "duration": 0.008000000000002672
        },
        {
          "name": "D5",
          "midi": 74,
          "time": 41.74400000000091,
          "velocity": 0.5433070866141733,
          "duration": 0.036999999999999034
        },
        {
          "name": "D5",
          "midi": 74,
          "time": 41.74400000000091,
          "velocity": 0.5433070866141733,
          "duration": 0.036999999999999034
        },
        {
          "name": "G4",
          "midi": 67,
          "time": 41.75400000000091,
          "velocity": 0.5275590551181102,
          "duration": 0.046999999999997044
        },
        {
          "name": "G4",
          "midi": 67,
          "time": 41.75400000000091,
          "velocity": 0.5275590551181102,
          "duration": 0.046999999999997044
        },
        {
          "name": "F4",
          "midi": 65,
          "time": 41.764000000000905,
          "velocity": 0.5354330708661418,
          "duration": 0.11600000000000676
        },
        {
          "name": "F4",
          "midi": 65,
          "time": 41.764000000000905,
          "velocity": 0.5354330708661418,
          "duration": 0.11600000000000676
        },
        {
          "name": "B4",
          "midi": 71,
          "time": 41.77400000000091,
          "velocity": 0.7322834645669292,
          "duration": 0.09700000000000131
        },
        {
          "name": "B4",
          "midi": 71,
          "time": 41.77400000000091,
          "velocity": 0.7322834645669292,
          "duration": 0.09700000000000131
        },
        {
          "name": "F#6",
          "midi": 90,
          "time": 41.78400000000091,
          "velocity": 0.5433070866141733,
          "duration": 0.056999999999995055
        },
        {
          "name": "F#6",
          "midi": 90,
          "time": 41.78400000000091,
          "velocity": 0.5433070866141733,
          "duration": 0.056999999999995055
        },
        {
          "name": "G3",
          "midi": 55,
          "time": 41.794000000000906,
          "velocity": 0.5118110236220472,
          "duration": 0.018000000000000682
        },
        {
          "name": "C#4",
          "midi": 61,
          "time": 41.794000000000906,
          "velocity": 0.5275590551181102,
          "duration": 0.018000000000000682
        },
        {
          "name": "G3",
          "midi": 55,
          "time": 41.794000000000906,
          "velocity": 0.5118110236220472,
          "duration": 0.018000000000000682
        },
        {
          "name": "C#4",
          "midi": 61,
          "time": 41.794000000000906,
          "velocity": 0.5275590551181102,
          "duration": 0.018000000000000682
        },
        {
          "name": "C5",
          "midi": 72,
          "time": 41.813000000000905,
          "velocity": 0.5196850393700787,
          "duration": 0.057000000000009265
        },
        {
          "name": "C5",
          "midi": 72,
          "time": 41.813000000000905,
          "velocity": 0.5196850393700787,
          "duration": 0.057000000000009265
        },
        {
          "name": "A#2",
          "midi": 46,
          "time": 41.8230000000009,
          "velocity": 0.5196850393700787,
          "duration": 0.028000000000005798
        },
        {
          "name": "A#2",
          "midi": 46,
          "time": 41.8230000000009,
          "velocity": 0.5196850393700787,
          "duration": 0.028000000000005798
        },
        {
          "name": "B3",
          "midi": 59,
          "time": 41.843000000000906,
          "velocity": 0.5039370078740157,
          "duration": 0.03700000000000614
        },
        {
          "name": "B3",
          "midi": 59,
          "time": 41.843000000000906,
          "velocity": 0.5039370078740157,
          "duration": 0.03700000000000614
        },
        {
          "name": "A4",
          "midi": 69,
          "time": 41.85300000000091,
          "velocity": 0.6929133858267716,
          "duration": 0.136000000000017
        },
        {
          "name": "A4",
          "midi": 69,
          "time": 41.85300000000091,
          "velocity": 0.6929133858267716,
          "duration": 0.136000000000017
        },
        {
          "name": "G#2",
          "midi": 44,
          "time": 41.87200000000091,
          "velocity": 0.48031496062992124,
          "duration": 0.008000000000002672
        },
        {
          "name": "G#2",
          "midi": 44,
          "time": 41.87200000000091,
          "velocity": 0.48031496062992124,
          "duration": 0.008000000000002672
        },
        {
          "name": "B4",
          "midi": 71,
          "time": 41.882000000000914,
          "velocity": 0.5748031496062992,
          "duration": 0.0870000000000104
        },
        {
          "name": "B4",
          "midi": 71,
          "time": 41.882000000000914,
          "velocity": 0.5748031496062992,
          "duration": 0.0870000000000104
        },
        {
          "name": "G4",
          "midi": 67,
          "time": 41.89200000000091,
          "velocity": 0.5354330708661418,
          "duration": 0.008000000000002672
        },
        {
          "name": "A5",
          "midi": 81,
          "time": 41.89200000000091,
          "velocity": 0.5118110236220472,
          "duration": 0.047000000000011255
        },
        {
          "name": "G4",
          "midi": 67,
          "time": 41.89200000000091,
          "velocity": 0.5354330708661418,
          "duration": 0.008000000000002672
        },
        {
          "name": "A5",
          "midi": 81,
          "time": 41.89200000000091,
          "velocity": 0.5118110236220472,
          "duration": 0.047000000000011255
        },
        {
          "name": "A3",
          "midi": 57,
          "time": 41.90200000000092,
          "velocity": 0.5669291338582677,
          "duration": 0.06700000000000728
        },
        {
          "name": "A#2",
          "midi": 46,
          "time": 41.90200000000092,
          "velocity": 0.5275590551181102,
          "duration": 0.018000000000000682
        },
        {
          "name": "A3",
          "midi": 57,
          "time": 41.90200000000092,
          "velocity": 0.5669291338582677,
          "duration": 0.06700000000000728
        },
        {
          "name": "A#2",
          "midi": 46,
          "time": 41.90200000000092,
          "velocity": 0.5275590551181102,
          "duration": 0.018000000000000682
        },
        {
          "name": "F#4",
          "midi": 66,
          "time": 41.92200000000092,
          "velocity": 0.5039370078740157,
          "duration": 0.008000000000002672
        },
        {
          "name": "F#4",
          "midi": 66,
          "time": 41.92200000000092,
          "velocity": 0.5039370078740157,
          "duration": 0.008000000000002672
        },
        {
          "name": "G#4",
          "midi": 68,
          "time": 41.932000000000926,
          "velocity": 0.7086614173228346,
          "duration": 0.018000000000000682
        },
        {
          "name": "G#4",
          "midi": 68,
          "time": 41.932000000000926,
          "velocity": 0.7086614173228346,
          "duration": 0.018000000000000682
        },
        {
          "name": "C4",
          "midi": 60,
          "time": 41.951000000000924,
          "velocity": 0.6141732283464567,
          "duration": 0.06700000000000728
        },
        {
          "name": "C4",
          "midi": 60,
          "time": 41.951000000000924,
          "velocity": 0.6141732283464567,
          "duration": 0.06700000000000728
        },
        {
          "name": "F4",
          "midi": 65,
          "time": 41.96100000000092,
          "velocity": 0.49606299212598426,
          "duration": 0.008000000000002672
        },
        {
          "name": "F4",
          "midi": 65,
          "time": 41.96100000000092,
          "velocity": 0.49606299212598426,
          "duration": 0.008000000000002672
        },
        {
          "name": "G4",
          "midi": 67,
          "time": 41.97100000000093,
          "velocity": 0.7244094488188977,
          "duration": 0.8560000000001224
        },
        {
          "name": "G4",
          "midi": 67,
          "time": 41.97100000000093,
          "velocity": 0.7244094488188977,
          "duration": 0.8560000000001224
        },
        {
          "name": "F6",
          "midi": 89,
          "time": 41.981000000000925,
          "velocity": 0.49606299212598426,
          "duration": 0.008000000000002672
        },
        {
          "name": "G6",
          "midi": 91,
          "time": 41.981000000000925,
          "velocity": 0.5196850393700787,
          "duration": 0.018000000000007788
        },
        {
          "name": "F6",
          "midi": 89,
          "time": 41.981000000000925,
          "velocity": 0.49606299212598426,
          "duration": 0.008000000000002672
        },
        {
          "name": "G6",
          "midi": 91,
          "time": 41.981000000000925,
          "velocity": 0.5196850393700787,
          "duration": 0.018000000000007788
        },
        {
          "name": "D6",
          "midi": 86,
          "time": 41.99100000000093,
          "velocity": 0.5275590551181102,
          "duration": 0.04700000000000415
        },
        {
          "name": "D6",
          "midi": 86,
          "time": 41.99100000000093,
          "velocity": 0.5275590551181102,
          "duration": 0.04700000000000415
        },
        {
          "name": "G3",
          "midi": 55,
          "time": 42.001000000000936,
          "velocity": 0.6062992125984252,
          "duration": 0.6190000000000992
        },
        {
          "name": "C3",
          "midi": 48,
          "time": 42.001000000000936,
          "velocity": 0.7244094488188977,
          "duration": 0.057000000000009265
        },
        {
          "name": "G3",
          "midi": 55,
          "time": 42.001000000000936,
          "velocity": 0.6062992125984252,
          "duration": 0.6190000000000992
        },
        {
          "name": "C3",
          "midi": 48,
          "time": 42.001000000000936,
          "velocity": 0.7244094488188977,
          "duration": 0.057000000000009265
        },
        {
          "name": "D5",
          "midi": 74,
          "time": 42.011000000000934,
          "velocity": 0.5039370078740157,
          "duration": 0.03700000000000614
        },
        {
          "name": "D5",
          "midi": 74,
          "time": 42.011000000000934,
          "velocity": 0.5039370078740157,
          "duration": 0.03700000000000614
        },
        {
          "name": "G5",
          "midi": 79,
          "time": 42.04000000000094,
          "velocity": 0.49606299212598426,
          "duration": 0.037000000000013245
        },
        {
          "name": "G5",
          "midi": 79,
          "time": 42.04000000000094,
          "velocity": 0.49606299212598426,
          "duration": 0.037000000000013245
        },
        {
          "name": "C4",
          "midi": 60,
          "time": 42.05000000000094,
          "velocity": 0.48031496062992124,
          "duration": 0.018000000000007788
        },
        {
          "name": "C4",
          "midi": 60,
          "time": 42.05000000000094,
          "velocity": 0.48031496062992124,
          "duration": 0.018000000000007788
        },
        {
          "name": "C#2",
          "midi": 37,
          "time": 42.06000000000095,
          "velocity": 0.49606299212598426,
          "duration": 0.0870000000000104
        },
        {
          "name": "C#2",
          "midi": 37,
          "time": 42.06000000000095,
          "velocity": 0.49606299212598426,
          "duration": 0.0870000000000104
        },
        {
          "name": "C3",
          "midi": 48,
          "time": 42.07000000000095,
          "velocity": 0.6771653543307087,
          "duration": 0.018000000000000682
        },
        {
          "name": "C3",
          "midi": 48,
          "time": 42.07000000000095,
          "velocity": 0.6771653543307087,
          "duration": 0.018000000000000682
        },
        {
          "name": "C#4",
          "midi": 61,
          "time": 42.08900000000095,
          "velocity": 0.47244094488188976,
          "duration": 0.008000000000002672
        },
        {
          "name": "C#4",
          "midi": 61,
          "time": 42.08900000000095,
          "velocity": 0.47244094488188976,
          "duration": 0.008000000000002672
        },
        {
          "name": "B2",
          "midi": 47,
          "time": 42.109000000000954,
          "velocity": 0.7716535433070866,
          "duration": 0.018000000000000682
        },
        {
          "name": "D6",
          "midi": 86,
          "time": 42.109000000000954,
          "velocity": 0.4566929133858268,
          "duration": 0.008000000000002672
        },
        {
          "name": "B2",
          "midi": 47,
          "time": 42.109000000000954,
          "velocity": 0.7716535433070866,
          "duration": 0.018000000000000682
        },
        {
          "name": "D6",
          "midi": 86,
          "time": 42.109000000000954,
          "velocity": 0.4566929133858268,
          "duration": 0.008000000000002672
        },
        {
          "name": "E4",
          "midi": 64,
          "time": 42.12900000000096,
          "velocity": 0.47244094488188976,
          "duration": 0.028000000000005798
        },
        {
          "name": "E4",
          "midi": 64,
          "time": 42.12900000000096,
          "velocity": 0.47244094488188976,
          "duration": 0.028000000000005798
        },
        {
          "name": "C4",
          "midi": 60,
          "time": 42.14900000000096,
          "velocity": 0.5196850393700787,
          "duration": 0.04700000000000415
        },
        {
          "name": "C3",
          "midi": 48,
          "time": 42.14900000000096,
          "velocity": 0.6062992125984252,
          "duration": 0.057000000000009265
        },
        {
          "name": "C4",
          "midi": 60,
          "time": 42.14900000000096,
          "velocity": 0.5196850393700787,
          "duration": 0.04700000000000415
        },
        {
          "name": "C3",
          "midi": 48,
          "time": 42.14900000000096,
          "velocity": 0.6062992125984252,
          "duration": 0.057000000000009265
        },
        {
          "name": "G#4",
          "midi": 68,
          "time": 42.159000000000965,
          "velocity": 0.5433070866141733,
          "duration": 0.008000000000002672
        },
        {
          "name": "G#4",
          "midi": 68,
          "time": 42.159000000000965,
          "velocity": 0.5433070866141733,
          "duration": 0.008000000000002672
        },
        {
          "name": "C5",
          "midi": 72,
          "time": 42.168000000000966,
          "velocity": 0.5748031496062992,
          "duration": 0.09700000000000841
        },
        {
          "name": "C5",
          "midi": 72,
          "time": 42.168000000000966,
          "velocity": 0.5748031496062992,
          "duration": 0.09700000000000841
        },
        {
          "name": "D6",
          "midi": 86,
          "time": 42.19800000000097,
          "velocity": 0.5590551181102362,
          "duration": 0.0870000000000104
        },
        {
          "name": "D6",
          "midi": 86,
          "time": 42.19800000000097,
          "velocity": 0.5590551181102362,
          "duration": 0.0870000000000104
        },
        {
          "name": "C4",
          "midi": 60,
          "time": 42.20800000000097,
          "velocity": 0.6062992125984252,
          "duration": 0.11600000000001387
        },
        {
          "name": "C4",
          "midi": 60,
          "time": 42.20800000000097,
          "velocity": 0.6062992125984252,
          "duration": 0.11600000000001387
        },
        {
          "name": "D5",
          "midi": 74,
          "time": 42.21800000000097,
          "velocity": 0.5590551181102362,
          "duration": 0.018000000000000682
        },
        {
          "name": "D5",
          "midi": 74,
          "time": 42.21800000000097,
          "velocity": 0.5590551181102362,
          "duration": 0.018000000000000682
        },
        {
          "name": "E4",
          "midi": 64,
          "time": 42.24700000000097,
          "velocity": 0.7322834645669292,
          "duration": 0.20500000000002672
        },
        {
          "name": "E4",
          "midi": 64,
          "time": 42.24700000000097,
          "velocity": 0.7322834645669292,
          "duration": 0.20500000000002672
        },
        {
          "name": "C3",
          "midi": 48,
          "time": 42.277000000000974,
          "velocity": 0.5196850393700787,
          "duration": 0.028000000000005798
        },
        {
          "name": "C3",
          "midi": 48,
          "time": 42.277000000000974,
          "velocity": 0.5196850393700787,
          "duration": 0.028000000000005798
        },
        {
          "name": "G5",
          "midi": 79,
          "time": 42.29700000000098,
          "velocity": 0.48031496062992124,
          "duration": 0.057000000000009265
        },
        {
          "name": "G5",
          "midi": 79,
          "time": 42.29700000000098,
          "velocity": 0.48031496062992124,
          "duration": 0.057000000000009265
        },
        {
          "name": "B4",
          "midi": 71,
          "time": 42.31600000000098,
          "velocity": 0.5669291338582677,
          "duration": 0.06700000000000728
        },
        {
          "name": "B4",
          "midi": 71,
          "time": 42.31600000000098,
          "velocity": 0.5669291338582677,
          "duration": 0.06700000000000728
        },
        {
          "name": "E5",
          "midi": 76,
          "time": 42.346000000000984,
          "velocity": 0.49606299212598426,
          "duration": 0.028000000000005798
        },
        {
          "name": "E5",
          "midi": 76,
          "time": 42.346000000000984,
          "velocity": 0.49606299212598426,
          "duration": 0.028000000000005798
        },
        {
          "name": "D6",
          "midi": 86,
          "time": 42.38500000000099,
          "velocity": 0.5118110236220472,
          "duration": 0.057000000000009265
        },
        {
          "name": "F#4",
          "midi": 66,
          "time": 42.38500000000099,
          "velocity": 0.6299212598425197,
          "duration": 0.018000000000000682
        },
        {
          "name": "D6",
          "midi": 86,
          "time": 42.38500000000099,
          "velocity": 0.5118110236220472,
          "duration": 0.057000000000009265
        },
        {
          "name": "F#4",
          "midi": 66,
          "time": 42.38500000000099,
          "velocity": 0.6299212598425197,
          "duration": 0.018000000000000682
        },
        {
          "name": "D#4",
          "midi": 63,
          "time": 42.39500000000099,
          "velocity": 0.5511811023622047,
          "duration": 0.008000000000002672
        },
        {
          "name": "D#4",
          "midi": 63,
          "time": 42.39500000000099,
          "velocity": 0.5511811023622047,
          "duration": 0.008000000000002672
        },
        {
          "name": "G5",
          "midi": 79,
          "time": 42.415000000000994,
          "velocity": 0.5039370078740157,
          "duration": 0.008000000000002672
        },
        {
          "name": "G5",
          "midi": 79,
          "time": 42.415000000000994,
          "velocity": 0.5039370078740157,
          "duration": 0.008000000000002672
        },
        {
          "name": "B2",
          "midi": 47,
          "time": 42.425000000001,
          "velocity": 0.5196850393700787,
          "duration": 0.008000000000002672
        },
        {
          "name": "B2",
          "midi": 47,
          "time": 42.425000000001,
          "velocity": 0.5196850393700787,
          "duration": 0.008000000000002672
        },
        {
          "name": "D5",
          "midi": 74,
          "time": 42.445000000001,
          "velocity": 0.5118110236220472,
          "duration": 0.03700000000000614
        },
        {
          "name": "D5",
          "midi": 74,
          "time": 42.445000000001,
          "velocity": 0.5118110236220472,
          "duration": 0.03700000000000614
        },
        {
          "name": "B4",
          "midi": 71,
          "time": 42.454000000001,
          "velocity": 0.48031496062992124,
          "duration": 0.018000000000000682
        },
        {
          "name": "B4",
          "midi": 71,
          "time": 42.454000000001,
          "velocity": 0.48031496062992124,
          "duration": 0.018000000000000682
        },
        {
          "name": "G#2",
          "midi": 44,
          "time": 42.474000000001006,
          "velocity": 0.7244094488188977,
          "duration": 0.018000000000000682
        },
        {
          "name": "D4",
          "midi": 62,
          "time": 42.474000000001006,
          "velocity": 0.4881889763779528,
          "duration": 0.027999999999998693
        },
        {
          "name": "G#2",
          "midi": 44,
          "time": 42.474000000001006,
          "velocity": 0.7244094488188977,
          "duration": 0.018000000000000682
        },
        {
          "name": "D4",
          "midi": 62,
          "time": 42.474000000001006,
          "velocity": 0.4881889763779528,
          "duration": 0.027999999999998693
        },
        {
          "name": "A2",
          "midi": 45,
          "time": 42.50400000000101,
          "velocity": 0.8818897637795275,
          "duration": 0.06700000000000728
        },
        {
          "name": "A2",
          "midi": 45,
          "time": 42.50400000000101,
          "velocity": 0.8818897637795275,
          "duration": 0.06700000000000728
        },
        {
          "name": "E5",
          "midi": 76,
          "time": 42.514000000001005,
          "velocity": 0.4409448818897638,
          "duration": 0.04700000000000415
        },
        {
          "name": "E5",
          "midi": 76,
          "time": 42.514000000001005,
          "velocity": 0.4409448818897638,
          "duration": 0.04700000000000415
        },
        {
          "name": "E4",
          "midi": 64,
          "time": 42.523000000001005,
          "velocity": 0.5433070866141733,
          "duration": 0.14600000000003632
        },
        {
          "name": "G5",
          "midi": 79,
          "time": 42.523000000001005,
          "velocity": 0.4409448818897638,
          "duration": 0.018000000000000682
        },
        {
          "name": "E4",
          "midi": 64,
          "time": 42.523000000001005,
          "velocity": 0.5433070866141733,
          "duration": 0.14600000000003632
        },
        {
          "name": "G5",
          "midi": 79,
          "time": 42.523000000001005,
          "velocity": 0.4409448818897638,
          "duration": 0.018000000000000682
        },
        {
          "name": "G5",
          "midi": 79,
          "time": 42.56300000000101,
          "velocity": 0.4566929133858268,
          "duration": 0.018000000000007788
        },
        {
          "name": "G5",
          "midi": 79,
          "time": 42.56300000000101,
          "velocity": 0.4566929133858268,
          "duration": 0.018000000000007788
        },
        {
          "name": "D4",
          "midi": 62,
          "time": 42.57300000000102,
          "velocity": 0.4881889763779528,
          "duration": 0.037000000000013245
        },
        {
          "name": "D4",
          "midi": 62,
          "time": 42.57300000000102,
          "velocity": 0.4881889763779528,
          "duration": 0.037000000000013245
        },
        {
          "name": "A#2",
          "midi": 46,
          "time": 42.58300000000102,
          "velocity": 0.5984251968503937,
          "duration": 0.008000000000002672
        },
        {
          "name": "A#2",
          "midi": 46,
          "time": 42.58300000000102,
          "velocity": 0.5984251968503937,
          "duration": 0.008000000000002672
        },
        {
          "name": "C4",
          "midi": 60,
          "time": 42.60200000000103,
          "velocity": 0.5984251968503937,
          "duration": 0.136000000000017
        },
        {
          "name": "C4",
          "midi": 60,
          "time": 42.60200000000103,
          "velocity": 0.5984251968503937,
          "duration": 0.136000000000017
        },
        {
          "name": "G#2",
          "midi": 44,
          "time": 42.61200000000103,
          "velocity": 0.6614173228346457,
          "duration": 0.028000000000005798
        },
        {
          "name": "G#2",
          "midi": 44,
          "time": 42.61200000000103,
          "velocity": 0.6614173228346457,
          "duration": 0.028000000000005798
        },
        {
          "name": "G3",
          "midi": 55,
          "time": 42.632000000001035,
          "velocity": 0.5748031496062992,
          "duration": 0.07700000000000529
        },
        {
          "name": "G3",
          "midi": 55,
          "time": 42.632000000001035,
          "velocity": 0.5748031496062992,
          "duration": 0.07700000000000529
        },
        {
          "name": "G5",
          "midi": 79,
          "time": 42.64200000000104,
          "velocity": 0.5669291338582677,
          "duration": 0.1360000000000099
        },
        {
          "name": "G5",
          "midi": 79,
          "time": 42.64200000000104,
          "velocity": 0.5669291338582677,
          "duration": 0.1360000000000099
        },
        {
          "name": "D6",
          "midi": 86,
          "time": 42.65200000000104,
          "velocity": 0.5748031496062992,
          "duration": 0.0870000000000033
        },
        {
          "name": "D6",
          "midi": 86,
          "time": 42.65200000000104,
          "velocity": 0.5748031496062992,
          "duration": 0.0870000000000033
        },
        {
          "name": "E4",
          "midi": 64,
          "time": 42.69100000000104,
          "velocity": 0.6929133858267716,
          "duration": 0.11600000000001387
        },
        {
          "name": "E4",
          "midi": 64,
          "time": 42.69100000000104,
          "velocity": 0.6929133858267716,
          "duration": 0.11600000000001387
        },
        {
          "name": "B4",
          "midi": 71,
          "time": 42.72100000000104,
          "velocity": 0.5354330708661418,
          "duration": 0.09700000000000841
        },
        {
          "name": "B4",
          "midi": 71,
          "time": 42.72100000000104,
          "velocity": 0.5354330708661418,
          "duration": 0.09700000000000841
        },
        {
          "name": "F3",
          "midi": 53,
          "time": 42.750000000001044,
          "velocity": 0.5275590551181102,
          "duration": 0.008000000000002672
        },
        {
          "name": "G3",
          "midi": 55,
          "time": 42.750000000001044,
          "velocity": 0.5590551181102362,
          "duration": 0.06700000000000728
        },
        {
          "name": "F3",
          "midi": 53,
          "time": 42.750000000001044,
          "velocity": 0.5275590551181102,
          "duration": 0.008000000000002672
        },
        {
          "name": "G3",
          "midi": 55,
          "time": 42.750000000001044,
          "velocity": 0.5590551181102362,
          "duration": 0.06700000000000728
        },
        {
          "name": "E3",
          "midi": 52,
          "time": 42.77000000000105,
          "velocity": 0.5275590551181102,
          "duration": 0.018000000000000682
        },
        {
          "name": "E3",
          "midi": 52,
          "time": 42.77000000000105,
          "velocity": 0.5275590551181102,
          "duration": 0.018000000000000682
        },
        {
          "name": "E6",
          "midi": 88,
          "time": 42.79000000000105,
          "velocity": 0.49606299212598426,
          "duration": 0.008000000000002672
        },
        {
          "name": "E6",
          "midi": 88,
          "time": 42.79000000000105,
          "velocity": 0.49606299212598426,
          "duration": 0.008000000000002672
        },
        {
          "name": "D5",
          "midi": 74,
          "time": 42.800000000001056,
          "velocity": 0.5039370078740157,
          "duration": 0.017999999999993577
        },
        {
          "name": "D5",
          "midi": 74,
          "time": 42.800000000001056,
          "velocity": 0.5039370078740157,
          "duration": 0.017999999999993577
        },
        {
          "name": "D#4",
          "midi": 63,
          "time": 42.81900000000105,
          "velocity": 0.6614173228346457,
          "duration": 0.018000000000007788
        },
        {
          "name": "D#4",
          "midi": 63,
          "time": 42.81900000000105,
          "velocity": 0.6614173228346457,
          "duration": 0.018000000000007788
        },
        {
          "name": "G4",
          "midi": 67,
          "time": 42.82900000000105,
          "velocity": 0.7480314960629921,
          "duration": 0.41200000000002035
        },
        {
          "name": "A3",
          "midi": 57,
          "time": 42.82900000000105,
          "velocity": 0.5354330708661418,
          "duration": 0.018000000000000682
        },
        {
          "name": "D6",
          "midi": 86,
          "time": 42.82900000000105,
          "velocity": 0.5039370078740157,
          "duration": 0.008000000000002672
        },
        {
          "name": "G4",
          "midi": 67,
          "time": 42.82900000000105,
          "velocity": 0.7480314960629921,
          "duration": 0.41200000000002035
        },
        {
          "name": "A3",
          "midi": 57,
          "time": 42.82900000000105,
          "velocity": 0.5354330708661418,
          "duration": 0.018000000000000682
        },
        {
          "name": "D6",
          "midi": 86,
          "time": 42.82900000000105,
          "velocity": 0.5039370078740157,
          "duration": 0.008000000000002672
        },
        {
          "name": "D3",
          "midi": 50,
          "time": 42.849000000001055,
          "velocity": 0.5669291338582677,
          "duration": 0.046999999999997044
        },
        {
          "name": "E4",
          "midi": 64,
          "time": 42.849000000001055,
          "velocity": 0.5984251968503937,
          "duration": 0.12599999999999767
        },
        {
          "name": "F#6",
          "midi": 90,
          "time": 42.849000000001055,
          "velocity": 0.5433070866141733,
          "duration": 0.036999999999999034
        },
        {
          "name": "D3",
          "midi": 50,
          "time": 42.849000000001055,
          "velocity": 0.5669291338582677,
          "duration": 0.046999999999997044
        },
        {
          "name": "E4",
          "midi": 64,
          "time": 42.849000000001055,
          "velocity": 0.5984251968503937,
          "duration": 0.12599999999999767
        },
        {
          "name": "F#6",
          "midi": 90,
          "time": 42.849000000001055,
          "velocity": 0.5433070866141733,
          "duration": 0.036999999999999034
        },
        {
          "name": "G3",
          "midi": 55,
          "time": 42.86900000000106,
          "velocity": 0.5984251968503937,
          "duration": 0.17600000000000193
        },
        {
          "name": "G3",
          "midi": 55,
          "time": 42.86900000000106,
          "velocity": 0.5984251968503937,
          "duration": 0.17600000000000193
        },
        {
          "name": "D6",
          "midi": 86,
          "time": 42.87900000000106,
          "velocity": 0.5118110236220472,
          "duration": 0.017999999999993577
        },
        {
          "name": "D6",
          "midi": 86,
          "time": 42.87900000000106,
          "velocity": 0.5118110236220472,
          "duration": 0.017999999999993577
        },
        {
          "name": "A#2",
          "midi": 46,
          "time": 42.90800000000105,
          "velocity": 0.6062992125984252,
          "duration": 0.036999999999999034
        },
        {
          "name": "D3",
          "midi": 50,
          "time": 42.90800000000105,
          "velocity": 0.5905511811023622,
          "duration": 0.046999999999997044
        },
        {
          "name": "C4",
          "midi": 60,
          "time": 42.90800000000105,
          "velocity": 0.4881889763779528,
          "duration": 0.018000000000000682
        },
        {
          "name": "A#2",
          "midi": 46,
          "time": 42.90800000000105,
          "velocity": 0.6062992125984252,
          "duration": 0.036999999999999034
        },
        {
          "name": "D3",
          "midi": 50,
          "time": 42.90800000000105,
          "velocity": 0.5905511811023622,
          "duration": 0.046999999999997044
        },
        {
          "name": "C4",
          "midi": 60,
          "time": 42.90800000000105,
          "velocity": 0.4881889763779528,
          "duration": 0.018000000000000682
        },
        {
          "name": "G5",
          "midi": 79,
          "time": 42.95700000000105,
          "velocity": 0.4645669291338583,
          "duration": 0.018000000000000682
        },
        {
          "name": "G5",
          "midi": 79,
          "time": 42.95700000000105,
          "velocity": 0.4645669291338583,
          "duration": 0.018000000000000682
        },
        {
          "name": "D5",
          "midi": 74,
          "time": 42.977000000001055,
          "velocity": 0.4645669291338583,
          "duration": 0.036999999999999034
        },
        {
          "name": "D5",
          "midi": 74,
          "time": 42.977000000001055,
          "velocity": 0.4645669291338583,
          "duration": 0.036999999999999034
        },
        {
          "name": "A2",
          "midi": 45,
          "time": 42.98700000000105,
          "velocity": 0.5196850393700787,
          "duration": 0.008000000000002672
        },
        {
          "name": "A2",
          "midi": 45,
          "time": 42.98700000000105,
          "velocity": 0.5196850393700787,
          "duration": 0.008000000000002672
        },
        {
          "name": "E4",
          "midi": 64,
          "time": 42.99700000000106,
          "velocity": 0.5354330708661418,
          "duration": 0.09700000000000131
        },
        {
          "name": "E4",
          "midi": 64,
          "time": 42.99700000000106,
          "velocity": 0.5354330708661418,
          "duration": 0.09700000000000131
        },
        {
          "name": "A#2",
          "midi": 46,
          "time": 43.00700000000106,
          "velocity": 0.5196850393700787,
          "duration": 0.018000000000000682
        },
        {
          "name": "A#2",
          "midi": 46,
          "time": 43.00700000000106,
          "velocity": 0.5196850393700787,
          "duration": 0.018000000000000682
        },
        {
          "name": "D4",
          "midi": 62,
          "time": 43.04600000000106,
          "velocity": 0.5118110236220472,
          "duration": 0.018000000000000682
        },
        {
          "name": "D5",
          "midi": 74,
          "time": 43.04600000000106,
          "velocity": 0.5196850393700787,
          "duration": 0.21500000000001762
        },
        {
          "name": "B3",
          "midi": 59,
          "time": 43.04600000000106,
          "velocity": 0.5905511811023622,
          "duration": 0.06700000000000017
        },
        {
          "name": "D4",
          "midi": 62,
          "time": 43.04600000000106,
          "velocity": 0.5118110236220472,
          "duration": 0.018000000000000682
        },
        {
          "name": "D5",
          "midi": 74,
          "time": 43.04600000000106,
          "velocity": 0.5196850393700787,
          "duration": 0.21500000000001762
        },
        {
          "name": "B3",
          "midi": 59,
          "time": 43.04600000000106,
          "velocity": 0.5905511811023622,
          "duration": 0.06700000000000017
        },
        {
          "name": "G3",
          "midi": 55,
          "time": 43.06600000000106,
          "velocity": 0.5748031496062992,
          "duration": 0.036999999999999034
        },
        {
          "name": "G3",
          "midi": 55,
          "time": 43.06600000000106,
          "velocity": 0.5748031496062992,
          "duration": 0.036999999999999034
        },
        {
          "name": "D6",
          "midi": 86,
          "time": 43.09600000000106,
          "velocity": 0.5669291338582677,
          "duration": 0.046999999999997044
        },
        {
          "name": "D6",
          "midi": 86,
          "time": 43.09600000000106,
          "velocity": 0.5669291338582677,
          "duration": 0.046999999999997044
        },
        {
          "name": "B4",
          "midi": 71,
          "time": 43.11500000000106,
          "velocity": 0.49606299212598426,
          "duration": 0.027999999999998693
        },
        {
          "name": "F#3",
          "midi": 54,
          "time": 43.11500000000106,
          "velocity": 0.6377952755905512,
          "duration": 0.018000000000000682
        },
        {
          "name": "B4",
          "midi": 71,
          "time": 43.11500000000106,
          "velocity": 0.49606299212598426,
          "duration": 0.027999999999998693
        },
        {
          "name": "F#3",
          "midi": 54,
          "time": 43.11500000000106,
          "velocity": 0.6377952755905512,
          "duration": 0.018000000000000682
        },
        {
          "name": "A4",
          "midi": 69,
          "time": 43.14500000000106,
          "velocity": 0.6850393700787402,
          "duration": 0.15600000000001302
        },
        {
          "name": "A4",
          "midi": 69,
          "time": 43.14500000000106,
          "velocity": 0.6850393700787402,
          "duration": 0.15600000000001302
        },
        {
          "name": "G3",
          "midi": 55,
          "time": 43.15500000000106,
          "velocity": 0.7165354330708661,
          "duration": 0.057000000000009265
        },
        {
          "name": "F3",
          "midi": 53,
          "time": 43.15500000000106,
          "velocity": 0.5118110236220472,
          "duration": 0.008000000000002672
        },
        {
          "name": "G3",
          "midi": 55,
          "time": 43.15500000000106,
          "velocity": 0.7165354330708661,
          "duration": 0.057000000000009265
        },
        {
          "name": "F3",
          "midi": 53,
          "time": 43.15500000000106,
          "velocity": 0.5118110236220472,
          "duration": 0.008000000000002672
        },
        {
          "name": "G5",
          "midi": 79,
          "time": 43.174000000001065,
          "velocity": 0.5039370078740157,
          "duration": 0.027999999999998693
        },
        {
          "name": "F5",
          "midi": 77,
          "time": 43.174000000001065,
          "velocity": 0.5118110236220472,
          "duration": 0.018000000000000682
        },
        {
          "name": "G5",
          "midi": 79,
          "time": 43.174000000001065,
          "velocity": 0.5039370078740157,
          "duration": 0.027999999999998693
        },
        {
          "name": "F5",
          "midi": 77,
          "time": 43.174000000001065,
          "velocity": 0.5118110236220472,
          "duration": 0.018000000000000682
        },
        {
          "name": "D4",
          "midi": 62,
          "time": 43.204000000001066,
          "velocity": 0.5118110236220472,
          "duration": 0.03700000000000614
        },
        {
          "name": "D4",
          "midi": 62,
          "time": 43.204000000001066,
          "velocity": 0.5118110236220472,
          "duration": 0.03700000000000614
        },
        {
          "name": "F3",
          "midi": 53,
          "time": 43.21400000000107,
          "velocity": 0.5039370078740157,
          "duration": 0.008000000000002672
        },
        {
          "name": "F3",
          "midi": 53,
          "time": 43.21400000000107,
          "velocity": 0.5039370078740157,
          "duration": 0.008000000000002672
        },
        {
          "name": "B3",
          "midi": 59,
          "time": 43.234000000001075,
          "velocity": 0.4881889763779528,
          "duration": 0.018000000000000682
        },
        {
          "name": "B3",
          "midi": 59,
          "time": 43.234000000001075,
          "velocity": 0.4881889763779528,
          "duration": 0.018000000000000682
        },
        {
          "name": "F3",
          "midi": 53,
          "time": 43.24400000000107,
          "velocity": 0.5275590551181102,
          "duration": 0.018000000000000682
        },
        {
          "name": "F3",
          "midi": 53,
          "time": 43.24400000000107,
          "velocity": 0.5275590551181102,
          "duration": 0.018000000000000682
        },
        {
          "name": "G#3",
          "midi": 56,
          "time": 43.25300000000107,
          "velocity": 0.5118110236220472,
          "duration": 0.008000000000002672
        },
        {
          "name": "F#4",
          "midi": 66,
          "time": 43.25300000000107,
          "velocity": 0.5354330708661418,
          "duration": 0.008000000000002672
        },
        {
          "name": "G#3",
          "midi": 56,
          "time": 43.25300000000107,
          "velocity": 0.5118110236220472,
          "duration": 0.008000000000002672
        },
        {
          "name": "F#4",
          "midi": 66,
          "time": 43.25300000000107,
          "velocity": 0.5354330708661418,
          "duration": 0.008000000000002672
        },
        {
          "name": "G4",
          "midi": 67,
          "time": 43.273000000001076,
          "velocity": 0.7007874015748031,
          "duration": 0.30400000000000205
        },
        {
          "name": "G3",
          "midi": 55,
          "time": 43.273000000001076,
          "velocity": 0.6141732283464567,
          "duration": 0.7670000000000243
        },
        {
          "name": "G5",
          "midi": 79,
          "time": 43.273000000001076,
          "velocity": 0.5196850393700787,
          "duration": 0.18499999999999517
        },
        {
          "name": "G4",
          "midi": 67,
          "time": 43.273000000001076,
          "velocity": 0.7007874015748031,
          "duration": 0.30400000000000205
        },
        {
          "name": "G3",
          "midi": 55,
          "time": 43.273000000001076,
          "velocity": 0.6141732283464567,
          "duration": 0.7670000000000243
        },
        {
          "name": "G5",
          "midi": 79,
          "time": 43.273000000001076,
          "velocity": 0.5196850393700787,
          "duration": 0.18499999999999517
        },
        {
          "name": "D2",
          "midi": 38,
          "time": 43.283000000001074,
          "velocity": 0.5354330708661418,
          "duration": 0.04700000000000415
        },
        {
          "name": "D2",
          "midi": 38,
          "time": 43.283000000001074,
          "velocity": 0.5354330708661418,
          "duration": 0.04700000000000415
        },
        {
          "name": "C3",
          "midi": 48,
          "time": 43.29300000000107,
          "velocity": 0.8740157480314961,
          "duration": 0.18500000000000227
        },
        {
          "name": "C3",
          "midi": 48,
          "time": 43.29300000000107,
          "velocity": 0.8740157480314961,
          "duration": 0.18500000000000227
        },
        {
          "name": "C4",
          "midi": 60,
          "time": 43.313000000001075,
          "velocity": 0.49606299212598426,
          "duration": 0.08699999999999619
        },
        {
          "name": "C4",
          "midi": 60,
          "time": 43.313000000001075,
          "velocity": 0.49606299212598426,
          "duration": 0.08699999999999619
        },
        {
          "name": "D6",
          "midi": 86,
          "time": 43.362000000001075,
          "velocity": 0.4645669291338583,
          "duration": 0.027999999999998693
        },
        {
          "name": "D6",
          "midi": 86,
          "time": 43.362000000001075,
          "velocity": 0.4645669291338583,
          "duration": 0.027999999999998693
        },
        {
          "name": "D5",
          "midi": 74,
          "time": 43.40100000000107,
          "velocity": 0.47244094488188976,
          "duration": 0.04700000000000415
        },
        {
          "name": "D5",
          "midi": 74,
          "time": 43.40100000000107,
          "velocity": 0.47244094488188976,
          "duration": 0.04700000000000415
        },
        {
          "name": "A3",
          "midi": 57,
          "time": 43.43100000000107,
          "velocity": 0.4330708661417323,
          "duration": 0.008000000000002672
        },
        {
          "name": "A3",
          "midi": 57,
          "time": 43.43100000000107,
          "velocity": 0.4330708661417323,
          "duration": 0.008000000000002672
        },
        {
          "name": "A4",
          "midi": 69,
          "time": 43.45100000000107,
          "velocity": 0.4645669291338583,
          "duration": 0.018000000000000682
        },
        {
          "name": "A4",
          "midi": 69,
          "time": 43.45100000000107,
          "velocity": 0.4645669291338583,
          "duration": 0.018000000000000682
        },
        {
          "name": "B6",
          "midi": 95,
          "time": 43.46100000000107,
          "velocity": 0.5433070866141733,
          "duration": 0.028000000000005798
        },
        {
          "name": "B6",
          "midi": 95,
          "time": 43.46100000000107,
          "velocity": 0.5433070866141733,
          "duration": 0.028000000000005798
        },
        {
          "name": "D7",
          "midi": 98,
          "time": 43.47000000000107,
          "velocity": 0.5984251968503937,
          "duration": 0.10700000000000642
        },
        {
          "name": "D7",
          "midi": 98,
          "time": 43.47000000000107,
          "velocity": 0.5984251968503937,
          "duration": 0.10700000000000642
        },
        {
          "name": "G5",
          "midi": 79,
          "time": 43.490000000001075,
          "velocity": 0.6220472440944882,
          "duration": 0.1460000000000079
        },
        {
          "name": "G5",
          "midi": 79,
          "time": 43.490000000001075,
          "velocity": 0.6220472440944882,
          "duration": 0.1460000000000079
        },
        {
          "name": "G7",
          "midi": 103,
          "time": 43.50000000000107,
          "velocity": 0.6535433070866141,
          "duration": 0.046999999999997044
        },
        {
          "name": "G7",
          "midi": 103,
          "time": 43.50000000000107,
          "velocity": 0.6535433070866141,
          "duration": 0.046999999999997044
        },
        {
          "name": "G6",
          "midi": 91,
          "time": 43.51000000000107,
          "velocity": 0.6062992125984252,
          "duration": 0.05700000000000216
        },
        {
          "name": "G6",
          "midi": 91,
          "time": 43.51000000000107,
          "velocity": 0.6062992125984252,
          "duration": 0.05700000000000216
        },
        {
          "name": "C3",
          "midi": 48,
          "time": 43.569000000001076,
          "velocity": 0.5748031496062992,
          "duration": 0.057000000000009265
        },
        {
          "name": "C3",
          "midi": 48,
          "time": 43.569000000001076,
          "velocity": 0.5748031496062992,
          "duration": 0.057000000000009265
        },
        {
          "name": "C4",
          "midi": 60,
          "time": 43.57900000000108,
          "velocity": 0.5669291338582677,
          "duration": 0.0870000000000033
        },
        {
          "name": "C4",
          "midi": 60,
          "time": 43.57900000000108,
          "velocity": 0.5669291338582677,
          "duration": 0.0870000000000033
        },
        {
          "name": "D5",
          "midi": 74,
          "time": 43.58900000000108,
          "velocity": 0.49606299212598426,
          "duration": 0.018000000000000682
        },
        {
          "name": "E4",
          "midi": 64,
          "time": 43.58900000000108,
          "velocity": 0.5275590551181102,
          "duration": 0.13600000000000279
        },
        {
          "name": "D5",
          "midi": 74,
          "time": 43.58900000000108,
          "velocity": 0.49606299212598426,
          "duration": 0.018000000000000682
        },
        {
          "name": "E4",
          "midi": 64,
          "time": 43.58900000000108,
          "velocity": 0.5275590551181102,
          "duration": 0.13600000000000279
        },
        {
          "name": "G4",
          "midi": 67,
          "time": 43.61800000000108,
          "velocity": 0.5905511811023622,
          "duration": 0.09700000000000131
        },
        {
          "name": "G4",
          "midi": 67,
          "time": 43.61800000000108,
          "velocity": 0.5905511811023622,
          "duration": 0.09700000000000131
        },
        {
          "name": "D5",
          "midi": 74,
          "time": 43.668000000001086,
          "velocity": 0.5511811023622047,
          "duration": 0.06699999999999307
        },
        {
          "name": "D5",
          "midi": 74,
          "time": 43.668000000001086,
          "velocity": 0.5511811023622047,
          "duration": 0.06699999999999307
        },
        {
          "name": "C3",
          "midi": 48,
          "time": 43.678000000001084,
          "velocity": 0.6377952755905512,
          "duration": 0.027999999999998693
        },
        {
          "name": "C3",
          "midi": 48,
          "time": 43.678000000001084,
          "velocity": 0.6377952755905512,
          "duration": 0.027999999999998693
        },
        {
          "name": "B4",
          "midi": 71,
          "time": 43.687000000001085,
          "velocity": 0.48031496062992124,
          "duration": 0.027999999999998693
        },
        {
          "name": "B4",
          "midi": 71,
          "time": 43.687000000001085,
          "velocity": 0.48031496062992124,
          "duration": 0.027999999999998693
        },
        {
          "name": "A#2",
          "midi": 46,
          "time": 43.73700000000108,
          "velocity": 0.8818897637795275,
          "duration": 0.036999999999999034
        },
        {
          "name": "G4",
          "midi": 67,
          "time": 43.73700000000108,
          "velocity": 0.5196850393700787,
          "duration": 0.17600000000000193
        },
        {
          "name": "B4",
          "midi": 71,
          "time": 43.73700000000108,
          "velocity": 0.7637795275590551,
          "duration": 0.3330000000000197
        },
        {
          "name": "A#2",
          "midi": 46,
          "time": 43.73700000000108,
          "velocity": 0.8818897637795275,
          "duration": 0.036999999999999034
        },
        {
          "name": "G4",
          "midi": 67,
          "time": 43.73700000000108,
          "velocity": 0.5196850393700787,
          "duration": 0.17600000000000193
        },
        {
          "name": "B4",
          "midi": 71,
          "time": 43.73700000000108,
          "velocity": 0.7637795275590551,
          "duration": 0.3330000000000197
        },
        {
          "name": "E4",
          "midi": 64,
          "time": 43.74700000000108,
          "velocity": 0.5039370078740157,
          "duration": 0.008000000000002672
        },
        {
          "name": "E4",
          "midi": 64,
          "time": 43.74700000000108,
          "velocity": 0.5039370078740157,
          "duration": 0.008000000000002672
        },
        {
          "name": "D4",
          "midi": 62,
          "time": 43.75600000000108,
          "velocity": 0.4881889763779528,
          "duration": 0.11600000000000676
        },
        {
          "name": "D4",
          "midi": 62,
          "time": 43.75600000000108,
          "velocity": 0.4881889763779528,
          "duration": 0.11600000000000676
        },
        {
          "name": "F4",
          "midi": 65,
          "time": 43.76600000000108,
          "velocity": 0.49606299212598426,
          "duration": 0.06700000000000017
        },
        {
          "name": "F4",
          "midi": 65,
          "time": 43.76600000000108,
          "velocity": 0.49606299212598426,
          "duration": 0.06700000000000017
        },
        {
          "name": "G#2",
          "midi": 44,
          "time": 43.79600000000108,
          "velocity": 0.8740157480314961,
          "duration": 0.018000000000000682
        },
        {
          "name": "G#2",
          "midi": 44,
          "time": 43.79600000000108,
          "velocity": 0.8740157480314961,
          "duration": 0.018000000000000682
        },
        {
          "name": "A#2",
          "midi": 46,
          "time": 43.84500000000108,
          "velocity": 0.7480314960629921,
          "duration": 0.008000000000002672
        },
        {
          "name": "A#2",
          "midi": 46,
          "time": 43.84500000000108,
          "velocity": 0.7480314960629921,
          "duration": 0.008000000000002672
        },
        {
          "name": "A3",
          "midi": 57,
          "time": 43.855000000001084,
          "velocity": 0.48031496062992124,
          "duration": 0.008000000000002672
        },
        {
          "name": "A3",
          "midi": 57,
          "time": 43.855000000001084,
          "velocity": 0.48031496062992124,
          "duration": 0.008000000000002672
        },
        {
          "name": "A2",
          "midi": 45,
          "time": 43.87500000000109,
          "velocity": 0.8661417322834646,
          "duration": 0.036999999999999034
        },
        {
          "name": "A2",
          "midi": 45,
          "time": 43.87500000000109,
          "velocity": 0.8661417322834646,
          "duration": 0.036999999999999034
        },
        {
          "name": "C#3",
          "midi": 49,
          "time": 43.885000000001085,
          "velocity": 0.48031496062992124,
          "duration": 0.008000000000002672
        },
        {
          "name": "B3",
          "midi": 59,
          "time": 43.885000000001085,
          "velocity": 0.4645669291338583,
          "duration": 0.036999999999999034
        },
        {
          "name": "C#3",
          "midi": 49,
          "time": 43.885000000001085,
          "velocity": 0.48031496062992124,
          "duration": 0.008000000000002672
        },
        {
          "name": "B3",
          "midi": 59,
          "time": 43.885000000001085,
          "velocity": 0.4645669291338583,
          "duration": 0.036999999999999034
        },
        {
          "name": "G4",
          "midi": 67,
          "time": 43.91400000000108,
          "velocity": 0.4881889763779528,
          "duration": 0.10700000000002063
        },
        {
          "name": "G4",
          "midi": 67,
          "time": 43.91400000000108,
          "velocity": 0.4881889763779528,
          "duration": 0.10700000000002063
        },
        {
          "name": "G2",
          "midi": 43,
          "time": 43.934000000001085,
          "velocity": 0.4881889763779528,
          "duration": 0.008000000000002672
        },
        {
          "name": "C3",
          "midi": 48,
          "time": 43.934000000001085,
          "velocity": 0.48031496062992124,
          "duration": 0.008000000000002672
        },
        {
          "name": "G2",
          "midi": 43,
          "time": 43.934000000001085,
          "velocity": 0.4881889763779528,
          "duration": 0.008000000000002672
        },
        {
          "name": "C3",
          "midi": 48,
          "time": 43.934000000001085,
          "velocity": 0.48031496062992124,
          "duration": 0.008000000000002672
        },
        {
          "name": "D#4",
          "midi": 63,
          "time": 43.94400000000109,
          "velocity": 0.4409448818897638,
          "duration": 0.018000000000000682
        },
        {
          "name": "D#4",
          "midi": 63,
          "time": 43.94400000000109,
          "velocity": 0.4409448818897638,
          "duration": 0.018000000000000682
        },
        {
          "name": "A2",
          "midi": 45,
          "time": 43.95400000000109,
          "velocity": 0.49606299212598426,
          "duration": 0.07700000000001239
        },
        {
          "name": "A2",
          "midi": 45,
          "time": 43.95400000000109,
          "velocity": 0.49606299212598426,
          "duration": 0.07700000000001239
        },
        {
          "name": "C4",
          "midi": 60,
          "time": 43.97300000000109,
          "velocity": 0.5984251968503937,
          "duration": 0.2050000000000196
        },
        {
          "name": "C4",
          "midi": 60,
          "time": 43.97300000000109,
          "velocity": 0.5984251968503937,
          "duration": 0.2050000000000196
        },
        {
          "name": "C5",
          "midi": 72,
          "time": 43.993000000001096,
          "velocity": 0.4645669291338583,
          "duration": 0.008000000000002672
        },
        {
          "name": "C5",
          "midi": 72,
          "time": 43.993000000001096,
          "velocity": 0.4645669291338583,
          "duration": 0.008000000000002672
        },
        {
          "name": "F#5",
          "midi": 78,
          "time": 44.0130000000011,
          "velocity": 0.44881889763779526,
          "duration": 0.027999999999998693
        },
        {
          "name": "F#5",
          "midi": 78,
          "time": 44.0130000000011,
          "velocity": 0.44881889763779526,
          "duration": 0.027999999999998693
        },
        {
          "name": "B4",
          "midi": 71,
          "time": 44.0330000000011,
          "velocity": 0.6299212598425197,
          "duration": 0.12600000000001188
        },
        {
          "name": "B4",
          "midi": 71,
          "time": 44.0330000000011,
          "velocity": 0.6299212598425197,
          "duration": 0.12600000000001188
        },
        {
          "name": "C6",
          "midi": 84,
          "time": 44.0430000000011,
          "velocity": 0.4566929133858268,
          "duration": 0.018000000000000682
        },
        {
          "name": "C6",
          "midi": 84,
          "time": 44.0430000000011,
          "velocity": 0.4566929133858268,
          "duration": 0.018000000000000682
        },
        {
          "name": "G5",
          "midi": 79,
          "time": 44.0520000000011,
          "velocity": 0.48031496062992124,
          "duration": 0.10700000000001353
        },
        {
          "name": "G5",
          "midi": 79,
          "time": 44.0520000000011,
          "velocity": 0.48031496062992124,
          "duration": 0.10700000000001353
        },
        {
          "name": "F4",
          "midi": 65,
          "time": 44.0620000000011,
          "velocity": 0.4409448818897638,
          "duration": 0.028000000000005798
        },
        {
          "name": "F4",
          "midi": 65,
          "time": 44.0620000000011,
          "velocity": 0.4409448818897638,
          "duration": 0.028000000000005798
        },
        {
          "name": "G2",
          "midi": 43,
          "time": 44.09200000000111,
          "velocity": 0.4566929133858268,
          "duration": 0.018000000000000682
        },
        {
          "name": "C5",
          "midi": 72,
          "time": 44.09200000000111,
          "velocity": 0.7401574803149606,
          "duration": 0.15600000000002723
        },
        {
          "name": "G2",
          "midi": 43,
          "time": 44.09200000000111,
          "velocity": 0.4566929133858268,
          "duration": 0.018000000000000682
        },
        {
          "name": "C5",
          "midi": 72,
          "time": 44.09200000000111,
          "velocity": 0.7401574803149606,
          "duration": 0.15600000000002723
        },
        {
          "name": "A3",
          "midi": 57,
          "time": 44.102000000001105,
          "velocity": 0.44881889763779526,
          "duration": 0.008000000000002672
        },
        {
          "name": "A3",
          "midi": 57,
          "time": 44.102000000001105,
          "velocity": 0.44881889763779526,
          "duration": 0.008000000000002672
        },
        {
          "name": "A#2",
          "midi": 46,
          "time": 44.13100000000111,
          "velocity": 0.47244094488188976,
          "duration": 0.008000000000002672
        },
        {
          "name": "A#2",
          "midi": 46,
          "time": 44.13100000000111,
          "velocity": 0.47244094488188976,
          "duration": 0.008000000000002672
        },
        {
          "name": "G4",
          "midi": 67,
          "time": 44.141000000001114,
          "velocity": 0.47244094488188976,
          "duration": 0.027999999999998693
        },
        {
          "name": "G4",
          "midi": 67,
          "time": 44.141000000001114,
          "velocity": 0.47244094488188976,
          "duration": 0.027999999999998693
        },
        {
          "name": "G3",
          "midi": 55,
          "time": 44.15100000000111,
          "velocity": 0.4566929133858268,
          "duration": 0.027999999999998693
        },
        {
          "name": "G3",
          "midi": 55,
          "time": 44.15100000000111,
          "velocity": 0.4566929133858268,
          "duration": 0.027999999999998693
        },
        {
          "name": "A4",
          "midi": 69,
          "time": 44.171000000001115,
          "velocity": 0.49606299212598426,
          "duration": 0.03700000000000614
        },
        {
          "name": "D4",
          "midi": 62,
          "time": 44.171000000001115,
          "velocity": 0.5275590551181102,
          "duration": 0.047000000000011255
        },
        {
          "name": "A4",
          "midi": 69,
          "time": 44.171000000001115,
          "velocity": 0.49606299212598426,
          "duration": 0.03700000000000614
        },
        {
          "name": "D4",
          "midi": 62,
          "time": 44.171000000001115,
          "velocity": 0.5275590551181102,
          "duration": 0.047000000000011255
        },
        {
          "name": "D5",
          "midi": 74,
          "time": 44.18100000000111,
          "velocity": 0.5826771653543307,
          "duration": 0.06700000000002149
        },
        {
          "name": "D5",
          "midi": 74,
          "time": 44.18100000000111,
          "velocity": 0.5826771653543307,
          "duration": 0.06700000000002149
        },
        {
          "name": "B4",
          "midi": 71,
          "time": 44.19000000000111,
          "velocity": 0.6220472440944882,
          "duration": 0.008000000000002672
        },
        {
          "name": "B4",
          "midi": 71,
          "time": 44.19000000000111,
          "velocity": 0.6220472440944882,
          "duration": 0.008000000000002672
        },
        {
          "name": "F5",
          "midi": 77,
          "time": 44.20000000000112,
          "velocity": 0.5275590551181102,
          "duration": 0.10700000000001353
        },
        {
          "name": "F5",
          "midi": 77,
          "time": 44.20000000000112,
          "velocity": 0.5275590551181102,
          "duration": 0.10700000000001353
        },
        {
          "name": "F4",
          "midi": 65,
          "time": 44.21000000000112,
          "velocity": 0.5039370078740157,
          "duration": 0.1950000000000216
        },
        {
          "name": "F4",
          "midi": 65,
          "time": 44.21000000000112,
          "velocity": 0.5039370078740157,
          "duration": 0.1950000000000216
        },
        {
          "name": "C6",
          "midi": 84,
          "time": 44.22000000000113,
          "velocity": 0.5354330708661418,
          "duration": 0.10700000000000642
        },
        {
          "name": "C6",
          "midi": 84,
          "time": 44.22000000000113,
          "velocity": 0.5354330708661418,
          "duration": 0.10700000000000642
        },
        {
          "name": "C5",
          "midi": 72,
          "time": 44.24000000000113,
          "velocity": 0.7007874015748031,
          "duration": 0.06700000000000017
        },
        {
          "name": "C5",
          "midi": 72,
          "time": 44.24000000000113,
          "velocity": 0.7007874015748031,
          "duration": 0.06700000000000017
        },
        {
          "name": "D5",
          "midi": 74,
          "time": 44.260000000001135,
          "velocity": 0.5275590551181102,
          "duration": 0.11599999999999966
        },
        {
          "name": "C4",
          "midi": 60,
          "time": 44.260000000001135,
          "velocity": 0.5118110236220472,
          "duration": 0.18500000000001648
        },
        {
          "name": "D5",
          "midi": 74,
          "time": 44.260000000001135,
          "velocity": 0.5275590551181102,
          "duration": 0.11599999999999966
        },
        {
          "name": "C4",
          "midi": 60,
          "time": 44.260000000001135,
          "velocity": 0.5118110236220472,
          "duration": 0.18500000000001648
        },
        {
          "name": "C5",
          "midi": 72,
          "time": 44.31900000000113,
          "velocity": 0.7165354330708661,
          "duration": 0.06700000000000728
        },
        {
          "name": "C5",
          "midi": 72,
          "time": 44.31900000000113,
          "velocity": 0.7165354330708661,
          "duration": 0.06700000000000728
        },
        {
          "name": "F#5",
          "midi": 78,
          "time": 44.32900000000114,
          "velocity": 0.48031496062992124,
          "duration": 0.018000000000000682
        },
        {
          "name": "F#5",
          "midi": 78,
          "time": 44.32900000000114,
          "velocity": 0.48031496062992124,
          "duration": 0.018000000000000682
        },
        {
          "name": "B4",
          "midi": 71,
          "time": 44.348000000001136,
          "velocity": 0.7007874015748031,
          "duration": 0.15600000000002012
        },
        {
          "name": "B4",
          "midi": 71,
          "time": 44.348000000001136,
          "velocity": 0.7007874015748031,
          "duration": 0.15600000000002012
        },
        {
          "name": "F5",
          "midi": 77,
          "time": 44.37800000000114,
          "velocity": 0.4645669291338583,
          "duration": 0.1360000000000241
        },
        {
          "name": "F5",
          "midi": 77,
          "time": 44.37800000000114,
          "velocity": 0.4645669291338583,
          "duration": 0.1360000000000241
        },
        {
          "name": "F#5",
          "midi": 78,
          "time": 44.38800000000114,
          "velocity": 0.44881889763779526,
          "duration": 0.03700000000000614
        },
        {
          "name": "F#5",
          "midi": 78,
          "time": 44.38800000000114,
          "velocity": 0.44881889763779526,
          "duration": 0.03700000000000614
        },
        {
          "name": "C5",
          "midi": 72,
          "time": 44.40700000000115,
          "velocity": 0.49606299212598426,
          "duration": 0.008000000000002672
        },
        {
          "name": "C5",
          "midi": 72,
          "time": 44.40700000000115,
          "velocity": 0.49606299212598426,
          "duration": 0.008000000000002672
        },
        {
          "name": "D#7",
          "midi": 99,
          "time": 44.42700000000115,
          "velocity": 0.5118110236220472,
          "duration": 0.057000000000009265
        },
        {
          "name": "D#7",
          "midi": 99,
          "time": 44.42700000000115,
          "velocity": 0.5118110236220472,
          "duration": 0.057000000000009265
        },
        {
          "name": "C5",
          "midi": 72,
          "time": 44.43700000000115,
          "velocity": 0.4645669291338583,
          "duration": 0.008000000000002672
        },
        {
          "name": "C5",
          "midi": 72,
          "time": 44.43700000000115,
          "velocity": 0.4645669291338583,
          "duration": 0.008000000000002672
        },
        {
          "name": "F#6",
          "midi": 90,
          "time": 44.447000000001154,
          "velocity": 0.44881889763779526,
          "duration": 0.008000000000002672
        },
        {
          "name": "F#6",
          "midi": 90,
          "time": 44.447000000001154,
          "velocity": 0.44881889763779526,
          "duration": 0.008000000000002672
        },
        {
          "name": "C4",
          "midi": 60,
          "time": 44.45700000000116,
          "velocity": 0.4409448818897638,
          "duration": 0.027999999999998693
        },
        {
          "name": "C4",
          "midi": 60,
          "time": 44.45700000000116,
          "velocity": 0.4409448818897638,
          "duration": 0.027999999999998693
        },
        {
          "name": "A#4",
          "midi": 70,
          "time": 44.46700000000116,
          "velocity": 0.49606299212598426,
          "duration": 0.027999999999998693
        },
        {
          "name": "A#4",
          "midi": 70,
          "time": 44.46700000000116,
          "velocity": 0.49606299212598426,
          "duration": 0.027999999999998693
        },
        {
          "name": "A4",
          "midi": 69,
          "time": 44.486000000001155,
          "velocity": 0.6850393700787402,
          "duration": 0.146000000000015
        },
        {
          "name": "A4",
          "midi": 69,
          "time": 44.486000000001155,
          "velocity": 0.6850393700787402,
          "duration": 0.146000000000015
        },
        {
          "name": "G#3",
          "midi": 56,
          "time": 44.49600000000115,
          "velocity": 0.4566929133858268,
          "duration": 0.047000000000011255
        },
        {
          "name": "E5",
          "midi": 76,
          "time": 44.49600000000115,
          "velocity": 0.5433070866141733,
          "duration": 0.09700000000000841
        },
        {
          "name": "G#3",
          "midi": 56,
          "time": 44.49600000000115,
          "velocity": 0.4566929133858268,
          "duration": 0.047000000000011255
        },
        {
          "name": "E5",
          "midi": 76,
          "time": 44.49600000000115,
          "velocity": 0.5433070866141733,
          "duration": 0.09700000000000841
        },
        {
          "name": "B4",
          "midi": 71,
          "time": 44.50600000000116,
          "velocity": 0.5433070866141733,
          "duration": 0.09700000000000841
        },
        {
          "name": "B4",
          "midi": 71,
          "time": 44.50600000000116,
          "velocity": 0.5433070866141733,
          "duration": 0.09700000000000841
        },
        {
          "name": "B3",
          "midi": 59,
          "time": 44.51600000000116,
          "velocity": 0.4566929133858268,
          "duration": 0.018000000000000682
        },
        {
          "name": "B3",
          "midi": 59,
          "time": 44.51600000000116,
          "velocity": 0.4566929133858268,
          "duration": 0.018000000000000682
        },
        {
          "name": "C5",
          "midi": 72,
          "time": 44.52600000000116,
          "velocity": 0.44881889763779526,
          "duration": 0.008000000000002672
        },
        {
          "name": "C5",
          "midi": 72,
          "time": 44.52600000000116,
          "velocity": 0.44881889763779526,
          "duration": 0.008000000000002672
        },
        {
          "name": "E6",
          "midi": 88,
          "time": 44.546000000001165,
          "velocity": 0.4566929133858268,
          "duration": 0.036999999999999034
        },
        {
          "name": "E6",
          "midi": 88,
          "time": 44.546000000001165,
          "velocity": 0.4566929133858268,
          "duration": 0.036999999999999034
        },
        {
          "name": "G#4",
          "midi": 68,
          "time": 44.56500000000116,
          "velocity": 0.6062992125984252,
          "duration": 0.018000000000000682
        },
        {
          "name": "G#4",
          "midi": 68,
          "time": 44.56500000000116,
          "velocity": 0.6062992125984252,
          "duration": 0.018000000000000682
        },
        {
          "name": "C3",
          "midi": 48,
          "time": 44.595000000001164,
          "velocity": 1,
          "duration": 0.09700000000001552
        },
        {
          "name": "G#3",
          "midi": 56,
          "time": 44.595000000001164,
          "velocity": 0.4645669291338583,
          "duration": 0.06700000000000728
        },
        {
          "name": "C3",
          "midi": 48,
          "time": 44.595000000001164,
          "velocity": 1,
          "duration": 0.09700000000001552
        },
        {
          "name": "G#3",
          "midi": 56,
          "time": 44.595000000001164,
          "velocity": 0.4645669291338583,
          "duration": 0.06700000000000728
        },
        {
          "name": "B3",
          "midi": 59,
          "time": 44.60500000000117,
          "velocity": 0.4881889763779528,
          "duration": 0.04700000000000415
        },
        {
          "name": "D5",
          "midi": 74,
          "time": 44.60500000000117,
          "velocity": 0.5118110236220472,
          "duration": 0.05700000000000216
        },
        {
          "name": "B3",
          "midi": 59,
          "time": 44.60500000000117,
          "velocity": 0.4881889763779528,
          "duration": 0.04700000000000415
        },
        {
          "name": "D5",
          "midi": 74,
          "time": 44.60500000000117,
          "velocity": 0.5118110236220472,
          "duration": 0.05700000000000216
        },
        {
          "name": "G#4",
          "midi": 68,
          "time": 44.61500000000117,
          "velocity": 0.5039370078740157,
          "duration": 0.057000000000009265
        },
        {
          "name": "G#4",
          "midi": 68,
          "time": 44.61500000000117,
          "velocity": 0.5039370078740157,
          "duration": 0.057000000000009265
        },
        {
          "name": "C5",
          "midi": 72,
          "time": 44.64400000000117,
          "velocity": 0.5433070866141733,
          "duration": 0.1950000000000216
        },
        {
          "name": "C5",
          "midi": 72,
          "time": 44.64400000000117,
          "velocity": 0.5433070866141733,
          "duration": 0.1950000000000216
        },
        {
          "name": "G4",
          "midi": 67,
          "time": 44.664000000001174,
          "velocity": 0.5354330708661418,
          "duration": 0.07700000000001239
        },
        {
          "name": "G4",
          "midi": 67,
          "time": 44.664000000001174,
          "velocity": 0.5354330708661418,
          "duration": 0.07700000000001239
        },
        {
          "name": "E5",
          "midi": 76,
          "time": 44.68400000000118,
          "velocity": 0.48031496062992124,
          "duration": 0.028000000000005798
        },
        {
          "name": "C4",
          "midi": 60,
          "time": 44.68400000000118,
          "velocity": 0.5511811023622047,
          "duration": 0.26400000000001
        },
        {
          "name": "E5",
          "midi": 76,
          "time": 44.68400000000118,
          "velocity": 0.48031496062992124,
          "duration": 0.028000000000005798
        },
        {
          "name": "C4",
          "midi": 60,
          "time": 44.68400000000118,
          "velocity": 0.5511811023622047,
          "duration": 0.26400000000001
        },
        {
          "name": "G5",
          "midi": 79,
          "time": 44.70300000000118,
          "velocity": 0.48031496062992124,
          "duration": 0.008000000000002672
        },
        {
          "name": "G5",
          "midi": 79,
          "time": 44.70300000000118,
          "velocity": 0.48031496062992124,
          "duration": 0.008000000000002672
        },
        {
          "name": "C#3",
          "midi": 49,
          "time": 44.723000000001186,
          "velocity": 0.7007874015748031,
          "duration": 0.19500000000000028
        },
        {
          "name": "E4",
          "midi": 64,
          "time": 44.723000000001186,
          "velocity": 0.5275590551181102,
          "duration": 0.17600000000000193
        },
        {
          "name": "C#3",
          "midi": 49,
          "time": 44.723000000001186,
          "velocity": 0.7007874015748031,
          "duration": 0.19500000000000028
        },
        {
          "name": "E4",
          "midi": 64,
          "time": 44.723000000001186,
          "velocity": 0.5275590551181102,
          "duration": 0.17600000000000193
        },
        {
          "name": "C#2",
          "midi": 37,
          "time": 44.733000000001184,
          "velocity": 0.5748031496062992,
          "duration": 0.028000000000005798
        },
        {
          "name": "C#2",
          "midi": 37,
          "time": 44.733000000001184,
          "velocity": 0.5748031496062992,
          "duration": 0.028000000000005798
        },
        {
          "name": "E5",
          "midi": 76,
          "time": 44.75300000000119,
          "velocity": 0.5196850393700787,
          "duration": 0.06700000000000728
        },
        {
          "name": "E5",
          "midi": 76,
          "time": 44.75300000000119,
          "velocity": 0.5196850393700787,
          "duration": 0.06700000000000728
        },
        {
          "name": "G3",
          "midi": 55,
          "time": 44.78200000000119,
          "velocity": 0.5275590551181102,
          "duration": 0.008000000000002672
        },
        {
          "name": "G3",
          "midi": 55,
          "time": 44.78200000000119,
          "velocity": 0.5275590551181102,
          "duration": 0.008000000000002672
        },
        {
          "name": "C2",
          "midi": 36,
          "time": 44.80200000000119,
          "velocity": 0.49606299212598426,
          "duration": 0.008000000000002672
        },
        {
          "name": "C2",
          "midi": 36,
          "time": 44.80200000000119,
          "velocity": 0.49606299212598426,
          "duration": 0.008000000000002672
        },
        {
          "name": "G#4",
          "midi": 68,
          "time": 44.832000000001194,
          "velocity": 0.49606299212598426,
          "duration": 0.018000000000000682
        },
        {
          "name": "C#2",
          "midi": 37,
          "time": 44.832000000001194,
          "velocity": 0.4881889763779528,
          "duration": 0.018000000000000682
        },
        {
          "name": "G#4",
          "midi": 68,
          "time": 44.832000000001194,
          "velocity": 0.49606299212598426,
          "duration": 0.018000000000000682
        },
        {
          "name": "C#2",
          "midi": 37,
          "time": 44.832000000001194,
          "velocity": 0.4881889763779528,
          "duration": 0.018000000000000682
        },
        {
          "name": "D5",
          "midi": 74,
          "time": 44.85100000000119,
          "velocity": 0.5748031496062992,
          "duration": 0.1460000000000008
        },
        {
          "name": "D5",
          "midi": 74,
          "time": 44.85100000000119,
          "velocity": 0.5748031496062992,
          "duration": 0.1460000000000008
        },
        {
          "name": "G4",
          "midi": 67,
          "time": 44.86100000000119,
          "velocity": 0.5590551181102362,
          "duration": 0.12600000000000477
        },
        {
          "name": "B4",
          "midi": 71,
          "time": 44.86100000000119,
          "velocity": 0.7716535433070866,
          "duration": 0.24500000000001876
        },
        {
          "name": "G4",
          "midi": 67,
          "time": 44.86100000000119,
          "velocity": 0.5590551181102362,
          "duration": 0.12600000000000477
        },
        {
          "name": "B4",
          "midi": 71,
          "time": 44.86100000000119,
          "velocity": 0.7716535433070866,
          "duration": 0.24500000000001876
        },
        {
          "name": "B6",
          "midi": 95,
          "time": 44.91100000000119,
          "velocity": 0.5039370078740157,
          "duration": 0.007999999999995566
        },
        {
          "name": "B6",
          "midi": 95,
          "time": 44.91100000000119,
          "velocity": 0.5039370078740157,
          "duration": 0.007999999999995566
        },
        {
          "name": "C#3",
          "midi": 49,
          "time": 44.930000000001186,
          "velocity": 0.48031496062992124,
          "duration": 0.008000000000002672
        },
        {
          "name": "G5",
          "midi": 79,
          "time": 44.930000000001186,
          "velocity": 0.48031496062992124,
          "duration": 0.008000000000002672
        },
        {
          "name": "C#3",
          "midi": 49,
          "time": 44.930000000001186,
          "velocity": 0.48031496062992124,
          "duration": 0.008000000000002672
        },
        {
          "name": "G5",
          "midi": 79,
          "time": 44.930000000001186,
          "velocity": 0.48031496062992124,
          "duration": 0.008000000000002672
        },
        {
          "name": "E4",
          "midi": 64,
          "time": 44.95000000000119,
          "velocity": 0.5118110236220472,
          "duration": 0.17600000000001614
        },
        {
          "name": "G3",
          "midi": 55,
          "time": 44.95000000000119,
          "velocity": 0.47244094488188976,
          "duration": 0.008000000000002672
        },
        {
          "name": "E4",
          "midi": 64,
          "time": 44.95000000000119,
          "velocity": 0.5118110236220472,
          "duration": 0.17600000000001614
        },
        {
          "name": "G3",
          "midi": 55,
          "time": 44.95000000000119,
          "velocity": 0.47244094488188976,
          "duration": 0.008000000000002672
        },
        {
          "name": "G#6",
          "midi": 92,
          "time": 44.960000000001195,
          "velocity": 0.48031496062992124,
          "duration": 0.11600000000000676
        },
        {
          "name": "G#6",
          "midi": 92,
          "time": 44.960000000001195,
          "velocity": 0.48031496062992124,
          "duration": 0.11600000000000676
        },
        {
          "name": "G3",
          "midi": 55,
          "time": 44.9800000000012,
          "velocity": 0.4881889763779528,
          "duration": 0.036999999999999034
        },
        {
          "name": "G3",
          "midi": 55,
          "time": 44.9800000000012,
          "velocity": 0.4881889763779528,
          "duration": 0.036999999999999034
        },
        {
          "name": "A#2",
          "midi": 46,
          "time": 44.999000000001196,
          "velocity": 0.47244094488188976,
          "duration": 0.027999999999998693
        },
        {
          "name": "A#2",
          "midi": 46,
          "time": 44.999000000001196,
          "velocity": 0.47244094488188976,
          "duration": 0.027999999999998693
        },
        {
          "name": "B5",
          "midi": 83,
          "time": 45.009000000001194,
          "velocity": 0.4645669291338583,
          "duration": 0.008000000000002672
        },
        {
          "name": "B5",
          "midi": 83,
          "time": 45.009000000001194,
          "velocity": 0.4645669291338583,
          "duration": 0.008000000000002672
        },
        {
          "name": "G4",
          "midi": 67,
          "time": 45.0290000000012,
          "velocity": 0.6771653543307087,
          "duration": 0.1460000000000079
        },
        {
          "name": "G4",
          "midi": 67,
          "time": 45.0290000000012,
          "velocity": 0.6771653543307087,
          "duration": 0.1460000000000079
        },
        {
          "name": "D5",
          "midi": 74,
          "time": 45.039000000001195,
          "velocity": 0.4409448818897638,
          "duration": 0.008000000000002672
        },
        {
          "name": "D5",
          "midi": 74,
          "time": 45.039000000001195,
          "velocity": 0.4409448818897638,
          "duration": 0.008000000000002672
        },
        {
          "name": "B5",
          "midi": 83,
          "time": 45.0490000000012,
          "velocity": 0.4330708661417323,
          "duration": 0.008000000000002672
        },
        {
          "name": "B5",
          "midi": 83,
          "time": 45.0490000000012,
          "velocity": 0.4330708661417323,
          "duration": 0.008000000000002672
        },
        {
          "name": "C5",
          "midi": 72,
          "time": 45.078000000001204,
          "velocity": 0.4566929133858268,
          "duration": 0.008000000000002672
        },
        {
          "name": "D5",
          "midi": 74,
          "time": 45.078000000001204,
          "velocity": 0.5826771653543307,
          "duration": 0.373000000000026
        },
        {
          "name": "C5",
          "midi": 72,
          "time": 45.078000000001204,
          "velocity": 0.4566929133858268,
          "duration": 0.008000000000002672
        },
        {
          "name": "D5",
          "midi": 74,
          "time": 45.078000000001204,
          "velocity": 0.5826771653543307,
          "duration": 0.373000000000026
        },
        {
          "name": "D6",
          "midi": 86,
          "time": 45.08800000000121,
          "velocity": 0.5196850393700787,
          "duration": 0.036999999999999034
        },
        {
          "name": "D6",
          "midi": 86,
          "time": 45.08800000000121,
          "velocity": 0.5196850393700787,
          "duration": 0.036999999999999034
        },
        {
          "name": "B6",
          "midi": 95,
          "time": 45.10800000000121,
          "velocity": 0.5118110236220472,
          "duration": 0.027999999999991587
        },
        {
          "name": "B6",
          "midi": 95,
          "time": 45.10800000000121,
          "velocity": 0.5118110236220472,
          "duration": 0.027999999999991587
        },
        {
          "name": "C5",
          "midi": 72,
          "time": 45.11800000000121,
          "velocity": 0.5984251968503937,
          "duration": 0.16599999999999682
        },
        {
          "name": "C5",
          "midi": 72,
          "time": 45.11800000000121,
          "velocity": 0.5984251968503937,
          "duration": 0.16599999999999682
        },
        {
          "name": "C4",
          "midi": 60,
          "time": 45.1370000000012,
          "velocity": 0.6299212598425197,
          "duration": 0.11600000000000676
        },
        {
          "name": "B5",
          "midi": 83,
          "time": 45.1370000000012,
          "velocity": 0.5196850393700787,
          "duration": 0.018000000000000682
        },
        {
          "name": "C4",
          "midi": 60,
          "time": 45.1370000000012,
          "velocity": 0.6299212598425197,
          "duration": 0.11600000000000676
        },
        {
          "name": "B5",
          "midi": 83,
          "time": 45.1370000000012,
          "velocity": 0.5196850393700787,
          "duration": 0.018000000000000682
        },
        {
          "name": "E5",
          "midi": 76,
          "time": 45.1470000000012,
          "velocity": 0.5354330708661418,
          "duration": 0.018000000000000682
        },
        {
          "name": "E5",
          "midi": 76,
          "time": 45.1470000000012,
          "velocity": 0.5354330708661418,
          "duration": 0.018000000000000682
        },
        {
          "name": "E4",
          "midi": 64,
          "time": 45.1670000000012,
          "velocity": 0.5826771653543307,
          "duration": 0.18500000000001648
        },
        {
          "name": "E4",
          "midi": 64,
          "time": 45.1670000000012,
          "velocity": 0.5826771653543307,
          "duration": 0.18500000000001648
        },
        {
          "name": "E5",
          "midi": 76,
          "time": 45.187000000001206,
          "velocity": 0.5196850393700787,
          "duration": 0.05700000000000216
        },
        {
          "name": "B5",
          "midi": 83,
          "time": 45.187000000001206,
          "velocity": 0.5275590551181102,
          "duration": 0.018000000000000682
        },
        {
          "name": "E5",
          "midi": 76,
          "time": 45.187000000001206,
          "velocity": 0.5196850393700787,
          "duration": 0.05700000000000216
        },
        {
          "name": "B5",
          "midi": 83,
          "time": 45.187000000001206,
          "velocity": 0.5275590551181102,
          "duration": 0.018000000000000682
        },
        {
          "name": "G4",
          "midi": 67,
          "time": 45.21600000000121,
          "velocity": 0.6850393700787402,
          "duration": 0.1950000000000145
        },
        {
          "name": "G4",
          "midi": 67,
          "time": 45.21600000000121,
          "velocity": 0.6850393700787402,
          "duration": 0.1950000000000145
        },
        {
          "name": "B4",
          "midi": 71,
          "time": 45.25600000000121,
          "velocity": 0.5196850393700787,
          "duration": 0.036999999999999034
        },
        {
          "name": "B4",
          "midi": 71,
          "time": 45.25600000000121,
          "velocity": 0.5196850393700787,
          "duration": 0.036999999999999034
        },
        {
          "name": "G3",
          "midi": 55,
          "time": 45.266000000001206,
          "velocity": 0.5196850393700787,
          "duration": 0.07700000000001239
        },
        {
          "name": "G3",
          "midi": 55,
          "time": 45.266000000001206,
          "velocity": 0.5196850393700787,
          "duration": 0.07700000000001239
        },
        {
          "name": "C4",
          "midi": 60,
          "time": 45.29500000000121,
          "velocity": 0.5511811023622047,
          "duration": 0.08700000000001751
        },
        {
          "name": "C4",
          "midi": 60,
          "time": 45.29500000000121,
          "velocity": 0.5511811023622047,
          "duration": 0.08700000000001751
        },
        {
          "name": "G5",
          "midi": 79,
          "time": 45.31500000000121,
          "velocity": 0.49606299212598426,
          "duration": 0.008000000000002672
        },
        {
          "name": "G5",
          "midi": 79,
          "time": 45.31500000000121,
          "velocity": 0.49606299212598426,
          "duration": 0.008000000000002672
        },
        {
          "name": "D6",
          "midi": 86,
          "time": 45.335000000001216,
          "velocity": 0.5433070866141733,
          "duration": 0.037000000000013245
        },
        {
          "name": "D6",
          "midi": 86,
          "time": 45.335000000001216,
          "velocity": 0.5433070866141733,
          "duration": 0.037000000000013245
        },
        {
          "name": "G5",
          "midi": 79,
          "time": 45.35400000000122,
          "velocity": 0.49606299212598426,
          "duration": 0.008000000000002672
        },
        {
          "name": "G5",
          "midi": 79,
          "time": 45.35400000000122,
          "velocity": 0.49606299212598426,
          "duration": 0.008000000000002672
        },
        {
          "name": "B6",
          "midi": 95,
          "time": 45.36400000000123,
          "velocity": 0.5196850393700787,
          "duration": 0.036999999999999034
        },
        {
          "name": "B6",
          "midi": 95,
          "time": 45.36400000000123,
          "velocity": 0.5196850393700787,
          "duration": 0.036999999999999034
        },
        {
          "name": "E4",
          "midi": 64,
          "time": 45.38400000000123,
          "velocity": 0.5905511811023622,
          "duration": 0.0969999999999942
        },
        {
          "name": "E4",
          "midi": 64,
          "time": 45.38400000000123,
          "velocity": 0.5905511811023622,
          "duration": 0.0969999999999942
        },
        {
          "name": "C5",
          "midi": 72,
          "time": 45.39400000000123,
          "velocity": 0.5196850393700787,
          "duration": 0.027999999999998693
        },
        {
          "name": "C5",
          "midi": 72,
          "time": 45.39400000000123,
          "velocity": 0.5196850393700787,
          "duration": 0.027999999999998693
        },
        {
          "name": "B4",
          "midi": 71,
          "time": 45.404000000001226,
          "velocity": 0.7716535433070866,
          "duration": 0.34300000000002484
        },
        {
          "name": "B4",
          "midi": 71,
          "time": 45.404000000001226,
          "velocity": 0.7716535433070866,
          "duration": 0.34300000000002484
        },
        {
          "name": "F#4",
          "midi": 66,
          "time": 45.423000000001224,
          "velocity": 0.5196850393700787,
          "duration": 0.008000000000002672
        },
        {
          "name": "G4",
          "midi": 67,
          "time": 45.423000000001224,
          "velocity": 0.6299212598425197,
          "duration": 0.18500000000000938
        },
        {
          "name": "F#4",
          "midi": 66,
          "time": 45.423000000001224,
          "velocity": 0.5196850393700787,
          "duration": 0.008000000000002672
        },
        {
          "name": "G4",
          "midi": 67,
          "time": 45.423000000001224,
          "velocity": 0.6299212598425197,
          "duration": 0.18500000000000938
        },
        {
          "name": "G#6",
          "midi": 92,
          "time": 45.43300000000123,
          "velocity": 0.5039370078740157,
          "duration": 0.07699999999999818
        },
        {
          "name": "G#6",
          "midi": 92,
          "time": 45.43300000000123,
          "velocity": 0.5039370078740157,
          "duration": 0.07699999999999818
        },
        {
          "name": "G3",
          "midi": 55,
          "time": 45.44300000000123,
          "velocity": 0.49606299212598426,
          "duration": 0.036999999999999034
        },
        {
          "name": "G3",
          "midi": 55,
          "time": 45.44300000000123,
          "velocity": 0.49606299212598426,
          "duration": 0.036999999999999034
        },
        {
          "name": "B5",
          "midi": 83,
          "time": 45.47300000000123,
          "velocity": 0.48031496062992124,
          "duration": 0.027999999999998693
        },
        {
          "name": "B5",
          "midi": 83,
          "time": 45.47300000000123,
          "velocity": 0.48031496062992124,
          "duration": 0.027999999999998693
        },
        {
          "name": "E5",
          "midi": 76,
          "time": 45.493000000001224,
          "velocity": 0.47244094488188976,
          "duration": 0.028000000000005798
        },
        {
          "name": "F#4",
          "midi": 66,
          "time": 45.493000000001224,
          "velocity": 0.4881889763779528,
          "duration": 0.008000000000002672
        },
        {
          "name": "E5",
          "midi": 76,
          "time": 45.493000000001224,
          "velocity": 0.47244094488188976,
          "duration": 0.028000000000005798
        },
        {
          "name": "F#4",
          "midi": 66,
          "time": 45.493000000001224,
          "velocity": 0.4881889763779528,
          "duration": 0.008000000000002672
        },
        {
          "name": "D5",
          "midi": 74,
          "time": 45.51200000000123,
          "velocity": 0.6220472440944882,
          "duration": 0.33300000000002683
        },
        {
          "name": "D5",
          "midi": 74,
          "time": 45.51200000000123,
          "velocity": 0.6220472440944882,
          "duration": 0.33300000000002683
        },
        {
          "name": "B6",
          "midi": 95,
          "time": 45.52200000000123,
          "velocity": 0.48031496062992124,
          "duration": 0.018000000000000682
        },
        {
          "name": "B6",
          "midi": 95,
          "time": 45.52200000000123,
          "velocity": 0.48031496062992124,
          "duration": 0.018000000000000682
        },
        {
          "name": "C#3",
          "midi": 49,
          "time": 45.532000000001226,
          "velocity": 0.5826771653543307,
          "duration": 0.03700000000000614
        },
        {
          "name": "A#4",
          "midi": 70,
          "time": 45.532000000001226,
          "velocity": 0.5669291338582677,
          "duration": 0.008000000000002672
        },
        {
          "name": "C#3",
          "midi": 49,
          "time": 45.532000000001226,
          "velocity": 0.5826771653543307,
          "duration": 0.03700000000000614
        },
        {
          "name": "A#4",
          "midi": 70,
          "time": 45.532000000001226,
          "velocity": 0.5669291338582677,
          "duration": 0.008000000000002672
        },
        {
          "name": "F5",
          "midi": 77,
          "time": 45.55200000000123,
          "velocity": 0.5433070866141733,
          "duration": 0.15600000000002012
        },
        {
          "name": "F4",
          "midi": 65,
          "time": 45.55200000000123,
          "velocity": 0.5196850393700787,
          "duration": 0.018000000000000682
        },
        {
          "name": "F5",
          "midi": 77,
          "time": 45.55200000000123,
          "velocity": 0.5433070866141733,
          "duration": 0.15600000000002012
        },
        {
          "name": "F4",
          "midi": 65,
          "time": 45.55200000000123,
          "velocity": 0.5196850393700787,
          "duration": 0.018000000000000682
        },
        {
          "name": "C6",
          "midi": 84,
          "time": 45.58100000000123,
          "velocity": 0.5669291338582677,
          "duration": 0.06700000000000017
        },
        {
          "name": "C6",
          "midi": 84,
          "time": 45.58100000000123,
          "velocity": 0.5669291338582677,
          "duration": 0.06700000000000017
        },
        {
          "name": "F4",
          "midi": 65,
          "time": 45.62100000000123,
          "velocity": 0.5748031496062992,
          "duration": 0.11600000000001387
        },
        {
          "name": "F4",
          "midi": 65,
          "time": 45.62100000000123,
          "velocity": 0.5748031496062992,
          "duration": 0.11600000000001387
        },
        {
          "name": "C#3",
          "midi": 49,
          "time": 45.650000000001235,
          "velocity": 0.6141732283464567,
          "duration": 0.018000000000000682
        },
        {
          "name": "C#3",
          "midi": 49,
          "time": 45.650000000001235,
          "velocity": 0.6141732283464567,
          "duration": 0.018000000000000682
        },
        {
          "name": "G3",
          "midi": 55,
          "time": 45.66000000000123,
          "velocity": 0.5354330708661418,
          "duration": 0.028000000000005798
        },
        {
          "name": "G3",
          "midi": 55,
          "time": 45.66000000000123,
          "velocity": 0.5354330708661418,
          "duration": 0.028000000000005798
        },
        {
          "name": "A2",
          "midi": 45,
          "time": 45.69000000000124,
          "velocity": 0.5275590551181102,
          "duration": 0.008000000000002672
        },
        {
          "name": "A2",
          "midi": 45,
          "time": 45.69000000000124,
          "velocity": 0.5275590551181102,
          "duration": 0.008000000000002672
        },
        {
          "name": "D#3",
          "midi": 51,
          "time": 45.700000000001246,
          "velocity": 0.5275590551181102,
          "duration": 0.018000000000000682
        },
        {
          "name": "D#3",
          "midi": 51,
          "time": 45.700000000001246,
          "velocity": 0.5275590551181102,
          "duration": 0.018000000000000682
        },
        {
          "name": "G4",
          "midi": 67,
          "time": 45.719000000001245,
          "velocity": 0.7559055118110236,
          "duration": 0.9250000000000469
        },
        {
          "name": "G4",
          "midi": 67,
          "time": 45.719000000001245,
          "velocity": 0.7559055118110236,
          "duration": 0.9250000000000469
        },
        {
          "name": "D3",
          "midi": 50,
          "time": 45.72900000000124,
          "velocity": 0.6456692913385826,
          "duration": 0.018000000000007788
        },
        {
          "name": "D3",
          "midi": 50,
          "time": 45.72900000000124,
          "velocity": 0.6456692913385826,
          "duration": 0.018000000000007788
        },
        {
          "name": "B3",
          "midi": 59,
          "time": 45.73900000000125,
          "velocity": 0.5118110236220472,
          "duration": 0.057000000000009265
        },
        {
          "name": "B3",
          "midi": 59,
          "time": 45.73900000000125,
          "velocity": 0.5118110236220472,
          "duration": 0.057000000000009265
        },
        {
          "name": "F4",
          "midi": 65,
          "time": 45.75900000000125,
          "velocity": 0.4881889763779528,
          "duration": 0.018000000000000682
        },
        {
          "name": "F4",
          "midi": 65,
          "time": 45.75900000000125,
          "velocity": 0.4881889763779528,
          "duration": 0.018000000000000682
        },
        {
          "name": "D#3",
          "midi": 51,
          "time": 45.76900000000125,
          "velocity": 0.5354330708661418,
          "duration": 0.028000000000005798
        },
        {
          "name": "D#3",
          "midi": 51,
          "time": 45.76900000000125,
          "velocity": 0.5354330708661418,
          "duration": 0.028000000000005798
        },
        {
          "name": "A4",
          "midi": 69,
          "time": 45.788000000001254,
          "velocity": 0.5905511811023622,
          "duration": 0.1460000000000008
        },
        {
          "name": "B6",
          "midi": 95,
          "time": 45.788000000001254,
          "velocity": 0.5433070866141733,
          "duration": 0.05700000000000216
        },
        {
          "name": "A4",
          "midi": 69,
          "time": 45.788000000001254,
          "velocity": 0.5905511811023622,
          "duration": 0.1460000000000008
        },
        {
          "name": "B6",
          "midi": 95,
          "time": 45.788000000001254,
          "velocity": 0.5433070866141733,
          "duration": 0.05700000000000216
        },
        {
          "name": "F5",
          "midi": 77,
          "time": 45.80800000000126,
          "velocity": 0.4881889763779528,
          "duration": 0.027999999999998693
        },
        {
          "name": "F5",
          "midi": 77,
          "time": 45.80800000000126,
          "velocity": 0.4881889763779528,
          "duration": 0.027999999999998693
        },
        {
          "name": "D6",
          "midi": 86,
          "time": 45.818000000001256,
          "velocity": 0.48031496062992124,
          "duration": 0.018000000000000682
        },
        {
          "name": "D6",
          "midi": 86,
          "time": 45.818000000001256,
          "velocity": 0.48031496062992124,
          "duration": 0.018000000000000682
        },
        {
          "name": "G3",
          "midi": 55,
          "time": 45.84800000000126,
          "velocity": 0.5275590551181102,
          "duration": 0.06700000000000017
        },
        {
          "name": "D5",
          "midi": 74,
          "time": 45.84800000000126,
          "velocity": 0.5826771653543307,
          "duration": 0.22500000000000142
        },
        {
          "name": "G3",
          "midi": 55,
          "time": 45.84800000000126,
          "velocity": 0.5275590551181102,
          "duration": 0.06700000000000017
        },
        {
          "name": "D5",
          "midi": 74,
          "time": 45.84800000000126,
          "velocity": 0.5826771653543307,
          "duration": 0.22500000000000142
        },
        {
          "name": "F4",
          "midi": 65,
          "time": 45.85700000000126,
          "velocity": 0.5118110236220472,
          "duration": 0.04700000000000415
        },
        {
          "name": "F4",
          "midi": 65,
          "time": 45.85700000000126,
          "velocity": 0.5118110236220472,
          "duration": 0.04700000000000415
        },
        {
          "name": "B4",
          "midi": 71,
          "time": 45.867000000001255,
          "velocity": 0.5039370078740157,
          "duration": 0.008000000000002672
        },
        {
          "name": "B4",
          "midi": 71,
          "time": 45.867000000001255,
          "velocity": 0.5039370078740157,
          "duration": 0.008000000000002672
        },
        {
          "name": "D4",
          "midi": 62,
          "time": 45.88700000000126,
          "velocity": 0.49606299212598426,
          "duration": 0.018000000000000682
        },
        {
          "name": "D4",
          "midi": 62,
          "time": 45.88700000000126,
          "velocity": 0.49606299212598426,
          "duration": 0.018000000000000682
        },
        {
          "name": "C#5",
          "midi": 73,
          "time": 45.92700000000126,
          "velocity": 0.5590551181102362,
          "duration": 0.027999999999998693
        },
        {
          "name": "G5",
          "midi": 79,
          "time": 45.92700000000126,
          "velocity": 0.4881889763779528,
          "duration": 0.018000000000000682
        },
        {
          "name": "C#5",
          "midi": 73,
          "time": 45.92700000000126,
          "velocity": 0.5590551181102362,
          "duration": 0.027999999999998693
        },
        {
          "name": "G5",
          "midi": 79,
          "time": 45.92700000000126,
          "velocity": 0.4881889763779528,
          "duration": 0.018000000000000682
        },
        {
          "name": "B4",
          "midi": 71,
          "time": 45.93600000000126,
          "velocity": 0.5511811023622047,
          "duration": 0.03699999999999193
        },
        {
          "name": "B4",
          "midi": 71,
          "time": 45.93600000000126,
          "velocity": 0.5511811023622047,
          "duration": 0.03699999999999193
        },
        {
          "name": "G3",
          "midi": 55,
          "time": 45.946000000001256,
          "velocity": 0.6377952755905512,
          "duration": 0.34300000000001774
        },
        {
          "name": "G3",
          "midi": 55,
          "time": 45.946000000001256,
          "velocity": 0.6377952755905512,
          "duration": 0.34300000000001774
        },
        {
          "name": "F4",
          "midi": 65,
          "time": 45.956000000001254,
          "velocity": 0.5118110236220472,
          "duration": 0.046999999999997044
        },
        {
          "name": "F4",
          "midi": 65,
          "time": 45.956000000001254,
          "velocity": 0.5118110236220472,
          "duration": 0.046999999999997044
        },
        {
          "name": "A4",
          "midi": 69,
          "time": 45.96600000000125,
          "velocity": 0.5118110236220472,
          "duration": 0.05700000000000216
        },
        {
          "name": "A4",
          "midi": 69,
          "time": 45.96600000000125,
          "velocity": 0.5118110236220472,
          "duration": 0.05700000000000216
        },
        {
          "name": "F5",
          "midi": 77,
          "time": 45.98600000000125,
          "velocity": 0.5118110236220472,
          "duration": 0.018000000000000682
        },
        {
          "name": "F5",
          "midi": 77,
          "time": 45.98600000000125,
          "velocity": 0.5118110236220472,
          "duration": 0.018000000000000682
        },
        {
          "name": "B4",
          "midi": 71,
          "time": 46.01500000000125,
          "velocity": 0.7007874015748031,
          "duration": 0.16600000000001103
        },
        {
          "name": "C6",
          "midi": 84,
          "time": 46.01500000000125,
          "velocity": 0.5118110236220472,
          "duration": 0.018000000000000682
        },
        {
          "name": "B4",
          "midi": 71,
          "time": 46.01500000000125,
          "velocity": 0.7007874015748031,
          "duration": 0.16600000000001103
        },
        {
          "name": "C6",
          "midi": 84,
          "time": 46.01500000000125,
          "velocity": 0.5118110236220472,
          "duration": 0.018000000000000682
        },
        {
          "name": "F4",
          "midi": 65,
          "time": 46.035000000001254,
          "velocity": 0.5433070866141733,
          "duration": 0.09700000000000841
        },
        {
          "name": "F4",
          "midi": 65,
          "time": 46.035000000001254,
          "velocity": 0.5433070866141733,
          "duration": 0.09700000000000841
        },
        {
          "name": "D6",
          "midi": 86,
          "time": 46.04500000000125,
          "velocity": 0.5118110236220472,
          "duration": 0.008000000000002672
        },
        {
          "name": "D6",
          "midi": 86,
          "time": 46.04500000000125,
          "velocity": 0.5118110236220472,
          "duration": 0.008000000000002672
        },
        {
          "name": "B5",
          "midi": 83,
          "time": 46.065000000001255,
          "velocity": 0.49606299212598426,
          "duration": 0.028000000000005798
        },
        {
          "name": "B5",
          "midi": 83,
          "time": 46.065000000001255,
          "velocity": 0.49606299212598426,
          "duration": 0.028000000000005798
        },
        {
          "name": "B6",
          "midi": 95,
          "time": 46.08400000000126,
          "velocity": 0.5354330708661418,
          "duration": 0.13600000000000279
        },
        {
          "name": "B6",
          "midi": 95,
          "time": 46.08400000000126,
          "velocity": 0.5354330708661418,
          "duration": 0.13600000000000279
        },
        {
          "name": "D6",
          "midi": 86,
          "time": 46.104000000001264,
          "velocity": 0.5511811023622047,
          "duration": 0.036999999999999034
        },
        {
          "name": "D6",
          "midi": 86,
          "time": 46.104000000001264,
          "velocity": 0.5511811023622047,
          "duration": 0.036999999999999034
        },
        {
          "name": "F#4",
          "midi": 66,
          "time": 46.16300000000126,
          "velocity": 0.5354330708661418,
          "duration": 0.018000000000000682
        },
        {
          "name": "B3",
          "midi": 59,
          "time": 46.16300000000126,
          "velocity": 0.5039370078740157,
          "duration": 0.008000000000002672
        },
        {
          "name": "F#4",
          "midi": 66,
          "time": 46.16300000000126,
          "velocity": 0.5354330708661418,
          "duration": 0.018000000000000682
        },
        {
          "name": "B3",
          "midi": 59,
          "time": 46.16300000000126,
          "velocity": 0.5039370078740157,
          "duration": 0.008000000000002672
        },
        {
          "name": "D7",
          "midi": 98,
          "time": 46.19300000000126,
          "velocity": 0.5748031496062992,
          "duration": 0.04700000000000415
        },
        {
          "name": "C7",
          "midi": 96,
          "time": 46.19300000000126,
          "velocity": 0.5433070866141733,
          "duration": 0.008000000000002672
        },
        {
          "name": "D7",
          "midi": 98,
          "time": 46.19300000000126,
          "velocity": 0.5748031496062992,
          "duration": 0.04700000000000415
        },
        {
          "name": "C7",
          "midi": 96,
          "time": 46.19300000000126,
          "velocity": 0.5433070866141733,
          "duration": 0.008000000000002672
        },
        {
          "name": "G5",
          "midi": 79,
          "time": 46.213000000001266,
          "velocity": 0.5590551181102362,
          "duration": 0.0870000000000104
        },
        {
          "name": "G5",
          "midi": 79,
          "time": 46.213000000001266,
          "velocity": 0.5590551181102362,
          "duration": 0.0870000000000104
        },
        {
          "name": "G7",
          "midi": 103,
          "time": 46.232000000001264,
          "velocity": 0.49606299212598426,
          "duration": 0.008000000000002672
        },
        {
          "name": "C3",
          "midi": 48,
          "time": 46.232000000001264,
          "velocity": 0.889763779527559,
          "duration": 0.018000000000000682
        },
        {
          "name": "G7",
          "midi": 103,
          "time": 46.232000000001264,
          "velocity": 0.49606299212598426,
          "duration": 0.008000000000002672
        },
        {
          "name": "C3",
          "midi": 48,
          "time": 46.232000000001264,
          "velocity": 0.889763779527559,
          "duration": 0.018000000000000682
        },
        {
          "name": "C5",
          "midi": 72,
          "time": 46.25200000000127,
          "velocity": 0.5118110236220472,
          "duration": 0.047000000000011255
        },
        {
          "name": "E5",
          "midi": 76,
          "time": 46.25200000000127,
          "velocity": 0.5039370078740157,
          "duration": 0.008000000000002672
        },
        {
          "name": "C5",
          "midi": 72,
          "time": 46.25200000000127,
          "velocity": 0.5118110236220472,
          "duration": 0.047000000000011255
        },
        {
          "name": "E5",
          "midi": 76,
          "time": 46.25200000000127,
          "velocity": 0.5039370078740157,
          "duration": 0.008000000000002672
        },
        {
          "name": "C3",
          "midi": 48,
          "time": 46.26200000000127,
          "velocity": 0.8740157480314961,
          "duration": 0.16600000000000392
        },
        {
          "name": "C3",
          "midi": 48,
          "time": 46.26200000000127,
          "velocity": 0.8740157480314961,
          "duration": 0.16600000000000392
        },
        {
          "name": "D5",
          "midi": 74,
          "time": 46.291000000001276,
          "velocity": 0.5196850393700787,
          "duration": 0.05700000000000216
        },
        {
          "name": "D5",
          "midi": 74,
          "time": 46.291000000001276,
          "velocity": 0.5196850393700787,
          "duration": 0.05700000000000216
        },
        {
          "name": "C4",
          "midi": 60,
          "time": 46.301000000001274,
          "velocity": 0.5039370078740157,
          "duration": 0.018000000000000682
        },
        {
          "name": "C4",
          "midi": 60,
          "time": 46.301000000001274,
          "velocity": 0.5039370078740157,
          "duration": 0.018000000000000682
        },
        {
          "name": "E5",
          "midi": 76,
          "time": 46.31100000000127,
          "velocity": 0.5275590551181102,
          "duration": 0.05700000000000216
        },
        {
          "name": "E5",
          "midi": 76,
          "time": 46.31100000000127,
          "velocity": 0.5275590551181102,
          "duration": 0.05700000000000216
        },
        {
          "name": "C5",
          "midi": 72,
          "time": 46.32100000000128,
          "velocity": 0.5433070866141733,
          "duration": 0.12599999999999767
        },
        {
          "name": "C5",
          "midi": 72,
          "time": 46.32100000000128,
          "velocity": 0.5433070866141733,
          "duration": 0.12599999999999767
        },
        {
          "name": "G3",
          "midi": 55,
          "time": 46.331000000001275,
          "velocity": 0.6692913385826772,
          "duration": 0.19500000000000028
        },
        {
          "name": "G3",
          "midi": 55,
          "time": 46.331000000001275,
          "velocity": 0.6692913385826772,
          "duration": 0.19500000000000028
        },
        {
          "name": "G5",
          "midi": 79,
          "time": 46.361000000001276,
          "velocity": 0.5275590551181102,
          "duration": 0.036999999999999034
        },
        {
          "name": "G5",
          "midi": 79,
          "time": 46.361000000001276,
          "velocity": 0.5275590551181102,
          "duration": 0.036999999999999034
        },
        {
          "name": "E4",
          "midi": 64,
          "time": 46.380000000001274,
          "velocity": 0.49606299212598426,
          "duration": 0.018000000000000682
        },
        {
          "name": "E4",
          "midi": 64,
          "time": 46.380000000001274,
          "velocity": 0.49606299212598426,
          "duration": 0.018000000000000682
        },
        {
          "name": "D5",
          "midi": 74,
          "time": 46.410000000001276,
          "velocity": 0.5275590551181102,
          "duration": 0.046999999999997044
        },
        {
          "name": "E5",
          "midi": 76,
          "time": 46.410000000001276,
          "velocity": 0.49606299212598426,
          "duration": 0.027999999999998693
        },
        {
          "name": "D5",
          "midi": 74,
          "time": 46.410000000001276,
          "velocity": 0.5275590551181102,
          "duration": 0.046999999999997044
        },
        {
          "name": "E5",
          "midi": 76,
          "time": 46.410000000001276,
          "velocity": 0.49606299212598426,
          "duration": 0.027999999999998693
        },
        {
          "name": "D4",
          "midi": 62,
          "time": 46.459000000001275,
          "velocity": 0.5511811023622047,
          "duration": 0.027999999999998693
        },
        {
          "name": "D6",
          "midi": 86,
          "time": 46.459000000001275,
          "velocity": 0.5826771653543307,
          "duration": 0.046999999999997044
        },
        {
          "name": "D4",
          "midi": 62,
          "time": 46.459000000001275,
          "velocity": 0.5511811023622047,
          "duration": 0.027999999999998693
        },
        {
          "name": "D6",
          "midi": 86,
          "time": 46.459000000001275,
          "velocity": 0.5826771653543307,
          "duration": 0.046999999999997044
        },
        {
          "name": "C#3",
          "midi": 49,
          "time": 46.46900000000127,
          "velocity": 0.6535433070866141,
          "duration": 0.018000000000000682
        },
        {
          "name": "G5",
          "midi": 79,
          "time": 46.46900000000127,
          "velocity": 0.5354330708661418,
          "duration": 0.046999999999997044
        },
        {
          "name": "C#3",
          "midi": 49,
          "time": 46.46900000000127,
          "velocity": 0.6535433070866141,
          "duration": 0.018000000000000682
        },
        {
          "name": "G5",
          "midi": 79,
          "time": 46.46900000000127,
          "velocity": 0.5354330708661418,
          "duration": 0.046999999999997044
        },
        {
          "name": "E2",
          "midi": 40,
          "time": 46.499000000001274,
          "velocity": 0.5433070866141733,
          "duration": 0.007999999999995566
        },
        {
          "name": "E2",
          "midi": 40,
          "time": 46.499000000001274,
          "velocity": 0.5433070866141733,
          "duration": 0.007999999999995566
        },
        {
          "name": "D#3",
          "midi": 51,
          "time": 46.50900000000127,
          "velocity": 0.5748031496062992,
          "duration": 0.028000000000005798
        },
        {
          "name": "D#3",
          "midi": 51,
          "time": 46.50900000000127,
          "velocity": 0.5748031496062992,
          "duration": 0.028000000000005798
        },
        {
          "name": "A3",
          "midi": 57,
          "time": 46.51800000000127,
          "velocity": 0.6220472440944882,
          "duration": 0.057000000000009265
        },
        {
          "name": "A3",
          "midi": 57,
          "time": 46.51800000000127,
          "velocity": 0.6220472440944882,
          "duration": 0.057000000000009265
        },
        {
          "name": "D4",
          "midi": 62,
          "time": 46.52800000000128,
          "velocity": 0.5196850393700787,
          "duration": 0.06700000000000728
        },
        {
          "name": "D2",
          "midi": 38,
          "time": 46.52800000000128,
          "velocity": 0.5511811023622047,
          "duration": 0.07700000000000529
        },
        {
          "name": "D4",
          "midi": 62,
          "time": 46.52800000000128,
          "velocity": 0.5196850393700787,
          "duration": 0.06700000000000728
        },
        {
          "name": "D2",
          "midi": 38,
          "time": 46.52800000000128,
          "velocity": 0.5511811023622047,
          "duration": 0.07700000000000529
        },
        {
          "name": "G3",
          "midi": 55,
          "time": 46.55800000000128,
          "velocity": 0.5748031496062992,
          "duration": 0.018000000000000682
        },
        {
          "name": "G3",
          "midi": 55,
          "time": 46.55800000000128,
          "velocity": 0.5748031496062992,
          "duration": 0.018000000000000682
        },
        {
          "name": "C#3",
          "midi": 49,
          "time": 46.57800000000128,
          "velocity": 0.5511811023622047,
          "duration": 0.018000000000000682
        },
        {
          "name": "C#3",
          "midi": 49,
          "time": 46.57800000000128,
          "velocity": 0.5511811023622047,
          "duration": 0.018000000000000682
        },
        {
          "name": "G5",
          "midi": 79,
          "time": 46.58700000000128,
          "velocity": 0.47244094488188976,
          "duration": 0.008000000000002672
        },
        {
          "name": "G#3",
          "midi": 56,
          "time": 46.58700000000128,
          "velocity": 0.6299212598425197,
          "duration": 0.008000000000002672
        },
        {
          "name": "G5",
          "midi": 79,
          "time": 46.58700000000128,
          "velocity": 0.47244094488188976,
          "duration": 0.008000000000002672
        },
        {
          "name": "G#3",
          "midi": 56,
          "time": 46.58700000000128,
          "velocity": 0.6299212598425197,
          "duration": 0.008000000000002672
        },
        {
          "name": "F#4",
          "midi": 66,
          "time": 46.607000000001285,
          "velocity": 0.49606299212598426,
          "duration": 0.008000000000002672
        },
        {
          "name": "A3",
          "midi": 57,
          "time": 46.607000000001285,
          "velocity": 0.5039370078740157,
          "duration": 0.008000000000002672
        },
        {
          "name": "A#2",
          "midi": 46,
          "time": 46.607000000001285,
          "velocity": 0.5354330708661418,
          "duration": 0.057000000000009265
        },
        {
          "name": "G3",
          "midi": 55,
          "time": 46.607000000001285,
          "velocity": 0.5511811023622047,
          "duration": 0.008000000000002672
        },
        {
          "name": "F#4",
          "midi": 66,
          "time": 46.607000000001285,
          "velocity": 0.49606299212598426,
          "duration": 0.008000000000002672
        },
        {
          "name": "A3",
          "midi": 57,
          "time": 46.607000000001285,
          "velocity": 0.5039370078740157,
          "duration": 0.008000000000002672
        },
        {
          "name": "A#2",
          "midi": 46,
          "time": 46.607000000001285,
          "velocity": 0.5354330708661418,
          "duration": 0.057000000000009265
        },
        {
          "name": "G3",
          "midi": 55,
          "time": 46.607000000001285,
          "velocity": 0.5511811023622047,
          "duration": 0.008000000000002672
        },
        {
          "name": "D3",
          "midi": 50,
          "time": 46.62700000000129,
          "velocity": 0.5275590551181102,
          "duration": 0.018000000000000682
        },
        {
          "name": "A3",
          "midi": 57,
          "time": 46.62700000000129,
          "velocity": 0.5826771653543307,
          "duration": 0.10700000000001353
        },
        {
          "name": "G5",
          "midi": 79,
          "time": 46.62700000000129,
          "velocity": 0.5118110236220472,
          "duration": 0.028000000000005798
        },
        {
          "name": "D3",
          "midi": 50,
          "time": 46.62700000000129,
          "velocity": 0.5275590551181102,
          "duration": 0.018000000000000682
        },
        {
          "name": "A3",
          "midi": 57,
          "time": 46.62700000000129,
          "velocity": 0.5826771653543307,
          "duration": 0.10700000000001353
        },
        {
          "name": "G5",
          "midi": 79,
          "time": 46.62700000000129,
          "velocity": 0.5118110236220472,
          "duration": 0.028000000000005798
        },
        {
          "name": "B4",
          "midi": 71,
          "time": 46.64700000000129,
          "velocity": 0.8582677165354331,
          "duration": 0.11600000000002098
        },
        {
          "name": "B4",
          "midi": 71,
          "time": 46.64700000000129,
          "velocity": 0.8582677165354331,
          "duration": 0.11600000000002098
        },
        {
          "name": "B6",
          "midi": 95,
          "time": 46.65600000000129,
          "velocity": 0.6062992125984252,
          "duration": 0.06700000000000728
        },
        {
          "name": "B6",
          "midi": 95,
          "time": 46.65600000000129,
          "velocity": 0.6062992125984252,
          "duration": 0.06700000000000728
        },
        {
          "name": "D3",
          "midi": 50,
          "time": 46.6660000000013,
          "velocity": 0.5039370078740157,
          "duration": 0.008000000000002672
        },
        {
          "name": "B5",
          "midi": 83,
          "time": 46.6660000000013,
          "velocity": 0.5039370078740157,
          "duration": 0.008000000000002672
        },
        {
          "name": "D3",
          "midi": 50,
          "time": 46.6660000000013,
          "velocity": 0.5039370078740157,
          "duration": 0.008000000000002672
        },
        {
          "name": "B5",
          "midi": 83,
          "time": 46.6660000000013,
          "velocity": 0.5039370078740157,
          "duration": 0.008000000000002672
        },
        {
          "name": "D#7",
          "midi": 99,
          "time": 46.6760000000013,
          "velocity": 0.5196850393700787,
          "duration": 0.036999999999999034
        },
        {
          "name": "D#7",
          "midi": 99,
          "time": 46.6760000000013,
          "velocity": 0.5196850393700787,
          "duration": 0.036999999999999034
        },
        {
          "name": "G4",
          "midi": 67,
          "time": 46.6860000000013,
          "velocity": 0.5984251968503937,
          "duration": 0.11600000000001387
        },
        {
          "name": "G4",
          "midi": 67,
          "time": 46.6860000000013,
          "velocity": 0.5984251968503937,
          "duration": 0.11600000000001387
        },
        {
          "name": "F3",
          "midi": 53,
          "time": 46.7160000000013,
          "velocity": 0.5196850393700787,
          "duration": 0.057000000000009265
        },
        {
          "name": "F3",
          "midi": 53,
          "time": 46.7160000000013,
          "velocity": 0.5196850393700787,
          "duration": 0.057000000000009265
        },
        {
          "name": "C4",
          "midi": 60,
          "time": 46.7260000000013,
          "velocity": 0.5905511811023622,
          "duration": 0.16600000000001103
        },
        {
          "name": "C4",
          "midi": 60,
          "time": 46.7260000000013,
          "velocity": 0.5905511811023622,
          "duration": 0.16600000000001103
        },
        {
          "name": "F#6",
          "midi": 90,
          "time": 46.7350000000013,
          "velocity": 0.49606299212598426,
          "duration": 0.008000000000002672
        },
        {
          "name": "F#6",
          "midi": 90,
          "time": 46.7350000000013,
          "velocity": 0.49606299212598426,
          "duration": 0.008000000000002672
        },
        {
          "name": "F4",
          "midi": 65,
          "time": 46.745000000001305,
          "velocity": 0.5039370078740157,
          "duration": 0.008000000000002672
        },
        {
          "name": "F4",
          "midi": 65,
          "time": 46.745000000001305,
          "velocity": 0.5039370078740157,
          "duration": 0.008000000000002672
        },
        {
          "name": "C5",
          "midi": 72,
          "time": 46.75500000000131,
          "velocity": 0.6535433070866141,
          "duration": 0.1460000000000008
        },
        {
          "name": "C5",
          "midi": 72,
          "time": 46.75500000000131,
          "velocity": 0.6535433070866141,
          "duration": 0.1460000000000008
        },
        {
          "name": "C6",
          "midi": 84,
          "time": 46.77500000000131,
          "velocity": 0.5354330708661418,
          "duration": 0.027999999999998693
        },
        {
          "name": "C6",
          "midi": 84,
          "time": 46.77500000000131,
          "velocity": 0.5354330708661418,
          "duration": 0.027999999999998693
        },
        {
          "name": "C7",
          "midi": 96,
          "time": 46.78500000000131,
          "velocity": 0.5118110236220472,
          "duration": 0.008000000000002672
        },
        {
          "name": "G6",
          "midi": 91,
          "time": 46.78500000000131,
          "velocity": 0.5118110236220472,
          "duration": 0.008000000000002672
        },
        {
          "name": "C7",
          "midi": 96,
          "time": 46.78500000000131,
          "velocity": 0.5118110236220472,
          "duration": 0.008000000000002672
        },
        {
          "name": "G6",
          "midi": 91,
          "time": 46.78500000000131,
          "velocity": 0.5118110236220472,
          "duration": 0.008000000000002672
        },
        {
          "name": "B4",
          "midi": 71,
          "time": 46.80400000000131,
          "velocity": 0.5826771653543307,
          "duration": 0.12600000000000477
        },
        {
          "name": "B4",
          "midi": 71,
          "time": 46.80400000000131,
          "velocity": 0.5826771653543307,
          "duration": 0.12600000000000477
        },
        {
          "name": "F4",
          "midi": 65,
          "time": 46.81400000000131,
          "velocity": 0.5118110236220472,
          "duration": 0.046999999999997044
        },
        {
          "name": "F4",
          "midi": 65,
          "time": 46.81400000000131,
          "velocity": 0.5118110236220472,
          "duration": 0.046999999999997044
        },
        {
          "name": "F3",
          "midi": 53,
          "time": 46.824000000001305,
          "velocity": 0.5511811023622047,
          "duration": 0.036999999999999034
        },
        {
          "name": "G4",
          "midi": 67,
          "time": 46.824000000001305,
          "velocity": 0.5039370078740157,
          "duration": 0.018000000000000682
        },
        {
          "name": "F3",
          "midi": 53,
          "time": 46.824000000001305,
          "velocity": 0.5511811023622047,
          "duration": 0.036999999999999034
        },
        {
          "name": "G4",
          "midi": 67,
          "time": 46.824000000001305,
          "velocity": 0.5039370078740157,
          "duration": 0.018000000000000682
        },
        {
          "name": "A3",
          "midi": 57,
          "time": 46.85400000000131,
          "velocity": 0.5039370078740157,
          "duration": 0.018000000000000682
        },
        {
          "name": "A3",
          "midi": 57,
          "time": 46.85400000000131,
          "velocity": 0.5039370078740157,
          "duration": 0.018000000000000682
        },
        {
          "name": "F3",
          "midi": 53,
          "time": 46.873000000001305,
          "velocity": 0.5590551181102362,
          "duration": 0.018000000000007788
        },
        {
          "name": "D5",
          "midi": 74,
          "time": 46.873000000001305,
          "velocity": 0.5118110236220472,
          "duration": 0.008000000000002672
        },
        {
          "name": "F3",
          "midi": 53,
          "time": 46.873000000001305,
          "velocity": 0.5590551181102362,
          "duration": 0.018000000000007788
        },
        {
          "name": "D5",
          "midi": 74,
          "time": 46.873000000001305,
          "velocity": 0.5118110236220472,
          "duration": 0.008000000000002672
        },
        {
          "name": "A6",
          "midi": 93,
          "time": 46.88300000000131,
          "velocity": 0.5590551181102362,
          "duration": 0.03700000000000614
        },
        {
          "name": "A6",
          "midi": 93,
          "time": 46.88300000000131,
          "velocity": 0.5590551181102362,
          "duration": 0.03700000000000614
        },
        {
          "name": "D5",
          "midi": 74,
          "time": 46.90300000000131,
          "velocity": 0.5196850393700787,
          "duration": 0.10700000000001353
        },
        {
          "name": "G3",
          "midi": 55,
          "time": 46.90300000000131,
          "velocity": 0.5748031496062992,
          "duration": 0.1360000000000099
        },
        {
          "name": "F#6",
          "midi": 90,
          "time": 46.90300000000131,
          "velocity": 0.5196850393700787,
          "duration": 0.008000000000002672
        },
        {
          "name": "D5",
          "midi": 74,
          "time": 46.90300000000131,
          "velocity": 0.5196850393700787,
          "duration": 0.10700000000001353
        },
        {
          "name": "G3",
          "midi": 55,
          "time": 46.90300000000131,
          "velocity": 0.5748031496062992,
          "duration": 0.1360000000000099
        },
        {
          "name": "F#6",
          "midi": 90,
          "time": 46.90300000000131,
          "velocity": 0.5196850393700787,
          "duration": 0.008000000000002672
        },
        {
          "name": "G#2",
          "midi": 44,
          "time": 46.91300000000132,
          "velocity": 0.6377952755905512,
          "duration": 0.007999999999995566
        },
        {
          "name": "G#2",
          "midi": 44,
          "time": 46.91300000000132,
          "velocity": 0.6377952755905512,
          "duration": 0.007999999999995566
        },
        {
          "name": "D4",
          "midi": 62,
          "time": 46.923000000001316,
          "velocity": 0.5984251968503937,
          "duration": 0.09700000000000841
        },
        {
          "name": "D4",
          "midi": 62,
          "time": 46.923000000001316,
          "velocity": 0.5984251968503937,
          "duration": 0.09700000000000841
        },
        {
          "name": "A2",
          "midi": 45,
          "time": 46.933000000001314,
          "velocity": 0.7716535433070866,
          "duration": 0.008000000000002672
        },
        {
          "name": "A2",
          "midi": 45,
          "time": 46.933000000001314,
          "velocity": 0.7716535433070866,
          "duration": 0.008000000000002672
        },
        {
          "name": "C5",
          "midi": 72,
          "time": 46.95200000000132,
          "velocity": 0.5905511811023622,
          "duration": 0.1360000000000099
        },
        {
          "name": "C5",
          "midi": 72,
          "time": 46.95200000000132,
          "velocity": 0.5905511811023622,
          "duration": 0.1360000000000099
        },
        {
          "name": "G2",
          "midi": 43,
          "time": 46.97200000000132,
          "velocity": 0.8346456692913385,
          "duration": 0.04700000000000415
        },
        {
          "name": "G2",
          "midi": 43,
          "time": 46.97200000000132,
          "velocity": 0.8346456692913385,
          "duration": 0.04700000000000415
        },
        {
          "name": "G4",
          "midi": 67,
          "time": 46.98200000000132,
          "velocity": 0.4645669291338583,
          "duration": 0.008000000000002672
        },
        {
          "name": "G4",
          "midi": 67,
          "time": 46.98200000000132,
          "velocity": 0.4645669291338583,
          "duration": 0.008000000000002672
        },
        {
          "name": "C7",
          "midi": 96,
          "time": 47.002000000001324,
          "velocity": 0.49606299212598426,
          "duration": 0.057000000000009265
        },
        {
          "name": "C7",
          "midi": 96,
          "time": 47.002000000001324,
          "velocity": 0.49606299212598426,
          "duration": 0.057000000000009265
        },
        {
          "name": "C4",
          "midi": 60,
          "time": 47.02100000000132,
          "velocity": 0.48031496062992124,
          "duration": 0.0870000000000104
        },
        {
          "name": "C4",
          "midi": 60,
          "time": 47.02100000000132,
          "velocity": 0.48031496062992124,
          "duration": 0.0870000000000104
        },
        {
          "name": "G2",
          "midi": 43,
          "time": 47.041000000001326,
          "velocity": 0.6062992125984252,
          "duration": 0.008000000000002672
        },
        {
          "name": "G2",
          "midi": 43,
          "time": 47.041000000001326,
          "velocity": 0.6062992125984252,
          "duration": 0.008000000000002672
        },
        {
          "name": "B4",
          "midi": 71,
          "time": 47.05100000000133,
          "velocity": 0.5118110236220472,
          "duration": 0.036999999999999034
        },
        {
          "name": "B4",
          "midi": 71,
          "time": 47.05100000000133,
          "velocity": 0.5118110236220472,
          "duration": 0.036999999999999034
        },
        {
          "name": "A2",
          "midi": 45,
          "time": 47.071000000001334,
          "velocity": 0.6535433070866141,
          "duration": 0.05700000000000216
        },
        {
          "name": "A2",
          "midi": 45,
          "time": 47.071000000001334,
          "velocity": 0.6535433070866141,
          "duration": 0.05700000000000216
        },
        {
          "name": "C5",
          "midi": 72,
          "time": 47.08100000000133,
          "velocity": 0.5275590551181102,
          "duration": 0.018000000000000682
        },
        {
          "name": "G3",
          "midi": 55,
          "time": 47.08100000000133,
          "velocity": 0.5354330708661418,
          "duration": 0.03700000000000614
        },
        {
          "name": "C5",
          "midi": 72,
          "time": 47.08100000000133,
          "velocity": 0.5275590551181102,
          "duration": 0.018000000000000682
        },
        {
          "name": "G3",
          "midi": 55,
          "time": 47.08100000000133,
          "velocity": 0.5354330708661418,
          "duration": 0.03700000000000614
        },
        {
          "name": "D5",
          "midi": 74,
          "time": 47.10000000000133,
          "velocity": 0.5275590551181102,
          "duration": 0.057000000000009265
        },
        {
          "name": "D5",
          "midi": 74,
          "time": 47.10000000000133,
          "velocity": 0.5275590551181102,
          "duration": 0.057000000000009265
        },
        {
          "name": "B6",
          "midi": 95,
          "time": 47.110000000001335,
          "velocity": 0.5275590551181102,
          "duration": 0.04700000000000415
        },
        {
          "name": "B4",
          "midi": 71,
          "time": 47.110000000001335,
          "velocity": 0.6614173228346457,
          "duration": 0.2050000000000196
        },
        {
          "name": "B6",
          "midi": 95,
          "time": 47.110000000001335,
          "velocity": 0.5275590551181102,
          "duration": 0.04700000000000415
        },
        {
          "name": "B4",
          "midi": 71,
          "time": 47.110000000001335,
          "velocity": 0.6614173228346457,
          "duration": 0.2050000000000196
        },
        {
          "name": "F4",
          "midi": 65,
          "time": 47.13000000000134,
          "velocity": 0.5669291338582677,
          "duration": 0.06700000000000017
        },
        {
          "name": "C5",
          "midi": 72,
          "time": 47.13000000000134,
          "velocity": 0.5590551181102362,
          "duration": 0.05700000000000216
        },
        {
          "name": "F4",
          "midi": 65,
          "time": 47.13000000000134,
          "velocity": 0.5669291338582677,
          "duration": 0.06700000000000017
        },
        {
          "name": "C5",
          "midi": 72,
          "time": 47.13000000000134,
          "velocity": 0.5590551181102362,
          "duration": 0.05700000000000216
        },
        {
          "name": "F3",
          "midi": 53,
          "time": 47.15000000000134,
          "velocity": 0.5590551181102362,
          "duration": 0.05700000000000216
        },
        {
          "name": "F3",
          "midi": 53,
          "time": 47.15000000000134,
          "velocity": 0.5590551181102362,
          "duration": 0.05700000000000216
        },
        {
          "name": "C4",
          "midi": 60,
          "time": 47.16900000000134,
          "velocity": 0.5118110236220472,
          "duration": 0.018000000000000682
        },
        {
          "name": "G4",
          "midi": 67,
          "time": 47.16900000000134,
          "velocity": 0.5748031496062992,
          "duration": 0.09700000000000841
        },
        {
          "name": "C4",
          "midi": 60,
          "time": 47.16900000000134,
          "velocity": 0.5118110236220472,
          "duration": 0.018000000000000682
        },
        {
          "name": "G4",
          "midi": 67,
          "time": 47.16900000000134,
          "velocity": 0.5748031496062992,
          "duration": 0.09700000000000841
        },
        {
          "name": "G#2",
          "midi": 44,
          "time": 47.19900000000134,
          "velocity": 0.5196850393700787,
          "duration": 0.028000000000005798
        },
        {
          "name": "G#2",
          "midi": 44,
          "time": 47.19900000000134,
          "velocity": 0.5196850393700787,
          "duration": 0.028000000000005798
        },
        {
          "name": "F3",
          "midi": 53,
          "time": 47.219000000001344,
          "velocity": 0.5196850393700787,
          "duration": 0.018000000000007788
        },
        {
          "name": "F3",
          "midi": 53,
          "time": 47.219000000001344,
          "velocity": 0.5196850393700787,
          "duration": 0.018000000000007788
        },
        {
          "name": "A4",
          "midi": 69,
          "time": 47.22900000000135,
          "velocity": 0.7165354330708661,
          "duration": 0.12600000000001188
        },
        {
          "name": "A3",
          "midi": 57,
          "time": 47.22900000000135,
          "velocity": 0.5748031496062992,
          "duration": 0.036999999999999034
        },
        {
          "name": "A4",
          "midi": 69,
          "time": 47.22900000000135,
          "velocity": 0.7165354330708661,
          "duration": 0.12600000000001188
        },
        {
          "name": "A3",
          "midi": 57,
          "time": 47.22900000000135,
          "velocity": 0.5748031496062992,
          "duration": 0.036999999999999034
        },
        {
          "name": "A5",
          "midi": 81,
          "time": 47.23800000000135,
          "velocity": 0.5826771653543307,
          "duration": 0.07700000000000529
        },
        {
          "name": "A5",
          "midi": 81,
          "time": 47.23800000000135,
          "velocity": 0.5826771653543307,
          "duration": 0.07700000000000529
        },
        {
          "name": "A#2",
          "midi": 46,
          "time": 47.24800000000135,
          "velocity": 0.5039370078740157,
          "duration": 0.008000000000002672
        },
        {
          "name": "A#2",
          "midi": 46,
          "time": 47.24800000000135,
          "velocity": 0.5039370078740157,
          "duration": 0.008000000000002672
        },
        {
          "name": "G#2",
          "midi": 44,
          "time": 47.26800000000135,
          "velocity": 0.5433070866141733,
          "duration": 0.018000000000000682
        },
        {
          "name": "G#2",
          "midi": 44,
          "time": 47.26800000000135,
          "velocity": 0.5433070866141733,
          "duration": 0.018000000000000682
        },
        {
          "name": "G#3",
          "midi": 56,
          "time": 47.27800000000135,
          "velocity": 0.5196850393700787,
          "duration": 0.028000000000005798
        },
        {
          "name": "G#3",
          "midi": 56,
          "time": 47.27800000000135,
          "velocity": 0.5196850393700787,
          "duration": 0.028000000000005798
        },
        {
          "name": "F3",
          "midi": 53,
          "time": 47.288000000001354,
          "velocity": 0.5275590551181102,
          "duration": 0.018000000000000682
        },
        {
          "name": "F3",
          "midi": 53,
          "time": 47.288000000001354,
          "velocity": 0.5275590551181102,
          "duration": 0.018000000000000682
        },
        {
          "name": "G4",
          "midi": 67,
          "time": 47.31700000000136,
          "velocity": 0.6850393700787402,
          "duration": 0.24500000000001876
        },
        {
          "name": "A3",
          "midi": 57,
          "time": 47.31700000000136,
          "velocity": 0.49606299212598426,
          "duration": 0.008000000000002672
        },
        {
          "name": "G4",
          "midi": 67,
          "time": 47.31700000000136,
          "velocity": 0.6850393700787402,
          "duration": 0.24500000000001876
        },
        {
          "name": "A3",
          "midi": 57,
          "time": 47.31700000000136,
          "velocity": 0.49606299212598426,
          "duration": 0.008000000000002672
        },
        {
          "name": "F#3",
          "midi": 54,
          "time": 47.32700000000136,
          "velocity": 0.6062992125984252,
          "duration": 0.008000000000002672
        },
        {
          "name": "C4",
          "midi": 60,
          "time": 47.32700000000136,
          "velocity": 0.5354330708661418,
          "duration": 0.018000000000000682
        },
        {
          "name": "F#4",
          "midi": 66,
          "time": 47.32700000000136,
          "velocity": 0.5511811023622047,
          "duration": 0.027999999999998693
        },
        {
          "name": "F#3",
          "midi": 54,
          "time": 47.32700000000136,
          "velocity": 0.6062992125984252,
          "duration": 0.008000000000002672
        },
        {
          "name": "C4",
          "midi": 60,
          "time": 47.32700000000136,
          "velocity": 0.5354330708661418,
          "duration": 0.018000000000000682
        },
        {
          "name": "F#4",
          "midi": 66,
          "time": 47.32700000000136,
          "velocity": 0.5511811023622047,
          "duration": 0.027999999999998693
        },
        {
          "name": "D6",
          "midi": 86,
          "time": 47.357000000001364,
          "velocity": 0.5590551181102362,
          "duration": 0.027999999999998693
        },
        {
          "name": "C3",
          "midi": 48,
          "time": 47.357000000001364,
          "velocity": 0.889763779527559,
          "duration": 0.036999999999999034
        },
        {
          "name": "D6",
          "midi": 86,
          "time": 47.357000000001364,
          "velocity": 0.5590551181102362,
          "duration": 0.027999999999998693
        },
        {
          "name": "C3",
          "midi": 48,
          "time": 47.357000000001364,
          "velocity": 0.889763779527559,
          "duration": 0.036999999999999034
        },
        {
          "name": "C4",
          "midi": 60,
          "time": 47.36700000000136,
          "velocity": 0.5196850393700787,
          "duration": 0.10699999999999932
        },
        {
          "name": "G6",
          "midi": 91,
          "time": 47.36700000000136,
          "velocity": 0.5354330708661418,
          "duration": 0.03700000000000614
        },
        {
          "name": "G3",
          "midi": 55,
          "time": 47.36700000000136,
          "velocity": 0.5590551181102362,
          "duration": 0.18500000000001648
        },
        {
          "name": "C4",
          "midi": 60,
          "time": 47.36700000000136,
          "velocity": 0.5196850393700787,
          "duration": 0.10699999999999932
        },
        {
          "name": "G6",
          "midi": 91,
          "time": 47.36700000000136,
          "velocity": 0.5354330708661418,
          "duration": 0.03700000000000614
        },
        {
          "name": "G3",
          "midi": 55,
          "time": 47.36700000000136,
          "velocity": 0.5590551181102362,
          "duration": 0.18500000000001648
        },
        {
          "name": "G5",
          "midi": 79,
          "time": 47.396000000001365,
          "velocity": 0.4881889763779528,
          "duration": 0.046999999999997044
        },
        {
          "name": "G5",
          "midi": 79,
          "time": 47.396000000001365,
          "velocity": 0.4881889763779528,
          "duration": 0.046999999999997044
        },
        {
          "name": "E4",
          "midi": 64,
          "time": 47.426000000001366,
          "velocity": 0.47244094488188976,
          "duration": 0.017999999999993577
        },
        {
          "name": "E4",
          "midi": 64,
          "time": 47.426000000001366,
          "velocity": 0.47244094488188976,
          "duration": 0.017999999999993577
        },
        {
          "name": "C#3",
          "midi": 49,
          "time": 47.436000000001364,
          "velocity": 0.8031496062992126,
          "duration": 0.046999999999997044
        },
        {
          "name": "C#3",
          "midi": 49,
          "time": 47.436000000001364,
          "velocity": 0.8031496062992126,
          "duration": 0.046999999999997044
        },
        {
          "name": "D6",
          "midi": 86,
          "time": 47.45500000000136,
          "velocity": 0.4645669291338583,
          "duration": 0.027999999999998693
        },
        {
          "name": "D6",
          "midi": 86,
          "time": 47.45500000000136,
          "velocity": 0.4645669291338583,
          "duration": 0.027999999999998693
        },
        {
          "name": "C#2",
          "midi": 37,
          "time": 47.47500000000136,
          "velocity": 0.47244094488188976,
          "duration": 0.018000000000007788
        },
        {
          "name": "C#2",
          "midi": 37,
          "time": 47.47500000000136,
          "velocity": 0.47244094488188976,
          "duration": 0.018000000000007788
        },
        {
          "name": "G5",
          "midi": 79,
          "time": 47.485000000001364,
          "velocity": 0.4881889763779528,
          "duration": 0.05700000000001637
        },
        {
          "name": "G5",
          "midi": 79,
          "time": 47.485000000001364,
          "velocity": 0.4881889763779528,
          "duration": 0.05700000000001637
        },
        {
          "name": "A3",
          "midi": 57,
          "time": 47.49500000000137,
          "velocity": 0.5039370078740157,
          "duration": 0.008000000000002672
        },
        {
          "name": "A3",
          "midi": 57,
          "time": 47.49500000000137,
          "velocity": 0.5039370078740157,
          "duration": 0.008000000000002672
        },
        {
          "name": "C#3",
          "midi": 49,
          "time": 47.505000000001374,
          "velocity": 0.7086614173228346,
          "duration": 0.008000000000002672
        },
        {
          "name": "C2",
          "midi": 36,
          "time": 47.505000000001374,
          "velocity": 0.48031496062992124,
          "duration": 0.028000000000005798
        },
        {
          "name": "C#3",
          "midi": 49,
          "time": 47.505000000001374,
          "velocity": 0.7086614173228346,
          "duration": 0.008000000000002672
        },
        {
          "name": "C2",
          "midi": 36,
          "time": 47.505000000001374,
          "velocity": 0.48031496062992124,
          "duration": 0.028000000000005798
        },
        {
          "name": "C4",
          "midi": 60,
          "time": 47.52400000000138,
          "velocity": 0.5275590551181102,
          "duration": 0.046999999999997044
        },
        {
          "name": "C3",
          "midi": 48,
          "time": 47.52400000000138,
          "velocity": 0.7637795275590551,
          "duration": 0.056999999999995055
        },
        {
          "name": "C4",
          "midi": 60,
          "time": 47.52400000000138,
          "velocity": 0.5275590551181102,
          "duration": 0.046999999999997044
        },
        {
          "name": "C3",
          "midi": 48,
          "time": 47.52400000000138,
          "velocity": 0.7637795275590551,
          "duration": 0.056999999999995055
        },
        {
          "name": "E4",
          "midi": 64,
          "time": 47.56400000000138,
          "velocity": 0.5984251968503937,
          "duration": 0.03699999999999193
        },
        {
          "name": "G3",
          "midi": 55,
          "time": 47.56400000000138,
          "velocity": 0.5669291338582677,
          "duration": 0.007999999999995566
        },
        {
          "name": "C5",
          "midi": 72,
          "time": 47.56400000000138,
          "velocity": 0.5433070866141733,
          "duration": 0.056999999999995055
        },
        {
          "name": "E4",
          "midi": 64,
          "time": 47.56400000000138,
          "velocity": 0.5984251968503937,
          "duration": 0.03699999999999193
        },
        {
          "name": "G3",
          "midi": 55,
          "time": 47.56400000000138,
          "velocity": 0.5669291338582677,
          "duration": 0.007999999999995566
        },
        {
          "name": "C5",
          "midi": 72,
          "time": 47.56400000000138,
          "velocity": 0.5433070866141733,
          "duration": 0.056999999999995055
        },
        {
          "name": "D5",
          "midi": 74,
          "time": 47.57400000000138,
          "velocity": 0.5511811023622047,
          "duration": 0.03699999999999193
        },
        {
          "name": "D5",
          "midi": 74,
          "time": 47.57400000000138,
          "velocity": 0.5511811023622047,
          "duration": 0.03699999999999193
        },
        {
          "name": "G4",
          "midi": 67,
          "time": 47.584000000001375,
          "velocity": 0.7322834645669292,
          "duration": 0.7280000000000655
        },
        {
          "name": "D6",
          "midi": 86,
          "time": 47.584000000001375,
          "velocity": 0.5984251968503937,
          "duration": 0.0870000000000033
        },
        {
          "name": "G4",
          "midi": 67,
          "time": 47.584000000001375,
          "velocity": 0.7322834645669292,
          "duration": 0.7280000000000655
        },
        {
          "name": "D6",
          "midi": 86,
          "time": 47.584000000001375,
          "velocity": 0.5984251968503937,
          "duration": 0.0870000000000033
        },
        {
          "name": "G5",
          "midi": 79,
          "time": 47.59400000000137,
          "velocity": 0.5590551181102362,
          "duration": 0.04700000000000415
        },
        {
          "name": "G5",
          "midi": 79,
          "time": 47.59400000000137,
          "velocity": 0.5590551181102362,
          "duration": 0.04700000000000415
        },
        {
          "name": "G3",
          "midi": 55,
          "time": 47.61300000000137,
          "velocity": 0.5984251968503937,
          "duration": 0.09700000000000131
        },
        {
          "name": "G3",
          "midi": 55,
          "time": 47.61300000000137,
          "velocity": 0.5984251968503937,
          "duration": 0.09700000000000131
        },
        {
          "name": "C4",
          "midi": 60,
          "time": 47.623000000001376,
          "velocity": 0.5984251968503937,
          "duration": 0.08699999999999619
        },
        {
          "name": "C4",
          "midi": 60,
          "time": 47.623000000001376,
          "velocity": 0.5984251968503937,
          "duration": 0.08699999999999619
        },
        {
          "name": "C3",
          "midi": 48,
          "time": 47.633000000001374,
          "velocity": 0.5118110236220472,
          "duration": 0.018000000000000682
        },
        {
          "name": "C3",
          "midi": 48,
          "time": 47.633000000001374,
          "velocity": 0.5118110236220472,
          "duration": 0.018000000000000682
        },
        {
          "name": "B4",
          "midi": 71,
          "time": 47.663000000001375,
          "velocity": 0.5984251968503937,
          "duration": 0.10699999999999932
        },
        {
          "name": "B4",
          "midi": 71,
          "time": 47.663000000001375,
          "velocity": 0.5984251968503937,
          "duration": 0.10699999999999932
        },
        {
          "name": "E4",
          "midi": 64,
          "time": 47.672000000001375,
          "velocity": 0.5984251968503937,
          "duration": 0.28400000000002024
        },
        {
          "name": "E4",
          "midi": 64,
          "time": 47.672000000001375,
          "velocity": 0.5984251968503937,
          "duration": 0.28400000000002024
        },
        {
          "name": "B5",
          "midi": 83,
          "time": 47.712000000001375,
          "velocity": 0.5354330708661418,
          "duration": 0.027999999999998693
        },
        {
          "name": "B5",
          "midi": 83,
          "time": 47.712000000001375,
          "velocity": 0.5354330708661418,
          "duration": 0.027999999999998693
        },
        {
          "name": "E6",
          "midi": 88,
          "time": 47.72200000000137,
          "velocity": 0.5433070866141733,
          "duration": 0.036999999999999034
        },
        {
          "name": "E3",
          "midi": 52,
          "time": 47.72200000000137,
          "velocity": 0.5275590551181102,
          "duration": 0.027999999999998693
        },
        {
          "name": "E6",
          "midi": 88,
          "time": 47.72200000000137,
          "velocity": 0.5433070866141733,
          "duration": 0.036999999999999034
        },
        {
          "name": "E3",
          "midi": 52,
          "time": 47.72200000000137,
          "velocity": 0.5275590551181102,
          "duration": 0.027999999999998693
        },
        {
          "name": "G3",
          "midi": 55,
          "time": 47.75100000000137,
          "velocity": 0.5196850393700787,
          "duration": 0.03700000000000614
        },
        {
          "name": "G3",
          "midi": 55,
          "time": 47.75100000000137,
          "velocity": 0.5196850393700787,
          "duration": 0.03700000000000614
        },
        {
          "name": "G5",
          "midi": 79,
          "time": 47.761000000001374,
          "velocity": 0.5196850393700787,
          "duration": 0.05700000000000216
        },
        {
          "name": "G5",
          "midi": 79,
          "time": 47.761000000001374,
          "velocity": 0.5196850393700787,
          "duration": 0.05700000000000216
        },
        {
          "name": "F#4",
          "midi": 66,
          "time": 47.77100000000137,
          "velocity": 0.5826771653543307,
          "duration": 0.018000000000000682
        },
        {
          "name": "F#4",
          "midi": 66,
          "time": 47.77100000000137,
          "velocity": 0.5826771653543307,
          "duration": 0.018000000000000682
        },
        {
          "name": "A2",
          "midi": 45,
          "time": 47.80100000000137,
          "velocity": 0.5433070866141733,
          "duration": 0.008000000000002672
        },
        {
          "name": "D5",
          "midi": 74,
          "time": 47.80100000000137,
          "velocity": 0.5039370078740157,
          "duration": 0.008000000000002672
        },
        {
          "name": "A2",
          "midi": 45,
          "time": 47.80100000000137,
          "velocity": 0.5433070866141733,
          "duration": 0.008000000000002672
        },
        {
          "name": "D5",
          "midi": 74,
          "time": 47.80100000000137,
          "velocity": 0.5039370078740157,
          "duration": 0.008000000000002672
        },
        {
          "name": "D4",
          "midi": 62,
          "time": 47.81100000000138,
          "velocity": 0.5196850393700787,
          "duration": 0.057000000000009265
        },
        {
          "name": "D4",
          "midi": 62,
          "time": 47.81100000000138,
          "velocity": 0.5196850393700787,
          "duration": 0.057000000000009265
        },
        {
          "name": "B2",
          "midi": 47,
          "time": 47.83000000000138,
          "velocity": 0.6299212598425197,
          "duration": 0.008000000000002672
        },
        {
          "name": "G3",
          "midi": 55,
          "time": 47.83000000000138,
          "velocity": 0.5984251968503937,
          "duration": 0.136000000000017
        },
        {
          "name": "B2",
          "midi": 47,
          "time": 47.83000000000138,
          "velocity": 0.6299212598425197,
          "duration": 0.008000000000002672
        },
        {
          "name": "G3",
          "midi": 55,
          "time": 47.83000000000138,
          "velocity": 0.5984251968503937,
          "duration": 0.136000000000017
        },
        {
          "name": "G5",
          "midi": 79,
          "time": 47.84000000000138,
          "velocity": 0.5433070866141733,
          "duration": 0.03700000000000614
        },
        {
          "name": "G5",
          "midi": 79,
          "time": 47.84000000000138,
          "velocity": 0.5433070866141733,
          "duration": 0.03700000000000614
        },
        {
          "name": "A2",
          "midi": 45,
          "time": 47.860000000001385,
          "velocity": 0.6929133858267716,
          "duration": 0.008000000000002672
        },
        {
          "name": "A2",
          "midi": 45,
          "time": 47.860000000001385,
          "velocity": 0.6929133858267716,
          "duration": 0.008000000000002672
        },
        {
          "name": "G#2",
          "midi": 44,
          "time": 47.88900000000139,
          "velocity": 0.8818897637795275,
          "duration": 0.03700000000000614
        },
        {
          "name": "D5",
          "midi": 74,
          "time": 47.88900000000139,
          "velocity": 0.4881889763779528,
          "duration": 0.03700000000000614
        },
        {
          "name": "G#2",
          "midi": 44,
          "time": 47.88900000000139,
          "velocity": 0.8818897637795275,
          "duration": 0.03700000000000614
        },
        {
          "name": "D5",
          "midi": 74,
          "time": 47.88900000000139,
          "velocity": 0.4881889763779528,
          "duration": 0.03700000000000614
        },
        {
          "name": "B4",
          "midi": 71,
          "time": 47.90900000000139,
          "velocity": 0.4645669291338583,
          "duration": 0.008000000000002672
        },
        {
          "name": "B4",
          "midi": 71,
          "time": 47.90900000000139,
          "velocity": 0.4645669291338583,
          "duration": 0.008000000000002672
        },
        {
          "name": "E5",
          "midi": 76,
          "time": 47.929000000001395,
          "velocity": 0.4645669291338583,
          "duration": 0.018000000000000682
        },
        {
          "name": "E5",
          "midi": 76,
          "time": 47.929000000001395,
          "velocity": 0.4645669291338583,
          "duration": 0.018000000000000682
        },
        {
          "name": "G5",
          "midi": 79,
          "time": 47.93900000000139,
          "velocity": 0.4645669291338583,
          "duration": 0.036999999999999034
        },
        {
          "name": "G5",
          "midi": 79,
          "time": 47.93900000000139,
          "velocity": 0.4645669291338583,
          "duration": 0.036999999999999034
        },
        {
          "name": "B2",
          "midi": 47,
          "time": 47.959000000001396,
          "velocity": 0.7401574803149606,
          "duration": 0.007999999999995566
        },
        {
          "name": "B2",
          "midi": 47,
          "time": 47.959000000001396,
          "velocity": 0.7401574803149606,
          "duration": 0.007999999999995566
        },
        {
          "name": "C4",
          "midi": 60,
          "time": 47.96800000000139,
          "velocity": 0.44881889763779526,
          "duration": 0.008000000000002672
        },
        {
          "name": "C4",
          "midi": 60,
          "time": 47.96800000000139,
          "velocity": 0.44881889763779526,
          "duration": 0.008000000000002672
        },
        {
          "name": "A#2",
          "midi": 46,
          "time": 47.978000000001394,
          "velocity": 0.6456692913385826,
          "duration": 0.057000000000009265
        },
        {
          "name": "D4",
          "midi": 62,
          "time": 47.978000000001394,
          "velocity": 0.5039370078740157,
          "duration": 0.028000000000012903
        },
        {
          "name": "A3",
          "midi": 57,
          "time": 47.978000000001394,
          "velocity": 0.4645669291338583,
          "duration": 0.008000000000002672
        },
        {
          "name": "A#2",
          "midi": 46,
          "time": 47.978000000001394,
          "velocity": 0.6456692913385826,
          "duration": 0.057000000000009265
        },
        {
          "name": "D4",
          "midi": 62,
          "time": 47.978000000001394,
          "velocity": 0.5039370078740157,
          "duration": 0.028000000000012903
        },
        {
          "name": "A3",
          "midi": 57,
          "time": 47.978000000001394,
          "velocity": 0.4645669291338583,
          "duration": 0.008000000000002672
        },
        {
          "name": "E4",
          "midi": 64,
          "time": 47.9880000000014,
          "velocity": 0.5275590551181102,
          "duration": 0.03700000000000614
        },
        {
          "name": "G#4",
          "midi": 68,
          "time": 47.9880000000014,
          "velocity": 0.48031496062992124,
          "duration": 0.008000000000002672
        },
        {
          "name": "E4",
          "midi": 64,
          "time": 47.9880000000014,
          "velocity": 0.5275590551181102,
          "duration": 0.03700000000000614
        },
        {
          "name": "G#4",
          "midi": 68,
          "time": 47.9880000000014,
          "velocity": 0.48031496062992124,
          "duration": 0.008000000000002672
        },
        {
          "name": "G3",
          "midi": 55,
          "time": 47.998000000001404,
          "velocity": 0.5905511811023622,
          "duration": 0.1560000000000059
        },
        {
          "name": "G3",
          "midi": 55,
          "time": 47.998000000001404,
          "velocity": 0.5905511811023622,
          "duration": 0.1560000000000059
        },
        {
          "name": "C5",
          "midi": 72,
          "time": 48.01800000000141,
          "velocity": 0.5511811023622047,
          "duration": 0.06700000000000017
        },
        {
          "name": "G5",
          "midi": 79,
          "time": 48.01800000000141,
          "velocity": 0.5669291338582677,
          "duration": 0.13600000000000279
        },
        {
          "name": "C5",
          "midi": 72,
          "time": 48.01800000000141,
          "velocity": 0.5511811023622047,
          "duration": 0.06700000000000017
        },
        {
          "name": "G5",
          "midi": 79,
          "time": 48.01800000000141,
          "velocity": 0.5669291338582677,
          "duration": 0.13600000000000279
        },
        {
          "name": "C4",
          "midi": 60,
          "time": 48.037000000001406,
          "velocity": 0.5354330708661418,
          "duration": 0.06700000000000017
        },
        {
          "name": "C4",
          "midi": 60,
          "time": 48.037000000001406,
          "velocity": 0.5354330708661418,
          "duration": 0.06700000000000017
        },
        {
          "name": "D6",
          "midi": 86,
          "time": 48.05700000000141,
          "velocity": 0.5275590551181102,
          "duration": 0.018000000000000682
        },
        {
          "name": "D6",
          "midi": 86,
          "time": 48.05700000000141,
          "velocity": 0.5275590551181102,
          "duration": 0.018000000000000682
        },
        {
          "name": "E4",
          "midi": 64,
          "time": 48.09700000000141,
          "velocity": 0.7480314960629921,
          "duration": 0.1950000000000216
        },
        {
          "name": "E4",
          "midi": 64,
          "time": 48.09700000000141,
          "velocity": 0.7480314960629921,
          "duration": 0.1950000000000216
        },
        {
          "name": "A2",
          "midi": 45,
          "time": 48.11600000000141,
          "velocity": 0.5196850393700787,
          "duration": 0.008000000000002672
        },
        {
          "name": "B4",
          "midi": 71,
          "time": 48.11600000000141,
          "velocity": 0.5748031496062992,
          "duration": 0.08700000000001751
        },
        {
          "name": "A2",
          "midi": 45,
          "time": 48.11600000000141,
          "velocity": 0.5196850393700787,
          "duration": 0.008000000000002672
        },
        {
          "name": "B4",
          "midi": 71,
          "time": 48.11600000000141,
          "velocity": 0.5748031496062992,
          "duration": 0.08700000000001751
        },
        {
          "name": "B5",
          "midi": 83,
          "time": 48.13600000000141,
          "velocity": 0.5196850393700787,
          "duration": 0.04700000000000415
        },
        {
          "name": "B5",
          "midi": 83,
          "time": 48.13600000000141,
          "velocity": 0.5196850393700787,
          "duration": 0.04700000000000415
        },
        {
          "name": "E6",
          "midi": 88,
          "time": 48.16600000000141,
          "velocity": 0.5275590551181102,
          "duration": 0.037000000000013245
        },
        {
          "name": "E6",
          "midi": 88,
          "time": 48.16600000000141,
          "velocity": 0.5275590551181102,
          "duration": 0.037000000000013245
        },
        {
          "name": "C4",
          "midi": 60,
          "time": 48.185000000001416,
          "velocity": 0.4881889763779528,
          "duration": 0.008000000000002672
        },
        {
          "name": "C4",
          "midi": 60,
          "time": 48.185000000001416,
          "velocity": 0.4881889763779528,
          "duration": 0.008000000000002672
        },
        {
          "name": "G5",
          "midi": 79,
          "time": 48.19500000000142,
          "velocity": 0.5590551181102362,
          "duration": 0.047000000000011255
        },
        {
          "name": "G5",
          "midi": 79,
          "time": 48.19500000000142,
          "velocity": 0.5590551181102362,
          "duration": 0.047000000000011255
        },
        {
          "name": "A2",
          "midi": 45,
          "time": 48.20500000000143,
          "velocity": 0.5118110236220472,
          "duration": 0.008000000000002672
        },
        {
          "name": "A2",
          "midi": 45,
          "time": 48.20500000000143,
          "velocity": 0.5118110236220472,
          "duration": 0.008000000000002672
        },
        {
          "name": "A3",
          "midi": 57,
          "time": 48.21500000000143,
          "velocity": 0.49606299212598426,
          "duration": 0.008000000000002672
        },
        {
          "name": "A3",
          "midi": 57,
          "time": 48.21500000000143,
          "velocity": 0.49606299212598426,
          "duration": 0.008000000000002672
        },
        {
          "name": "G#3",
          "midi": 56,
          "time": 48.235000000001435,
          "velocity": 0.5826771653543307,
          "duration": 0.007999999999995566
        },
        {
          "name": "D5",
          "midi": 74,
          "time": 48.235000000001435,
          "velocity": 0.5196850393700787,
          "duration": 0.046999999999997044
        },
        {
          "name": "G#3",
          "midi": 56,
          "time": 48.235000000001435,
          "velocity": 0.5826771653543307,
          "duration": 0.007999999999995566
        },
        {
          "name": "D5",
          "midi": 74,
          "time": 48.235000000001435,
          "velocity": 0.5196850393700787,
          "duration": 0.046999999999997044
        },
        {
          "name": "D3",
          "midi": 50,
          "time": 48.24500000000143,
          "velocity": 0.5984251968503937,
          "duration": 0.008000000000002672
        },
        {
          "name": "D3",
          "midi": 50,
          "time": 48.24500000000143,
          "velocity": 0.5984251968503937,
          "duration": 0.008000000000002672
        },
        {
          "name": "G3",
          "midi": 55,
          "time": 48.25400000000143,
          "velocity": 0.6299212598425197,
          "duration": 0.21500000000001052
        },
        {
          "name": "G3",
          "midi": 55,
          "time": 48.25400000000143,
          "velocity": 0.6299212598425197,
          "duration": 0.21500000000001052
        },
        {
          "name": "A3",
          "midi": 57,
          "time": 48.26400000000143,
          "velocity": 0.5118110236220472,
          "duration": 0.008000000000002672
        },
        {
          "name": "D3",
          "midi": 50,
          "time": 48.26400000000143,
          "velocity": 0.7244094488188977,
          "duration": 0.07700000000001239
        },
        {
          "name": "A3",
          "midi": 57,
          "time": 48.26400000000143,
          "velocity": 0.5118110236220472,
          "duration": 0.008000000000002672
        },
        {
          "name": "D3",
          "midi": 50,
          "time": 48.26400000000143,
          "velocity": 0.7244094488188977,
          "duration": 0.07700000000001239
        },
        {
          "name": "B2",
          "midi": 47,
          "time": 48.29400000000143,
          "velocity": 0.5984251968503937,
          "duration": 0.008000000000002672
        },
        {
          "name": "A3",
          "midi": 57,
          "time": 48.29400000000143,
          "velocity": 0.5118110236220472,
          "duration": 0.008000000000002672
        },
        {
          "name": "B2",
          "midi": 47,
          "time": 48.29400000000143,
          "velocity": 0.5984251968503937,
          "duration": 0.008000000000002672
        },
        {
          "name": "A3",
          "midi": 57,
          "time": 48.29400000000143,
          "velocity": 0.5118110236220472,
          "duration": 0.008000000000002672
        },
        {
          "name": "G5",
          "midi": 79,
          "time": 48.30400000000144,
          "velocity": 0.4566929133858268,
          "duration": 0.008000000000002672
        },
        {
          "name": "G5",
          "midi": 79,
          "time": 48.30400000000144,
          "velocity": 0.4566929133858268,
          "duration": 0.008000000000002672
        },
        {
          "name": "G4",
          "midi": 67,
          "time": 48.31400000000144,
          "velocity": 0.6771653543307087,
          "duration": 1.0630000000000663
        },
        {
          "name": "G4",
          "midi": 67,
          "time": 48.31400000000144,
          "velocity": 0.6771653543307087,
          "duration": 1.0630000000000663
        },
        {
          "name": "D5",
          "midi": 74,
          "time": 48.32300000000144,
          "velocity": 0.4645669291338583,
          "duration": 0.027999999999998693
        },
        {
          "name": "A#2",
          "midi": 46,
          "time": 48.32300000000144,
          "velocity": 0.5984251968503937,
          "duration": 0.008000000000002672
        },
        {
          "name": "D5",
          "midi": 74,
          "time": 48.32300000000144,
          "velocity": 0.4645669291338583,
          "duration": 0.027999999999998693
        },
        {
          "name": "A#2",
          "midi": 46,
          "time": 48.32300000000144,
          "velocity": 0.5984251968503937,
          "duration": 0.008000000000002672
        },
        {
          "name": "D3",
          "midi": 50,
          "time": 48.353000000001444,
          "velocity": 0.7322834645669292,
          "duration": 0.027999999999998693
        },
        {
          "name": "E4",
          "midi": 64,
          "time": 48.353000000001444,
          "velocity": 0.5354330708661418,
          "duration": 0.13600000000000279
        },
        {
          "name": "D3",
          "midi": 50,
          "time": 48.353000000001444,
          "velocity": 0.7322834645669292,
          "duration": 0.027999999999998693
        },
        {
          "name": "E4",
          "midi": 64,
          "time": 48.353000000001444,
          "velocity": 0.5354330708661418,
          "duration": 0.13600000000000279
        },
        {
          "name": "G5",
          "midi": 79,
          "time": 48.36300000000144,
          "velocity": 0.49606299212598426,
          "duration": 0.036999999999999034
        },
        {
          "name": "G5",
          "midi": 79,
          "time": 48.36300000000144,
          "velocity": 0.49606299212598426,
          "duration": 0.036999999999999034
        },
        {
          "name": "D#3",
          "midi": 51,
          "time": 48.39300000000144,
          "velocity": 0.6456692913385826,
          "duration": 0.027999999999998693
        },
        {
          "name": "D#3",
          "midi": 51,
          "time": 48.39300000000144,
          "velocity": 0.6456692913385826,
          "duration": 0.027999999999998693
        },
        {
          "name": "A#2",
          "midi": 46,
          "time": 48.41200000000144,
          "velocity": 0.49606299212598426,
          "duration": 0.008000000000002672
        },
        {
          "name": "D4",
          "midi": 62,
          "time": 48.41200000000144,
          "velocity": 0.4881889763779528,
          "duration": 0.008000000000002672
        },
        {
          "name": "A#2",
          "midi": 46,
          "time": 48.41200000000144,
          "velocity": 0.49606299212598426,
          "duration": 0.008000000000002672
        },
        {
          "name": "D4",
          "midi": 62,
          "time": 48.41200000000144,
          "velocity": 0.4881889763779528,
          "duration": 0.008000000000002672
        },
        {
          "name": "C#3",
          "midi": 49,
          "time": 48.45200000000144,
          "velocity": 0.5984251968503937,
          "duration": 0.008000000000002672
        },
        {
          "name": "F3",
          "midi": 53,
          "time": 48.45200000000144,
          "velocity": 0.5669291338582677,
          "duration": 0.07700000000000529
        },
        {
          "name": "B3",
          "midi": 59,
          "time": 48.45200000000144,
          "velocity": 0.6062992125984252,
          "duration": 0.07700000000000529
        },
        {
          "name": "C#3",
          "midi": 49,
          "time": 48.45200000000144,
          "velocity": 0.5984251968503937,
          "duration": 0.008000000000002672
        },
        {
          "name": "F3",
          "midi": 53,
          "time": 48.45200000000144,
          "velocity": 0.5669291338582677,
          "duration": 0.07700000000000529
        },
        {
          "name": "B3",
          "midi": 59,
          "time": 48.45200000000144,
          "velocity": 0.6062992125984252,
          "duration": 0.07700000000000529
        },
        {
          "name": "B6",
          "midi": 95,
          "time": 48.471000000001446,
          "velocity": 0.5354330708661418,
          "duration": 0.027999999999998693
        },
        {
          "name": "B6",
          "midi": 95,
          "time": 48.471000000001446,
          "velocity": 0.5354330708661418,
          "duration": 0.027999999999998693
        },
        {
          "name": "G5",
          "midi": 79,
          "time": 48.481000000001444,
          "velocity": 0.5511811023622047,
          "duration": 0.0870000000000033
        },
        {
          "name": "G5",
          "midi": 79,
          "time": 48.481000000001444,
          "velocity": 0.5511811023622047,
          "duration": 0.0870000000000033
        },
        {
          "name": "D6",
          "midi": 86,
          "time": 48.50100000000145,
          "velocity": 0.5354330708661418,
          "duration": 0.06700000000000017
        },
        {
          "name": "D6",
          "midi": 86,
          "time": 48.50100000000145,
          "velocity": 0.5354330708661418,
          "duration": 0.06700000000000017
        },
        {
          "name": "F#4",
          "midi": 66,
          "time": 48.511000000001445,
          "velocity": 0.5511811023622047,
          "duration": 0.008000000000002672
        },
        {
          "name": "F#4",
          "midi": 66,
          "time": 48.511000000001445,
          "velocity": 0.5511811023622047,
          "duration": 0.008000000000002672
        },
        {
          "name": "F4",
          "midi": 65,
          "time": 48.53100000000145,
          "velocity": 0.5354330708661418,
          "duration": 0.018000000000000682
        },
        {
          "name": "F4",
          "midi": 65,
          "time": 48.53100000000145,
          "velocity": 0.5354330708661418,
          "duration": 0.018000000000000682
        },
        {
          "name": "G3",
          "midi": 55,
          "time": 48.55000000000145,
          "velocity": 0.6692913385826772,
          "duration": 0.09700000000000841
        },
        {
          "name": "D#4",
          "midi": 63,
          "time": 48.55000000000145,
          "velocity": 0.5039370078740157,
          "duration": 0.04700000000000415
        },
        {
          "name": "G3",
          "midi": 55,
          "time": 48.55000000000145,
          "velocity": 0.6692913385826772,
          "duration": 0.09700000000000841
        },
        {
          "name": "D#4",
          "midi": 63,
          "time": 48.55000000000145,
          "velocity": 0.5039370078740157,
          "duration": 0.04700000000000415
        },
        {
          "name": "A4",
          "midi": 69,
          "time": 48.560000000001445,
          "velocity": 0.6692913385826772,
          "duration": 0.12600000000001188
        },
        {
          "name": "A4",
          "midi": 69,
          "time": 48.560000000001445,
          "velocity": 0.6692913385826772,
          "duration": 0.12600000000001188
        },
        {
          "name": "D3",
          "midi": 50,
          "time": 48.58000000000145,
          "velocity": 0.5196850393700787,
          "duration": 0.057000000000009265
        },
        {
          "name": "D3",
          "midi": 50,
          "time": 48.58000000000145,
          "velocity": 0.5196850393700787,
          "duration": 0.057000000000009265
        },
        {
          "name": "A#3",
          "midi": 58,
          "time": 48.60000000000145,
          "velocity": 0.5196850393700787,
          "duration": 0.018000000000000682
        },
        {
          "name": "A#3",
          "midi": 58,
          "time": 48.60000000000145,
          "velocity": 0.5196850393700787,
          "duration": 0.018000000000000682
        },
        {
          "name": "D5",
          "midi": 74,
          "time": 48.61000000000145,
          "velocity": 0.5196850393700787,
          "duration": 0.008000000000002672
        },
        {
          "name": "D5",
          "midi": 74,
          "time": 48.61000000000145,
          "velocity": 0.5196850393700787,
          "duration": 0.008000000000002672
        },
        {
          "name": "G5",
          "midi": 79,
          "time": 48.629000000001454,
          "velocity": 0.5196850393700787,
          "duration": 0.2149999999999963
        },
        {
          "name": "F#4",
          "midi": 66,
          "time": 48.629000000001454,
          "velocity": 0.5275590551181102,
          "duration": 0.018000000000000682
        },
        {
          "name": "G5",
          "midi": 79,
          "time": 48.629000000001454,
          "velocity": 0.5196850393700787,
          "duration": 0.2149999999999963
        },
        {
          "name": "F#4",
          "midi": 66,
          "time": 48.629000000001454,
          "velocity": 0.5275590551181102,
          "duration": 0.018000000000000682
        },
        {
          "name": "D5",
          "midi": 74,
          "time": 48.659000000001456,
          "velocity": 0.5354330708661418,
          "duration": 0.018000000000000682
        },
        {
          "name": "C4",
          "midi": 60,
          "time": 48.659000000001456,
          "velocity": 0.5354330708661418,
          "duration": 0.19500000000000028
        },
        {
          "name": "D5",
          "midi": 74,
          "time": 48.659000000001456,
          "velocity": 0.5354330708661418,
          "duration": 0.018000000000000682
        },
        {
          "name": "C4",
          "midi": 60,
          "time": 48.659000000001456,
          "velocity": 0.5354330708661418,
          "duration": 0.19500000000000028
        },
        {
          "name": "D3",
          "midi": 50,
          "time": 48.66900000000145,
          "velocity": 0.5275590551181102,
          "duration": 0.008000000000002672
        },
        {
          "name": "D3",
          "midi": 50,
          "time": 48.66900000000145,
          "velocity": 0.5275590551181102,
          "duration": 0.008000000000002672
        },
        {
          "name": "G3",
          "midi": 55,
          "time": 48.68800000000146,
          "velocity": 0.6141732283464567,
          "duration": 0.21500000000001052
        },
        {
          "name": "G3",
          "midi": 55,
          "time": 48.68800000000146,
          "velocity": 0.6141732283464567,
          "duration": 0.21500000000001052
        },
        {
          "name": "D5",
          "midi": 74,
          "time": 48.69800000000146,
          "velocity": 0.5118110236220472,
          "duration": 0.036999999999999034
        },
        {
          "name": "D5",
          "midi": 74,
          "time": 48.69800000000146,
          "velocity": 0.5118110236220472,
          "duration": 0.036999999999999034
        },
        {
          "name": "C3",
          "midi": 48,
          "time": 48.708000000001455,
          "velocity": 0.8582677165354331,
          "duration": 0.06700000000000017
        },
        {
          "name": "C3",
          "midi": 48,
          "time": 48.708000000001455,
          "velocity": 0.8582677165354331,
          "duration": 0.06700000000000017
        },
        {
          "name": "D6",
          "midi": 86,
          "time": 48.748000000001454,
          "velocity": 0.49606299212598426,
          "duration": 0.036999999999999034
        },
        {
          "name": "D6",
          "midi": 86,
          "time": 48.748000000001454,
          "velocity": 0.49606299212598426,
          "duration": 0.036999999999999034
        },
        {
          "name": "B2",
          "midi": 47,
          "time": 48.797000000001454,
          "velocity": 0.8267716535433071,
          "duration": 0.036999999999999034
        },
        {
          "name": "B2",
          "midi": 47,
          "time": 48.797000000001454,
          "velocity": 0.8267716535433071,
          "duration": 0.036999999999999034
        },
        {
          "name": "D#2",
          "midi": 39,
          "time": 48.80700000000145,
          "velocity": 0.4409448818897638,
          "duration": 0.008000000000002672
        },
        {
          "name": "D#2",
          "midi": 39,
          "time": 48.80700000000145,
          "velocity": 0.4409448818897638,
          "duration": 0.008000000000002672
        },
        {
          "name": "D5",
          "midi": 74,
          "time": 48.827000000001455,
          "velocity": 0.4645669291338583,
          "duration": 0.04700000000000415
        },
        {
          "name": "D5",
          "midi": 74,
          "time": 48.827000000001455,
          "velocity": 0.4645669291338583,
          "duration": 0.04700000000000415
        },
        {
          "name": "C3",
          "midi": 48,
          "time": 48.84600000000145,
          "velocity": 0.7559055118110236,
          "duration": 0.018000000000000682
        },
        {
          "name": "C3",
          "midi": 48,
          "time": 48.84600000000145,
          "velocity": 0.7559055118110236,
          "duration": 0.018000000000000682
        },
        {
          "name": "B6",
          "midi": 95,
          "time": 48.866000000001456,
          "velocity": 0.49606299212598426,
          "duration": 0.028000000000012903
        },
        {
          "name": "B6",
          "midi": 95,
          "time": 48.866000000001456,
          "velocity": 0.49606299212598426,
          "duration": 0.028000000000012903
        },
        {
          "name": "C7",
          "midi": 96,
          "time": 48.87600000000146,
          "velocity": 0.47244094488188976,
          "duration": 0.008000000000002672
        },
        {
          "name": "C7",
          "midi": 96,
          "time": 48.87600000000146,
          "velocity": 0.47244094488188976,
          "duration": 0.008000000000002672
        },
        {
          "name": "D7",
          "midi": 98,
          "time": 48.88600000000147,
          "velocity": 0.7244094488188977,
          "duration": 0.10700000000002774
        },
        {
          "name": "D7",
          "midi": 98,
          "time": 48.88600000000147,
          "velocity": 0.7244094488188977,
          "duration": 0.10700000000002774
        },
        {
          "name": "G5",
          "midi": 79,
          "time": 48.90500000000147,
          "velocity": 0.5196850393700787,
          "duration": 0.018000000000007788
        },
        {
          "name": "G6",
          "midi": 91,
          "time": 48.90500000000147,
          "velocity": 0.5275590551181102,
          "duration": 0.008000000000002672
        },
        {
          "name": "G5",
          "midi": 79,
          "time": 48.90500000000147,
          "velocity": 0.5196850393700787,
          "duration": 0.018000000000007788
        },
        {
          "name": "G6",
          "midi": 91,
          "time": 48.90500000000147,
          "velocity": 0.5275590551181102,
          "duration": 0.008000000000002672
        },
        {
          "name": "B6",
          "midi": 95,
          "time": 48.91500000000148,
          "velocity": 0.5433070866141733,
          "duration": 0.028000000000005798
        },
        {
          "name": "B6",
          "midi": 95,
          "time": 48.91500000000148,
          "velocity": 0.5433070866141733,
          "duration": 0.028000000000005798
        },
        {
          "name": "B5",
          "midi": 83,
          "time": 48.92500000000148,
          "velocity": 0.5590551181102362,
          "duration": 0.018000000000000682
        },
        {
          "name": "G7",
          "midi": 103,
          "time": 48.92500000000148,
          "velocity": 0.5196850393700787,
          "duration": 0.09700000000001552
        },
        {
          "name": "B5",
          "midi": 83,
          "time": 48.92500000000148,
          "velocity": 0.5590551181102362,
          "duration": 0.018000000000000682
        },
        {
          "name": "G7",
          "midi": 103,
          "time": 48.92500000000148,
          "velocity": 0.5196850393700787,
          "duration": 0.09700000000001552
        },
        {
          "name": "D6",
          "midi": 86,
          "time": 48.95500000000148,
          "velocity": 0.5039370078740157,
          "duration": 0.008000000000002672
        },
        {
          "name": "G6",
          "midi": 91,
          "time": 48.95500000000148,
          "velocity": 0.5590551181102362,
          "duration": 0.047000000000011255
        },
        {
          "name": "D6",
          "midi": 86,
          "time": 48.95500000000148,
          "velocity": 0.5039370078740157,
          "duration": 0.008000000000002672
        },
        {
          "name": "G6",
          "midi": 91,
          "time": 48.95500000000148,
          "velocity": 0.5590551181102362,
          "duration": 0.047000000000011255
        },
        {
          "name": "G#7",
          "midi": 104,
          "time": 48.96500000000149,
          "velocity": 0.5039370078740157,
          "duration": 0.008000000000002672
        },
        {
          "name": "G#7",
          "midi": 104,
          "time": 48.96500000000149,
          "velocity": 0.5039370078740157,
          "duration": 0.008000000000002672
        },
        {
          "name": "E4",
          "midi": 64,
          "time": 48.984000000001494,
          "velocity": 0.5984251968503937,
          "duration": 0.12600000000000477
        },
        {
          "name": "B5",
          "midi": 83,
          "time": 48.984000000001494,
          "velocity": 0.48031496062992124,
          "duration": 0.04700000000000415
        },
        {
          "name": "E4",
          "midi": 64,
          "time": 48.984000000001494,
          "velocity": 0.5984251968503937,
          "duration": 0.12600000000000477
        },
        {
          "name": "B5",
          "midi": 83,
          "time": 48.984000000001494,
          "velocity": 0.48031496062992124,
          "duration": 0.04700000000000415
        },
        {
          "name": "G5",
          "midi": 79,
          "time": 49.0040000000015,
          "velocity": 0.5039370078740157,
          "duration": 0.18499999999999517
        },
        {
          "name": "G5",
          "midi": 79,
          "time": 49.0040000000015,
          "velocity": 0.5039370078740157,
          "duration": 0.18499999999999517
        },
        {
          "name": "G#3",
          "midi": 56,
          "time": 49.014000000001495,
          "velocity": 0.5039370078740157,
          "duration": 0.008000000000002672
        },
        {
          "name": "G#3",
          "midi": 56,
          "time": 49.014000000001495,
          "velocity": 0.5039370078740157,
          "duration": 0.008000000000002672
        },
        {
          "name": "D7",
          "midi": 98,
          "time": 49.0340000000015,
          "velocity": 0.4645669291338583,
          "duration": 0.027999999999998693
        },
        {
          "name": "G3",
          "midi": 55,
          "time": 49.0340000000015,
          "velocity": 0.6850393700787402,
          "duration": 0.3240000000000052
        },
        {
          "name": "D7",
          "midi": 98,
          "time": 49.0340000000015,
          "velocity": 0.4645669291338583,
          "duration": 0.027999999999998693
        },
        {
          "name": "G3",
          "midi": 55,
          "time": 49.0340000000015,
          "velocity": 0.6850393700787402,
          "duration": 0.3240000000000052
        },
        {
          "name": "C4",
          "midi": 60,
          "time": 49.044000000001496,
          "velocity": 0.4566929133858268,
          "duration": 0.036999999999999034
        },
        {
          "name": "C4",
          "midi": 60,
          "time": 49.044000000001496,
          "velocity": 0.4566929133858268,
          "duration": 0.036999999999999034
        },
        {
          "name": "E5",
          "midi": 76,
          "time": 49.0830000000015,
          "velocity": 0.4645669291338583,
          "duration": 0.008000000000002672
        },
        {
          "name": "E5",
          "midi": 76,
          "time": 49.0830000000015,
          "velocity": 0.4645669291338583,
          "duration": 0.008000000000002672
        },
        {
          "name": "G7",
          "midi": 103,
          "time": 49.0930000000015,
          "velocity": 0.4645669291338583,
          "duration": 0.06699999999999307
        },
        {
          "name": "G7",
          "midi": 103,
          "time": 49.0930000000015,
          "velocity": 0.4645669291338583,
          "duration": 0.06699999999999307
        },
        {
          "name": "D7",
          "midi": 98,
          "time": 49.1030000000015,
          "velocity": 0.47244094488188976,
          "duration": 0.10699999999999932
        },
        {
          "name": "D7",
          "midi": 98,
          "time": 49.1030000000015,
          "velocity": 0.47244094488188976,
          "duration": 0.10699999999999932
        },
        {
          "name": "D5",
          "midi": 74,
          "time": 49.1220000000015,
          "velocity": 0.47244094488188976,
          "duration": 0.056999999999995055
        },
        {
          "name": "D5",
          "midi": 74,
          "time": 49.1220000000015,
          "velocity": 0.47244094488188976,
          "duration": 0.056999999999995055
        },
        {
          "name": "C4",
          "midi": 60,
          "time": 49.172000000001496,
          "velocity": 0.4330708661417323,
          "duration": 0.18500000000000938
        },
        {
          "name": "C4",
          "midi": 60,
          "time": 49.172000000001496,
          "velocity": 0.4330708661417323,
          "duration": 0.18500000000000938
        },
        {
          "name": "B5",
          "midi": 83,
          "time": 49.191000000001495,
          "velocity": 0.4251968503937008,
          "duration": 0.008000000000002672
        },
        {
          "name": "B5",
          "midi": 83,
          "time": 49.191000000001495,
          "velocity": 0.4251968503937008,
          "duration": 0.008000000000002672
        },
        {
          "name": "E4",
          "midi": 64,
          "time": 49.2010000000015,
          "velocity": 0.4251968503937008,
          "duration": 0.05700000000000216
        },
        {
          "name": "E4",
          "midi": 64,
          "time": 49.2010000000015,
          "velocity": 0.4251968503937008,
          "duration": 0.05700000000000216
        },
        {
          "name": "G5",
          "midi": 79,
          "time": 49.2110000000015,
          "velocity": 0.4251968503937008,
          "duration": 0.008000000000002672
        },
        {
          "name": "G5",
          "midi": 79,
          "time": 49.2110000000015,
          "velocity": 0.4251968503937008,
          "duration": 0.008000000000002672
        },
        {
          "name": "D5",
          "midi": 74,
          "time": 49.2210000000015,
          "velocity": 0.4251968503937008,
          "duration": 0.046999999999997044
        },
        {
          "name": "D5",
          "midi": 74,
          "time": 49.2210000000015,
          "velocity": 0.4251968503937008,
          "duration": 0.046999999999997044
        },
        {
          "name": "G7",
          "midi": 103,
          "time": 49.2310000000015,
          "velocity": 0.4251968503937008,
          "duration": 0.008000000000002672
        },
        {
          "name": "G7",
          "midi": 103,
          "time": 49.2310000000015,
          "velocity": 0.4251968503937008,
          "duration": 0.008000000000002672
        },
        {
          "name": "D7",
          "midi": 98,
          "time": 49.2610000000015,
          "velocity": 0.41732283464566927,
          "duration": 0.04700000000000415
        },
        {
          "name": "D7",
          "midi": 98,
          "time": 49.2610000000015,
          "velocity": 0.41732283464566927,
          "duration": 0.04700000000000415
        },
        {
          "name": "C3",
          "midi": 48,
          "time": 49.2700000000015,
          "velocity": 0.41732283464566927,
          "duration": 0.05700000000000216
        },
        {
          "name": "C3",
          "midi": 48,
          "time": 49.2700000000015,
          "velocity": 0.41732283464566927,
          "duration": 0.05700000000000216
        },
        {
          "name": "C5",
          "midi": 72,
          "time": 49.290000000001505,
          "velocity": 0.41732283464566927,
          "duration": 0.027999999999998693
        },
        {
          "name": "C5",
          "midi": 72,
          "time": 49.290000000001505,
          "velocity": 0.41732283464566927,
          "duration": 0.027999999999998693
        },
        {
          "name": "E4",
          "midi": 64,
          "time": 49.32000000000151,
          "velocity": 0.5826771653543307,
          "duration": 0.29400000000001114
        },
        {
          "name": "E4",
          "midi": 64,
          "time": 49.32000000000151,
          "velocity": 0.5826771653543307,
          "duration": 0.29400000000001114
        },
        {
          "name": "G5",
          "midi": 79,
          "time": 49.330000000001505,
          "velocity": 0.4094488188976378,
          "duration": 0.018000000000000682
        },
        {
          "name": "G5",
          "midi": 79,
          "time": 49.330000000001505,
          "velocity": 0.4094488188976378,
          "duration": 0.018000000000000682
        },
        {
          "name": "B5",
          "midi": 83,
          "time": 49.369000000001506,
          "velocity": 0.5669291338582677,
          "duration": 0.21500000000001052
        },
        {
          "name": "B5",
          "midi": 83,
          "time": 49.369000000001506,
          "velocity": 0.5669291338582677,
          "duration": 0.21500000000001052
        },
        {
          "name": "E5",
          "midi": 76,
          "time": 49.37900000000151,
          "velocity": 0.41732283464566927,
          "duration": 0.018000000000000682
        },
        {
          "name": "E5",
          "midi": 76,
          "time": 49.37900000000151,
          "velocity": 0.41732283464566927,
          "duration": 0.018000000000000682
        },
        {
          "name": "D7",
          "midi": 98,
          "time": 49.38900000000151,
          "velocity": 0.4645669291338583,
          "duration": 0.16600000000000392
        },
        {
          "name": "B6",
          "midi": 95,
          "time": 49.38900000000151,
          "velocity": 0.4330708661417323,
          "duration": 0.04700000000000415
        },
        {
          "name": "E6",
          "midi": 88,
          "time": 49.38900000000151,
          "velocity": 0.48031496062992124,
          "duration": 0.18500000000000227
        },
        {
          "name": "D7",
          "midi": 98,
          "time": 49.38900000000151,
          "velocity": 0.4645669291338583,
          "duration": 0.16600000000000392
        },
        {
          "name": "B6",
          "midi": 95,
          "time": 49.38900000000151,
          "velocity": 0.4330708661417323,
          "duration": 0.04700000000000415
        },
        {
          "name": "E6",
          "midi": 88,
          "time": 49.38900000000151,
          "velocity": 0.48031496062992124,
          "duration": 0.18500000000000227
        },
        {
          "name": "E5",
          "midi": 76,
          "time": 49.41800000000151,
          "velocity": 0.5669291338582677,
          "duration": 0.17600000000000904
        },
        {
          "name": "E5",
          "midi": 76,
          "time": 49.41800000000151,
          "velocity": 0.5669291338582677,
          "duration": 0.17600000000000904
        },
        {
          "name": "G#6",
          "midi": 92,
          "time": 49.448000000001514,
          "velocity": 0.48031496062992124,
          "duration": 0.11599999999999966
        },
        {
          "name": "G#6",
          "midi": 92,
          "time": 49.448000000001514,
          "velocity": 0.48031496062992124,
          "duration": 0.11599999999999966
        },
        {
          "name": "E5",
          "midi": 76,
          "time": 49.576000000001514,
          "velocity": 0.48031496062992124,
          "duration": 0.09600000000001074
        },
        {
          "name": "D#4",
          "midi": 63,
          "time": 49.576000000001514,
          "velocity": 0.49606299212598426,
          "duration": 0.03700000000000614
        },
        {
          "name": "E5",
          "midi": 76,
          "time": 49.576000000001514,
          "velocity": 0.48031496062992124,
          "duration": 0.09600000000001074
        },
        {
          "name": "D#4",
          "midi": 63,
          "time": 49.576000000001514,
          "velocity": 0.49606299212598426,
          "duration": 0.03700000000000614
        },
        {
          "name": "C5",
          "midi": 72,
          "time": 49.58600000000152,
          "velocity": 0.47244094488188976,
          "duration": 0.05700000000000216
        },
        {
          "name": "C5",
          "midi": 72,
          "time": 49.58600000000152,
          "velocity": 0.47244094488188976,
          "duration": 0.05700000000000216
        },
        {
          "name": "F5",
          "midi": 77,
          "time": 49.596000000001524,
          "velocity": 0.47244094488188976,
          "duration": 0.017999999999993577
        },
        {
          "name": "F5",
          "midi": 77,
          "time": 49.596000000001524,
          "velocity": 0.47244094488188976,
          "duration": 0.017999999999993577
        },
        {
          "name": "D#5",
          "midi": 75,
          "time": 49.60600000000152,
          "velocity": 0.4330708661417323,
          "duration": 0.007999999999995566
        },
        {
          "name": "D#5",
          "midi": 75,
          "time": 49.60600000000152,
          "velocity": 0.4330708661417323,
          "duration": 0.007999999999995566
        },
        {
          "name": "F4",
          "midi": 65,
          "time": 49.62600000000152,
          "velocity": 0.6929133858267716,
          "duration": 0.24500000000001876
        },
        {
          "name": "F6",
          "midi": 89,
          "time": 49.62600000000152,
          "velocity": 0.48031496062992124,
          "duration": 0.1360000000000241
        },
        {
          "name": "E4",
          "midi": 64,
          "time": 49.62600000000152,
          "velocity": 0.6535433070866141,
          "duration": 0.008000000000002672
        },
        {
          "name": "C6",
          "midi": 84,
          "time": 49.62600000000152,
          "velocity": 0.49606299212598426,
          "duration": 0.11600000000002098
        },
        {
          "name": "F4",
          "midi": 65,
          "time": 49.62600000000152,
          "velocity": 0.6929133858267716,
          "duration": 0.24500000000001876
        },
        {
          "name": "F6",
          "midi": 89,
          "time": 49.62600000000152,
          "velocity": 0.48031496062992124,
          "duration": 0.1360000000000241
        },
        {
          "name": "E4",
          "midi": 64,
          "time": 49.62600000000152,
          "velocity": 0.6535433070866141,
          "duration": 0.008000000000002672
        },
        {
          "name": "C6",
          "midi": 84,
          "time": 49.62600000000152,
          "velocity": 0.49606299212598426,
          "duration": 0.11600000000002098
        },
        {
          "name": "F5",
          "midi": 77,
          "time": 49.645000000001524,
          "velocity": 0.5118110236220472,
          "duration": 0.2050000000000125
        },
        {
          "name": "F5",
          "midi": 77,
          "time": 49.645000000001524,
          "velocity": 0.5118110236220472,
          "duration": 0.2050000000000125
        },
        {
          "name": "D#4",
          "midi": 63,
          "time": 49.65500000000152,
          "velocity": 0.48031496062992124,
          "duration": 0.008000000000002672
        },
        {
          "name": "D#4",
          "midi": 63,
          "time": 49.65500000000152,
          "velocity": 0.48031496062992124,
          "duration": 0.008000000000002672
        },
        {
          "name": "A6",
          "midi": 93,
          "time": 49.675000000001525,
          "velocity": 0.4251968503937008,
          "duration": 0.008000000000002672
        },
        {
          "name": "A6",
          "midi": 93,
          "time": 49.675000000001525,
          "velocity": 0.4251968503937008,
          "duration": 0.008000000000002672
        },
        {
          "name": "D#4",
          "midi": 63,
          "time": 49.68500000000153,
          "velocity": 0.44881889763779526,
          "duration": 0.036999999999999034
        },
        {
          "name": "D#4",
          "midi": 63,
          "time": 49.68500000000153,
          "velocity": 0.44881889763779526,
          "duration": 0.036999999999999034
        },
        {
          "name": "E4",
          "midi": 64,
          "time": 49.69500000000153,
          "velocity": 0.4566929133858268,
          "duration": 0.008000000000002672
        },
        {
          "name": "E4",
          "midi": 64,
          "time": 49.69500000000153,
          "velocity": 0.4566929133858268,
          "duration": 0.008000000000002672
        },
        {
          "name": "E5",
          "midi": 76,
          "time": 49.72400000000153,
          "velocity": 0.4409448818897638,
          "duration": 0.008000000000002672
        },
        {
          "name": "E5",
          "midi": 76,
          "time": 49.72400000000153,
          "velocity": 0.4409448818897638,
          "duration": 0.008000000000002672
        },
        {
          "name": "G5",
          "midi": 79,
          "time": 49.73400000000154,
          "velocity": 0.6220472440944882,
          "duration": 0.1560000000000059
        },
        {
          "name": "G5",
          "midi": 79,
          "time": 49.73400000000154,
          "velocity": 0.6220472440944882,
          "duration": 0.1560000000000059
        },
        {
          "name": "G4",
          "midi": 67,
          "time": 49.74400000000154,
          "velocity": 0.7559055118110236,
          "duration": 0.3140000000000214
        },
        {
          "name": "G4",
          "midi": 67,
          "time": 49.74400000000154,
          "velocity": 0.7559055118110236,
          "duration": 0.3140000000000214
        },
        {
          "name": "E5",
          "midi": 76,
          "time": 49.75400000000154,
          "velocity": 0.4645669291338583,
          "duration": 0.018000000000000682
        },
        {
          "name": "E5",
          "midi": 76,
          "time": 49.75400000000154,
          "velocity": 0.4645669291338583,
          "duration": 0.018000000000000682
        },
        {
          "name": "D6",
          "midi": 86,
          "time": 49.77300000000154,
          "velocity": 0.47244094488188976,
          "duration": 0.07699999999999818
        },
        {
          "name": "D6",
          "midi": 86,
          "time": 49.77300000000154,
          "velocity": 0.47244094488188976,
          "duration": 0.07699999999999818
        },
        {
          "name": "D7",
          "midi": 98,
          "time": 49.783000000001536,
          "velocity": 0.4566929133858268,
          "duration": 0.027999999999998693
        },
        {
          "name": "D7",
          "midi": 98,
          "time": 49.783000000001536,
          "velocity": 0.4566929133858268,
          "duration": 0.027999999999998693
        },
        {
          "name": "G6",
          "midi": 91,
          "time": 49.823000000001535,
          "velocity": 0.44881889763779526,
          "duration": 0.05700000000000216
        },
        {
          "name": "G6",
          "midi": 91,
          "time": 49.823000000001535,
          "velocity": 0.44881889763779526,
          "duration": 0.05700000000000216
        },
        {
          "name": "F4",
          "midi": 65,
          "time": 49.86200000000154,
          "velocity": 0.5039370078740157,
          "duration": 0.08700000000001751
        },
        {
          "name": "F4",
          "midi": 65,
          "time": 49.86200000000154,
          "velocity": 0.5039370078740157,
          "duration": 0.08700000000001751
        },
        {
          "name": "F5",
          "midi": 77,
          "time": 49.872000000001535,
          "velocity": 0.4251968503937008,
          "duration": 0.018000000000007788
        },
        {
          "name": "F5",
          "midi": 77,
          "time": 49.872000000001535,
          "velocity": 0.4251968503937008,
          "duration": 0.018000000000007788
        },
        {
          "name": "G5",
          "midi": 79,
          "time": 49.88200000000154,
          "velocity": 0.4251968503937008,
          "duration": 0.057000000000009265
        },
        {
          "name": "G5",
          "midi": 79,
          "time": 49.88200000000154,
          "velocity": 0.4251968503937008,
          "duration": 0.057000000000009265
        },
        {
          "name": "A4",
          "midi": 69,
          "time": 49.892000000001545,
          "velocity": 0.4566929133858268,
          "duration": 0.018000000000000682
        },
        {
          "name": "A4",
          "midi": 69,
          "time": 49.892000000001545,
          "velocity": 0.4566929133858268,
          "duration": 0.018000000000000682
        },
        {
          "name": "E5",
          "midi": 76,
          "time": 49.91200000000155,
          "velocity": 0.6299212598425197,
          "duration": 0.4520000000000479
        },
        {
          "name": "E5",
          "midi": 76,
          "time": 49.91200000000155,
          "velocity": 0.6299212598425197,
          "duration": 0.4520000000000479
        },
        {
          "name": "E6",
          "midi": 88,
          "time": 49.92100000000155,
          "velocity": 0.4330708661417323,
          "duration": 0.008000000000002672
        },
        {
          "name": "B6",
          "midi": 95,
          "time": 49.92100000000155,
          "velocity": 0.4881889763779528,
          "duration": 0.2850000000000321
        },
        {
          "name": "E6",
          "midi": 88,
          "time": 49.92100000000155,
          "velocity": 0.4330708661417323,
          "duration": 0.008000000000002672
        },
        {
          "name": "B6",
          "midi": 95,
          "time": 49.92100000000155,
          "velocity": 0.4881889763779528,
          "duration": 0.2850000000000321
        },
        {
          "name": "E4",
          "midi": 64,
          "time": 49.94100000000155,
          "velocity": 0.4566929133858268,
          "duration": 0.03700000000000614
        },
        {
          "name": "E4",
          "midi": 64,
          "time": 49.94100000000155,
          "velocity": 0.4566929133858268,
          "duration": 0.03700000000000614
        },
        {
          "name": "E6",
          "midi": 88,
          "time": 49.95100000000156,
          "velocity": 0.5118110236220472,
          "duration": 0.629000000000083
        },
        {
          "name": "E6",
          "midi": 88,
          "time": 49.95100000000156,
          "velocity": 0.5118110236220472,
          "duration": 0.629000000000083
        },
        {
          "name": "F4",
          "midi": 65,
          "time": 49.97100000000156,
          "velocity": 0.4881889763779528,
          "duration": 0.06700000000000017
        },
        {
          "name": "F4",
          "midi": 65,
          "time": 49.97100000000156,
          "velocity": 0.4881889763779528,
          "duration": 0.06700000000000017
        },
        {
          "name": "G5",
          "midi": 79,
          "time": 49.99000000000156,
          "velocity": 0.41732283464566927,
          "duration": 0.008000000000002672
        },
        {
          "name": "G5",
          "midi": 79,
          "time": 49.99000000000156,
          "velocity": 0.41732283464566927,
          "duration": 0.008000000000002672
        },
        {
          "name": "A4",
          "midi": 69,
          "time": 50.01000000000156,
          "velocity": 0.4251968503937008,
          "duration": 0.018000000000000682
        },
        {
          "name": "A4",
          "midi": 69,
          "time": 50.01000000000156,
          "velocity": 0.4251968503937008,
          "duration": 0.018000000000000682
        },
        {
          "name": "A4",
          "midi": 69,
          "time": 50.04000000000156,
          "velocity": 0.4251968503937008,
          "duration": 0.03700000000000614
        },
        {
          "name": "A4",
          "midi": 69,
          "time": 50.04000000000156,
          "velocity": 0.4251968503937008,
          "duration": 0.03700000000000614
        },
        {
          "name": "E7",
          "midi": 100,
          "time": 50.05000000000156,
          "velocity": 0.41732283464566927,
          "duration": 0.06700000000001438
        },
        {
          "name": "E7",
          "midi": 100,
          "time": 50.05000000000156,
          "velocity": 0.41732283464566927,
          "duration": 0.06700000000001438
        },
        {
          "name": "G4",
          "midi": 67,
          "time": 50.069000000001566,
          "velocity": 0.4566929133858268,
          "duration": 0.12600000000001188
        },
        {
          "name": "G4",
          "midi": 67,
          "time": 50.069000000001566,
          "velocity": 0.4566929133858268,
          "duration": 0.12600000000001188
        },
        {
          "name": "F4",
          "midi": 65,
          "time": 50.08900000000157,
          "velocity": 0.4094488188976378,
          "duration": 0.008000000000002672
        },
        {
          "name": "F4",
          "midi": 65,
          "time": 50.08900000000157,
          "velocity": 0.4094488188976378,
          "duration": 0.008000000000002672
        },
        {
          "name": "F4",
          "midi": 65,
          "time": 50.11900000000158,
          "velocity": 0.4251968503937008,
          "duration": 0.05700000000000216
        },
        {
          "name": "F4",
          "midi": 65,
          "time": 50.11900000000158,
          "velocity": 0.4251968503937008,
          "duration": 0.05700000000000216
        },
        {
          "name": "A4",
          "midi": 69,
          "time": 50.138000000001576,
          "velocity": 0.4094488188976378,
          "duration": 0.008000000000002672
        },
        {
          "name": "A4",
          "midi": 69,
          "time": 50.138000000001576,
          "velocity": 0.4094488188976378,
          "duration": 0.008000000000002672
        },
        {
          "name": "F7",
          "midi": 101,
          "time": 50.15800000000158,
          "velocity": 0.4251968503937008,
          "duration": 0.09700000000000841
        },
        {
          "name": "F7",
          "midi": 101,
          "time": 50.15800000000158,
          "velocity": 0.4251968503937008,
          "duration": 0.09700000000000841
        },
        {
          "name": "B6",
          "midi": 95,
          "time": 50.19800000000158,
          "velocity": 0.44881889763779526,
          "duration": 0.03700000000000614
        },
        {
          "name": "B6",
          "midi": 95,
          "time": 50.19800000000158,
          "velocity": 0.44881889763779526,
          "duration": 0.03700000000000614
        },
        {
          "name": "G4",
          "midi": 67,
          "time": 50.21700000000158,
          "velocity": 0.41732283464566927,
          "duration": 0.09700000000000841
        },
        {
          "name": "G4",
          "midi": 67,
          "time": 50.21700000000158,
          "velocity": 0.41732283464566927,
          "duration": 0.09700000000000841
        },
        {
          "name": "B6",
          "midi": 95,
          "time": 50.22700000000158,
          "velocity": 0.4409448818897638,
          "duration": 0.17600000000002325
        },
        {
          "name": "B6",
          "midi": 95,
          "time": 50.22700000000158,
          "velocity": 0.4409448818897638,
          "duration": 0.17600000000002325
        },
        {
          "name": "F6",
          "midi": 89,
          "time": 50.247000000001584,
          "velocity": 0.4094488188976378,
          "duration": 0.008000000000002672
        },
        {
          "name": "F6",
          "midi": 89,
          "time": 50.247000000001584,
          "velocity": 0.4094488188976378,
          "duration": 0.008000000000002672
        },
        {
          "name": "E7",
          "midi": 100,
          "time": 50.277000000001586,
          "velocity": 0.41732283464566927,
          "duration": 0.136000000000017
        },
        {
          "name": "F6",
          "midi": 89,
          "time": 50.277000000001586,
          "velocity": 0.47244094488188976,
          "duration": 0.008000000000002672
        },
        {
          "name": "E7",
          "midi": 100,
          "time": 50.277000000001586,
          "velocity": 0.41732283464566927,
          "duration": 0.136000000000017
        },
        {
          "name": "F6",
          "midi": 89,
          "time": 50.277000000001586,
          "velocity": 0.47244094488188976,
          "duration": 0.008000000000002672
        },
        {
          "name": "G3",
          "midi": 55,
          "time": 50.32600000000159,
          "velocity": 0.4015748031496063,
          "duration": 0.04700000000000415
        },
        {
          "name": "G3",
          "midi": 55,
          "time": 50.32600000000159,
          "velocity": 0.4015748031496063,
          "duration": 0.04700000000000415
        },
        {
          "name": "G#7",
          "midi": 104,
          "time": 50.346000000001595,
          "velocity": 0.4015748031496063,
          "duration": 0.008000000000002672
        },
        {
          "name": "G#7",
          "midi": 104,
          "time": 50.346000000001595,
          "velocity": 0.4015748031496063,
          "duration": 0.008000000000002672
        },
        {
          "name": "E5",
          "midi": 76,
          "time": 50.365000000001594,
          "velocity": 0.7401574803149606,
          "duration": 0.11700000000002575
        },
        {
          "name": "E5",
          "midi": 76,
          "time": 50.365000000001594,
          "velocity": 0.7401574803149606,
          "duration": 0.11700000000002575
        },
        {
          "name": "B7",
          "midi": 107,
          "time": 50.3750000000016,
          "velocity": 0.4015748031496063,
          "duration": 0.008000000000002672
        },
        {
          "name": "B7",
          "midi": 107,
          "time": 50.3750000000016,
          "velocity": 0.4015748031496063,
          "duration": 0.008000000000002672
        },
        {
          "name": "B6",
          "midi": 95,
          "time": 50.3950000000016,
          "velocity": 0.4251968503937008,
          "duration": 0.06700000000001438
        },
        {
          "name": "B6",
          "midi": 95,
          "time": 50.3950000000016,
          "velocity": 0.4251968503937008,
          "duration": 0.06700000000001438
        },
        {
          "name": "F#2",
          "midi": 42,
          "time": 50.415000000001605,
          "velocity": 0.4015748031496063,
          "duration": 0.008000000000002672
        },
        {
          "name": "F5",
          "midi": 77,
          "time": 50.415000000001605,
          "velocity": 0.4094488188976378,
          "duration": 0.008000000000002672
        },
        {
          "name": "F#2",
          "midi": 42,
          "time": 50.415000000001605,
          "velocity": 0.4015748031496063,
          "duration": 0.008000000000002672
        },
        {
          "name": "F5",
          "midi": 77,
          "time": 50.415000000001605,
          "velocity": 0.4094488188976378,
          "duration": 0.008000000000002672
        },
        {
          "name": "D#5",
          "midi": 75,
          "time": 50.43400000000161,
          "velocity": 0.4094488188976378,
          "duration": 0.008000000000002672
        },
        {
          "name": "D#5",
          "midi": 75,
          "time": 50.43400000000161,
          "velocity": 0.4094488188976378,
          "duration": 0.008000000000002672
        },
        {
          "name": "B6",
          "midi": 95,
          "time": 50.454000000001614,
          "velocity": 0.4409448818897638,
          "duration": 0.20500000000004093
        },
        {
          "name": "E7",
          "midi": 100,
          "time": 50.454000000001614,
          "velocity": 0.4015748031496063,
          "duration": 0.008000000000002672
        },
        {
          "name": "G3",
          "midi": 55,
          "time": 50.454000000001614,
          "velocity": 0.4015748031496063,
          "duration": 0.008000000000002672
        },
        {
          "name": "B6",
          "midi": 95,
          "time": 50.454000000001614,
          "velocity": 0.4409448818897638,
          "duration": 0.20500000000004093
        },
        {
          "name": "E7",
          "midi": 100,
          "time": 50.454000000001614,
          "velocity": 0.4015748031496063,
          "duration": 0.008000000000002672
        },
        {
          "name": "G3",
          "midi": 55,
          "time": 50.454000000001614,
          "velocity": 0.4015748031496063,
          "duration": 0.008000000000002672
        },
        {
          "name": "E5",
          "midi": 76,
          "time": 50.47400000000162,
          "velocity": 0.5826771653543307,
          "duration": 0.08700000000001751
        },
        {
          "name": "E5",
          "midi": 76,
          "time": 50.47400000000162,
          "velocity": 0.5826771653543307,
          "duration": 0.08700000000001751
        },
        {
          "name": "F#3",
          "midi": 54,
          "time": 50.48400000000162,
          "velocity": 0.4015748031496063,
          "duration": 0.008000000000002672
        },
        {
          "name": "F#3",
          "midi": 54,
          "time": 50.48400000000162,
          "velocity": 0.4015748031496063,
          "duration": 0.008000000000002672
        },
        {
          "name": "D5",
          "midi": 74,
          "time": 50.49400000000163,
          "velocity": 0.4015748031496063,
          "duration": 0.018000000000000682
        },
        {
          "name": "D5",
          "midi": 74,
          "time": 50.49400000000163,
          "velocity": 0.4015748031496063,
          "duration": 0.018000000000000682
        },
        {
          "name": "C7",
          "midi": 96,
          "time": 50.50300000000163,
          "velocity": 0.4251968503937008,
          "duration": 0.008000000000002672
        },
        {
          "name": "C7",
          "midi": 96,
          "time": 50.50300000000163,
          "velocity": 0.4251968503937008,
          "duration": 0.008000000000002672
        },
        {
          "name": "E7",
          "midi": 100,
          "time": 50.513000000001625,
          "velocity": 0.41732283464566927,
          "duration": 0.33300000000004104
        },
        {
          "name": "E7",
          "midi": 100,
          "time": 50.513000000001625,
          "velocity": 0.41732283464566927,
          "duration": 0.33300000000004104
        },
        {
          "name": "C8",
          "midi": 108,
          "time": 50.53300000000163,
          "velocity": 0.4015748031496063,
          "duration": 0.008000000000002672
        },
        {
          "name": "G#7",
          "midi": 104,
          "time": 50.53300000000163,
          "velocity": 0.4015748031496063,
          "duration": 0.008000000000002672
        },
        {
          "name": "C8",
          "midi": 108,
          "time": 50.53300000000163,
          "velocity": 0.4015748031496063,
          "duration": 0.008000000000002672
        },
        {
          "name": "G#7",
          "midi": 104,
          "time": 50.53300000000163,
          "velocity": 0.4015748031496063,
          "duration": 0.008000000000002672
        },
        {
          "name": "E5",
          "midi": 76,
          "time": 50.55300000000163,
          "velocity": 0.5275590551181102,
          "duration": 0.8260000000000929
        },
        {
          "name": "E5",
          "midi": 76,
          "time": 50.55300000000163,
          "velocity": 0.5275590551181102,
          "duration": 0.8260000000000929
        },
        {
          "name": "E6",
          "midi": 88,
          "time": 50.57200000000164,
          "velocity": 0.41732283464566927,
          "duration": 0.05800000000001404
        },
        {
          "name": "E6",
          "midi": 88,
          "time": 50.57200000000164,
          "velocity": 0.41732283464566927,
          "duration": 0.05800000000001404
        },
        {
          "name": "G3",
          "midi": 55,
          "time": 50.58200000000164,
          "velocity": 0.4015748031496063,
          "duration": 0.008000000000002672
        },
        {
          "name": "G3",
          "midi": 55,
          "time": 50.58200000000164,
          "velocity": 0.4015748031496063,
          "duration": 0.008000000000002672
        },
        {
          "name": "E2",
          "midi": 40,
          "time": 50.602000000001645,
          "velocity": 0.4094488188976378,
          "duration": 0.018000000000000682
        },
        {
          "name": "E2",
          "midi": 40,
          "time": 50.602000000001645,
          "velocity": 0.4094488188976378,
          "duration": 0.018000000000000682
        },
        {
          "name": "E6",
          "midi": 88,
          "time": 50.62200000000165,
          "velocity": 0.5275590551181102,
          "duration": 0.28400000000002734
        },
        {
          "name": "E6",
          "midi": 88,
          "time": 50.62200000000165,
          "velocity": 0.5275590551181102,
          "duration": 0.28400000000002734
        },
        {
          "name": "B6",
          "midi": 95,
          "time": 50.65100000000165,
          "velocity": 0.41732283464566927,
          "duration": 0.19600000000001216
        },
        {
          "name": "B6",
          "midi": 95,
          "time": 50.65100000000165,
          "velocity": 0.41732283464566927,
          "duration": 0.19600000000001216
        },
        {
          "name": "G3",
          "midi": 55,
          "time": 50.66100000000166,
          "velocity": 0.4094488188976378,
          "duration": 0.036999999999999034
        },
        {
          "name": "G3",
          "midi": 55,
          "time": 50.66100000000166,
          "velocity": 0.4094488188976378,
          "duration": 0.036999999999999034
        },
        {
          "name": "E2",
          "midi": 40,
          "time": 50.73000000000165,
          "velocity": 0.4015748031496063,
          "duration": 0.008000000000002672
        },
        {
          "name": "E2",
          "midi": 40,
          "time": 50.73000000000165,
          "velocity": 0.4015748031496063,
          "duration": 0.008000000000002672
        },
        {
          "name": "F5",
          "midi": 77,
          "time": 50.74000000000166,
          "velocity": 0.4881889763779528,
          "duration": 0.008000000000002672
        },
        {
          "name": "F5",
          "midi": 77,
          "time": 50.74000000000166,
          "velocity": 0.4881889763779528,
          "duration": 0.008000000000002672
        },
        {
          "name": "G#7",
          "midi": 104,
          "time": 50.75000000000166,
          "velocity": 0.4015748031496063,
          "duration": 0.018000000000000682
        },
        {
          "name": "G#7",
          "midi": 104,
          "time": 50.75000000000166,
          "velocity": 0.4015748031496063,
          "duration": 0.018000000000000682
        },
        {
          "name": "G3",
          "midi": 55,
          "time": 50.780000000001664,
          "velocity": 0.4094488188976378,
          "duration": 0.05700000000000216
        },
        {
          "name": "G3",
          "midi": 55,
          "time": 50.780000000001664,
          "velocity": 0.4094488188976378,
          "duration": 0.05700000000000216
        },
        {
          "name": "D#2",
          "midi": 39,
          "time": 50.789000000001664,
          "velocity": 0.4015748031496063,
          "duration": 0.018000000000000682
        },
        {
          "name": "D#2",
          "midi": 39,
          "time": 50.789000000001664,
          "velocity": 0.4015748031496063,
          "duration": 0.018000000000000682
        },
        {
          "name": "B6",
          "midi": 95,
          "time": 50.83900000000167,
          "velocity": 0.4094488188976378,
          "duration": 0.036999999999999034
        },
        {
          "name": "B6",
          "midi": 95,
          "time": 50.83900000000167,
          "velocity": 0.4094488188976378,
          "duration": 0.036999999999999034
        },
        {
          "name": "D#2",
          "midi": 39,
          "time": 50.859000000001664,
          "velocity": 0.4015748031496063,
          "duration": 0.008000000000002672
        },
        {
          "name": "F3",
          "midi": 53,
          "time": 50.859000000001664,
          "velocity": 0.4015748031496063,
          "duration": 0.018000000000000682
        },
        {
          "name": "D#2",
          "midi": 39,
          "time": 50.859000000001664,
          "velocity": 0.4015748031496063,
          "duration": 0.008000000000002672
        },
        {
          "name": "F3",
          "midi": 53,
          "time": 50.859000000001664,
          "velocity": 0.4015748031496063,
          "duration": 0.018000000000000682
        },
        {
          "name": "B6",
          "midi": 95,
          "time": 50.868000000001665,
          "velocity": 0.4094488188976378,
          "duration": 0.2750000000000128
        },
        {
          "name": "B6",
          "midi": 95,
          "time": 50.868000000001665,
          "velocity": 0.4094488188976378,
          "duration": 0.2750000000000128
        },
        {
          "name": "C#2",
          "midi": 37,
          "time": 50.88800000000167,
          "velocity": 0.4015748031496063,
          "duration": 0.008000000000002672
        },
        {
          "name": "C#2",
          "midi": 37,
          "time": 50.88800000000167,
          "velocity": 0.4015748031496063,
          "duration": 0.008000000000002672
        },
        {
          "name": "G3",
          "midi": 55,
          "time": 50.89800000000167,
          "velocity": 0.4094488188976378,
          "duration": 0.04700000000000415
        },
        {
          "name": "E6",
          "midi": 88,
          "time": 50.89800000000167,
          "velocity": 0.49606299212598426,
          "duration": 0.16600000000000392
        },
        {
          "name": "G3",
          "midi": 55,
          "time": 50.89800000000167,
          "velocity": 0.4094488188976378,
          "duration": 0.04700000000000415
        },
        {
          "name": "E6",
          "midi": 88,
          "time": 50.89800000000167,
          "velocity": 0.49606299212598426,
          "duration": 0.16600000000000392
        },
        {
          "name": "E7",
          "midi": 100,
          "time": 50.90800000000168,
          "velocity": 0.41732283464566927,
          "duration": 0.284000000000006
        },
        {
          "name": "E7",
          "midi": 100,
          "time": 50.90800000000168,
          "velocity": 0.41732283464566927,
          "duration": 0.284000000000006
        },
        {
          "name": "F5",
          "midi": 77,
          "time": 50.94700000000168,
          "velocity": 0.4330708661417323,
          "duration": 0.027999999999998693
        },
        {
          "name": "F5",
          "midi": 77,
          "time": 50.94700000000168,
          "velocity": 0.4330708661417323,
          "duration": 0.027999999999998693
        },
        {
          "name": "C2",
          "midi": 36,
          "time": 50.98700000000168,
          "velocity": 0.4015748031496063,
          "duration": 0.008000000000002672
        },
        {
          "name": "G#3",
          "midi": 56,
          "time": 50.98700000000168,
          "velocity": 0.4015748031496063,
          "duration": 0.018000000000000682
        },
        {
          "name": "C2",
          "midi": 36,
          "time": 50.98700000000168,
          "velocity": 0.4015748031496063,
          "duration": 0.008000000000002672
        },
        {
          "name": "G#3",
          "midi": 56,
          "time": 50.98700000000168,
          "velocity": 0.4015748031496063,
          "duration": 0.018000000000000682
        },
        {
          "name": "G3",
          "midi": 55,
          "time": 51.02600000000168,
          "velocity": 0.4094488188976378,
          "duration": 0.046999999999997044
        },
        {
          "name": "G3",
          "midi": 55,
          "time": 51.02600000000168,
          "velocity": 0.4094488188976378,
          "duration": 0.046999999999997044
        },
        {
          "name": "E6",
          "midi": 88,
          "time": 51.06600000000168,
          "velocity": 0.5196850393700787,
          "duration": 0.1950000000000145
        },
        {
          "name": "E6",
          "midi": 88,
          "time": 51.06600000000168,
          "velocity": 0.5196850393700787,
          "duration": 0.1950000000000145
        },
        {
          "name": "G3",
          "midi": 55,
          "time": 51.12500000000168,
          "velocity": 0.4094488188976378,
          "duration": 0.05700000000000216
        },
        {
          "name": "G3",
          "midi": 55,
          "time": 51.12500000000168,
          "velocity": 0.4094488188976378,
          "duration": 0.05700000000000216
        },
        {
          "name": "B6",
          "midi": 95,
          "time": 51.135000000001675,
          "velocity": 0.4330708661417323,
          "duration": 0.07700000000001239
        },
        {
          "name": "B6",
          "midi": 95,
          "time": 51.135000000001675,
          "velocity": 0.4330708661417323,
          "duration": 0.07700000000001239
        },
        {
          "name": "C#2",
          "midi": 37,
          "time": 51.15400000000168,
          "velocity": 0.4015748031496063,
          "duration": 0.018000000000000682
        },
        {
          "name": "C#2",
          "midi": 37,
          "time": 51.15400000000168,
          "velocity": 0.4015748031496063,
          "duration": 0.018000000000000682
        },
        {
          "name": "F6",
          "midi": 89,
          "time": 51.18400000000168,
          "velocity": 0.41732283464566927,
          "duration": 0.028000000000005798
        },
        {
          "name": "F6",
          "midi": 89,
          "time": 51.18400000000168,
          "velocity": 0.41732283464566927,
          "duration": 0.028000000000005798
        },
        {
          "name": "B6",
          "midi": 95,
          "time": 51.204000000001685,
          "velocity": 0.4094488188976378,
          "duration": 0.09700000000001552
        },
        {
          "name": "B6",
          "midi": 95,
          "time": 51.204000000001685,
          "velocity": 0.4094488188976378,
          "duration": 0.09700000000001552
        },
        {
          "name": "D2",
          "midi": 38,
          "time": 51.23300000000169,
          "velocity": 0.4015748031496063,
          "duration": 0.008000000000002672
        },
        {
          "name": "D5",
          "midi": 74,
          "time": 51.23300000000169,
          "velocity": 0.4015748031496063,
          "duration": 0.008000000000002672
        },
        {
          "name": "D2",
          "midi": 38,
          "time": 51.23300000000169,
          "velocity": 0.4015748031496063,
          "duration": 0.008000000000002672
        },
        {
          "name": "D5",
          "midi": 74,
          "time": 51.23300000000169,
          "velocity": 0.4015748031496063,
          "duration": 0.008000000000002672
        },
        {
          "name": "E6",
          "midi": 88,
          "time": 51.25300000000169,
          "velocity": 0.44881889763779526,
          "duration": 0.19600000000003348
        },
        {
          "name": "E7",
          "midi": 100,
          "time": 51.25300000000169,
          "velocity": 0.41732283464566927,
          "duration": 0.09700000000002973
        },
        {
          "name": "E6",
          "midi": 88,
          "time": 51.25300000000169,
          "velocity": 0.44881889763779526,
          "duration": 0.19600000000003348
        },
        {
          "name": "E7",
          "midi": 100,
          "time": 51.25300000000169,
          "velocity": 0.41732283464566927,
          "duration": 0.09700000000002973
        },
        {
          "name": "G3",
          "midi": 55,
          "time": 51.263000000001696,
          "velocity": 0.4015748031496063,
          "duration": 0.028000000000005798
        },
        {
          "name": "G3",
          "midi": 55,
          "time": 51.263000000001696,
          "velocity": 0.4015748031496063,
          "duration": 0.028000000000005798
        },
        {
          "name": "B6",
          "midi": 95,
          "time": 51.2830000000017,
          "velocity": 0.4094488188976378,
          "duration": 0.20500000000002672
        },
        {
          "name": "B6",
          "midi": 95,
          "time": 51.2830000000017,
          "velocity": 0.4094488188976378,
          "duration": 0.20500000000002672
        },
        {
          "name": "F3",
          "midi": 53,
          "time": 51.3120000000017,
          "velocity": 0.4015748031496063,
          "duration": 0.008000000000002672
        },
        {
          "name": "F3",
          "midi": 53,
          "time": 51.3120000000017,
          "velocity": 0.4015748031496063,
          "duration": 0.008000000000002672
        },
        {
          "name": "F6",
          "midi": 89,
          "time": 51.32200000000171,
          "velocity": 0.4015748031496063,
          "duration": 0.008000000000002672
        },
        {
          "name": "F6",
          "midi": 89,
          "time": 51.32200000000171,
          "velocity": 0.4015748031496063,
          "duration": 0.008000000000002672
        },
        {
          "name": "D2",
          "midi": 38,
          "time": 51.33200000000171,
          "velocity": 0.4015748031496063,
          "duration": 0.008000000000002672
        },
        {
          "name": "D2",
          "midi": 38,
          "time": 51.33200000000171,
          "velocity": 0.4015748031496063,
          "duration": 0.008000000000002672
        },
        {
          "name": "E7",
          "midi": 100,
          "time": 51.34200000000172,
          "velocity": 0.4094488188976378,
          "duration": 0.018000000000000682
        },
        {
          "name": "E7",
          "midi": 100,
          "time": 51.34200000000172,
          "velocity": 0.4094488188976378,
          "duration": 0.018000000000000682
        },
        {
          "name": "G3",
          "midi": 55,
          "time": 51.37100000000172,
          "velocity": 0.4094488188976378,
          "duration": 0.05700000000000216
        },
        {
          "name": "E5",
          "midi": 76,
          "time": 51.37100000000172,
          "velocity": 0.6929133858267716,
          "duration": 0.18500000000000227
        },
        {
          "name": "G3",
          "midi": 55,
          "time": 51.37100000000172,
          "velocity": 0.4094488188976378,
          "duration": 0.05700000000000216
        },
        {
          "name": "E5",
          "midi": 76,
          "time": 51.37100000000172,
          "velocity": 0.6929133858267716,
          "duration": 0.18500000000000227
        },
        {
          "name": "E7",
          "midi": 100,
          "time": 51.391000000001725,
          "velocity": 0.41732283464566927,
          "duration": 0.17600000000000193
        },
        {
          "name": "E7",
          "midi": 100,
          "time": 51.391000000001725,
          "velocity": 0.41732283464566927,
          "duration": 0.17600000000000193
        },
        {
          "name": "E6",
          "midi": 88,
          "time": 51.440000000001724,
          "velocity": 0.49606299212598426,
          "duration": 0.12700000000000244
        },
        {
          "name": "E6",
          "midi": 88,
          "time": 51.440000000001724,
          "velocity": 0.49606299212598426,
          "duration": 0.12700000000000244
        },
        {
          "name": "G3",
          "midi": 55,
          "time": 51.470000000001725,
          "velocity": 0.4094488188976378,
          "duration": 0.06700000000000017
        },
        {
          "name": "G3",
          "midi": 55,
          "time": 51.470000000001725,
          "velocity": 0.4094488188976378,
          "duration": 0.06700000000000017
        },
        {
          "name": "B6",
          "midi": 95,
          "time": 51.48000000000172,
          "velocity": 0.44881889763779526,
          "duration": 0.12700000000000955
        },
        {
          "name": "B6",
          "midi": 95,
          "time": 51.48000000000172,
          "velocity": 0.44881889763779526,
          "duration": 0.12700000000000955
        },
        {
          "name": "E5",
          "midi": 76,
          "time": 51.52900000000172,
          "velocity": 0.7007874015748031,
          "duration": 1.7930000000001556
        },
        {
          "name": "E5",
          "midi": 76,
          "time": 51.52900000000172,
          "velocity": 0.7007874015748031,
          "duration": 1.7930000000001556
        },
        {
          "name": "E6",
          "midi": 88,
          "time": 51.559000000001724,
          "velocity": 0.47244094488188976,
          "duration": 0.28400000000002734
        },
        {
          "name": "E6",
          "midi": 88,
          "time": 51.559000000001724,
          "velocity": 0.47244094488188976,
          "duration": 0.28400000000002734
        },
        {
          "name": "C#2",
          "midi": 37,
          "time": 51.56900000000173,
          "velocity": 0.4015748031496063,
          "duration": 0.008000000000002672
        },
        {
          "name": "C#2",
          "midi": 37,
          "time": 51.56900000000173,
          "velocity": 0.4015748031496063,
          "duration": 0.008000000000002672
        },
        {
          "name": "G3",
          "midi": 55,
          "time": 51.579000000001734,
          "velocity": 0.4015748031496063,
          "duration": 0.05700000000000216
        },
        {
          "name": "B6",
          "midi": 95,
          "time": 51.579000000001734,
          "velocity": 0.4094488188976378,
          "duration": 0.11600000000000676
        },
        {
          "name": "G3",
          "midi": 55,
          "time": 51.579000000001734,
          "velocity": 0.4015748031496063,
          "duration": 0.05700000000000216
        },
        {
          "name": "B6",
          "midi": 95,
          "time": 51.579000000001734,
          "velocity": 0.4094488188976378,
          "duration": 0.11600000000000676
        },
        {
          "name": "E2",
          "midi": 40,
          "time": 51.59800000000173,
          "velocity": 0.4094488188976378,
          "duration": 0.008000000000002672
        },
        {
          "name": "E2",
          "midi": 40,
          "time": 51.59800000000173,
          "velocity": 0.4094488188976378,
          "duration": 0.008000000000002672
        },
        {
          "name": "D#5",
          "midi": 75,
          "time": 51.618000000001736,
          "velocity": 0.4094488188976378,
          "duration": 0.008000000000002672
        },
        {
          "name": "D#5",
          "midi": 75,
          "time": 51.618000000001736,
          "velocity": 0.4094488188976378,
          "duration": 0.008000000000002672
        },
        {
          "name": "E7",
          "midi": 100,
          "time": 51.63800000000174,
          "velocity": 0.41732283464566927,
          "duration": 0.10699999999999932
        },
        {
          "name": "E7",
          "midi": 100,
          "time": 51.63800000000174,
          "velocity": 0.41732283464566927,
          "duration": 0.10699999999999932
        },
        {
          "name": "B7",
          "midi": 107,
          "time": 51.64800000000174,
          "velocity": 0.4015748031496063,
          "duration": 0.05700000000000216
        },
        {
          "name": "B7",
          "midi": 107,
          "time": 51.64800000000174,
          "velocity": 0.4015748031496063,
          "duration": 0.05700000000000216
        },
        {
          "name": "C#2",
          "midi": 37,
          "time": 51.65700000000174,
          "velocity": 0.4015748031496063,
          "duration": 0.008000000000002672
        },
        {
          "name": "C#2",
          "midi": 37,
          "time": 51.65700000000174,
          "velocity": 0.4015748031496063,
          "duration": 0.008000000000002672
        },
        {
          "name": "B6",
          "midi": 95,
          "time": 51.67700000000174,
          "velocity": 0.4015748031496063,
          "duration": 0.5110000000000312
        },
        {
          "name": "B6",
          "midi": 95,
          "time": 51.67700000000174,
          "velocity": 0.4015748031496063,
          "duration": 0.5110000000000312
        },
        {
          "name": "G3",
          "midi": 55,
          "time": 51.70700000000174,
          "velocity": 0.4094488188976378,
          "duration": 0.036999999999999034
        },
        {
          "name": "G3",
          "midi": 55,
          "time": 51.70700000000174,
          "velocity": 0.4094488188976378,
          "duration": 0.036999999999999034
        },
        {
          "name": "D#5",
          "midi": 75,
          "time": 51.76600000000174,
          "velocity": 0.4015748031496063,
          "duration": 0.018000000000000682
        },
        {
          "name": "E7",
          "midi": 100,
          "time": 51.76600000000174,
          "velocity": 0.4015748031496063,
          "duration": 0.018000000000000682
        },
        {
          "name": "D#5",
          "midi": 75,
          "time": 51.76600000000174,
          "velocity": 0.4015748031496063,
          "duration": 0.018000000000000682
        },
        {
          "name": "E7",
          "midi": 100,
          "time": 51.76600000000174,
          "velocity": 0.4015748031496063,
          "duration": 0.018000000000000682
        },
        {
          "name": "F#5",
          "midi": 78,
          "time": 51.78600000000174,
          "velocity": 0.4015748031496063,
          "duration": 0.008000000000002672
        },
        {
          "name": "F#5",
          "midi": 78,
          "time": 51.78600000000174,
          "velocity": 0.4015748031496063,
          "duration": 0.008000000000002672
        },
        {
          "name": "G3",
          "midi": 55,
          "time": 51.79600000000175,
          "velocity": 0.4015748031496063,
          "duration": 0.05700000000000216
        },
        {
          "name": "G3",
          "midi": 55,
          "time": 51.79600000000175,
          "velocity": 0.4015748031496063,
          "duration": 0.05700000000000216
        },
        {
          "name": "C#5",
          "midi": 73,
          "time": 51.815000000001746,
          "velocity": 0.4015748031496063,
          "duration": 0.008000000000002672
        },
        {
          "name": "C#5",
          "midi": 73,
          "time": 51.815000000001746,
          "velocity": 0.4015748031496063,
          "duration": 0.008000000000002672
        },
        {
          "name": "E6",
          "midi": 88,
          "time": 51.83500000000175,
          "velocity": 0.4645669291338583,
          "duration": 0.3930000000000291
        },
        {
          "name": "E7",
          "midi": 100,
          "time": 51.83500000000175,
          "velocity": 0.41732283464566927,
          "duration": 0.09700000000001552
        },
        {
          "name": "E6",
          "midi": 88,
          "time": 51.83500000000175,
          "velocity": 0.4645669291338583,
          "duration": 0.3930000000000291
        },
        {
          "name": "E7",
          "midi": 100,
          "time": 51.83500000000175,
          "velocity": 0.41732283464566927,
          "duration": 0.09700000000001552
        },
        {
          "name": "C#2",
          "midi": 37,
          "time": 51.85500000000175,
          "velocity": 0.4015748031496063,
          "duration": 0.008000000000002672
        },
        {
          "name": "C#2",
          "midi": 37,
          "time": 51.85500000000175,
          "velocity": 0.4015748031496063,
          "duration": 0.008000000000002672
        },
        {
          "name": "B7",
          "midi": 107,
          "time": 51.86500000000176,
          "velocity": 0.4015748031496063,
          "duration": 0.027999999999998693
        },
        {
          "name": "B7",
          "midi": 107,
          "time": 51.86500000000176,
          "velocity": 0.4015748031496063,
          "duration": 0.027999999999998693
        },
        {
          "name": "B7",
          "midi": 107,
          "time": 51.91400000000176,
          "velocity": 0.3937007874015748,
          "duration": 0.008000000000002672
        },
        {
          "name": "B7",
          "midi": 107,
          "time": 51.91400000000176,
          "velocity": 0.3937007874015748,
          "duration": 0.008000000000002672
        },
        {
          "name": "E7",
          "midi": 100,
          "time": 51.92400000000176,
          "velocity": 0.4015748031496063,
          "duration": 0.027000000000001023
        },
        {
          "name": "E7",
          "midi": 100,
          "time": 51.92400000000176,
          "velocity": 0.4015748031496063,
          "duration": 0.027000000000001023
        },
        {
          "name": "G3",
          "midi": 55,
          "time": 51.944000000001765,
          "velocity": 0.4015748031496063,
          "duration": 0.046999999999997044
        },
        {
          "name": "G3",
          "midi": 55,
          "time": 51.944000000001765,
          "velocity": 0.4015748031496063,
          "duration": 0.046999999999997044
        },
        {
          "name": "E7",
          "midi": 100,
          "time": 51.97300000000176,
          "velocity": 0.4094488188976378,
          "duration": 0.18500000000000938
        },
        {
          "name": "E7",
          "midi": 100,
          "time": 51.97300000000176,
          "velocity": 0.4094488188976378,
          "duration": 0.18500000000000938
        },
        {
          "name": "D#5",
          "midi": 75,
          "time": 51.98300000000176,
          "velocity": 0.4015748031496063,
          "duration": 0.03700000000000614
        },
        {
          "name": "D#5",
          "midi": 75,
          "time": 51.98300000000176,
          "velocity": 0.4015748031496063,
          "duration": 0.03700000000000614
        },
        {
          "name": "B7",
          "midi": 107,
          "time": 52.032000000001766,
          "velocity": 0.4015748031496063,
          "duration": 0.036999999999999034
        },
        {
          "name": "B7",
          "midi": 107,
          "time": 52.032000000001766,
          "velocity": 0.4015748031496063,
          "duration": 0.036999999999999034
        },
        {
          "name": "G3",
          "midi": 55,
          "time": 52.072000000001765,
          "velocity": 0.4094488188976378,
          "duration": 0.018000000000000682
        },
        {
          "name": "G3",
          "midi": 55,
          "time": 52.072000000001765,
          "velocity": 0.4094488188976378,
          "duration": 0.018000000000000682
        },
        {
          "name": "D#2",
          "midi": 39,
          "time": 52.111000000001766,
          "velocity": 0.4015748031496063,
          "duration": 0.008000000000002672
        },
        {
          "name": "D#2",
          "midi": 39,
          "time": 52.111000000001766,
          "velocity": 0.4015748031496063,
          "duration": 0.008000000000002672
        },
        {
          "name": "C#2",
          "midi": 37,
          "time": 52.14100000000177,
          "velocity": 0.4015748031496063,
          "duration": 0.008000000000002672
        },
        {
          "name": "C#2",
          "midi": 37,
          "time": 52.14100000000177,
          "velocity": 0.4015748031496063,
          "duration": 0.008000000000002672
        },
        {
          "name": "G3",
          "midi": 55,
          "time": 52.16100000000177,
          "velocity": 0.4015748031496063,
          "duration": 0.04700000000000415
        },
        {
          "name": "D#5",
          "midi": 75,
          "time": 52.16100000000177,
          "velocity": 0.4015748031496063,
          "duration": 0.018000000000000682
        },
        {
          "name": "G3",
          "midi": 55,
          "time": 52.16100000000177,
          "velocity": 0.4015748031496063,
          "duration": 0.04700000000000415
        },
        {
          "name": "D#5",
          "midi": 75,
          "time": 52.16100000000177,
          "velocity": 0.4015748031496063,
          "duration": 0.018000000000000682
        },
        {
          "name": "B6",
          "midi": 95,
          "time": 52.17000000000177,
          "velocity": 0.4094488188976378,
          "duration": 0.21600000000000819
        },
        {
          "name": "B6",
          "midi": 95,
          "time": 52.17000000000177,
          "velocity": 0.4094488188976378,
          "duration": 0.21600000000000819
        },
        {
          "name": "D5",
          "midi": 74,
          "time": 52.190000000001774,
          "velocity": 0.4015748031496063,
          "duration": 0.008000000000002672
        },
        {
          "name": "D5",
          "midi": 74,
          "time": 52.190000000001774,
          "velocity": 0.4015748031496063,
          "duration": 0.008000000000002672
        },
        {
          "name": "E7",
          "midi": 100,
          "time": 52.220000000001775,
          "velocity": 0.4094488188976378,
          "duration": 0.10700000000000642
        },
        {
          "name": "E6",
          "midi": 88,
          "time": 52.220000000001775,
          "velocity": 0.4409448818897638,
          "duration": 0.21500000000001052
        },
        {
          "name": "E7",
          "midi": 100,
          "time": 52.220000000001775,
          "velocity": 0.4094488188976378,
          "duration": 0.10700000000000642
        },
        {
          "name": "E6",
          "midi": 88,
          "time": 52.220000000001775,
          "velocity": 0.4409448818897638,
          "duration": 0.21500000000001052
        },
        {
          "name": "B7",
          "midi": 107,
          "time": 52.23900000000178,
          "velocity": 0.4015748031496063,
          "duration": 0.018000000000000682
        },
        {
          "name": "B7",
          "midi": 107,
          "time": 52.23900000000178,
          "velocity": 0.4015748031496063,
          "duration": 0.018000000000000682
        },
        {
          "name": "C#2",
          "midi": 37,
          "time": 52.24900000000178,
          "velocity": 0.4015748031496063,
          "duration": 0.008000000000002672
        },
        {
          "name": "C#2",
          "midi": 37,
          "time": 52.24900000000178,
          "velocity": 0.4015748031496063,
          "duration": 0.008000000000002672
        },
        {
          "name": "G3",
          "midi": 55,
          "time": 52.27900000000178,
          "velocity": 0.4015748031496063,
          "duration": 0.04700000000000415
        },
        {
          "name": "G3",
          "midi": 55,
          "time": 52.27900000000178,
          "velocity": 0.4015748031496063,
          "duration": 0.04700000000000415
        },
        {
          "name": "C#2",
          "midi": 37,
          "time": 52.31800000000178,
          "velocity": 0.4015748031496063,
          "duration": 0.027999999999998693
        },
        {
          "name": "C#2",
          "midi": 37,
          "time": 52.31800000000178,
          "velocity": 0.4015748031496063,
          "duration": 0.027999999999998693
        },
        {
          "name": "D5",
          "midi": 74,
          "time": 52.34800000000178,
          "velocity": 0.4015748031496063,
          "duration": 0.036999999999999034
        },
        {
          "name": "D5",
          "midi": 74,
          "time": 52.34800000000178,
          "velocity": 0.4015748031496063,
          "duration": 0.036999999999999034
        },
        {
          "name": "B6",
          "midi": 95,
          "time": 52.35800000000178,
          "velocity": 0.4094488188976378,
          "duration": 0.6480000000000672
        },
        {
          "name": "B6",
          "midi": 95,
          "time": 52.35800000000178,
          "velocity": 0.4094488188976378,
          "duration": 0.6480000000000672
        },
        {
          "name": "F#5",
          "midi": 78,
          "time": 52.36800000000178,
          "velocity": 0.4015748031496063,
          "duration": 0.008000000000002672
        },
        {
          "name": "F#5",
          "midi": 78,
          "time": 52.36800000000178,
          "velocity": 0.4015748031496063,
          "duration": 0.008000000000002672
        },
        {
          "name": "D#2",
          "midi": 39,
          "time": 52.38700000000178,
          "velocity": 0.4015748031496063,
          "duration": 0.008000000000002672
        },
        {
          "name": "D#2",
          "midi": 39,
          "time": 52.38700000000178,
          "velocity": 0.4015748031496063,
          "duration": 0.008000000000002672
        },
        {
          "name": "G3",
          "midi": 55,
          "time": 52.40700000000178,
          "velocity": 0.4015748031496063,
          "duration": 0.018000000000000682
        },
        {
          "name": "G3",
          "midi": 55,
          "time": 52.40700000000178,
          "velocity": 0.4015748031496063,
          "duration": 0.018000000000000682
        },
        {
          "name": "E7",
          "midi": 100,
          "time": 52.42700000000178,
          "velocity": 0.4094488188976378,
          "duration": 0.10700000000001353
        },
        {
          "name": "E6",
          "midi": 88,
          "time": 52.42700000000178,
          "velocity": 0.4409448818897638,
          "duration": 0.1360000000000241
        },
        {
          "name": "E7",
          "midi": 100,
          "time": 52.42700000000178,
          "velocity": 0.4094488188976378,
          "duration": 0.10700000000001353
        },
        {
          "name": "E6",
          "midi": 88,
          "time": 52.42700000000178,
          "velocity": 0.4409448818897638,
          "duration": 0.1360000000000241
        },
        {
          "name": "D#2",
          "midi": 39,
          "time": 52.447000000001786,
          "velocity": 0.4015748031496063,
          "duration": 0.018000000000000682
        },
        {
          "name": "D#2",
          "midi": 39,
          "time": 52.447000000001786,
          "velocity": 0.4015748031496063,
          "duration": 0.018000000000000682
        },
        {
          "name": "C7",
          "midi": 96,
          "time": 52.45600000000179,
          "velocity": 0.4015748031496063,
          "duration": 0.008000000000002672
        },
        {
          "name": "C7",
          "midi": 96,
          "time": 52.45600000000179,
          "velocity": 0.4015748031496063,
          "duration": 0.008000000000002672
        },
        {
          "name": "G#7",
          "midi": 104,
          "time": 52.47600000000179,
          "velocity": 0.4015748031496063,
          "duration": 0.008000000000002672
        },
        {
          "name": "G#7",
          "midi": 104,
          "time": 52.47600000000179,
          "velocity": 0.4015748031496063,
          "duration": 0.008000000000002672
        },
        {
          "name": "C#2",
          "midi": 37,
          "time": 52.486000000001795,
          "velocity": 0.4015748031496063,
          "duration": 0.008000000000002672
        },
        {
          "name": "C#2",
          "midi": 37,
          "time": 52.486000000001795,
          "velocity": 0.4015748031496063,
          "duration": 0.008000000000002672
        },
        {
          "name": "G3",
          "midi": 55,
          "time": 52.5060000000018,
          "velocity": 0.4015748031496063,
          "duration": 0.06700000000000728
        },
        {
          "name": "G3",
          "midi": 55,
          "time": 52.5060000000018,
          "velocity": 0.4015748031496063,
          "duration": 0.06700000000000728
        },
        {
          "name": "D#2",
          "midi": 39,
          "time": 52.516000000001796,
          "velocity": 0.4015748031496063,
          "duration": 0.008000000000002672
        },
        {
          "name": "D#2",
          "midi": 39,
          "time": 52.516000000001796,
          "velocity": 0.4015748031496063,
          "duration": 0.008000000000002672
        },
        {
          "name": "F5",
          "midi": 77,
          "time": 52.5450000000018,
          "velocity": 0.5039370078740157,
          "duration": 0.008000000000002672
        },
        {
          "name": "F5",
          "midi": 77,
          "time": 52.5450000000018,
          "velocity": 0.5039370078740157,
          "duration": 0.008000000000002672
        },
        {
          "name": "E6",
          "midi": 88,
          "time": 52.555000000001804,
          "velocity": 0.4409448818897638,
          "duration": 0.08700000000001751
        },
        {
          "name": "E6",
          "midi": 88,
          "time": 52.555000000001804,
          "velocity": 0.4409448818897638,
          "duration": 0.08700000000001751
        },
        {
          "name": "F#5",
          "midi": 78,
          "time": 52.57500000000181,
          "velocity": 0.4015748031496063,
          "duration": 0.008000000000002672
        },
        {
          "name": "F#5",
          "midi": 78,
          "time": 52.57500000000181,
          "velocity": 0.4015748031496063,
          "duration": 0.008000000000002672
        },
        {
          "name": "F6",
          "midi": 89,
          "time": 52.59500000000181,
          "velocity": 0.4015748031496063,
          "duration": 0.008000000000002672
        },
        {
          "name": "F6",
          "midi": 89,
          "time": 52.59500000000181,
          "velocity": 0.4015748031496063,
          "duration": 0.008000000000002672
        },
        {
          "name": "D#2",
          "midi": 39,
          "time": 52.60400000000181,
          "velocity": 0.4015748031496063,
          "duration": 0.008000000000002672
        },
        {
          "name": "D#2",
          "midi": 39,
          "time": 52.60400000000181,
          "velocity": 0.4015748031496063,
          "duration": 0.008000000000002672
        },
        {
          "name": "D5",
          "midi": 74,
          "time": 52.614000000001816,
          "velocity": 0.4015748031496063,
          "duration": 0.018000000000000682
        },
        {
          "name": "D5",
          "midi": 74,
          "time": 52.614000000001816,
          "velocity": 0.4015748031496063,
          "duration": 0.018000000000000682
        },
        {
          "name": "E6",
          "midi": 88,
          "time": 52.63400000000182,
          "velocity": 0.41732283464566927,
          "duration": 0.5200000000000387
        },
        {
          "name": "E6",
          "midi": 88,
          "time": 52.63400000000182,
          "velocity": 0.41732283464566927,
          "duration": 0.5200000000000387
        },
        {
          "name": "G3",
          "midi": 55,
          "time": 52.644000000001824,
          "velocity": 0.4015748031496063,
          "duration": 0.15600000000001302
        },
        {
          "name": "G3",
          "midi": 55,
          "time": 52.644000000001824,
          "velocity": 0.4015748031496063,
          "duration": 0.15600000000001302
        },
        {
          "name": "E7",
          "midi": 100,
          "time": 52.65400000000182,
          "velocity": 0.4015748031496063,
          "duration": 0.0870000000000033
        },
        {
          "name": "E7",
          "midi": 100,
          "time": 52.65400000000182,
          "velocity": 0.4015748031496063,
          "duration": 0.0870000000000033
        },
        {
          "name": "F5",
          "midi": 77,
          "time": 52.75200000000183,
          "velocity": 0.4566929133858268,
          "duration": 0.008000000000002672
        },
        {
          "name": "F5",
          "midi": 77,
          "time": 52.75200000000183,
          "velocity": 0.4566929133858268,
          "duration": 0.008000000000002672
        },
        {
          "name": "F5",
          "midi": 77,
          "time": 52.77200000000183,
          "velocity": 0.4015748031496063,
          "duration": 0.008000000000002672
        },
        {
          "name": "F5",
          "midi": 77,
          "time": 52.77200000000183,
          "velocity": 0.4015748031496063,
          "duration": 0.008000000000002672
        },
        {
          "name": "D#5",
          "midi": 75,
          "time": 52.78200000000184,
          "velocity": 0.4015748031496063,
          "duration": 0.027999999999998693
        },
        {
          "name": "D#5",
          "midi": 75,
          "time": 52.78200000000184,
          "velocity": 0.4015748031496063,
          "duration": 0.027999999999998693
        },
        {
          "name": "D2",
          "midi": 38,
          "time": 52.82100000000184,
          "velocity": 0.4015748031496063,
          "duration": 0.06700000000000017
        },
        {
          "name": "D2",
          "midi": 38,
          "time": 52.82100000000184,
          "velocity": 0.4015748031496063,
          "duration": 0.06700000000000017
        },
        {
          "name": "G3",
          "midi": 55,
          "time": 52.84100000000184,
          "velocity": 0.4015748031496063,
          "duration": 0.07699999999999818
        },
        {
          "name": "G3",
          "midi": 55,
          "time": 52.84100000000184,
          "velocity": 0.4015748031496063,
          "duration": 0.07699999999999818
        },
        {
          "name": "E7",
          "midi": 100,
          "time": 52.85100000000184,
          "velocity": 0.4015748031496063,
          "duration": 0.046999999999997044
        },
        {
          "name": "E7",
          "midi": 100,
          "time": 52.85100000000184,
          "velocity": 0.4015748031496063,
          "duration": 0.046999999999997044
        },
        {
          "name": "B1",
          "midi": 35,
          "time": 52.91000000000184,
          "velocity": 0.3937007874015748,
          "duration": 0.008000000000002672
        },
        {
          "name": "B1",
          "midi": 35,
          "time": 52.91000000000184,
          "velocity": 0.3937007874015748,
          "duration": 0.008000000000002672
        },
        {
          "name": "F#3",
          "midi": 54,
          "time": 52.93000000000184,
          "velocity": 0.3937007874015748,
          "duration": 0.008000000000002672
        },
        {
          "name": "F#3",
          "midi": 54,
          "time": 52.93000000000184,
          "velocity": 0.3937007874015748,
          "duration": 0.008000000000002672
        },
        {
          "name": "G#3",
          "midi": 56,
          "time": 52.940000000001845,
          "velocity": 0.3937007874015748,
          "duration": 0.018000000000000682
        },
        {
          "name": "G#3",
          "midi": 56,
          "time": 52.940000000001845,
          "velocity": 0.3937007874015748,
          "duration": 0.018000000000000682
        },
        {
          "name": "D#2",
          "midi": 39,
          "time": 52.95000000000184,
          "velocity": 0.3937007874015748,
          "duration": 0.018000000000000682
        },
        {
          "name": "D#2",
          "midi": 39,
          "time": 52.95000000000184,
          "velocity": 0.3937007874015748,
          "duration": 0.018000000000000682
        },
        {
          "name": "G3",
          "midi": 55,
          "time": 52.96900000000184,
          "velocity": 0.4015748031496063,
          "duration": 0.06700000000000728
        },
        {
          "name": "G3",
          "midi": 55,
          "time": 52.96900000000184,
          "velocity": 0.4015748031496063,
          "duration": 0.06700000000000728
        },
        {
          "name": "A#3",
          "midi": 58,
          "time": 52.97900000000184,
          "velocity": 0.3937007874015748,
          "duration": 0.008000000000002672
        },
        {
          "name": "A#3",
          "midi": 58,
          "time": 52.97900000000184,
          "velocity": 0.3937007874015748,
          "duration": 0.008000000000002672
        },
        {
          "name": "F#2",
          "midi": 42,
          "time": 52.989000000001845,
          "velocity": 0.4015748031496063,
          "duration": 0.008000000000002672
        },
        {
          "name": "F#2",
          "midi": 42,
          "time": 52.989000000001845,
          "velocity": 0.4015748031496063,
          "duration": 0.008000000000002672
        },
        {
          "name": "F#5",
          "midi": 78,
          "time": 53.00900000000185,
          "velocity": 0.3937007874015748,
          "duration": 0.018000000000000682
        },
        {
          "name": "F#5",
          "midi": 78,
          "time": 53.00900000000185,
          "velocity": 0.3937007874015748,
          "duration": 0.018000000000000682
        },
        {
          "name": "A#2",
          "midi": 46,
          "time": 53.019000000001846,
          "velocity": 0.3937007874015748,
          "duration": 0.018000000000000682
        },
        {
          "name": "A#2",
          "midi": 46,
          "time": 53.019000000001846,
          "velocity": 0.3937007874015748,
          "duration": 0.018000000000000682
        },
        {
          "name": "D#2",
          "midi": 39,
          "time": 53.038000000001844,
          "velocity": 0.4015748031496063,
          "duration": 0.008000000000002672
        },
        {
          "name": "D#2",
          "midi": 39,
          "time": 53.038000000001844,
          "velocity": 0.4015748031496063,
          "duration": 0.008000000000002672
        },
        {
          "name": "C4",
          "midi": 60,
          "time": 53.05800000000185,
          "velocity": 0.3937007874015748,
          "duration": 0.018000000000000682
        },
        {
          "name": "C#2",
          "midi": 37,
          "time": 53.05800000000185,
          "velocity": 0.4015748031496063,
          "duration": 0.018000000000000682
        },
        {
          "name": "G3",
          "midi": 55,
          "time": 53.05800000000185,
          "velocity": 0.4015748031496063,
          "duration": 0.0870000000000104
        },
        {
          "name": "C4",
          "midi": 60,
          "time": 53.05800000000185,
          "velocity": 0.3937007874015748,
          "duration": 0.018000000000000682
        },
        {
          "name": "C#2",
          "midi": 37,
          "time": 53.05800000000185,
          "velocity": 0.4015748031496063,
          "duration": 0.018000000000000682
        },
        {
          "name": "G3",
          "midi": 55,
          "time": 53.05800000000185,
          "velocity": 0.4015748031496063,
          "duration": 0.0870000000000104
        },
        {
          "name": "D#2",
          "midi": 39,
          "time": 53.10700000000185,
          "velocity": 0.4094488188976378,
          "duration": 0.008000000000002672
        },
        {
          "name": "D#2",
          "midi": 39,
          "time": 53.10700000000185,
          "velocity": 0.4094488188976378,
          "duration": 0.008000000000002672
        },
        {
          "name": "D#5",
          "midi": 75,
          "time": 53.11700000000185,
          "velocity": 0.3937007874015748,
          "duration": 0.008000000000002672
        },
        {
          "name": "F5",
          "midi": 77,
          "time": 53.11700000000185,
          "velocity": 0.3937007874015748,
          "duration": 0.018000000000000682
        },
        {
          "name": "D#5",
          "midi": 75,
          "time": 53.11700000000185,
          "velocity": 0.3937007874015748,
          "duration": 0.008000000000002672
        },
        {
          "name": "F5",
          "midi": 77,
          "time": 53.11700000000185,
          "velocity": 0.3937007874015748,
          "duration": 0.018000000000000682
        },
        {
          "name": "C2",
          "midi": 36,
          "time": 53.137000000001855,
          "velocity": 0.4015748031496063,
          "duration": 0.008000000000002672
        },
        {
          "name": "C2",
          "midi": 36,
          "time": 53.137000000001855,
          "velocity": 0.4015748031496063,
          "duration": 0.008000000000002672
        },
        {
          "name": "D#5",
          "midi": 75,
          "time": 53.14700000000186,
          "velocity": 0.3937007874015748,
          "duration": 0.007999999999995566
        },
        {
          "name": "D#5",
          "midi": 75,
          "time": 53.14700000000186,
          "velocity": 0.3937007874015748,
          "duration": 0.007999999999995566
        },
        {
          "name": "F3",
          "midi": 53,
          "time": 53.15700000000186,
          "velocity": 0.4015748031496063,
          "duration": 0.018000000000000682
        },
        {
          "name": "F3",
          "midi": 53,
          "time": 53.15700000000186,
          "velocity": 0.4015748031496063,
          "duration": 0.018000000000000682
        },
        {
          "name": "A2",
          "midi": 45,
          "time": 53.167000000001856,
          "velocity": 0.3937007874015748,
          "duration": 0.037000000000013245
        },
        {
          "name": "D2",
          "midi": 38,
          "time": 53.167000000001856,
          "velocity": 0.4015748031496063,
          "duration": 0.008000000000002672
        },
        {
          "name": "A2",
          "midi": 45,
          "time": 53.167000000001856,
          "velocity": 0.3937007874015748,
          "duration": 0.037000000000013245
        },
        {
          "name": "D2",
          "midi": 38,
          "time": 53.167000000001856,
          "velocity": 0.4015748031496063,
          "duration": 0.008000000000002672
        },
        {
          "name": "B3",
          "midi": 59,
          "time": 53.17700000000186,
          "velocity": 0.3937007874015748,
          "duration": 0.028000000000005798
        },
        {
          "name": "D#5",
          "midi": 75,
          "time": 53.17700000000186,
          "velocity": 0.3937007874015748,
          "duration": 0.008000000000002672
        },
        {
          "name": "B3",
          "midi": 59,
          "time": 53.17700000000186,
          "velocity": 0.3937007874015748,
          "duration": 0.028000000000005798
        },
        {
          "name": "D#5",
          "midi": 75,
          "time": 53.17700000000186,
          "velocity": 0.3937007874015748,
          "duration": 0.008000000000002672
        },
        {
          "name": "G3",
          "midi": 55,
          "time": 53.19600000000187,
          "velocity": 0.4015748031496063,
          "duration": 0.06700000000000728
        },
        {
          "name": "G3",
          "midi": 55,
          "time": 53.19600000000187,
          "velocity": 0.4015748031496063,
          "duration": 0.06700000000000728
        },
        {
          "name": "F3",
          "midi": 53,
          "time": 53.206000000001865,
          "velocity": 0.3937007874015748,
          "duration": 0.008000000000002672
        },
        {
          "name": "G2",
          "midi": 43,
          "time": 53.206000000001865,
          "velocity": 0.3937007874015748,
          "duration": 0.008000000000002672
        },
        {
          "name": "F3",
          "midi": 53,
          "time": 53.206000000001865,
          "velocity": 0.3937007874015748,
          "duration": 0.008000000000002672
        },
        {
          "name": "G2",
          "midi": 43,
          "time": 53.206000000001865,
          "velocity": 0.3937007874015748,
          "duration": 0.008000000000002672
        },
        {
          "name": "A#3",
          "midi": 58,
          "time": 53.21600000000187,
          "velocity": 0.3937007874015748,
          "duration": 0.03700000000000614
        },
        {
          "name": "C2",
          "midi": 36,
          "time": 53.21600000000187,
          "velocity": 0.3937007874015748,
          "duration": 0.008000000000002672
        },
        {
          "name": "A#3",
          "midi": 58,
          "time": 53.21600000000187,
          "velocity": 0.3937007874015748,
          "duration": 0.03700000000000614
        },
        {
          "name": "C2",
          "midi": 36,
          "time": 53.21600000000187,
          "velocity": 0.3937007874015748,
          "duration": 0.008000000000002672
        },
        {
          "name": "D2",
          "midi": 38,
          "time": 53.23600000000187,
          "velocity": 0.4015748031496063,
          "duration": 0.027999999999998693
        },
        {
          "name": "D2",
          "midi": 38,
          "time": 53.23600000000187,
          "velocity": 0.4015748031496063,
          "duration": 0.027999999999998693
        },
        {
          "name": "C#2",
          "midi": 37,
          "time": 53.275000000001874,
          "velocity": 0.3937007874015748,
          "duration": 0.008000000000002672
        },
        {
          "name": "C4",
          "midi": 60,
          "time": 53.275000000001874,
          "velocity": 0.3937007874015748,
          "duration": 0.008000000000002672
        },
        {
          "name": "F#3",
          "midi": 54,
          "time": 53.275000000001874,
          "velocity": 0.3937007874015748,
          "duration": 0.018000000000000682
        },
        {
          "name": "C#2",
          "midi": 37,
          "time": 53.275000000001874,
          "velocity": 0.3937007874015748,
          "duration": 0.008000000000002672
        },
        {
          "name": "C4",
          "midi": 60,
          "time": 53.275000000001874,
          "velocity": 0.3937007874015748,
          "duration": 0.008000000000002672
        },
        {
          "name": "F#3",
          "midi": 54,
          "time": 53.275000000001874,
          "velocity": 0.3937007874015748,
          "duration": 0.018000000000000682
        },
        {
          "name": "D2",
          "midi": 38,
          "time": 53.305000000001876,
          "velocity": 0.4015748031496063,
          "duration": 0.018000000000000682
        },
        {
          "name": "F3",
          "midi": 53,
          "time": 53.305000000001876,
          "velocity": 0.3937007874015748,
          "duration": 0.018000000000000682
        },
        {
          "name": "D2",
          "midi": 38,
          "time": 53.305000000001876,
          "velocity": 0.4015748031496063,
          "duration": 0.018000000000000682
        },
        {
          "name": "F3",
          "midi": 53,
          "time": 53.305000000001876,
          "velocity": 0.3937007874015748,
          "duration": 0.018000000000000682
        }
      ],
      "controlChanges": {},
      "id": 1,
      "channelNumber": 0,
      "isPercussion": false
    }
  ]
}
